<svg id="レイヤー_1" data-name="レイヤー 1" xmlns="http://www.w3.org/2000/svg" viewBox="0 0 350 117"><defs><style>.cls-1{fill:#004021;}.cls-2{fill:#231815;}</style></defs><title>list-title1-sp</title><path class="cls-1" d="M0,29.85V25c7.53-6.49,11.43-9.51,11.43-13.35C11.43,8.83,9.84,7.7,7,7.7A14.4,14.4,0,0,0,1.31,9.09v-4A16.19,16.19,0,0,1,8.22,3.53c5.28,0,8,2.92,8,7.11C16.23,14.31,15,17.5,4.8,25.8H16.85v4.05Z"/><path class="cls-1" d="M20.51,17c0-8.89,2.45-13.28,8.83-13.28S38.18,8.24,38.18,17s-2.45,13.3-8.84,13.3S20.51,25.87,20.51,17Zm13.05,0c0-6.52-1.07-9.33-4.22-9.33S25.13,10.5,25.13,17s1,9.33,4.21,9.33S33.56,23.5,33.56,17Z"/><path class="cls-1" d="M42,29.85V25c7.53-6.49,11.43-9.51,11.43-13.35,0-2.82-1.59-3.95-4.46-3.95a14.44,14.44,0,0,0-5.66,1.44v-4A16.12,16.12,0,0,1,50.2,3.53c5.28,0,8,2.92,8,7.11,0,3.67-1.28,6.86-11.43,15.16h12v4.05Z"/><path class="cls-1" d="M62.49,17c0-8.89,2.45-13.28,8.83-13.28S80.16,8.24,80.16,17s-2.45,13.3-8.84,13.3S62.49,25.87,62.49,17Zm13.05,0c0-6.52-1.07-9.33-4.22-9.33S67.11,10.5,67.11,17s1,9.33,4.21,9.33S75.54,23.5,75.54,17Z"/><path class="cls-1" d="M95.32,15.48a24.18,24.18,0,0,0-3.07.13V12a16.92,16.92,0,0,0,3.1.17h.83a15,15,0,0,0-1.48-4l3-.72H96.08a24.17,24.17,0,0,0-3.18.14V4a18.6,18.6,0,0,0,3.25.18h2.59V3.67a12.78,12.78,0,0,0-.18-2.47h4.08a12,12,0,0,0-.14,2.47v.52h2.28A18.26,18.26,0,0,0,108,4V7.62a25.78,25.78,0,0,0-3.17-.14h-1.42l2.9.82c-.21.45-.21.45-.55,1.14-.17.37-.17.37-.55,1.27a11.35,11.35,0,0,1-.76,1.47h.69a17.86,17.86,0,0,0,3.1-.17v3.6a26.79,26.79,0,0,0-3.1-.13h-2.73v2.4H105a19,19,0,0,0,3.11-.17v3.53A24.81,24.81,0,0,0,105,21.1h-1.24a14.46,14.46,0,0,0,3.48,2.95,23.89,23.89,0,0,0-1.62,3.19,15.12,15.12,0,0,1-3.31-3.6,10.81,10.81,0,0,0,.07,1.27v4.7a16.16,16.16,0,0,0,.17,2.78H98.67a20,20,0,0,0,.17-2.67V26.39c0-.65,0-1.55.07-2.3a16.62,16.62,0,0,1-5.59,6.21,11.34,11.34,0,0,0-1.7-3.43,17.09,17.09,0,0,0,5.91-5.77H95.35a19.69,19.69,0,0,0-3.07.17V17.71a19.39,19.39,0,0,0,3.14.17h3.42v-2.4Zm2.59-8a14.39,14.39,0,0,1,1.45,3.91l-3,.79H101a20.49,20.49,0,0,0,1.93-4.7Zm22.57,4.08a18,18,0,0,0,3.11-.2V15.1a19.21,19.21,0,0,0-2.73-.14H120V28.48a22.69,22.69,0,0,0,.2,3.95h-4a26.08,26.08,0,0,0,.21-3.95V15h-3.62a44.48,44.48,0,0,1-1.25,10.84,20.89,20.89,0,0,1-3,6.73,14,14,0,0,0-3.34-2.2c3.21-3.91,4.07-8.3,4.07-21a41.83,41.83,0,0,0-.21-5.25c3.83-.1,9.67-1.57,11.39-2.88l2.8,3.26c-.38.14-.52.17-1.14.38a48.33,48.33,0,0,1-9.25,2.3v4.37Z"/><path class="cls-1" d="M151.45,28.24a24.94,24.94,0,0,0,.21,4.05H147.9V30.92H136.33v1.4h-3.69a26.74,26.74,0,0,0,.21-4V22.13a39.81,39.81,0,0,1-4.6,3.36,12.16,12.16,0,0,0-2.17-3.19A26.19,26.19,0,0,0,134,16.16h-3.18a32.24,32.24,0,0,0-3.93.21V13a28.24,28.24,0,0,0,3.9.21h5.32c.44-.76.65-1.14,1-1.86h-3.56a28.18,28.18,0,0,0-3.56.14V8.27a28.18,28.18,0,0,0,3.56.14h4.76c.21-.66.28-1,.49-1.65h-6.3a28.8,28.8,0,0,0-3.83.17V3.53a29.7,29.7,0,0,0,4,.21h6.84a13.47,13.47,0,0,0,.21-2.37V1l4,.3c-.13.59-.2.86-.34,1.65a5.22,5.22,0,0,1-.14.79h8.53a29.7,29.7,0,0,0,4-.21v3.4a29.41,29.41,0,0,0-3.87-.17h-9.35c-.18.65-.25,1-.45,1.65h8.66a28.66,28.66,0,0,0,3.59-.14v3.19a28.66,28.66,0,0,0-3.59-.14h-3.83a15.15,15.15,0,0,0,1,1.86h5.69a27.81,27.81,0,0,0,3.87-.21v3.4a31.75,31.75,0,0,0-3.9-.21H150.2a24.31,24.31,0,0,0,8.15,5.94,12.78,12.78,0,0,0-1.93,3.46,34.08,34.08,0,0,1-5-3.6ZM136.33,23H147.9V21H136.33Zm0,4.94H147.9V25.77H136.33Zm11.29-9.81c-.55-.72-.9-1.14-1.45-2h-7.91c-.62.86-1,1.31-1.48,2Zm-3.28-4.94c-.28-.55-.38-.79-.86-1.86H141c-.34.72-.52,1.07-.93,1.86Z"/><path class="cls-1" d="M163.19,12.76V9.09h8.94c0-.92.07-1.88.07-2.88v-4h4.21V6c0,1,0,2-.07,3.05h9.29l2,1.92a107.71,107.71,0,0,1-1.1,14.24c-.62,3.81-2.45,5.43-5.53,5.43a33.07,33.07,0,0,1-4.55-.35L176,26.18a24.41,24.41,0,0,0,4.35.45c1.14,0,1.76-.45,2-2.13a71.11,71.11,0,0,0,1-11.74H176c-1,8.89-4.93,14.79-11.84,18.53L161.6,28.1c6-3.43,9.15-7.79,10.22-15.34Z"/><path class="cls-1" d="M218.19,30.71a61.83,61.83,0,0,0-9-9.85A39.43,39.43,0,0,1,196,30.47l-2.7-3.36c9-3.85,15.4-10.3,18.58-18.36h-15.3V4.91h18l2.34,2.6a44.19,44.19,0,0,1-5.31,10.23,58.7,58.7,0,0,1,10.11,10Z"/><path class="cls-1" d="M236.38,10.16a35.1,35.1,0,0,1-7.49,7.61l-3-2.64a32.66,32.66,0,0,0,10.7-13.65l4.15,1.27c-.62,1.33-1.28,2.67-2,3.91H249L251.19,9c-3.45,12.25-9.87,18.87-20.33,22.85l-2.56-3.47a32.41,32.41,0,0,0,11.5-7,34.57,34.57,0,0,0-6.08-4.84l2.42-2.64a28.6,28.6,0,0,1,6.28,4.53,26.59,26.59,0,0,0,4.15-8.23Z"/><path class="cls-1" d="M264.14,15.27a43.08,43.08,0,0,1,5.32,4.39,37,37,0,0,0,8.63-9.06H256.72V6.73H281.3l2.48,2.91a46.28,46.28,0,0,1-11.63,12.84,53.2,53.2,0,0,1,3.93,4.94l-3.52,2.78A54.23,54.23,0,0,0,261.34,18Z"/><path class="cls-1" d="M305.26,31.09h-4.39V15.58a59.56,59.56,0,0,1-10.46,5.11l-2.48-3.43c8.77-3.19,16-7.65,21.95-14.62l3.56,2.51a59.25,59.25,0,0,1-8.18,7.41Z"/><path class="cls-1" d="M343.48,31.23a61.83,61.83,0,0,0-9-9.85A39.28,39.28,0,0,1,321.24,31l-2.69-3.36C327.6,23.8,334,17.35,337.12,9.28H321.83V5.39h18.06L342.23,8a44.32,44.32,0,0,1-5.31,10.22,59.42,59.42,0,0,1,10.11,10ZM343.13,1.3a23.47,23.47,0,0,1,2.69,5.87l-2.52.93A25.58,25.58,0,0,0,340.78,2Zm4-1.3A22.41,22.41,0,0,1,350,5.8l-2.49.86A21.93,21.93,0,0,0,344.89.79Z"/><path class="cls-1" d="M35.09,53l.52,3.81L25.84,58l.86,5,11.08-1.48.56,3.77-11,1.45L29,76.7l-4.11.59L23.22,67.4,11.75,68.91l-.51-3.77,11.35-1.51-.86-5-9.35,1.16L11.93,56l9.18-1.17L20,48.53,24.15,48l1.07,6.35Z"/><path class="cls-1" d="M57.39,76.77l-3.79.65L50.73,62.77l-6.52,1-.49-3.6L50,59.24,48.8,53l3.87-.61,1.2,6.31L66.09,57,68,59.38A26,26,0,0,1,61.23,69L58.5,66.7a20.34,20.34,0,0,0,4.63-5.76l-8.57,1.27Z"/><path class="cls-1" d="M77.07,50.35a33.2,33.2,0,0,1,8.19,6.59l-3.15,3.29a47.15,47.15,0,0,0-7.8-7ZM74.83,71.8c11-2.58,18.26-8.31,21.85-17.54l3.7,2.27C96.37,67,87.64,73.31,76.31,75.81Z"/><path class="cls-1" d="M104,64.25a59.83,59.83,0,0,0,8.32-8.37A4.31,4.31,0,0,1,115.53,54a4.52,4.52,0,0,1,3.21,1.65A123.61,123.61,0,0,0,134.52,69.4l-3,4a128,128,0,0,1-15-14.17c-.35-.41-.63-.62-.9-.62a1.7,1.7,0,0,0-1,.65,73.26,73.26,0,0,1-7.9,8.34Zm28.93-9.2a3.94,3.94,0,1,1-4-3.91h0a3.88,3.88,0,0,1,4,3.79V55h0Zm-6,0A2.07,2.07,0,1,0,129,53h0a2,2,0,0,0-2.11,1.88h0v.16Z"/><path class="cls-1" d="M167,60.2v4.32H139.29V60.2Z"/><path class="cls-1" d="M176.36,50.35a33.2,33.2,0,0,1,8.19,6.59l-3.14,3.29a48.08,48.08,0,0,0-7.81-7ZM174.12,71.8c11-2.58,18.26-8.31,21.85-17.54l3.7,2.27c-4,10.43-12.74,16.78-24.06,19.28Z"/><path class="cls-1" d="M210,50.25a18.58,18.58,0,0,0-.21-3.16h3.94a20.86,20.86,0,0,0-.18,3.16v1.89h2.38a22.06,22.06,0,0,0,3.25-.18v3.57a25.5,25.5,0,0,0-2.62-.1,33.7,33.7,0,0,1-2.32,10.19c2.14,2.68,2.39,3,4.8,6.42l-2.66,3a42.31,42.31,0,0,0-3.9-5.83,33.06,33.06,0,0,1-6.73,8.3,11.45,11.45,0,0,0-2.55-3.12,23.9,23.9,0,0,0,6.94-8.27,67.08,67.08,0,0,0-5.74-6.18l2.46-2.47c.65.69.65.69,2.65,2.71.28.28.83.9,2.14,2.41A32.15,32.15,0,0,0,213,55.45h-6.25a20.59,20.59,0,0,0-3.14.17V51.93a22.9,22.9,0,0,0,3.31.21H210Zm11.25,9.09A39,39,0,0,1,226,67.13l-3.08,2A29.1,29.1,0,0,0,218.17,61Zm1.87-2.09a19.88,19.88,0,0,0-3.18.17V53.71a19.15,19.15,0,0,0,3.21.18h4.28V51.21a22.28,22.28,0,0,0-.24-4h4.07a25.47,25.47,0,0,0-.2,4v2.68h.41a18.81,18.81,0,0,0,3.18-.21v3.74a3.84,3.84,0,0,1-.76-.07,19.51,19.51,0,0,0-2.42-.1H231V73.51c0,1.72-.14,2.3-.63,2.89-.62.78-1.86,1.13-4.1,1.13-1.38,0-2.63,0-3.94-.11a11.89,11.89,0,0,0-1.07-3.74,32.76,32.76,0,0,0,4.07.38c1.83,0,2-.07,2-.75V57.25Z"/><path class="cls-1" d="M259,61.4a20.42,20.42,0,0,0,1.46,3.6,16.16,16.16,0,0,0,3.77-3.37l3.1,2.2c-.34.28-.44.38-.82.72a30.58,30.58,0,0,1-4.28,3.23,16,16,0,0,0,7.49,5.45,13.58,13.58,0,0,0-2.32,3.61,20.56,20.56,0,0,1-8.32-7.31,33.63,33.63,0,0,1-3.76-8.17h-.93c-.52.38-.73.51-1.35.93a14.59,14.59,0,0,1,3.89,10.12c0,4.22-1.41,5.52-5.93,5.52-.38,0-1,0-1.73-.06A8.93,8.93,0,0,0,248,74.34a23,23,0,0,0,2.87.27c2.14,0,2.52-.41,2.52-2.71a3.21,3.21,0,0,0,0-.62A49.38,49.38,0,0,1,240,77.15a10.34,10.34,0,0,0-1.93-3,48.7,48.7,0,0,0,14.67-5.7c-.21-.58-.28-.75-.49-1.23a49.13,49.13,0,0,1-12,4.63,10.05,10.05,0,0,0-1.66-2.78A45.81,45.81,0,0,0,251,64.92a8.55,8.55,0,0,0-.8-1,42,42,0,0,1-10,3.22,8.6,8.6,0,0,0-1.66-2.81,41.26,41.26,0,0,0,10.67-2.95h-4.35c-1.38,0-2.21,0-3.32.1a27.35,27.35,0,0,0,.11-3V56a25.77,25.77,0,0,1-2.32,1.38,9.06,9.06,0,0,0-1.65-3.13,24.57,24.57,0,0,0,6.35-4,17.2,17.2,0,0,0,3.66-4l4.14.65-1.28,1.48H256c1.17,0,2.9-.07,3.28-.14l1.9,1.71c-.32.31-.42.42-.83.86-.9.93-1.42,1.41-2.45,2.33H263a32.4,32.4,0,0,0,3.55-.13,27.37,27.37,0,0,0-.13,3v2.57a25.09,25.09,0,0,0,.13,3c-.89-.07-1.76-.1-3.17-.1Zm-7-3.09V56.12h-6.84v2.19Zm1.65-5.15a17.17,17.17,0,0,0,2-2H248a20.66,20.66,0,0,1-2.28,2Zm9.19,5.15V56.12h-7.36v2.19Z"/><path class="cls-1" d="M300.27,51.83a17.46,17.46,0,0,0,2.8-.14,37.66,37.66,0,0,0-.18,4.25c-.27,11.46-.69,16.51-1.62,18.84-.79,2-2.21,2.78-5.21,2.78-.73,0-1.55-.07-3.25-.24a8.11,8.11,0,0,0-.89-3.77,18.73,18.73,0,0,0,4.21.58c1.34,0,1.86-.72,2.24-3.09a124.08,124.08,0,0,0,1-16H299a42.76,42.76,0,0,1-3.63,12.21c-2,4-4.41,6.83-8.8,10.26a8,8,0,0,0-2.86-2.74,23,23,0,0,0,8.8-9.54A34.11,34.11,0,0,0,295.75,55h-1.38c-1.69,6.58-4.45,11.11-9,14.72a8.45,8.45,0,0,0-2.49-2.89,15.31,15.31,0,0,0,4-3.39A21.14,21.14,0,0,0,291.2,55h-1.56a22.5,22.5,0,0,1-4,5.93,10,10,0,0,0-2.83-2.54,11.81,11.81,0,0,0,1.63-1.61,16.7,16.7,0,0,0-1.87-.07h-.83V63q1.62-.54,3.18-1.23v3.32c-1.58.69-2.07.9-3.21,1.34v7.65A32,32,0,0,0,281.8,78h-4a30.94,30.94,0,0,0,.21-3.85V67.82c-1.38.48-2.42.82-3,1.06a9.46,9.46,0,0,0-1.79.69l-.8-4A22.35,22.35,0,0,0,278,64.25V56.8h-1.69A34.8,34.8,0,0,1,275,62.22a11.36,11.36,0,0,0-3-1.82,17.78,17.78,0,0,0,1.27-4.63,31.82,31.82,0,0,0,.45-4.77,9.32,9.32,0,0,0-.07-1.4l3.35.34c-.14,2.06-.14,2.2-.24,3.46H278V49.6a16.19,16.19,0,0,0-.21-2.78h4a16.19,16.19,0,0,0-.21,2.78v3.8h.83a8.41,8.41,0,0,0,2.18-.17v3.23A18.85,18.85,0,0,0,287,52a20.76,20.76,0,0,0,1.49-5.18l3.9.69a28.51,28.51,0,0,0-1,3c-.13.34-.24.68-.48,1.27Z"/><path class="cls-1" d="M310.59,64.42c0-1.13,0-2.2.07-3.67a16.58,16.58,0,0,1-2.83,3.88,14.34,14.34,0,0,0-1.52-4.16,28.26,28.26,0,0,0,5.84-9.54,18.88,18.88,0,0,0,1.21-4.35l3.83,1.06c-.17.52-.24.65-.55,1.54a45.76,45.76,0,0,1-2.35,5.87v19a34,34,0,0,0,.17,3.91h-4.07a33.38,33.38,0,0,0,.2-4Zm14.88-13.66a20.88,20.88,0,0,0-.24-3.53h4.18a21.33,21.33,0,0,0-.21,3.57v3.09h4.21a24.88,24.88,0,0,0,3.66-.21v3.81c-1.55-.14-2.52-.17-3.62-.17H329.2V63.6h5.25a26.81,26.81,0,0,0,3.8-.21v3.88a29.05,29.05,0,0,0-3.73-.21H329.2v7a25.17,25.17,0,0,0,.21,3.88h-4.18a25.19,25.19,0,0,0,.24-3.88v-7h-5.8a26.67,26.67,0,0,0-3.79.21V63.39a26.26,26.26,0,0,0,3.76.21h5.83V57.32h-4.69a25.85,25.85,0,0,1-2.73,4.87,13.36,13.36,0,0,0-3-2.4,25.55,25.55,0,0,0,3.66-6.9,17.77,17.77,0,0,0,1-4.25l3.76.89c-.28.79-.31,1-.62,2s-.48,1.51-.76,2.34h3.38Z"/><path class="cls-2" d="M119.17,104.28l6.46-12.73h2.48l-6.44,12.73L128.11,117h-2.48Z"/><path class="cls-2" d="M137.73,103.58a25.23,25.23,0,0,0-2.88.13v-1.87c-1.27.72-1.75,1-2.88,1.53a14.59,14.59,0,0,0-1.73-2.79,22.85,22.85,0,0,0,9.3-6.21,13.68,13.68,0,0,0,1.4-1.9h3.37A19.1,19.1,0,0,0,149,97.1a24.71,24.71,0,0,0,6.47,3.35,12.89,12.89,0,0,0-1.7,3c-1.18-.57-1.94-1-3.12-1.66v1.92a26.3,26.3,0,0,0-2.81-.13H144.1v3h4.31a25.23,25.23,0,0,0,2.88-.13v2.94a25.76,25.76,0,0,0-2.91-.13H144.1v3.53H151a27.07,27.07,0,0,0,3.37-.16v3.06a28.28,28.28,0,0,0-3.32-.16h-16.5a28.11,28.11,0,0,0-3.31.16v-3.06a25.27,25.27,0,0,0,3.37.16h6.54v-3.53h-3.88a25.76,25.76,0,0,0-2.91.13v-2.94a23.62,23.62,0,0,0,2.91.13h3.88v-3ZM148,100.93h1.24A23.51,23.51,0,0,1,142.72,95a21.21,21.21,0,0,1-6.36,5.94H148Z"/><path class="cls-2" d="M210.19,98.57h3.9a16.39,16.39,0,0,0,2.32-.11,18.12,18.12,0,0,0-.11,2.44v4.72a18.86,18.86,0,0,0,.11,2.49,20.91,20.91,0,0,0-2.5-.11h-2.46a16.54,16.54,0,0,0,6.58,4.71,8.58,8.58,0,0,0-1.64,2.74,18.32,18.32,0,0,1-3.75-2.74,11.25,11.25,0,0,1-2.56-3.1c0,.45.11,1.34.11,1.9v2.57a11.45,11.45,0,0,0,.16,2.41h-2.94a14.57,14.57,0,0,0,.16-2.38v-2.57a14,14,0,0,1,.08-1.83,18.15,18.15,0,0,1-6.17,5.84,8.22,8.22,0,0,0-1.69-2.51A16.94,16.94,0,0,0,204,110.3a11.72,11.72,0,0,0,2.15-2.3h-2a18.33,18.33,0,0,0-2.34.11,19.84,19.84,0,0,0,.13-2.44v-1.53a8.16,8.16,0,0,0-1.18,2.17A11.84,11.84,0,0,1,199,103c.11,1.09.16,2.38.16,3.56v6.75a25.11,25.11,0,0,0,.16,3.24h-3a27,27,0,0,0,.16-3.24v-7.09a16.64,16.64,0,0,1,.11-2,19.18,19.18,0,0,1-2.72,6.13,13.15,13.15,0,0,0-1.3-2.92,20.11,20.11,0,0,0,2.43-4.52,24.92,24.92,0,0,0,1.16-3.48h-1.24a10.22,10.22,0,0,0-1.75.1V96.78a9.3,9.3,0,0,0,1.75.11h1.51v-2a16.36,16.36,0,0,0-.14-2.71h3a18.85,18.85,0,0,0-.13,2.71v2h.73a6.7,6.7,0,0,0,1.1-.06V94.47a18,18,0,0,0,2.75.16h3.85v-.4a10.32,10.32,0,0,0-.16-2h2.91a8.93,8.93,0,0,0-.13,2v.4h4.44a19.23,19.23,0,0,0,2.73-.16v2.82a20.35,20.35,0,0,0-2.7-.14h-4.47Zm-6.5-1.42a21.13,21.13,0,0,0-2.39.08v2.31a9.53,9.53,0,0,0-1.41-.08h-.59a12.78,12.78,0,0,0,2.61,4.31v-2.92a14.67,14.67,0,0,0-.13-2.39,18.19,18.19,0,0,0,2.45.11h3.34V97.15Zm.78,3.67v1.42h3.1v-1.42Zm0,3.48v1.45h3.1V104.3Zm5.72-2.06h3.47v-1.42h-3.47Zm0,3.51h3.5V104.3h-3.5Z"/><path class="cls-2" d="M219.89,117l6.44-12.72-6.44-12.73h2.48l6.46,12.73L222.37,117Z"/><path class="cls-2" d="M165.38,114.63V97.27l-5.12,1.63V95.62l6.24-2.18h2.66v21.19Z"/><path class="cls-2" d="M174,111.13a15,15,0,0,0,4.2.68c3.53,0,4.87-1.4,4.87-3.31s-1.37-3-4.31-3h-3.05l.61-3h1.32c3.58,0,5-1.29,5-3.28,0-2.16-1.57-2.72-3.81-2.72a12.54,12.54,0,0,0-4.36.9V94.11a15.69,15.69,0,0,1,5.51-.92c4.45,0,6.33,2.18,6.33,5.32a5.34,5.34,0,0,1-3.44,4.95,4.89,4.89,0,0,1,4.14,5c0,3.62-2.86,6.56-8.23,6.56a15.06,15.06,0,0,1-4.76-.62Z"/></svg>