<svg id="レイヤー_1" data-name="レイヤー 1" xmlns="http://www.w3.org/2000/svg" viewBox="0 0 338 64"><defs><style>.cls-1{fill:#231815;}</style></defs><title>list-title2-sp</title><path class="cls-1" d="M2,8a26.29,26.29,0,0,1,4.78,3.71l-2.1,2.45a19.9,19.9,0,0,0-4.72-4ZM6.88,18.29a48.74,48.74,0,0,1-2.53,6.8L3.21,27.53.42,25.18a3.14,3.14,0,0,0,.6-.79,38,38,0,0,0,3.25-8.15ZM3.45.51A26.3,26.3,0,0,1,7.93,4.35L5.68,6.73a20.93,20.93,0,0,0-4.45-4ZM23,2.9a29.28,29.28,0,0,0,4.24-.18V5.89a35.73,35.73,0,0,0-3.87-.12h-11c-.48.78-.87,1.38-1.35,2.08H22.31c1.42,0,2.32,0,3.1-.09-.06.42-.09.75-.15,1.66,0,.21-.06,1.66-.15,4.35a14,14,0,0,0,2.61-.15v3.13a17.19,17.19,0,0,0-2.46-.15H25c-.09,1.54-.18,2.48-.3,3.66a10.26,10.26,0,0,0,2.22-.15v3.1a15.67,15.67,0,0,0-2.22-.12H24.3c-.6,3.66-1.29,4.35-4.39,4.35-.45,0-.78,0-2.61-.15a7.07,7.07,0,0,0-.63-3,19.4,19.4,0,0,0,3,.27c1.08,0,1.23-.12,1.56-1.45H11.26c-.21.94-.27,1.24-.54,2.33l-3.3-.3A50.08,50.08,0,0,0,9.37,16.6H8.92a13.64,13.64,0,0,0-2.28.15V13.62a17,17,0,0,0,2.73.15H9.7A40.34,40.34,0,0,0,10,9.15a23.91,23.91,0,0,1-1.77,1.93A8.38,8.38,0,0,0,6,8.69,15.86,15.86,0,0,0,9.79,4.2,13.73,13.73,0,0,0,11.44,0l3.4.57c-.66,1.54-.66,1.54-1,2.33Zm-7.8,17.36c.21-1.36.27-1.75.48-3.66H12.34c-.18,1.3-.21,1.57-.57,3.66Zm.72-6.49c.09-.94.09-.94.18-3.2H12.88c-.09,1.48-.09,1.84-.24,3.2Zm5.76,6.49c.18-1.33.27-2.42.36-3.66H18.47c-.12,1.12-.27,2.36-.45,3.66Zm.48-6.49c.06-1.82.06-1.82.09-3.2h-3.3c-.15,2.35-.15,2.35-.21,3.2Z"/><path class="cls-1" d="M37.48,10.93a21.39,21.39,0,0,1,3.22,3,31.22,31.22,0,0,0,1.89-7h-4.3A29.71,29.71,0,0,1,32.65,16a7.94,7.94,0,0,0-2-2.84A23.25,23.25,0,0,0,36.07,4a22.7,22.7,0,0,0,.87-3.9l3.4.6a10.75,10.75,0,0,0-.55,1.73l-.51,1.66h4.24c1.11,0,1.68,0,2.4-.09-.12.63-.12.75-.27,2a14,14,0,0,0,2.88,4.28V3.74A22.46,22.46,0,0,0,48.35.33h3.58a22.46,22.46,0,0,0-.18,3.41v9.6a25,25,0,0,0,2.82,1.81,17.58,17.58,0,0,0,4,2,14.84,14.84,0,0,0-1.71,3.26,33.09,33.09,0,0,1-5.07-3.17v6.4A29.07,29.07,0,0,0,52,27.53H48.32a30,30,0,0,0,.21-3.92V14.49A20.42,20.42,0,0,1,45,10.23a27.74,27.74,0,0,1-4,9.85,29.31,29.31,0,0,1-7.36,7.39,9,9,0,0,0-2.34-2.69,16.3,16.3,0,0,0,3.48-2.59,20,20,0,0,0,4.47-5.41,22,22,0,0,0-3.54-3.47Z"/><path class="cls-1" d="M75.92,26.44H72.11V12.8A52.37,52.37,0,0,1,63,17.3l-2.16-3C68.48,11.47,74.75,7.55,80,1.42L83,3.62a50.63,50.63,0,0,1-7.12,6.52Z"/><path class="cls-1" d="M91.15,3.26a28.68,28.68,0,0,1,7.12,5.8L95.54,12a41.84,41.84,0,0,0-6.79-6.12Zm-2,18.87c9.55-2.27,15.89-7.31,19-15.43l3.21,2c-3.48,9.18-11.08,14.77-20.93,17Z"/><path class="cls-1" d="M115.15,9.93h24.09v3.23h-9.85c-.24,6.46-3,10.78-8.32,13.5l-2.35-2.84c4.69-2.45,6.67-5.47,6.82-10.66H115.15Zm2.79-7h18.53V6.19H117.94Z"/><path class="cls-1" d="M145.78,2.63h3.82V16.12h-3.82ZM162,2.26V12c0,7.64-3.45,12.2-9.73,14.83L150,23.64c5.88-2.21,8.23-5.62,8.23-12.08V2.26Z"/><path class="cls-1" d="M192.82,5.28a19.27,19.27,0,0,1-7.36,9.21L183.21,12a15,15,0,0,0,5.16-5.53H168.85V3.17h22.28ZM181.55,9.06v2.53c0,7.73-3,12.38-9.64,15l-2-3.11c5.74-2.18,7.84-5.41,7.84-12V9.06Z"/><path class="cls-1" d="M210,23.43c5.73-1.72,8.2-4.62,8.2-9.18A7.5,7.5,0,0,0,211,6.52a31.75,31.75,0,0,1-3.16,13.59c-1.53,3.1-3.57,4.25-6,4.25-3.31,0-5.89-2.72-5.89-8.42C196,9.33,201,3.2,209.64,3.2c7.56,0,12.22,4.8,12.22,11.08s-3.66,10.29-9.94,12.32ZM207.41,6.64c-5.37.61-7.89,5.19-7.89,9.27,0,3.77,1.32,4.83,2.43,4.83s1.77-.39,2.64-2A29.81,29.81,0,0,0,207.41,6.64Z"/><path class="cls-1" d="M238.56,9.84a15.87,15.87,0,0,1-1.59,1.3,15.56,15.56,0,0,1,2.58,3.77,17.35,17.35,0,0,1,2,7.88c0,1.93-.45,3.23-1.35,3.93-.63.51-1.62.72-3.36.72-.78,0-2-.06-3.22-.15a10,10,0,0,0-.87-3.17,21.09,21.09,0,0,0,3.73.42c1.41,0,1.92-.54,1.92-2.17a15.45,15.45,0,0,0-.12-1.69,42.17,42.17,0,0,1-11.23,5.89,12.16,12.16,0,0,0-1.84-2.69,36.15,36.15,0,0,0,12.38-6c-.24-.66-.39-1-.69-1.69a43.14,43.14,0,0,1-9.85,4.65,12.56,12.56,0,0,0-1.66-2.51,35.51,35.51,0,0,0,10.34-4.13,14.53,14.53,0,0,0-1.21-1.57,33,33,0,0,1-7,2.84A13.75,13.75,0,0,0,226.07,13a25.55,25.55,0,0,0,4.83-1.3,15.79,15.79,0,0,0,3.75-1.84h-2.07a27.9,27.9,0,0,0-2.88.15V7a17.05,17.05,0,0,0,2.88.15h12.08A20.54,20.54,0,0,0,247.57,7v3a29,29,0,0,0-2.91-.15h-2.08A20.73,20.73,0,0,0,244,14.37a18.27,18.27,0,0,0,3.88-3.77l2.79,2.17c-.69.54-.9.72-1.68,1.39A32.67,32.67,0,0,1,245.44,17a19.2,19.2,0,0,0,6.93,6.18A18.32,18.32,0,0,0,250,26a23.32,23.32,0,0,1-5.07-4.59A26.69,26.69,0,0,1,239.7,9.84Zm-1.83-7.91a8.53,8.53,0,0,0-.18-1.78h3.6A8.21,8.21,0,0,0,240,1.93v.64h8.14a31.78,31.78,0,0,0,3.24-.12,13.41,13.41,0,0,0-.09,2.05V6.85a14.28,14.28,0,0,0,.12,2.09h-3.18V5.4H229V8.94h-3.22A12.84,12.84,0,0,0,226,6.82V4.5a16.52,16.52,0,0,0-.12-2,31.75,31.75,0,0,0,3.25.12h7.63Z"/><path class="cls-1" d="M258.77,21.43a27.33,27.33,0,0,0-3.36.18V18.26c.87.09,2.19.19,3.39.19h19.79a33.59,33.59,0,0,0,3.46-.19v3.35a30.32,30.32,0,0,0-3.34-.18H273.4c2.61,1.69,4.32,2.36,8.41,3.2a13.67,13.67,0,0,0-2,3A25.56,25.56,0,0,1,270.24,23l2.23-1.54H264.6L266.91,23a21.45,21.45,0,0,1-9.4,4.65,11.5,11.5,0,0,0-1.86-2.87c4.23-.9,5.88-1.6,8.17-3.35ZM275.26,1.36a29,29,0,0,0,3-.12,21.18,21.18,0,0,0-.15,3.14V14a27.38,27.38,0,0,0,.15,3.14c-1-.09-1.92-.12-3.06-.12H262.1c-1.14,0-2.07,0-3.06.12a27.8,27.8,0,0,0,.15-3.2V4.29a20.32,20.32,0,0,0-.15-3,31.71,31.71,0,0,0,3.19.12ZM262.44,4.08V5.8h12.43V4.08Zm0,4.25v1.72h12.43V8.33Zm0,4.26v1.78h12.43V12.59Z"/><path class="cls-1" d="M292.2,23.94c0,1.33.06,2.44.15,3.56h-3.54a30.18,30.18,0,0,0,.18-3.56V15.21c0-1.41,0-2.11.09-3.29a18.58,18.58,0,0,1-2.56,3.39,14.19,14.19,0,0,0-1.65-3.39,24.72,24.72,0,0,0,5.44-8.24A14.92,14.92,0,0,0,291.54,0l3.36.94c-.21.45-.42,1-.69,1.72-.36,1-1.2,2.83-2,4.49ZM305,4.14a32.22,32.22,0,0,0-.18-3.69h3.55a32.59,32.59,0,0,0-.18,3.69V6.73h.87a17.2,17.2,0,0,0,2.82-.18V9.81a24.92,24.92,0,0,0-2.76-.12h-.93v13.8c0,1.57-.3,2.47-1,2.92s-1.45.55-3.61.55c-1.08,0-1.89,0-3.15-.12a9.62,9.62,0,0,0-.93-3.32,27.25,27.25,0,0,0,3.6.3c1.65,0,1.89-.09,1.89-.79V9.69h-8a30.18,30.18,0,0,0-3.48.18V6.55a25.5,25.5,0,0,0,3.33.18H305Zm-7.6,7.51A34.76,34.76,0,0,1,302,18.57l-2.73,1.93a28.25,28.25,0,0,0-4.36-7.16Z"/><path class="cls-1" d="M331.72,16.75a25.25,25.25,0,0,1-2.7-3.62,89.34,89.34,0,0,1-10.39,1,7.91,7.91,0,0,1-.45-2.69,2,2,0,0,1,0-.42c2.94-.09,6.16-.33,9.16-.7-.42-.84-.84-1.69-1.2-2.53-3.07.39-6.16.66-9.25.75a9.15,9.15,0,0,1-.3-2.41,5.31,5.31,0,0,1,0-.7c2.73-.06,5.52-.24,8.32-.57-.45-1.21-.84-2.41-1.21-3.68a11.07,11.07,0,0,1,3.37-.58c.33,1.3.72,2.54,1.14,3.81,2.55-.43,5.07-.94,7.45-1.57a6.91,6.91,0,0,1,.66,2.87v.15c-2.25.57-4.6,1-7,1.45.39.84.78,1.72,1.23,2.53,2.34-.39,4.48-.84,6.7-1.42a7.46,7.46,0,0,1,.66,2.87c-1.92.51-3.75.94-5.77,1.33a39.74,39.74,0,0,0,4.66,5.89A8.67,8.67,0,0,1,335.06,21a20.27,20.27,0,0,0-8.47-2.14c-4.27,0-5.44,1.36-5.44,2.53,0,1.54,1.44,2.33,5.74,2.33a40,40,0,0,0,5.13-.36,9.74,9.74,0,0,1,.24,2.17,9,9,0,0,1-.09,1.3,38.09,38.09,0,0,1-5.34.33c-6.61,0-9.19-2.39-9.19-5.71,0-2.56,2.22-5.34,8.35-5.34a19,19,0,0,1,5.67.79Z"/><path class="cls-1" d="M57.32,45.34a23.88,23.88,0,0,1-1,4.32,8.9,8.9,0,0,0-2.55-1.3,27.29,27.29,0,0,0,1.47-8.78c0-.18,0-.36,0-.76l2.88.37a7.31,7.31,0,0,0-.18,1.54l-.06.42-.09,1.21h1.35V38.88a15.53,15.53,0,0,0-.18-2.44h3.45a15.72,15.72,0,0,0-.17,2.44v3.48h.24a15.38,15.38,0,0,0,2.37-.16v3.08c.9.06,1.65.09,2.7.09H70.8V42.51H68.34a28.72,28.72,0,0,0-3,.15V39.43a20.74,20.74,0,0,0,3,.18H70.8v-.94a16.9,16.9,0,0,0-.15-2.2h3.4a15.2,15.2,0,0,0-.15,2.2v.94h3.18a21.66,21.66,0,0,0,3.09-.18v3.23a29.09,29.09,0,0,0-3.09-.15H73.9v2.86h4a29.47,29.47,0,0,0,3.34-.15v3.17c-.91-.09-2-.15-3.07-.15h-.21v2.48h.27a17.67,17.67,0,0,0,2.92-.15v3.26a20.65,20.65,0,0,0-2.92-.18h-.27v7.09c0,2.2-.93,2.81-4.35,2.81-.48,0-1.59,0-2.5-.09a8.35,8.35,0,0,0-.75-3.23,28.6,28.6,0,0,0,3.46.3c.9,0,1.08-.15,1.08-.91v-6H67.17a16.62,16.62,0,0,0-2.88.18V52.47c-.81.36-1.35.6-2.13.93v7.07a31.61,31.61,0,0,0,.17,3.44H58.88a31.49,31.49,0,0,0,.18-3.44V54.58c-.72.24-1.35.48-2,.7a17.84,17.84,0,0,0-2.25.87l-.72-3.38a26.65,26.65,0,0,0,4.92-1.33v-6.1Zm4.84,5c1.17-.42,1.53-.6,2.58-1v1.3c.69.06,1.53.09,2.79.09h7.33V48.24H67.47a24.25,24.25,0,0,0-3.33.15v-3c-.63,0-1,0-1.5,0h-.48ZM68,53.83a23.82,23.82,0,0,1,3.88,4.49l-2.56,2a23.2,23.2,0,0,0-3.75-4.86Z"/><path class="cls-1" d="M95.49,58.51A25.94,25.94,0,0,1,91,61.8a23,23,0,0,1-4.81,2.05,9.32,9.32,0,0,0-2.19-3,18.69,18.69,0,0,0,4.8-1.6,17.37,17.37,0,0,0,4.15-2.78ZM93.3,39.31a11.92,11.92,0,0,0-.18-2.69h3.3a12.54,12.54,0,0,0-.18,2.75v.72h3.43v-.72a14.45,14.45,0,0,0-.15-2.75h3.27a13.23,13.23,0,0,0-.18,2.72v.75h3.81c1.45,0,2.29,0,2.92-.09a18.21,18.21,0,0,0-.12,2.51V53.34a15.81,15.81,0,0,0,2.34-.18v3.38a27.07,27.07,0,0,0-3.48-.18H87.83a26.74,26.74,0,0,0-3.48.18V53.16a15.81,15.81,0,0,0,2.34.18V42.48A19.55,19.55,0,0,0,86.57,40c.84.06,1.59.09,2.86.09H93.3Zm0,3.71H89.88v3.53H93.3Zm0,6.37H89.88v4H93.3Zm6.37-2.84V43H96.24v3.53Zm0,6.79v-4H96.24v4Zm2.49,3.17a18.4,18.4,0,0,0,4,2.57,20.1,20.1,0,0,0,5.35,1.78A12.11,12.11,0,0,0,109.67,64a22.39,22.39,0,0,1-5.35-2.2,26,26,0,0,1-4.56-3.26Zm3.87-10V43h-3.42v3.53Zm0,6.79v-4h-3.42v4Z"/><path class="cls-1" d="M123.09,42.93H117V39.7h19.88v3.23H126.73v5h12.49v3.23H126.73v5c0,1.75.57,2.36,2.88,2.36a43.14,43.14,0,0,0,8.26-.79l.45,3.47a41.42,41.42,0,0,1-8.74.73c-4.83,0-6.49-1.66-6.49-5V51.11h-8.26V47.88h8.26Z"/><path class="cls-1" d="M143.1,46.46h24.08v3.23h-9.85c-.24,6.46-3,10.78-8.32,13.49l-2.34-2.83c4.69-2.45,6.67-5.5,6.82-10.66H143.1Zm2.79-7h16.16v3.26H145.89Zm18.65-2.78a21.41,21.41,0,0,1,2.34,5.19l-2.19.79a21.67,21.67,0,0,0-2.22-5.32Zm3.51-1.12a19.55,19.55,0,0,1,2.47,5.1l-2.17.76a19.48,19.48,0,0,0-2.28-5.16Z"/><path class="cls-1" d="M181.12,39.34v6.91c0,7-2,11.83-6.64,15.7l-2.79-2.54c4.26-3.26,5.74-7.27,5.74-13.37v-6.7Zm8.11-.85V57.06a22.76,22.76,0,0,0,8.05-6.61l2,3.17c-2.61,3.41-7.24,6.55-11.8,8.33l-2-1.69V38.49Z"/><path class="cls-1" d="M210.19,39.34v6.91c0,7-2,11.83-6.64,15.7l-2.79-2.54C205,56.15,206.5,52.14,206.5,46v-6.7Zm8.11-.85V57.06a22.67,22.67,0,0,0,8-6.61l2,3.17c-2.61,3.41-7.24,6.55-11.8,8.33l-1.95-1.69V38.49Z"/><path class="cls-1" d="M255.87,48.15V52H231.73v-3.8Z"/><path class="cls-1" d="M281.88,62.46c-.42-1.12-.87-2.2-1.35-3.26a159.22,159.22,0,0,1-19.73,2.41l-.51-3.92c1.26,0,2.52-.09,3.75-.15a143.27,143.27,0,0,0,6.22-19.68l3.87.75A145.2,145.2,0,0,1,268,57.3c3.69-.3,7.35-.64,11-1.24a45,45,0,0,0-3.82-5.74L278,48.6a41.55,41.55,0,0,1,7.54,12.23Z"/></svg>