<svg id="レイヤー_1" data-name="レイヤー 1" xmlns="http://www.w3.org/2000/svg" viewBox="0 0 572 28"><defs><style>.cls-1{fill:#231815;}</style></defs><title>list-title2</title><path class="cls-1" d="M2,8.52A26.7,26.7,0,0,1,6.8,12.17L4.7,14.58A19.39,19.39,0,0,0,0,10.69ZM6.86,18.68a49,49,0,0,1-2.52,6.68l-1.13,2.4L.42,25.45a3.06,3.06,0,0,0,.6-.78,36.15,36.15,0,0,0,3.23-8ZM3.44,1.19A25.83,25.83,0,0,1,7.91,5L5.66,7.3a20.76,20.76,0,0,0-4.43-4ZM22.91,3.53a29.2,29.2,0,0,0,4.23-.18V6.47a35.73,35.73,0,0,0-3.87-.12h-11c-.48.78-.87,1.37-1.35,2.05H22.25c1.41,0,2.31,0,3.09-.09-.06.42-.09.75-.15,1.64,0,.2-.06,1.63-.15,4.27a14,14,0,0,0,2.61-.15v3.09A17.19,17.19,0,0,0,25.19,17h-.3c-.09,1.52-.18,2.44-.3,3.6a10.26,10.26,0,0,0,2.22-.15v3.06a15.67,15.67,0,0,0-2.22-.12h-.36c-.6,3.59-1.29,4.27-4.37,4.27-.45,0-.78,0-2.61-.15a6.8,6.8,0,0,0-.63-3,20.59,20.59,0,0,0,3,.26c1.08,0,1.23-.12,1.56-1.42H11.23c-.21.92-.27,1.22-.54,2.28L7.4,25.39A48.45,48.45,0,0,0,9.35,17H8.9a13.64,13.64,0,0,0-2.28.15V14.07a17,17,0,0,0,2.73.15h.33A40.48,40.48,0,0,0,10,9.68a20.71,20.71,0,0,1-1.76,1.9A8.38,8.38,0,0,0,6,9.23,15.66,15.66,0,0,0,9.77,4.81,13.62,13.62,0,0,0,11.41.68l3.39.57c-.66,1.51-.66,1.51-1,2.28ZM15.13,20.61c.21-1.34.27-1.73.48-3.6h-3.3c-.18,1.28-.21,1.55-.57,3.6Zm.72-6.39c.09-.92.09-.92.18-3.14H12.85c-.09,1.45-.09,1.81-.24,3.14Zm5.75,6.39c.18-1.31.27-2.38.36-3.6H18.42c-.12,1.1-.27,2.32-.45,3.6Zm.48-6.39c.06-1.78.06-1.78.09-3.14h-3.3c-.15,2.31-.15,2.31-.21,3.14Z"/><path class="cls-1" d="M37.38,11.43a20.66,20.66,0,0,1,3.21,2.94,29.72,29.72,0,0,0,1.88-6.89H38.19a29,29,0,0,1-5.63,9,7.87,7.87,0,0,0-2-2.79,22.87,22.87,0,0,0,5.36-9A22,22,0,0,0,36.84.8l3.39.6a11.29,11.29,0,0,0-.54,1.69c-.21.68-.33,1.07-.51,1.63H43.4c1.11,0,1.68,0,2.4-.09-.12.63-.12.74-.27,2a13.88,13.88,0,0,0,2.87,4.22V4.36A23.19,23.19,0,0,0,48.23,1h3.56a21.7,21.7,0,0,0-.18,3.35v9.45a27.22,27.22,0,0,0,2.82,1.78,17.74,17.74,0,0,0,4,1.93,14.78,14.78,0,0,0-1.71,3.2,33.5,33.5,0,0,1-5.06-3.11V23.9a28.12,28.12,0,0,0,.21,3.86H48.2a29.07,29.07,0,0,0,.2-3.86v-9a20.42,20.42,0,0,1-3.53-4.18,27.17,27.17,0,0,1-3.95,9.68,28.84,28.84,0,0,1-7.34,7.27,8.75,8.75,0,0,0-2.34-2.64,16.79,16.79,0,0,0,3.48-2.55,20,20,0,0,0,4.46-5.32,21.24,21.24,0,0,0-3.53-3.41Z"/><path class="cls-1" d="M75.72,26.69h-3.8V13.27a52.58,52.58,0,0,1-9.08,4.43l-2.15-3C68.3,12,74.55,8.11,79.74,2.08l3.08,2.17a50.84,50.84,0,0,1-7.1,6.41Z"/><path class="cls-1" d="M90.91,3.89A28.76,28.76,0,0,1,98,9.59l-2.73,2.85a41.47,41.47,0,0,0-6.77-6ZM89,22.45c9.53-2.23,15.85-7.19,19-15.18l3.21,2c-3.48,9-11,14.52-20.88,16.69Z"/><path class="cls-1" d="M114.84,10.45h24v3.18H129c-.24,6.35-3,10.6-8.3,13.27l-2.33-2.79c4.67-2.41,6.65-5.37,6.8-10.48H114.84Zm2.79-6.92h18.48V6.77H117.63Z"/><path class="cls-1" d="M145.4,3.27h3.8V16.54h-3.8Zm16.17-.36v9.53c0,7.51-3.44,12-9.7,14.58l-2.31-3.09c5.87-2.17,8.21-5.52,8.21-11.87V2.91Z"/><path class="cls-1" d="M192.3,5.88A18.94,18.94,0,0,1,185,14.93l-2.25-2.43a14.69,14.69,0,0,0,5.15-5.43H168.4V3.8h22.23ZM181.07,9.59v2.49c0,7.61-3,12.18-9.61,14.76l-2-3.06c5.72-2.13,7.82-5.31,7.82-11.84V9.59Z"/><path class="cls-1" d="M209.44,23.72c5.72-1.69,8.18-4.54,8.18-9a7.4,7.4,0,0,0-7.19-7.6,30.93,30.93,0,0,1-3.15,13.36c-1.52,3.06-3.56,4.18-6,4.18-3.29,0-5.87-2.67-5.87-8.28,0-6.5,5-12.53,13.63-12.53,7.55,0,12.19,4.72,12.19,10.9s-3.65,10.12-9.91,12.11ZM206.86,7.21c-5.36.6-7.87,5.11-7.87,9.12,0,3.71,1.31,4.75,2.42,4.75s1.77-.38,2.64-2A29.08,29.08,0,0,0,206.86,7.21Z"/><path class="cls-1" d="M237.93,10.36a15.63,15.63,0,0,1-1.59,1.28,15.38,15.38,0,0,1,2.57,3.71,16.81,16.81,0,0,1,2,7.75c0,1.9-.45,3.18-1.35,3.86-.63.51-1.62.71-3.35.71-.78,0-2-.06-3.21-.15a9.74,9.74,0,0,0-.87-3.11,21.84,21.84,0,0,0,3.72.41c1.41,0,1.92-.53,1.92-2.14,0-.59-.07-1.09-.12-1.66a41.56,41.56,0,0,1-11.21,5.79,12.69,12.69,0,0,0-1.82-2.64A36.47,36.47,0,0,0,237,18.29c-.24-.65-.39-1-.69-1.66a43.16,43.16,0,0,1-9.83,4.57,13,13,0,0,0-1.64-2.46,35.9,35.9,0,0,0,10.3-4.07,15.23,15.23,0,0,0-1.2-1.55A33,33,0,0,1,227,15.91a13.49,13.49,0,0,0-1.53-2.46,25.82,25.82,0,0,0,4.83-1.28A15.9,15.9,0,0,0,234,10.36H232a27.85,27.85,0,0,0-2.87.15V7.57a17,17,0,0,0,2.87.15h12a20.46,20.46,0,0,0,2.9-.12v2.91a28.93,28.93,0,0,0-2.9-.15h-2.07a20.22,20.22,0,0,0,1.44,4.46,18.62,18.62,0,0,0,3.86-3.71L250,13.24c-.69.54-.9.72-1.68,1.37a33,33,0,0,1-3.57,2.79,19.24,19.24,0,0,0,6.92,6.09,17.09,17.09,0,0,0-2.36,2.79,23.08,23.08,0,0,1-5.07-4.52,26.22,26.22,0,0,1-5.21-11.4ZM236.1,2.58a8.24,8.24,0,0,0-.18-1.75h3.59a7.93,7.93,0,0,0-.15,1.75v.63h8.12a31.78,31.78,0,0,0,3.24-.12,11.77,11.77,0,0,0-.1,2V7.42a13.71,13.71,0,0,0,.12,2.05h-3.17V6H228.43V9.47h-3.2a15,15,0,0,0,.14-2.08V5.11c0-.83-.06-1.43-.11-2a31.07,31.07,0,0,0,3.23.12h7.61Z"/><path class="cls-1" d="M258.08,21.76a27.28,27.28,0,0,0-3.35.18V18.65c.87.09,2.19.17,3.38.17h19.74a34.19,34.19,0,0,0,3.45-.17v3.29a30.14,30.14,0,0,0-3.33-.18h-5.3c2.61,1.67,4.31,2.32,8.39,3.15a13.46,13.46,0,0,0-2,2.91,25.76,25.76,0,0,1-9.52-4.54l2.21-1.52h-7.85l2.31,1.55a21.63,21.63,0,0,1-9.37,4.57A11.22,11.22,0,0,0,255,25.06c4.22-.89,5.87-1.57,8.15-3.3ZM274.53,2a28.76,28.76,0,0,0,3-.12A20.51,20.51,0,0,0,277.37,5v9.44a26.4,26.4,0,0,0,.15,3.09c-1-.09-1.91-.12-3-.12H261.41c-1.14,0-2.07,0-3.06.12a26.82,26.82,0,0,0,.15-3.15V4.9a19.66,19.66,0,0,0-.15-3,31.63,31.63,0,0,0,3.18.12ZM261.74,4.69V6.38h12.4V4.69Zm0,4.19v1.69h12.4V8.88Zm0,4.18v1.76h12.4V13.06Z"/><path class="cls-1" d="M291.42,24.23c0,1.31.06,2.4.15,3.5H288a29.22,29.22,0,0,0,.18-3.5V15.65c0-1.4,0-2.08.09-3.24a17.87,17.87,0,0,1-2.55,3.33,13.79,13.79,0,0,0-1.65-3.33,24.38,24.38,0,0,0,5.43-8.1A15,15,0,0,0,290.76.68l3.36.92c-.21.45-.42.95-.69,1.7-.36,1-1.2,2.79-2,4.42ZM304.21,4.75A30.92,30.92,0,0,0,304,1.13h3.54a31.4,31.4,0,0,0-.18,3.62V7.3h.87a18.57,18.57,0,0,0,2.81-.17v3.2a24.84,24.84,0,0,0-2.75-.12h-.93V23.78c0,1.55-.3,2.44-1,2.88s-1.44.54-3.6.54c-1.07,0-1.88,0-3.14-.12a9.42,9.42,0,0,0-.93-3.27,27.25,27.25,0,0,0,3.59.3c1.65,0,1.89-.09,1.89-.77V10.21h-8a30.18,30.18,0,0,0-3.48.18V7.13a27.65,27.65,0,0,0,3.33.17h8.11Zm-7.58,7.39a34.69,34.69,0,0,1,4.53,6.8l-2.73,1.9a27.26,27.26,0,0,0-4.34-7Z"/><path class="cls-1" d="M330.84,17.16a25.64,25.64,0,0,1-2.69-3.56,93.56,93.56,0,0,1-10.37,1,7.62,7.62,0,0,1-.45-2.64,2,2,0,0,1,0-.42c2.94-.09,6.14-.33,9.14-.68-.42-.83-.84-1.67-1.2-2.5-3.05.39-6.14.66-9.22.75a9,9,0,0,1-.3-2.38,4.94,4.94,0,0,1,0-.68c2.72-.06,5.51-.24,8.29-.57-.45-1.18-.84-2.37-1.2-3.62a11,11,0,0,1,3.36-.56c.33,1.27.72,2.49,1.14,3.74,2.54-.42,5.06-.92,7.43-1.55a6.91,6.91,0,0,1,.65,2.82v.15c-2.24.57-4.58,1-6.94,1.43.38.83.77,1.69,1.22,2.49,2.34-.38,4.47-.83,6.68-1.39a7.21,7.21,0,0,1,.66,2.82c-1.91.5-3.74.92-5.75,1.3A38.37,38.37,0,0,0,336,18.85a8.51,8.51,0,0,1-1.82,2.44,20.39,20.39,0,0,0-8.45-2.11c-4.25,0-5.42,1.34-5.42,2.49,0,1.52,1.44,2.29,5.72,2.29a39.8,39.8,0,0,0,5.12-.36,9.6,9.6,0,0,1,.24,2.14,8.57,8.57,0,0,1-.09,1.28,38,38,0,0,1-5.33.33c-6.59,0-9.17-2.35-9.17-5.62,0-2.52,2.22-5.25,8.33-5.25a19.7,19.7,0,0,1,5.66.77Z"/><path class="cls-1" d="M344.35,9.65a23.36,23.36,0,0,1-1.05,4.25,8.92,8.92,0,0,0-2.54-1.28A26.79,26.79,0,0,0,342.22,4c0-.18,0-.36,0-.74l2.88.35a7.26,7.26,0,0,0-.18,1.52l-.06.41-.09,1.19h1.35V3.3a15.05,15.05,0,0,0-.18-2.41h3.44a14.11,14.11,0,0,0-.18,2.41V6.71h.24a15.61,15.61,0,0,0,2.37-.15v3c.9.06,1.65.09,2.7.09h3.32V6.86h-2.46a28.66,28.66,0,0,0-3,.15V3.83a20.69,20.69,0,0,0,3,.18h2.46V3.09a16.43,16.43,0,0,0-.15-2.17H361a14.9,14.9,0,0,0-.14,2.17V4h3.17a21.41,21.41,0,0,0,3.08-.18V7a28.74,28.74,0,0,0-3.08-.15h-3.17V9.68h3.95a28.93,28.93,0,0,0,3.32-.15v3.12c-.9-.09-2-.15-3.05-.15h-.21v2.43h.27a17.59,17.59,0,0,0,2.9-.14V18a20.3,20.3,0,0,0-2.9-.17h-.27v7c0,2.17-.93,2.76-4.34,2.76-.48,0-1.59,0-2.49-.08a8.13,8.13,0,0,0-.75-3.18,28.32,28.32,0,0,0,3.45.3c.89,0,1.07-.15,1.07-.9V17.82h-7.66a17.77,17.77,0,0,0-2.88.17V16.66l-2.13.92v7a28.15,28.15,0,0,0,.18,3.38h-3.44a30.54,30.54,0,0,0,.18-3.38V18.74c-.72.23-1.35.47-1.95.68a17,17,0,0,0-2.25.86L341.18,17a27.59,27.59,0,0,0,4.91-1.3v-6Zm4.82,4.93c1.17-.42,1.53-.6,2.58-1v1.28c.69.06,1.53.08,2.78.08h7.31V12.5h-7.36a24.25,24.25,0,0,0-3.33.15v-3c-.63,0-1,0-1.5,0h-.48ZM355,18a23.62,23.62,0,0,1,3.87,4.43l-2.55,1.93a23,23,0,0,0-3.74-4.78Z"/><path class="cls-1" d="M382.42,22.6a25.39,25.39,0,0,1-4.49,3.23,22.55,22.55,0,0,1-4.79,2A9.19,9.19,0,0,0,371,24.91a18.93,18.93,0,0,0,4.79-1.57,17.81,17.81,0,0,0,4.14-2.73ZM380.24,3.71a11.53,11.53,0,0,0-.18-2.64h3.29a12.13,12.13,0,0,0-.18,2.7v.71h3.42V3.77a14,14,0,0,0-.15-2.7h3.26a12.76,12.76,0,0,0-.18,2.67v.74h3.81c1.43,0,2.27,0,2.9-.09a17.75,17.75,0,0,0-.12,2.47V17.52a15.81,15.81,0,0,0,2.34-.18v3.33a27.07,27.07,0,0,0-3.48-.18H374.78a26.68,26.68,0,0,0-3.47.18V17.34a15.81,15.81,0,0,0,2.34.18V6.83a19,19,0,0,0-.12-2.44c.84.06,1.58.09,2.84.09h3.87Zm0,3.65h-3.42v3.48h3.42Zm0,6.27h-3.42v3.89h3.42Zm6.35-2.79V7.36h-3.42v3.48Zm0,6.68V13.63h-3.42v3.89Zm2.48,3.12a18.41,18.41,0,0,0,4.05,2.52,19.73,19.73,0,0,0,5.33,1.75A11.94,11.94,0,0,0,396.56,28a22.22,22.22,0,0,1-5.33-2.17,25,25,0,0,1-4.55-3.21Zm3.87-9.8V7.36h-3.42v3.48Zm0,6.68V13.63h-3.42v3.89Z"/><path class="cls-1" d="M410,7.27H403.9V4.1h19.83V7.27H413.57v4.87H426v3.18H413.57v5c0,1.72.57,2.32,2.88,2.32a43,43,0,0,0,8.24-.78l.45,3.42a42.76,42.76,0,0,1-8.72.71c-4.82,0-6.47-1.63-6.47-4.9V15.32h-8.24V12.14H410Z"/><path class="cls-1" d="M429.9,10.75h24v3.18H444.1c-.24,6.35-3,10.6-8.3,13.27l-2.34-2.79c4.68-2.41,6.65-5.41,6.8-10.48H429.9Zm2.79-6.92H448.8V7H432.69Zm18.6-2.73a20.75,20.75,0,0,1,2.33,5.11L451.44,7a21.27,21.27,0,0,0-2.22-5.23Zm3.5-1.1a18.77,18.77,0,0,1,2.46,5l-2.16.74A19.17,19.17,0,0,0,452.81.68Z"/><path class="cls-1" d="M467.82,3.74v6.8c0,6.89-2,11.64-6.62,15.44l-2.78-2.49c4.25-3.21,5.72-7.16,5.72-13.16V3.74Zm8.09-.83V21.17a22.51,22.51,0,0,0,8-6.5l2,3.12c-2.6,3.35-7.22,6.44-11.77,8.19l-1.94-1.66V2.91Z"/><path class="cls-1" d="M496.82,3.74v6.8c0,6.89-2,11.64-6.62,15.44l-2.79-2.49c4.26-3.21,5.72-7.16,5.72-13.16V3.74Zm8.09-.83V21.17a22.49,22.49,0,0,0,8-6.5l2,3.12c-2.61,3.35-7.22,6.44-11.77,8.19l-1.95-1.66V2.91Z"/><path class="cls-1" d="M542.38,12.41v3.74H518.29V12.41Z"/><path class="cls-1" d="M568.32,26.49q-.63-1.65-1.35-3.21a160.36,160.36,0,0,1-19.68,2.37l-.51-3.86c1.26,0,2.52-.09,3.74-.14a138,138,0,0,0,6.2-19.36l3.87.74a142.75,142.75,0,0,1-6.17,18.38c3.68-.3,7.34-.63,11-1.22a45,45,0,0,0-3.8-5.64l2.9-1.69a40.35,40.35,0,0,1,7.52,12Z"/></svg>