<svg id="レイヤー_1" data-name="レイヤー 1" xmlns="http://www.w3.org/2000/svg" viewBox="0 0 960 39"><defs><style>.cls-1{fill:#004021;}.cls-2{fill:#231815;}</style></defs><title>list-title1</title><path class="cls-1" d="M0,35.79V29.91c8.94-7.78,13.57-11.4,13.57-16,0-3.37-1.88-4.73-5.29-4.73A16.71,16.71,0,0,0,1.56,10.9V6.09a19.05,19.05,0,0,1,8.2-1.85c6.27,0,9.51,3.49,9.51,8.51,0,4.41-1.51,8.23-13.57,18.19H20v4.85Z"/><path class="cls-1" d="M24.36,20.4c0-10.65,2.91-15.92,10.49-15.92s10.5,5.39,10.5,15.92-2.91,15.93-10.5,15.93S24.36,31,24.36,20.4Zm15.5,0c0-7.81-1.27-11.18-5-11.18s-5,3.37-5,11.18,1.23,11.2,5,11.2S39.86,28.18,39.86,20.4Z"/><path class="cls-1" d="M49.86,35.79V29.91c8.94-7.78,13.57-11.4,13.57-16,0-3.37-1.88-4.73-5.29-4.73a16.68,16.68,0,0,0-6.72,1.73V6.09a19.05,19.05,0,0,1,8.2-1.85c6.27,0,9.51,3.49,9.51,8.51,0,4.41-1.51,8.23-13.57,18.19H69.87v4.85Z"/><path class="cls-1" d="M74.22,20.4c0-10.65,2.91-15.92,10.49-15.92s10.5,5.39,10.5,15.92S92.3,36.33,84.71,36.33,74.22,31,74.22,20.4Zm15.5,0c0-7.81-1.27-11.18-5-11.18s-5,3.37-5,11.18,1.23,11.2,5,11.2S89.72,28.18,89.72,20.4Z"/><path class="cls-1" d="M113.21,18.55a29.64,29.64,0,0,0-3.65.17V14.4a21.69,21.69,0,0,0,3.69.2h1a18,18,0,0,0-1.77-4.77L116,9h-1.89a31.61,31.61,0,0,0-3.77.16V4.81A21.67,21.67,0,0,0,114.2,5h3.07V4.4a15.87,15.87,0,0,0-.2-3h4.84a14.36,14.36,0,0,0-.17,3V5h2.71a21.62,21.62,0,0,0,3.77-.21V9.13A31.6,31.6,0,0,0,124.45,9h-1.68l3.44,1c-.24.53-.24.53-.66,1.35-.2.46-.2.46-.65,1.53a11.67,11.67,0,0,1-.9,1.76h.82a21.69,21.69,0,0,0,3.69-.2v4.32a30.38,30.38,0,0,0-3.69-.17h-3.24v2.88h3.07a22.77,22.77,0,0,0,3.69-.2v4.24a28.49,28.49,0,0,0-3.69-.17h-1.47a17.12,17.12,0,0,0,4.14,3.54,28.48,28.48,0,0,0-1.93,3.82,19,19,0,0,1-3.94-4.32,13.08,13.08,0,0,0,.09,1.53v5.6a19.65,19.65,0,0,0,.2,3.34h-4.59a24.6,24.6,0,0,0,.21-3.21v-4c0-.79,0-1.86.08-2.76a19.71,19.71,0,0,1-6.65,7.45,13.46,13.46,0,0,0-2-4.12,20.13,20.13,0,0,0,7-6.91H113.2a20.27,20.27,0,0,0-3.65.21V21.23a22.28,22.28,0,0,0,3.74.2h4.06V18.55ZM116.29,9A17.16,17.16,0,0,1,118,13.66l-3.61.94h5.54a25.3,25.3,0,0,0,2.3-5.6Zm26.82,4.89a20.74,20.74,0,0,0,3.69-.24V18.1a23.36,23.36,0,0,0-3.24-.16h-1V34.15a26.75,26.75,0,0,0,.25,4.73H138.1a32.53,32.53,0,0,0,.25-4.73V17.94H134a54.18,54.18,0,0,1-1.47,13A25.14,25.14,0,0,1,129,39a16.88,16.88,0,0,0-4-2.63c3.81-4.69,4.84-10,4.84-25.18a52.84,52.84,0,0,0-.25-6.29c4.56-.13,11.49-1.9,13.54-3.46l3.32,3.91c-.45.16-.62.2-1.36.45a57.16,57.16,0,0,1-11,2.76v5.3Z"/><path class="cls-1" d="M179.89,33.86a30.26,30.26,0,0,0,.24,4.85h-4.47V37.07H161.93v1.68h-4.39a34.57,34.57,0,0,0,.24-4.77V26.53a45.4,45.4,0,0,1-5.45,4,15.25,15.25,0,0,0-2.58-3.83,31.14,31.14,0,0,0,9.43-7.36h-3.77a40.64,40.64,0,0,0-4.68.24v-4a31.31,31.31,0,0,0,4.64.25h6.31c.53-.91.78-1.36,1.19-2.22h-4.22a35.19,35.19,0,0,0-4.23.16V9.91a31.44,31.44,0,0,0,4.23.17h5.65c.25-.78.33-1.15.58-2h-7.51a34.57,34.57,0,0,0-4.55.21v-4a37.85,37.85,0,0,0,4.76.24h8.12a14.89,14.89,0,0,0,.24-2.83V1.19l4.72.37c-.16.7-.25,1-.41,2a4.3,4.3,0,0,1-.16.94h10.12a35,35,0,0,0,4.8-.24V8.31a35.18,35.18,0,0,0-4.59-.21H169.31c-.21.79-.29,1.16-.54,2h10.3a31.88,31.88,0,0,0,4.26-.17v3.83a35.69,35.69,0,0,0-4.26-.16h-4.56a18.51,18.51,0,0,0,1.24,2.22h6.76a30.64,30.64,0,0,0,4.59-.25v4.07a39.78,39.78,0,0,0-4.63-.24h-4a28.67,28.67,0,0,0,9.68,7.11,15.12,15.12,0,0,0-2.3,4.16,39.34,39.34,0,0,1-5.94-4.32Zm-18-6.3h13.73V25.14H161.93Zm0,5.93h13.73V30.9H161.93ZM175.3,21.72c-.66-.86-1.07-1.36-1.73-2.34h-9.39c-.74,1-1.15,1.56-1.76,2.34Zm-3.9-5.92c-.33-.66-.45-1-1-2.22h-3c-.41.86-.61,1.27-1.1,2.22Z"/><path class="cls-1" d="M193.83,15.3V10.9h10.62c0-1.11.08-2.26.08-3.45V2.59h5V7.24c0,1.23,0,2.43-.08,3.66h11l2.38,2.31a130.13,130.13,0,0,1-1.31,17.07c-.74,4.56-2.91,6.5-6.56,6.5a39.43,39.43,0,0,1-5.42-.41l-.53-5a28,28,0,0,0,5.17.53c1.35,0,2.09-.53,2.42-2.55a87.28,87.28,0,0,0,1.15-14.07h-8.7C207.89,26,203.22,33,195,37.52l-3.08-3.83c7.1-4.11,10.87-9.34,12.14-18.39Z"/><path class="cls-1" d="M259.15,36.82A74.1,74.1,0,0,0,248.45,25a46.68,46.68,0,0,1-15.71,11.52l-3.2-4c10.75-4.61,18.29-12.34,22.06-22H233.44V5.88h21.45L257.67,9a53.9,53.9,0,0,1-6.31,12.26,70.24,70.24,0,0,1,12,12Z"/><path class="cls-1" d="M280.76,12.18a41.66,41.66,0,0,1-8.9,9.13l-3.61-3.17A39.13,39.13,0,0,0,281,1.77l4.92,1.52c-.73,1.61-1.51,3.21-2.37,4.69h12.13l2.71,2.76c-4.1,14.68-11.73,22.62-24.15,27.4l-3-4.16a38.66,38.66,0,0,0,13.66-8.39,41.18,41.18,0,0,0-7.22-5.8l2.87-3.17A33.72,33.72,0,0,1,288,22.05a31.64,31.64,0,0,0,4.93-9.87Z"/><path class="cls-1" d="M313.73,18.31A50,50,0,0,1,320,23.57a43.92,43.92,0,0,0,10.25-10.86H304.91V8.06h29.2l2.95,3.5A55.26,55.26,0,0,1,323.24,27a63.35,63.35,0,0,1,4.68,5.92l-4.19,3.33a64.92,64.92,0,0,0-13.32-14.6Z"/><path class="cls-1" d="M362.56,37.27h-5.2V18.68a72.11,72.11,0,0,1-12.43,6.13L342,20.69c10.42-3.82,19-9.17,26.08-17.52l4.22,3a70.57,70.57,0,0,1-9.72,8.89Z"/><path class="cls-1" d="M408,37.44a74,74,0,0,0-10.7-11.81,46.68,46.68,0,0,1-15.71,11.52l-3.2-4c10.75-4.61,18.29-12.34,22.06-22h-18.2V6.46h21.44l2.79,3.17a53.9,53.9,0,0,1-6.31,12.26,70.24,70.24,0,0,1,12,12Zm-.41-35.88a28.24,28.24,0,0,1,3.2,7l-3,1.11a30.45,30.45,0,0,0-3-7.28ZM412.35,0a27.21,27.21,0,0,1,3.36,7l-2.95,1a26.81,26.81,0,0,0-3.12-7Z"/><path class="cls-1" d="M447.86,8.89l.61,4.56-11.6,1.48,1,6.05L451,19.21l.66,4.53-13.08,1.73,2,11.8-4.88.7-2-11.85-13.61,1.81-.62-4.52L433,21.6l-1-6.05L420.87,17l-.53-4.53L431.25,11,430,3.5l4.88-.7,1.27,7.61Z"/><path class="cls-1" d="M474.35,37.35l-4.51.79-3.41-17.57-7.75,1.15-.57-4.32,7.5-1.07-1.47-7.49,4.59-.74,1.43,7.57,14.52-2.05,2.21,2.88a31,31,0,0,1-8,11.52l-3.24-2.76a24.54,24.54,0,0,0,5.49-6.91L471,19.87Z"/><path class="cls-1" d="M497.72,5.68a39.6,39.6,0,0,1,9.72,7.9l-3.74,4a57,57,0,0,0-9.26-8.36Zm-2.67,25.71c13-3.09,21.69-10,26-21l4.39,2.71c-4.76,12.51-15.13,20.12-28.58,23.12Z"/><path class="cls-1" d="M529.66,22.34a70.74,70.74,0,0,0,9.88-10,5.2,5.2,0,0,1,3.86-2.22,5.39,5.39,0,0,1,3.81,2A146.44,146.44,0,0,0,566,28.51l-3.61,4.81a153.19,153.19,0,0,1-17.83-17c-.42-.49-.74-.74-1.07-.74a1.83,1.83,0,0,0-1.15.78,86.22,86.22,0,0,1-9.39,10Zm34.36-11a4.68,4.68,0,0,1-9.35.48v-.05a3.09,3.09,0,0,1,0-.43,4.68,4.68,0,0,1,9.35-.43,3.1,3.1,0,0,1,0,.43Zm-7.13,0a2.46,2.46,0,1,0,2.46-2.47,2.42,2.42,0,0,0-2.46,2.38h0Z"/><path class="cls-1" d="M604.58,17.48v5.19h-33V17.48Z"/><path class="cls-1" d="M615.65,5.68a39.6,39.6,0,0,1,9.72,7.9l-3.73,4a56.62,56.62,0,0,0-9.27-8.36ZM613,31.39c13-3.09,21.7-10,26-21l4.39,2.71c-4.82,12.49-15.19,20.1-28.64,23.1Z"/><path class="cls-1" d="M655.55,5.55a21.77,21.77,0,0,0-.25-3.78H660a23.9,23.9,0,0,0-.21,3.78V7.82h2.83a24.78,24.78,0,0,0,3.85-.21v4.28c-1-.09-2.07-.13-3.11-.12A40.48,40.48,0,0,1,660.59,24c2.54,3.21,2.83,3.67,5.7,7.7l-3.16,3.58a51.09,51.09,0,0,0-4.63-7,39.46,39.46,0,0,1-8,10,13.45,13.45,0,0,0-3-3.75,28.41,28.41,0,0,0,8.24-9.91,79.5,79.5,0,0,0-6.81-7.4l2.92-3c.78.83.78.83,3.15,3.25.33.33,1,1.07,2.55,2.88a38.2,38.2,0,0,0,1.55-8.55h-7.42A26.62,26.62,0,0,0,648,12V7.57a27.34,27.34,0,0,0,3.94.25h3.69Zm13.36,10.91a46.27,46.27,0,0,1,5.66,9.33l-3.65,2.39a35.1,35.1,0,0,0-5.61-9.75ZM671.13,14a25,25,0,0,0-3.77.2V9.71a24.27,24.27,0,0,0,3.81.2h5.09V6.71A27.27,27.27,0,0,0,676,1.93h4.84a29.34,29.34,0,0,0-.25,4.78v3.2h.49a23.92,23.92,0,0,0,3.78-.24v4.48a4.6,4.6,0,0,1-.91-.08,22.88,22.88,0,0,0-2.87-.12h-.49v19.5c0,2-.16,2.75-.74,3.45-.74,1-2.21,1.36-4.88,1.36-1.64,0-3.11,0-4.67-.12a14.66,14.66,0,0,0-1.3-4.49,39.22,39.22,0,0,0,4.84.45c2.17,0,2.42-.08,2.42-.9V14Z"/><path class="cls-1" d="M713.73,18.92a23.05,23.05,0,0,0,1.81,4.36,19.15,19.15,0,0,0,4.47-4l3.69,2.64c-.41.33-.54.45-1,.86a37.42,37.42,0,0,1-5.08,3.87,19,19,0,0,0,8.9,6.54,16,16,0,0,0-2.75,4.32,24.24,24.24,0,0,1-9.88-8.76,40.19,40.19,0,0,1-4.47-9.8h-1.11c-.61.46-.86.62-1.6,1.12A16.08,16.08,0,0,1,710.28,26a16.08,16.08,0,0,1,1.07,6.25c0,5.06-1.69,6.62-7.06,6.62-.45,0-1.15,0-2-.08a10.88,10.88,0,0,0-1.52-4.28,24.45,24.45,0,0,0,3.41.33c2.54,0,3-.49,3-3.25a4.57,4.57,0,0,0,0-.74,59,59,0,0,1-15.91,7,11.85,11.85,0,0,0-2.3-3.62A57.67,57.67,0,0,0,706.4,27.4c-.24-.7-.33-.91-.57-1.48a58.9,58.9,0,0,1-14.31,5.55,11.77,11.77,0,0,0-2-3.33,53.51,53.51,0,0,0,14.76-5,11.5,11.5,0,0,0-.94-1.15,49.83,49.83,0,0,1-11.85,3.87,10.61,10.61,0,0,0-2-3.38,48.55,48.55,0,0,0,12.67-3.54H697a36.86,36.86,0,0,0-3.93.13c.08-.87.12-1.77.12-3.54v-3a28.18,28.18,0,0,1-2.75,1.65,10.34,10.34,0,0,0-2-3.74A29.87,29.87,0,0,0,696,5.6,20.89,20.89,0,0,0,700.32.78l4.93.78-1.52,1.77h6.48c1.39,0,3.44-.08,3.89-.16l2.26,2.05-1,1c-1.06,1.11-1.68,1.69-2.91,2.8h6.11a37.39,37.39,0,0,0,4.23-.16,29.7,29.7,0,0,0-.17,3.53v3.09a28,28,0,0,0,.17,3.54c-1.07-.08-2.1-.13-3.78-.13Zm-8.24-3.7V12.59h-8.12v2.63Zm2-6.17a22.39,22.39,0,0,0,2.34-2.43h-9.11A23.25,23.25,0,0,1,698,9.05Zm10.91,6.17V12.59h-8.74v2.63Z"/><path class="cls-1" d="M762.82,7.45a21.66,21.66,0,0,0,3.32-.17,48.32,48.32,0,0,0-.21,5.1C765.6,26.12,765.11,32.17,764,35c-1,2.43-2.63,3.33-6.2,3.33A28.52,28.52,0,0,1,754,38a9.74,9.74,0,0,0-1.07-4.52,22.16,22.16,0,0,0,5,.7c1.6,0,2.21-.87,2.66-3.71a147.39,147.39,0,0,0,1.15-19.13h-.45C760.14,17.93,758.91,22,757,26c-2.42,4.85-5.25,8.19-10.45,12.3a9.77,9.77,0,0,0-3.46-3.3,27.5,27.5,0,0,0,10.46-11.44,41.34,41.34,0,0,0,3.85-12.22h-1.64c-2,7.9-5.29,13.33-10.74,17.65a9.82,9.82,0,0,0-2.95-3.45,18.38,18.38,0,0,0,4.71-4.08,25.31,25.31,0,0,0,5.13-10.12h-1.85a27.4,27.4,0,0,1-4.79,7.12,11.93,11.93,0,0,0-3.37-3,13.61,13.61,0,0,0,1.93-1.94,20.31,20.31,0,0,0-2.21-.08h-1V21a39.28,39.28,0,0,0,3.77-1.48l.05,4c-1.89.82-2.46,1.07-3.82,1.6V34.3a39.44,39.44,0,0,0,.25,4.61h-4.72a37.38,37.38,0,0,0,.25-4.61V26.62l-3.61,1.27a10.81,10.81,0,0,0-2.13.83l-.94-4.78c1.84-.16,2.82-.37,6.68-1.6V13.41h-2a41.44,41.44,0,0,1-1.52,6.5,13,13,0,0,0-3.65-2.18,21.76,21.76,0,0,0,1.52-5.55,37.79,37.79,0,0,0,.53-5.72,12,12,0,0,0-.08-1.69l4,.41c-.17,2.47-.17,2.64-.29,4.16h1.52V4.77a20.66,20.66,0,0,0-.25-3.33h4.72a19.5,19.5,0,0,0-.25,3.33V9.34h1a10.15,10.15,0,0,0,2.58-.21V13a22.91,22.91,0,0,0,2.87-5.31,24.35,24.35,0,0,0,1.76-6.21l4.64.82c-.33.83-.33.83-1.23,3.62-.17.42-.29.83-.58,1.53Z"/><path class="cls-1" d="M775.08,22.54c0-1.35,0-2.63.08-4.4a20,20,0,0,1-3.36,4.65,17.84,17.84,0,0,0-1.81-5,33.85,33.85,0,0,0,6.93-11.43,22.68,22.68,0,0,0,1.44-5.23l4.55,1.28c-.21.61-.29.78-.66,1.85a51.55,51.55,0,0,1-2.79,7V34.15a40.79,40.79,0,0,0,.21,4.69h-4.84a41.69,41.69,0,0,0,.25-4.74ZM792.75,6.17a24.05,24.05,0,0,0-.29-4.24h5a25.55,25.55,0,0,0-.24,4.28v3.7h5a28.77,28.77,0,0,0,4.35-.24v4.56c-1.85-.16-3-.2-4.31-.2h-5v7.53h6.23a34,34,0,0,0,4.51-.25V26a34.53,34.53,0,0,0-4.43-.25h-6.31V34.1a30.13,30.13,0,0,0,.24,4.65h-5a28.9,28.9,0,0,0,.29-4.65V25.71H785.9a32.39,32.39,0,0,0-4.51.25V21.31a31.82,31.82,0,0,0,4.47.25h6.93V14h-5.58A30.15,30.15,0,0,1,784,19.84,15.89,15.89,0,0,0,780.4,17a31.13,31.13,0,0,0,4.34-8.27A20.86,20.86,0,0,0,786,3.59l4.47,1.07c-.33,1-.37,1.19-.74,2.43s-.57,1.81-.9,2.79h4Z"/><path class="cls-2" d="M829.74,20.16l7.68-15.25h3l-7.65,15.25,7.65,15.25h-3Z"/><path class="cls-2" d="M851.8,19.32a28,28,0,0,0-3.43.17V17.24c-1.5.86-2.08,1.19-3.42,1.83a16.83,16.83,0,0,0-2.05-3.34,30.76,30.76,0,0,0,7.55-4.17,30.93,30.93,0,0,0,3.49-3.28A16.2,16.2,0,0,0,855.6,6h4a22.58,22.58,0,0,0,5.6,5.56,29,29,0,0,0,7.69,4,15.4,15.4,0,0,0-2,3.59,40.13,40.13,0,0,1-3.71-2v2.32a28.57,28.57,0,0,0-3.33-.17H859.4v3.6h5.12a28,28,0,0,0,3.43-.16v3.53a33.26,33.26,0,0,0-3.46-.16H859.4v4.24h8.16a31.42,31.42,0,0,0,4-.19v3.66a32.39,32.39,0,0,0-3.94-.2H848a32.39,32.39,0,0,0-3.94.2V30.18a31.42,31.42,0,0,0,4,.19h7.78V26.13h-4.61a33.19,33.19,0,0,0-3.45.16V22.76a24.84,24.84,0,0,0,3.45.16h4.61v-3.6ZM864,16.15h1.47A28.1,28.1,0,0,1,857.72,9a25.55,25.55,0,0,1-7.56,7.12h1.38Z"/><path class="cls-2" d="M933.44,8.6l-1.38.4c-1.22.38-2.08.64-3.07.87,0,3.08,0,3.08.13,5.23h1.56a17.7,17.7,0,0,0,3-.26v3.31h-4.42c.35,3.59.86,5.49,2,7.45.35-.87.41-1.42.48-4a8.9,8.9,0,0,0,2.59,2.09,18,18,0,0,1-.74,4.17c-.41,1.19-1.05,1.77-2,1.77-1.44,0-2.85-1.42-3.94-3.89A26.39,26.39,0,0,1,926,18.3l-3.58.13v6.9c1.38-.39,2.18-.68,4.38-1.45l.07,3.05a61.77,61.77,0,0,1-6.75,2.19,23.54,23.54,0,0,0-2.47.77l-.51-3.5a7.09,7.09,0,0,0,2-.26V10.94a23.1,23.1,0,0,0-.09-2.88,36.73,36.73,0,0,0,10.4-1.74,6.13,6.13,0,0,0,1.6-.74ZM918.81,30.34a16.09,16.09,0,0,0,2.4.13h7.65a17.62,17.62,0,0,0,2.62-.13v3.34a20,20,0,0,0-3-.16h-6.72a20,20,0,0,0-3,.16Zm7-15.09a8.44,8.44,0,0,0-.06-1.42c0-.67-.07-1.76-.07-3.3-.89.16-1.53.25-3.26.45v4.4Zm20.71-6.52A4.37,4.37,0,0,0,946,9.82a62.61,62.61,0,0,1-3.46,7.87,13.82,13.82,0,0,1,3,4.4,10.71,10.71,0,0,1,.8,3.91,4.12,4.12,0,0,1-1.73,3.7,7.2,7.2,0,0,1-3.36.67c-.39,0-.52,0-1.92-.1a7.52,7.52,0,0,0-.74-3.43,11.24,11.24,0,0,0,2.24.19c1.76,0,2.24-.32,2.24-1.54a8.8,8.8,0,0,0-1-3.69,14.57,14.57,0,0,0-3-3.89,40.69,40.69,0,0,0,3.24-8.09h-4.26V30.75a30.18,30.18,0,0,0,.19,3.92H934.6a25.66,25.66,0,0,0,.19-3.82V9.21a20.49,20.49,0,0,0-.13-2.6c.84.06,1.51.1,2.56.1h5.22a16.05,16.05,0,0,0,2.5-.13Z"/><path class="cls-2" d="M949.38,35.41,957,20.16,949.38,4.91h2.94L960,20.16l-7.68,15.25Z"/><path class="cls-2" d="M884.23,32.78V12.94l-5.86,1.86V11.05l7.14-2.49h3V32.78Z"/><path class="cls-2" d="M894,28.78a17.24,17.24,0,0,0,4.8.77c4,0,5.57-1.6,5.57-3.78s-1.57-3.49-4.93-3.49H896l.71-3.45h1.5c4.1,0,5.7-1.47,5.7-3.75,0-2.46-1.8-3.1-4.36-3.1a14.57,14.57,0,0,0-5,1V9.33a18,18,0,0,1,6.31-1.06c5.08,0,7.23,2.49,7.23,6.08A6.12,6.12,0,0,1,904.13,20a5.59,5.59,0,0,1,4.74,5.73c0,4.13-3.27,7.49-9.41,7.49a17.25,17.25,0,0,1-5.44-.71Z"/></svg>