<svg id="レイヤー_1" data-name="レイヤー 1" xmlns="http://www.w3.org/2000/svg" viewBox="0 0 300.1 200.21"><defs><style>.cls-1{fill:#faee00;}.cls-2{fill:#004021;}.cls-10,.cls-11,.cls-12,.cls-13,.cls-14,.cls-15,.cls-16,.cls-17,.cls-18,.cls-21,.cls-3,.cls-4,.cls-5,.cls-6,.cls-7,.cls-8,.cls-9{fill:none;}.cls-3{stroke:#b5b5b6;}.cls-3,.cls-5,.cls-6{stroke-width:3.72px;}.cls-10,.cls-11,.cls-12,.cls-13,.cls-14,.cls-15,.cls-16,.cls-17,.cls-18,.cls-4,.cls-7,.cls-8,.cls-9{stroke:#231815;stroke-linecap:round;stroke-linejoin:round;}.cls-4{stroke-width:0.21px;}.cls-5{stroke:#fff;}.cls-6{stroke:#f7f7f7;}.cls-10,.cls-11,.cls-12,.cls-13,.cls-14,.cls-15,.cls-16,.cls-17,.cls-18,.cls-7,.cls-8,.cls-9{stroke-width:0.17px;}.cls-8{stroke-dasharray:0.83 0.83;}.cls-9{stroke-dasharray:0.96 0.96;}.cls-10{stroke-dasharray:0.85 0.85;}.cls-11{stroke-dasharray:0.8 0.8;}.cls-12{stroke-dasharray:0.82 0.82;}.cls-13{stroke-dasharray:0.86 0.86;}.cls-14{stroke-dasharray:0.81 0.81;}.cls-15{stroke-dasharray:0.82 0.82;}.cls-16{stroke-dasharray:0.84 0.84;}.cls-17{stroke-dasharray:0.83 0.83;}.cls-18{stroke-dasharray:0.83 0.83;}.cls-19{fill:#fff;}.cls-20{fill:#231815;}</style></defs><title>t1-p2</title><rect class="cls-1" x="152.1" y="0.1" width="148" height="145"/><path class="cls-2" d="M167.33,57.75h6.6V64h-4.16v8.32h-2.44Zm2.44,1.72v.63h1.77v-.63Zm0,2.1v.65h1.77v-.65Zm8.09,8.23h.61c.51,0,.51-.25.51-.58V64h-4.25V57.75h6.71V70.54a1.54,1.54,0,0,1-1.51,1.75h-3.22l-.23-1.42h-5.6V64.58h7Zm-4.65-3.47V67h2.29v-.62Zm0,2V69h2.29v-.68Zm3.93-8.85v.63H179v-.63Zm0,2.1v.65H179v-.65Z"/><path class="cls-2" d="M183.94,65.7a6.88,6.88,0,0,1-.68.71l-.86-3.53a10.17,10.17,0,0,0,2.47-5.68l2.54.21a19.28,19.28,0,0,1-.93,3.7V72.28h-2.54Zm6.88-8.42h2.67v3.8h4.07v2.6h-4.07v5.59h3.6v2.58h-9.74V69.27h3.47V63.68h-3.9v-2.6h3.9Z"/><path class="cls-2" d="M201.82,70.43a10.38,10.38,0,0,0,1.12-.64h-2a1.51,1.51,0,0,1-1.35-1.56v-3.8l-1.07.27-.06-2.59,1.13-.28V57.33h2.59v3.86l2.56-.63.16,2.59-2.72.67V66.9c0,.19,0,.27.24.27h.36c.15,0,.22-.16.25-.3.08-.41.12-1.5.16-1.88l1.91.41a16.21,16.21,0,0,1-.42,2.89c1.19-1.37,1.87-2.68,1.85-7.92h-2.37V57.78H213c0,4,0,9-.28,11.82-.21,1.65-.47,2.69-2.52,2.69h-2.46l-.51-2.6h1.87c.6,0,.81,0,1-1.51.25-1.93.25-6.3.25-7.81h-1.24a28.49,28.49,0,0,1-.67,6.48,10.09,10.09,0,0,1-4.72,5.71Z"/><path class="cls-2" d="M219.57,58.4a30.24,30.24,0,0,0-.62,5.25l.8-1.5,1.38,1.3a16.45,16.45,0,0,0-1.95,4.65l-2.25.22a15.65,15.65,0,0,1-.69-5,28.2,28.2,0,0,1,.51-5.2Zm7-.28c.08.93.29,3.09.29,5.23,0,4.13-1,6.64-4.91,8.61l-2.35-2c3.88-1.81,4.36-3.74,4.36-6.94,0-1.72-.12-3.15-.28-4.93Z"/><path class="cls-2" d="M238.3,58.21c-.12.19-.17.27-.58,1a34,34,0,0,0,4.28-.58l-.07,2.52c-2.84.38-4.21.46-5.7.54,0,.09-.27.46-.32.53a4.79,4.79,0,0,1,1-.12,2.77,2.77,0,0,1,2.5,1.26c1.73-.71,1.92-.79,3.48-1.37l1,2.36c-1.46.49-3.55,1.27-4,1.44,0,.83,0,1.32,0,2.63l-2.56.08c0-.74,0-1,.06-1.58-1,.56-1.43,1-1.43,1.44,0,.66.72.85,2.17.85a28,28,0,0,0,4.68-.47l-.25,2.66a34,34,0,0,1-3.8.26,8.61,8.61,0,0,1-3.47-.45,2.85,2.85,0,0,1-1.92-2.69c0-2.18,2.17-3.3,3.71-4.09a1.16,1.16,0,0,0-.8-.28c-1.58,0-2.63,1.54-3.7,3.11l-2.07-1.49a28.44,28.44,0,0,0,2.87-4c-.75,0-1.06,0-2.12,0l.07-2.54c.72,0,1.63.08,2.78.08h.67c.29-.51.43-.81.85-1.69Z"/><path class="cls-2" d="M172.39,78c.14-.41.28-1.06.39-1.55l3.08.08a11.13,11.13,0,0,1-.55,1.47h5.57V91.26H168V78Zm5.83,2.38h-7.56v1.37h7.56Zm0,3.55h-7.56V85.3h7.56Zm0,3.53h-7.56v1.44h7.56Z"/><path class="cls-2" d="M196.9,78.47V91H183.39V78.47h5.4v-2h2.68v2Zm-8.11,2.43H186v2.65h2.76Zm0,5H186v2.73h2.76Zm5.46-5h-2.78v2.65h2.78Zm0,5h-2.78v2.73h2.78Z"/><path class="cls-2" d="M203.14,77.81a31.08,31.08,0,0,0-.91,7.19,23.47,23.47,0,0,0,.58,5.3l-2.75.3a25.11,25.11,0,0,1-.52-5.46,39.77,39.77,0,0,1,.77-7.65Zm9.27,11.78a29.79,29.79,0,0,1-3.63.28c-2.56,0-5-.41-5-3.08a4.24,4.24,0,0,1,.6-2.11l2.3.44a2.71,2.71,0,0,0-.42,1.19c0,.67.63.83,2.51.83a20.94,20.94,0,0,0,3.73-.38Zm-7.95-10.84a39.65,39.65,0,0,1,4.49-.28c1.4,0,2.34.09,2.89.14l-.07,2.7a27.11,27.11,0,0,0-2.8-.13,32.1,32.1,0,0,0-4.57.33Z"/><path class="cls-2" d="M222,76.88v2.27h-2.39v.93h2.18v11h-7.48v-11h2.25v-.93H214V76.88ZM218.41,82h-.58v.77c0,1.82-.25,2.5-.72,3l-.85-1.47v1.94H220v-.65h-.92c-.41,0-.65-.28-.65-.8Zm-1.57,0h-.58V84.3a1.84,1.84,0,0,0,.58-1.61ZM220,88.2h-3.72V89H220Zm-1.57-9h-.58v.93h.58ZM220,82h-.63v1.53c0,.21,0,.32.22.32H220Zm8.63,2.34h-3.68v4c0,.14,0,.39.35.39h1c.36,0,.39-.28.42-.53.05-.41.05-1.25.05-1.79l2.51.65c-.17,3.14-.42,4.16-1.93,4.16h-3.58A1.12,1.12,0,0,1,222.47,90V82h3.63v-2.6h-3.65v-2.5h6.16Z"/><path class="cls-2" d="M244.21,80.2h-5.64v.38h6.18v1.81h-6.18v.38H244v6H233.6v-6H236v-.38h-6.11V80.58H236V80.2h-5.69V76.83h13.86Zm.54,9v1.94H230.38V83.2h2.56v6ZM234.23,78.25H232.8v.61h1.43Zm7.2,5.82h-5.34v.44h5.34Zm0,1.49h-5.34V86h5.34Zm0,1.47h-5.34v.46h5.34ZM238,78.25h-1.38v.61H238Zm3.74,0h-1.4v.61h1.4Z"/><path class="cls-2" d="M251.2,77.22l-.31,8.19c0,1.26.05,2.66,2,2.66s3.39-1.39,4.49-4.71l2.52,1.38c-1.12,3-3,6.14-7,6.14-2.22,0-4-.92-4.65-2.84a7.5,7.5,0,0,1-.27-2.59l.3-8.4Z"/><path class="cls-2" d="M275.24,77.77l.22,2.75a8.34,8.34,0,0,0-4.55,1.1,4.38,4.38,0,0,0-2.35,3.52c0,2.44,3,3,4.59,3.06l-1.3,2.73c-4.13-.48-6.19-2.67-6.19-5.57a5.68,5.68,0,0,1,2.48-4.68L262,81.5l-.21-2.87c.74,0,2.17,0,3-.1Z"/><path class="cls-2" d="M279,85.86a17.74,17.74,0,0,1,3.78,3.27L281,91a17.39,17.39,0,0,0-3.58-3.29Z"/><path class="cls-2" d="M169.86,97.16V95.79h2.5v1.37h2.58v2.32h-.57a11.54,11.54,0,0,1-.42,1.88h1.16v2.32h-8.19v-2.32h1.31a9.41,9.41,0,0,0-.29-1.88h-.64V97.16Zm4.9,13.28h-7.3v-6.12h7.3Zm-2.38-3.94h-2.52v1.69h2.52Zm-.74-5.14a13,13,0,0,0,.34-1.88h-1.74c.14.89.19,1.2.25,1.88Zm3.78,9.3V96h6.32v2.42a29.5,29.5,0,0,1-1.16,3.5,6.78,6.78,0,0,1,1.48,4.32c0,1-.13,2.92-2.53,2.92h-1l-.48-2.49h.69c.36,0,.67-.08.67-1a5.35,5.35,0,0,0-1.27-3.44,19.08,19.08,0,0,0,1.1-3.77h-1.27v12.19Z"/><path class="cls-2" d="M197.63,110.4H186v-2h4.27v-.67H186.6V106h3.62v-.65c-.51,0-3.06.1-3.64.1l-.13-2h1a5,5,0,0,0,.41-.79h-1.73v.38c0,5-.89,6.8-1.32,7.63l-2.35-1.75a11.89,11.89,0,0,0,1.13-5.86v-7h13.57v4.26h-11v.49h11.51v1.84H196a21.32,21.32,0,0,1,1.52,2.24L195.32,106h1.76v1.72h-4.29v.67h4.84Zm-3-12.37h-8.5v.63h8.5Zm-4,4.65c-.1.22-.16.37-.38.78.71,0,2.48,0,3.08-.1a8.38,8.38,0,0,0-.6-.68Zm4.43,3.35a8.39,8.39,0,0,0-.49-.9c-.3,0-.78.08-1.8.14V106Z"/><path class="cls-2" d="M201.32,98V95.62h2.43V98h1.92l-1.89-.57a13,13,0,0,0,.95-1.91l2,.52a16.91,16.91,0,0,1-1,2h.78v1.56a11.89,11.89,0,0,0,1.12-4l2.53.22c-.07.52-.16,1.15-.33,1.92h3.52v2.64h-.52a16.48,16.48,0,0,1-1.35,6,8.75,8.75,0,0,0,2.13,1.83l-1.39,2.6a10.55,10.55,0,0,1-2.42-2.19,13.88,13.88,0,0,1-2.88,2.16L205.83,109,205,110.4a13.67,13.67,0,0,0-1.76-1.11,10.87,10.87,0,0,1-4,1.44l-.86-2.15a11.41,11.41,0,0,0,2.34-.44,18.55,18.55,0,0,0-2.06-.61,7.65,7.65,0,0,0,.87-1.6h-1.15v-2.08h2c.16-.49.24-.77.35-1.17l.58.08v-1.27a8.29,8.29,0,0,1-2.19,1.76l-1.1-1.86a8.13,8.13,0,0,0,2.28-1.43h-1.93V98h.82a13.27,13.27,0,0,0-.73-1.83l1.72-.61a9.54,9.54,0,0,1,.91,1.84l-1.53.6Zm.7,7.93c0,.11-.26.62-.31.71l1.23.29a3.22,3.22,0,0,0,.64-1Zm3.79,0a6.06,6.06,0,0,1-.82,1.69l1,.39a8.47,8.47,0,0,0,2.42-1.78,13.91,13.91,0,0,1-1-3.07,6.27,6.27,0,0,1-.58.64l-1.35-1.59-.49.63a7.32,7.32,0,0,1-1.23-1.17V103h-.61c0,.12-.25.71-.3.84h3.74v2.08Zm-1.32-6a8.73,8.73,0,0,0,1.21,1c.17-.27.35-.54.6-1Zm4.54.33v0a13.11,13.11,0,0,0,.89,3.32,12.3,12.3,0,0,0,.49-3.36Z"/><path class="cls-2" d="M222.59,96.58c-.12.19-.17.27-.58,1a33.63,33.63,0,0,0,4.27-.58l-.06,2.52c-2.84.38-4.21.46-5.7.54-.05.09-.27.46-.32.53a4.79,4.79,0,0,1,1-.12,2.77,2.77,0,0,1,2.5,1.26c1.73-.71,1.92-.79,3.47-1.37l1,2.36c-1.46.49-3.55,1.27-4,1.44,0,.83,0,1.32,0,2.63l-2.56.08c0-.74,0-1,.06-1.58-1,.56-1.43,1-1.43,1.44,0,.66.72.85,2.17.85a28,28,0,0,0,4.68-.47l-.25,2.66a34,34,0,0,1-3.8.26,8.73,8.73,0,0,1-3.48-.45,2.85,2.85,0,0,1-1.91-2.69c0-2.18,2.17-3.3,3.71-4.09a1.18,1.18,0,0,0-.81-.28c-1.57,0-2.62,1.54-3.69,3.11l-2.07-1.49a28.44,28.44,0,0,0,2.87-4c-.75,0-1.07,0-2.12,0l.06-2.54c.73,0,1.64.08,2.79.08h.67c.28-.51.43-.81.85-1.69Z"/><path class="cls-2" d="M235.18,98.43v1.87h-5.35V98.43Zm5.62.74h.8V101h-.8v.82h.87v1.86h-3.73v-1.86h.94V101H238V99.17h.88v-.78h-1.32v5c0,4.76-.47,6-1.17,7.43l-1.48-1.49v1.06h-4.7v-4.81h4.7v2.79c.31-.83.58-2,.58-5.17v-7h8.74v13a1.32,1.32,0,0,1-1.32,1.51h-2l-.23-1.28H238v-5.06h3.54v3.89c.53,0,.53,0,.53-.59V98.39H240.8Zm-5.89-3v1.74h-4.7V96.15Zm0,4.67v1.83h-4.7v-1.83Zm0,2.35V105h-4.7v-1.86Zm-1.68,4.18h-.87v1.2h.87Zm7-1.07h-.82v1.2h.82Z"/><path class="cls-2" d="M260,98.84a5.51,5.51,0,0,1-1.21,2.44,13.53,13.53,0,0,0,1.94.76l-1,2.19v1.64h-5.35v.49h4.56v1.46h-4.56v.53h6.07v1.9H245.61v-1.9h1.95v-2H250v2h1.83v-2.48h-5.49v-1.75h0l-1-1.85a8.92,8.92,0,0,0,2.28-1h-1.73v-3h2.59v-.46h-3V96.15h3v-.53h2.26v.53h2.91v1.69h-2.91v.46h2.58v.09a6.76,6.76,0,0,0,1.82-2.85l2.31.25c-.11.36-.17.6-.28.9h3.16v2.15Zm-11.42,5.28v-1.25a9,9,0,0,1-1.77,1.25Zm-.64-4.64v.65h.8v-.65Zm2.7,0v.65h.8v-.65Zm1.59,4.64a5.85,5.85,0,0,1-1.39-1.17v1.17Zm-.57-2.81a10.12,10.12,0,0,0,1.3.81,9.83,9.83,0,0,0,2.35-.78,9.54,9.54,0,0,1-.65-.86c-.17.15-.31.28-.64.55l-.6-1v1.28Zm1.48,1.29-.83,1.52h1.54Zm5.86,1.52a8.66,8.66,0,0,1-2-1.14,7.87,7.87,0,0,1-2.21,1.14Zm-2.84-5.28A5.17,5.17,0,0,0,257,100a3.3,3.3,0,0,0,.66-1.19Z"/><path class="cls-2" d="M187,33.61v5.56H166.22C176.71,27.72,179.9,23.57,179.9,21a2.93,2.93,0,0,0-3.06-3.14c-3.49,0-5.54,3.33-6.25,4.51l-2.68-5.66a10.77,10.77,0,0,1,9-4.44c4.95,0,9,3,9,8.53,0,4.22-2.25,7.16-7.17,12.82Z"/><path class="cls-2" d="M205.89,23.34v5.43H195.53v10.4h-6.05V12.78h17.39v5.56H195.53v5Z"/><line class="cls-3" x1="3.28" y1="168.32" x2="3.28" y2="198.75"/><polygon class="cls-3" points="3.28 3.28 3.28 168.32 76.22 168.32 76.22 196.93 140.77 196.93 140.77 3.28 3.28 3.28"/><path class="cls-4" d="M1.4,1.4V198.75H5.16V170.19H74.35V198.8h68.3V1.4ZM138.89,195.05H78.1V166.44H5.16V5.16H138.89Z"/><polyline class="cls-4" points="128.9 48.19 119.2 67.83 138.84 58.08"/><polyline class="cls-4" points="128.9 87.47 119.2 67.83 138.84 77.58"/><line class="cls-4" x1="119.2" y1="48.13" x2="119.2" y2="66.12"/><line class="cls-4" x1="108.74" y1="48.13" x2="108.74" y2="66.12"/><line class="cls-4" x1="113.97" y1="48.13" x2="113.97" y2="66.12"/><line class="cls-4" x1="103.52" y1="48.13" x2="103.52" y2="66.12"/><line class="cls-4" x1="113.97" y1="69.71" x2="113.97" y2="87.7"/><line class="cls-4" x1="119.2" y1="69.71" x2="119.2" y2="87.7"/><line class="cls-4" x1="103.21" y1="69.71" x2="103.21" y2="87.7"/><line class="cls-4" x1="108.44" y1="69.71" x2="108.44" y2="87.7"/><line class="cls-4" x1="121.02" y1="67.83" x2="138.84" y2="67.83"/><polyline class="cls-4" points="103.57 57.07 129.96 57.07 129.96 78.59 99.92 78.59 101.81 76.7 101.81 79.93"/><polyline class="cls-5" points="97.68 87.47 97.68 67.83 121.02 67.83"/><polygon class="cls-4" points="99.56 87.47 95.81 87.47 95.81 65.95 121.02 65.95 121.02 69.71 99.56 69.71 99.56 87.47"/><line class="cls-6" x1="95.81" y1="46.31" x2="138.84" y2="46.31"/><rect class="cls-4" x="95.81" y="44.44" width="43.03" height="3.75"/><line class="cls-6" x1="95.81" y1="89.34" x2="138.84" y2="89.34"/><rect class="cls-4" x="95.81" y="87.47" width="43.03" height="3.75"/><line class="cls-6" x1="5.16" y1="89.34" x2="56.53" y2="89.34"/><rect class="cls-4" x="5.16" y="87.47" width="51.37" height="3.75"/><line class="cls-5" x1="5.16" y1="196.92" x2="74.29" y2="196.92"/><rect class="cls-4" x="5.16" y="195.05" width="69.13" height="3.75"/><line class="cls-7" x1="78.1" y1="166.44" x2="78.1" y2="166.02"/><line class="cls-8" x1="78.1" y1="165.18" x2="78.1" y2="88.31"/><polyline class="cls-7" points="78.1 87.89 78.1 87.47 77.68 87.47"/><line class="cls-9" x1="76.71" y1="87.47" x2="75.25" y2="87.47"/><polyline class="cls-7" points="74.76 87.47 74.35 87.47 74.35 87.89"/><line class="cls-8" x1="74.35" y1="88.73" x2="74.35" y2="165.6"/><line class="cls-7" x1="74.35" y1="166.02" x2="74.35" y2="166.44"/><line class="cls-7" x1="22.92" y1="91.22" x2="22.92" y2="91.64"/><line class="cls-10" x1="22.92" y1="92.5" x2="22.92" y2="107.49"/><polyline class="cls-7" points="22.92 107.91 22.92 108.33 23.34 108.33"/><line class="cls-9" x1="24.31" y1="108.33" x2="25.77" y2="108.33"/><polyline class="cls-7" points="26.26 108.33 26.68 108.33 26.68 107.91"/><line class="cls-10" x1="26.67" y1="107.06" x2="26.67" y2="92.07"/><line class="cls-7" x1="26.67" y1="91.64" x2="26.67" y2="91.22"/><polyline class="cls-7" points="61.25 22.92 60.83 22.92 60.83 22.5"/><line class="cls-11" x1="60.83" y1="21.7" x2="60.83" y2="5.98"/><polyline class="cls-7" points="60.83 5.58 60.83 5.16 60.41 5.16"/><line class="cls-9" x1="59.44" y1="5.16" x2="57.98" y2="5.16"/><polyline class="cls-7" points="57.49 5.16 57.08 5.16 57.08 5.58"/><line class="cls-12" x1="57.08" y1="6.4" x2="57.08" y2="25.84"/><polyline class="cls-7" points="57.08 26.26 57.08 26.67 57.49 26.67"/><line class="cls-13" x1="58.36" y1="26.67" x2="73.5" y2="26.67"/><polyline class="cls-7" points="73.93 26.67 74.35 26.67 74.35 27.09"/><line class="cls-14" x1="74.35" y1="27.91" x2="74.35" y2="65.13"/><polyline class="cls-7" points="74.35 65.54 74.35 65.95 73.93 65.95"/><line class="cls-15" x1="73.1" y1="65.95" x2="53.61" y2="65.95"/><polyline class="cls-7" points="53.19 65.95 52.77 65.95 52.77 66.37"/><line class="cls-9" x1="52.77" y1="67.34" x2="52.77" y2="68.8"/><polyline class="cls-7" points="52.77 69.29 52.77 69.71 53.19 69.71"/><polyline class="cls-16" points="54.03 69.71 74.35 69.71 77.26 69.71"/><polyline class="cls-7" points="77.68 69.71 78.1 69.71 78.1 69.29"/><polyline class="cls-17" points="78.1 68.45 78.1 65.95 78.1 26.67 78.1 23.75"/><polyline class="cls-7" points="78.1 23.34 78.1 22.92 77.68 22.92"/><polyline class="cls-13" points="76.82 22.92 74.35 22.92 61.68 22.92"/><line class="cls-7" x1="95.86" y1="91.22" x2="95.86" y2="91.64"/><line class="cls-10" x1="95.86" y1="92.5" x2="95.86" y2="107.49"/><polyline class="cls-7" points="95.86 107.91 95.86 108.33 96.28 108.33"/><line class="cls-9" x1="97.25" y1="108.33" x2="98.71" y2="108.33"/><polyline class="cls-7" points="99.2 108.33 99.62 108.33 99.62 107.91"/><line class="cls-10" x1="99.62" y1="107.06" x2="99.62" y2="92.07"/><line class="cls-7" x1="99.62" y1="91.64" x2="99.62" y2="91.22"/><line class="cls-18" x1="54.71" y1="69.71" x2="54.71" y2="87.47"/><line class="cls-18" x1="58.58" y1="78.59" x2="50.84" y2="78.59"/><path class="cls-18" d="M54.71,69.71c-9.11,0-16.5,7.66-16.5,17.11h16.5"/><line class="cls-18" x1="56.53" y1="89.34" x2="74.29" y2="89.34"/><line class="cls-18" x1="65.41" y1="85.48" x2="65.41" y2="93.21"/><path class="cls-18" d="M56.53,89.34c0,9.11,7.66,16.5,17.11,16.5h0V89.34"/><line class="cls-18" x1="95.92" y1="89.34" x2="78.16" y2="89.34"/><line class="cls-18" x1="87.04" y1="85.48" x2="87.04" y2="93.21"/><path class="cls-18" d="M95.92,89.34c0,9.11-7.66,16.5-17.11,16.5h0V89.34"/><line class="cls-18" x1="95.92" y1="46.92" x2="78.16" y2="46.92"/><line class="cls-18" x1="87.04" y1="50.79" x2="87.04" y2="43.05"/><path class="cls-18" d="M95.92,46.92c0-9.11-7.66-16.49-17.11-16.49h0V46.92"/><line class="cls-18" x1="59.17" y1="65.95" x2="51.72" y2="61.67"/><line class="cls-18" x1="59.17" y1="57.39" x2="51.72" y2="61.67"/><line class="cls-18" x1="59.17" y1="35.23" x2="51.72" y2="30.96"/><line class="cls-18" x1="59.17" y1="26.67" x2="51.72" y2="30.96"/><line class="cls-18" x1="59.17" y1="65.95" x2="59.17" y2="26.67"/><line class="cls-18" x1="63.03" y1="46.26" x2="55.3" y2="46.26"/><line class="cls-18" x1="138.84" y1="106.45" x2="134.56" y2="113.9"/><line class="cls-18" x1="130.28" y1="106.45" x2="134.56" y2="113.9"/><line class="cls-18" x1="108.12" y1="106.45" x2="103.84" y2="113.9"/><line class="cls-18" x1="99.56" y1="106.45" x2="103.84" y2="113.9"/><line class="cls-18" x1="138.84" y1="106.45" x2="99.56" y2="106.45"/><line class="cls-18" x1="119.14" y1="102.59" x2="119.14" y2="110.32"/><line class="cls-18" x1="76.22" y1="5.16" x2="83.67" y2="9.44"/><line class="cls-18" x1="76.22" y1="13.72" x2="83.67" y2="9.44"/><line class="cls-18" x1="76.22" y1="5.16" x2="76.22" y2="22.92"/><line class="cls-18" x1="72.35" y1="14.04" x2="80.09" y2="14.04"/><line class="cls-18" x1="5.48" y1="106.45" x2="9.76" y2="113.91"/><line class="cls-18" x1="14.04" y1="106.45" x2="9.76" y2="113.91"/><line class="cls-18" x1="5.48" y1="106.45" x2="23.24" y2="106.45"/><line class="cls-18" x1="14.36" y1="102.59" x2="14.36" y2="110.32"/><polygon class="cls-19" points="79.28 196.98 79.28 198.81 116.22 198.81 116.22 196.98 115.47 196.98 115.47 195.59 115.79 195.59 115.79 195.25 115.99 195.25 115.99 195.05 115.79 195.05 79.72 195.05 79.49 195.05 79.49 195.25 79.72 195.25 79.72 195.59 80.03 195.59 80.03 196.98 79.28 196.98"/><line class="cls-4" x1="80.03" y1="197.3" x2="80.03" y2="198.8"/><path class="cls-4" d="M80,197.3h0m0,0h0v0h0m0-.07h0v.05m0-.07,0,0m0-.15h0v.13M80,197h0v.05m0-.1V197m0-.05h0m0,0h-.31"/><line class="cls-4" x1="115.79" y1="196.98" x2="115.47" y2="196.98"/><line class="cls-4" x1="115.47" y1="197.3" x2="115.47" y2="198.8"/><path class="cls-4" d="M115.47,197h0m0,0h0v0m0,.07v0m0,.22h0v-.18h0m0,.21,0,0m0,.07h0v0h0v0"/><path class="cls-4" d="M114.6,198.33H98.17m-.43-2.53v4.3m-.43-2.3H80.9m17.27.25h-.86m.86,0h-.86"/><rect class="cls-4" x="97.31" y="197.53" width="0.87" height="1.07"/><polyline class="cls-4" points="115.79 196.98 115.79 197.3 79.72 197.3 79.72 196.98"/><rect class="cls-4" x="80.03" y="197.53" width="0.87" height="0.52"/><rect class="cls-4" x="114.6" y="198.05" width="0.86" height="0.52"/><polygon class="cls-4" points="79.28 196.98 79.28 198.81 116.22 198.81 116.22 196.98 115.47 196.98 115.47 195.59 115.79 195.59 115.79 195.25 115.99 195.25 115.99 195.05 115.79 195.05 79.72 195.05 79.49 195.05 79.49 195.25 79.72 195.25 79.72 195.59 80.03 195.59 80.03 196.98 79.28 196.98"/><polygon class="cls-19" points="36.25 168.37 36.25 170.2 73.19 170.2 73.19 168.37 72.44 168.37 72.44 166.99 72.75 166.99 72.75 166.65 72.96 166.65 72.96 166.44 72.75 166.44 36.68 166.44 36.45 166.44 36.45 166.65 36.68 166.65 36.68 166.99 37 166.99 37 168.37 36.25 168.37"/><line class="cls-4" x1="37" y1="168.69" x2="37" y2="170.2"/><path class="cls-4" d="M37,168.69h0m0,0h0v0h0m0-.07h0v0m0-.07,0,0m0-.15h0v.13m0-.18h0v.05m0-.1v0m0,0h0m0,0h-.32"/><line class="cls-4" x1="72.75" y1="168.37" x2="72.43" y2="168.37"/><line class="cls-4" x1="72.43" y1="168.69" x2="72.43" y2="170.2"/><path class="cls-4" d="M72.43,168.37h0m0,0h0v0m0,.07v0m0,.22h0v-.18h0m0,.21,0,0m0,.07h0v0h0v0"/><path class="cls-4" d="M71.57,169.72H55.14m-.43-2.53v4.3m-.44-2.3H37.87m17.27.25h-.87m.87,0h-.87"/><rect class="cls-4" x="54.27" y="168.92" width="0.87" height="1.07"/><polyline class="cls-4" points="72.75 168.37 72.75 168.69 36.68 168.69 36.68 168.37"/><rect class="cls-4" x="37" y="168.92" width="0.87" height="0.52"/><rect class="cls-4" x="71.57" y="169.44" width="0.86" height="0.52"/><polygon class="cls-4" points="36.25 168.37 36.25 170.2 73.19 170.2 73.19 168.37 72.44 168.37 72.44 166.99 72.75 166.99 72.75 166.65 72.96 166.65 72.96 166.44 72.75 166.44 36.68 166.44 36.45 166.44 36.45 166.65 36.68 166.65 36.68 166.99 37 166.99 37 168.37 36.25 168.37"/><polygon class="cls-19" points="3.22 113.92 1.4 113.92 1.4 150.86 3.22 150.86 3.22 150.1 4.61 150.1 4.61 150.42 4.95 150.42 4.95 150.63 5.16 150.63 5.16 150.42 5.16 114.35 5.16 114.13 4.95 114.13 4.95 114.35 4.61 114.35 4.61 114.67 3.22 114.67 3.22 113.92"/><line class="cls-4" x1="2.91" y1="114.67" x2="1.4" y2="114.67"/><path class="cls-4" d="M2.91,114.67h0m0,0v0h0v0m.06,0h0m.06,0,0,0m.16,0v0H3m.19.05v0H3.13m.09,0h0m0,0h0v0m0,0v-.32"/><line class="cls-4" x1="3.22" y1="150.42" x2="3.22" y2="150.1"/><line class="cls-4" x1="2.91" y1="150.1" x2="1.4" y2="150.1"/><path class="cls-4" d="M3.22,150.1h0m0,0v0h0m-.07,0H3.2m-.23,0h.18v0m-.2,0,0,0m-.06-.05h0v0H3"/><path class="cls-4" d="M1.88,149.24V132.81m2.53-.43H.1m2.3-.44v-16.4m-.25,17.27v-.87m0,.87v-.87"/><rect class="cls-4" x="1.61" y="131.94" width="1.07" height="0.87"/><polyline class="cls-4" points="3.22 150.42 2.9 150.42 2.9 114.35 3.22 114.35"/><rect class="cls-4" x="2.15" y="114.67" width="0.52" height="0.86"/><rect class="cls-4" x="1.63" y="149.24" width="0.52" height="0.86"/><polygon class="cls-4" points="3.22 113.92 1.4 113.92 1.4 150.86 3.22 150.86 3.22 150.1 4.61 150.1 4.61 150.42 4.95 150.42 4.95 150.63 5.16 150.63 5.16 150.42 5.16 114.35 5.16 114.13 4.95 114.13 4.95 114.35 4.61 114.35 4.61 114.67 3.22 114.67 3.22 113.92"/><polygon class="cls-19" points="3.22 27.86 1.4 27.86 1.4 64.79 3.22 64.79 3.22 64.04 4.61 64.04 4.61 64.36 4.95 64.36 4.95 64.56 5.16 64.56 5.16 64.36 5.16 28.29 5.16 28.06 4.95 28.06 4.95 28.29 4.61 28.29 4.61 28.61 3.22 28.61 3.22 27.86"/><line class="cls-4" x1="2.91" y1="28.61" x2="1.4" y2="28.61"/><path class="cls-4" d="M2.91,28.61h0m0-.05v0h0v0M3,28.56h0m.06,0,0,0m.16,0v0H3m.19,0v0H3.13m.09,0h0m0,0h0v0m0,0v-.32"/><line class="cls-4" x1="3.22" y1="64.36" x2="3.22" y2="64.04"/><line class="cls-4" x1="2.91" y1="64.04" x2="1.4" y2="64.04"/><path class="cls-4" d="M3.22,64h0m0,0v0h0m-.07,0H3.2m-.23,0h.18v0m-.2,0,0,0m-.06,0h0v0H3"/><path class="cls-4" d="M1.88,63.18V46.75m2.53-.44H.1m2.3-.43V29.47M2.15,46.75v-.87m0,.87v-.87"/><rect class="cls-4" x="1.61" y="45.88" width="1.07" height="0.87"/><polyline class="cls-4" points="3.22 64.36 2.9 64.36 2.9 28.29 3.22 28.29"/><rect class="cls-4" x="2.15" y="28.61" width="0.52" height="0.87"/><rect class="cls-4" x="1.63" y="63.18" width="0.52" height="0.86"/><polygon class="cls-4" points="3.22 27.86 1.4 27.86 1.4 64.79 3.22 64.79 3.22 64.04 4.61 64.04 4.61 64.36 4.95 64.36 4.95 64.56 5.16 64.56 5.16 64.36 5.16 28.29 5.16 28.06 4.95 28.06 4.95 28.29 4.61 28.29 4.61 28.61 3.22 28.61 3.22 27.86"/><polygon class="cls-19" points="137.71 3.22 137.71 1.4 100.78 1.4 100.78 3.22 101.53 3.22 101.53 4.61 101.21 4.61 101.21 4.95 101 4.95 101 5.16 101.21 5.16 137.28 5.16 137.51 5.16 137.51 4.95 137.28 4.95 137.28 4.61 136.96 4.61 136.96 3.22 137.71 3.22"/><line class="cls-4" x1="136.96" y1="2.91" x2="136.96" y2="1.4"/><path class="cls-4" d="M137,2.91h0m0,0h0v0h0M137,3h0v0M137,3l0,0m0,.16h0V3m-.05.19h0V3.13m0,.09v0m0,0h0m0,0h.32"/><line class="cls-4" x1="101.21" y1="3.22" x2="101.53" y2="3.22"/><line class="cls-4" x1="101.53" y1="2.91" x2="101.53" y2="1.4"/><path class="cls-4" d="M101.53,3.22h0m0,0h0v0m0-.07V3.2m0-.23h0v.18h0m0-.2,0,0m0-.06h0v0h0V3"/><path class="cls-4" d="M102.39,1.88h16.43m.43,2.53V.1m.44,2.3H136.1m-17.28-.25h.87m-.87,0h.87"/><rect class="cls-4" x="118.82" y="1.61" width="0.87" height="1.07"/><polyline class="cls-4" points="101.21 3.22 101.21 2.9 137.28 2.9 137.28 3.22"/><rect class="cls-4" x="136.1" y="2.15" width="0.86" height="0.52"/><rect class="cls-4" x="101.53" y="1.63" width="0.86" height="0.52"/><polygon class="cls-4" points="137.71 3.22 137.71 1.4 100.78 1.4 100.78 3.22 101.53 3.22 101.53 4.61 101.21 4.61 101.21 4.95 101 4.95 101 5.16 101.21 5.16 137.28 5.16 137.51 5.16 137.51 4.95 137.28 4.95 137.28 4.61 136.96 4.61 136.96 3.22 137.71 3.22"/><polygon class="cls-19" points="53.62 3.22 53.62 1.4 27.44 1.4 27.44 3.22 28.19 3.22 28.19 4.61 27.87 4.61 27.87 4.95 27.67 4.95 27.67 5.16 27.87 5.16 53.19 5.16 53.41 5.16 53.41 4.95 53.19 4.95 53.19 4.61 52.87 4.61 52.87 3.22 53.62 3.22"/><line class="cls-4" x1="52.87" y1="2.91" x2="52.87" y2="1.4"/><path class="cls-4" d="M52.87,2.91h0m0,0h0v0h0m0,.06h0v0m0,.06,0,0m0,.16h0V3m0,.19h0V3.13m0,.09v0m0,0h0m0,0h.32"/><line class="cls-4" x1="27.87" y1="3.22" x2="28.19" y2="3.22"/><line class="cls-4" x1="28.19" y1="2.91" x2="28.19" y2="1.4"/><path class="cls-4" d="M28.19,3.22h0m0,0h0v0m0-.07V3.2m0-.23h0v.18h0m0-.2,0,0m0-.06h0v0h0V3"/><path class="cls-4" d="M29.06,1.88H40.11m.43,2.53V.1M41,2.4H52M40.11,2.15H41m-.87,0H41"/><rect class="cls-4" x="40.11" y="1.61" width="0.87" height="1.07"/><polyline class="cls-4" points="27.87 3.22 27.87 2.9 53.19 2.9 53.19 3.22"/><rect class="cls-4" x="52" y="2.15" width="0.86" height="0.52"/><rect class="cls-4" x="28.19" y="1.63" width="0.86" height="0.52"/><polygon class="cls-4" points="53.62 3.22 53.62 1.4 27.44 1.4 27.44 3.22 28.19 3.22 28.19 4.61 27.87 4.61 27.87 4.95 27.67 4.95 27.67 5.16 27.87 5.16 53.19 5.16 53.41 5.16 53.41 4.95 53.19 4.95 53.19 4.61 52.87 4.61 52.87 3.22 53.62 3.22"/><path class="cls-20" d="M33.47,184H31.91v-.15h.14c.11,0,.32-.09.32-.43v-2.26c0-.22-.09-.36-.31-.36h-.15v-.15h1.5c.62,0,1.1.25,1.1.77s-.5.71-.74.78a1.33,1.33,0,0,1,.62.26.83.83,0,0,1,.32.63C34.71,183.54,34.33,184,33.47,184Zm0-3.2H33c-.28,0-.37.11-.37.31v1h.81a.64.64,0,0,0,.69-.69A.61.61,0,0,0,33.47,180.82Zm0,1.49h-.84v1.22c0,.19.06.34.45.34h.36c.5,0,.87-.21.87-.75A.75.75,0,0,0,33.5,182.31Z"/><path class="cls-20" d="M36.85,184.11c-.29,0-.31-.28-.31-.39a1.17,1.17,0,0,1-.78.39c-.42,0-.63-.22-.63-.5a.66.66,0,0,1,.3-.5,2.54,2.54,0,0,1,1.11-.43v-.31a.45.45,0,0,0-.12-.34.54.54,0,0,0-.37-.13c-.2,0-.38.08-.41.29s0,.26-.22.26a.2.2,0,0,1-.2-.2c0-.28.41-.49.86-.49s.74.12.74.55v1.36c0,.16.08.22.2.22s.12,0,.16-.1l0,0A.41.41,0,0,1,36.85,184.11Zm-.31-1.29a1.79,1.79,0,0,0-.81.35.62.62,0,0,0-.27.43.35.35,0,0,0,.38.32,1,1,0,0,0,.7-.36Z"/><path class="cls-20" d="M37.34,184v-.15h.08c.2,0,.26-.13.26-.33v-2.49c0-.14-.06-.21-.17-.21a.4.4,0,0,0-.13,0l0-.1.61-.18v3c0,.17,0,.33.27.33h.07V184Z"/><path class="cls-20" d="M39.61,184.11a1,1,0,0,1-1-1.13,1.12,1.12,0,0,1,1-1.22c.29,0,.75.16.75.44a.22.22,0,0,1-.22.23.21.21,0,0,1-.21-.19c0-.16-.06-.34-.33-.34-.45,0-.71.55-.71,1s.28,1,.75,1a1.08,1.08,0,0,0,.77-.43l.08.07A1,1,0,0,1,39.61,184.11Z"/><path class="cls-20" d="M41.77,184.11a1.19,1.19,0,1,1,1-1.18A1.1,1.1,0,0,1,41.77,184.11Zm0-2.21c-.45,0-.69.49-.69,1s.24,1,.69,1,.7-.45.7-1S42.24,181.9,41.77,181.9Z"/><path class="cls-20" d="M44.38,184v-.15h.11c.21,0,.26-.14.26-.33v-1c0-.21-.06-.52-.42-.52a1.06,1.06,0,0,0-.71.43v1.14c0,.18.05.33.27.33H44V184H43v-.15h.09c.2,0,.25-.14.25-.33V182.2a.19.19,0,0,0-.17-.2L43,182l0-.1.6-.18v.46a1.16,1.16,0,0,1,.79-.44.59.59,0,0,1,.61.67v1.11c0,.2,0,.33.24.33h.12V184Z"/><path class="cls-20" d="M47.49,182.28l-.74,1.87c-.15.4-.34.62-.74.62-.08,0-.32,0-.32-.21a.19.19,0,0,1,.19-.19.34.34,0,0,1,.2.11.24.24,0,0,0,.15.05c.09,0,.23,0,.4-.47l0-.06-.71-1.71c-.12-.29-.27-.3-.38-.3v-.14h1V182h-.13c-.1,0-.22,0-.22.16a.56.56,0,0,0,.05.18l.56,1.31.5-1.31a.49.49,0,0,0,.05-.18c0-.08-.05-.16-.27-.16H47v-.14h.92V182A.41.41,0,0,0,47.49,182.28Z"/><path class="cls-20" d="M10.83,98.77a1.47,1.47,0,0,1-1.36,1c-1.07,0-1.42-.9-1.42-1.73,0-1.29.8-1.79,1.47-1.79a1.13,1.13,0,0,1,.39.07.49.49,0,0,0,.54-.07l.34.83-.17.08a1.39,1.39,0,0,0-1.12-.75c-.85,0-1.13.86-1.13,1.52,0,.93.5,1.62,1.24,1.62a1.27,1.27,0,0,0,1.09-.83Z"/><path class="cls-20" d="M11.12,99.65v-.14h.08c.2,0,.26-.14.26-.34V96.68c0-.14-.05-.21-.17-.21l-.13,0,0-.1.6-.17v3c0,.17,0,.34.28.34h.06v.14Z"/><path class="cls-20" d="M13.34,99.74a1.19,1.19,0,0,1,0-2.35,1.19,1.19,0,0,1,0,2.35Zm0-2.21c-.45,0-.69.5-.69,1s.24,1,.69,1,.7-.45.7-1S13.81,97.53,13.34,97.53Z"/><path class="cls-20" d="M15.69,99.74a.92.92,0,0,1-.35-.07.37.37,0,0,0-.15,0,.79.79,0,0,0-.29.11L14.62,99l.13,0a1.31,1.31,0,0,0,.28.37,1,1,0,0,0,.62.26.44.44,0,0,0,.46-.44c0-.29-.25-.36-.68-.47s-.75-.26-.75-.64a.61.61,0,0,1,.64-.64.84.84,0,0,1,.3.06.47.47,0,0,0,.15,0,.31.31,0,0,0,.22-.09l.29.67-.1,0c-.17-.21-.46-.58-.83-.58a.43.43,0,0,0-.43.43c0,.27.25.33.68.44s.78.21.78.69A.65.65,0,0,1,15.69,99.74Z"/><path class="cls-20" d="M17.73,99.74a1.19,1.19,0,0,1-.05-2.35.84.84,0,0,1,.74.41,1.24,1.24,0,0,1,.2.65H17c0,1.1.7,1.12.78,1.12a.86.86,0,0,0,.72-.43l.11.09A1.07,1.07,0,0,1,17.73,99.74Zm-.06-2.21c-.52,0-.59.56-.63.77h1.23C18.24,97.71,18,97.53,17.67,97.53Z"/><path class="cls-20" d="M19.83,99.74c-.33,0-.49-.2-.49-.56V97.63H19v-.15a.47.47,0,0,0,.31-.09.7.7,0,0,0,.25-.47v-.2h.11v.76h.77v.15h-.77V99.2a.31.31,0,0,0,.35.34.56.56,0,0,0,.45-.23l.08.07A.87.87,0,0,1,19.83,99.74Z"/><path class="cls-20" d="M115.89,98.77a1.47,1.47,0,0,1-1.36,1c-1.07,0-1.42-.9-1.42-1.73,0-1.29.8-1.79,1.48-1.79a1.09,1.09,0,0,1,.38.07.6.6,0,0,0,.21,0,.58.58,0,0,0,.34-.12l.33.83-.17.08a1.36,1.36,0,0,0-1.12-.75c-.85,0-1.12.86-1.12,1.52,0,.93.49,1.62,1.24,1.62a1.26,1.26,0,0,0,1.08-.83Z"/><path class="cls-20" d="M116.19,99.65v-.14h.07c.21,0,.27-.14.27-.34V96.68q0-.21-.18-.21l-.13,0,0-.1.61-.17v3c0,.17,0,.34.27.34h.07v.14Z"/><path class="cls-20" d="M118.41,99.74a1.19,1.19,0,1,1,1-1.17A1.1,1.1,0,0,1,118.41,99.74Zm0-2.21c-.46,0-.7.5-.7,1s.24,1,.7,1,.69-.45.69-1S118.87,97.53,118.41,97.53Z"/><path class="cls-20" d="M120.75,99.74a1,1,0,0,1-.35-.07.33.33,0,0,0-.15,0,.79.79,0,0,0-.29.11l-.27-.74.12,0a1.16,1.16,0,0,0,.29.37.93.93,0,0,0,.61.26.43.43,0,0,0,.46-.44c0-.29-.24-.36-.68-.47s-.75-.26-.75-.64a.62.62,0,0,1,.65-.64.84.84,0,0,1,.3.06.47.47,0,0,0,.15,0,.33.33,0,0,0,.22-.09l.28.67-.09,0c-.17-.21-.46-.58-.84-.58A.43.43,0,0,0,120,98c0,.27.26.33.68.44s.78.21.78.69A.65.65,0,0,1,120.75,99.74Z"/><path class="cls-20" d="M122.79,99.74a1,1,0,0,1-1-1.17c0-.59.31-1.18,1-1.18a.85.85,0,0,1,.74.41,1.34,1.34,0,0,1,.2.65H122.1c0,1.1.7,1.12.79,1.12a.84.84,0,0,0,.71-.43l.11.09A1.05,1.05,0,0,1,122.79,99.74Zm-.05-2.21c-.52,0-.6.56-.63.77h1.22C123.3,97.71,123,97.53,122.74,97.53Z"/><path class="cls-20" d="M124.9,99.74c-.34,0-.49-.2-.49-.56V97.63H124v-.15a.46.46,0,0,0,.3-.09.67.67,0,0,0,.26-.47v-.2h.11v.76h.76v.15h-.76V99.2a.31.31,0,0,0,.35.34.6.6,0,0,0,.45-.23l.07.07A.85.85,0,0,1,124.9,99.74Z"/><path class="cls-20" d="M64.68,15.42a1.47,1.47,0,0,1-1.36,1c-1.07,0-1.42-.9-1.42-1.73,0-1.29.8-1.79,1.48-1.79a1,1,0,0,1,.38.08A.6.6,0,0,0,64,13a.55.55,0,0,0,.34-.13l.33.84-.17.07A1.38,1.38,0,0,0,63.35,13c-.85,0-1.12.86-1.12,1.52,0,.94.49,1.62,1.24,1.62a1.24,1.24,0,0,0,1.08-.83Z"/><path class="cls-20" d="M65,16.31v-.15h.07c.21,0,.27-.13.27-.33V13.34c0-.15-.06-.21-.18-.21a.43.43,0,0,0-.13,0l0-.1.61-.18v3c0,.17.05.33.27.33h.06v.15Z"/><path class="cls-20" d="M67.2,16.39a1.18,1.18,0,1,1,1-1.17A1.1,1.1,0,0,1,67.2,16.39Zm0-2.2c-.46,0-.7.49-.7,1s.24,1,.7,1,.69-.45.69-1S67.66,14.19,67.2,14.19Z"/><path class="cls-20" d="M69.54,16.39a1,1,0,0,1-.35-.07.54.54,0,0,0-.15,0,.79.79,0,0,0-.29.11l-.27-.73.12-.06a1.35,1.35,0,0,0,.29.38,1,1,0,0,0,.61.25A.43.43,0,0,0,70,15.8c0-.3-.25-.36-.68-.48s-.75-.26-.75-.64a.61.61,0,0,1,.65-.63.82.82,0,0,1,.3,0,.34.34,0,0,0,.15,0,.39.39,0,0,0,.22-.09l.28.66-.09,0c-.17-.22-.46-.59-.84-.59a.43.43,0,0,0-.43.43c0,.27.26.33.68.44s.78.22.78.69A.65.65,0,0,1,69.54,16.39Z"/><path class="cls-20" d="M71.58,16.39a1,1,0,0,1-1-1.17,1,1,0,0,1,1-1.17.85.85,0,0,1,.74.4,1.37,1.37,0,0,1,.2.65H70.89c0,1.1.7,1.12.79,1.12a.84.84,0,0,0,.71-.43l.11.09A1.05,1.05,0,0,1,71.58,16.39Zm0-2.2c-.52,0-.6.55-.63.76h1.22C72.09,14.36,71.81,14.19,71.53,14.19Z"/><path class="cls-20" d="M73.69,16.39c-.34,0-.49-.2-.49-.56V14.28h-.39v-.14a.46.46,0,0,0,.3-.09.68.68,0,0,0,.26-.48v-.19h.11v.76h.76v.14h-.76v1.57a.31.31,0,0,0,.34.35.58.58,0,0,0,.46-.24l.07.08A.87.87,0,0,1,73.69,16.39Z"/><path class="cls-20" d="M63.8,46.91a1.47,1.47,0,0,1-1.37,1c-1.07,0-1.41-.9-1.41-1.73,0-1.3.8-1.79,1.47-1.79a1.13,1.13,0,0,1,.39.07.56.56,0,0,0,.21,0,.58.58,0,0,0,.33-.12l.33.83-.17.08a1.35,1.35,0,0,0-1.11-.75c-.85,0-1.13.86-1.13,1.52,0,.93.5,1.61,1.24,1.61a1.27,1.27,0,0,0,1.09-.83Z"/><path class="cls-20" d="M64.09,47.79v-.14h.08c.2,0,.26-.14.26-.34V44.82c0-.14-.06-.21-.17-.21a.4.4,0,0,0-.13,0l0-.1.61-.17v3c0,.17.05.34.28.34h.06v.14Z"/><path class="cls-20" d="M66.31,47.88a1.19,1.19,0,1,1,1-1.18A1.1,1.1,0,0,1,66.31,47.88Zm0-2.21c-.45,0-.69.5-.69,1s.24,1,.69,1,.69-.45.69-1S66.77,45.67,66.31,45.67Z"/><path class="cls-20" d="M68.66,47.88a.92.92,0,0,1-.35-.07.42.42,0,0,0-.15,0,.73.73,0,0,0-.29.11l-.28-.74.12,0a1.16,1.16,0,0,0,.29.37.93.93,0,0,0,.61.26.43.43,0,0,0,.46-.44c0-.29-.24-.36-.67-.48s-.76-.25-.76-.63a.62.62,0,0,1,.65-.64.84.84,0,0,1,.3.06l.15,0a.39.39,0,0,0,.22-.09l.28.67-.09,0c-.17-.22-.46-.58-.84-.58a.42.42,0,0,0-.42.43c0,.27.25.33.67.43s.78.22.78.7A.65.65,0,0,1,68.66,47.88Z"/><path class="cls-20" d="M70.7,47.88a1.05,1.05,0,0,1-1-1.17c0-.59.31-1.18,1-1.18a.83.83,0,0,1,.74.41,1.24,1.24,0,0,1,.2.65H70c0,1.1.71,1.12.79,1.12a.9.9,0,0,0,.72-.43l.1.09A1,1,0,0,1,70.7,47.88Zm-.06-2.21c-.52,0-.6.56-.63.77h1.23C71.21,45.85,70.92,45.67,70.64,45.67Z"/><path class="cls-20" d="M72.8,47.88c-.33,0-.49-.2-.49-.56V45.77h-.39v-.15a.48.48,0,0,0,.31-.09.7.7,0,0,0,.25-.47v-.2h.11v.76h.76v.15h-.76v1.56a.31.31,0,0,0,.35.35.54.54,0,0,0,.45-.24l.08.08A.87.87,0,0,1,72.8,47.88Z"/><path class="cls-20" d="M24.64,48.09a1,1,0,0,1-1.08-.86.3.3,0,0,1,.29-.33c.14,0,.25.12.25.31s0,.24,0,.28c0,.2.22.4.6.4.73,0,.95-.74.95-1.25s-.15-1.1-.86-1.1a1.27,1.27,0,0,0-.92.51L23.74,46l.11-2.19h2l-.1.38H24l-.08,1.56a1.32,1.32,0,0,1,.45-.31,1.15,1.15,0,0,1,1.66,1.17A1.44,1.44,0,0,1,24.64,48.09Z"/><path class="cls-20" d="M26.77,48.09a.29.29,0,0,1,0-.58.29.29,0,0,1,.29.29A.3.3,0,0,1,26.77,48.09Z"/><path class="cls-20" d="M27.81,48V47.8H28c.38,0,.56-.18.56-.57V44.65c0-.37-.13-.53-.57-.53h-.19V44h.09a2.13,2.13,0,0,0,.88-.22.31.31,0,0,1,.12-.05s0,0,0,.06v3.48c0,.33.13.57.5.57h.26V48Z"/><path class="cls-20" d="M31.79,44.78a.3.3,0,0,0-.32.33v2.56a.93.93,0,0,1-.9,1.06c-.25,0-.39-.13-.39-.29a.24.24,0,0,1,.25-.25.2.2,0,0,1,.21.15c0,.07.05.16.18.16s.35-.16.35-.71V45.11a.3.3,0,0,0-.32-.33h-.22v-.15H32v.15Z"/><path class="cls-20" d="M36.28,134.64a1,1,0,0,1-1.08-.86.31.31,0,0,1,.29-.33.28.28,0,0,1,.26.31c0,.08,0,.24,0,.28,0,.2.21.4.59.4.73,0,1-.74,1-1.25s-.14-1.1-.85-1.1a1.27,1.27,0,0,0-.93.51l-.08-.07.1-2.19h2l-.1.38H35.66l-.07,1.56A1.18,1.18,0,0,1,36,132a1.25,1.25,0,0,1,.49-.12,1.22,1.22,0,0,1,1.17,1.29A1.44,1.44,0,0,1,36.28,134.64Z"/><path class="cls-20" d="M38.41,134.64a.29.29,0,0,1-.29-.29.29.29,0,1,1,.29.29Z"/><path class="cls-20" d="M40.33,134.64a1.11,1.11,0,0,1-1.24-1c0-.58.43-.85,1-1.19a1.28,1.28,0,0,1-.88-1.09,1.13,1.13,0,0,1,1.17-1.08,1,1,0,0,1,1,.91,1.34,1.34,0,0,1-.72,1,1.43,1.43,0,0,1,.93,1.21A1.24,1.24,0,0,1,40.33,134.64Zm-.06-2.16a1.39,1.39,0,0,0-.76,1.1.83.83,0,0,0,.86.88.91.91,0,0,0,1-.91C41.33,133,40.89,132.78,40.27,132.48Zm.09-2.07a.77.77,0,0,0-.79.75.7.7,0,0,0,.33.6,3.24,3.24,0,0,0,.67.36,1.18,1.18,0,0,0,.56-.9A.78.78,0,0,0,40.36,130.41Z"/><path class="cls-20" d="M43.44,131.33a.3.3,0,0,0-.33.33v2.56c0,.79-.5,1.06-.9,1.06-.24,0-.39-.13-.39-.29a.24.24,0,0,1,.26-.25.22.22,0,0,1,.21.15c0,.07,0,.16.18.16s.34-.16.34-.71v-2.68a.3.3,0,0,0-.32-.33h-.21v-.15h1.34v.15Z"/><path class="cls-20" d="M105.57,150.71c-.68,0-1.32-.73-1.32-2,0-1.08.55-2.41,1.62-2.41.42,0,.68.22.68.5a.24.24,0,0,1-.26.27.28.28,0,0,1-.3-.3c0-.15,0-.3-.24-.3a.7.7,0,0,0-.47.22,3,3,0,0,0-.56,2c.27-.38.51-.74,1-.74s1,.57,1,1.29A1.36,1.36,0,0,1,105.57,150.71Zm.09-2.51c-.59,0-.86.67-.94.9a2.48,2.48,0,0,0,.26,1c.19.34.36.38.58.38.63,0,.78-.8.78-1.29C106.34,148.91,106.28,148.2,105.66,148.2Z"/><path class="cls-20" d="M107.48,150.71a.29.29,0,0,1,0-.58.29.29,0,0,1,.29.29A.3.3,0,0,1,107.48,150.71Z"/><path class="cls-20" d="M109.42,150.32c0,.11,0,.39-.31.39-.13,0-.28-.05-.28-.36a12,12,0,0,1,1.61-3.56h-1.31c-.52,0-.68.42-.82.82l-.12,0,.25-1.18h2.3v.2A7.22,7.22,0,0,0,109.42,150.32Z"/><path class="cls-20" d="M112.5,147.4a.3.3,0,0,0-.32.33v2.56a.93.93,0,0,1-.9,1.06c-.25,0-.4-.13-.4-.29a.25.25,0,0,1,.26-.25.2.2,0,0,1,.21.15c0,.07.05.16.18.16s.35-.16.35-.71v-2.68a.3.3,0,0,0-.32-.33h-.22v-.15h1.35v.15Z"/><path class="cls-20" d="M106.77,25.77A1.28,1.28,0,0,1,105.4,27c-.7,0-1.14-.44-1.14-.83,0-.19.09-.34.28-.34a.28.28,0,0,1,.27.31c0,.06,0,.23,0,.27s.21.4.62.4a1,1,0,0,0,.92-1,.92.92,0,0,0-.93-1h-.22s-.15,0-.15-.12.07-.1.15-.1l.21,0a.88.88,0,0,0,.85-.93.77.77,0,0,0-.76-.84c-.34,0-.54.22-.54.39s0,.17,0,.21-.06.33-.27.33-.24-.15-.24-.3c0-.42.5-.82,1.08-.82a1.07,1.07,0,0,1,1.17,1,1.18,1.18,0,0,1-1,1.06A1.16,1.16,0,0,1,106.77,25.77Z"/><path class="cls-20" d="M107.48,27a.28.28,0,0,1-.29-.29.29.29,0,1,1,.29.29Z"/><path class="cls-20" d="M109.44,27c-.81,0-1.29-1-1.29-2.2s.47-2.19,1.29-2.19,1.29,1,1.29,2.19S110.25,27,109.44,27Zm0-4.23c-.43,0-.86.54-.86,2s.44,2,.86,2,.87-.47.87-2S109.84,22.75,109.44,22.75Z"/><path class="cls-20" d="M112.5,23.67a.3.3,0,0,0-.32.34v2.55c0,.8-.51,1.06-.9,1.06s-.4-.13-.4-.29a.26.26,0,0,1,.26-.25.2.2,0,0,1,.21.15c0,.08.05.16.18.16s.35-.16.35-.7V24a.3.3,0,0,0-.32-.34h-.22v-.15h1.35v.15Z"/><path class="cls-20" d="M94.44,59h.15a.3.3,0,0,0,.31-.3V56.21a.28.28,0,0,0-.31-.29h-.15v-.15H95.9a1.51,1.51,0,0,1,1.57,1.67,1.55,1.55,0,0,1-1.61,1.68H94.44Zm1.06-3.06c-.2,0-.31.1-.31.29v2.47c0,.22.17.3.35.3h.23c1,0,1.35-.68,1.35-1.57,0-.71-.26-1.49-1.19-1.49Z"/><path class="cls-20" d="M101.05,55.92c-.25,0-.42.2-.42.51v2.69h-.14l-1.95-3v2.49c0,.23.13.42.32.42h.22v.14H97.86V59h.19a.39.39,0,0,0,.33-.42V56.3a.37.37,0,0,0-.37-.38h-.15v-.15h.83l1.79,2.79V56.43c0-.51-.35-.51-.48-.51v-.15h1.12v.15Z"/><rect class="cls-21" x="0.1" y="0.1" width="300" height="200"/></svg>