<svg id="レイヤー_1" data-name="レイヤー 1" xmlns="http://www.w3.org/2000/svg" viewBox="0 0 922 306"><defs><style>.cls-1{fill:#f5efe5;}.cls-2{fill:#dcd031;}.cls-3{fill:#231815;}.cls-4{fill:#e60012;}.cls-5{fill:#fff;}.cls-6{fill:none;stroke:#231815;stroke-miterlimit:10;}.cls-7{fill:#40220f;}</style></defs><title>t4-option</title><rect class="cls-1" width="922" height="306"/><rect class="cls-2" width="922" height="54"/><path class="cls-3" d="M40.87,23.34c-1.55.3-3.48.56-5.51.76a5.38,5.38,0,0,1-.35-2,4.4,4.4,0,0,1,.05-.51c3-.22,6.46-.61,9.53-1.1a4.11,4.11,0,0,1,.76,2A48.76,48.76,0,0,1,38.58,28l0,.08L48.76,26a4.75,4.75,0,0,1,.46,2.07v.32a27.9,27.9,0,0,0-4,1.11c-3.33,1.27-4.41,2.8-4.41,4.1,0,1.51,1.1,2.31,5.17,2.39a5.19,5.19,0,0,1,.06.8,4.81,4.81,0,0,1-.37,1.88c-5.18,0-7.39-1.94-7.39-4.77,0-1.43.78-2.89,2.62-4.12l0-.09L36,30.79l-3.89.91a4.73,4.73,0,0,1-.46-1.95,1.23,1.23,0,0,1,0-.28,15.85,15.85,0,0,0,4-1.85,43.73,43.73,0,0,0,5.19-4.19Z"/><path class="cls-3" d="M65.14,36.23c4.13-1.23,5.91-3.3,5.91-6.56a5.37,5.37,0,0,0-5.19-5.53,22.64,22.64,0,0,1-2.27,9.71c-1.11,2.23-2.58,3-4.3,3-2.38,0-4.24-1.95-4.24-6,0-4.73,3.63-9.11,9.83-9.11,5.45,0,8.8,3.43,8.8,7.92s-2.63,7.36-7.15,8.81Zm-1.86-12a6.42,6.42,0,0,0-5.68,6.62c0,2.7.95,3.46,1.75,3.46s1.28-.28,1.9-1.45A21,21,0,0,0,63.28,24.23Z"/><path class="cls-3" d="M81.59,20.71a8.12,8.12,0,0,1,2.25.34,55,55,0,0,0-1.19,10.71A40.81,40.81,0,0,0,83.23,38a6.71,6.71,0,0,1-2.09.32,3.77,3.77,0,0,1-.48,0,40,40,0,0,1-.56-6.56,61.39,61.39,0,0,1,1.19-11ZM93.37,24.9c0,.45,0,.9,0,1.36,1.32-.07,2.55-.2,3.72-.37a6.61,6.61,0,0,1,.15,1.51c0,.28,0,.52,0,.73-1.15.18-2.42.31-3.76.39,0,1.19.13,2.36.24,3.52a16.17,16.17,0,0,1,4.62,2.57A4,4,0,0,1,97,36.72a13.75,13.75,0,0,0-3.09-2.13c0,2.33-1.54,3.5-4.22,3.5s-4.15-1.3-4.15-3.31,1.52-3.41,4.39-3.41a9.31,9.31,0,0,1,1.38.09c-.08-.93-.15-1.88-.19-2.81-1.06.05-2.12.07-3.13.07-.61,0-1.19,0-1.76,0a6.92,6.92,0,0,1-.08-1.15,8.11,8.11,0,0,1,.08-1.19c.78,0,1.58.05,2.4.05s1.63,0,2.43-.05c0-.47,0-.92,0-1.4V23.8c-.84,0-1.68,0-2.5,0-.59,0-1.17,0-1.76,0,0-.28,0-.61,0-.93a8.07,8.07,0,0,1,.09-1.34c.65,0,1.32,0,2,0a73.91,73.91,0,0,0,7.71-.37,7,7,0,0,1,.13,1.39c0,.28,0,.56,0,.82-1,.1-2.1.21-3.2.28Zm-3.48,8.59c-1.53,0-2,.62-2,1.34s.6,1.05,1.73,1.05,1.88-.49,1.88-1.59a4.78,4.78,0,0,0,0-.54A3.84,3.84,0,0,0,89.89,33.49Z"/><path class="cls-3" d="M109,35.39a7.45,7.45,0,0,0,2.25.49,1.19,1.19,0,0,0,1.34-1,21,21,0,0,0,.62-5.68c0-1.51-.34-1.94-1.66-1.94-.41,0-.89,0-1.45.06A57.7,57.7,0,0,1,106,37.93a5.73,5.73,0,0,1-2.38-1.14,45.25,45.25,0,0,0,3.89-9.22c-1.17.15-2.4.35-3.59.59a6.83,6.83,0,0,1-.26-1.93,5.53,5.53,0,0,1,0-.56c1.5-.21,3.05-.41,4.5-.52a48,48,0,0,0,1-5,10.07,10.07,0,0,1,2.63.46c-.3,1.47-.64,2.93-1,4.42.39,0,.73,0,1.06,0,3,0,4,1.53,4,4.15a23.17,23.17,0,0,1-.72,6.41c-.64,2.35-1.75,2.95-3.71,2.95A6.28,6.28,0,0,1,109,38ZM118.53,23A18.06,18.06,0,0,1,123,30.53a4.67,4.67,0,0,1-2.42,1.27,21.28,21.28,0,0,0-4.1-7.59A5.54,5.54,0,0,1,118.53,23Z"/><path class="cls-3" d="M129.42,32.62a24.76,24.76,0,0,1,5,4.62,10.09,10.09,0,0,1-2,2,23.6,23.6,0,0,0-4.85-4.79A12,12,0,0,1,129.42,32.62Z"/><path class="cls-3" d="M149.56,29a13.44,13.44,0,0,1,3.92-.58c3.56,0,5.77,2,5.77,4.62,0,3-2,4.92-5.28,4.92a10.45,10.45,0,0,1-1.47-.09L152,35.37a10.17,10.17,0,0,0,1.77.17c1.73,0,2.83-.76,2.83-2.48,0-1.3-.89-2.36-3.18-2.36a11.52,11.52,0,0,0-3.87.65v4.71c0,2-1,2.69-2.31,2.69a5.58,5.58,0,0,1-3.22-1,3.56,3.56,0,0,1-1.9-2.85c0-1.34.84-3.26,5-5.14v-3.5c-1.44.13-2.91.2-4.21.2a5.72,5.72,0,0,1-.13-1.28,5.84,5.84,0,0,1,.09-1.12c1.31,0,2.78-.06,4.25-.17,0-1.21,0-2.42-.08-3.63a7.6,7.6,0,0,1,1.27-.11,8,8,0,0,1,1.3.11c0,1.12-.06,2.27-.09,3.41,1.19-.13,2.3-.3,3.25-.49a6.12,6.12,0,0,1,.3,1.94v.34c-1,.22-2.27.41-3.55.57Zm-2.4,3.13c-2.14,1.16-2.52,1.92-2.52,2.55,0,.34.21.64.8,1a2.46,2.46,0,0,0,1.23.43c.34,0,.49-.13.49-.56Zm13.23-7.08a5.37,5.37,0,0,1-1.62,2,15.37,15.37,0,0,0-4.39-3.26,5.29,5.29,0,0,1,1.39-1.87A15.15,15.15,0,0,1,160.39,25.07Z"/><path class="cls-3" d="M172,26.6a41.43,41.43,0,0,1,8.56,3.8l-1.17,2.33A44.77,44.77,0,0,0,172,29.19v9.28h-2.7v-18H172Z"/><path class="cls-3" d="M201.63,23.36l1.45,1.6A21.71,21.71,0,0,1,190.82,38.6l-1.73-2.13c5.39-2.31,9.19-6.22,10.77-10.84H194a23.06,23.06,0,0,1-4.62,4.77l-1.93-1.68a22,22,0,0,0,6.73-8.64l2.59.76a27.28,27.28,0,0,1-1.3,2.52Z"/><path class="cls-3" d="M214.79,19.76a2.06,2.06,0,0,1,.35,0,5.47,5.47,0,0,1,2.14.45c-.24,1.06-.52,2.14-.85,3.22q1.44-.14,2.79-.33a6.31,6.31,0,0,1,.18,1.51c0,.26,0,.52-.05.76-1.14.19-2.4.34-3.65.45a48.53,48.53,0,0,1-4,9,5.15,5.15,0,0,1-2.2-1.21A41.69,41.69,0,0,0,213.13,26c-1.1.06-2.19.08-3.2.08a6.2,6.2,0,0,1-.09-1.16,6.9,6.9,0,0,1,.09-1.21h.91c1,0,2,0,3-.09A38.27,38.27,0,0,0,214.79,19.76Zm13.08,15a5,5,0,0,1-1.34,2.09,16.15,16.15,0,0,0-3.61-2.35,5.27,5.27,0,0,1,.06.76c0,2.35-1.57,3.54-4.23,3.54-2.51,0-4.28-1.32-4.28-3.46,0-1.77,1.6-3.67,4.78-3.67.34,0,.69,0,1,0-.13-1.38-.21-2.9-.23-4.86a7.77,7.77,0,0,1,1.21-.11,8.54,8.54,0,0,1,1.25.11,49.77,49.77,0,0,0,.26,5.31A16.73,16.73,0,0,1,227.87,34.76Zm-8.62-.91c-1.76,0-2.45.69-2.45,1.47s.5,1.21,1.93,1.21c1.16,0,1.88-.6,1.88-1.62a6.7,6.7,0,0,0-.07-.93A6.4,6.4,0,0,0,219.25,33.85Zm8.92-8.2a6,6,0,0,1-1.36,2.05,22.21,22.21,0,0,0-5-3A8,8,0,0,1,223,22.72,20.77,20.77,0,0,1,228.17,25.65Z"/><path class="cls-3" d="M234.55,26.71V24.36h9.31l-.13-4.15,2.58,0,.13,4.17H251v2.35h-4.5l.26,8.63v.18c0,2.07-1.17,2.89-3.13,2.89a17.5,17.5,0,0,1-2.71-.2l-.39-2.52a17.27,17.27,0,0,0,2.84.24c.58,0,.82-.18.82-.78v-.09l-.11-3.43,0-3.39a24.9,24.9,0,0,1-9,8.1l-1.62-2a24.34,24.34,0,0,0,8.75-7.64Z"/><path class="cls-3" d="M271.07,22.65a2.92,2.92,0,0,1-.1-.73,2.47,2.47,0,1,1,2.48,2.44,2.22,2.22,0,0,1-.65-.09c-1.34,7.53-5.21,11.83-11.93,14.33l-1.49-2.35c5.79-2,9.49-5.76,10.4-11.12H257.41V22.65Zm1.06-.73a1.3,1.3,0,1,0,1.3-1.3A1.28,1.28,0,0,0,272.13,21.92Z"/><path class="cls-3" d="M282.31,26a23.93,23.93,0,0,1,5.51,2.77l-1.31,2.33a30,30,0,0,0-5.41-2.89Zm-.71,9.46c6.76-1,11.43-3.87,14.31-10.17l2.25,1.69c-3.14,6.67-8.54,9.92-15.83,11.16ZM284.13,21a22,22,0,0,1,5.36,2.72L288.19,26a28.37,28.37,0,0,0-5.3-2.85Z"/><path class="cls-3" d="M306.6,32V29.77h9v-3h-9.75V24.57H318v14.1h-2.42V37.42h-9.88V35.24h9.88V32Z"/><path class="cls-3" d="M328.63,21.81A20.76,20.76,0,0,1,333.75,26l-2,2.08a29.84,29.84,0,0,0-4.88-4.39ZM327.22,35.3c6.88-1.62,11.44-5.22,13.69-11l2.31,1.42c-2.51,6.57-8,10.56-15.07,12.14Z"/><path class="cls-3" d="M355,27.36a5.49,5.49,0,0,1,2.52-.72,2.78,2.78,0,0,1,3.12,2.25c1.88-.71,3.87-1.36,5.64-1.88a5.54,5.54,0,0,1,.65,2.4c-1.77.45-4,1.1-6,1.83.06,1.08.09,2.2.09,3.46a7.29,7.29,0,0,1-1.32.13,5.9,5.9,0,0,1-1.06-.09c0-1,0-1.81-.05-2.59-2.42,1.08-2.91,2.05-2.91,2.89s.71,1.32,3.19,1.32a27.3,27.3,0,0,0,6.06-.78,5,5,0,0,1,.39,2,4.87,4.87,0,0,1,0,.54,32.31,32.31,0,0,1-6.43.63c-3.95,0-5.77-1.26-5.77-3.54,0-1.71,1.39-3.72,5.32-5.47-.15-.88-.5-1.23-1.27-1.23-1.3,0-3.53,1.19-6.49,3.93a5.19,5.19,0,0,1-1.58-1.68,24.61,24.61,0,0,0,4.72-5.72c-1.35.06-2.62.08-3.85.11a6.23,6.23,0,0,1-.09-1.15,5.92,5.92,0,0,1,.09-1.14c1.62,0,3.3,0,5-.11A22.52,22.52,0,0,0,356,19.87h.13a5,5,0,0,1,2.38.6c-.3.73-.65,1.47-1,2.18,1.77-.13,3.54-.28,5.29-.5a6.6,6.6,0,0,1,.2,1.65,5.53,5.53,0,0,1,0,.56c-2.17.21-4.41.41-6.62.56-.5.86-1,1.68-1.47,2.37Z"/><path class="cls-3" d="M388,36.94v.17a22,22,0,0,1-7.61,1.19c-5.12,0-7.13-2-7.2-5.65a3.71,3.71,0,0,1,2-.54,2.82,2.82,0,0,1,.41,0c.17,2.59,1.34,3.6,4.78,3.6a19.27,19.27,0,0,0,6.94-1.25A4.54,4.54,0,0,1,388,36.94Zm-8.28-11.81a20.68,20.68,0,0,1-4.84-.45,2.3,2.3,0,0,1,0-.37,4.89,4.89,0,0,1,.49-2.18,19.89,19.89,0,0,0,4.35.39,35,35,0,0,0,6-.47,5.27,5.27,0,0,1,.43,2.11,3.7,3.7,0,0,1,0,.48A36.75,36.75,0,0,1,379.68,25.13ZM387.12,20a13.19,13.19,0,0,1,2.31,3.39l-1.43.8a15.79,15.79,0,0,0-2.18-3.47Zm2.37-1.16a12.66,12.66,0,0,1,2.34,3.3l-1.38.78a14.49,14.49,0,0,0-2.23-3.37Z"/><path class="cls-3" d="M399.86,32.54a14.17,14.17,0,0,1-2.18,6.69,12.66,12.66,0,0,0-2.05-1.66A9.74,9.74,0,0,0,397.16,34a19.25,19.25,0,0,0,.46-3.26c.08-1.77.17-4.77.17-7.25a26.92,26.92,0,0,0-.11-3.06c.76.06,1.3.08,2.44.08H412c1.19,0,1.8,0,2.44-.08-.06.71-.08,1.25-.08,2.37V36.7c0,1.75-.63,2.21-3.05,2.21-.67,0-1.73,0-2.38-.09a8.36,8.36,0,0,0-.58-2.2c1,.1,2,.17,2.66.17.88,0,1.06-.09,1.06-.54V32.54H407V36a19.64,19.64,0,0,0,.1,2.51h-2.5a18.3,18.3,0,0,0,.13-2.51V32.54Zm4.85-5H400c0,.61,0,1,0,1.34,0,1,0,1.14,0,1.55h4.72Zm0-4.86H400.1V24.9l0,.58h4.63Zm7.35,2.79V22.69H407v2.79Zm0,5V27.55H407v2.89Z"/><path class="cls-3" d="M420.48,37.59a9.36,9.36,0,0,0,2.34-3.74l2.05.87a14.32,14.32,0,0,1-2.44,4.21ZM429,20.79a8.94,8.94,0,0,0-.11-1.33h2.6a8.14,8.14,0,0,0-.11,1.33V21h5a14.67,14.67,0,0,0,2.25-.13v2.05a21.92,21.92,0,0,0-2.27-.09h-1.17c-.21.48-.36.76-.62,1.26h2.87a17.61,17.61,0,0,0,2.44-.11V26a16.52,16.52,0,0,0-2.46-.11H423.27a16.32,16.32,0,0,0-2.42.11V24a19,19,0,0,0,2.51.11H426a9.59,9.59,0,0,0-.57-1.26h-1.14a19.71,19.71,0,0,0-2.19.09V20.86a14.58,14.58,0,0,0,2.25.13H429Zm-3.83,12.63c-.9,0-1.47,0-2.05,0a15.07,15.07,0,0,0,.07-1.58v-3.3a15.94,15.94,0,0,0-.09-1.9c.58,0,1.17.06,2.29.06h9.84c1.27,0,1.7,0,2.31-.06a12.58,12.58,0,0,0-.09,1.9V31.7a14.15,14.15,0,0,0,.09,1.77,6.75,6.75,0,0,1-.71,0h-.57c-.26,0-.45,0-.58,0h-4.82a17.71,17.71,0,0,1,2.1,1.66l-1.73,1.39a14.73,14.73,0,0,0-2.4-2.27l1-.78Zm.22-4.12h9.86v-.84h-9.86Zm0,2.42h9.86v-.87h-9.86Zm2.51,4.83c0,.24.06.33.34.41a13.65,13.65,0,0,0,1.82.11c2.44,0,3.13-.09,3.33-.39a3.53,3.53,0,0,0,.24-1.73,6.48,6.48,0,0,0,2.18.57c-.09,1.59-.24,2.26-.63,2.67-.58.65-1.47.78-5.12.78s-4.39-.24-4.39-1.49V35.65a7.49,7.49,0,0,0-.11-1.58H428a11.26,11.26,0,0,0-.08,1.58Zm4.26-12.47c.26-.48.39-.74.62-1.26h-5c.19.41.3.69.54,1.26Zm6.07,14.59a22,22,0,0,0-2.9-4l1.86-1.06a22.71,22.71,0,0,1,2.94,3.71Z"/><path class="cls-3" d="M447.91,30.29c0-2.61.07-5.59.22-9.41a6,6,0,0,1,1-.09,6.78,6.78,0,0,1,1.71.24c-.26,3.69-.39,6.87-.39,9.37v1.38c0,2.72,1,4.06,3.16,4.06,2.4,0,4.47-1.21,6.53-5.55l1.94,1.84c-2.11,4.47-5.18,6.26-8.47,6.26-3.65,0-5.73-1.79-5.73-6.57Z"/><path class="cls-3" d="M476.64,24.59c-2.92.33-6.36.78-9.58,1.28a6.29,6.29,0,0,1-.39-2.2,3,3,0,0,1,0-.44c5.08-.6,10.7-1.14,16.52-1.55a5.91,5.91,0,0,1,.26,1.79,6,6,0,0,1,0,.61,12.33,12.33,0,0,0-4.37,1.46c-2.92,1.75-3.83,3.41-3.83,5.55,0,2.38,1.54,3.82,6.47,4.25a2.06,2.06,0,0,1,0,.35,5.38,5.38,0,0,1-.56,2.37c-5.82-.45-8.5-3.15-8.5-6.75a7.81,7.81,0,0,1,4-6.63Z"/><path class="cls-3" d="M499.48,32.19c-1,4.23-2.33,5.38-4,5.38-1.19,0-2.38-.54-3.39-2.4-1.17-2.18-1.78-6-1.78-13.12a7.11,7.11,0,0,1,1.26-.09,9.09,9.09,0,0,1,1.42.11c0,1,0,1.94,0,2.68,0,4.12.41,7,1.34,8.87.45.88.8,1.05,1.19,1.05s1-.3,1.84-4Zm4.09-8.78a20.92,20.92,0,0,1,4.65,9.34,6.18,6.18,0,0,1-2.56,1,22.23,22.23,0,0,0-4.25-9.28A4.4,4.4,0,0,1,503.57,23.41Z"/><path class="cls-3" d="M521.07,22.89c0-1,0-2-.08-3a9.1,9.1,0,0,1,1.29-.11,8.37,8.37,0,0,1,1.28.11c0,1-.07,1.94-.09,2.92,1.86-.07,3.63-.2,5.41-.39a5.57,5.57,0,0,1,.19,1.53,5.35,5.35,0,0,1-.06.84c-1.82.15-3.66.28-5.54.35,0,.54,0,1.49,0,2.24,2-.06,4-.21,6-.47a5.93,5.93,0,0,1,.19,1.55,4.66,4.66,0,0,1-.06.8c-2,.19-4.06.32-6,.41,0,.88.09,1.77.15,2.65a19,19,0,0,1,6.68,3.16,5.09,5.09,0,0,1-1.56,2.2,19.24,19.24,0,0,0-4.93-3v.52c0,2.74-1.94,3.67-4.84,3.67s-4.49-1.21-4.49-3.39c0-1.9,1.75-3.58,5.21-3.58.51,0,1,0,1.51.06-.07-.73-.11-1.46-.13-2.2h-.56c-2.53,0-4.37,0-5.93-.15a5.81,5.81,0,0,1-.06-.86,7.75,7.75,0,0,1,.15-1.49c1.86.15,3.5.21,5.77.21h.56c0-.75,0-1.48,0-2.24h-.39c-1.92,0-3.69,0-5.27-.13a4,4,0,0,1-.09-.95,7.64,7.64,0,0,1,.15-1.42c1.65.1,3.4.17,5.15.17Zm.33,11.35a7.53,7.53,0,0,0-1.71-.19c-1.92,0-2.62.67-2.62,1.4s.63,1.17,2,1.17c1.54,0,2.36-.48,2.36-1.77Z"/><path class="cls-3" d="M546.62,33.31a2.76,2.76,0,0,1-2.33.93,3.6,3.6,0,0,1-3.61-3.8,3.51,3.51,0,0,1,3.52-3.82,5.5,5.5,0,0,1,1.47.22c0-.58,0-1.23,0-1.66-3.1.1-6.17.26-9.19.45a6.79,6.79,0,0,1-.15-1.51,6.52,6.52,0,0,1,.06-.91c3-.11,6.14-.21,9.25-.3,0-1,0-2-.08-3,.41,0,.84-.07,1.3-.07s.88,0,1.29.07c0,1-.06,2-.08,2.93l7.11-.23a7.56,7.56,0,0,1,.13,1.36,6.76,6.76,0,0,1-.07,1c-2.35,0-4.75.07-7.15.13,0,1.23.06,2.44.17,3.67a6,6,0,0,1,.95,3.26c0,3.43-2.35,6.07-6.61,7.17L541,36.94c3.26-.6,5.1-1.86,5.71-3.58Zm-2.18-1.14c1.12,0,1.66-.69,1.66-1.81a1.66,1.66,0,0,0-1.62-1.73c-.91,0-1.47.71-1.47,1.75S543.72,32.17,544.44,32.17Z"/><path class="cls-3" d="M627.14,28.3l.42.43L623,33.36l4.61,4.6-.42.43-4.61-4.56-4.6,4.56L617.5,38l4.61-4.6-4.61-4.63.43-.43,4.6,4.6Zm-7.34,5.05a1,1,0,0,1-1,1,1,1,0,0,1-1-1,1,1,0,1,1,2,0Zm3.72,3.78a1,1,0,0,1-1,1,1,1,0,0,1-.09-2h0l0,0,0,0A1,1,0,0,1,623.52,37.13Zm0-7.53a1,1,0,0,1-1,1,1,1,0,0,1-1-1,1,1,0,0,1,1-1A1,1,0,0,1,623.53,29.6Zm3.7,3.76a1,1,0,1,1-1-1A1,1,0,0,1,627.23,33.36Z"/><path class="cls-3" d="M630.89,30a5.55,5.55,0,0,0,1.15.13h1.83c.28-.34.36-.46.65-.81.48.37.63.5,1.13.9a.22.22,0,0,1,.06.12.1.1,0,0,1-.1.09H632c-.3,0-.55,0-1,.05Zm.41-1.77a4.57,4.57,0,0,0,1,.11h1.56c.27-.33.35-.43.62-.73.46.35.59.46,1,.82a.22.22,0,0,1,.06.13s-.06.08-.17.08h-3.09c-.21,0-.26,0-.9.05Zm0,5.13a7.16,7.16,0,0,0,1.08.1h1.43c.34-.39.34-.39.64-.71.46.36.61.46,1,.85a.23.23,0,0,1,0,.09s0,.07-.09.07H632.4a6.25,6.25,0,0,0-1,.08Zm0-1.74a7.92,7.92,0,0,0,1.06.09h1.31l.69-.73c.43.35.56.47,1,.83a.57.57,0,0,1,.07.12.09.09,0,0,1-.09.08h-3a6,6,0,0,0-1,.08Zm1.06,7.22c0,.17-.13.22-.56.22-.23,0-.28,0-.3-.18,0-.74,0-1.05,0-2.14s0-1.29,0-2.12a4.61,4.61,0,0,1,.86.62h1.69l.48-.56c.3.25.39.31.68.56.1.1.14.15.14.21s0,.1-.42.35c0,2.14,0,2.37,0,2.86,0,.12,0,.17-.11.21a2.14,2.14,0,0,1-.53.06c-.13,0-.18,0-.19-.16v-.46H632.4Zm0-.83h1.77V35.58H632.4Zm6.79-5.61h1.34c.29-.38.38-.5.68-.86.45.4.59.53,1,1l0,.11c0,.07,0,.1-.17.1h-2.94V35h1.74l.82-.92c.5.43.64.56,1.09,1a.24.24,0,0,1,.07.13s0,.08-.16.08h-3.56v1.18c0,.05,0,.51,0,1.17,0,.24,0,.61,0,1.11,0,.21-.13.25-.67.25-.21,0-.27,0-.27-.18v0c0-1.7,0-2.66,0-3.31v-.17H636.7a7.14,7.14,0,0,0-1.09.08l-.09-.5a6,6,0,0,0,1.18.12h1.62V32.74h-1.41a4.79,4.79,0,0,0-.87.07l-.11-.48a5.88,5.88,0,0,0,1,.11h1.41v-2h-1.41a5.26,5.26,0,0,0-.92.07l-.11-.5a4.37,4.37,0,0,0,1,.13h2.24l.15-.27a10.14,10.14,0,0,0,.86-1.83c.11-.29.13-.37.2-.6,1.45.51,1.45.51,1.45.61s-.15.18-.65.21a17.05,17.05,0,0,1-1.71,1.88h1.35c.31-.38.41-.48.71-.83a10.26,10.26,0,0,1,1,.93.38.38,0,0,1,.07.11c0,.05,0,.09-.13.09h-3.3Zm-2.67-4.92c1.35.83,1.67,1.14,1.67,1.64s-.27.83-.48.83-.14-.07-.2-.22-.25-.64-.39-1a5,5,0,0,0-.72-1.17Z"/><path class="cls-3" d="M654.73,36a6,6,0,0,1-4.56,2.69A2.37,2.37,0,0,1,648,37.53a4.42,4.42,0,0,1-.36-2.19c0-.71,0-1.94.1-3.12.08-1.4.09-1.77.09-2.23,0-1.12-.13-1.34-1.05-1.73a.56.56,0,0,1,.37-.13,3.26,3.26,0,0,1,1.16.3c.5.23.76.49.76.76a1.23,1.23,0,0,1-.12.47,39.71,39.71,0,0,0-.67,6.23,1.8,1.8,0,0,0,.52,1.55,1.89,1.89,0,0,0,1.15.35,6.68,6.68,0,0,0,3-.83,7.77,7.77,0,0,0,1.65-1.15Z"/><path class="cls-3" d="M661.92,27.78a2.77,2.77,0,0,1,1.45.69c.2.21.28.34.28.52s-.06.24-.75.8A32.11,32.11,0,0,0,660.51,32c-.46.5-.62.8-.62,1.05a1.11,1.11,0,0,0,.38.67c.19.19.19.19.91.86a11.2,11.2,0,0,1,2.39,2.64,1.61,1.61,0,0,1,.2.86c0,.49-.17.78-.44.78s-.22-.07-.44-.54a12.4,12.4,0,0,0-1.1-1.82,22.86,22.86,0,0,0-1.89-2.35,1.71,1.71,0,0,1-.5-1.09c0-.42.21-.77,1-1.74,1.58-1.91,2-2.45,2-2.76s-.17-.42-.72-.77A.59.59,0,0,1,661.92,27.78Z"/><path class="cls-3" d="M671.69,33.51c-.23.82-.6,2.23-.75,2.87a4.44,4.44,0,0,0-.17,1.1c0,.42,0,.47-.09.57a.31.31,0,0,1-.25.15c-.22,0-.4-.19-.56-.59a7.62,7.62,0,0,1-.41-2.6,19.06,19.06,0,0,1,.58-4.32,5.88,5.88,0,0,0,.2-1.17,2,2,0,0,0-.38-1.14c.3,0,.55.18.91.65a1.83,1.83,0,0,1,.47,1c0,.14,0,.14-.21.57a10.19,10.19,0,0,0-1,4.23,5,5,0,0,0,.21,1.61l.55-1.3.7-1.67Zm1.3-2.34a2.72,2.72,0,0,0,1.68.53,7.53,7.53,0,0,0,1.48-.18V31c0-1.46,0-1.63-.18-1.81a1.35,1.35,0,0,0-.86-.3.73.73,0,0,1,.62-.2,4,4,0,0,1,.88.11c.38.12.58.28.58.47s0,.1-.12.4a6,6,0,0,0-.27,1.74,3.26,3.26,0,0,0,1.19-.53c.13-.13.17-.14.29-.14a1.44,1.44,0,0,1,.61.17.28.28,0,0,1,.17.23c0,.28-.95.67-2.3.93a25.48,25.48,0,0,0,.17,3.53c1.5.4,2.14.91,2.14,1.66,0,.27-.12.48-.26.48s-.19-.06-.45-.32a4,4,0,0,0-1.41-1,1.72,1.72,0,0,1,0,.31c0,.93-.78,1.49-2.08,1.49-1.13,0-1.93-.54-1.93-1.32s1-1.47,2.45-1.47c.24,0,.43,0,.79,0v-.22l0-1.39V32.11a5.64,5.64,0,0,1-1.14.11,2.61,2.61,0,0,1-2.15-.91Zm2,4.73c-1,0-1.66.34-1.66.91s.5.76,1.27.76A1.49,1.49,0,0,0,676,37a1.59,1.59,0,0,0,.17-.9A4,4,0,0,0,675,35.9Z"/><path class="cls-3" d="M685.13,31.92h.46l.54-.73a12,12,0,0,1,.88.86s0,.06,0,.09,0,.08-.13.08h-1.8v3.29c.72-.28,1.1-.45,1.94-.83l.09.17a28.4,28.4,0,0,1-3.83,2.26c0,.45-.08.61-.2.61s-.18-.17-.65-1.35a12.62,12.62,0,0,0,1.81-.55v-3.6h-.86a3.85,3.85,0,0,0-.79.06l-.08-.48a3.75,3.75,0,0,0,.87.12h.86v-3.2h-1a4.26,4.26,0,0,0-.77.06l-.09-.48a3.9,3.9,0,0,0,.86.12h2.25c.24-.35.32-.46.57-.77.43.38.56.51,1,.91l0,.09s0,.07-.11.07h-1.91Zm6.42,6c0,.24,0,.24.83.24s.86,0,1-.27a16.58,16.58,0,0,0,.57-2.23h.19l-.06,2v0c0,.23,0,.27.26.33a.37.37,0,0,1,.28.33.44.44,0,0,1-.24.36,5.84,5.84,0,0,1-1.85.17c-1.06,0-1.41,0-1.58-.18s-.21-.31-.21-.68V34.69h-.88a4.49,4.49,0,0,1-1.33,2.81,6.55,6.55,0,0,1-2.45,1.28,8,8,0,0,1-1.38.27l-.09-.21a6.17,6.17,0,0,0,2.16-.84A4.26,4.26,0,0,0,689,34.69h-.66v.43c0,.18-.13.22-.69.22-.18,0-.25-.05-.25-.18h0c.06-1.38.07-2.69.07-5.36,0-.84,0-1.49-.07-2.24.46.24.59.32,1,.59h3.88l.54-.59c.35.26.45.34.76.59.11.1.15.15.15.2s0,.1-.46.39c0,4.64,0,4.64,0,6.24,0,.09,0,.13-.1.15a2.63,2.63,0,0,1-.59.07c-.18,0-.22,0-.23-.15v-.35h-.86Zm.86-9.5h-4.08v1.79h4.08Zm0,2.09h-4.08v1.74h4.08Zm0,2h-4.08V34.4h4.08Z"/><path class="cls-3" d="M700.19,31.59c.26-.33.34-.45.6-.77l.93.88a.3.3,0,0,1,.07.11s-.06.08-.12.08H699.8V36c.61-.21,1-.35,1.93-.74l.09.17A17.77,17.77,0,0,1,700,36.54c-1,.53-1.07.57-1.85,1,0,.13,0,.23-.06.3s-.1.31-.18.31-.11,0-.5-1.37A9.91,9.91,0,0,0,699,36.3V31.89h-.74a4.49,4.49,0,0,0-.83.08l-.1-.47a3.66,3.66,0,0,0,.93.09H699V29.48c0-.4,0-.56-.08-1.69,1.26.15,1.45.2,1.45.34s-.14.17-.54.27v3.19Zm4.41-.11c0-3.12,0-3.12-.06-3.91,1.23.17,1.23.17,1.36.25a.14.14,0,0,1,.07.1c0,.09-.05.12-.56.32v2.94l1.83-.68a7,7,0,0,1,.35-.67l.95.53c.12.11.13.13.13.18s-.16.24-.43.42a26.68,26.68,0,0,1-.31,4.15,1.18,1.18,0,0,1-.45.74,2,2,0,0,1-.84.26c0-.55-.27-.75-1-.88V35c.48,0,.83.08,1.08.08s.44-.09.53-.83a26.43,26.43,0,0,0,.15-3.51l-2,.74v2.2c0,1.2,0,1.68.05,3,0,.17-.17.22-.63.22-.19,0-.25,0-.26-.17,0-2.41,0-2.89,0-3.91v-1l-1.58.59v5.29c0,.18,0,.23.08.26a8.56,8.56,0,0,0,1.79.09c.74,0,2.13,0,2.39,0,.48,0,.53-.05.68-.38a26.09,26.09,0,0,0,.81-2.53l.2,0-.2,2.28,0,.22c0,.12,0,.14.28.27a.3.3,0,0,1,.17.28c0,.27-.3.49-.76.55a13,13,0,0,1-2.13.08l-1.65,0c-2.21,0-2.45-.08-2.48-.87l0-2.88V32.68l-.48.19a2.4,2.4,0,0,0-.78.4l-.26-.4a4.9,4.9,0,0,0,.94-.29l.58-.21v-1.7c0-.71,0-1-.05-1.63,1.29.17,1.4.19,1.4.34s-.14.18-.53.29v2.39Z"/><path class="cls-3" d="M713.93,38.55a8.74,8.74,0,0,0,2.35-3.27,9.37,9.37,0,0,0,.78-2.83c0-.35-.25-.61-.77-.83a.37.37,0,0,1,.3-.13,3,3,0,0,1,1,.38c.34.18.47.28.56.45a15.61,15.61,0,0,0,2.33-1.85c.29-.29.4-.43.4-.52s-.16-.2-.77-.2a24.49,24.49,0,0,0-4.48.72,8.46,8.46,0,0,0-1.32.45.77.77,0,0,1-.3.06c-.29,0-.76-.38-1-.86a1.86,1.86,0,0,1-.25-.7.61.61,0,0,1,.09-.3,1.27,1.27,0,0,0,1.29.78,26.63,26.63,0,0,0,3.13-.34l.9-.11a8.6,8.6,0,0,0,2.39-.38.34.34,0,0,1,.16,0,1.44,1.44,0,0,1,.69.37c.56.43.94.87.94,1.09s-.08.25-.47.35a3.73,3.73,0,0,0-.64.27c-1.07.61-1.66.91-3.06,1.57-.08.22-.09.25-.2.59A10.21,10.21,0,0,1,716.07,37a7.66,7.66,0,0,1-2,1.73Z"/><path class="cls-3" d="M728.79,35.34c0,.74,0,2.26,0,2.6v.23c0,.39-.09.56-.28.56s-.29-.12-.47-.35a1.83,1.83,0,0,1-.34-.85,1.43,1.43,0,0,1,.1-.48,24.36,24.36,0,0,0,.23-4.46c0-2.67,0-3.37-.21-3.69a1.48,1.48,0,0,0-.83-.66.54.54,0,0,1,.33-.11,2.92,2.92,0,0,1,1.26.44c.37.21.5.35.5.55s0,.1-.08.23c-.17.35-.22.88-.22,2.83a9.61,9.61,0,0,1,3.31.88.87.87,0,0,1,.53.86c0,.32-.11.57-.28.57s-.18,0-.51-.33a8.2,8.2,0,0,0-3.05-1.66v2.84Zm2.45-6.81c1.67.7,2.24,1.16,2.24,1.75,0,.37-.16.68-.35.68s-.16,0-.48-.56a6,6,0,0,0-1.52-1.71Zm1.19-.92a6.06,6.06,0,0,1,1.79.86.83.83,0,0,1,.41.72c0,.34-.13.61-.3.61s-.18,0-.48-.48a6.06,6.06,0,0,0-1.53-1.55Z"/><path class="cls-3" d="M736.56,36.51a13.56,13.56,0,0,0,3.19-3.59,2.79,2.79,0,0,0,.53-1.29c0-.2-.17-.41-.65-.74a1.58,1.58,0,0,1,.29-.05,2.47,2.47,0,0,1,1.06.44c.45.29.63.5.63.7a.36.36,0,0,1-.16.29,2.8,2.8,0,0,0-.54.6,12.87,12.87,0,0,1-2.73,2.84,7.55,7.55,0,0,1-1.52.94Zm7-5.69a11.55,11.55,0,0,1,3.41,3,2.11,2.11,0,0,1,.55,1.37c0,.55-.21,1-.49,1s-.25-.08-.43-.59A11.52,11.52,0,0,0,743.37,31Zm1.32-1.69a7.44,7.44,0,0,1,1.67.9.94.94,0,0,1,.45.81c0,.37-.12.6-.3.6s-.21-.08-.44-.46a6.09,6.09,0,0,0-1.48-1.68Zm1.28-.73a6.69,6.69,0,0,1,1.65.74c.35.24.48.42.48.7s-.12.66-.32.66-.16-.06-.28-.23A5.49,5.49,0,0,0,746,28.56Z"/><path class="cls-3" d="M751.3,35.24a22.19,22.19,0,0,0,4.88-3.68c1.29-1.26,2.12-2.31,2.12-2.69s-.21-.45-.73-.74a.58.58,0,0,1,.26-.05,2,2,0,0,1,1.12.39c.44.3.67.6.67.84s0,.14-.52.57c-.13.11-.13.11-1.05,1s-1,.93-1.54,1.4a2.71,2.71,0,0,1,.79.72,11.46,11.46,0,0,1,.09,1.91c0,.91,0,1.74.06,2.48,0,.28,0,.66,0,.74,0,.45-.09.65-.3.65s-.88-.72-.88-1.09a1,1,0,0,1,.07-.34,17.13,17.13,0,0,0,.24-3.19,6,6,0,0,0-.08-1.23.89.89,0,0,0-.29-.4,26.06,26.06,0,0,1-2.49,1.77,16,16,0,0,1-2.34,1.13Z"/><path class="cls-3" d="M767.07,38.83a6.76,6.76,0,0,0,2.48-2.64,7.48,7.48,0,0,0,.65-2.72c0-.6.06-.93.07-1.45a18,18,0,0,0-2.89.4v.43c0,.07,0,.56,0,1.49,0,0,0,.22,0,.48s0,.25,0,.34c0,.45-.11.71-.34.71s-.67-.64-.67-1a.67.67,0,0,1,.06-.28,2.07,2.07,0,0,0,.15-.61c0-.12,0-.59.05-1.38a6.28,6.28,0,0,0-1.68.49,1.33,1.33,0,0,1-.42.13c-.42,0-1.23-.88-1.23-1.35a.79.79,0,0,1,0-.13,1.4,1.4,0,0,0,1.08.61,10.62,10.62,0,0,0,1.43-.19l.75-.12a8.31,8.31,0,0,0-.18-1.75,1.18,1.18,0,0,0-.43-.6,2.59,2.59,0,0,0-.36-.22c.09-.09.13-.1.29-.1a2.56,2.56,0,0,1,1.1.4c.31.19.45.38.45.6a.91.91,0,0,1,0,.28,5.57,5.57,0,0,0-.12,1.27l2.93-.35v-.83c0-1,0-1.45-.21-1.66a1.53,1.53,0,0,0-.83-.48.73.73,0,0,1,.43-.13,2.91,2.91,0,0,1,1.22.33c.35.17.48.3.48.48a.53.53,0,0,1,0,.23,5.05,5.05,0,0,0-.26,2,4.63,4.63,0,0,0,1.57-.25.69.69,0,0,1,.34-.1c.41,0,1.19.5,1.19.77a.25.25,0,0,1-.27.22h-.24a13.64,13.64,0,0,0-1.81-.11c-.25,0-.47,0-.8,0a19.41,19.41,0,0,1-.19,2.45,5,5,0,0,1-1,2.59,6.71,6.71,0,0,1-2.65,2Zm4.54-11a5.13,5.13,0,0,1,1.61.91.84.84,0,0,1,.35.75c0,.35-.11.6-.27.6s-.18-.08-.3-.3A6,6,0,0,0,771.51,28Zm1.25-.62a4.81,4.81,0,0,1,1.79.83.69.69,0,0,1,.26.63c0,.34-.14.61-.3.61s-.15-.06-.27-.26a5,5,0,0,0-1.58-1.66Z"/><path class="cls-3" d="M778.94,32.67a1.71,1.71,0,0,0,1.26.31l1.59,0,5.07-.07a5.34,5.34,0,0,1,1.69.11.27.27,0,0,1,.18.26.38.38,0,0,1-.3.35,12.31,12.31,0,0,1-3.12.16c-1.2,0-4.18.09-4.63.11a2,2,0,0,0-.94.17.65.65,0,0,1-.19,0c-.2,0-.41-.14-.63-.43a2.32,2.32,0,0,1-.49-1.19c0-.18,0-.21.1-.3A1.21,1.21,0,0,0,778.94,32.67Z"/><path class="cls-3" d="M795.5,33.51c0,.12-.22.94-.59,2.44a5.17,5.17,0,0,0-.22,1.38,1.65,1.65,0,0,1,0,.55.31.31,0,0,1-.31.22c-.22,0-.41-.18-.56-.53a7.77,7.77,0,0,1-.45-2.76,12.76,12.76,0,0,1,.1-1.39,18.94,18.94,0,0,1,.46-2.45,6,6,0,0,0,.18-1.2,2.29,2.29,0,0,0-.37-1.22c.29,0,.52.18.88.63a1.77,1.77,0,0,1,.48,1c0,.2,0,.26-.28.77a11.21,11.21,0,0,0-.7,2.07,6.92,6.92,0,0,0-.17,1.61,5,5,0,0,0,.25,1.71c.22-.46.32-.72.47-1.11l.69-1.81Zm1.63.65c0,.26,0,.38,0,.55,0,1.42.82,2,2.84,2a6.62,6.62,0,0,0,1.1-.09,2.09,2.09,0,0,0,.69-.21.54.54,0,0,1,.19,0,1,1,0,0,1,.82.77c0,.15-.1.25-.28.32a6.7,6.7,0,0,1-1.63.14,5.29,5.29,0,0,1-3.36-.79,2.15,2.15,0,0,1-.7-1.69,3.75,3.75,0,0,1,.15-1Zm0-4.12a2,2,0,0,0,1.21.35,6.91,6.91,0,0,0,2.61-.59c.17-.09.19-.1.28-.1a1,1,0,0,1,.46.18c.27.16.4.31.4.48s-.09.25-.36.3a7.92,7.92,0,0,0-1.85.45,13.46,13.46,0,0,0-1.67.93l-.13-.13c.58-.5,1-.86,1.23-1l-.53,0a2.27,2.27,0,0,1-1.77-.73Z"/><path class="cls-3" d="M806.46,31a2.2,2.2,0,0,0,1.55.66,5.62,5.62,0,0,0,1.29-.17c0-.38,0-1,0-1.19,0-1.36-.16-1.64-1.06-1.79a.72.72,0,0,1,.56-.18,3.11,3.11,0,0,1,1.34.32.53.53,0,0,1,.29.42c0,.07,0,.07-.15.33a5.21,5.21,0,0,0-.4,1.93,3.72,3.72,0,0,0,1.42-.75.58.58,0,0,1,.31-.13,1.4,1.4,0,0,1,.49.12.33.33,0,0,1,.22.29c0,.18-.11.28-.58.5a9.63,9.63,0,0,1-1.9.64c0,.18,0,.18,0,.64s0,.93-.05,1.7a9.84,9.84,0,0,1,3.44-.71c1.78,0,2.9.84,2.9,2.22a2.2,2.2,0,0,1-2.22,2.25c-1.2,0-2-.79-2.51-2.29l.2-.07a3.67,3.67,0,0,0,.78,1.13,1.72,1.72,0,0,0,1.23.5,1.64,1.64,0,0,0,1.62-1.78c0-1-.67-1.54-1.92-1.54a8.41,8.41,0,0,0-3.52.93c0,1.37,0,1.37,0,1.76s0,.39,0,.5a1.47,1.47,0,0,1-.17.76.79.79,0,0,1-.62.48c-.19,0-.19,0-1-.7a5,5,0,0,0-.87-.58.63.63,0,0,1-.43-.55,1.11,1.11,0,0,1,.39-.72,6.31,6.31,0,0,1,2.07-1.34c0-.18,0-.38,0-.62,0-.59,0-.59.07-1.87a6.61,6.61,0,0,1-1,.09,2.17,2.17,0,0,1-1.93-1.06Zm1.43,5.25c-.26.27-.39.48-.39.62s.17.28.52.4a2.56,2.56,0,0,0,.8.21c.16,0,.22-.09.24-.32.06-1.17.09-1.8.09-1.88A5.2,5.2,0,0,0,807.89,36.25Zm5.79-6.56a4.4,4.4,0,0,1,1.91.46,1.49,1.49,0,0,1,.91,1.15.36.36,0,0,1-.39.37l-.19,0-.28,0A9.2,9.2,0,0,0,814,32l-.07-.13a8.39,8.39,0,0,0,1.41-.83,1.87,1.87,0,0,0-.82-.8,3.38,3.38,0,0,0-.89-.34Z"/><path class="cls-3" d="M828.35,34.41h-1.19v.27a.19.19,0,0,1-.15.16,1.88,1.88,0,0,1-.46.06.2.2,0,0,1-.19-.12c0-.4,0-.7,0-1.18V33c0-.26,0-.46,0-.61v-.11c0-.11,0-.26,0-.47l.93.51H830a6.62,6.62,0,0,1,.47-.56,8.58,8.58,0,0,1,.82.56s.06.07.06.1a.14.14,0,0,1-.07.1.85.85,0,0,1-.19.09l-.14.07c0,.56,0,.79,0,.95s0,.4,0,.74v0c0,.07,0,.11-.07.13a3.4,3.4,0,0,1-.65.13c-.07,0-.11,0-.12-.1v-.18h-.91v1.18h.91l.77-.9c.48.39.62.52,1.11,1,0,0,.09.09.09.13a.1.1,0,0,1-.09.09h-2.79v.4c0,1.21,0,1.87,0,2a.45.45,0,0,1-.19.45,3.25,3.25,0,0,1-1.39.47c-.16-.37-.26-.5-.48-.61a3.43,3.43,0,0,0-.89-.22l-.36-.05-.27,0v-.18c.79,0,.79,0,2.48.07.14,0,.2-.06.2-.16V35.89h-5.56a8,8,0,0,1,1.28.62c.73.43.92.64.92,1s-.13.82-.32.82a.29.29,0,0,1-.22-.14,2.19,2.19,0,0,1-.18-.34,8.58,8.58,0,0,0-1-1.32,2.63,2.63,0,0,0-.59-.52l.13-.14h-1.18c-.39,0-.63,0-1.48.08l-.09-.48a13.5,13.5,0,0,0,1.57.1h6.76Zm-4.89-.52c.61,0,.91-.09,2.4-.31l0,.17a38.32,38.32,0,0,1-4.83,1.16c0,.11,0,.17-.05.22s-.08.23-.16.23-.18-.11-.44-1.25l.34,0a17.91,17.91,0,0,0,1.9-.17V32.64h-1c-.63,0-1,.06-1.11.08l-.1-.46a10,10,0,0,0,1.21.09h2.74a7.91,7.91,0,0,1,.56-.77c.44.36.58.48,1,.87a.22.22,0,0,1,.07.1c0,.06-.06.09-.13.09h-2.46Zm-.09-4.14-1.31.05-.07-.48a6.89,6.89,0,0,0,1.38.13H829V28.33h-5.74c-.19,0-.94,0-1.24.06L822,27.9a7.73,7.73,0,0,0,1.3.13h5.6c.22-.26.29-.34.53-.59a9.37,9.37,0,0,1,.85.68s.05.06.05.09-.06.12-.43.32c0,1.42,0,1.9.05,2.93,0,.15,0,.16-.35.23-.13,0-.37.06-.45.06s-.09,0-.11-.1v-.44h-5.81c-.39,0-1.06,0-1.37.06l-.06-.47a8.75,8.75,0,0,0,1.43.11H829V29.75Zm3.79,4.36h2.94V32.64h-2.94Z"/><path class="cls-3" d="M836,31.59a6.59,6.59,0,0,0,1.83-.63c.08-1.06.09-1.27.09-1.65,0-.54-.14-.76-.74-1.17a.41.41,0,0,1,.22-.06,2,2,0,0,1,1,.51.91.91,0,0,1,.44.7.89.89,0,0,1-.1.35,5.25,5.25,0,0,0-.31,1.2c.35.25.43.35.43.51a.58.58,0,0,1-.16.32,8.11,8.11,0,0,0-.47.74s0,.25,0,.58a14.36,14.36,0,0,1,2.67-1.94,3.71,3.71,0,0,1,1.83-.51,2.15,2.15,0,0,1,2,1.47,4.86,4.86,0,0,1,.36,2.13,7,7,0,0,1-.24,1.77c1.13.57,1.52,1,1.52,1.52,0,.34-.15.58-.35.58s-.15,0-.34-.28a5,5,0,0,0-1.14-1,2.23,2.23,0,0,1-.78.94,2.55,2.55,0,0,1-1.5.45c-1,0-1.65-.5-1.65-1.28s.85-1.42,2-1.42a4.72,4.72,0,0,1,1.37.22,7.31,7.31,0,0,0,.19-1.77c0-1.91-.6-2.93-1.71-2.93a3.41,3.41,0,0,0-2.15.94,13.13,13.13,0,0,0-2.15,2c0,1.12,0,1.56.13,2.86,0,.22,0,.44,0,.61a2.4,2.4,0,0,1-.24,1.08.38.38,0,0,1-.34.21.35.35,0,0,1-.3-.19,3,3,0,0,1-.14-.36,5.73,5.73,0,0,0-1.22-1.62l-.28.52c-.08.14-.15.21-.23.21s-.44-.52-.44-.89a.43.43,0,0,1,.14-.29,31.7,31.7,0,0,0,2.47-3.62c0-.35,0-.47,0-.9a10.59,10.59,0,0,0-1.33.77.8.8,0,0,1-.45.19c-.21,0-.47-.23-.7-.62a1.28,1.28,0,0,1-.21-.58.55.55,0,0,1,.05-.21C835.46,31.41,835.71,31.59,836,31.59Zm.23,4.62a7.25,7.25,0,0,0,1.39.92c0-1.87,0-2.55.08-3.69C837.37,34.08,836.88,35,836.25,36.21ZM842.4,36c-.86,0-1.43.35-1.43.87s.4.78,1.1.78a1.83,1.83,0,0,0,1.2-.4,2.26,2.26,0,0,0,.56-.9A3,3,0,0,0,842.4,36Z"/><path class="cls-3" d="M853.19,27.78a2.7,2.7,0,0,1,1.44.69c.21.21.29.34.29.52s-.06.24-.75.8A32.11,32.11,0,0,0,851.78,32c-.46.5-.63.8-.63,1.05a1.08,1.08,0,0,0,.39.67c.18.19.18.19.91.86a11.2,11.2,0,0,1,2.39,2.64,1.71,1.71,0,0,1,.2.86c0,.49-.17.78-.44.78s-.23-.07-.45-.54a11.44,11.44,0,0,0-1.09-1.82,22.86,22.86,0,0,0-1.89-2.35,1.71,1.71,0,0,1-.5-1.09c0-.42.21-.77,1-1.74,1.57-1.91,2-2.45,2-2.76s-.16-.42-.71-.77A.59.59,0,0,1,853.19,27.78Z"/><path class="cls-3" d="M860.14,30.87a1.79,1.79,0,0,0,1.43.71,6,6,0,0,0,1.65-.25,9.24,9.24,0,0,0,.44-2.2c0-.39-.19-.56-.92-.8a.69.69,0,0,1,.4-.12,3.22,3.22,0,0,1,1.12.25c.39.14.58.32.58.51s0,.1-.15.32a10,10,0,0,0-.78,1.85,4.42,4.42,0,0,0,1.5-.79c.21-.2.26-.22.37-.22a2.35,2.35,0,0,1,.69.14c.14.05.2.13.2.23s-.2.39-.75.63a13.37,13.37,0,0,1-2.27.76c-.16.44-.16.44-.55,1.65l-1,2.89c-.52,1.55-.69,1.87-1,1.87s-.22-.08-.3-.26a1.83,1.83,0,0,1-.18-.75c0-.21,0-.25.28-.64A18.26,18.26,0,0,0,863,32a6.72,6.72,0,0,1-1.25.13A1.89,1.89,0,0,1,860,31Zm5.18,4.47c0,.2,0,.35,0,.4a1.6,1.6,0,0,0,1,1.57,3.6,3.6,0,0,0,1.39.25,3.17,3.17,0,0,0,1.24-.19.65.65,0,0,1,.23-.06,1.51,1.51,0,0,1,.66.32.5.5,0,0,1,.23.36c0,.28-.5.43-1.53.43a5.81,5.81,0,0,1-2.4-.42A2,2,0,0,1,865,36.12a2.71,2.71,0,0,1,.12-.82Zm.35-2.4a5.89,5.89,0,0,1,3-.88,1.63,1.63,0,0,1,.82.23.44.44,0,0,1,.2.37c0,.22-.11.28-.49.31a1.7,1.7,0,0,0-1,.26,5.4,5.4,0,0,0-.71.44,4.12,4.12,0,0,1-.46.27l-.08-.11c.16-.16.16-.16.63-.59l.63-.61a6.76,6.76,0,0,0-2.48.48Zm1.85-4.28a6,6,0,0,1,1.75.82.72.72,0,0,1,.38.65c0,.35-.16.65-.33.65s-.19-.08-.29-.25a5.47,5.47,0,0,0-1.59-1.71Zm1.12-.89a5.87,5.87,0,0,1,1.87.69.72.72,0,0,1,.35.67c0,.32-.12.57-.28.57s-.16-.06-.29-.26a5.3,5.3,0,0,0-1.73-1.5Z"/><path class="cls-3" d="M880.51,29a5.92,5.92,0,0,0,1.46.4h.21c.33,0,.51.14.51.4s-.22.39-.72.68a14.06,14.06,0,0,1-1.89.8c.67,1,1.39,2.08,1.78,2.8a1.86,1.86,0,0,1,.28,1c0,.51-.09.69-.35.69s-.22,0-.4-.22a3.28,3.28,0,0,0-.87-.61,5.74,5.74,0,0,0-2.35-.49c-1.49,0-2.43.58-2.43,1.52a1.49,1.49,0,0,0,1,1.31,6.38,6.38,0,0,0,2.94.19l.15,0a1,1,0,0,1,.81.7c0,.33-.22.41-1.13.41a8.27,8.27,0,0,1-2.55-.35A2.35,2.35,0,0,1,875.12,36c0-1.29,1.28-2.07,3.41-2.07a10,10,0,0,1,2.55.33,10.81,10.81,0,0,0-1.56-2.87,9.06,9.06,0,0,1-2.64.42,2.92,2.92,0,0,1-2.39-1.14l.15-.13a3.13,3.13,0,0,0,2.07.72,8.81,8.81,0,0,0,2.41-.41,6.89,6.89,0,0,0-1.81-1.68c-.4-.22-.49-.33-.49-.51s.32-.48.88-.48a4.74,4.74,0,0,1,1.52.27l-.06.2a4.9,4.9,0,0,0-.59-.05c-.27,0-.4.05-.4.14s.13.23.53.69c.14.17.48.58,1,1.24.17-.08.17-.08.82-.33a8.48,8.48,0,0,0,1-.48,9.28,9.28,0,0,0-1.05-.76Z"/><path class="cls-3" d="M891.27,33.12c-.94,2.18-1.22,3-1.22,3.47a1.54,1.54,0,0,0,.08.44,1.33,1.33,0,0,1,0,.21.3.3,0,0,1-.29.32,2.5,2.5,0,0,1-1.43-1.1,6,6,0,0,1-.88-2.6,14.37,14.37,0,0,1-.09-2.28,2.83,2.83,0,0,0-.66-2.23h.11a1.94,1.94,0,0,1,1,.64,1.53,1.53,0,0,1,.58,1,1.85,1.85,0,0,1,0,.34,10.56,10.56,0,0,0-.23,1.93,5.41,5.41,0,0,0,.3,1.88,1.85,1.85,0,0,0,.67,1,5,5,0,0,0,.43-.68l1.09-1.83.38-.63ZM894,30.78A4,4,0,0,1,897,34.66c0,.62-.26,1-.65,1a.66.66,0,0,1-.39-.14,1.71,1.71,0,0,0-1-.16c-.29,0-.54,0-1,0l0-.2c1-.28,1.63-.45,1.75-.49s.3-.14.3-.39a4.74,4.74,0,0,0-.4-1.7,3.59,3.59,0,0,0-1.61-1.7Z"/><path class="cls-4" d="M228.57,96.27c-.23.63-.35,1-.93,2.32H240v4h-3.62a13.67,13.67,0,0,1-2.42,4.61,37.05,37.05,0,0,1,5.62,2.47l-2.7,3.86a37.3,37.3,0,0,0-6.39-3.22c-4.37,2.7-10.72,3.17-12.61,3.32l-1.38-4.44a27.13,27.13,0,0,0,8.44-.85c-3.44-1.09-5.79-1.62-7.06-1.92.74-1,1.67-2.29,2.62-3.83h-4.3v-4h6.52c.45-1,.77-1.72,1.25-2.94Zm-11.74-4.74H226V89.84h4.34v1.69h9.09v6.34h-4.22V95.3H221.1v2.57h-4.27Zm8.79,11.08c-.52.92-.82,1.37-1.12,1.82,2.45.64,3.34.92,5,1.37a10.88,10.88,0,0,0,2.24-3.19Z"/><path class="cls-4" d="M247.1,98c-.22,7.31-1.37,10.42-2.39,12.69l-3.82-3.09c.52-1.1,1.77-3.69,2.12-10Zm1.38-8.23a47.49,47.49,0,0,1,10.63,3L257.24,97a34.67,34.67,0,0,0-10.36-3.32Zm-.43,6.86h4.3v11.82c0,.57.12.65.6.65h1.42a.72.72,0,0,0,.75-.5,26.71,26.71,0,0,0,.32-4l4.15,1.23c-.4,6.63-1.4,7.43-4.12,7.43H250.7c-2.37,0-2.65-1.57-2.65-2.82Zm13.69,0a48.89,48.89,0,0,1,3.44,13l-4.62,1a45.21,45.21,0,0,0-3-12.72Z"/><path class="cls-4" d="M272.73,90.66h4.45v5.21l9.88-.6,1.8,2.4a40.7,40.7,0,0,1-5.84,8l-3.47-2.49a27.16,27.16,0,0,0,3-3.42l-5.36.38v6.26c0,1.57.35,1.57,4.12,1.57a63.91,63.91,0,0,0,6.74-.38l-.28,4.42c-3.57.22-6.21.24-7.31.24-3.6,0-7.72,0-7.72-5.06v-6.75l-5.29.35-.3-4.27,5.59-.32Z"/><path class="cls-4" d="M299.11,91.38l4.29-.87.75,4,6.72-1,.75,4.11-6.7,1,.4,2,7.85-1.25.79,4.17-7.86,1.22,1.35,7.26-4.35.82-1.37-7.41-9,1.4-.75-4.12,9-1.42-.4-2-6.89,1.07L293,96.22l6.79-1Z"/><path class="cls-4" d="M337,107.34v3.79H319.11v-3.79h9.64l1-6.7h-8.62V96.85h13.16l-1.57,10.49Z"/><path class="cls-4" d="M349.44,91.46V105h-4.6V91.46Zm11.63-.37v8.45c0,4.64-.6,10.74-9.41,13.31L349,108.94c6.79-1.7,7.46-5.51,7.46-9.35v-8.5Z"/><path class="cls-4" d="M369.49,109.56c5.5-1.94,6.4-5.16,6.62-7.7h-9V97.64h21.6v4.22h-8.07c-.3,4.36-1.57,8.52-7.86,11.17Zm16.44-18v4.24h-16V91.61Z"/><path class="cls-4" d="M405.48,112.93h-3.89V104a37.54,37.54,0,0,1-5.94,2.41L393.72,103a36.27,36.27,0,0,0,14.81-8.48l3,2.44a39.69,39.69,0,0,1-6,4.82Z"/><path class="cls-4" d="M418.75,98c.8.65,2.07,1.69,3.5,3.06a19.39,19.39,0,0,0,.72-4H416V93h4.07V89.89h4V93H428v4h-1a32.09,32.09,0,0,1-1.77,7.11,29.93,29.93,0,0,1,3.32,4.46l-3.42,2.77a36.18,36.18,0,0,0-2-3.21,27.37,27.37,0,0,1-4.79,5.21l-2.73-3.52a21.8,21.8,0,0,0,4.87-5,31.75,31.75,0,0,0-4.47-4.07Zm11.81,1.42a26.39,26.39,0,0,1,2.85,6.31l-3.8,1.79a26.66,26.66,0,0,0-2.57-6.38Zm7.49-9.5v4.16h1.75v4.19h-1.75v12.54c0,2.72-1.72,2.8-3,2.8h-4.74l-.75-4h3.52c.82,0,.82-.4.82-.8V98.24h-5.34V94.05h5.34V89.89Z"/><path class="cls-4" d="M462.83,113.33a18.88,18.88,0,0,1-8-5.34v5.61h-4v-5.48a20.87,20.87,0,0,1-7.94,5.23l-2.15-3.81a17.13,17.13,0,0,0,4.95-1.77h-3.1v-6.84h8.24v-.77h-9.71V96.85h1.69l-2.12-2.7a12.41,12.41,0,0,0,3.67-4.34l4.12.43c-.17.52-.25.72-.37,1h4.34v2.37a13.08,13.08,0,0,0,2.38-3.79l4,.42a7.46,7.46,0,0,1-.32,1h6.16V94.8h-3.47a11.88,11.88,0,0,1,.68,1.15l-4.12.9h6.91v3.31h-9.86v.77h8.34v4.89a2.07,2.07,0,0,1-2.12,2.37,25.6,25.6,0,0,0,4,1.17ZM445.9,94.83a13,13,0,0,1-2,2h2.72A7.09,7.09,0,0,0,445.9,94.83Zm.7,9.12v3.27a16.72,16.72,0,0,0,3.67-3.27Zm5.22-9.15H449.9c.15.3.35.67.55,1.15l-3.8.9h4.17V95.9h2.27Zm5,0h-.28c-.55.7-1,1.27-1.72,2h2.9A14.43,14.43,0,0,0,456.84,94.8Zm2.27,9.15h-3.67a14.83,14.83,0,0,0,2.7,2.62l-.3-1.25h.77c.48,0,.5-.17.5-.72Z"/><path class="cls-4" d="M476.5,93.58c-.83,6.53-2.7,12.91-6.42,18.33l-4.3-2.35a36.72,36.72,0,0,0,6.1-16.73ZM484.19,111a50.79,50.79,0,0,0-5.62-16.6l3.87-2.07a49.83,49.83,0,0,1,6.44,17.28Zm6.27-18.5a3.38,3.38,0,1,1-3.37-3.36A3.38,3.38,0,0,1,490.46,92.53Zm-5,0a1.63,1.63,0,0,0,1.65,1.65,1.65,1.65,0,1,0-1.65-1.65Z"/><path class="cls-4" d="M497,96.2a37.67,37.67,0,0,1,3.09,5.48l-3.24,1.77a34.73,34.73,0,0,0-3-5.43Zm14.63.4c-.7,5.33-2.52,13.16-12.46,16.3l-2.82-3.11c7.54-2.1,10.51-6.36,11.36-13.94ZM502.1,95a32.44,32.44,0,0,1,2.95,5.57l-3.3,1.69a29.73,29.73,0,0,0-2.9-5.56Z"/><path class="cls-4" d="M521.23,110c6.1-3.37,6.55-7.4,6.75-10.5h-4.37a26.2,26.2,0,0,1-3.62,4.82l-3.7-2.5a29.88,29.88,0,0,0,6.64-11.37l4.22,1.35a34.09,34.09,0,0,1-1.35,3.44h12.59v4.26h-5.84c-.18,3.52-.63,9.58-7.65,13.59Z"/><path class="cls-4" d="M563.57,99.64v4.26H542V99.64Z"/><path class="cls-4" d="M574.53,103.15a57.23,57.23,0,0,0-7.64-3l1.68-3.86a56.45,56.45,0,0,1,7.64,3Zm14.14-3.74c-6.94,10.63-15.48,12.75-18.35,13.47l-1.83-4.49c10.24-1.77,15.48-10,17.26-12.82Zm-12.09-2.09a62.08,62.08,0,0,0-7.41-3l1.67-3.82a70.17,70.17,0,0,1,7.34,2.87Zm7.34-7.86a19.86,19.86,0,0,1,2.35,4.82l-2.1,1a20.82,20.82,0,0,0-2.24-4.86Zm3.92,0a22.14,22.14,0,0,1,2.23,4.87l-2.15,1a19.86,19.86,0,0,0-2.1-4.94Z"/><path class="cls-4" d="M597,101.73a2.6,2.6,0,1,1-2.6-2.59A2.59,2.59,0,0,1,597,101.73Zm8.32,0a2.6,2.6,0,1,1-2.6-2.59A2.6,2.6,0,0,1,605.36,101.73Zm8.31,0a2.6,2.6,0,1,1-2.6-2.59A2.59,2.59,0,0,1,613.67,101.73Z"/><path class="cls-4" d="M622,101.73a2.6,2.6,0,1,1-2.6-2.59A2.6,2.6,0,0,1,622,101.73Zm8.31,0a2.6,2.6,0,1,1-2.59-2.59A2.59,2.59,0,0,1,630.33,101.73Zm8.32,0a2.6,2.6,0,1,1-2.6-2.59A2.59,2.59,0,0,1,638.65,101.73Z"/><path class="cls-4" d="M647.32,91.09h4.12v20.12H646.8V96l-3.5,2.44-.57-4.24Z"/><path class="cls-4" d="M671,95.32h-7.79v2.75a8.46,8.46,0,0,1,2.1-.28c3.77,0,7.09,2.42,7.09,6.73,0,3.35-2.15,7.09-8.27,7.09a14.24,14.24,0,0,1-6.49-1.52l1.1-4.24a10,10,0,0,0,5.34,1.52c.48,0,3.7,0,3.7-2.77A2.57,2.57,0,0,0,664.9,102a2.93,2.93,0,0,0-2.37,1.07h-3.77v-12H671Z"/><path class="cls-4" d="M675.65,108.46c-1.55-2.41-1.65-5.83-1.65-7.33,0-3.54.7-5.81,1.7-7.38a6.92,6.92,0,0,1,11.51,0c1.5,2.34,1.67,5.61,1.67,7.35a13.77,13.77,0,0,1-1.65,7.36,6.69,6.69,0,0,1-5.79,3.12A6.61,6.61,0,0,1,675.65,108.46Zm8.59-7.33c0-3.29-.58-6.2-2.8-6.2s-2.8,2.91-2.8,6.2c0,3.62.7,6.24,2.8,6.24S684.24,104.45,684.24,101.13Z"/><path class="cls-4" d="M695.83,106.57V111c0,2.65-1.7,3.37-4.65,3.42v-2.2c1.6,0,2-.37,2.05-1.19h-2.05v-4.44Z"/><path class="cls-4" d="M699.77,108.46c-1.54-2.41-1.64-5.83-1.64-7.33,0-3.54.69-5.81,1.69-7.38a6.92,6.92,0,0,1,11.51,0c1.5,2.34,1.68,5.61,1.68,7.35a13.77,13.77,0,0,1-1.65,7.36,6.92,6.92,0,0,1-11.59,0Zm8.59-7.33c0-3.29-.57-6.2-2.79-6.2s-2.8,2.91-2.8,6.2c0,3.62.7,6.24,2.8,6.24S708.36,104.45,708.36,101.13Z"/><path class="cls-4" d="M716.26,108.46c-1.55-2.41-1.65-5.83-1.65-7.33,0-3.54.7-5.81,1.7-7.38a6.92,6.92,0,0,1,11.51,0c1.5,2.34,1.67,5.61,1.67,7.35a13.77,13.77,0,0,1-1.65,7.36,6.91,6.91,0,0,1-11.58,0Zm8.59-7.33c0-3.29-.58-6.2-2.8-6.2s-2.8,2.91-2.8,6.2c0,3.62.7,6.24,2.8,6.24S724.85,104.45,724.85,101.13Z"/><path class="cls-4" d="M732.74,108.46c-1.55-2.41-1.65-5.83-1.65-7.33,0-3.54.7-5.81,1.7-7.38a6.92,6.92,0,0,1,11.51,0c1.5,2.34,1.68,5.61,1.68,7.35a13.77,13.77,0,0,1-1.65,7.36,6.92,6.92,0,0,1-11.59,0Zm8.59-7.33c0-3.29-.57-6.2-2.79-6.2s-2.8,2.91-2.8,6.2c0,3.62.7,6.24,2.8,6.24S741.33,104.45,741.33,101.13Z"/><path class="cls-4" d="M768.07,105.68H757v7.52h-3.57V93.82h18.21v16.63c0,1.68-.25,2.75-2.85,2.75h-3.51l-.61-3.63h2.79c.63,0,.63-.31.63-.67ZM757,102.35h3.79V97.24H757Zm7.25,0h3.84V97.24h-3.84Z"/><path class="cls-3" d="M783.06,112.24a8,8,0,0,1-2-5.2,8.2,8.2,0,0,1,2-5.21h.64a8.26,8.26,0,0,0-1.87,5.21,8.34,8.34,0,0,0,1.87,5.2Z"/><path class="cls-3" d="M786.94,104.9h1.3v.52h-1.3a9.9,9.9,0,0,0,1.37,2.25l-.37.46a9.35,9.35,0,0,1-1-1.69v5.61h-.57v-5.22a9.57,9.57,0,0,1-1.68,2.78l-.31-.52a10.35,10.35,0,0,0,2-3.67h-1.91v-.52h1.91V103a12,12,0,0,1-1.64.22l-.23-.53a13.61,13.61,0,0,0,3.37-.62l.3.45a6.79,6.79,0,0,1-1.23.37Zm7.14-.54v3.55H792.3v3.14c0,.36,0,.39.4.39h.85c.33,0,.42,0,.53-1.46l.56.15c-.13,1.3-.18,1.46-.29,1.62s-.47.23-.74.23h-1.07c-.42,0-.83-.07-.83-.73v-3.34h-1.13c-.32,3-2,3.84-2.7,4.14l-.35-.44a4.09,4.09,0,0,0,2.47-3.7h-1.28v-3.55h3.35a12.77,12.77,0,0,0,1.28-2.39l.54.19a12.79,12.79,0,0,1-1.18,2.2Zm-4.15-.23a11.1,11.1,0,0,0-1-1.92l.49-.25a11,11,0,0,1,1,2Zm3.54.73H789.3v2.52h4.17Z"/><path class="cls-3" d="M797.65,106.3v2.88a2.11,2.11,0,0,0,.94,1.62,4.77,4.77,0,0,0,2.07.45h5l-.11.57h-4.86c-2.33,0-2.93-1-3.24-1.55a16.18,16.18,0,0,1-1.65,1.83l-.34-.53a10.71,10.71,0,0,0,1.63-1.71v-3h-1.62v-.56Zm.06-2.2a12,12,0,0,0-2-1.56l.36-.48a12.63,12.63,0,0,1,2,1.54Zm.66,5.64c.71-.54,2.88-2.22,3.53-6.84h-2.45v-.58h3a9.84,9.84,0,0,0,3.16,7.49l-.48.44a10.65,10.65,0,0,1-3-5.74,10.64,10.64,0,0,1-3.31,5.7Z"/><path class="cls-3" d="M812.39,107a.92.92,0,1,1-.92-.91A.92.92,0,0,1,812.39,107Z"/><path class="cls-3" d="M821.38,103.9v.52h-4v-.52Zm-.35-1.59v.52h-3.21v-.52Zm0,3.1V106h-3.21v-.55Zm0,1.59v.54h-3.21V107Zm0,1.54v3.35h-3.21v-3.35Zm-.56.52h-2.1v2.3h2.1Zm5.41-6.75v2.54c0,.24.07.31.3.31h.32c.22,0,.35-.09.42-1.3l.58.19c-.1,1.29-.25,1.69-.83,1.69H826c-.53,0-.67-.22-.67-.69v-2.18H823.2c0,1.58-.18,2.47-1.23,3.33l-.42-.46c1.07-.81,1.07-1.71,1.07-3.24v-.19Zm1.31,9.75a9.7,9.7,0,0,1-2.75-1.46,8.06,8.06,0,0,1-2.59,1.39l-.27-.58A7,7,0,0,0,824,110.2a6.6,6.6,0,0,1-1.54-2.39l.52-.26a5.87,5.87,0,0,0,1.47,2.25,6.83,6.83,0,0,0,1.6-2.58h-4.28v-.57h4.93v.55a8,8,0,0,1-1.78,3,8.48,8.48,0,0,0,2.63,1.25Z"/><path class="cls-3" d="M838,104.35H833.7v.76h4.79v.49H833.7v.71h3.74v4.33h-6.57v-4.33h2.24v-.71h-4.69v-.49h4.69v-.76h-4.24v-2H838Zm.51,7v.49H829V106.5h.62v4.88Zm-6.79-8.52h-2.27v1h2.27Zm5.17,3.92h-5.41v.79h5.41Zm0,1.27h-5.41v.81h5.41Zm0,1.26h-5.41v.88h5.41Zm-2.33-6.45h-2.28v1h2.28Zm2.87,0H835.1v1h2.31Z"/><path class="cls-3" d="M848.16,110.36h-7.37v-3.18a8.57,8.57,0,0,1-1.13.44l-.26-.51a5.21,5.21,0,0,0,2.82-1.68h-2.33c.07-.26.26-1.32.31-1.64h2.62a3.77,3.77,0,0,0,0-.68h-3.2v-.47h3.2V102h.58v.64h1.92V102h.57v.64h2.7v1.59h-2.7V105h3.46c-.09,2.2-.6,2.2-1.24,2.2Zm-8.67,1.08a10.93,10.93,0,0,0,3.25-.89l.43.43a12.26,12.26,0,0,1-3.39,1Zm3-6.46a4,4,0,0,0,.26-.75h-2a5.65,5.65,0,0,1-.13.75Zm-.81,1.72a2.19,2.19,0,0,1-.29.17v.61h6.21v-.78Zm5.92,1.2h-6.21v.78h6.21Zm0,1.2h-6.21v.79h6.21Zm-2.21-2.81v-.86h-2.48a2.77,2.77,0,0,1-.69.86Zm0-2.06h-2a4.69,4.69,0,0,1-.23.75h2.27Zm-1.92-1.12a3.82,3.82,0,0,1,0,.68h2v-.68Zm2.68,7.44a10.42,10.42,0,0,0,3.33.86l-.36.61a11.23,11.23,0,0,1-3.39-1Zm-.19-6.76h2.12v-.68h-2.12Zm2.22,2.83c.31,0,.52,0,.59-1.19h-2.81v.86h2.22Z"/><path class="cls-3" d="M852.6,106.3v2.88a2.14,2.14,0,0,0,.94,1.62,4.77,4.77,0,0,0,2.07.45h5l-.11.57H855.6c-2.33,0-2.93-1-3.24-1.55a15.27,15.27,0,0,1-1.65,1.83l-.34-.53a10.24,10.24,0,0,0,1.63-1.71v-3h-1.62v-.56Zm.06-2.2a12.3,12.3,0,0,0-2-1.56l.35-.48a12.63,12.63,0,0,1,2.05,1.54Zm.66,5.64c.71-.54,2.88-2.22,3.53-6.84H854.4v-.58h3a9.84,9.84,0,0,0,3.16,7.49l-.48.44a10.65,10.65,0,0,1-3-5.74,10.62,10.62,0,0,1-3.3,5.7Z"/><path class="cls-3" d="M866.41,111.38a8.51,8.51,0,0,0,2.38-3.09,8.34,8.34,0,0,0-2.78-1.36,22.19,22.19,0,0,1-1.32,2.38c-.64,1-1.06,1.39-1.6,1.39-.72,0-1.23-.7-1.23-1.61a3,3,0,0,1,3.17-2.88,3.71,3.71,0,0,1,.64.06c.51-1.15.73-1.64,1.17-2.8a24.58,24.58,0,0,1-3.46.18V103l1,0a14.7,14.7,0,0,0,2.82-.21l.4.36c-.58,1.4-.66,1.58-1.38,3.22a8.69,8.69,0,0,1,2.78,1.32,9.54,9.54,0,0,0,.59-2.55l.65.18a10.92,10.92,0,0,1-.71,2.74c.29.22.9.68,1.56,1.29l-.36.59a14.07,14.07,0,0,0-1.47-1.29,9,9,0,0,1-2.36,3.12Zm-1.47-4.57a2.39,2.39,0,0,0-2.51,2.27c0,.6.3,1,.65,1,.67,0,1.61-1.86,2.31-3.26Z"/><path class="cls-3" d="M872.22,112.24a8.25,8.25,0,0,0,0-10.41h.63a7.83,7.83,0,0,1,0,10.41Z"/><rect class="cls-5" x="36" y="86" width="156" height="62" rx="8"/><rect class="cls-6" x="36" y="86" width="156" height="62" rx="8"/><path class="cls-7" d="M74.82,104.13h-2.2a13.72,13.72,0,0,1-1.88,4.77,26.27,26.27,0,0,1,3.9,2.21l-1.72,2.12a26.78,26.78,0,0,0-4-2.46c-1.67,1.27-3.93,2-7,2.42a7.6,7.6,0,0,0-1.17-2.26,15.3,15.3,0,0,0,5.63-1.4c-.64-.29-1.26-.55-1.88-.8l-.2.45L62,108.36c.58-1.16,1.23-2.65,1.88-4.23H60.61v-2.29h4.18c.45-1.16.87-2.32,1.22-3.39l2.87.49c0,.19-.19.28-.53.28-.29.82-.63,1.71-1,2.62h7.44Zm-9.41,2.56c.93.32,2,.72,3,1.16A9.35,9.35,0,0,0,70,104.13H66.46Z"/><path class="cls-7" d="M87.14,110.56h3.39v2.15H81.18v-2.15H84.9v-2.48H82.25V106H84.9v-2.29H83.58a10.83,10.83,0,0,1-.68,1.86,12.51,12.51,0,0,0-1.83-1.06,4.43,4.43,0,0,0,.4-1.07l-.66.45a8.23,8.23,0,0,0-.67-1.13v10.38h-2.2v-9.11h0a8.05,8.05,0,0,1-.59,2.12l-1.67-.89a9.57,9.57,0,0,0,.68-3.67l1.59.21V98.45l2.65.14c0,.17-.14.28-.45.32v2.34l.73-.45c.29.37.63.82.94,1.24.16-.91.28-1.93.35-2.89l2.5.49c0,.14-.17.23-.4.23-.06.58-.14,1.16-.23,1.75h.87V98.45l2.7.14c0,.18-.13.28-.46.34v2.69h3v2.11h-3V106h2.43v2.06H87.14Z"/><path class="cls-7" d="M100.45,102.91a17.26,17.26,0,0,1-2.51.48c0,.6,0,1.17,0,1.72a10.88,10.88,0,0,1,2.71-.42c2.49,0,4.58,1.22,4.58,3.87,0,2.34-1.27,4-4,4a3.69,3.69,0,0,1-2.82-1.31,15.82,15.82,0,0,0,1.14-1.81,2.3,2.3,0,0,0,1.71.94,1.6,1.6,0,0,0,1.64-1.81c0-1.12-.82-1.86-2.26-1.86a10.17,10.17,0,0,0-2.65.42V110a2.72,2.72,0,0,1-3,2.78,2.75,2.75,0,0,1-3-2.76c0-1.29,1-2.88,3.77-4.1v-2.36c-1,.05-2.07.07-3.28.07l0-2.25c1.23,0,2.33,0,3.32,0v-2.5l2.87.06a.42.42,0,0,1-.4.37c0,.6-.08,1.22-.11,1.86a12.75,12.75,0,0,0,2.17-.54Zm-4.79,5.15C95,108.51,94,109.13,94,110a.73.73,0,0,0,.79.82.78.78,0,0,0,.87-.89C95.68,109.55,95.68,108.81,95.66,108.06Zm8.69-3.82a11.61,11.61,0,0,0-3.47-2l1.15-1.94a11.1,11.1,0,0,1,3.62,1.91Z"/><path class="cls-7" d="M107.08,100.49a20.2,20.2,0,0,0,4.31-.54,2.29,2.29,0,0,0,.93-.51l1.75,1.61a9.39,9.39,0,0,0-3.58,6.67,2.43,2.43,0,0,0,2.68,2.6c3,0,3-2.12,3-3.2a12.25,12.25,0,0,0-.79-5.06l2.13-1.1a7.93,7.93,0,0,0,3.89,3.62l-.9,2.37a4.77,4.77,0,0,1-2.41-2.09h0a14.57,14.57,0,0,1,.31,3.06c0,2.7-1.56,4.68-5.19,4.68-3.45,0-5-2.07-5-4.83a9.44,9.44,0,0,1,2.09-5.54,12.06,12.06,0,0,1-2.62.48.31.31,0,0,1-.31.23Z"/><path class="cls-7" d="M134.79,105a.36.36,0,0,1-.15,0,.84.84,0,0,1-.39-.11c-4.69,1.22-7.84,2.71-7.8,4.18,0,1,1,1.44,3,1.44a35.29,35.29,0,0,0,5.47-.45l.22,2.38a52.74,52.74,0,0,1-5.73.31c-2.48,0-5.42-.51-5.42-3.59,0-1.61,1.36-2.94,3.59-4.16-.6-1.21-.76-2.9-.73-6.17l3.26.27c0,.23-.17.35-.53.4,0,.5,0,1,0,1.41a11.15,11.15,0,0,0,.28,3c1.24-.54,2.65-1.07,4.17-1.59Z"/><path class="cls-7" d="M140.73,107.71a17.18,17.18,0,0,1-.4-3.58,29.89,29.89,0,0,1,.41-4.5l2.84.35a.46.46,0,0,1-.37.28,18.78,18.78,0,0,0-.58,3.92h0a13.1,13.1,0,0,1,1.13-2,13.54,13.54,0,0,0,1,1.5,15,15,0,0,0-1.69,2.83,1.68,1.68,0,0,0-.06.4c0,.13,0,.24,0,.39Zm9.2-8.49c0,.17-.14.3-.38.37a50.79,50.79,0,0,1,.27,5.21c0,3-.92,5.85-6,7.94a13.47,13.47,0,0,0-1.71-1.87c4.26-1.66,5-4.14,5-6a46.61,46.61,0,0,0-.39-5.73Z"/><path class="cls-7" d="M157.2,103.65v.51c.41.57,1.51,2.28,1.76,2.66l-1.13,1.6c-.15-.4-.39-.93-.63-1.49v6.23h-2v-5.07a10.86,10.86,0,0,1-1.15,2.39,10.83,10.83,0,0,0-1-2,14.23,14.23,0,0,0,1.95-4.83h-1.56v-2.07h1.72V98.45l2.48.14c0,.15-.14.25-.45.31v2.68h1.42v2.07Zm7.16,3.21c.14.35.3.69.47,1a11.94,11.94,0,0,0,1.3-1.43l1.86,1.43a.4.4,0,0,1-.31.11.62.62,0,0,1-.19,0,15.31,15.31,0,0,1-1.7,1.29,6.19,6.19,0,0,0,2.34,1.67,8.76,8.76,0,0,0-1.41,1.82,6.92,6.92,0,0,1-2.36-2.27V111c0,1.66-.51,2.17-3,2.17a7,7,0,0,0-.47-1.74c-.56.38-1.08.7-1.5,1a.36.36,0,0,1-.19.35l-1.07-2.07c.87-.36,2.2-1,3.5-1.66l.5,1.6c-.29.21-.6.42-.91.62H162c.19,0,.25-.07.25-.25v-4.62h-3.42v-1.82h3.42v-.41h-2.63v-1.72h2.63V102h-3V100.2h1.2a6.41,6.41,0,0,0-.55-1.15l1.77-.59a7.59,7.59,0,0,1,.85,1.68l-.17.06h1.84l-.09,0a12.48,12.48,0,0,0,.73-1.75l2.38.73q-.09.18-.45.18c-.14.25-.34.57-.54.87h1.33V102h-3.16v.42h2.81v1.72h-2.81v.41h3.49v1.82h-3.49Zm-4-.36a11.07,11.07,0,0,1,1.52,1.83l-1.61,1.11a10.73,10.73,0,0,0-1.43-1.93Z"/><path class="cls-7" d="M96.05,122.93c0,.17-.15.29-.45.33a35,35,0,0,0-.82,7.41,7,7,0,0,0,0,1.09c.14-.31.73-1.49.91-2l1,1.79a15.64,15.64,0,0,0-1.27,2.46,2.54,2.54,0,0,0-.12.74,2.62,2.62,0,0,0,.07.57l-2.35.34a18.9,18.9,0,0,1-.73-5.63,56.67,56.67,0,0,1,.68-7.53Zm9,11.69c-.58,0-1.18,0-1.77,0-2,0-5.69,0-5.69-3a5,5,0,0,1,1.26-3.12l2.28.72a2.87,2.87,0,0,0-1.07,2.05c0,.83.71,1,2.77,1a18.58,18.58,0,0,0,2.3-.14Zm-7-10.28a56.82,56.82,0,0,0,6.47-.57l.21,2.32a58.65,58.65,0,0,1-6.6.51Z"/><path class="cls-7" d="M108.2,135.49a25.72,25.72,0,0,1-.61-6.13,39.08,39.08,0,0,1,.76-6.91l2.87.53c0,.17-.25.29-.44.32a24.54,24.54,0,0,0-1,7.79,5.27,5.27,0,0,0,0,.62c.17-.43.59-1.61.8-2.12l1.16,1.58a27,27,0,0,0-1.2,2.69,2.52,2.52,0,0,0-.17.93,4.38,4.38,0,0,0,0,.59Zm4.21-9.77h.65c.57,0,1.83,0,2.52,0-.06-1.15-.1-2.16-.12-3.3l2.9.09a.42.42,0,0,1-.39.34v2.68a24.07,24.07,0,0,0,2.52-.49l.17,2.29a16.4,16.4,0,0,1-2.63.37c0,1.24.11,2.46.19,3.48a11,11,0,0,1,2.75,1.69l-1.21,2.23a6.92,6.92,0,0,0-1.47-1.33c-.37,1.89-2.07,2.06-3.11,2.06-2,0-3.08-1.13-3.08-2.6,0-1.66,1.47-2.64,3.11-2.64.22,0,.44,0,.67,0-.06-.74-.11-1.8-.17-2.74l-1.21,0h-2.06Zm3.67,6.87a2.66,2.66,0,0,0-.85-.15c-.67,0-1.19.21-1.19.72s.51.69,1.13.69a.86.86,0,0,0,.92-.89C116.09,132.87,116.09,132.73,116.08,132.59Z"/><path class="cls-7" d="M125.84,129a1.39,1.39,0,1,1-1.39-1.4A1.39,1.39,0,0,1,125.84,129Zm5.16,0a1.4,1.4,0,1,1-1.4-1.4A1.39,1.39,0,0,1,131,129Zm5.15,0a1.39,1.39,0,1,1-1.39-1.4A1.39,1.39,0,0,1,136.15,129Z"/><rect class="cls-5" x="36" y="187" width="156" height="62" rx="8"/><rect class="cls-6" x="36" y="187" width="156" height="62" rx="8"/><path class="cls-7" d="M82.78,204.93H76.93v5.6c0,.84.12,1.1.77,1.1h2.71a9.31,9.31,0,0,0,1.69-.15c0,.57.14,1.58.23,2.12a8,8,0,0,1-2,.17H77.79c-2.41,0-3.14-.85-3.14-3.33v-5.51H73.58v-.36l-.51.34a8.23,8.23,0,0,0-.67-1.13v10.38H70.21v-9.11h0a7.69,7.69,0,0,1-.59,2.12l-1.67-.89a9.57,9.57,0,0,0,.68-3.67l1.6.21v-3.37l2.64.14c0,.17-.14.28-.45.32v2.34l.73-.45.76,1H77v-3.33l2.74.14c0,.18-.15.28-.48.34v2.85h3.49Z"/><path class="cls-7" d="M89.89,200.24c0,.18-.17.32-.46.37-.14,2.18-.3,5.57-.3,7.83,0,1.83,1,2.67,2.45,2.67s3-.72,4.74-2.36a16.81,16.81,0,0,0,1.33,2.14,8.64,8.64,0,0,1-6.09,2.66c-3.71,0-5-2-5-5.09,0-2.14.1-6.49.21-8.33Z"/><path class="cls-7" d="M103.11,201.66a.44.44,0,0,1-.39.28,23.73,23.73,0,0,0-.45,4.41c0,2.82.76,4.09,1.55,4.09.48,0,1.05-1.53,1.29-2.62a11.26,11.26,0,0,0,1.92,1.52c-.72,2.62-1.8,3.67-3.29,3.67-2.63,0-3.73-3.28-3.85-5.6,0-.55,0-1.13,0-1.75a34,34,0,0,1,.3-4.54Zm7.89,7.6a7.24,7.24,0,0,0-3.54-5.45l1.5-1.74a8.67,8.67,0,0,1,4.52,6.37Z"/><path class="cls-7" d="M121.32,210.72a.42.42,0,0,1-.49.17,24.13,24.13,0,0,1-4.38,3.31,18.08,18.08,0,0,0-2-1.68,13.49,13.49,0,0,0,4.07-3Zm7.67-3.59v2.2H114.78v-2.2H118v-2.9h-2.63v-2.18H118v-2.51l2.82.16c0,.17-.14.28-.46.34v2h3.08v-2.51l2.85.16c0,.17-.16.28-.48.34v2h2.82v2.18h-2.82v2.9Zm-8.67-2.9v2.9h3.08v-2.9Zm6.52,9.91a40.12,40.12,0,0,0-4-3.39l2.16-1.19a44.87,44.87,0,0,1,4.15,3.22Z"/><path class="cls-7" d="M143.57,203l1,0c0,.15,0,.42,0,.65-.1,6.56-.19,8.9-.61,9.57s-.86.93-2.57.88a5.43,5.43,0,0,0-.37-1.64,7.83,7.83,0,0,1-1.14,1.78,8,8,0,0,0-1.15-.93c-1.56.2-3.1.39-4.16.5a.38.38,0,0,1-.28.24l-.67-2,2.23-.14v-.7H134v-1.63h1.84V209H134v-4.67h1.85v-.47h-2v-1.62h2v-.38c-.55,0-1.07.08-1.58.1a7.12,7.12,0,0,0-.3-1c-.26.79-.54,1.58-.85,2.35l.6.19c0,.14-.18.26-.44.29V214.2h-2V207c-.23.38-.48.73-.73,1.07a21.21,21.21,0,0,0-.84-2.43,19.58,19.58,0,0,0,2.51-6.16l2.36.76a.32.32,0,0,1-.22.17h0a37,37,0,0,0,4.3-.63l1.21,1.59c-.06.05-.09.05-.37.05-.51.09-1.12.19-1.78.26v.55h2.07V203h.55V199.5l2.3.12c0,.15-.14.25-.42.29v3Zm-8.16,2.68v.45H136v-.45Zm0,1.62v.45H136v-.45Zm2.1-1.17h.67v-.45h-.67Zm0,1.62h.67v-.45h-.67Zm2.14,1.87v1a19,19,0,0,0,.7-5.73h-.61v-1h-2v.47h1.9V209h-1.92v.57Zm-1.94,1.63v.56l1.52-.13a3.36,3.36,0,0,0,.2-.43Zm4.52-6.33a19.42,19.42,0,0,1-1.11,7.31l.73,0a.45.45,0,0,0,.43-.3c.23-.4.33-2.12.4-7Z"/><path class="cls-7" d="M159.1,205.89a18.85,18.85,0,0,1-4.11.77,5.45,5.45,0,0,0,2.15,1.69l-1.3,1.83a3.57,3.57,0,0,0-2.28-.67,5.74,5.74,0,0,0-.93.08l-.59-1.7c.22,0,.5,0,.76,0h.47a5.86,5.86,0,0,1-.67-1c-1.15.06-2.35.09-3.36.09-.68,0-1.7,0-2.66,0l0-1.95c.79,0,1.76,0,2.58,0s1.94,0,2.82-.06c-.09-.33-.26-.84-.36-1.24-.46,0-1.13,0-1.7,0-.87,0-1.59,0-2.35,0v-2c.76,0,1.51.06,2.23.06.42,0,1,0,1.44,0-.11-.6-.21-1.42-.29-2.09l2.89.06c0,.19-.17.33-.43.39,0,.4.08,1,.14,1.47a18.46,18.46,0,0,0,3.79-.71l.42,2a23,23,0,0,1-3.81.65c.1.39.2.9.3,1.24a19.28,19.28,0,0,0,4.49-1Zm-2.75,7.68a24.09,24.09,0,0,1-2.51.11l-1.24,0c-2.74,0-4.58-1-4.58-2.82a3.22,3.22,0,0,1,1.61-2.49l1.58,1.43a1.29,1.29,0,0,0-.79.94c0,.67.85.9,2.51.9a30,30,0,0,0,3.54-.19Z"/><path class="cls-7" d="M67.41,224.1a19.5,19.5,0,0,1,3.15-.25A6.53,6.53,0,0,1,74.84,225a5.65,5.65,0,0,1,1.83,4.66,6.28,6.28,0,0,1-1.87,5A7.27,7.27,0,0,1,70,236a20.84,20.84,0,0,1-2.62-.17Zm2.71,9.71a4.43,4.43,0,0,0,.65,0c1.78,0,3-1.18,3-4.13,0-2.5-1.14-3.74-2.86-3.74a3.93,3.93,0,0,0-.84.08Z"/><path class="cls-7" d="M78.29,223.93H81v12H78.29Z"/><path class="cls-7" d="M92.05,235.9H89.34l-2.09-4.35c-.55-1.15-1.23-2.71-1.67-4h-.06c.08,1.39.14,3.22.14,5.36v2.94H83.21v-12h2.91l2,4.29c.54,1.07,1.19,2.6,1.64,3.81h0c-.14-1.4-.23-3.27-.23-5.25v-2.85h2.44Z"/><path class="cls-7" d="M103.1,235.9H100L97.75,231,97,232.07v3.83H94.25v-12H97v5.26h0c.22-.48.45-.94.68-1.42l2.09-3.84H103l-3.36,5.16Z"/><path class="cls-7" d="M110.17,226.55a4.56,4.56,0,0,0-2.1-.5c-1,0-1.57.51-1.57,1.1s.5,1,2,1.66c1.9.85,2.69,2,2.69,3.51,0,2.19-1.66,3.73-4.55,3.73a6.93,6.93,0,0,1-3-.62l.47-2.29a6,6,0,0,0,2.6.62c1.14,0,1.7-.49,1.7-1.21s-.54-1.13-1.78-1.68c-1.89-.87-2.87-2.05-2.87-3.47,0-2,1.55-3.62,4.32-3.62a6.07,6.07,0,0,1,2.61.52Z"/><path class="cls-7" d="M120.65,223.93c0,.17-.15.29-.45.33a35,35,0,0,0-.82,7.41,7,7,0,0,0,.05,1.09c.14-.31.73-1.49.91-2l1,1.79a15.64,15.64,0,0,0-1.27,2.46,2.54,2.54,0,0,0-.12.74,2.62,2.62,0,0,0,.07.57l-2.35.34a18.9,18.9,0,0,1-.73-5.63,56.67,56.67,0,0,1,.68-7.53Zm9,11.69c-.58,0-1.18,0-1.77,0-2,0-5.7,0-5.7-3a4.94,4.94,0,0,1,1.27-3.12l2.28.72a2.87,2.87,0,0,0-1.07,2.05c0,.83.71,1,2.77,1a18.29,18.29,0,0,0,2.29-.14Zm-7.05-10.28a56.82,56.82,0,0,0,6.47-.57l.21,2.32a58.65,58.65,0,0,1-6.6.51Z"/><path class="cls-7" d="M132.8,236.49a25.72,25.72,0,0,1-.61-6.13,38.17,38.17,0,0,1,.76-6.91l2.87.53c0,.17-.25.29-.44.32a24.54,24.54,0,0,0-1,7.79,5.27,5.27,0,0,0,0,.62c.17-.43.59-1.61.8-2.12l1.16,1.58a27,27,0,0,0-1.2,2.69,2.52,2.52,0,0,0-.17.93,4.38,4.38,0,0,0,0,.59Zm4.21-9.77h.65c.57,0,1.83,0,2.52,0-.06-1.15-.11-2.16-.12-3.3l2.89.09a.4.4,0,0,1-.38.34v2.68a24.07,24.07,0,0,0,2.52-.49l.17,2.29a16.4,16.4,0,0,1-2.63.37c.05,1.24.11,2.46.18,3.48a10.85,10.85,0,0,1,2.76,1.69l-1.21,2.23a7.44,7.44,0,0,0-1.47-1.33c-.37,1.89-2.07,2.06-3.11,2.06-1.95,0-3.08-1.13-3.08-2.6,0-1.66,1.47-2.64,3.11-2.64.22,0,.43,0,.67,0-.06-.74-.11-1.8-.17-2.74l-1.21,0H137Zm3.67,6.87a2.66,2.66,0,0,0-.85-.15c-.67,0-1.2.21-1.2.72s.52.69,1.13.69a.87.87,0,0,0,.93-.89C140.69,233.87,140.69,233.73,140.68,233.59Z"/><path class="cls-7" d="M150.44,230a1.4,1.4,0,1,1-1.39-1.4A1.39,1.39,0,0,1,150.44,230Zm5.16,0a1.4,1.4,0,1,1-1.4-1.4A1.39,1.39,0,0,1,155.6,230Zm5.15,0a1.39,1.39,0,1,1-1.39-1.4A1.39,1.39,0,0,1,160.75,230Z"/><path class="cls-7" d="M225.33,138.59v6.66h-3V127.09h7.25v1.71h3.11v-2.12h3.21v2.12h4.48v3.09h-6.18v1.66h5.63c-.08,4.43-.13,8.56-.9,10.29a2.57,2.57,0,0,1-2.75,1.41h-2.51l-.72-3.2h2.21c.7,0,.92-.16,1-.49a21,21,0,0,0,.45-5.14h-2.54a12.07,12.07,0,0,1-4.46,9.06L227.3,143a8.64,8.64,0,0,0,3.76-7.74v-3.32h-1.51v-1.66a30.14,30.14,0,0,1-1.33,3.83,7.1,7.1,0,0,1,1.57,4.47c0,3.05-2.17,3.05-3,3.05H226Zm0-8.38v4a29,29,0,0,0,1.23-4Zm0,8.28c.8,0,1.19,0,1.19-1.05a4.22,4.22,0,0,0-1.19-3Z"/><path class="cls-7" d="M241,137.5a12.91,12.91,0,0,0,4.58-3.3,8,8,0,0,0-.34-1,11.12,11.12,0,0,1-2.77,1.74L241,131.79a10.15,10.15,0,0,0,2.7-1.48,13.24,13.24,0,0,0-1.78-2.07l2.42-1.74a14.52,14.52,0,0,1,1.59,1.68,7.63,7.63,0,0,0,1-1.68l2.78,1.06a12.38,12.38,0,0,1-2.13,3.33,21.35,21.35,0,0,1,1.41,7.8c0,6.4-2.17,6.54-3.44,6.54h-3L242,142h2.8c.54,0,1.36,0,1.29-4.3a16.06,16.06,0,0,1-3.74,3Zm18.46-10.18v9a1.72,1.72,0,0,1-1.74,1.94h-3.34l-.53-3.05h1.82c.33,0,.57,0,.57-.49v-4.35h-3.05v10.78c0,.39.09.6.54.6h2.43c.72,0,.8-1,.84-2.79l3.25.72c-.26,3.52-.28,3.67-.67,4.36a2.1,2.1,0,0,1-1.8.94h-6a1.75,1.75,0,0,1-1.8-1.72v-16Z"/><path class="cls-7" d="M271.44,127.32c0,2.38-.06,3.32-.06,3.36h6.53c-.06,1.5-.33,8.5-1.25,11a3.81,3.81,0,0,1-4.07,2.41c-.72,0-1.35,0-1.78-.08l-.66-3.46a20.51,20.51,0,0,0,2.21.18c1,0,1.25-.41,1.54-2.15a36.24,36.24,0,0,0,.45-4.59h-3.28a13.5,13.5,0,0,1-6.57,10.45l-2.57-2.5c4.52-2.74,5.24-5.78,5.66-7.95h-5.34v-3.34h5.67c.06-1.41.08-2,.08-3.36Z"/><path class="cls-7" d="M294.76,141.68a35.08,35.08,0,0,0-3.25-3.38,23.69,23.69,0,0,1-7.57,6.31l-2.56-2.82a20.05,20.05,0,0,0,7.37-5.74,36.38,36.38,0,0,0-4.59-2.91l1.93-2.79a40,40,0,0,1,4.62,2.73,24.47,24.47,0,0,0,2.17-5.76l3.46,1a27.39,27.39,0,0,1-2.78,6.87,34.67,34.67,0,0,1,3.72,3.54Z"/><path class="cls-7" d="M317.57,132.48c-1,8.26-6.4,11.05-11.13,12.26l-1.92-3c6.69-1.36,8.12-4.72,8.67-6H301.26v-3.22ZM315.65,128v3.25H303.09V128Z"/><path class="cls-7" d="M334.12,128.8h2.66v5.36h5.38v2.67h-5.38v5.35h-2.66v-5.35h-5.38v-2.67h5.38Z"/><path class="cls-7" d="M356.66,127.61v15.76H353V127.61Z"/><path class="cls-7" d="M364.25,131.32a6.2,6.2,0,1,1-5.81,6.18A5.83,5.83,0,0,1,364.25,131.32Zm0,9.28c.84,0,2.46-.49,2.46-3.1,0-1.78-.84-3.11-2.46-3.11-.8,0-2.46.45-2.46,3.11S363.51,140.6,364.25,140.6Z"/><path class="cls-7" d="M379.1,143.37h-3.62V130.93H370.8v-3.32h13v3.32H379.1Z"/><path class="cls-7" d="M404.72,144.31a32.22,32.22,0,0,0-4.83-5.35,22.45,22.45,0,0,1-7.74,5.61l-2.17-3c5.14-2.11,8.64-5.47,10.42-9.75h-8.9v-3.38h13.79a24.44,24.44,0,0,1-3.28,7.76,37.09,37.09,0,0,1,5.47,5.6Z"/><path class="cls-7" d="M420,144.31a50.52,50.52,0,0,0-7.32-7.15L415,134.7c1.21.88,1.46,1.1,2.95,2.33,1.86-2.27,2.07-2.52,3.46-4.4H410v-3.38h15.57l1.25,1.74a100,100,0,0,1-6.38,8.38s.92.92,2.27,2.52Z"/><path class="cls-7" d="M446.22,134.31v3.34H429.36v-3.34Z"/><path class="cls-7" d="M462.89,140a40,40,0,0,0-6.26-4v8.68h-3.54V127.3h3.54v4.88a47.91,47.91,0,0,1,8.21,4.77Z"/><path class="cls-7" d="M469.42,128.84h15v14.34h-15Zm11.52,11V132.2h-8.07v7.68Z"/><path class="cls-7" d="M491.9,131.62a29.1,29.1,0,0,1,2.43,4.29l-2.55,1.39a27.54,27.54,0,0,0-2.36-4.26Zm11.46.31c-.54,4.18-2,10.31-9.76,12.77l-2.21-2.44c5.91-1.64,8.24-5,8.9-10.92Zm-7.47-1.23a24.7,24.7,0,0,1,2.31,4.35l-2.58,1.33a24,24,0,0,0-2.27-4.35Z"/><path class="cls-7" d="M510,142c3.17-1.1,8.43-4,9.7-10.39h-5a20.24,20.24,0,0,1-4.52,5l-2.62-2.25a18,18,0,0,0,5-6H524c-.76,7.69-4.24,13.61-11.6,16.5Z"/><path class="cls-7" d="M540.79,128.8h2.66v5.36h5.38v2.67h-5.38v5.35h-2.66v-5.35h-5.38v-2.67h5.38Z"/><path class="cls-7" d="M565.23,135.27c-1,.14-2.1.21-3.64.33l-.67-2.4h-1.44V128h7V126.7h3.32V128H577v5.22H574.3l.37.55c-1.78.47-4.75.91-6.18,1.13v1.37l8.78-.92.2,3-9,.93v2.27c0,.57.22.57.53.57h4c.26,0,.43-.2.53-.57a15.12,15.12,0,0,0,.16-2.15l3.26.72c-.13,3.19-.21,5-2.27,5h-7.78a1.61,1.61,0,0,1-1.64-1.76v-3.67l-6.09.64-.23-3,6.32-.66Zm8.52-2.91V130.8H562.66v1.83a55.2,55.2,0,0,0,10.19-1.58Z"/><path class="cls-7" d="M588.33,127.16V130h-3v1.15h2.72v13.65h-9.31V131.13h2.79V130h-3.22v-2.82Zm-4.5,6.39h-.72v1c0,2.24-.32,3.08-.9,3.73l-1.06-1.82v2.4h4.64V138h-1.16c-.51,0-.8-.35-.8-1Zm-2,0h-.73v2.81a2.28,2.28,0,0,0,.73-2Zm3.91,7.64h-4.64v1h4.64Zm-2-11.21h-.72v1.15h.72Zm2,3.57H585v1.9c0,.25,0,.39.28.39h.51Zm10.74,2.89H592v5c0,.18,0,.49.43.49h1.19c.45,0,.49-.35.53-.66.06-.51.06-1.55.06-2.21l3.13.8c-.22,3.89-.53,5.16-2.41,5.16h-4.46a1.39,1.39,0,0,1-1.54-1.55v-10h4.52v-3.22h-4.54v-3.11h7.67Z"/><path class="cls-7" d="M598.17,140.86a21.45,21.45,0,0,0,4-6.23l3,1.46a24.85,24.85,0,0,1-4.07,6.74Zm17.39-10.14v3.22h-6.38v7.56c0,3-2.09,3-4.91,3l-.8-3.36,1.67,0c.43,0,.58-.14.58-.67v-6.54H599v-3.22h6.77v-3.28h3.46v3.28Zm-2.37,12a39.86,39.86,0,0,0-3.5-6.35l2.84-1.73a41.06,41.06,0,0,1,3.68,6.25Zm-1.58-16.58a16,16,0,0,1,2.33,3.2l-1.53,1a13.89,13.89,0,0,0-2.23-3.24Zm3.4,0a16.72,16.72,0,0,1,2.17,3.36l-1.58.92a15,15,0,0,0-2.05-3.36Z"/><path class="cls-7" d="M622.31,131.62a28.22,28.22,0,0,1,2.43,4.29l-2.54,1.39a27.61,27.61,0,0,0-2.37-4.26Zm11.46.31c-.54,4.18-2,10.31-9.76,12.77l-2.21-2.44c5.91-1.64,8.24-5,8.9-10.92Zm-7.47-1.23a24.7,24.7,0,0,1,2.31,4.35L626,136.38a23.4,23.4,0,0,0-2.27-4.35Z"/><path class="cls-7" d="M640.45,142c3.17-1.1,8.43-4,9.7-10.39h-5a20.24,20.24,0,0,1-4.52,5L638,134.39a18,18,0,0,0,5-6h11.36c-.76,7.69-4.24,13.61-11.59,16.5Z"/><path class="cls-7" d="M672.08,144.31a33.21,33.21,0,0,0-4.83-5.35,22.41,22.41,0,0,1-7.75,5.61l-2.17-3c5.15-2.11,8.65-5.47,10.43-9.75h-8.9v-3.38h13.79a24.42,24.42,0,0,1-3.29,7.76,36.8,36.8,0,0,1,5.48,5.6Z"/><path class="cls-4" d="M239.71,203a25.84,25.84,0,0,1-4.2,3.42,17.7,17.7,0,0,0,4.55,5.08l-3.25,3A23.25,23.25,0,0,1,230,200.36h-.48a6.09,6.09,0,0,1-1.47,1.29,11.87,11.87,0,0,1,3.42,8.28c0,4.17-2.15,5.14-3.62,5.14h-4.22l-.58-2.69a35.77,35.77,0,0,1-5.81,1.94l-1.4-3.52a33.92,33.92,0,0,0,11.58-3.91c-.05-.22-.12-.45-.27-.9a31,31,0,0,1-9.26,3.49l-1.4-3.16a28.34,28.34,0,0,0,9.31-2.5l-.57-.67a29.91,29.91,0,0,1-7.49,2.07L216.48,202c2.35-.12,5.77-.5,7.69-1.59h-4.62V199H217v-6h9.07v-1.55h4.09V193h9.07v6h-2.68v1.35h-3.14A18.44,18.44,0,0,0,234,203a17.07,17.07,0,0,0,3.19-2.84Zm-4.47-5.59v-1.07H221v1.07Zm-8.67,14.47c.75,0,1.25-.18,1.22-2.12a23.1,23.1,0,0,1-3.54,2.12Z"/><path class="cls-4" d="M264.78,195.3h-9.71v.82h7.79v5h-7.79v.72h8.34v2.8h1.52v3.14h-1.52V211h-8.34v1.84c0,1.15-.45,2.32-2,2.32h-5.72l-.72-3.11h3.82c.62,0,.62-.23.62-1.05h-8.59v-2.52h8.59v-.82h-10v-2.75h10v-.79h-8.54v-2.3h8.54v-.72h-7.71v-5h7.71v-.82h-9.66v-2.82h9.66v-1.17h4v1.17h9.71Zm-13.71,2.84h-3.79v1h3.79Zm7.87,0h-3.87v1h3.87Zm.4,6h-4.27V205h4.27Zm0,3.44h-4.27v.92h4.27Z"/><path class="cls-4" d="M288.51,198.81c-1.27,10.55-8.16,14.11-14.21,15.66l-2.44-3.84c8.54-1.75,10.36-6,11.06-7.7H267.69v-4.12Zm-2.44-5.71v4.14H270V193.1Z"/><path class="cls-4" d="M295.36,211c4.05-1.39,10.76-5,12.39-13.26H301.4a25.45,25.45,0,0,1-5.76,6.43l-3.35-2.87a22.91,22.91,0,0,0,6.39-7.73h14.51c-1,9.83-5.42,17.38-14.81,21.07Z"/><path class="cls-4" d="M335.75,213.92a42.69,42.69,0,0,0-6.17-6.83,28.63,28.63,0,0,1-9.89,7.16l-2.77-3.79c6.56-2.7,11-7,13.31-12.45H318.87V193.7h17.6a31.1,31.1,0,0,1-4.2,9.9,47.37,47.37,0,0,1,7,7.15Z"/><path class="cls-4" d="M355.18,213.92a63.31,63.31,0,0,0-9.34-9.12l3-3.15c1.55,1.13,1.87,1.4,3.77,3,2.38-2.89,2.65-3.22,4.42-5.61H342.47V194.7h19.88l1.59,2.22a126.11,126.11,0,0,1-8.14,10.69c.05,0,1.18,1.17,2.9,3.22Z"/><path class="cls-4" d="M388.72,201.15v4.27H367.2v-4.27Z"/><path class="cls-4" d="M410,208.36a50.93,50.93,0,0,0-8-5.14V214.3h-4.52V192.2H402v6.24a59.85,59.85,0,0,1,10.49,6.08Z"/><path class="cls-4" d="M438.38,198.81c-1.27,10.55-8.17,14.11-14.21,15.66l-2.45-3.84c8.54-1.75,10.37-6,11.06-7.7H417.55v-4.12Zm-2.45-5.71v4.14h-16V193.1Z"/><path class="cls-4" d="M456,214.17h-4.59v-11a48.83,48.83,0,0,1-7.39,3l-2.2-3.92a44.34,44.34,0,0,0,18.08-10.37l3.45,2.89a51.65,51.65,0,0,1-7.35,5.79Z"/><path class="cls-4" d="M488,194.07c-.54,7.41-2.77,15.54-13.23,20.15l-2.95-3.71c8.84-3.4,10.44-9.38,11-12.15h-15v-4.29Z"/><path class="cls-4" d="M501.47,195.1c-.82,6.53-2.69,12.91-6.41,18.32l-4.3-2.34a36.72,36.72,0,0,0,6.1-16.73Zm7.7,17.45a51,51,0,0,0-5.62-16.61l3.87-2.07a50,50,0,0,1,6.44,17.28Zm6.26-18.5a3.37,3.37,0,1,1-3.37-3.37A3.36,3.36,0,0,1,515.43,194.05Zm-5,0a1.65,1.65,0,0,0,3.3,0,1.65,1.65,0,0,0-3.3,0Z"/><path class="cls-4" d="M522,197.71a36.92,36.92,0,0,1,3.1,5.49L521.83,205a34,34,0,0,0-3-5.44Zm14.64.4c-.7,5.34-2.53,13.17-12.46,16.31l-2.83-3.12c7.55-2.09,10.52-6.36,11.37-13.94Zm-9.54-1.57A31.62,31.62,0,0,1,530,202.1l-3.29,1.7a30.63,30.63,0,0,0-2.9-5.56Z"/><path class="cls-4" d="M546.21,211.53c6.09-3.37,6.54-7.41,6.74-10.5h-4.37a25.24,25.24,0,0,1-3.62,4.81l-3.69-2.49A29.88,29.88,0,0,0,547.91,192l4.22,1.35a34.09,34.09,0,0,1-1.35,3.44h12.59V201h-5.85c-.17,3.52-.62,9.58-7.64,13.59Z"/><path class="cls-4" d="M588.54,201.15v4.27H567v-4.27Z"/><path class="cls-4" d="M599.51,204.67a55.09,55.09,0,0,0-7.64-3l1.67-3.87a55,55,0,0,1,7.65,3Zm14.14-3.74c-6.95,10.62-15.49,12.74-18.36,13.47l-1.82-4.49c10.24-1.77,15.48-10,17.26-12.82Zm-12.09-2.09a61.56,61.56,0,0,0-7.42-3l1.68-3.81a68.83,68.83,0,0,1,7.34,2.87ZM608.9,191a19.78,19.78,0,0,1,2.35,4.81l-2.1,1a20.65,20.65,0,0,0-2.25-4.86Zm3.92,0a22.27,22.27,0,0,1,2.23,4.86l-2.15,1a20.24,20.24,0,0,0-2.1-4.94Z"/><path class="cls-4" d="M622,203.25a2.6,2.6,0,1,1-2.6-2.59A2.59,2.59,0,0,1,622,203.25Zm8.31,0a2.6,2.6,0,1,1-2.59-2.59A2.58,2.58,0,0,1,630.33,203.25Zm8.32,0a2.6,2.6,0,1,1-2.6-2.59A2.59,2.59,0,0,1,638.65,203.25Z"/><path class="cls-4" d="M647,203.25a2.6,2.6,0,1,1-2.6-2.59A2.59,2.59,0,0,1,647,203.25Zm8.31,0a2.6,2.6,0,1,1-2.6-2.59A2.59,2.59,0,0,1,655.31,203.25Zm8.32,0a2.6,2.6,0,1,1-2.6-2.59A2.59,2.59,0,0,1,663.63,203.25Z"/><path class="cls-4" d="M672.3,192.6h4.12v20.12h-4.65V197.51L668.28,200l-.58-4.24Z"/><path class="cls-4" d="M694.3,196.54a9.23,9.23,0,0,0-1.35-.1,5.42,5.42,0,0,0-5.29,3.47,6,6,0,0,1,3.17-.85,6.64,6.64,0,0,1,6.67,6.88,7,7,0,0,1-7.27,7.18c-3.89,0-7.82-2.69-7.82-9.17,0-5.79,3.33-11.75,10.17-11.75.62,0,1.32.05,1.72.08Zm-4.17,6.58a2.85,2.85,0,0,0-3.07,2.65,3.07,3.07,0,0,0,3.07,3.11,2.73,2.73,0,0,0,2.75-3A2.55,2.55,0,0,0,690.13,203.12Z"/><path class="cls-4" d="M700.62,210c-1.55-2.42-1.65-5.83-1.65-7.33,0-3.54.7-5.81,1.7-7.38a6.91,6.91,0,0,1,11.51,0c1.5,2.34,1.68,5.61,1.68,7.35a13.8,13.8,0,0,1-1.65,7.36,6.94,6.94,0,0,1-11.59,0Zm8.59-7.33c0-3.29-.57-6.21-2.79-6.21s-2.8,2.92-2.8,6.21c0,3.62.7,6.23,2.8,6.23S709.21,206,709.21,202.65Z"/><path class="cls-4" d="M720.8,208.09v4.41c0,2.64-1.69,3.37-4.64,3.42v-2.2c1.6,0,2-.37,2.05-1.19h-2.05v-4.44Z"/><path class="cls-4" d="M724.75,210c-1.55-2.42-1.65-5.83-1.65-7.33,0-3.54.7-5.81,1.7-7.38a6.91,6.91,0,0,1,11.51,0c1.5,2.34,1.68,5.61,1.68,7.35a13.8,13.8,0,0,1-1.65,7.36,6.72,6.72,0,0,1-5.8,3.11A6.64,6.64,0,0,1,724.75,210Zm8.59-7.33c0-3.29-.57-6.21-2.8-6.21s-2.79,2.92-2.79,6.21c0,3.62.7,6.23,2.79,6.23S733.34,206,733.34,202.65Z"/><path class="cls-4" d="M741.24,210c-1.55-2.42-1.65-5.83-1.65-7.33,0-3.54.7-5.81,1.7-7.38a6.91,6.91,0,0,1,11.51,0c1.5,2.34,1.67,5.61,1.67,7.35a13.8,13.8,0,0,1-1.65,7.36,6.7,6.7,0,0,1-5.79,3.11A6.62,6.62,0,0,1,741.24,210Zm8.59-7.33c0-3.29-.58-6.21-2.8-6.21s-2.8,2.92-2.8,6.21c0,3.62.7,6.23,2.8,6.23S749.83,206,749.83,202.65Z"/><path class="cls-4" d="M757.72,210c-1.55-2.42-1.65-5.83-1.65-7.33,0-3.54.7-5.81,1.7-7.38a6.91,6.91,0,0,1,11.51,0c1.5,2.34,1.68,5.61,1.68,7.35a13.8,13.8,0,0,1-1.65,7.36,6.72,6.72,0,0,1-5.8,3.11A6.64,6.64,0,0,1,757.72,210Zm8.59-7.33c0-3.29-.57-6.21-2.8-6.21s-2.79,2.92-2.79,6.21c0,3.62.7,6.23,2.79,6.23S766.31,206,766.31,202.65Z"/><path class="cls-4" d="M793.05,207.19H782v7.52h-3.56V195.34H796.6V212c0,1.68-.26,2.74-2.86,2.74h-3.5l-.61-3.62h2.79c.63,0,.63-.31.63-.67ZM782,203.86h3.8v-5.11H782Zm7.26,0h3.84v-5.11h-3.84Z"/><path class="cls-3" d="M808,213.76a7.86,7.86,0,0,1,0-10.41h.64a8.25,8.25,0,0,0-1.87,5.2,8.38,8.38,0,0,0,1.87,5.21Z"/><path class="cls-3" d="M811.92,206.41h1.3v.53h-1.3a10.22,10.22,0,0,0,1.36,2.25l-.36.46a9.71,9.71,0,0,1-1-1.69v5.61h-.57v-5.22a9.39,9.39,0,0,1-1.68,2.77l-.31-.51a10.35,10.35,0,0,0,2-3.67h-1.91v-.53h1.91v-1.88a13.86,13.86,0,0,1-1.64.22l-.23-.53a13.17,13.17,0,0,0,3.36-.63l.31.45a6.84,6.84,0,0,1-1.23.38Zm7.13-.53v3.55h-1.78v3.14c0,.35,0,.38.41.38h.85c.33,0,.41,0,.52-1.45l.56.15c-.13,1.29-.17,1.46-.28,1.61s-.47.23-.74.23h-1.07c-.42,0-.83-.06-.83-.72v-3.34h-1.13c-.32,3-2,3.83-2.71,4.14l-.35-.44a4.11,4.11,0,0,0,2.48-3.7H813.7v-3.55H817a12.68,12.68,0,0,0,1.29-2.4l.54.2a13.94,13.94,0,0,1-1.18,2.2Zm-4.14-.23a10.57,10.57,0,0,0-1-1.93l.5-.25a11.08,11.08,0,0,1,1,2Zm3.54.73h-4.18v2.51h4.18Z"/><path class="cls-3" d="M822.63,207.82v2.87a2.14,2.14,0,0,0,.94,1.63,4.77,4.77,0,0,0,2.07.45h5l-.11.57h-4.85c-2.33,0-2.93-1-3.25-1.55a13.78,13.78,0,0,1-1.65,1.82l-.34-.52a10,10,0,0,0,1.64-1.72v-3H820.4v-.56Zm.06-2.21a13.11,13.11,0,0,0-2-1.56l.35-.47a13.14,13.14,0,0,1,2.06,1.54Zm.66,5.64c.7-.53,2.88-2.21,3.53-6.83h-2.45v-.59h3a9.9,9.9,0,0,0,3.15,7.5l-.47.44a10.72,10.72,0,0,1-3-5.74,10.67,10.67,0,0,1-3.31,5.7Z"/><path class="cls-3" d="M837.36,208.55a.91.91,0,1,1-1.82,0,.91.91,0,1,1,1.82,0Z"/><path class="cls-3" d="M846.35,205.41v.53h-3.94v-.53Zm-.34-1.59v.53H842.8v-.53Zm0,3.11v.55H842.8v-.55Zm0,1.59v.54H842.8v-.54Zm0,1.54v3.35H842.8v-3.35Zm-.56.51h-2.1v2.31h2.1Zm5.41-6.75v2.55c0,.24.07.31.3.31h.32c.21,0,.35-.09.41-1.3l.59.19c-.1,1.28-.26,1.69-.83,1.69H851c-.53,0-.67-.22-.67-.69v-2.19h-2.11c0,1.58-.18,2.47-1.23,3.34l-.42-.46c1.06-.81,1.06-1.71,1.06-3.24v-.2Zm1.31,9.76a10.09,10.09,0,0,1-2.75-1.46,7.86,7.86,0,0,1-2.59,1.38l-.27-.58a6.83,6.83,0,0,0,2.39-1.21,6.44,6.44,0,0,1-1.54-2.39l.51-.25a6,6,0,0,0,1.48,2.25,6.83,6.83,0,0,0,1.6-2.58h-4.28v-.57h4.93v.55a8.05,8.05,0,0,1-1.78,3A8.26,8.26,0,0,0,852.5,213Z"/><path class="cls-3" d="M863,205.86h-4.29v.76h4.8v.5h-4.8v.71h3.75v4.32h-6.57v-4.32h2.24v-.71H853.4v-.5h4.69v-.76h-4.24v-2H863Zm.51,7v.48H854V208h.62v4.88Zm-6.8-8.53h-2.26v1h2.26Zm5.18,3.93h-5.41v.79h5.41Zm0,1.26h-5.41v.82h5.41Zm0,1.27h-5.41v.87h5.41Zm-2.33-6.46h-2.29v1h2.29Zm2.87,0h-2.31v1h2.31Z"/><path class="cls-3" d="M873.14,211.88h-7.37V208.7a8.57,8.57,0,0,1-1.13.44l-.26-.51A5.25,5.25,0,0,0,867.2,207h-2.33c.07-.26.25-1.33.31-1.64h2.61a3.19,3.19,0,0,0,.06-.69h-3.2v-.47h3.2v-.63h.58v.63h1.91v-.63h.58v.63h2.7v1.59h-2.7v.76h3.46c-.09,2.2-.61,2.2-1.24,2.2ZM864.46,213a10.59,10.59,0,0,0,3.26-.88l.43.42a12.13,12.13,0,0,1-3.39,1.06Zm3-6.45a3.87,3.87,0,0,0,.27-.76h-2a5.12,5.12,0,0,1-.12.76Zm-.8,1.71a2.38,2.38,0,0,1-.3.18v.6h6.21v-.78Zm5.91,1.21h-6.21v.78h6.21Zm0,1.2h-6.21v.79h6.21Zm-2.21-2.81V207h-2.47a2.89,2.89,0,0,1-.69.86Zm0-2.07h-2a5.09,5.09,0,0,1-.23.76h2.26Zm-1.91-1.12a3.88,3.88,0,0,1,0,.69h2v-.69Zm2.67,7.45a10.54,10.54,0,0,0,3.33.85l-.35.62a11.28,11.28,0,0,1-3.39-1Zm-.18-6.76H873v-.69h-2.12Zm2.22,2.83c.3,0,.51,0,.59-1.19h-2.81v.86h2.22Z"/><path class="cls-3" d="M877.58,207.82v2.87a2.14,2.14,0,0,0,.94,1.63,4.77,4.77,0,0,0,2.07.45h4.95l-.11.57h-4.85c-2.33,0-2.93-1-3.25-1.55a14.37,14.37,0,0,1-1.64,1.82l-.35-.52a10,10,0,0,0,1.64-1.72v-3h-1.62v-.56Zm.06-2.21a13.11,13.11,0,0,0-2-1.56l.35-.47a12.69,12.69,0,0,1,2.06,1.54Zm.66,5.64c.7-.53,2.88-2.21,3.53-6.83h-2.45v-.59h3a9.9,9.9,0,0,0,3.15,7.5l-.47.44a10.72,10.72,0,0,1-3-5.74,10.67,10.67,0,0,1-3.31,5.7Z"/><path class="cls-3" d="M891.39,212.9a8.46,8.46,0,0,0,2.38-3.1,8.49,8.49,0,0,0-2.79-1.36,20.77,20.77,0,0,1-1.31,2.39c-.64,1-1.06,1.39-1.6,1.39-.72,0-1.23-.7-1.23-1.61a3,3,0,0,1,3.17-2.88,2.8,2.8,0,0,1,.63.06c.52-1.16.74-1.64,1.18-2.8a25,25,0,0,1-3.46.17v-.65c.31,0,.62,0,1,0a15.69,15.69,0,0,0,2.82-.21l.4.36c-.58,1.39-.66,1.58-1.38,3.22a8.82,8.82,0,0,1,2.78,1.31,9.42,9.42,0,0,0,.59-2.54l.65.17a11.47,11.47,0,0,1-.71,2.75c.29.22.9.68,1.56,1.29l-.37.58a14,14,0,0,0-1.46-1.28,9,9,0,0,1-2.36,3.12Zm-1.47-4.58a2.4,2.4,0,0,0-2.51,2.28c0,.6.3,1,.65,1,.67,0,1.61-1.86,2.31-3.26A3.09,3.09,0,0,0,889.92,208.32Z"/><path class="cls-3" d="M897.19,213.76a8.33,8.33,0,0,0,1.86-5.21,8.2,8.2,0,0,0-1.86-5.2h.64a7.83,7.83,0,0,1,0,10.41Z"/><path class="cls-7" d="M237.18,245.83a32.29,32.29,0,0,0-4.83-5.35,22.45,22.45,0,0,1-7.74,5.6l-2.18-3c5.15-2.1,8.65-5.46,10.43-9.74H224V230h13.79a24.13,24.13,0,0,1-3.29,7.75,36.73,36.73,0,0,1,5.48,5.61Z"/><path class="cls-7" d="M252.4,245.83a50,50,0,0,0-7.31-7.15l2.36-2.46c1.22.88,1.47,1.09,3,2.32,1.86-2.26,2.07-2.52,3.46-4.39H242.45v-3.38H258l1.25,1.74a100,100,0,0,1-6.38,8.38s.92.92,2.27,2.52Z"/><path class="cls-7" d="M278.68,235.83v3.34H261.82v-3.34Z"/><path class="cls-7" d="M295.34,241.47a39.41,39.41,0,0,0-6.25-4v8.67h-3.54v-17.3h3.54v4.88a47.61,47.61,0,0,1,8.21,4.77Z"/><path class="cls-7" d="M301.88,230.36h15V244.7h-15Zm11.52,11v-7.68h-8.08v7.68Z"/><path class="cls-7" d="M324.36,233.13a29.72,29.72,0,0,1,2.43,4.3l-2.55,1.39a27.09,27.09,0,0,0-2.36-4.26Zm11.46.32c-.55,4.18-2,10.31-9.76,12.77l-2.21-2.44c5.91-1.64,8.24-5,8.9-10.92Zm-7.47-1.23a25,25,0,0,1,2.31,4.35l-2.58,1.33a24.76,24.76,0,0,0-2.27-4.36Z"/><path class="cls-7" d="M342.5,243.51c3.16-1.1,8.43-3.95,9.7-10.4h-5a19.9,19.9,0,0,1-4.52,5l-2.62-2.24a18.06,18.06,0,0,0,5-6.06h11.36c-.76,7.7-4.24,13.62-11.6,16.51Z"/><path class="cls-7" d="M370.88,230.32h2.68v5.35h5.36v2.68h-5.36v5.35h-2.68v-5.35h-5.36v-2.68h5.36Z"/><path class="cls-7" d="M402,245.83a32.51,32.51,0,0,0-4.84-5.35,22.45,22.45,0,0,1-7.74,5.6l-2.17-3c5.14-2.1,8.64-5.46,10.42-9.74h-8.9V230h13.79a24.37,24.37,0,0,1-3.28,7.75,37,37,0,0,1,5.47,5.61Z"/><path class="cls-7" d="M417.23,245.83a50.52,50.52,0,0,0-7.32-7.15l2.37-2.46c1.21.88,1.46,1.09,3,2.32,1.86-2.26,2.07-2.52,3.46-4.39H407.27v-3.38h15.57l1.25,1.74a102.44,102.44,0,0,1-6.37,8.38s.91.92,2.26,2.52Z"/><path class="cls-7" d="M443.5,235.83v3.34H426.64v-3.34Z"/><path class="cls-7" d="M460.17,241.47a39.9,39.9,0,0,0-6.26-4v8.67h-3.54v-17.3h3.54v4.88a47.24,47.24,0,0,1,8.21,4.77Z"/><path class="cls-7" d="M482.12,230.85h-6.63v.6h7.66v4.28H480v-2.52h-4.5v3.07h-2.86v-3.07h-4.38v2.52h-3v-4.28h7.39v-.6h-6.41v-2.21h15.9Zm1.62,12c-.31,3.77-1.6,3.77-2.85,3.77h-6.4c-1.37,0-2.09-.53-2.09-1.6v-1.05H466v-7.23H482.2v5.72Zm-11.68-9.06v.94h-3.28v-.94Zm0,1.5v1h-3.28v-1Zm.34,5.82h-3.21v1h3.21Zm0-2.48h-3.19v.92h3.19Zm6.53,0h-3.42v.92h3.42Zm0,2.48h-3.42v1h3.42Zm.66,3.48c.43,0,.73,0,1-.62h-5c0,.31,0,.62.37.62Zm-.15-10.8v.94h-3.39v-.94Zm0,1.5v1h-3.39v-1Z"/><path class="cls-7" d="M489.79,243.86a41.76,41.76,0,0,1-5.18,1.34l-.4-3.39c.53-.08,1.1-.14,2.16-.34v-3.82h-1.74v-3h1.74V232h-1.94v-3H491v1.9h4.3v-2.72h3.06v2.72h2a8.45,8.45,0,0,0-1.68-1.62l2-1.37a14.79,14.79,0,0,1,2.15,1.86l-1.61,1.13H503V234h-4.69v.82a11.39,11.39,0,0,0,.74,2.41,14.8,14.8,0,0,0,1.54-3.09l2.61,1.19a21.82,21.82,0,0,1-2.1,3.81l-1.62-1a14.2,14.2,0,0,0,3.91,4.68l-1.64,3.32a17.2,17.2,0,0,1-3.44-4.82v3.53c0,1.92-1.37,2-2.41,2h-2.7l-.37-3a26.31,26.31,0,0,1-2.23,1.85Zm5.38-2.5a13.24,13.24,0,0,1-2.06,2.22h1.55c.33,0,.62,0,.62-.52V234H491v-2h-1.54v2.72h1.39v.72l2.05-1.21a14.41,14.41,0,0,1,2.31,3.51l-2.58,1.49a11.31,11.31,0,0,0-1.78-3.17v1.63h-1.39v3.14c.82-.23,1.09-.31,1.6-.47l.08.88a16.12,16.12,0,0,0,2.42-2.25Z"/><path class="cls-7" d="M516.14,230.32h2.68v5.35h5.36v2.68h-5.36v5.35h-2.68v-5.35h-5.36v-2.68h5.36Z"/><path class="cls-7" d="M536.33,229.13v15.76h-3.66V229.13Z"/><path class="cls-7" d="M543.92,232.84a6.19,6.19,0,1,1-5.81,6.17A5.82,5.82,0,0,1,543.92,232.84Zm0,9.28c.84,0,2.47-.49,2.47-3.11,0-1.77-.85-3.1-2.47-3.1-.8,0-2.46.45-2.46,3.1S543.18,242.12,543.92,242.12Z"/><path class="cls-7" d="M558.77,244.89h-3.62V232.45h-4.67v-3.32h13v3.32h-4.67Z"/><path class="cls-7" d="M575.56,229.42V240H572V229.42Zm9.11-.29v6.62c0,3.63-.47,8.42-7.37,10.43l-2.06-3.07c5.32-1.32,5.85-4.31,5.85-7.32v-6.66Z"/><path class="cls-7" d="M598.7,235.22h7.51v3.3H598.7v2.66c0,1.08.45,1.13,2.09,1.13,2,0,3.78-.09,4.58-.13l-.1,3.26c-1.54.06-2.95.12-4.21.12-3.11,0-5.8-.3-5.8-3.75v-3.29h-5.79v-3.3h5.79v-1.89h-4.48v-3.28h14.14v3.28H598.7Z"/><path class="cls-7" d="M609.77,241.06h11.46V234H610v-3.38h14.84v13.83h-15Z"/><path class="cls-7" d="M635.44,235.77a24.73,24.73,0,0,0-6-3l1.63-3a27.36,27.36,0,0,1,6.22,2.94Zm10.25-.19a22.35,22.35,0,0,1-6.34,6.79,22.11,22.11,0,0,1-8.47,3.56l-1.21-3.56c5.53-1,10-3.36,13.71-9.84Z"/><path class="cls-7" d="M227.42,254.09h2.68v5.35h5.36v2.68H230.1v5.35h-2.68v-5.35h-5.36v-2.68h5.36Z"/><path class="cls-7" d="M250.05,257.37a7.57,7.57,0,0,0-4.53-1.47c-3.72,0-5.17,2.49-5.17,4.93,0,1.83.88,4.82,5.13,4.82a5.38,5.38,0,0,0,2.29-.43v-2.6h-3.33v-3.14h6.89v8.3a14.31,14.31,0,0,1-5.79,1.19c-6,0-8.82-4.1-8.82-8.2,0-4.87,3.69-8.19,8.78-8.19a11.44,11.44,0,0,1,5.75,1.53Z"/><path class="cls-7" d="M258.47,256.61a6.19,6.19,0,1,1-5.81,6.17A5.82,5.82,0,0,1,258.47,256.61Zm0,9.27c.84,0,2.46-.48,2.46-3.1,0-1.78-.84-3.11-2.46-3.11-.8,0-2.47.45-2.47,3.11S257.73,265.88,258.47,265.88Z"/><path class="cls-7" d="M271.15,256.61a6.19,6.19,0,1,1-5.81,6.17A5.82,5.82,0,0,1,271.15,256.61Zm0,9.27c.84,0,2.46-.48,2.46-3.1,0-1.78-.84-3.11-2.46-3.11-.81,0-2.47.45-2.47,3.11S270.4,265.88,271.15,265.88Z"/><path class="cls-7" d="M289.24,259.52a2.19,2.19,0,0,0-.84-.18,1.83,1.83,0,0,0-.55.08,3.73,3.73,0,0,1,.26,1.47c0,3-2.82,4.19-5.6,4-.29.14-.37.29-.37.47,0,.56.84.6,1.76.64,2,.08,5.46.22,5.46,3.65,0,3.7-4.11,4.22-6.1,4.22-3.8,0-5.34-1.85-5.34-3.9a3.13,3.13,0,0,1,1.74-2.87,2.19,2.19,0,0,1-.94-1.72,2,2,0,0,1,.86-1.55,3.76,3.76,0,0,1-1.39-3c0-2.44,2-4.22,4.95-4.22a5.56,5.56,0,0,1,2.58.53,3.7,3.7,0,0,1,2-.53,3.13,3.13,0,0,1,1.5.29Zm-6.06,9c-.49,0-2,0-2,1.25s1.57,1.37,2.43,1.37c.6,0,2.52-.1,2.52-1.47C286.11,268.74,284.8,268.54,283.18,268.54Zm-1.86-7.71c0,.91.8,1.48,1.82,1.48s1.84-.59,1.84-1.52-.63-1.53-1.82-1.53A1.67,1.67,0,0,0,281.32,260.83Z"/><path class="cls-7" d="M296.29,268.66h-1.45c-3.25,0-3.72-1.13-3.72-3.77V252.17h3.37V264.6c0,.76.23,1,1,1h.77Z"/><path class="cls-7" d="M300.47,263.81c.08.69.3,2.25,2.94,2.25a7.7,7.7,0,0,0,3.69-.92v3.07a9.54,9.54,0,0,1-3.87.76c-5.26,0-6.12-4.06-6.12-6.09,0-3.69,2.27-6.27,5.49-6.27a5.06,5.06,0,0,1,4.84,3.22,10.79,10.79,0,0,1,.6,4Zm4.25-2.36a2.1,2.1,0,0,0-2.12-2,2.05,2.05,0,0,0-2.07,2Z"/><path class="cls-7" d="M324.65,258.68V252.9h3.64v15.76h-3.64V262H319.7v6.64h-3.62V252.9h3.62v5.78Z"/><path class="cls-7" d="M335.67,256.61a6.19,6.19,0,1,1-5.81,6.17A5.82,5.82,0,0,1,335.67,256.61Zm0,9.27c.84,0,2.46-.48,2.46-3.1,0-1.78-.84-3.11-2.46-3.11-.81,0-2.47.45-2.47,3.11S334.92,265.88,335.67,265.88Z"/><path class="cls-7" d="M349.56,268.66V261.9c0-.72,0-2.23-1.43-2.23-.39,0-1.78.18-1.78,2.21v6.78H343V256.92h3.19V258a3.58,3.58,0,0,1,2.88-1.38,3.25,3.25,0,0,1,2.83,1.54,4.48,4.48,0,0,1,3.52-1.52,3.88,3.88,0,0,1,3.62,1.95,7.14,7.14,0,0,1,.47,3.16v6.94h-3.36V261.9c0-.74,0-2.23-1.49-2.23s-1.72,1.7-1.72,2.29v6.7Z"/><path class="cls-7" d="M364.39,263.81c.07.69.29,2.25,2.93,2.25a7.78,7.78,0,0,0,3.7-.92v3.07a9.64,9.64,0,0,1-3.88.76c-5.26,0-6.12-4.06-6.12-6.09,0-3.69,2.27-6.27,5.5-6.27a5.05,5.05,0,0,1,4.83,3.22,10.6,10.6,0,0,1,.61,4Zm4.24-2.36a2.1,2.1,0,0,0-2.11-2,2.06,2.06,0,0,0-2.08,2Z"/><path class="cls-7" d="M385,254.09h2.68v5.35h5.36v2.68H387.7v5.35H385v-5.35h-5.35v-2.68H385Z"/><path class="cls-7" d="M407.11,260.55c-1,.14-2.09.22-3.64.34l-.66-2.41h-1.45v-5.21h7V252h3.33v1.29h7.14v5.21h-2.68l.37.55c-1.78.47-4.75.92-6.18,1.13v1.37l8.78-.92.2,3-9,.94v2.26c0,.57.21.57.53.57h3.95c.25,0,.43-.2.53-.57a17.11,17.11,0,0,0,.15-2.15l3.27.73c-.14,3.18-.22,4.94-2.27,4.94h-7.79a1.61,1.61,0,0,1-1.64-1.76v-3.67l-6.08.64-.24-3,6.32-.67Zm8.53-2.91v-1.56H404.55v1.84a56.29,56.29,0,0,0,10.19-1.59Z"/><path class="cls-7" d="M430.22,252.45v2.81h-3v1.15H430v13.65h-9.31V256.41h2.8v-1.15h-3.23v-2.81Zm-4.5,6.38H425v1c0,2.25-.31,3.09-.9,3.73l-1-1.81v2.4h4.63v-.8h-1.15c-.51,0-.8-.35-.8-1Zm-2,0H423v2.82a2.3,2.3,0,0,0,.72-2Zm3.91,7.64H423v1h4.63Zm-1.95-11.21H425v1.15h.73Zm1.95,3.57h-.78v1.9c0,.25,0,.39.27.39h.51Zm10.74,2.89h-4.58v5c0,.17,0,.48.43.48h1.2c.45,0,.49-.35.53-.66.05-.51.05-1.54.05-2.21l3.13.8c-.21,3.89-.52,5.16-2.4,5.16h-4.46a1.39,1.39,0,0,1-1.55-1.54v-10h4.52v-3.23h-4.54v-3.1h7.67Z"/><path class="cls-7" d="M440.06,266.14a21.45,21.45,0,0,0,3.95-6.23l3,1.46a24.31,24.31,0,0,1-4.07,6.74ZM457.45,256v3.22h-6.38v7.56c0,3-2.09,3-4.91,3l-.8-3.36,1.66,0c.43,0,.59-.13.59-.66v-6.55h-6.77V256h6.77v-3.28h3.46V256Zm-2.37,12a39.42,39.42,0,0,0-3.5-6.34l2.83-1.74a39.92,39.92,0,0,1,3.68,6.25Zm-1.58-16.58a16.42,16.42,0,0,1,2.32,3.21l-1.52,1a14.2,14.2,0,0,0-2.23-3.24Zm3.4,0a17,17,0,0,1,2.17,3.36l-1.58.92a15.06,15.06,0,0,0-2.06-3.36Z"/><path class="cls-7" d="M464.2,256.9a28.76,28.76,0,0,1,2.42,4.3l-2.54,1.38a26.28,26.28,0,0,0-2.37-4.25Zm11.46.31c-.55,4.18-2,10.32-9.76,12.78l-2.21-2.44c5.91-1.65,8.23-5,8.9-10.92ZM468.19,256a25.48,25.48,0,0,1,2.31,4.36l-2.59,1.33a23.73,23.73,0,0,0-2.26-4.36Z"/><path class="cls-7" d="M482.33,267.27c3.17-1.09,8.43-3.94,9.71-10.39h-5a19.9,19.9,0,0,1-4.52,5l-2.62-2.25a18,18,0,0,0,5-6.05H496.3c-.76,7.69-4.24,13.61-11.6,16.5Z"/><path class="cls-7" d="M514,269.6a32.86,32.86,0,0,0-4.84-5.36,22.23,22.23,0,0,1-7.74,5.61l-2.17-3c5.14-2.11,8.64-5.47,10.42-9.74h-8.9v-3.38h13.79a24.37,24.37,0,0,1-3.28,7.75,36.54,36.54,0,0,1,5.47,5.61Z"/></svg>