<svg id="レイヤー_1" data-name="レイヤー 1" xmlns="http://www.w3.org/2000/svg" viewBox="0 0 480 111"><defs><style>.cls-1,.cls-3{fill:none;}.cls-2{fill:#e60012;}.cls-3{stroke:#dcd031;stroke-miterlimit:10;stroke-width:2.24px;}.cls-4{fill:#fff;}</style></defs><title>tokuten1</title><rect class="cls-1" width="480" height="111"/><path class="cls-2" d="M145.81,19.18h17.65V35.73H152.32V57.91h-6.51Zm6.51,4.58v1.68h4.75V23.76Zm0,5.59v1.72h4.75V29.35ZM174,51.27h1.64c1.34,0,1.34-.67,1.34-1.55v-14H165.6V19.18h17.93V53.25c0,4.53-3.73,4.66-4,4.66h-8.61l-.63-3.78H155.31V37.37H174ZM161.52,42v1.64h6.14V42Zm0,5.29v1.81h6.14V47.32ZM172,23.76v1.68h4.92V23.76Zm0,5.59v1.72h4.92V29.35Z"/><path class="cls-2" d="M223.39,57.83a28.22,28.22,0,0,1-6.84-6.35A44.88,44.88,0,0,1,209.24,58l-2.78-4.74v4.62h-6.63v-6c-2.48.63-7.86,1.81-12.73,2.6l-.67-7a15.55,15.55,0,0,0,2-.13v-22h-1.72V18.93h21.76v1.59h17.81V27c-.54,4.41-1.85,12.56-5.25,18.44a19.67,19.67,0,0,0,6.43,5.34ZM195.08,25.27v3.11h4.75V25.27Zm0,8.86v3.15h4.75V34.13ZM199.83,43h-4.75v3.53c.71-.13,1.93-.3,4.75-.8Zm14.11-15.88a28,28,0,0,0,2.77,11.59,34.88,34.88,0,0,0,3-11.8H208V25.27h-1.52v25.5a30.66,30.66,0,0,0,6.09-5.5,39.7,39.7,0,0,1-4.41-16.18Z"/><path class="cls-2" d="M243.46,20.9a80,80,0,0,0-1.68,14c.21-.38,1.64-3.07,2.15-4l3.69,3.44a44.05,44.05,0,0,0-5.21,12.4l-6,.58c-.51-1.55-1.85-5.71-1.85-13.35A76.43,76.43,0,0,1,235.9,20.1Zm18.74-.75c.21,2.47.76,8.23.76,13.94,0,11-2.69,17.69-13.11,22.94l-6.3-5.25c10.37-4.83,11.68-10,11.68-18.49,0-4.57-.34-8.4-.76-13.14Z"/><path class="cls-2" d="M293.53,20.4c-.34.5-.46.71-1.55,2.56a91.68,91.68,0,0,0,11.42-1.55l-.17,6.72c-7.6,1-11.25,1.22-15.24,1.43-.13.25-.72,1.21-.85,1.42a11.76,11.76,0,0,1,2.65-.33c3.36,0,5.59,1.51,6.68,3.36,4.62-1.89,5.13-2.1,9.28-3.66l2.61,6.3c-3.91,1.31-9.5,3.36-10.59,3.83.09,2.22,0,3.53,0,7l-6.84.21c.12-2,.12-2.6.16-4.2-2.6,1.47-3.82,2.52-3.82,3.82,0,1.77,1.93,2.27,5.8,2.27a74.68,74.68,0,0,0,12.52-1.26l-.68,7.1a89.35,89.35,0,0,1-10.16.67c-6.14,0-8.19-.75-9.29-1.17a7.61,7.61,0,0,1-5.12-7.19c0-5.79,5.8-8.78,9.91-10.88a3.08,3.08,0,0,0-2.14-.75c-4.2,0-7,4.11-9.87,8.27l-5.55-3.94a76.06,76.06,0,0,0,7.69-10.63c-2,0-2.85,0-5.67,0l.17-6.76c1.93.08,4.37.21,7.43.21h1.81c.76-1.35,1.13-2.15,2.27-4.5Z"/><path class="cls-2" d="M327.34,22c.38-1.09.75-2.81,1.05-4.11l8.23.21a34.41,34.41,0,0,1-1.47,3.9H350V57.32H315.58V22Zm15.58,6.34h-20.2V32h20.2Zm0,9.46h-20.2v3.69h20.2Zm0,9.41h-20.2V51h20.2Z"/><path class="cls-2" d="M392.86,23.25v33.4H356.74V23.25h14.45V18h7.14v5.29Zm-21.67,6.47h-7.4v7.06h7.4Zm0,13.28h-7.4v7.26h7.4Zm14.57-13.28h-7.43v7.06h7.43Zm0,13.28h-7.43v7.26h7.43Z"/><path class="cls-2" d="M409.53,21.49a82.21,82.21,0,0,0-2.43,19.16,61.62,61.62,0,0,0,1.55,14.11l-7.35.8A66.37,66.37,0,0,1,399.91,41,106.43,106.43,0,0,1,402,20.65Zm24.79,31.38a75.09,75.09,0,0,1-9.71.76c-6.84,0-13.4-1.1-13.4-8.2a11.41,11.41,0,0,1,1.6-5.63L419,41a7.07,7.07,0,0,0-1.13,3.15c0,1.81,1.68,2.23,6.72,2.23a56.48,56.48,0,0,0,10-1ZM413.06,24a104.8,104.8,0,0,1,12-.76c3.74,0,6.26.26,7.73.38l-.21,7.19a73.55,73.55,0,0,0-7.47-.34,87.13,87.13,0,0,0-12.23.88Z"/><path class="cls-2" d="M172.07,71.92l6.34,7.52c-1.39,7.31-4.79,19.15-20.16,26.17l-5-6.22c14.32-5.8,16.59-16.42,17.31-20.25H147.53V71.92Zm13.9-.51a5.67,5.67,0,1,1-5.67-5.67A5.67,5.67,0,0,1,186,71.41Zm-8.44,0a2.77,2.77,0,1,0,5.54,0,2.77,2.77,0,1,0-5.54,0Z"/><path class="cls-2" d="M224.4,79.44c-2.14,17.77-13.74,23.77-23.9,26.38l-4.12-6.47c14.37-2.94,17.43-10.17,18.61-13H189.37V79.44Zm-4.12-9.62v7h-27v-7Z"/><path class="cls-2" d="M245.4,83.26a53.11,53.11,0,0,0-12.82-6.43l3.49-6.51a58.46,58.46,0,0,1,13.36,6.34Zm22-.42A48.25,48.25,0,0,1,253.8,97.46a47.41,47.41,0,0,1-18.19,7.64L233,97.46c11.89-2.19,21.51-7.23,29.45-21.17Z"/><path class="cls-2" d="M309,93.89v7.48H272.61V93.89Zm-3.15-21.55v7.48h-30V72.34Z"/><path class="cls-2" d="M329.4,83.26a53.11,53.11,0,0,0-12.82-6.43l3.49-6.51a58.46,58.46,0,0,1,13.36,6.34Zm22-.42A48.25,48.25,0,0,1,337.8,97.46a47.41,47.41,0,0,1-18.19,7.64L317,97.46c11.89-2.19,21.51-7.23,29.45-21.17Z"/><path class="cls-2" d="M381.9,70.87l6.64,8.95c-2.86,10-8.07,20.62-22.9,26.54l-5.17-6.17a33.36,33.36,0,0,0,13.28-8.44,30.14,30.14,0,0,0,7.48-13.87H370.72a43,43,0,0,1-9.53,11l-5.8-5a38.8,38.8,0,0,0,10.76-13Zm3-4.62a34.65,34.65,0,0,1,5,7.47l-3,2a32.62,32.62,0,0,0-4.75-7.52Zm6.35-.51a36.19,36.19,0,0,1,4.7,7.69l-3.07,2a33.52,33.52,0,0,0-4.49-7.86Z"/><path class="cls-2" d="M417.22,69l-1,23.82H410L409,69Zm-7.94,26.63h7.64v7.27h-7.64Z"/><circle class="cls-2" cx="55.17" cy="55.17" r="55.17" transform="translate(-11.2 14.15) rotate(-13.28)"/><circle class="cls-3" cx="55.17" cy="55.17" r="48.26" transform="translate(-11.2 14.15) rotate(-13.28)"/><path class="cls-4" d="M34.38,31.86c1-.2,3.11-.8,4-1.05V26.34h-1A12.81,12.81,0,0,1,36.5,30l-2.23-2.12c.6-1.84.88-3.26.9-7.38l2.51.06c0,.88,0,1.79,0,2.62h.71v-4h3.08v4h1.33v3.13H41.43v3.48c.22-.06,1.27-.41,1.4-.45v3.22c-.3.13-.47.21-1.4.56v6.43H38.35V34.2c-1,.32-2.69.85-3.52,1Zm10.77,1h-2v-3H50V28.4H43V25.34h4.21V23.77H43.69V20.85h3.54V19.2h3.24v1.65h3.82v2.92H50.47v1.57h4.42V28.4h-1.7v1.42h1.5v3h-1.5V37c0,1.48-.08,2.62-2.25,2.62H47.23l-.47-2.81-1.18.71A16.77,16.77,0,0,0,43.09,34Zm2.21,3.59h2c.62,0,.62-.39.62-.8V32.82H46.26a15.61,15.61,0,0,1,2.19,2.94Z"/><path class="cls-4" d="M55.8,36.77a20.38,20.38,0,0,0,5.58-2.55H55.93v-3h1.24V21.13H62v-2h3.09v2h2v-2h3.13v2h4.93V31.26H76.4v3H70.86a17,17,0,0,0,5.64,2.47l-1.75,3a23.35,23.35,0,0,1-6.7-3.86L70,34.22H62.19l1.89,1.54a21.79,21.79,0,0,1-6.52,3.91Zm4.4-12.68v2.15h1.89V24.09Zm0,4.85v2.32h1.89V28.94Zm4.87-4.85v2.15h2V24.09Zm0,4.85v2.32h2V28.94Zm5-4.85v2.15h2V24.09Zm0,4.85v2.32h2V28.94Z"/><path class="cls-4" d="M63.12,48.25c-.06,1.91-.13,3.82-.19,5.72s-.11,3.78-.14,5.6,0,3.5,0,5q0,3.89,0,6.75c0,1.91.06,3.73.1,5.46s.1,3.54.17,5.43.14,4.1.23,6.65a45.37,45.37,0,0,0-7.44-.6c-1.18,0-2.36.06-3.52.17s-2.31.25-3.45.43c.08-1.06.16-2.53.23-4.41s.13-3.94.19-6.16.11-4.46.14-6.74,0-4.32,0-6.12q0-5.46-.2-10.86c-1.27.66-2.53,1.29-3.78,1.91a38.66,38.66,0,0,0-3.66,2c-.65-.88-1.3-1.73-1.94-2.57s-1.32-1.67-2.07-2.5q1.71-.58,3.39-1.32l3.39-1.44c1-.44,2.3-1,3.88-1.81s3.19-1.58,4.84-2.44,3.22-1.71,4.74-2.56a37.07,37.07,0,0,0,3.52-2.21l1.77,1.12C63.27,44.53,63.19,46.34,63.12,48.25Z"/><path class="cls-4" d="M109.86,81.61c-1.4-3.44-5.34-5.18-9.45-4.52a9,9,0,0,0-17.6-2.37C79,72.93,74.67,73.55,72.4,76.51c-2.72,3.53-1.52,9,2.66,12.21.22.16.44.28.66.41l-.28.25C71.63,93,71,98.6,74.09,101.81s8.67,2.85,12.49-.79a8.18,8.18,0,0,0,1.63-2.25,7.82,7.82,0,0,0,.89,2.47c2.6,4.59,7.87,6.53,11.72,4.34s4.89-7.7,2.28-12.29l-.18-.29a7.91,7.91,0,0,0,1.12-.33C108.92,90.68,111.54,85.72,109.86,81.61Z"/><path class="cls-2" d="M97.36,107.86h0a11.16,11.16,0,0,1-9.46-5.93l-.1-.18-.27.27a11.86,11.86,0,0,1-8,3.37,8.47,8.47,0,0,1-8.73-8.91,11.5,11.5,0,0,1,2.85-7.17c-4.28-3.74-5.34-9.7-2.31-13.64a8.88,8.88,0,0,1,7.15-3.33,11.49,11.49,0,0,1,3.59.59,10.51,10.51,0,0,1,9.45-6.17,10.66,10.66,0,0,1,1.38.09,10.53,10.53,0,0,1,8.77,8.74c4.36-.18,8.06,2,9.5,5.5,1.92,4.71-.87,10.35-6.24,12.72a11.62,11.62,0,0,1,.85,6.77,8.78,8.78,0,0,1-4.25,6.2,8.23,8.23,0,0,1-4.14,1.08ZM88.21,97.39h.19a1.39,1.39,0,0,1,1.16,1.11,6.71,6.71,0,0,0,.74,2,8.52,8.52,0,0,0,7.06,4.54h0a5.66,5.66,0,0,0,2.78-.71,6.06,6.06,0,0,0,2.89-4.31A9,9,0,0,0,101.9,94l-.15-.24a1.38,1.38,0,0,1,.84-2.07,6.62,6.62,0,0,0,.94-.27c4.17-1.7,6.44-5.86,5-9.26-1-2.34-3.42-3.79-6.45-3.79a9.48,9.48,0,0,0-1.5.12,1.4,1.4,0,0,1-1.09-.3,1.34,1.34,0,0,1-.5-1,7.83,7.83,0,0,0-6.55-7.57,6.63,6.63,0,0,0-1-.07,7.86,7.86,0,0,0-7.37,5.63,1.37,1.37,0,0,1-1.9.82,8.91,8.91,0,0,0-3.77-.87,6.07,6.07,0,0,0-5,2.25c-2.24,2.92-1.16,7.53,2.42,10.28a1.89,1.89,0,0,0,.28.17l.27.17a1.38,1.38,0,0,1,.64,1.08,1.4,1.4,0,0,1-.5,1.15l-.18.15a9,9,0,0,0-2.91,6.19,5.74,5.74,0,0,0,6,6.09A9,9,0,0,0,85.62,100,6.73,6.73,0,0,0,87,98.15a1.38,1.38,0,0,1,1.23-.76Z"/><path class="cls-2" d="M96.83,85.53a1.87,1.87,0,0,0-2,1.17l-3.7-.52,2.29-2.94a1.91,1.91,0,0,0,2.25-.56,1.87,1.87,0,0,0-.32-2.63,1.86,1.86,0,0,0-2.64.32,1.87,1.87,0,0,0-.38,1.39,1.81,1.81,0,0,0,.39.92l-2.3,2.95L89,82.16a1.79,1.79,0,0,0,.63-.78,1.85,1.85,0,0,0,0-1.44,1.9,1.9,0,1,0-1.47,2.57L89.59,86l-3.69-.52a1.89,1.89,0,1,0-.13.89l3.7.52L87.18,89.8a2.15,2.15,0,0,0-.51-.15A1.88,1.88,0,0,0,85.26,93a1.85,1.85,0,0,0,.9.38,1.87,1.87,0,0,0,1.72-3l2.3-2.94,1.4,3.46a1.87,1.87,0,0,0,1.81,3.25,1.87,1.87,0,0,0,1-2.44,1.87,1.87,0,0,0-1.49-1.15,1.81,1.81,0,0,0-.52,0L91,87.07l3.7.52a1.87,1.87,0,1,0,2.12-2.06Z"/></svg>