<svg id="レイヤー_1" data-name="レイヤー 1" xmlns="http://www.w3.org/2000/svg" viewBox="0 0 480 111"><defs><style>.cls-1,.cls-3{fill:none;}.cls-2{fill:#e60012;}.cls-3{stroke:#dcd031;stroke-miterlimit:10;stroke-width:2.24px;}.cls-4{fill:#fff;}</style></defs><title>tokuten3</title><rect class="cls-1" width="480" height="111"/><path class="cls-2" d="M179.17,46.32h-29l5,2a31,31,0,0,1-5,10.08l-5.92-3.9A22.72,22.72,0,0,0,149,46.32h-3.1V40.06h4.87V36.49h-5.84V30.14h6.47V27.41a12.72,12.72,0,0,1-3.32,2.48l-3.82-5.33c3.15-1.94,5.79-4.46,6.93-7l7,.59a13.11,13.11,0,0,1-1.09,2.23h26.63v6.25h-3.31v3.53h4.41v6.35h-4.41v3.57h3.31v6.26h-3.82a53.89,53.89,0,0,1,5.38,9.07l-6.55,2.94a63.16,63.16,0,0,0-5-9.75Zm-16.85,1.21a77,77,0,0,1,.92,10.13l-7,.17a63.07,63.07,0,0,0,.38-8.07c0-.84,0-1.43-.08-2.06Zm-5.59-20.92v3.53H159V26.61Zm0,9.88v3.57H159V36.49Zm7.61-9.88v3.53h2.31V26.61Zm0,9.88v3.57h2.31V36.49ZM171,47.32a61,61,0,0,1,3.28,10l-6.89.55a53.61,53.61,0,0,0-2.48-10.21Zm.84-20.71v3.53h2.48V26.61Zm0,9.88v3.57h2.48V36.49Z"/><path class="cls-2" d="M203.4,44.93l-1.64,4.12a25.9,25.9,0,0,1-2.06-3.62V58h-6.64V46.27a33.17,33.17,0,0,1-4.74,7L186,44.89c1.42-1,3.44-2.52,6.3-7.94h-5.42V30.56h6.17V18h6.64v8.91a38.49,38.49,0,0,0,2.18-7.73l5.21,1.3a37.22,37.22,0,0,1-3.1,9l-4.29-2.1v3.19h5.59v3.62L209,30a34.28,34.28,0,0,1,7,5.75l-4.87,5.08a26.34,26.34,0,0,0-5.84-5.5V37h-5.17a23.44,23.44,0,0,0,4.24,5.46l-.17.46,12.1-2.27V26.36l-3.53,3.95a30.36,30.36,0,0,0-6.42-6.26l4.24-4.53a30.4,30.4,0,0,1,5.71,4.53V17.88h7.27V39.26l2.86-.55L227,45.6l-3.4.63v11.6h-7.27V47.62L204,49.93ZM190.67,19.22a41.5,41.5,0,0,1,2.18,8.15l-4.66,2.06a28.89,28.89,0,0,0-2.1-8.74Z"/><path class="cls-2" d="M266.19,21.41l.59,7.31c-3.19,0-7.23.16-11.51,2.56-1.81,1-7,4.24-7,9.79,0,6.55,8.23,7.85,12.3,8.1l-3.48,7.27c-11.47-1.3-16.55-7.48-16.55-14.79a15.05,15.05,0,0,1,6.63-12.52l-16.34,2.19-.59-7.65c2,0,5.8-.08,7.94-.25Zm-7.52,11.72A37.38,37.38,0,0,1,263.46,41l-3.91,2.23a34.33,34.33,0,0,0-4.58-8Zm5.76-3a41.64,41.64,0,0,1,4.91,7.73l-3.91,2.1a35.93,35.93,0,0,0-4.74-7.9Z"/><path class="cls-2" d="M287.56,25.1v5.13H270.8V25.1Zm5.3,17.18h-5.09V35.86h3.45l-4.87-4.46c3.27-2.6,3.57-6,3.57-9.2,0-.75-.09-2.56-.09-3.19h14.62v7.73c0,.59.13.59,1.05.59.51,0,.55-.17.63-1s.17-3,.17-3.4l5,1.42c-.3,4.75-.38,6.52-1.35,8.15a3.7,3.7,0,0,1-3.19,1.6h-5c-2.1,0-3.28-.92-3.28-3v-5.8h-2.52c-.33,3.86-.71,6.6-4.16,10.59h17.14v6.42a26.72,26.72,0,0,1-5,7,41.59,41.59,0,0,0,7.44,1.51l-3,7.1a55.4,55.4,0,0,1-10.38-4,36.44,36.44,0,0,1-9.58,3.9l-2.1-4.53v3.86H271.81V44.13h14.45v6.81a22.22,22.22,0,0,0,5.59-1.35,26,26,0,0,1-3.66-4.32ZM286.26,19v4.71H271.81V19Zm0,12.52v4.91H271.81V31.53Zm0,6.22v4.91H271.81V37.75Zm-5.42,11.09h-2.77v3.23h2.77Zm12.77-6.56a15.53,15.53,0,0,0,4.12,4.12,12.67,12.67,0,0,0,3.82-4.12Z"/><path class="cls-2" d="M321.12,53.54v4.29h-6.3V40.35A14,14,0,0,1,313.31,42L312,31.19c2.18-3.15,3.9-6.59,4.78-13.48l6.1.46a46.61,46.61,0,0,1-1.77,9.2V51.23a23.27,23.27,0,0,0,2.14-11V32.33H322V27.12h6.55V25.35h-5.46V19.94h5.46V17.88h6.68v2.06h4.58V17.88h6.64v2.06h5.5v5.41h-5.5v1.77h6.26v5.21h-23.9v7.6c0,3.4-.17,12.77-3.78,18Zm30.2-19.87v20.5c0,1.85,0,3.66-3.4,3.66h-3.86l-1.18-5.21h1.56c.67,0,.75-.17.75-1V50.31h-2.52v7.22H337.5V50.31H335v7.52h-5.21V33.67ZM335,38.29v1.64h2.47V38.29Zm0,6v1.76h2.47V44.3Zm.16-18.95v1.77h4.58V25.35Zm7.48,12.94v1.64h2.52V38.29Zm0,6v1.76h2.52V44.3Z"/><path class="cls-2" d="M374.8,50c4.12-1.26,11-3.95,11-12.22A10.56,10.56,0,0,0,383,30.27a8.7,8.7,0,0,0-4.58-2.39c-.75,5.16-1.85,12.05-4.91,18.86-1.94,4.28-4.12,7-7.69,7-4.87,0-9.66-5.92-9.66-14.07,0-10.51,7.69-18.74,19.49-18.74,10.75,0,17.81,7,17.81,16.93,0,13.57-11.64,17.39-14.16,18.23ZM363.33,39.85c0,3.53,1.22,5.84,2.19,5.84s2-3,2.43-4.33a77.18,77.18,0,0,0,3.11-13.07C366.27,30,363.33,34.39,363.33,39.85Z"/><path class="cls-2" d="M167.36,68.35c0,5.12-.12,7.14-.12,7.22h14c-.13,3.24-.72,18.28-2.69,23.74-1.89,5.16-6.6,5.16-8.74,5.16-1.55,0-2.9-.08-3.82-.16l-1.43-7.44a45.41,45.41,0,0,0,4.75.38c2.1,0,2.68-.88,3.31-4.62a80.64,80.64,0,0,0,1-9.87h-7.06c-1.05,7.26-3.4,15.66-14.11,22.47L147,99.85c9.7-5.88,11.25-12.43,12.14-17.09H147.62V75.57H159.8c.13-3,.17-4.24.17-7.22Z"/><path class="cls-2" d="M224.4,79.44c-2.14,17.77-13.74,23.77-23.9,26.38l-4.12-6.47c14.37-2.94,17.43-10.17,18.61-13H189.37V79.44Zm-4.12-9.62v7h-27v-7Z"/><path class="cls-2" d="M266.9,83.39v7.18H230.69V83.39Z"/><path class="cls-2" d="M284,97.5a14.59,14.59,0,0,0,3,.42c2.44,0,2.86-1.13,3.16-2.56a41.06,41.06,0,0,0,.63-7.48c0-3.82-1.48-4.28-4-4.24-3.15,11.68-6.63,18.23-9.11,22.22l-6.43-4.07A68.21,68.21,0,0,0,279,84.52c-1,.17-5.42.88-6.34,1l-.84-7.1,9-1.09c.8-3.83,1.09-5.8,1.51-9l7.52,1.21c-.38,2.15-.38,2.15-1.43,7.31,8.86.42,9.41,6.93,9.41,11.81,0,12.68-2.6,16.46-9.41,16.46a27.14,27.14,0,0,1-4.37-.37Zm17.56-3.61c-.67-8.87-3.65-14.16-7.18-17.23l5.21-3.61a33.42,33.42,0,0,1,8.78,18.53ZM302.1,68a33.85,33.85,0,0,1,5.12,7.39l-2.89,2.19a35.29,35.29,0,0,0-5-7.56Zm4.75-2.27a36.1,36.1,0,0,1,5.12,7.4l-2.9,2.18a34,34,0,0,0-5-7.56Z"/><path class="cls-2" d="M329.1,81.45H327c-1.09,0-2.81-.16-2.81-2.94V74.19l-4.33,4.49a32.5,32.5,0,0,0-6.89-6.59l4.7-5a45.65,45.65,0,0,1,6.6,5.67h6.93V71.5H324V67.84h12.85V76H329.9v1.22c0,.46,0,.84.63.84h1.22c.88,0,1-1,1-1.68l4.74.67c-.12,1.3-.37,3.57-2.05,4.29v1.63h5.37V81.41a2.87,2.87,0,0,1-1.76-.8,2.3,2.3,0,0,1-.67-1.63V72.76h7.43V71.5H338.3V67.84h13.19V76H344v1.22c0,.33,0,.84,1,.84h2.19c.75,0,.84-.8.92-1.68l5,.67c-.13,1.26-.51,4.45-3.2,4.45h-2.77v1.47h4.62v4.25h-4.62v1.72h5.67v4.75h-6.3a26.43,26.43,0,0,0,6.26,1.84l-2.48,4.12h3.32l-1.47,6.51H332.55c-8,0-10.34-2.52-11.85-4.16a29.16,29.16,0,0,1-6.26,5.09l-2.27-7.19a20.56,20.56,0,0,0,4-2.43v-8.7H312.8V82.21H323v11c.38,4,1.89,5,4.58,5.8l-2.69-3.53a32.8,32.8,0,0,0,6.22-1.8h-7V88.89h5V87.17h-4.53V82.92h4.53Zm5.17,12.19L337.21,96a41.29,41.29,0,0,1-6.39,3.53c.89,0,2.06.08,3.16.08h13.27A31.23,31.23,0,0,1,339.94,96l2.69-2.35Zm1.18-6.47v1.72h5.37V87.17Z"/><path class="cls-2" d="M390.09,103.8a111.52,111.52,0,0,1-17.31-20c-.71-1-1.64-2.27-2-2.27s-.63.29-1.93,2.06c-.13.17-7.9,11-8.2,11.42l-5.79-5.88a145.44,145.44,0,0,0,9.53-11.93c1.89-2.52,3.36-4.45,6.3-4.45,3.16,0,4.16,1.43,7.19,5.59A103.61,103.61,0,0,0,394.67,97ZM383.7,73.3A38.38,38.38,0,0,1,390,80.53l-3.36,2.94a36.79,36.79,0,0,0-6.14-7.39Zm5.21-3.86a38.41,38.41,0,0,1,6.47,7.06L392,79.4a35.66,35.66,0,0,0-6.3-7.27Z"/><path class="cls-2" d="M398.61,89.81,415.79,76.2a112.94,112.94,0,0,1-11.3.8l-.55-7.18c1.6.08,3.28.12,6,.12a108.91,108.91,0,0,0,16.17-1l3,5.3c-4.79,3.06-8.87,6-9.88,6.76a16.66,16.66,0,0,1,2.94-.25c6.31,0,12,3.9,12,11.09,0,8.4-6.85,13.69-16,13.69-6.55,0-11.51-2.69-11.51-7.81,0-4.45,4.24-7,8.4-7a12.22,12.22,0,0,1,10.25,5.79,5.42,5.42,0,0,0,1.64-4.07c0-3.32-2.56-6-7.69-6-5.63,0-8.94,2.31-16.17,9.12Zm16,6.47c-1.47,0-1.8.88-1.8,1.22,0,1.43,2.56,2,4.54,2a12.46,12.46,0,0,0,2.1-.17A6,6,0,0,0,414.61,96.28Z"/><path class="cls-2" d="M459.22,69l-1,23.82H452L451,69Zm-7.94,26.63h7.64v7.27h-7.64Z"/><circle class="cls-2" cx="55.17" cy="55.17" r="55.17" transform="translate(-11.2 14.15) rotate(-13.28)"/><circle class="cls-3" cx="55.17" cy="55.17" r="48.26" transform="translate(-11.2 14.15) rotate(-13.28)"/><path class="cls-4" d="M34.38,31.86c1-.2,3.11-.8,4-1.05V26.34h-1A12.81,12.81,0,0,1,36.5,30l-2.23-2.12c.6-1.84.88-3.26.9-7.38l2.51.06c0,.88,0,1.79,0,2.62h.71v-4h3.08v4h1.33v3.13H41.43v3.48c.22-.06,1.27-.41,1.4-.45v3.22c-.3.13-.47.21-1.4.55v6.44H38.35V34.2c-1,.32-2.69.85-3.52,1Zm10.77,1h-2v-3H50V28.4H43V25.34h4.21V23.77H43.69V20.85h3.54V19.2h3.24v1.65h3.82v2.92H50.47v1.57h4.42V28.4h-1.7v1.42h1.5v3h-1.5V37c0,1.48-.08,2.62-2.25,2.62H47.23l-.47-2.81-1.18.71A16.77,16.77,0,0,0,43.09,34Zm2.21,3.59h2c.62,0,.62-.39.62-.8V32.82H46.26a15.61,15.61,0,0,1,2.19,2.94Z"/><path class="cls-4" d="M55.8,36.77a20.38,20.38,0,0,0,5.58-2.55H55.93v-3h1.24V21.13H62v-2h3.09v2h2v-2h3.13v2h4.93V31.26H76.4v3H70.86a16.74,16.74,0,0,0,5.64,2.46l-1.75,3a23.35,23.35,0,0,1-6.7-3.86L70,34.22H62.19l1.89,1.54a21.79,21.79,0,0,1-6.52,3.91Zm4.4-12.68v2.15h1.89V24.09Zm0,4.85v2.32h1.89V28.94Zm4.87-4.85v2.15h2V24.09Zm0,4.85v2.32h2V28.94Zm5-4.85v2.15h2V24.09Zm0,4.85v2.32h2V28.94Z"/><path class="cls-4" d="M44.14,78.75a9.91,9.91,0,0,0,1.12,3,7.08,7.08,0,0,0,2,2.27,5,5,0,0,0,3,.89,5.59,5.59,0,0,0,3.19-.83A5.76,5.76,0,0,0,55.36,82a9,9,0,0,0,.92-2.93,23.14,23.14,0,0,0,0-6.29,8.27,8.27,0,0,0-.79-2.7,5.14,5.14,0,0,0-1.68-1.94A4.91,4.91,0,0,0,51,67.37c-.48,0-1,0-1.51.06s-1,.11-1.52.2A13,13,0,0,0,48.22,65q0-.52,0-1c0-.33-.06-.67-.1-1l1.21.13c.42,0,.8.06,1.16.06a5,5,0,0,0,2.76-.69,4.88,4.88,0,0,0,1.64-1.77,7.22,7.22,0,0,0,.79-2.54,20.06,20.06,0,0,0,.2-2.89A19.48,19.48,0,0,0,55.59,52a8.84,8.84,0,0,0-.86-2.63,4.71,4.71,0,0,0-1.58-1.78A4.34,4.34,0,0,0,50.72,47a3.75,3.75,0,0,0-2.27.69,6.12,6.12,0,0,0-1.58,1.67,8.36,8.36,0,0,0-1,2.11,16.27,16.27,0,0,0-.46,2l-.39,3.23-1,.13A15.91,15.91,0,0,0,42.66,55c-.6-.65-1.22-1.29-1.88-1.9s-1.3-1.2-1.94-1.75-1.17-1-1.61-1.35c.57-.7,1.24-1.48,2-2.33a13.17,13.17,0,0,1,2.86-2.37,17.3,17.3,0,0,1,4.14-1.85,20.11,20.11,0,0,1,5.86-.75,28.83,28.83,0,0,1,5.59.59,19,19,0,0,1,5.43,1.94,12.64,12.64,0,0,1,4.12,3.56,9,9,0,0,1,1.64,5.49,9.08,9.08,0,0,1-.82,3.92,10,10,0,0,1-2.17,3,12,12,0,0,1-3,2.11,13.45,13.45,0,0,1-3.39,1.15,15.19,15.19,0,0,1,4,1.09,13.3,13.3,0,0,1,3.49,2.14,9.85,9.85,0,0,1,2.47,3.19,9.72,9.72,0,0,1,.92,4.31,11.92,11.92,0,0,1-1.71,6.51,14.07,14.07,0,0,1-4.41,4.41,18,18,0,0,1-6,2.4,32.52,32.52,0,0,1-6.62.7c-1.57,0-3-.07-4.37-.2a15.09,15.09,0,0,1-3.85-.89,16.83,16.83,0,0,1-3.62-1.91A26,26,0,0,1,36,83.09q1.92-2,3.46-3.71a27.34,27.34,0,0,0,3-4l1.32.26A15.72,15.72,0,0,0,44.14,78.75Z"/><path class="cls-4" d="M109.86,81.61c-1.4-3.44-5.34-5.18-9.45-4.52a9,9,0,0,0-17.6-2.37C79,72.93,74.67,73.55,72.4,76.51c-2.72,3.53-1.52,9,2.66,12.21.22.16.44.28.66.41l-.28.25C71.63,93,71,98.6,74.09,101.81s8.67,2.85,12.49-.79a8.18,8.18,0,0,0,1.63-2.25,7.82,7.82,0,0,0,.89,2.47c2.6,4.59,7.87,6.53,11.72,4.34s4.89-7.7,2.28-12.29l-.18-.29a7.91,7.91,0,0,0,1.12-.33C108.92,90.68,111.54,85.72,109.86,81.61Z"/><path class="cls-2" d="M97.36,107.86h0a11.16,11.16,0,0,1-9.46-5.93l-.1-.18-.27.27a11.86,11.86,0,0,1-8,3.37,8.47,8.47,0,0,1-8.73-8.91,11.5,11.5,0,0,1,2.85-7.17c-4.28-3.74-5.34-9.7-2.31-13.64a8.88,8.88,0,0,1,7.15-3.33,11.49,11.49,0,0,1,3.59.59,10.51,10.51,0,0,1,9.45-6.17,10.66,10.66,0,0,1,1.38.09,10.53,10.53,0,0,1,8.77,8.74c4.36-.18,8.06,2,9.5,5.5,1.92,4.71-.87,10.35-6.24,12.71a11.66,11.66,0,0,1,.85,6.78,8.78,8.78,0,0,1-4.25,6.2,8.23,8.23,0,0,1-4.14,1.08ZM88.21,97.39h.19a1.39,1.39,0,0,1,1.16,1.11,6.71,6.71,0,0,0,.74,2,8.52,8.52,0,0,0,7.06,4.54h0a5.66,5.66,0,0,0,2.78-.71,6.06,6.06,0,0,0,2.89-4.31A9,9,0,0,0,101.9,94l-.15-.24a1.38,1.38,0,0,1,.84-2.07,6.62,6.62,0,0,0,.94-.27c4.17-1.7,6.44-5.86,5-9.26-1-2.34-3.42-3.79-6.45-3.79a9.48,9.48,0,0,0-1.5.12,1.4,1.4,0,0,1-1.09-.3,1.34,1.34,0,0,1-.5-1,7.83,7.83,0,0,0-6.55-7.57,6.63,6.63,0,0,0-1-.07,7.86,7.86,0,0,0-7.37,5.63,1.37,1.37,0,0,1-1.9.82,8.91,8.91,0,0,0-3.77-.87,6.07,6.07,0,0,0-5,2.25c-2.24,2.92-1.16,7.53,2.42,10.28a1.89,1.89,0,0,0,.28.17l.27.17a1.38,1.38,0,0,1,.64,1.08,1.4,1.4,0,0,1-.5,1.15l-.18.15a9,9,0,0,0-2.91,6.19,5.74,5.74,0,0,0,6,6.09A9,9,0,0,0,85.62,100,6.73,6.73,0,0,0,87,98.15a1.38,1.38,0,0,1,1.23-.76Z"/><path class="cls-2" d="M96.83,85.53a1.87,1.87,0,0,0-2,1.17l-3.7-.52,2.29-2.94a1.91,1.91,0,0,0,2.25-.56,1.87,1.87,0,0,0-.32-2.63,1.86,1.86,0,0,0-2.64.32,1.87,1.87,0,0,0-.38,1.39,1.81,1.81,0,0,0,.39.92l-2.3,2.95L89,82.16a1.79,1.79,0,0,0,.63-.78,1.85,1.85,0,0,0,0-1.44,1.9,1.9,0,1,0-1.47,2.57L89.59,86l-3.69-.52a1.89,1.89,0,1,0-.13.89l3.7.52L87.18,89.8a2.15,2.15,0,0,0-.51-.15A1.88,1.88,0,0,0,85.26,93a1.85,1.85,0,0,0,.9.38,1.87,1.87,0,0,0,1.72-3l2.3-2.94,1.4,3.46a1.87,1.87,0,0,0,1.81,3.25,1.85,1.85,0,0,0,1-1,1.87,1.87,0,0,0-1.48-2.59,1.81,1.81,0,0,0-.52,0L91,87.07l3.7.52a1.87,1.87,0,1,0,2.12-2.06Z"/></svg>