<svg id="レイヤー_1" data-name="レイヤー 1" xmlns="http://www.w3.org/2000/svg" viewBox="0 0 480 157"><defs><style>.cls-1,.cls-3{fill:none;}.cls-2{fill:#e60012;}.cls-3{stroke:#dcd031;stroke-miterlimit:10;stroke-width:2.24px;}.cls-4{fill:#fff;}</style></defs><title>tokuten2</title><rect class="cls-1" width="480" height="157"/><path class="cls-2" d="M179.17,46.32h-29l5,2a31,31,0,0,1-5,10.08l-5.92-3.9A22.72,22.72,0,0,0,149,46.32h-3.1V40.06h4.87V36.49h-5.84V30.14h6.47V27.41a12.72,12.72,0,0,1-3.32,2.48l-3.82-5.33c3.15-1.94,5.79-4.46,6.93-7l7,.59a13.11,13.11,0,0,1-1.09,2.23h26.63v6.25h-3.31v3.53h4.41v6.35h-4.41v3.57h3.31v6.26h-3.82a53.89,53.89,0,0,1,5.38,9.07l-6.55,2.94a63.16,63.16,0,0,0-5-9.75Zm-16.85,1.21a77,77,0,0,1,.92,10.13l-7,.17a63.07,63.07,0,0,0,.38-8.07c0-.84,0-1.43-.08-2.06Zm-5.59-20.92v3.53H159V26.61Zm0,9.88v3.57H159V36.49Zm7.61-9.88v3.53h2.31V26.61Zm0,9.88v3.57h2.31V36.49ZM171,47.32a61,61,0,0,1,3.28,10l-6.89.55a53.61,53.61,0,0,0-2.48-10.21Zm.84-20.71v3.53h2.48V26.61Zm0,9.88v3.57h2.48V36.49Z"/><path class="cls-2" d="M203.4,44.93l-1.64,4.12a25.9,25.9,0,0,1-2.06-3.62V58h-6.64V46.27a33.17,33.17,0,0,1-4.74,7L186,44.89c1.42-1,3.44-2.52,6.3-7.94h-5.42V30.56h6.17V18h6.64v8.91a38.49,38.49,0,0,0,2.18-7.73l5.21,1.3a37.22,37.22,0,0,1-3.1,9l-4.29-2.1v3.19h5.59v3.62L209,30a34.28,34.28,0,0,1,7,5.75l-4.87,5.08a26.34,26.34,0,0,0-5.84-5.5V37h-5.17a23.44,23.44,0,0,0,4.24,5.46l-.17.46,12.1-2.27V26.36l-3.53,3.95a30.36,30.36,0,0,0-6.42-6.26l4.24-4.53a30.4,30.4,0,0,1,5.71,4.53V17.88h7.27V39.26l2.86-.55L227,45.6l-3.4.63v11.6h-7.27V47.62L204,49.93ZM190.67,19.22a41.5,41.5,0,0,1,2.18,8.15l-4.66,2.06a28.89,28.89,0,0,0-2.1-8.74Z"/><path class="cls-2" d="M266.19,21.41l.59,7.31c-3.19,0-7.23.16-11.51,2.56-1.81,1-7,4.24-7,9.79,0,6.55,8.23,7.85,12.3,8.1l-3.48,7.27c-11.47-1.3-16.55-7.48-16.55-14.79a15,15,0,0,1,6.63-12.51l-16.34,2.18-.59-7.65c2,0,5.8-.08,7.94-.25Zm-7.52,11.72A37.38,37.38,0,0,1,263.46,41l-3.91,2.23a34.33,34.33,0,0,0-4.58-8Zm5.76-3a41.64,41.64,0,0,1,4.91,7.73l-3.91,2.1a35.93,35.93,0,0,0-4.74-7.9Z"/><path class="cls-2" d="M296,56.31h-7.73V37.7a81,81,0,0,1-12.44,5l-3.69-6.6c12-3.86,20.54-8.4,30.41-17.47l5.8,4.87A87.52,87.52,0,0,1,296,33.29Z"/><path class="cls-2" d="M329.4,34.26a53.11,53.11,0,0,0-12.82-6.43l3.49-6.51a58.46,58.46,0,0,1,13.36,6.34Zm22-.42A48.14,48.14,0,0,1,337.8,48.46a47.41,47.41,0,0,1-18.19,7.64L317,48.46c11.89-2.19,21.51-7.23,29.45-21.17Z"/><path class="cls-2" d="M360.56,51.11c9.24-3.28,10.75-8.7,11.13-13H356.61V31H393v7.09H379.38c-.51,7.36-2.65,14.37-13.23,18.82ZM388.2,20.86V28h-27V20.86Z"/><path class="cls-2" d="M410.83,20.61V43.33H403.1V20.61ZM430.41,20V34.22c0,7.81-1,18.1-15.84,22.43l-4.41-6.6c11.43-2.85,12.56-9.28,12.56-15.75V20Z"/><path class="cls-2" d="M443.8,51.36c8.7-4.25,10.29-10.5,10.25-18.49h7.69c0,1.39,0,1.94-.08,2.82a33.36,33.36,0,0,0,5.2-6.09H441V22.29h33.65l3,3.74A62,62,0,0,1,467,40.86l-5.38-4c-.59,5.76-2.14,14.58-12,20Z"/><path class="cls-2" d="M158.17,106.83a31,31,0,0,1,0-39.83h5.92a31.48,31.48,0,0,0,0,39.83Z"/><path class="cls-2" d="M173.53,101.07a25.58,25.58,0,0,1-2.6,6.13l-5.71-5.37c1.63-2.61,3.27-6.18,3.27-13V69.9H183v-3h7.1v3h15.62v6.51H175.3V89.52a41.85,41.85,0,0,1-1.09,9A40.76,40.76,0,0,0,183.53,88H176.1V81.66h10.46V77.08h6.84v4.58h12.39V88h-9.28a32.54,32.54,0,0,0,10.08,10.46l-3.78,6.76a37.4,37.4,0,0,1-9.41-11.09V107h-6.84V94.27a37.36,37.36,0,0,1-9.71,11Z"/><path class="cls-2" d="M234.56,86.91a6.76,6.76,0,1,1-6.76-6.76A6.75,6.75,0,0,1,234.56,86.91Z"/><path class="cls-2" d="M271.9,99.68V97h-9.24V92.21h9.24V90.78H264v-4.2h7.9V85.23h-7.56v-3.9h7.56V79.94h-9.24V74.73h9.24V73.35h-7.56V69.1h7.56V67h6.34V69.1h9.62v5.63h1.89v5.21h-1.89v5.29h-9.62v1.35H288v4.2h-9.79v1.43h11.51V97H278.24v2.68h12.14L289,106.24H271.48c-5.84,0-10.42-1.14-13.86-3.45a18.82,18.82,0,0,1-4.37,4.54L249.13,101a23.8,23.8,0,0,0,3.66-3.41,30.53,30.53,0,0,1-3.36-7.39l4.87-2.52a26.51,26.51,0,0,0,1.55,3.91,43.06,43.06,0,0,0,1-4.67h-7v-6a47.07,47.07,0,0,0,4.83-6.18H249.8V68.43h12.69v6.26A50.14,50.14,0,0,1,257.7,81h5c0,5.63-.55,11.47-2.23,16.13,3.53,2.31,8.78,2.52,10.84,2.52ZM282,73.35h-3.74v1.38H282Zm0,6.59h-3.74v1.39H282Z"/><path class="cls-2" d="M329.27,107.37c-4.87-.88-10.88-2.52-15-5.42l4-3.74H305.37l4,3.83c-3.61,2.52-11.13,4.74-14.95,5.33l-3.19-6.26c6.13-.46,10.16-1.68,12.64-2.9H291.93V92.46h39.74v5.75H320.45a32.31,32.31,0,0,0,12,2.69ZM327.72,68V91.16h-31.8V68Zm-7.1,5.17H302.85v1.64h17.77Zm0,5.67H302.85v1.64h17.77Zm0,5.8H302.85v1.76h17.77Z"/><path class="cls-2" d="M333.51,106.83a30.23,30.23,0,0,0,7.1-19.92A30.22,30.22,0,0,0,333.51,67h5.92a31,31,0,0,1,0,39.83Z"/><path class="cls-2" d="M395.8,99c4.12-1.26,11-4,11-12.22A10.56,10.56,0,0,0,404,79.27a8.81,8.81,0,0,0-4.58-2.4c-.75,5.17-1.85,12.06-4.91,18.87-1.94,4.28-4.12,7-7.69,7-4.87,0-9.66-5.92-9.66-14.07,0-10.5,7.69-18.74,19.49-18.74,10.75,0,17.81,7,17.81,16.93,0,13.57-11.64,17.39-14.16,18.23ZM384.33,88.85c0,3.53,1.22,5.84,2.19,5.84s2-3,2.43-4.33a77.3,77.3,0,0,0,3.11-13.06C387.27,79,384.33,83.39,384.33,88.85Z"/><path class="cls-2" d="M167.36,117.35c0,5.12-.12,7.14-.12,7.22h14c-.13,3.24-.72,18.28-2.69,23.74-1.89,5.16-6.6,5.16-8.74,5.16-1.55,0-2.9-.08-3.82-.16l-1.43-7.44a45.41,45.41,0,0,0,4.75.38c2.1,0,2.68-.88,3.31-4.62a80.64,80.64,0,0,0,1-9.87h-7.06c-1.05,7.26-3.4,15.66-14.11,22.47l-5.5-5.38c9.7-5.88,11.25-12.43,12.14-17.09H147.62v-7.19H159.8c.13-3,.17-4.24.17-7.22Z"/><path class="cls-2" d="M224.4,128.44c-2.14,17.77-13.74,23.77-23.9,26.38l-4.12-6.47c14.37-2.94,17.43-10.17,18.61-13H189.37v-6.93Zm-4.12-9.62v7h-27v-7Z"/><path class="cls-2" d="M266.9,132.39v7.18H230.69v-7.18Z"/><path class="cls-2" d="M284,146.5a14.59,14.59,0,0,0,3,.42c2.44,0,2.86-1.13,3.16-2.56a41.06,41.06,0,0,0,.63-7.48c0-3.82-1.48-4.28-4-4.24-3.15,11.68-6.63,18.23-9.11,22.22l-6.43-4.07A68.21,68.21,0,0,0,279,133.52c-1,.17-5.42.88-6.34,1l-.84-7.1,9-1.09c.8-3.83,1.09-5.8,1.51-9l7.52,1.21c-.38,2.15-.38,2.15-1.43,7.31,8.86.42,9.41,6.93,9.41,11.81,0,12.68-2.6,16.46-9.41,16.46a27.14,27.14,0,0,1-4.37-.37Zm17.56-3.61c-.67-8.87-3.65-14.16-7.18-17.23l5.21-3.61a33.42,33.42,0,0,1,8.78,18.53ZM302.1,117a33.85,33.85,0,0,1,5.12,7.39l-2.89,2.19a35.29,35.29,0,0,0-5-7.56Zm4.75-2.27a36.1,36.1,0,0,1,5.12,7.4l-2.9,2.18a34,34,0,0,0-5-7.56Z"/><path class="cls-2" d="M329.1,130.45H327c-1.09,0-2.81-.16-2.81-2.94v-4.32l-4.33,4.49a32.5,32.5,0,0,0-6.89-6.59l4.7-5a45.65,45.65,0,0,1,6.6,5.67h6.93V120.5H324v-3.66h12.85V125H329.9v1.22c0,.46,0,.84.63.84h1.22c.88,0,1-1,1-1.68l4.74.67c-.12,1.3-.37,3.57-2.05,4.29v1.63h5.37v-1.51a2.87,2.87,0,0,1-1.76-.8,2.3,2.3,0,0,1-.67-1.63v-6.22h7.43V120.5H338.3v-3.66h13.19V125H344v1.22c0,.33,0,.84,1,.84h2.19c.75,0,.84-.8.92-1.68l5,.67c-.13,1.26-.51,4.45-3.2,4.45h-2.77v1.47h4.62v4.25h-4.62v1.72h5.67v4.75h-6.3a26.43,26.43,0,0,0,6.26,1.84l-2.48,4.12h3.32l-1.47,6.51H332.55c-8,0-10.34-2.52-11.85-4.16a29.16,29.16,0,0,1-6.26,5.09l-2.27-7.19a20.56,20.56,0,0,0,4-2.43v-8.7H312.8v-6.51H323v11c.38,4,1.89,5,4.58,5.8l-2.69-3.53a32.8,32.8,0,0,0,6.22-1.8h-7v-4.75h5v-1.72h-4.53v-4.25h4.53Zm5.17,12.19,2.94,2.35a41.29,41.29,0,0,1-6.39,3.53c.89,0,2.06.08,3.16.08h13.27a31.23,31.23,0,0,1-7.31-3.61l2.69-2.35Zm1.18-6.47v1.72h5.37v-1.72Z"/><path class="cls-2" d="M390.09,152.8a111.52,111.52,0,0,1-17.31-20c-.71-1-1.64-2.27-2-2.27s-.63.29-1.93,2.06c-.13.17-7.9,11-8.2,11.42l-5.79-5.88a145.44,145.44,0,0,0,9.53-11.93c1.89-2.52,3.36-4.45,6.3-4.45,3.16,0,4.16,1.43,7.19,5.59A103.61,103.61,0,0,0,394.67,146Zm-6.39-30.5a38.38,38.38,0,0,1,6.31,7.23l-3.36,2.94a36.79,36.79,0,0,0-6.14-7.39Zm5.21-3.86a38.41,38.41,0,0,1,6.47,7.06l-3.4,2.9a35.66,35.66,0,0,0-6.3-7.27Z"/><path class="cls-2" d="M398.61,138.81l17.18-13.61a112.94,112.94,0,0,1-11.3.8l-.55-7.18c1.6.08,3.28.12,6,.12a108.91,108.91,0,0,0,16.17-1l3,5.3c-4.79,3.06-8.87,6.05-9.88,6.76a16.66,16.66,0,0,1,2.94-.25c6.31,0,12,3.9,12,11.09,0,8.4-6.85,13.69-16,13.69-6.55,0-11.51-2.69-11.51-7.81,0-4.45,4.24-7,8.4-7a12.22,12.22,0,0,1,10.25,5.79,5.42,5.42,0,0,0,1.64-4.07c0-3.32-2.56-6-7.69-6-5.63,0-8.94,2.31-16.17,9.12Zm16,6.47c-1.47,0-1.8.88-1.8,1.22,0,1.43,2.56,2,4.54,2a12.46,12.46,0,0,0,2.1-.17A6,6,0,0,0,414.61,145.28Z"/><path class="cls-2" d="M459.22,118l-1,23.82H452L451,118Zm-7.94,26.63h7.64v7.27h-7.64Z"/><circle class="cls-2" cx="55.17" cy="55.17" r="55.17" transform="translate(-22.85 55.17) rotate(-45)"/><circle class="cls-3" cx="55.17" cy="55.17" r="48.26" transform="translate(-22.85 55.17) rotate(-45)"/><path class="cls-4" d="M34.38,31.86c1-.19,3.11-.8,4-1.05V26.34h-1A12.81,12.81,0,0,1,36.5,30l-2.23-2.12c.6-1.84.88-3.26.9-7.38l2.51.06c0,.88,0,1.79,0,2.62h.71v-4h3.08v4h1.33v3.13H41.43v3.48c.22-.06,1.27-.41,1.4-.45v3.22c-.3.13-.47.21-1.4.56v6.43H38.35V34.2c-1,.32-2.69.85-3.52,1Zm10.77,1h-2v-3H50V28.4H43V25.34h4.21V23.77H43.69V20.85h3.54V19.2h3.24v1.65h3.82v2.92H50.47v1.57h4.42V28.4h-1.7v1.42h1.5v3h-1.5V37c0,1.48-.08,2.62-2.25,2.62H47.23l-.47-2.81-1.18.71A16.77,16.77,0,0,0,43.09,34Zm2.21,3.59h2c.62,0,.62-.39.62-.8V32.82H46.26a15.61,15.61,0,0,1,2.19,2.94Z"/><path class="cls-4" d="M55.8,36.77a20.38,20.38,0,0,0,5.58-2.55H55.93v-3h1.24V21.13H62v-2h3.09v2h2v-2h3.13v2h4.93V31.26H76.4v3H70.86a17,17,0,0,0,5.64,2.47l-1.75,3a23.35,23.35,0,0,1-6.7-3.86L70,34.22H62.19l1.89,1.54a21.79,21.79,0,0,1-6.52,3.91Zm4.4-12.68v2.15h1.89V24.09Zm0,4.85v2.32h1.89V28.94Zm4.87-4.85v2.15h2V24.09Zm0,4.85v2.32h2V28.94Zm5-4.85v2.15h2V24.09Zm0,4.85v2.32h2V28.94Z"/><path class="cls-4" d="M70.13,54.73a12.82,12.82,0,0,1-.82,4.77,17.06,17.06,0,0,1-2,3.75,17.78,17.78,0,0,1-2.73,3l-2.9,2.5a47.79,47.79,0,0,1-4,3q-2.09,1.38-4.18,2.83l-4.54,3,4.93,0c1.84,0,3.73-.07,5.66-.13s3.84-.14,5.73-.23,3.59-.2,5.13-.33A26.41,26.41,0,0,0,70,79.74c-.07.88-.1,1.78-.1,2.7s0,2.09.13,3.25.2,2.23.33,3.2c-1.14-.14-2.4-.24-3.78-.33s-2.79-.14-4.22-.17l-4.24-.06c-1.41,0-2.68,0-3.82,0q-8.49,0-17.11.6a17.24,17.24,0,0,0,.27-3.36c0-.57-.08-1.12-.1-1.64a16.5,16.5,0,0,0-.17-1.65c1.06-.79,2.28-1.82,3.69-3.09s2.82-2.61,4.24-4,2.75-2.8,4-4.21A36.35,36.35,0,0,0,52,67.24a19,19,0,0,0,1.81-3.53,26.46,26.46,0,0,0,1.08-3.48,22.16,22.16,0,0,0,.53-3.16c.09-1,.13-1.83.13-2.54a16.25,16.25,0,0,0-.19-2.46,7.57,7.57,0,0,0-.76-2.34A5.2,5.2,0,0,0,53.09,48a3.87,3.87,0,0,0-2.37-.69,4.26,4.26,0,0,0-3.16,1.18,7.55,7.55,0,0,0-1.78,2.93A17.42,17.42,0,0,0,45,55c-.13,1.25-.22,2.33-.26,3.26l-1.12.46a36.48,36.48,0,0,0-3.19-3.49,40.93,40.93,0,0,0-4.51-3.82,27.88,27.88,0,0,1,3.59-4.38,16.24,16.24,0,0,1,3.85-2.79,15.49,15.49,0,0,1,4.41-1.48,29.65,29.65,0,0,1,5.33-.43,24.22,24.22,0,0,1,6.81.92,17.79,17.79,0,0,1,5.4,2.57,12.31,12.31,0,0,1,3.55,3.91A10,10,0,0,1,70.13,54.73Z"/><path class="cls-4" d="M109.86,81.61c-1.4-3.44-5.34-5.18-9.45-4.52a9,9,0,0,0-17.6-2.37C79,72.93,74.67,73.55,72.4,76.51c-2.72,3.53-1.52,9,2.66,12.21.22.16.44.28.66.41l-.28.25C71.63,93,71,98.6,74.09,101.81s8.67,2.85,12.49-.79a8.18,8.18,0,0,0,1.63-2.25,7.82,7.82,0,0,0,.89,2.47c2.6,4.59,7.87,6.53,11.72,4.34s4.89-7.7,2.28-12.29l-.18-.29a7.91,7.91,0,0,0,1.12-.33C108.92,90.68,111.54,85.72,109.86,81.61Z"/><path class="cls-2" d="M97.36,107.86h0a11.16,11.16,0,0,1-9.46-5.93l-.1-.18-.27.27a11.86,11.86,0,0,1-8,3.37,8.47,8.47,0,0,1-8.73-8.91,11.53,11.53,0,0,1,2.85-7.17c-4.28-3.74-5.34-9.7-2.31-13.64a8.88,8.88,0,0,1,7.15-3.33,11.49,11.49,0,0,1,3.59.59,10.51,10.51,0,0,1,9.45-6.17,10.66,10.66,0,0,1,1.38.09,10.53,10.53,0,0,1,8.77,8.74c4.36-.18,8.06,2,9.5,5.5,1.92,4.71-.87,10.35-6.24,12.72a11.62,11.62,0,0,1,.85,6.77,8.78,8.78,0,0,1-4.25,6.2,8.23,8.23,0,0,1-4.14,1.08ZM88.21,97.39h.19a1.39,1.39,0,0,1,1.16,1.11,6.71,6.71,0,0,0,.74,2,8.52,8.52,0,0,0,7.06,4.54h0a5.66,5.66,0,0,0,2.78-.71,6.06,6.06,0,0,0,2.89-4.31A9,9,0,0,0,101.9,94l-.15-.24a1.38,1.38,0,0,1,.84-2.07,6.62,6.62,0,0,0,.94-.27c4.17-1.7,6.44-5.86,5-9.26-1-2.34-3.42-3.79-6.45-3.79a9.48,9.48,0,0,0-1.5.12,1.4,1.4,0,0,1-1.09-.3,1.34,1.34,0,0,1-.5-1,7.83,7.83,0,0,0-6.55-7.57,6.63,6.63,0,0,0-1-.07,7.86,7.86,0,0,0-7.37,5.63,1.37,1.37,0,0,1-1.9.82,8.91,8.91,0,0,0-3.77-.87,6.07,6.07,0,0,0-5,2.25c-2.24,2.92-1.16,7.53,2.42,10.28a1.89,1.89,0,0,0,.28.17l.27.17a1.38,1.38,0,0,1,.64,1.08,1.4,1.4,0,0,1-.5,1.15l-.18.15a9.05,9.05,0,0,0-2.91,6.2,5.93,5.93,0,0,0,1.58,4.31,6,6,0,0,0,4.4,1.77A9,9,0,0,0,85.62,100,6.73,6.73,0,0,0,87,98.15a1.38,1.38,0,0,1,1.23-.76Z"/><path class="cls-2" d="M96.83,85.53a1.87,1.87,0,0,0-2,1.17l-3.7-.52,2.29-2.94a2.29,2.29,0,0,0,.51.15,1.88,1.88,0,0,0,1.42-3.34,1.86,1.86,0,0,0-2.64.32,1.87,1.87,0,0,0-.38,1.39,1.81,1.81,0,0,0,.39.92l-2.3,2.95L89,82.16a1.82,1.82,0,0,0,.63-.77,1.87,1.87,0,0,0,0-1.45,1.9,1.9,0,1,0-1.47,2.57L89.59,86l-3.69-.52a1.89,1.89,0,1,0-.13.89l3.7.52L87.18,89.8a2.15,2.15,0,0,0-.51-.15A1.88,1.88,0,0,0,85.26,93a1.85,1.85,0,0,0,.9.38,1.87,1.87,0,0,0,1.72-3l2.3-2.94,1.4,3.46a1.87,1.87,0,0,0,1.81,3.25,1.85,1.85,0,0,0,1-1,1.87,1.87,0,0,0-1.48-2.59,1.81,1.81,0,0,0-.52,0L91,87.07l3.7.52a1.87,1.87,0,1,0,2.12-2.06Z"/></svg>