<svg id="レイヤー_1" data-name="レイヤー 1" xmlns="http://www.w3.org/2000/svg" viewBox="0 0 800 50"><defs><style>.cls-1{fill:#ebebeb;}.cls-2{fill:#004021;}.cls-3{fill:#fff;}</style></defs>
<title>step1</title>
<rect class="cls-1" x="533.33" width="266.67" height="50"/>
<polygon class="cls-1" points="533.33 50 266.67 50 266.67 0 533.33 0 544.67 25 533.33 50"/>
<polygon class="cls-2" points="266.67 50 0 50 0 0 266.67 0 278 25 266.67 50"/>
<!-- -->
<polygon class="cls-3" points="265.7,50 277,25 265.7,0 267.7,0 279,25 267.7,50 "/>
<polygon class="cls-3" points="532.7,50 544,25 532.7,0 534.7,0 546,25 534.7,50 "/>
<!-- -->
<path class="cls-3" d="M101.33,23.26a24.9,24.9,0,0,1-1.66,6.45l-1.77-.89a19,19,0,0,0,1.63-5.9Zm1,7.86A21.88,21.88,0,0,1,99.26,33a5.77,5.77,0,0,0-1.33-1.58,21.75,21.75,0,0,0,4.35-2.53V23.13a11.29,11.29,0,0,0-.1-1.74h2.06a13.69,13.69,0,0,0-.1,1.69v4.2a24.68,24.68,0,0,0,3.63-4.46,15.36,15.36,0,0,0,1.91-4.13l1.95.78c-.2.36-.2.36-.66,1.31a28.39,28.39,0,0,1-4.27,6.46,18,18,0,0,1-2.56,2.45v1.19c0,.42.44.54,2,.54s2.09-.12,2.3-.47a9,9,0,0,0,.41-3.22,6.68,6.68,0,0,0,1.8.65c-.38,4.47-.65,4.74-4.61,4.74-3.11,0-3.81-.34-3.81-1.82Zm1-13.53a25.67,25.67,0,0,1,5,2.43l-1.13,1.63a19.66,19.66,0,0,0-5-2.6Zm8.09,5.52A34.32,34.32,0,0,1,114,29.5l-1.8,1A25.64,25.64,0,0,0,109.72,24Z" transform="translate(0 -0.41)"/>
<path class="cls-3" d="M120.41,26.53a8.75,8.75,0,0,0,.62-1.07h-2.58a18.92,18.92,0,0,0-2,.06,14.89,14.89,0,0,0,.07-1.64V22.7a16.68,16.68,0,0,0-.07-1.73,14.94,14.94,0,0,0,1.89.08h1.85V20H117.4a13.25,13.25,0,0,0-2,.09v-1.8a18.17,18.17,0,0,0,2.09.1H128.3a16.56,16.56,0,0,0,2.11-.1v1.8c-.54-.05-1.15-.09-2-.09h-3v1.07h2a13.42,13.42,0,0,0,1.9-.08,14.22,14.22,0,0,0-.07,1.73v1.16a15.35,15.35,0,0,0,.06,1.66q-1-.07-1.92-.06h-4.31c-.35.63-.4.73-.61,1.07h6a12.13,12.13,0,0,0,2-.1v1.76c-.56-.05-1.13-.08-2-.08h-1.53a8.44,8.44,0,0,1-1.54,2.21A41.43,41.43,0,0,1,130,32l-1.19,1.56-1-.44a37,37,0,0,0-4-1.6,16.62,16.62,0,0,1-7.66,1.85,6.54,6.54,0,0,0-.77-1.73h.38a16.51,16.51,0,0,0,5.71-.83c-2-.53-2.26-.6-4-1a13.17,13.17,0,0,0,1.68-1.66h-1.82a15,15,0,0,0-2,.08V26.41a14.81,14.81,0,0,0,2,.1Zm-2.06-4.12V24h1.87V22.41Zm3,5.68a11.38,11.38,0,0,1-.82.88c.6.17.6.17,1.92.48a8.68,8.68,0,0,1,1,.27,5,5,0,0,0,1.48-1.63Zm.59-7.06h1.85V20H121.9Zm0,3h1.85V22.41H121.9Zm3.54,0h2V22.41h-2Z" transform="translate(0 -0.41)"/>
<path class="cls-3" d="M138.87,26.26h-4a13.56,13.56,0,0,0-1.56.06V24.85a14.09,14.09,0,0,0,1.59.06h4v-.64h-3.61a13.48,13.48,0,0,0-1.42.05V20.87c.44,0,.8.05,1.44.05h3.59v-.65h-4.66a19,19,0,0,0-2,.1V18.69a16.16,16.16,0,0,0,2.09.1h4.56a7.34,7.34,0,0,0-.1-1.15h2a5.54,5.54,0,0,0-.12,1.15h4.78a16.16,16.16,0,0,0,2.09-.1v1.72a19,19,0,0,0-2-.1H140.7V21h3.84a11.69,11.69,0,0,0,1.43-.05c0,.37-.05.66-.05,1.19v1.12a7.76,7.76,0,0,0,.05,1.14,12.37,12.37,0,0,0-1.36-.05H140.7V25h3.81a16.42,16.42,0,0,0,1.82-.05,11.47,11.47,0,0,0-.05,1.55V27a10.49,10.49,0,0,0,1.48-.08v1.61a10.49,10.49,0,0,0-1.48-.08v1a14.16,14.16,0,0,0,.08,1.84h-1.9v-.72H140.7v.95c0,1.53-.42,1.85-2.5,1.85a13.92,13.92,0,0,1-1.63-.07,4.7,4.7,0,0,0-.52-1.68,19.25,19.25,0,0,0,2.15.15c.53,0,.67-.08.67-.39v-.81h-4a11.81,11.81,0,0,0-1.68.08V29.11a12.55,12.55,0,0,0,1.62.07h4.06v-.77H134a13,13,0,0,0-1.87.08V26.92A11.34,11.34,0,0,0,134,27h4.91Zm-3.18-4V23h3.18v-.7Zm5,.7h3.42v-.7H140.7ZM144.45,27v-.74H140.7V27Zm-3.76,2.18h3.76v-.79H140.7Z" transform="translate(0 -0.41)"/>
<path class="cls-3" d="M150.51,20.85a8.05,8.05,0,0,0-1.2.07V19.08a8.88,8.88,0,0,0,1.46.09h2.17a7.63,7.63,0,0,0,1.35-.07v1.82a7.79,7.79,0,0,0-1.18-.07h-.34V27.7c.6-.25.94-.41,1.79-.85v1.84a34,34,0,0,1-4.71,2.07l-.34.15L149,29a10.88,10.88,0,0,0,2-.58V20.85Zm6-.8a15.22,15.22,0,0,0-1.8.07V18.28a13.09,13.09,0,0,0,1.88.11h6.09a10.28,10.28,0,0,0,1.84-.11v1.86a17.73,17.73,0,0,0-1.79-.09h-2.36c-.19.43-.34.75-.53,1.14h3a5.8,5.8,0,0,0,.92-.05c0,.39-.05.88-.05,1.49v5.78a16.1,16.1,0,0,0,.06,1.7h-2.44a9.41,9.41,0,0,0,3.82,1.66A8.54,8.54,0,0,0,164,33.41a13.58,13.58,0,0,1-4.13-2.24L161,30.1h-4l1.34,1.09A11.59,11.59,0,0,1,154,33.46a7.88,7.88,0,0,0-1.18-1.63,8.56,8.56,0,0,0,4-1.73h-.44c-.45,0-.91,0-1.36,0,0-.48.07-1.06.07-1.68V22.7a10,10,0,0,0-.07-1.54h2.79a11.64,11.64,0,0,0,.51-1.14Zm.42,3.61h5v-1h-5Zm0,2.39h5v-1h-5Zm0,2.5h5v-1h-5Z" transform="translate(0 -0.41)"/>
<path class="cls-3" d="M173.48,28c-1,2.19-2.06,3.2-3.45,3.2-1.94,0-3.33-2-3.33-4.71a7.29,7.29,0,0,1,1.87-5,7.64,7.64,0,0,1,5.84-2.38c4.08,0,6.74,2.48,6.74,6.31A6.56,6.56,0,0,1,177,31.85a10.75,10.75,0,0,1-2.67.71,5.38,5.38,0,0,0-1-2,9,9,0,0,0,3.38-.93,4.77,4.77,0,0,0,2.35-4.22,4.2,4.2,0,0,0-2.1-3.77,3.59,3.59,0,0,0-1.71-.51A24.67,24.67,0,0,1,173.48,28ZM171,22a5.64,5.64,0,0,0-2.31,4.58c0,1.4.59,2.5,1.34,2.5.56,0,1.14-.71,1.75-2.17a21.9,21.9,0,0,0,1.41-5.75A4.28,4.28,0,0,0,171,22Z" transform="translate(0 -0.41)"/>
<path class="cls-3" d="M187.78,20.41a12.34,12.34,0,0,0-1.63.08V18.41a10.6,10.6,0,0,0,1.59.09h2.71a8,8,0,0,0,1.55-.09,7.67,7.67,0,0,0-.05,1.07,13.15,13.15,0,0,0,1.82,6.73,13.77,13.77,0,0,0,2.72,3.27A12.46,12.46,0,0,0,199,31.3a7.77,7.77,0,0,0-1.45,1.92,17.06,17.06,0,0,1-4.13-4,13.1,13.1,0,0,1-1.5-2.52,11,11,0,0,1-.86-2.41,14.22,14.22,0,0,1-2.43,5.12,17,17,0,0,1-4.22,3.85A4.86,4.86,0,0,0,183,31.49a13.39,13.39,0,0,0,3.41-2.67,12.37,12.37,0,0,0,2.91-5,13.61,13.61,0,0,0,.58-3.41Z" transform="translate(0 -0.41)"/>
<path class="cls-3" d="M212.39,21.09a20.23,20.23,0,0,0,2.2-.09,24.43,24.43,0,0,0-.11,2.57,53.68,53.68,0,0,1-.39,6.32c-.22,1.57-.46,2.16-1,2.54a3.33,3.33,0,0,1-2,.46,20.53,20.53,0,0,1-2.6-.19,8.11,8.11,0,0,0-.47-2.06,15.11,15.11,0,0,0,2.92.34c.8,0,1-.3,1.24-1.44a49,49,0,0,0,.39-6.63H208a14.71,14.71,0,0,1-1.55,5.66,11.91,11.91,0,0,1-4.9,4.54,5.5,5.5,0,0,0-1.41-1.77,9,9,0,0,0,4.8-4.23,12.73,12.73,0,0,0,1.06-4.2h-3a16.56,16.56,0,0,0-2.11.1V21a15.64,15.64,0,0,0,2.16.12h3V19.39a9,9,0,0,0-.1-1.64h2.26a20.11,20.11,0,0,0-.19,3.38Z" transform="translate(0 -0.41)"/>
<path class="cls-3" d="M86.88,25.41a10.92,10.92,0,0,1-11.06,10.7h-43a10.91,10.91,0,0,1-11-10.7,10.9,10.9,0,0,1,11.05-10.7h43A10.92,10.92,0,0,1,86.88,25.41Z" transform="translate(0 -0.41)"/>
<path class="cls-2" d="M32.1,27a1.89,1.89,0,0,0,.36,1.12,2.24,2.24,0,0,0,1.86.75c1.28,0,2-.57,2-1.53a1.3,1.3,0,0,0-.64-1.17,8.17,8.17,0,0,0-2.22-.63,4.52,4.52,0,0,1-1.93-.77,2.51,2.51,0,0,1-1-2.07c0-1.77,1.43-2.92,3.62-2.92a3.75,3.75,0,0,1,3.25,1.29,3.37,3.37,0,0,1,.6,1.48l-1.82.21a1.76,1.76,0,0,0-.38-.9,2,2,0,0,0-1.6-.61c-1.11,0-1.86.56-1.86,1.39a1.21,1.21,0,0,0,.87,1.16,11.32,11.32,0,0,0,1.8.46,5.75,5.75,0,0,1,2.08.77,2.54,2.54,0,0,1,1,2.2,3,3,0,0,1-.8,2.17,4.21,4.21,0,0,1-3,1,5.23,5.23,0,0,1-2.68-.67,2.93,2.93,0,0,1-1.12-1.45,4.79,4.79,0,0,1-.24-1.06Z" transform="translate(0 -0.41)"/>
<path class="cls-2" d="M44.19,28.54a10.22,10.22,0,0,0,.11,1.66H42.37a10.21,10.21,0,0,0,.1-1.66v-7H40.75a12.83,12.83,0,0,0-1.75.09V20a12.68,12.68,0,0,0,1.74.09h5A14.64,14.64,0,0,0,47.61,20v1.71a11.72,11.72,0,0,0-1.87-.09h-1.6Z" transform="translate(0 -0.41)"/>
<path class="cls-2" d="M56,30.29a11.2,11.2,0,0,0-1.64-.09H48.74a10.53,10.53,0,0,0,.1-1.68v-6.9a13,13,0,0,0-.1-1.65h5.47a14.88,14.88,0,0,0,1.64-.09v1.68a11.2,11.2,0,0,0-1.64-.09H50.55V24.1h3.1A11.55,11.55,0,0,0,55.31,24v1.67a11.55,11.55,0,0,0-1.66-.09H50.54v3h3.83a11.09,11.09,0,0,0,1.63,0Z" transform="translate(0 -0.41)"/>
<path class="cls-2" d="M57.49,30.2a10,10,0,0,0,.1-1.64v-6.9a11.42,11.42,0,0,0-.1-1.65h4.29a3.63,3.63,0,0,1,2.71.9,3,3,0,0,1,.79,2.2,3.26,3.26,0,0,1-.85,2.34,3.61,3.61,0,0,1-2.72.92H59.28V28.5a10.21,10.21,0,0,0,.1,1.66ZM61.71,25a1.61,1.61,0,0,0,1.81-1.75,1.55,1.55,0,0,0-1.38-1.7,1.24,1.24,0,0,0-.43,0H59.28V25Z" transform="translate(0 -0.41)"/>
<path class="cls-2" d="M73.68,30.2a10.21,10.21,0,0,0,.1-1.66v-7h-.61a11.38,11.38,0,0,0-1.31.08V20a6,6,0,0,0,1.27.08h1.18a8.1,8.1,0,0,0,1.3-.07,18.63,18.63,0,0,0-.1,2.11v6.45a10.21,10.21,0,0,0,.1,1.66Z" transform="translate(0 -0.41)"/>
<path class="cls-2" d="M380.48,20.41a12.56,12.56,0,0,0-1.64.08V18.41a10.73,10.73,0,0,0,1.6.09h2.71a10,10,0,0,0,1.54-.09,7.67,7.67,0,0,0-.05,1.07,13.15,13.15,0,0,0,1.82,6.73,13.77,13.77,0,0,0,2.72,3.27,12.51,12.51,0,0,0,2.51,1.83,7.73,7.73,0,0,0-1.44,1.92,17.06,17.06,0,0,1-4.13-4,13.1,13.1,0,0,1-1.5-2.52,11,11,0,0,1-.86-2.41,14.26,14.26,0,0,1-2.43,5.11,17,17,0,0,1-4.22,3.85,4.87,4.87,0,0,0-1.39-1.79,13.39,13.39,0,0,0,3.41-2.67,12.37,12.37,0,0,0,2.91-5,13.43,13.43,0,0,0,.56-3.39Z" transform="translate(0 -0.41)"/>
<path class="cls-2" d="M405.09,21.09a16,16,0,0,0,2.19-.09c-.06.67-.06.67-.1,2.57-.05,2.33-.22,5.2-.39,6.32-.22,1.57-.46,2.16-1,2.54a3.41,3.41,0,0,1-2,.46,20.53,20.53,0,0,1-2.6-.19,8.11,8.11,0,0,0-.47-2.06,15.11,15.11,0,0,0,2.92.34c.8,0,1.05-.3,1.24-1.44a49,49,0,0,0,.39-6.63h-4.61a14.52,14.52,0,0,1-1.54,5.66,11.91,11.91,0,0,1-4.9,4.54,5.5,5.5,0,0,0-1.41-1.77,9,9,0,0,0,4.8-4.23,13,13,0,0,0,1.07-4.2h-3a16.56,16.56,0,0,0-2.11.1V21a15.64,15.64,0,0,0,2.16.12h3V19.39a10,10,0,0,0-.1-1.64H401a20.11,20.11,0,0,0-.19,3.38Z" transform="translate(0 -0.41)"/>
<path class="cls-2" d="M422.81,27.55a6.19,6.19,0,0,0-1.13,1.6,12.71,12.71,0,0,1-4.09-4.32,7.4,7.4,0,0,1-.82,1.61,9.76,9.76,0,0,1-3.23,3A6.09,6.09,0,0,0,412.45,28v3.3a13.33,13.33,0,0,0,.09,2h-2.09a14,14,0,0,0,.12-2.05V21.6A15.18,15.18,0,0,0,410.5,20a14.8,14.8,0,0,0,2,.08h4.16v-.91a8.41,8.41,0,0,0-.1-1.5h2.12a4.81,4.81,0,0,0-.1.85c0,.24,0,.24-.05.94V20h4.33A13.93,13.93,0,0,0,424.8,20a15.18,15.18,0,0,0-.07,1.65v9.74c0,.71-.05,1-.25,1.22-.38.48-1,.61-2.59.61h-1.65a5.88,5.88,0,0,0-.52-1.93,16.33,16.33,0,0,0,2.21.18c.83,0,.92-.05.92-.54Zm-10.36.27a7.68,7.68,0,0,0,2.82-2.55,8.63,8.63,0,0,0,1.21-3.54h-4Zm5.88-6.09c-.05.43-.06.51-.11.82a9.91,9.91,0,0,0,1.92,2.86,11.3,11.3,0,0,0,2.67,2V21.73Z" transform="translate(0 -0.41)"/>
<path class="cls-2" d="M429.5,28.58l-1.81,1a5.6,5.6,0,0,0-.89-1.67A23.09,23.09,0,0,0,430.64,26a17.3,17.3,0,0,0,2.26-1.84,6.37,6.37,0,0,0,.87-1h1.73a10.54,10.54,0,0,0,3.37,3,20.91,20.91,0,0,0,3.71,1.66,5.66,5.66,0,0,0-.87,1.82,17.77,17.77,0,0,1-1.94-1v3.2a10.53,10.53,0,0,0,.1,1.68H438v-.73h-6.66v.66H429.4a12,12,0,0,0,.1-1.7Zm4-9.87a4.79,4.79,0,0,0-.09-1.07h2.09a4.27,4.27,0,0,0-.1,1.07v.22h4.73a16.61,16.61,0,0,0,1.89-.07A7.37,7.37,0,0,0,442,20.1v1.31a7.79,7.79,0,0,0,.07,1.28h-1.84v-2H429.11v2h-1.85a6.83,6.83,0,0,0,.09-1.28V20.1a7.19,7.19,0,0,0-.07-1.24c.61.05,1.19.07,1.87.07h4.35Zm-.09,3A13.19,13.19,0,0,1,431.05,24a13.46,13.46,0,0,1-2.41,1.46A6.7,6.7,0,0,0,427.41,24a11.72,11.72,0,0,0,2.23-1.14,9.58,9.58,0,0,0,2.26-2ZM431.31,31H438V28.79h-6.66Zm6.2-3.82a12,12,0,0,1-2.84-2.62,14.57,14.57,0,0,1-2.92,2.62Zm-.37-6.39a11.27,11.27,0,0,0,4.81,3,8,8,0,0,0-.95,1.65,13.31,13.31,0,0,1-5.3-3.67Z" transform="translate(0 -0.41)"/>
<path class="cls-2" d="M451.18,28c-1,2.19-2.06,3.2-3.45,3.2-1.94,0-3.33-2-3.33-4.71a7.29,7.29,0,0,1,1.87-5,7.6,7.6,0,0,1,5.84-2.38c4.08,0,6.74,2.48,6.74,6.31a6.56,6.56,0,0,1-4.14,6.34,10.67,10.67,0,0,1-2.66.71,5.38,5.38,0,0,0-1-2,9,9,0,0,0,3.38-.93,4.76,4.76,0,0,0,2.32-4.22,4.2,4.2,0,0,0-2.09-3.77,3.61,3.61,0,0,0-1.66-.53A24.8,24.8,0,0,1,451.18,28ZM448.68,22a5.64,5.64,0,0,0-2.31,4.58c0,1.4.59,2.5,1.34,2.5.56,0,1.14-.71,1.75-2.17a21.9,21.9,0,0,0,1.41-5.75A4.28,4.28,0,0,0,448.68,22Z" transform="translate(0 -0.41)"/>
<path class="cls-2" d="M466.24,30.91a11.48,11.48,0,0,0,.05,1.31h-1.56v-.75h-1.21v1.6h-1.7a12.84,12.84,0,0,0,.1-1.75v-3.5a12.57,12.57,0,0,1,.05-1.31,5.27,5.27,0,0,1-.91,1.55,7.48,7.48,0,0,0-.65-2.11,10.27,10.27,0,0,0,1.89-3.54,11.86,11.86,0,0,0,.54-2.43h-.37a10.07,10.07,0,0,0-1.45.08V18.2a11.06,11.06,0,0,0,1.63.1h2a11.06,11.06,0,0,0,1.63-.1V20a6.73,6.73,0,0,0-1-.07h-.66a20,20,0,0,1-1,3.74h1.66c.33,0,.67,0,1-.05,0,.35,0,.75,0,1.26v.37a11.43,11.43,0,0,0,3-4.47h-1v1.73h-1.68a8,8,0,0,0,.07-1.1V20a6,6,0,0,0,0-.85,7.35,7.35,0,0,0,1.24.05h2a15.84,15.84,0,0,0,.36-1.66l1.92.24c0,.12-.18.59-.44,1.42h3.09a9.43,9.43,0,0,0,1.5-.08q0,.63,0,1.26v2.11h-1.78V20.8h-3.37A16.52,16.52,0,0,1,470,23.18h1.63a8.8,8.8,0,0,0,.7-1.85l1.66.35a9,9,0,0,1-.64,1.5h1.22a9.52,9.52,0,0,0,1.41-.07v1.63a10.32,10.32,0,0,0-1.36-.06H473V25.9h1.26a9.72,9.72,0,0,0,1.43-.07v1.58a13.31,13.31,0,0,0-1.41-.07H473v1.24h1.26a11.32,11.32,0,0,0,1.43-.06v1.53a9.52,9.52,0,0,0-1.41-.07H473v1.24h1.67a8.59,8.59,0,0,0,1.6-.09v1.72a12.78,12.78,0,0,0-1.64-.1h-5.3v.76h-1.8a13.44,13.44,0,0,0,.1-1.9V26.14a6.17,6.17,0,0,1-.76.93,7.46,7.46,0,0,0-.63-1.1Zm-2.72-1.08h1.21V25.32h-1.21Zm7.82-3.93V24.68h-2.06V25.9Zm-2.06,2.63h2.06V27.29h-2.06Zm0,2.64h2.06V29.93h-2.06Z" transform="translate(0 -0.41)"/>
<path class="cls-2" d="M477.85,20.6a8.87,8.87,0,0,0,1.36.08h3.27a8.86,8.86,0,0,0,1.36-.07v1.74a11.3,11.3,0,0,0-1.3-.05h-3.33a10.32,10.32,0,0,0-1.36.06Zm.56-2.4a7.11,7.11,0,0,0,1.38.08h2.26a7.11,7.11,0,0,0,1.38-.08v1.7a10.63,10.63,0,0,0-1.38-.07h-2.26a10.63,10.63,0,0,0-1.38.07Zm4.93,13.67a8.1,8.1,0,0,0,.07,1.3H481.8v-.59h-1.69v.83h-1.7c0-.56.09-1.12.09-1.66V29.23a11.9,11.9,0,0,0-.07-1.34,9.88,9.88,0,0,0,1.33.07h2.48a7.39,7.39,0,0,0,1.15-.06,10.12,10.12,0,0,0-.05,1.23v2.12a9.11,9.11,0,0,0,1.06-3.92l1.46.32a15.67,15.67,0,0,1-1.14,4.66l-1.38-.82Zm-4.88-8.74a9.76,9.76,0,0,0,1.08.05h2.8a8.37,8.37,0,0,0,1-.05v1.58c-.33,0-.67-.05-1-.05h-2.8a9.76,9.76,0,0,0-1.08.05Zm0,2.38a9.73,9.73,0,0,0,1.08,0h2.78a9.37,9.37,0,0,0,1.06,0v1.58a9.58,9.58,0,0,0-1.07-.05h-2.79c-.35,0-.71,0-1.06.05Zm1.6,5.57h1.74V29.41h-1.74Zm4.8-10.35c.95.31,1.29.44,1.93.7a5.93,5.93,0,0,0,.28-1.38h-1.13a11,11,0,0,0-1.81.09V18.33a13,13,0,0,0,1.87.08h5.4a14.23,14.23,0,0,0,1.6,0c0,.27,0,.29-.1,1.48a27.49,27.49,0,0,1-.46,4.25c-.31,1.34-.78,1.7-2.18,1.7a12,12,0,0,1-1.34-.07,6.32,6.32,0,0,0-.42-1.7h.1a8.24,8.24,0,0,0-1-.57,8.35,8.35,0,0,1-3.13,3,5.94,5.94,0,0,0-1.19-1.36,6.05,6.05,0,0,0,2.85-2.34,19.66,19.66,0,0,0-2-.78Zm2.95,10.34c0,.39.09.44.73.44,1,0,1.19-.05,1.31-.31a6.4,6.4,0,0,0,.19-1.85,5.88,5.88,0,0,0,1.58.53c-.19,2.92-.49,3.24-2.94,3.24-2.09,0-2.52-.2-2.52-1.25V28.41a10.36,10.36,0,0,0-.08-1.25h1.82a4.93,4.93,0,0,0-.09,1.08Zm.16-6a14.64,14.64,0,0,1,2.63,2.34l-1.27,1.11A10.43,10.43,0,0,0,486.76,26Zm.8-5a9.2,9.2,0,0,1-.48,2.06c.49.25.71.37,1.43.76L489,24.13a5.82,5.82,0,0,0,.93.07c.53,0,.7-.14.85-.73a17.1,17.1,0,0,0,.34-3.42Zm3.33,7.12a21.4,21.4,0,0,1,1.87,4l-1.45.89a12.74,12.74,0,0,0-1.8-4.12Z" transform="translate(0 -0.41)"/>
<path class="cls-3" d="M364.57,25.41a10.9,10.9,0,0,1-11.05,10.7h-43a10.91,10.91,0,0,1-11-10.7,10.9,10.9,0,0,1,11.05-10.7h43A10.91,10.91,0,0,1,364.57,25.41Z" transform="translate(0 -0.41)"/>
<path class="cls-2" d="M309.8,27a1.81,1.81,0,0,0,.36,1.12,2.24,2.24,0,0,0,1.86.75c1.28,0,2-.57,2-1.53a1.3,1.3,0,0,0-.63-1.17,8.54,8.54,0,0,0-2.22-.63,4.52,4.52,0,0,1-1.93-.77,2.51,2.51,0,0,1-1-2.07c0-1.77,1.43-2.92,3.62-2.92A3.74,3.74,0,0,1,315,21.11a3.35,3.35,0,0,1,.62,1.48l-1.82.21a1.76,1.76,0,0,0-.38-.9,2,2,0,0,0-1.6-.61c-1.11,0-1.86.56-1.86,1.39a1.21,1.21,0,0,0,.87,1.16,11.32,11.32,0,0,0,1.8.46,5.7,5.7,0,0,1,2.07.77,2.51,2.51,0,0,1,1.06,2.2,3,3,0,0,1-.8,2.17,4.2,4.2,0,0,1-3,1,5,5,0,0,1-2.68-.67,2.93,2.93,0,0,1-1.12-1.45,3.88,3.88,0,0,1-.24-1.06Z" transform="translate(0 -0.41)"/>
<path class="cls-2" d="M321.89,28.54a11.47,11.47,0,0,0,.1,1.66h-1.92a11.47,11.47,0,0,0,.1-1.66v-7h-1.72a12.83,12.83,0,0,0-1.75.09V20a12.68,12.68,0,0,0,1.74.09h5.05a14.64,14.64,0,0,0,1.87-.09v1.71a11.72,11.72,0,0,0-1.87-.09h-1.6Z" transform="translate(0 -0.41)"/>
<path class="cls-2" d="M333.7,30.29a11.41,11.41,0,0,0-1.65-.09h-5.61a10.53,10.53,0,0,0,.1-1.68v-6.9a13,13,0,0,0-.1-1.65h5.47a14.88,14.88,0,0,0,1.64-.09v1.68a11.2,11.2,0,0,0-1.64-.09h-3.68V24.1h3.1A11.55,11.55,0,0,0,333,24v1.67a11.55,11.55,0,0,0-1.66-.09h-3.11v3h3.83a11.14,11.14,0,0,0,1.63-.09Z" transform="translate(0 -0.41)"/>
<path class="cls-2" d="M335.19,30.2a11.2,11.2,0,0,0,.1-1.64v-6.9a13,13,0,0,0-.1-1.65h4.28a3.61,3.61,0,0,1,2.72.9,3,3,0,0,1,.79,2.2,3.26,3.26,0,0,1-.85,2.34,3.61,3.61,0,0,1-2.72.92H337V28.5a10.22,10.22,0,0,0,.11,1.66ZM339.41,25a1.61,1.61,0,0,0,1.8-1.39,1.45,1.45,0,0,0,0-.36,1.55,1.55,0,0,0-1.38-1.7,1.24,1.24,0,0,0-.43,0H337V25Z" transform="translate(0 -0.41)"/>
<path class="cls-2" d="M349.93,30.2a10.13,10.13,0,0,0-1.65.07,6.54,6.54,0,0,1,.33-1.64,6.35,6.35,0,0,1,1.75-2.5,17.8,17.8,0,0,1,2.11-1.54c1.17-.8,1.53-1.23,1.53-1.88,0-.86-.68-1.4-1.76-1.4a1.81,1.81,0,0,0-1.62.75,2.48,2.48,0,0,0-.4,1.18L348.4,23a3.82,3.82,0,0,1,.88-2,3.69,3.69,0,0,1,2.92-1.14c2.23,0,3.61,1.08,3.61,2.82a2.57,2.57,0,0,1-.91,2,13.68,13.68,0,0,1-2.14,1.57,11.57,11.57,0,0,0-1.52,1.28,3.31,3.31,0,0,0-.73,1.15h3.58a12.9,12.9,0,0,0,1.86-.11v1.69c-.6-.05-1.11-.08-1.93-.08Z" transform="translate(0 -0.41)"/>
<path class="cls-2" d="M642.94,24.13a7.71,7.71,0,0,0,1.36.09h1.27a11.15,11.15,0,0,0,1.29-.07q-.08.92-.06,1.83v3.56a2.6,2.6,0,0,0,1,1.08c.78.51,1.68.65,4.23.65a50,50,0,0,0,6.81-.37,7.64,7.64,0,0,0-.51,2l-1.88.07h-3.88a20.18,20.18,0,0,1-4.25-.3A4.08,4.08,0,0,1,645.94,31a15.72,15.72,0,0,1-2,1.64,6,6,0,0,0-.56.44l-.82-1.94A9.3,9.3,0,0,0,645,29.54V25.88h-.93a5.48,5.48,0,0,0-1.14.09Zm1.48-6.19A24.29,24.29,0,0,1,647.36,21L646,22.41a19,19,0,0,0-2.89-3.18Zm5.16,4.19c-.51,0-1,0-1.53.08v-1.8c.51.05,1,.08,1.55.08h.66a8.34,8.34,0,0,0-1.2-2.19l1.63-.76A12.1,12.1,0,0,1,652,19.76l-1.48.73h2.73a13.37,13.37,0,0,0,1.38-2.94l1.84.61c-.21.36-.21.36-.6,1.13-.24.44-.42.78-.68,1.2h1a9.24,9.24,0,0,0,1.49-.08v1.8c-.56-.05-1.07-.08-1.63-.08h-2.43a17.8,17.8,0,0,1-.08,1.93h3.23A9.81,9.81,0,0,0,658.3,24v1.83c-.57,0-1.09-.08-1.69-.08H653.8a5.64,5.64,0,0,0,1.43,1.68,8.09,8.09,0,0,0,3.12,1.51,5.56,5.56,0,0,0-.85,1.81A8.44,8.44,0,0,1,654.29,29a7.49,7.49,0,0,1-1.6-1.9,5.72,5.72,0,0,1-1.56,2.05,9.2,9.2,0,0,1-2.46,1.57,4.64,4.64,0,0,0-1.19-1.62A7.75,7.75,0,0,0,650,27.72a4.78,4.78,0,0,0,1.34-2H649c-.53,0-1.06,0-1.58.08V24c.52.05,1.05.08,1.58.08h2.67a13.85,13.85,0,0,0,.08-1.93Z" transform="translate(0 -0.41)"/>
<path class="cls-2" d="M663.24,31.41a19,19,0,0,0,.08,2h-2a19,19,0,0,0,.1-2v-7a9.92,9.92,0,0,1-1.26,1.83,10.37,10.37,0,0,0-.78-2A12.49,12.49,0,0,0,662,19.9a10,10,0,0,0,.63-2.34l1.87.64a6,6,0,0,1-.34,1,17.38,17.38,0,0,1-1,2.5Zm.9-10.75a8.35,8.35,0,0,0,1.41.09h8.28a12.12,12.12,0,0,0,1.59-.1v1.76a14.12,14.12,0,0,0-1.59-.09h-8.28a8.35,8.35,0,0,0-1.41.09Zm2.63,12.75h-1.83a14.26,14.26,0,0,0,.06-1.6v-2.4a11.8,11.8,0,0,0-.07-1.46c.36,0,.82.05,1.4.05h6.44a11.28,11.28,0,0,0,1.44-.05,11.56,11.56,0,0,0-.06,1.44v2.38a10.72,10.72,0,0,0,.08,1.6h-1.87v-.78h-5.61Zm7.4-8.64a9.88,9.88,0,0,0-1.33-.07h-6.51a8.19,8.19,0,0,0-1.21.07V23.15a8.18,8.18,0,0,0,1.21.06h6.49a10.17,10.17,0,0,0,1.35-.06Zm0,2.4a9.5,9.5,0,0,0-1.31-.07h-6.53a7,7,0,0,0-1.21.07V25.54a7,7,0,0,0,1.21.07h6.51a9.88,9.88,0,0,0,1.33-.07Zm0-7.26a15.44,15.44,0,0,0-1.67-.07h-5.73a13.06,13.06,0,0,0-1.53.07V18.27a13.52,13.52,0,0,0,1.68.1h5.44a13.73,13.73,0,0,0,1.81-.1ZM672.38,31V29.57h-5.61V31Z" transform="translate(0 -0.41)"/>
<path class="cls-2" d="M679.08,27a12.27,12.27,0,0,0-1.82.11V25.2a10.05,10.05,0,0,0,1.82.1h11.13a9.94,9.94,0,0,0,1.81-.1v1.86a12.14,12.14,0,0,0-1.81-.11h-3.12v3.88c0,.41.22.47,1.63.47,1.26,0,1.65-.1,1.77-.45a5.91,5.91,0,0,0,.15-1.45v-.29a5.91,5.91,0,0,0,1.75.53c-.07,1.7-.27,2.45-.78,2.87s-1.19.51-3.37.51c-2.55,0-3-.24-3-1.46V27h-1.87a6.68,6.68,0,0,1-.87,3.23c-.83,1.46-1.92,2.21-4.66,3.27a8,8,0,0,0-1-1.75,11.4,11.4,0,0,0,2.58-1,3.87,3.87,0,0,0,2-2.84c0-.27.07-.44.12-.92Zm4.44-8a6.43,6.43,0,0,0-.11-1.24h2.09a7.38,7.38,0,0,0-.08,1.24v.41h4.71a14.6,14.6,0,0,0,1.89-.07,8,8,0,0,0-.07,1.29V22a8.1,8.1,0,0,0,.07,1.3h-1.84V21H679.11v2.26h-1.85a9.76,9.76,0,0,0,.09-1.32V20.56a9.3,9.3,0,0,0-.07-1.29c.62.05,1.23.08,1.85.07h4.39Zm-3.83,3.3a9.77,9.77,0,0,0,1.62.08H688a9.89,9.89,0,0,0,1.63-.08v1.82A11.14,11.14,0,0,0,688,24h-6.66a11,11,0,0,0-1.62.09Z" transform="translate(0 -0.41)"/>
<path class="cls-2" d="M697.08,20.29a18.09,18.09,0,0,0-2.33.12v-2c.65.06,1.33.1,2.31.1h8.69a14.24,14.24,0,0,0,1.85-.1l1.16,1.31c-.32.32-.37.38-.68.65a25.82,25.82,0,0,1-5.41,4.18v6.86c0,1.24-.62,1.67-2.51,1.67-.65,0-.87,0-2.4-.11a8.13,8.13,0,0,0-.49-2,14.9,14.9,0,0,0,2.67.25c.59,0,.76-.08.76-.4V24.49a16,16,0,0,0-.08-1.7h1.51a14.51,14.51,0,0,0,3.43-2.5Z" transform="translate(0 -0.41)"/>
<path class="cls-3" d="M631.57,25.41a10.9,10.9,0,0,1-11.05,10.7h-43a10.91,10.91,0,0,1-11-10.7,10.91,10.91,0,0,1,11-10.7h43A10.9,10.9,0,0,1,631.57,25.41Z" transform="translate(0 -0.41)"/>
<path class="cls-2" d="M576.8,27a1.81,1.81,0,0,0,.36,1.12,2.24,2.24,0,0,0,1.86.75c1.28,0,2-.57,2-1.53a1.3,1.3,0,0,0-.63-1.17,8.54,8.54,0,0,0-2.22-.63,4.52,4.52,0,0,1-1.93-.77,2.51,2.51,0,0,1-1-2.07c0-1.77,1.43-2.92,3.62-2.92A3.74,3.74,0,0,1,582,21.11a3.35,3.35,0,0,1,.62,1.48l-1.82.21a1.76,1.76,0,0,0-.38-.9,2,2,0,0,0-1.6-.61c-1.11,0-1.86.56-1.86,1.39a1.21,1.21,0,0,0,.87,1.16,11.32,11.32,0,0,0,1.8.46,5.7,5.7,0,0,1,2.07.77,2.51,2.51,0,0,1,1.06,2.2,3,3,0,0,1-.8,2.17,4.21,4.21,0,0,1-3,1,5,5,0,0,1-2.68-.67,2.93,2.93,0,0,1-1.12-1.45,3.88,3.88,0,0,1-.24-1.06Z" transform="translate(0 -0.41)"/>
<path class="cls-2" d="M588.89,28.54a11.47,11.47,0,0,0,.1,1.66h-1.92a11.47,11.47,0,0,0,.1-1.66v-7h-1.72a12.83,12.83,0,0,0-1.75.09V20a12.68,12.68,0,0,0,1.74.09h5a14.64,14.64,0,0,0,1.87-.09v1.71a11.72,11.72,0,0,0-1.87-.09h-1.6Z" transform="translate(0 -0.41)"/>
<path class="cls-2" d="M600.7,30.29a11.41,11.41,0,0,0-1.65-.09h-5.61a10.53,10.53,0,0,0,.1-1.68v-6.9a13,13,0,0,0-.1-1.65h5.47a14.88,14.88,0,0,0,1.64-.09v1.68a11.2,11.2,0,0,0-1.64-.09h-3.68V24.1h3.1A11.55,11.55,0,0,0,600,24v1.67a11.55,11.55,0,0,0-1.66-.09h-3.11v3h3.83a11.14,11.14,0,0,0,1.63-.09Z" transform="translate(0 -0.41)"/>
<path class="cls-2" d="M602.19,30.2a11.2,11.2,0,0,0,.1-1.64v-6.9a13,13,0,0,0-.1-1.65h4.28a3.61,3.61,0,0,1,2.72.9,3,3,0,0,1,.79,2.2,3.26,3.26,0,0,1-.85,2.34,3.62,3.62,0,0,1-2.72.92H604V28.5a10.22,10.22,0,0,0,.11,1.66ZM606.41,25a1.61,1.61,0,0,0,1.8-1.39,1.45,1.45,0,0,0,0-.36,1.55,1.55,0,0,0-1.38-1.7,1.24,1.24,0,0,0-.43,0H604V25Z" transform="translate(0 -0.41)"/>
<path class="cls-2" d="M616.94,27.41a1.68,1.68,0,0,0,.6,1.05,2.37,2.37,0,0,0,1.54.5c1.27,0,2.07-.65,2.07-1.66a1.49,1.49,0,0,0-.71-1.34,3.38,3.38,0,0,0-1.47-.31,12.44,12.44,0,0,0-1.37.07V24.16a8.58,8.58,0,0,0,1.24.06c1.28,0,2-.59,2-1.57s-.6-1.38-1.68-1.38a2,2,0,0,0-1.39.4,1.86,1.86,0,0,0-.54,1l-1.82-.31a3.12,3.12,0,0,1,1.21-1.82,4.18,4.18,0,0,1,2.5-.7c2.13,0,3.51,1.07,3.51,2.73a2.33,2.33,0,0,1-.88,1.87,3.28,3.28,0,0,1-1.24.5,2.68,2.68,0,0,1,1.82.86,2.42,2.42,0,0,1,.61,1.76,2.75,2.75,0,0,1-.76,1.86,4.46,4.46,0,0,1-3.14,1,4,4,0,0,1-3.24-1.21,3.32,3.32,0,0,1-.71-1.43Z" transform="translate(0 -0.41)"/>
</svg>