<svg id="レイヤー_1" data-name="レイヤー 1" xmlns="http://www.w3.org/2000/svg" viewBox="0 0 292 33"><defs><style>.cls-1{fill:#004021;}</style></defs><title>title</title><path class="cls-1" d="M1.4,20a27.93,27.93,0,0,1,3.37-1.26c.54,0,.62.47.65.87a4.71,4.71,0,0,0,.93,2.33c1.4,1.44,3.63,1.51,5.5,1.51a37.15,37.15,0,0,0,10.37-1.29,3.54,3.54,0,0,1,.83-.15c.39,0,.72.33.79,1.08a33.12,33.12,0,0,1,.21,3.81c0,.65-.35.83-1.25,1A60.2,60.2,0,0,1,12,28.9c-3.84,0-8-.43-10.41-3.81A9.43,9.43,0,0,1,0,21.14C0,20.53.9,20.17,1.4,20Zm5-14.59A24.85,24.85,0,0,0,13,6.18a31.88,31.88,0,0,0,5.82-.57,2.54,2.54,0,0,1,.57-.07c.79,0,.94.89,1,1.43.07,1,.11,2.09.11,3.13,0,.76-.11,1-.86,1.12a36,36,0,0,1-5.5.39c-2.37,0-7.89-.25-10-1.08a.91.91,0,0,1-.68-.82,37.92,37.92,0,0,1,.72-3.89.93.93,0,0,1,.93-.72A6.82,6.82,0,0,1,6.43,5.36ZM23.84,3.52c.5.47,2.84,2.66,2.84,3.24s-1.69,2-2.09,2c-.21,0-.5-.36-.86-.79-.11-.11-.18-.22-.29-.32a25.18,25.18,0,0,0-2-2.12C21.18,5.28,21,5.18,21,5c0-.51,1.83-1.84,2.23-1.84A1,1,0,0,1,23.84,3.52Zm6.32.07c0,.65-1.72,2.05-2.12,2.05-.22,0-.39-.25-.93-.93a29.58,29.58,0,0,0-2.27-2.34c-.1-.11-.32-.32-.32-.5,0-.58,1.87-1.87,2.19-1.87S30.16,3.06,30.16,3.59Z"/><path class="cls-1" d="M37.88,32a19.73,19.73,0,0,1-3.44.68c-1.12,0-1.58-1.54-1.87-2.41a6.06,6.06,0,0,1-.36-1.79c0-.76.54-.79,1.4-.87,2.91-.25,5.92-1,7.79-3.52a5.55,5.55,0,0,0,1.08-2.62.57.57,0,0,0-.58-.58.74.74,0,0,0-.68.47c-.14.39-.61.39-2.08.39H37c-.65,0-1-.1-1-.82,0-.9.07-2.23.07-3.45V5.93c0-1.11,0-2.19,0-3.31s.57-1.54,1.72-1.54,2.44.07,3.66.07H54.94c1.18,0,2.4-.07,3.62-.07s1.76.25,1.76,1.54c0,1.12-.07,2.2-.07,3.31V17.51c0,1.25.07,2.55.07,3.45,0,.75-.36.82-1.54.82H57.05c-1.29,0-1.75,0-2-.39s-.25-.47-.57-.47H54.4a.57.57,0,0,0-.58.58v3.92c0,1.61.11,1.94,1.76,1.94H57c2.15,0,2.22-.58,2.44-3.31,0-.5.29-.65.79-.65,1,0,3.84.58,3.84,2.16a10.11,10.11,0,0,1-1.94,5.71c-.93,1-2.58,1-4,1H52c-2.15,0-3.41-.86-3.41-3.2,0-.54,0-1.76,0-2.41V21.93a1,1,0,0,0-1-1H45.13c-.14,0-.46,0-.46.25s.43.36,1,.58c.93.36,2.58,1,2.58,1.51s-.5.54-.82.61a.64.64,0,0,0-.43.39C45.31,28.47,42.15,30.81,37.88,32ZM41.22,6.4a.46.46,0,0,0,.47.47h13a.45.45,0,0,0,.43-.47V6.22a.45.45,0,0,0-.43-.47h-13a.48.48,0,0,0-.47.47Zm0,4.82a.47.47,0,0,0,.47.46h13a.44.44,0,0,0,.43-.46V11a.45.45,0,0,0-.43-.47h-13a.46.46,0,0,0-.47.47Zm0,4.92a.46.46,0,0,0,.47.47h13a.43.43,0,0,0,.43-.47V16a.43.43,0,0,0-.43-.47h-13a.44.44,0,0,0-.47.47Z"/><path class="cls-1" d="M94,20.6c1.51,0,3-.07,4.53-.07.82,0,.89.36.89,1.43v1.62c0,1-.07,1.4-.86,1.4-1.54,0-3-.07-4.56-.07H88A1,1,0,0,0,86.93,26v2.44c0,4.18-2.08,4.43-6.86,4.43-1.61,0-2.22-.08-2.65-.79a6.25,6.25,0,0,1-.58-2.7c0-.9.29-1.44,1.26-1.44.68,0,1.43.07,2.37.07s1.15-.28,1.15-1V26a1,1,0,0,0-1.12-1H74.15c-1.54,0-3.05.07-4.6.07-.79,0-.86-.39-.86-1.43V22c0-1.07.07-1.43.9-1.43,1.51,0,3,.07,4.56.07H80.5c.54,0,1-.18,1-.83,0-.21-.08-.68-.08-.93,0-.51.36-.54.76-.54h.82A2.33,2.33,0,0,0,84.78,17c0-.18-.36-.18-.79-.18H80.11c-1.22,0-2.44.08-3.66.08-.86,0-.94-.33-.94-1.3V13.77c0-1,.08-1.3.94-1.3,1.22,0,2.44.08,3.66.08h6.46c1.19,0,2.41,0,3.59,0,1,0,1.15.22,1.87,1.11a3.7,3.7,0,0,1,.9,1.66c0,.93-3.63,3.81-4.49,4.46-.25.18-.47.32-.47.57s.32.29.54.29Zm.54-14c0,.33.4.44.65.44.64,0,1.29,0,2,0C98.1,7,99,7.12,99,8.3c0,.87-.07,1.91-.07,3v.9c0,.79.11,1.54.11,2.12,0,1-.51,1.08-1.66,1.08H95.48c-1.19,0-1.69-.08-1.69-1.05,0-.68.11-1.36.11-2.05a1,1,0,0,0-1.15-1.15H75.33c-.82,0-1.18.4-1.18,1.23,0,.64.11,1.29.11,1.94,0,1-.51,1.08-1.65,1.08H70.74c-1.19,0-1.69-.08-1.69-1.05,0-.61.11-1.43.11-2.15v-.9c0-1.08-.07-2.12-.07-3,0-1.18,1-1.29,1.9-1.29.57,0,1.18,0,1.65,0,.29,0,.65-.11.65-.44a14.94,14.94,0,0,0-1.73-2.55,1.08,1.08,0,0,1-.32-.68c0-.79,2.69-2.16,3.7-2.16.61,0,1.15.65,2.08,1.91a9.26,9.26,0,0,1,1.4,2.51,1.07,1.07,0,0,1-.43.79.58.58,0,0,0-.14.33c0,.32.36.32.57.32h2.69c.26,0,.72,0,.72-.43a1.5,1.5,0,0,0-.25-.57c-.39-.69-1.47-2.38-1.94-3a.88.88,0,0,1-.25-.61c0-1,2.69-2.16,3.56-2.16.71,0,1.36,1,2.29,2.41A9.14,9.14,0,0,1,86.5,5.14c0,.58-1,1.19-1.47,1.44-.15.07-.25.18-.25.29s.14.21.39.21h1.72a1.65,1.65,0,0,0,1.69-.79,35.07,35.07,0,0,0,2.77-4.53c.14-.32.21-.65.64-.65s3.92,1.23,4.63,1.44c.51.15.76.25.76.65s-.4.47-.76.61-.61.22-.86.68a11.78,11.78,0,0,1-.61,1A5.57,5.57,0,0,0,94.54,6.61Z"/><path class="cls-1" d="M125.64.22c.32,0,4.59,1.43,5.17,1.65.25.07.5.21.5.5s-.29.51-.57.54a1.34,1.34,0,0,0-1.22.72,13.41,13.41,0,0,0-1.33,2c0,.47.54.47.86.47h1.4c1.51,0,3-.11,4.56-.11.79,0,.86.32.86,1.26v1.9c0,.94-.07,1.26-.86,1.26-1.51,0-3-.07-4.56-.07h-21c-1.51,0-3,.07-4.56.07-.79,0-.87-.36-.87-1.4V7.37c0-1,.08-1.4.9-1.4,1.51,0,3,.11,4.53.11h1.32c.36,0,.9,0,.9-.47,0-.18-.28-.54-.39-.76-.36-.5-.61-.86-1-1.33-.21-.25-.75-.86-.75-1.18,0-.83,3.41-2,4.16-2a.88.88,0,0,1,.79.47,18.2,18.2,0,0,1,1.26,1.8A15.78,15.78,0,0,1,117,4.92c0,.29-.43.54-.61.65s-.25.11-.25.25.32.26.5.26h4.24a1.83,1.83,0,0,0,1.79-.83A50.28,50.28,0,0,0,125.1.75C125.24.47,125.32.22,125.64.22ZM111.67,26a1,1,0,0,0-1,1V28.9c0,1.37.07,2.41.07,3.24s-.4.82-1.51.82H107.4c-1.08,0-1.51-.07-1.51-.79,0-1,.07-2.19.07-3.27V16.57c0-1-.07-2.08-.07-3.13,0-1.36.79-1.58,2-1.58,1,0,2,.07,3.08.07h3.31c1,0,1.94-.07,2.91-.07,1.22,0,2.19.07,2.19,1.58,0,.83-.08,2-.08,3.13V27c0,.65,0,1.3,0,1.94a3.47,3.47,0,0,1-1.08,2.92,7.48,7.48,0,0,1-3.95,1c-.89,0-1.72-.08-2.08-.83a7.87,7.87,0,0,1-.47-2.7c0-1.15.18-1.25,1.08-1.25h1c.58,0,.9-.11.9-.76s0-1.37-1.11-1.37Zm2.44-8.41a.57.57,0,0,0,.58-.57v-.18a.57.57,0,0,0-.58-.58h-2.87a.57.57,0,0,0-.57.58V17a.56.56,0,0,0,.57.57ZM111.24,21a.59.59,0,0,0-.57.57v.26a.56.56,0,0,0,.57.57h2.87a.57.57,0,0,0,.58-.57V21.6a.62.62,0,0,0-.58-.57Zm15.37.9c0,1.4.11,2.87.11,3.77,0,.69-.4.76-1.19.76h-2.08c-1.15,0-1.47-.07-1.47-.72,0-1.26.07-2.52.07-3.81V15.39c0-1.51-.11-2-.11-2.27s.36-.36.61-.36c.65,0,3.3.15,4,.18.36,0,.86,0,.86.43,0,.18-.28.43-.46.54s-.36.22-.36,1.4Zm7.25,4.1c0,.36.07,1.4.07,2.12a4.7,4.7,0,0,1-.86,3.38C131.71,32.93,129,33,127.15,33a1.76,1.76,0,0,1-1.55-.5,5.69,5.69,0,0,1-.75-3c0-.64,0-1.76.82-1.76a5.85,5.85,0,0,1,.72.07c.22,0,1.26.08,1.62.08,1,0,1.08-.29,1.08-1.44V14.74a18.83,18.83,0,0,0-.11-2.63,1,1,0,0,1,0-.28c0-.43.47-.43.9-.43l4,.18c.33,0,.87.1.87.5s-.25.43-.47.57-.36.54-.36,2.41Z"/><path class="cls-1" d="M151,28.9c-.61.58-2.87,2.66-3.63,2.66s-4.45-2.87-4.45-3.66c0-.22.29-.4,1-.83a16,16,0,0,0,7.79-11.36,19.93,19.93,0,0,0,.15-2.63c0-.07,0-.1,0-.17,0-.29,0-.4.36-.4,1,0,4.56.14,5.39.25.61.07.71.22.71.4s-.1.21-.14.32a.37.37,0,0,0-.07.14.29.29,0,0,0,.32.29.3.3,0,0,0,.25-.11c.29-.25,2.55-2.22,2.55-2.69,0-.22-.18-.4-.57-.4H147.4c-1.33,0-2.62,0-3.91,0-.51,0-1,0-1.51,0-1.11,0-1.15-.39-1.15-2.4V6.54c0-.79.14-1.26,1-1.26,1.83,0,3.66.08,5.53.08h15.8a19.82,19.82,0,0,0,3.3-.22,3.17,3.17,0,0,1,.61-.07c.65,0,1.08.47,1.55.93.6.61,2,2,2,2.84,0,.4-.4.72-.76,1-.14.14-.39.4-.5.54-2,2.26-4.17,4.42-6.36,6.51l-.32.32c-.64.65-1.33,1.26-1.76,1.26s-2.15-1.33-2.76-1.84a.63.63,0,0,0-.36-.1c-.43,0-.54.21-.65.64C156.09,21.71,154.44,25.59,151,28.9Z"/><path class="cls-1" d="M202.41,11.07c.07.11.11.25.21.4a5.72,5.72,0,0,1,.61,1.69c0,.86-2.9,3.63-3.66,4.35-5.78,5.64-11.56,8.88-18.74,12.33a1.57,1.57,0,0,0-1,.93.3.3,0,0,1-.29.22c-.28,0-.5-.33-.64-.58a30.61,30.61,0,0,1-1.69-2.77,9.18,9.18,0,0,1-1-2.15c0-.33.39-.51.68-.58A37.52,37.52,0,0,0,186.07,21c4.42-2.63,10-7.12,13-11.25.08-.11.15-.18.22-.29.32-.47.61-.86,1-.86C201,8.56,202.08,10.5,202.41,11.07ZM180.79,3.74a40.21,40.21,0,0,1,6.32,4.53.76.76,0,0,1,.33.64c0,1.05-2.55,4-3.38,4a1.57,1.57,0,0,1-.9-.54,36.59,36.59,0,0,0-6-4.21c-.28-.18-.64-.39-.64-.75,0-.72,2.15-4.14,3.19-4.14A3.61,3.61,0,0,1,180.79,3.74Z"/><path class="cls-1" d="M229.91,8.34c1.73,0,3.63-.11,4.71-.11s1.18.43,1.18,2.27v1.08c0,1.72,0,2.15-1.22,2.15-1.54,0-3.12-.07-4.67-.07h-.82c-.76,0-1.08.61-1.15,1.29a21.24,21.24,0,0,1-5.89,13.41c-1,1.05-4.41,4-5.78,4-.72,0-2-1.19-2.62-1.69-.36-.33-1.29-1.3-1.29-1.76s.72-.76,1-.94c4.85-2.69,7.75-5.75,8.76-11.29.07-.43.29-1.69.29-2a1,1,0,0,0-1-1h-2.76c-1.12,0-1.62.11-2.12.9C215.88,15.64,212,21,211,21a7.91,7.91,0,0,1-2.76-1.37c-.9-.64-1.65-1.33-1.65-1.76s.5-.72.75-.93c4.1-3.6,8.08-10.14,9-15.53.11-.51.18-.9.5-.9.47,0,3.63,1,4.31,1.22s1.76.5,1.76.86c0,.18-.18.29-.4.4-.72.39-.93,1.08-1.33,2.23-.14.43-.32.93-.53,1.51a3.25,3.25,0,0,0-.22.79c0,.54.36.75.83.79Z"/><path class="cls-1" d="M261.91,13.37c2.12,0,4.41-.14,4.74-.14.93,0,1.08.39,1.08,1.44v1.72c0,2,0,2.59-1.19,2.59-1.4,0-3.05-.11-4.63-.11H245.39c-1.58,0-3.26.11-4.59.11s-1.22-.68-1.22-2.59V14.74c0-1.08.1-1.51,1-1.51.5,0,2.51.14,4.77.14Z"/><path class="cls-1" d="M283,27c0,1.18,0,2.37,0,3.59,0,1.73-.1,1.87-2.44,1.87H279c-1.44,0-1.87-.18-1.87-1.11,0-1.44.07-2.84.07-4.28V6.33c0-1.48-.07-3.35-.07-4.46,0-.47.07-.68.57-.68a50.77,50.77,0,0,1,5.53.72c.22.07.4.21.4.43a.62.62,0,0,1-.22.43A1.87,1.87,0,0,0,283,4.06v7c0,.18,0,.5.43.5.21,0,.43-.14.61-.14a3.76,3.76,0,0,1,1.33.57c1.15.72,2.62,1.87,3.08,2.23a41.74,41.74,0,0,1,3.31,2.91,1,1,0,0,1,.25.58c0,.72-2.62,3.63-3.45,3.63-.32,0-.68-.36-.89-.58-.61-.57-3.56-3.23-4.13-3.23s-.54.5-.54.86Z"/></svg>