<svg id="レイヤー_1" data-name="レイヤー 1" xmlns="http://www.w3.org/2000/svg" viewBox="0 0 147 30"><defs><style>.cls-1{fill:#40220f;}.cls-2{fill:#fff;}</style></defs><title>btn-bukken</title><rect class="cls-1" width="147" height="30" rx="5"/><path class="cls-2" d="M25.46,16.09c-.94.78-1.36,1.41-1.36,2.06,0,1,1.09,1.39,3.63,1.39a16,16,0,0,0,4.7-.63L32.6,21a4.14,4.14,0,0,0-.66.06,26.28,26.28,0,0,1-4.05.33,10.75,10.75,0,0,1-3.75-.5,2.57,2.57,0,0,1-1.92-2.5c0-1.14.59-2.13,1.94-3.26ZM23.18,9.93a19.75,19.75,0,0,0,4.5.37,18.7,18.7,0,0,0,4-.28l.06,1.68a26.88,26.88,0,0,0-4,2.49l-1.31-1c.78-.49,1.52-.94,2.21-1.33a16,16,0,0,1-2.25.12,24.9,24.9,0,0,1-2.75-.18,4.61,4.61,0,0,0-.55,0Z"/><path class="cls-2" d="M41.39,17.74c-.86,1.94-1.82,2.82-3,2.82-1.71,0-2.94-1.74-2.94-4.15A6.48,6.48,0,0,1,37.05,12a6.73,6.73,0,0,1,5.16-2.1c3.6,0,5.94,2.19,5.94,5.57a5.78,5.78,0,0,1-3.64,5.59,9.85,9.85,0,0,1-2.36.63A4.72,4.72,0,0,0,41.24,20a7.81,7.81,0,0,0,3-.83A4.2,4.2,0,0,0,46.3,15.4a3.71,3.71,0,0,0-1.84-3.33A3.24,3.24,0,0,0,43,11.62,21.78,21.78,0,0,1,41.39,17.74Zm-2.21-5.37a5,5,0,0,0-2,4.05c0,1.23.53,2.21,1.19,2.21.49,0,1-.63,1.54-1.92a19.82,19.82,0,0,0,1.25-5.07A3.89,3.89,0,0,0,39.18,12.37Z"/><path class="cls-2" d="M62.67,10.81a7.29,7.29,0,0,0,1.24-.06,13.66,13.66,0,0,0-.09,1.89c-.11,5.1-.3,7.37-.7,8.4s-1,1.25-2.31,1.25c-.33,0-.71,0-1.44-.09A3.72,3.72,0,0,0,59,20.5a8.58,8.58,0,0,0,1.86.24c.6,0,.82-.31,1-1.38a55.84,55.84,0,0,0,.43-7.09h-.18a18.58,18.58,0,0,1-1.6,5.43,12.57,12.57,0,0,1-3.9,4.6,3.63,3.63,0,0,0-1.26-1.23,10.52,10.52,0,0,0,3.9-4.26,16.14,16.14,0,0,0,1.44-4.54H60a11.37,11.37,0,0,1-4,6.57,3.42,3.42,0,0,0-1.11-1.31A6.15,6.15,0,0,0,56.68,16a9.4,9.4,0,0,0,1.92-3.75h-.7a9.66,9.66,0,0,1-1.79,2.64,4.49,4.49,0,0,0-1.24-1.14,8,8,0,0,0,.72-.72,7.49,7.49,0,0,0-.84,0h-.36v2.8a12.45,12.45,0,0,0,1.41-.55v1.5l-1.42.6v3.4a15.87,15.87,0,0,0,.09,1.73H52.71a12.91,12.91,0,0,0,.1-1.73V17.94c-.61.22-1.06.37-1.35.46a6.41,6.41,0,0,0-.79.32l-.35-1.79a9,9,0,0,0,2.49-.58V13h-.75a16.65,16.65,0,0,1-.57,2.43,4.5,4.5,0,0,0-1.36-.81,8.74,8.74,0,0,0,.57-2.09,14,14,0,0,0,.19-2.11,4.72,4.72,0,0,0,0-.63l1.5.16c-.06.9-.07,1-.12,1.53h.57V9.81a6.89,6.89,0,0,0-.1-1.23h1.77a7.45,7.45,0,0,0-.09,1.23V11.5h.36a4,4,0,0,0,1-.07v1.44a8.89,8.89,0,0,0,1.07-2,9,9,0,0,0,.66-2.31l1.74.3c-.12.32-.12.32-.48,1.37l-.2.55Z"/><path class="cls-2" d="M67.67,16.42c0-.51,0-1,0-1.65a8.37,8.37,0,0,1-1.26,1.74,6.74,6.74,0,0,0-.67-1.84,13.12,13.12,0,0,0,2.57-4.26,9.27,9.27,0,0,0,.54-1.95l1.7.48-.24.67a19,19,0,0,1-1,2.63v8.5c0,.68,0,1.17.07,1.74h-1.8a12,12,0,0,0,.09-1.75Zm6.6-6.09a9.92,9.92,0,0,0-.1-1.57H76a7.83,7.83,0,0,0-.11,1.59v1.38H77.8a10.89,10.89,0,0,0,1.62-.09v1.71c-.68-.06-1.13-.09-1.61-.09H75.92v2.8h2.34A12.84,12.84,0,0,0,79.94,16V17.7a13.79,13.79,0,0,0-1.65-.09H75.92v3.12A9.15,9.15,0,0,0,76,22.45H74.17a11.88,11.88,0,0,0,.1-1.72V17.61H71.71A12.84,12.84,0,0,0,70,17.7V16a12.32,12.32,0,0,0,1.68.09h2.56v-2.8H72.2A10.77,10.77,0,0,1,71,15.45a5.66,5.66,0,0,0-1.34-1.08,11.77,11.77,0,0,0,1.62-3.09,8,8,0,0,0,.47-1.91l1.65.42c-.11.35-.14.44-.27.9l-.33,1h1.48Z"/><path class="cls-2" d="M82.46,10.45a17.49,17.49,0,0,0,3.48.2,6.08,6.08,0,0,0,.6-1.86l2,.21a11.46,11.46,0,0,0-.6,1.35c-.07.16-.1.21-.13.27a8.29,8.29,0,0,1,.94-.06,20.61,20.61,0,0,0,3.93-.51l.11,1.71c-.42,0-.42,0-1.19.12-1.09.13-3,.25-4.51.3a8.08,8.08,0,0,1-1.38,2v0A2.55,2.55,0,0,0,86,14a3.65,3.65,0,0,1,2.12-.68,2,2,0,0,1,2.14,1.59c1.16-.42,1.92-.69,2.3-.81a4.46,4.46,0,0,0,1.11-.45l.7,1.73a13.7,13.7,0,0,0-1.66.4c-.21.06-1,.32-2.25.77v.16c0,.39,0,.39,0,.6v.6c0,.26,0,.39,0,.5a6.11,6.11,0,0,0,0,.79l-1.74.05a11.92,11.92,0,0,0,.09-1.74v-.36a8.77,8.77,0,0,0-1.44.78,1.59,1.59,0,0,0-.78,1.23c0,.78.72,1.09,2.54,1.09a12.93,12.93,0,0,0,4.41-.63l.15,1.94a3.84,3.84,0,0,0-.69.06,28,28,0,0,1-3.84.27,6.47,6.47,0,0,1-3.35-.63,2.17,2.17,0,0,1-1.09-1.94,2.39,2.39,0,0,1,.66-1.66,7.36,7.36,0,0,1,3.22-2.12.82.82,0,0,0-.91-.81,5.11,5.11,0,0,0-3.08,1.55,6.69,6.69,0,0,0-1.3,1.36L82,16.27a9.65,9.65,0,0,0,1.34-1.33,19.41,19.41,0,0,0,1.8-2.57.62.62,0,0,1,.12-.19H85l-1.89,0h-.66Z"/><path class="cls-2" d="M100.11,18.06c-.72,0-1.23,0-1.62,0a11.42,11.42,0,0,0,.08-1.59V11c0-.83,0-1.49-.08-1.88a11.29,11.29,0,0,0,1.57.08H107a11.51,11.51,0,0,0,1.59-.08,16.3,16.3,0,0,0-.08,1.88v5.47a11.06,11.06,0,0,0,.08,1.59c-.39,0-1,0-1.59,0h-1.29v2.31c0,.42.13.46,1.3.46s1.46-.06,1.64-.31a4.86,4.86,0,0,0,.27-1.92,6.11,6.11,0,0,0,1.54.63c-.15,1.66-.3,2.22-.67,2.58s-1.07.51-2.76.51c-2.49,0-2.94-.21-2.94-1.34V18.06h-1.35a4.57,4.57,0,0,1-1.43,2.77,7.59,7.59,0,0,1-3.8,1.8,5,5,0,0,0-.87-1.47,7.31,7.31,0,0,0,2.92-1A3,3,0,0,0,101,18.06Zm0-6.35h6.76v-1h-6.76Zm0,2.42h6.76v-1h-6.76Zm0,2.47h6.76V15.54h-6.76Z"/><path class="cls-2" d="M117,15a7.29,7.29,0,0,1,3.15-.69c2.56,0,4.21,1.32,4.21,3.38a3.65,3.65,0,0,1-2,3.31,7.35,7.35,0,0,1-3.63.86,5.07,5.07,0,0,1-2.91-.69,2.14,2.14,0,0,1-.9-1.73,2.31,2.31,0,0,1,2.58-2.14,3.22,3.22,0,0,1,2.6,1.23,4,4,0,0,1,.69,1.35c1.24-.47,1.78-1.11,1.78-2.18s-1.15-1.93-3-1.93a9.19,9.19,0,0,0-6.17,2.52l-1-1.62a14.14,14.14,0,0,0,2.11-1.41A52.41,52.41,0,0,0,119,11.4l.27-.27v0c-.57.08-1.53.14-4.24.26a5,5,0,0,0-.72.07l-.08-1.8a13.62,13.62,0,0,0,1.77.09c1.27,0,3.1-.07,4.56-.18a2.17,2.17,0,0,0,.93-.19l.93,1.32a3,3,0,0,0-.78.61c-.75.69-1.85,1.67-2.36,2.1-.27.23-1.35,1-1.65,1.23A4.28,4.28,0,0,1,117,15Zm.45,3.74c-.54,0-.89.27-.89.69,0,.6.68.94,1.79.94a4.09,4.09,0,0,0,.78-.06C118.9,19.32,118.33,18.78,117.49,18.78Z"/></svg>