<svg id="レイヤー_1" data-name="レイヤー 1" xmlns="http://www.w3.org/2000/svg" viewBox="0 0 76 23"><defs><style>.cls-1{fill:#004021;}.cls-2{fill:#fff;}</style></defs><title>icon-pickup</title><rect class="cls-1" width="76" height="23"/><path class="cls-2" d="M13.37,13.32v3.47H11V6.46h2.82a6.51,6.51,0,0,1,3.63.8,2.78,2.78,0,0,1,1.14,2.43q0,3.63-4.12,3.63Zm0-1.76h.88a2.48,2.48,0,0,0,1.58-.44,1.56,1.56,0,0,0,.55-1.29,1.35,1.35,0,0,0-.51-1.16,2.73,2.73,0,0,0-1.62-.37h-.88Z"/><path class="cls-2" d="M20.25,8V6.19h2.39V8Zm0,8.77V9.44h2.39v7.35Z"/><path class="cls-2" d="M24.35,13.12a3.94,3.94,0,0,1,.94-2.84,3.49,3.49,0,0,1,2.67-1,10,10,0,0,1,2.33.27v1.75a7.13,7.13,0,0,0-2-.31,1.38,1.38,0,0,0-1.19.51,2.63,2.63,0,0,0-.39,1.61,2.51,2.51,0,0,0,.41,1.61,1.64,1.64,0,0,0,1.31.48,6.79,6.79,0,0,0,1.94-.3v1.74a10.12,10.12,0,0,1-2.3.28,3.79,3.79,0,0,1-2.78-1A3.87,3.87,0,0,1,24.35,13.12Z"/><path class="cls-2" d="M34.53,6.19v6h0l2.28-2.78h2.59l-3,3.54,3,3.81H36.84l-2.28-3h0v3H32.26V6.19Z"/><path class="cls-2" d="M44.88,9.44h2.21v4.27a2,2,0,0,0,.23,1.12.89.89,0,0,0,.76.3,1.24,1.24,0,0,0,.9-.4,1.22,1.22,0,0,0,.41-.87V9.44h2.27v7.35H49.5l0-.94h0a2.78,2.78,0,0,1-2.21,1.08,2.17,2.17,0,0,1-1.79-.69,3.88,3.88,0,0,1-.56-2.38Z"/><path class="cls-2" d="M53.53,9.44h2.16l0,.93h0a2.8,2.8,0,0,1,2.19-1.08,2.49,2.49,0,0,1,2.08,1,4.42,4.42,0,0,1,.79,2.83A4.37,4.37,0,0,1,60,15.91a2.52,2.52,0,0,1-2.06,1,3,3,0,0,1-2.09-.87h0v3.83H53.53Zm5,3.68c0-1.42-.47-2.13-1.4-2.13a1.4,1.4,0,0,0-1,.39,1.12,1.12,0,0,0-.44.85V14a1.14,1.14,0,0,0,.44.85,1.4,1.4,0,0,0,1,.39,1.19,1.19,0,0,0,1-.53A2.73,2.73,0,0,0,58.56,13.12Z"/><path class="cls-2" d="M62.8,6.46h2.86l-.35,7.07H63.14ZM63,16.79V14.66h2.44v2.13Z"/></svg>