<svg xmlns="http://www.w3.org/2000/svg" viewBox="0 0 276 173"><defs><style>.cls-1{isolation:isolate;}.cls-2{fill:#88272e;opacity:0.72;mix-blend-mode:multiply;}.cls-3{fill:#fff;}</style></defs><title>photo-seiyaku</title><g class="cls-1"><g id="レイヤー_1" data-name="レイヤー 1"><rect class="cls-2" width="276" height="173"/><path class="cls-3" d="M109,70.07a9.57,9.57,0,0,0-.07,1c0,2.75,1.73,4,5.45,4a15.53,15.53,0,0,0,5.11-.84.82.82,0,0,1,.39-.09,2.82,2.82,0,0,1,1.27.46,1.14,1.14,0,0,1,.51.81c0,.35-.26.61-.74.72a26.41,26.41,0,0,1-5.38.46c-2.59,0-4.23-.32-5.39-1.11a4.42,4.42,0,0,1-1.91-3.63,6.06,6.06,0,0,1,.37-2Zm.72-9.14a5.36,5.36,0,0,0,3.53,1,18.24,18.24,0,0,0,4.8-.69,2.17,2.17,0,0,1,.42-.1,1.58,1.58,0,0,1,1.38,1.21c0,.39-.13.48-1.68.81a17.88,17.88,0,0,0-3.37,1.13l-1.9.79c-.46.2-.46.2-.9.37l-.16-.35c.72-.42,1.09-.65,1.69-1,1.57-.86,1.57-.86,1.94-1.09-.51,0-1.32.07-1.74.07a6.32,6.32,0,0,1-2.63-.63,5.33,5.33,0,0,1-1.62-1.34Zm10.41-1.55c2.24.9,3.49,1.92,3.49,2.87,0,.6-.28,1.16-.6,1.16-.16,0-.3-.14-.46-.47A10.22,10.22,0,0,0,120,59.61ZM122.25,58a9.44,9.44,0,0,1,2.84,1.32,1.39,1.39,0,0,1,.69,1.23c0,.69-.2,1.2-.5,1.2s-.33-.16-.54-.55a9.39,9.39,0,0,0-2.63-3Z"/><path class="cls-3" d="M140.57,62.25A24.37,24.37,0,0,0,142,70a18.38,18.38,0,0,0,2.1-5.83c2.1.51,2.49.63,2.49.88s-.23.28-1,.49a23.65,23.65,0,0,1-2.92,5.92,11.13,11.13,0,0,0,3.58,4.14c.84-1.48,1.16-2.11,2.27-4.44l.28.07-1.14,4.37a2.52,2.52,0,0,0-.13.69c0,.19,0,.23.3.58a1.07,1.07,0,0,1,.27.67.67.67,0,0,1-.71.7c-.7,0-1.74-.7-3.1-2.06a14.77,14.77,0,0,1-2.52-3.36,17,17,0,0,1-2.28,2.39,20.55,20.55,0,0,1-4.85,3.16l-.19-.3a22.92,22.92,0,0,0,4.23-3.63,19.83,19.83,0,0,0,2.42-3,29.82,29.82,0,0,1-2-9.25h-7.3c0,2.06-.05,2.8-.12,4.19h4l.9-1c.62.44.81.58,1.38,1,.21.2.26.27.26.34s-.23.33-.86.63a30.07,30.07,0,0,1-.83,6.17,1.94,1.94,0,0,1-1,1.14,6.08,6.08,0,0,1-1.73.41c-.23-.85-.28-1-.53-1.18a4.23,4.23,0,0,0-1.83-.57l0-.35c1.69.18,2.73.28,3.1.28s.53-.14.71-.91a33.93,33.93,0,0,0,.51-5.43h-4.13a28.82,28.82,0,0,1-.56,4.72,16.54,16.54,0,0,1-1.68,4.51,12.27,12.27,0,0,1-1.62,2.29l-.3-.19a15.63,15.63,0,0,0,2-5.48,49.6,49.6,0,0,0,.63-9.32c0-1.34,0-1.94-.12-3a15.18,15.18,0,0,1,1.94,1.25H139c-.07-.74-.1-1.14-.12-1.76-.07-1.67-.07-1.87-.16-2.66l1,.12c1.25.11,1.55.18,1.55.39s-.14.28-.81.58c0,.64,0,1.15,0,1.48,0,.69,0,1.11.05,1.85h4.37c.6-.72.78-.93,1.36-1.6.92.77,1.2,1,2,1.81a.22.22,0,0,1,.09.18c0,.07-.11.14-.2.14Zm1.23-4.33a10.07,10.07,0,0,1,2.95.84,1.34,1.34,0,0,1,.7,1.32c0,.48-.21.87-.49.87s-.3-.09-.53-.39a10,10,0,0,0-2.73-2.4Z"/><path class="cls-3" d="M150.9,77.61a23,23,0,0,0,1.55-7.4c2.06.51,2.13.53,2.13.74s-.21.32-.72.44a26.86,26.86,0,0,1-2.54,6.38Zm.44-16.54a10.77,10.77,0,0,1,1.9,1,16.62,16.62,0,0,0,1.89-4.62c.56.18,1,.35,1.29.44,1.09.35,1.3.44,1.3.65s-.16.25-1.13.34a22,22,0,0,1-2.24,2.69l-.7.78a7.74,7.74,0,0,1,.9.7,1.52,1.52,0,0,1,.4.83,2.48,2.48,0,0,1-.33,1.06.46.46,0,0,1-.37.26c-.16,0-.25-.12-.44-.51-.09-.19-.57-1-.8-1.37a9.4,9.4,0,0,0-1.81-2Zm3.84,7.19c-.81.17-1,.21-2.7.47-.07.6-.24.88-.42.88s-.35-.26-.74-2.23H152l1.73,0a19.81,19.81,0,0,0,1.94-2.85,21.34,21.34,0,0,0,2.17-4.3l1.18.42c.92.32,1.15.46,1.15.62s-.27.35-1,.37a43.4,43.4,0,0,1-4.73,5.69c1,0,1.64-.09,4-.34a9.94,9.94,0,0,0-1-1.81l.25-.23A15.47,15.47,0,0,1,159.75,67a1.81,1.81,0,0,1,.55,1.13c0,.6-.43,1.25-.83,1.25-.2,0-.3-.14-.48-.86-.09-.3-.19-.57-.39-1.11,0,0-.74.19-2,.49v4.83l.05,5.42v.14c0,.23-.35.34-1.13.34-.23,0-.33-.07-.35-.25.05-3.24.05-3.63.05-5.65Zm2.56,1.62c1.64,2,2.43,3.4,2.43,4.24s-.54,1.75-1,1.75a.32.32,0,0,1-.32-.23,6,6,0,0,1-.18-1.25A16.91,16.91,0,0,0,157.44,70Zm11.78-7.68a9.91,9.91,0,0,1,1.11-1,15,15,0,0,1,1.27,1c.18.17.25.28.25.37s-.23.37-.74.58c-.25,6.62-.27,7-.53,8.81a25.21,25.21,0,0,1-1,4.56c-.49,1.32-1.36,1.83-3.3,2a1.44,1.44,0,0,0-.93-1.32,14,14,0,0,0-2.86-.72l0-.34c2.7.25,3.86.34,4.67.34.48,0,.64-.11.9-.67.76-1.66,1.29-6.61,1.29-12.07v-1H162.8a22.57,22.57,0,0,1-2.59,3.93l-.27-.21a24.62,24.62,0,0,0,2.28-5.67,20.56,20.56,0,0,0,.72-3.35c2.17.55,2.56.69,2.56.92s-.25.3-.92.4c-.72,1.76-1,2.38-1.5,3.44Zm-7,3.52a20.24,20.24,0,0,1,3,2.68c.74.84,1,1.21,1,1.76,0,.76-.51,1.74-.93,1.74-.16,0-.28-.17-.39-.51A17.5,17.5,0,0,0,162.22,66Z"/><path class="cls-3" d="M21.57,97.91a3.62,3.62,0,0,0,3.23,1.37,8.12,8.12,0,0,0,1.34-.12c.14-1,.26-2.17.26-2.57,0-.83-.37-1.2-1.5-1.55a.86.86,0,0,1,.67-.25,5.53,5.53,0,0,1,2,.53c.58.3.86.58.86,1,0,.21,0,.21-.3.6A5.43,5.43,0,0,0,27.41,99a10.26,10.26,0,0,0,4.34-1.64.69.69,0,0,1,.58-.25,4.07,4.07,0,0,1,1.09.18.54.54,0,0,1,.37.51c0,.42-.46.69-2,1.23a30.87,30.87,0,0,1-4.64,1.08,26.16,26.16,0,0,0-.44,3.5,13.65,13.65,0,0,1,3.7-.74v-.14c0-.44-.19-.77-.74-1.27a1.19,1.19,0,0,1,.25,0,1.8,1.8,0,0,1,1.48,1.39,7.85,7.85,0,0,1,4.48,1.64A4.56,4.56,0,0,1,37.46,108c0,3.52-3.58,6.16-9,6.62l-.07-.37c4.69-1.16,7.3-3.56,7.3-6.78A3.77,3.77,0,0,0,34,104.23a6.2,6.2,0,0,0-2.68-.81,11.93,11.93,0,0,1-1.46,3.17,13.6,13.6,0,0,1-2.47,3,5.24,5.24,0,0,0,.58,1,1.78,1.78,0,0,1,.25,1c0,.62-.21,1.06-.53,1.06s-.79-.62-1.34-2c-1.48,1.35-3.07,2.2-4,2.2-.55,0-.8-.25-1.1-1.06a6,6,0,0,0-.44-.88,2.27,2.27,0,0,1-.44-1.39c0-1.2.71-2.4,2.17-3.63A12.78,12.78,0,0,1,25.66,104c0-.35,0-.35.14-1.71,0-.4.07-.77.2-2.06-.43,0-.64,0-.87,0a4,4,0,0,1-3.86-2.13Zm.81,9.72a3.87,3.87,0,0,0-.72,2.17c0,.86.35,1.41.88,1.41A7.14,7.14,0,0,0,26,109.34a17,17,0,0,1-.35-3.72v-.84A8.2,8.2,0,0,0,22.38,107.63Zm4.29-2.57a16.27,16.27,0,0,0,.33,3.38,12.65,12.65,0,0,0,3.3-5,11.7,11.7,0,0,0-3.63.88Z"/><path class="cls-3" d="M49.41,115.05a12.15,12.15,0,0,0,6.1-11,10.94,10.94,0,0,0-.86-4.77,1.88,1.88,0,0,0-1.64-1c-1.15,0-2.22,1-3,2.89a13,13,0,0,0-1.08,5c0,.39,0,.65.09,1.43a3.85,3.85,0,0,1,0,.49c0,.44-.21.69-.6.69-.88,0-1.45-1.87-1.45-4.74a27.83,27.83,0,0,1,.74-6.2,9.93,9.93,0,0,0,.25-1.68c0-.74-.32-1.18-1.25-1.65a1.43,1.43,0,0,1,.42-.11,3.64,3.64,0,0,1,1.85.76c.64.46.9.83.9,1.3a1.38,1.38,0,0,1-.33.88,16.73,16.73,0,0,0-1.66,6.89c0,.21,0,.44,0,.85h0c.69-3,1.55-4.88,2.68-6.06a3.75,3.75,0,0,1,2.82-1.36c2.21,0,3.78,2.73,3.78,6.59a11.49,11.49,0,0,1-2.51,7.56,11.74,11.74,0,0,1-5.11,3.66Z"/><path class="cls-3" d="M70.69,102.31a15.84,15.84,0,0,0-3,1.2,1.15,1.15,0,0,1-.67.25,1.71,1.71,0,0,1-1-.69,3.61,3.61,0,0,1-.76-1.76,1.61,1.61,0,0,1,.13-.51c.49,1,.91,1.28,1.76,1.28a24.36,24.36,0,0,0,3.93-.81,13.07,13.07,0,0,0,.94-3.8c0-.71-.46-1.13-1.77-1.55a1,1,0,0,1,.66-.25,6.3,6.3,0,0,1,1.58.3c1,.3,1.61.74,1.61,1.23,0,.16,0,.25-.32.67A22.77,22.77,0,0,0,72.28,101a8.78,8.78,0,0,1,2-.26c2,0,2.93,1.18,2.93,3.61,0,3-1.17,6.8-2.51,8.28a3.39,3.39,0,0,1-2.22,1,.54.54,0,0,1-.63-.53c-.06-.65-.11-.69-2.56-2.7l.21-.28a11.68,11.68,0,0,0,3.58,1.57c.51,0,.9-.48,1.5-1.94a17.76,17.76,0,0,0,1.36-6.2c0-1-.2-1.6-.62-1.87a1.66,1.66,0,0,0-1-.24,8.08,8.08,0,0,0-2.4.47c-.33.81-.33.81-1.34,3.14-.12.3-.58,1.37-1.36,3.24-.93,2.18-1.69,3.84-2.06,4.49-.16.3-.35.44-.55.44-.42,0-.67-.6-.67-1.6a1.54,1.54,0,0,1,.53-1.29,14.91,14.91,0,0,0,1.71-2.73c.87-1.69.87-1.69,1.84-3.82Zm9-1.48a8,8,0,0,1,4.23,2.77,5.47,5.47,0,0,1,1.32,3.26c0,.81-.35,1.28-.93,1.28a1,1,0,0,1-.53-.17,1.4,1.4,0,0,0-.94-.25,20.21,20.21,0,0,0-2.89.21l-.09-.3a35.19,35.19,0,0,0,3.53-1.18,5.68,5.68,0,0,0-.72-2.22,6.44,6.44,0,0,0-3.16-3.08Zm1-3.56A11.27,11.27,0,0,1,83,98.49c.84.56,1.11,1,1.11,1.55s-.25,1.11-.55,1.11-.37-.16-.7-.76a10.66,10.66,0,0,0-2.4-2.85Zm1.91-1.53a10.31,10.31,0,0,1,2.31,1c.84.47,1.23.93,1.23,1.44s-.21,1.11-.46,1.11-.35-.16-.67-.63A10.47,10.47,0,0,0,82.42,96Z"/><path class="cls-3" d="M94.74,95.25a7.48,7.48,0,0,1,2.33.44c.46.19.65.42.65.74v0c0,.18,0,.18-.19.6a18.13,18.13,0,0,0-.51,4.7c0,1.36.19,1.71.9,1.71.49,0,1-.19,3.1-1.18a2,2,0,0,1,1-.28,1.14,1.14,0,0,1,1.11,1,.75.75,0,0,1-.49.7c-.16.06-.48.18-1.55.48a15.76,15.76,0,0,0-5.77,2.59,3.72,3.72,0,0,0-1.8,3c0,1.67,1.31,2.52,3.88,2.52a26.52,26.52,0,0,0,5.36-.67,2.72,2.72,0,0,1,.46-.07,1.32,1.32,0,0,1,1.25,1.14c0,.41-.26.62-1,.76a35.56,35.56,0,0,1-4.43.3,11.73,11.73,0,0,1-3.93-.53,3.67,3.67,0,0,1-2.52-3.42c0-1.35.74-2.62,2.27-3.89A14.75,14.75,0,0,1,97.62,104a1.54,1.54,0,0,1-1.1-.35c-.35-.25-.56-.76-.67-1.76-.07-.55-.1-1.06-.17-2.79-.06-2-.09-2.32-.27-2.66s-.7-.68-1.67-.84A1.25,1.25,0,0,1,94.74,95.25Z"/><path class="cls-3" d="M119.69,115.12a12.94,12.94,0,0,0,3-3.33,14.26,14.26,0,0,0,2-7c0-2.29-.83-3.7-2.19-3.7s-2.84,1-4.44,2.73c-.44.44-.58.53-.94.53a2.12,2.12,0,0,1-1.53-1,2.92,2.92,0,0,1-.62-1.55,1.26,1.26,0,0,1,.37-.86c.2,1,.67,1.6,1.27,1.6a6.41,6.41,0,0,0,2.12-.9c2-1.07,2.73-1.32,3.91-1.32a3.64,3.64,0,0,1,2.86,1.55,6.15,6.15,0,0,1,.88,3.4,11.28,11.28,0,0,1-2.87,7.47,10.68,10.68,0,0,1-3.62,2.71Zm-1.27-21a6.82,6.82,0,0,0,4.32,1.48h.53a1.81,1.81,0,0,1,1.25.55,1.17,1.17,0,0,1,.48.79c0,.32-.32.51-1,.51-1,0-1,0-5.75,1.41l-.11-.33c1.73-.78,3.32-1.5,3.9-1.71a5.37,5.37,0,0,1-3.9-2.52Z"/><path class="cls-3" d="M137.92,106.7a9.57,9.57,0,0,0-.07,1c0,2.76,1.73,4.05,5.45,4.05a15.54,15.54,0,0,0,5.11-.83.82.82,0,0,1,.39-.09,2.7,2.7,0,0,1,1.27.46,1.11,1.11,0,0,1,.51.81c0,.34-.26.6-.74.71a26.3,26.3,0,0,1-5.38.47c-2.59,0-4.23-.33-5.39-1.11a4.44,4.44,0,0,1-1.91-3.63,6.16,6.16,0,0,1,.37-2Zm.72-9.13a5.41,5.41,0,0,0,3.53,1,17.84,17.84,0,0,0,4.8-.69,2,2,0,0,1,.42-.09,1.58,1.58,0,0,1,1.38,1.2c0,.39-.13.49-1.68.81a18.72,18.72,0,0,0-3.37,1.13l-1.9.79a8.17,8.17,0,0,1-.9.37l-.16-.35c.72-.41,1.09-.65,1.69-1,1.57-.86,1.57-.86,1.94-1.09-.51,0-1.32.07-1.74.07a6.31,6.31,0,0,1-2.63-.62,5.64,5.64,0,0,1-1.62-1.34ZM149.05,96c2.24.9,3.49,1.92,3.49,2.86,0,.61-.28,1.16-.6,1.16-.16,0-.3-.14-.46-.46a10.22,10.22,0,0,0-2.57-3.33Zm2.08-1.39A9.2,9.2,0,0,1,154,96a1.37,1.37,0,0,1,.69,1.22c0,.7-.2,1.21-.5,1.21s-.33-.17-.54-.56a9.39,9.39,0,0,0-2.63-3Z"/><path class="cls-3" d="M169.78,97.4a10.92,10.92,0,0,0,2.61.72.93.93,0,0,0,.23,0h.14c.57,0,.9.25.9.71s-.4.7-1.27,1.21a24.75,24.75,0,0,1-3.38,1.43,53.91,53.91,0,0,1,3.17,5,3.31,3.31,0,0,1,.51,1.76c0,.87-.17,1.2-.63,1.2-.25,0-.39-.07-.71-.39a7.28,7.28,0,0,0-1.55-1.12,10.24,10.24,0,0,0-4.18-.87c-2.66,0-4.32,1-4.32,2.7a2.62,2.62,0,0,0,1.8,2.36,8.77,8.77,0,0,0,3.21.51,10.2,10.2,0,0,0,2-.16,2.43,2.43,0,0,1,.28,0,1.68,1.68,0,0,1,1.43,1.27c0,.56-.39.7-2,.7a14.31,14.31,0,0,1-4.53-.63c-2.07-.69-3.3-2.1-3.3-3.79,0-2.31,2.29-3.7,6.08-3.7a16.4,16.4,0,0,1,4.52.62,19.33,19.33,0,0,0-2.77-5.13,15.62,15.62,0,0,1-4.69.74,5.22,5.22,0,0,1-4.25-2l.26-.26a5.48,5.48,0,0,0,3.69,1.27,15.81,15.81,0,0,0,4.28-.71,13.06,13.06,0,0,0-3.24-3c-.71-.39-.88-.58-.88-.9,0-.53.58-.86,1.6-.86a7.85,7.85,0,0,1,2.7.51l-.12.35a8,8,0,0,0-1-.12c-.49,0-.72.1-.72.26s.23.41.95,1.22c.2.23.8,1,1.77,2.25l1.46-.63a11.57,11.57,0,0,0,1.69-.85,16,16,0,0,0-1.88-1.32Zm2.74-2.24a10,10,0,0,1,2.66,1.39,1.68,1.68,0,0,1,.74,1.41c0,.53-.25,1-.53,1s-.3-.11-.56-.53a10.83,10.83,0,0,0-2.49-3Zm1.92-1.27a9.24,9.24,0,0,1,2.8,1.2,1.56,1.56,0,0,1,.81,1.3c0,.48-.24.92-.47.92s-.23,0-.62-.6a10.67,10.67,0,0,0-2.68-2.57Z"/><path class="cls-3" d="M189.51,104.34c-1.69,3.89-2.17,5.25-2.17,6.18a2.83,2.83,0,0,0,.14.79,2.21,2.21,0,0,1,0,.37.54.54,0,0,1-.51.57,4.38,4.38,0,0,1-2.54-2,10.72,10.72,0,0,1-1.57-4.63,26.07,26.07,0,0,1-.16-4.07c0-2.15-.18-2.68-1.18-4h.21a3.39,3.39,0,0,1,1.73,1.14,2.75,2.75,0,0,1,1,1.82,3.42,3.42,0,0,1-.07.6,18.74,18.74,0,0,0-.41,3.45,9.77,9.77,0,0,0,.53,3.35,3.32,3.32,0,0,0,1.2,1.81c.25-.37.25-.37.76-1.23l1.94-3.26c.37-.6.37-.6.67-1.11Zm4.92-4.18a7.2,7.2,0,0,1,5.22,6.91c0,1.11-.46,1.83-1.16,1.83a1.14,1.14,0,0,1-.69-.25,3,3,0,0,0-1.73-.28c-.53,0-1,0-1.76,0l-.07-.34c1.87-.51,2.91-.81,3.12-.88.46-.16.53-.26.53-.7a8.52,8.52,0,0,0-.71-3,6.43,6.43,0,0,0-2.87-3Z"/><path class="cls-3" d="M206.33,98.72a4.72,4.72,0,0,0,3.72,1.25,20.87,20.87,0,0,0,3.3-.28c-.09-3.54-.25-3.86-2-4.11.32-.33.51-.37,1.16-.37a6.31,6.31,0,0,1,1.94.3c.55.18.78.41.78.76,0,.14,0,.14-.3.79a7.22,7.22,0,0,0-.41,2.45,11.56,11.56,0,0,0,4.29-1.37.76.76,0,0,1,.28-.09,3,3,0,0,1,1.2.39.71.71,0,0,1,.39.56c0,.32-.37.51-1.8.86a40.79,40.79,0,0,1-4.41.81c0,.6,0,.94,0,1.48s0,1.08,0,2.1a19.22,19.22,0,0,0,2.63-.62,3.7,3.7,0,0,0,1.16-.58.54.54,0,0,1,.34-.09,2.73,2.73,0,0,1,1.18.34.47.47,0,0,1,.28.44c0,.42-.32.6-1.78,1a25.87,25.87,0,0,1-3.76.67c0,.9,0,1.27.06,2.08s.07,1.22.14,1.8a12,12,0,0,1,5.08,2,2,2,0,0,1,.67,1.53c0,.48-.2.81-.5.81s-.33-.07-.93-.65a12.86,12.86,0,0,0-1.94-1.43,8.13,8.13,0,0,0-2.31-1,10.09,10.09,0,0,1,.07,1,2.33,2.33,0,0,1-.78,2,5.22,5.22,0,0,1-3.1.85c-2.31,0-3.9-1-3.9-2.47,0-1.65,2.15-2.8,5.22-2.8.37,0,.6,0,1.15,0,0-1.11,0-1.27,0-1.6v-2c-.92,0-1.36.07-1.71.07a6.26,6.26,0,0,1-3.07-.51,2,2,0,0,1-1-1.75,5.91,5.91,0,0,1,.05-.65l.34,0c0,.72.14,1,.49,1.32a4.89,4.89,0,0,0,2.7.51,20.17,20.17,0,0,0,2.24-.16v-1.62l0-1.69v-.28c-1.27.12-2.19.16-3,.16-2.19,0-3.14-.44-4.29-2Zm5.13,11.38a7.16,7.16,0,0,0-2.52.44c-.83.33-1.25.79-1.25,1.39,0,.83.95,1.32,2.52,1.32a3.82,3.82,0,0,0,2.63-.83,1.79,1.79,0,0,0,.51-1.21c0-.16.05-.69.05-.88v-.07A14.42,14.42,0,0,0,211.46,110.1Z"/><path class="cls-3" d="M233.2,114.57c2.68-1.83,3.81-3.31,4.39-5.79a2.63,2.63,0,0,1-1.48.47,3,3,0,0,1-2.84-3.33c0-2,1.27-3.54,3-3.54a2.34,2.34,0,0,1,1.29.39c0-.39,0-1.67,0-2.41,0,0,0-.25,0-.46a31.07,31.07,0,0,0-5.82,1.16,8.6,8.6,0,0,0-1.5.62,2,2,0,0,1-.53.12,2.39,2.39,0,0,1-1.48-.88,3.44,3.44,0,0,1-.92-1.69.73.73,0,0,1,.11-.28,2.68,2.68,0,0,0,2.24,1.18,11.56,11.56,0,0,0,2-.21c2.72-.43,3.55-.55,5.91-.8a7.94,7.94,0,0,0-.25-2.57c-.26-.65-.81-1-2-1.14.28-.34.44-.41,1.06-.41a7.63,7.63,0,0,1,2.24.32c.56.19.88.49.88.81s0,.23-.23.63a5.79,5.79,0,0,0-.51,2.24c.6-.07.6-.07,1.5-.14a10.18,10.18,0,0,0,3.07-.42,2.09,2.09,0,0,1,.86-.25,4,4,0,0,1,2,.86.7.7,0,0,1,.37.62c0,.25-.16.39-.51.39a9.19,9.19,0,0,1-1.24-.14,25,25,0,0,0-3.56-.23c-.86,0-1.53,0-2.47.1-.09.88-.16,2.29-.16,3.14,0,.16,0,.44,0,.79a6,6,0,0,1,.74,3.07,8,8,0,0,1-2.5,5.88,11.86,11.86,0,0,1-3.44,2.2Zm2.93-11.64c-1,0-1.85,1.09-1.85,2.5s.79,2.52,1.87,2.52,1.48-.74,1.48-2.17C237.63,103.86,237.15,102.93,236.13,102.93Z"/><path class="cls-3" d="M255.63,112.72a3,3,0,1,1-3-3A3,3,0,0,1,255.63,112.72Zm-5.22,0a2.26,2.26,0,0,0,2.24,2.24,2.25,2.25,0,1,0-2.24-2.24Z"/></g></g></svg>