<svg id="レイヤー_1" data-name="レイヤー 1" xmlns="http://www.w3.org/2000/svg" viewBox="0 0 340 396"><defs><style>.cls-1{fill:none;}.cls-2{fill:#fff;}.cls-3{fill:#fff171;}.cls-4{fill:#40220f;}</style></defs><title>tb01</title><rect class="cls-1" width="340" height="396"/><g id="_01" data-name="01"><path class="cls-2" d="M41,38.58a12.84,12.84,0,0,0,2.61-4.25,12.19,12.19,0,0,0,.87-3.68.9.9,0,0,0-.47-.88,14.63,14.63,0,0,0-4,1.14,1.17,1.17,0,0,1-.56.18,1.67,1.67,0,0,1-1.13-.69,1.77,1.77,0,0,1-.61-1.08,1.13,1.13,0,0,1,.07-.34,1.7,1.7,0,0,0,1.48.83,18.62,18.62,0,0,0,3.07-.47c1.1-.18,3.39-.47,5.55-.67a8.37,8.37,0,0,0,1.4-.3,1,1,0,0,1,.45-.09,2.27,2.27,0,0,1,1,.27c.5.23.85.57.85.83s-.2.36-.51.36a1.55,1.55,0,0,1-.45-.06,17.48,17.48,0,0,0-2.9-.23,21.45,21.45,0,0,0-3,.18c.83.45,1.19.83,1.19,1.24a11,11,0,0,1-1.15,3.53,10.54,10.54,0,0,1-3.57,4.37Zm-.34-13.9a2.94,2.94,0,0,0,2.16,1,10,10,0,0,0,3.78-.88,1.06,1.06,0,0,1,.54-.15c.47,0,1.23.58,1.23.94s-.22.32-.94.48a24.55,24.55,0,0,1-4.12.47,3.06,3.06,0,0,1-2.92-1.65ZM49,24a9,9,0,0,1,2.12,1.26,1.29,1.29,0,0,1,.56,1.08c0,.55-.2,1-.45,1s-.25-.13-.4-.43a7.92,7.92,0,0,0-2-2.67Zm1.58-1a7.26,7.26,0,0,1,2.16,1c.51.36.65.61.65,1.06s-.16.87-.4.87-.25-.09-.39-.36a6.7,6.7,0,0,0-2.16-2.38Z"/><path class="cls-2" d="M58.58,30.08a15.18,15.18,0,0,0,2.57-.34,2.47,2.47,0,0,0,.76-.24,1.27,1.27,0,0,1,.23-.12.54.54,0,0,1,.27-.08,1.86,1.86,0,0,1,.9.62c.29.3.36.43.36.61a.36.36,0,0,1-.12.29,3.27,3.27,0,0,0-.42,1.24c-.27,1-.64,2.61-.77,3.17l.74-.06A5.29,5.29,0,0,0,65,34.92a.85.85,0,0,1,.3-.09,2.15,2.15,0,0,1,.76.31c.43.25.7.57.7.83a.39.39,0,0,1-.41.36,3.92,3.92,0,0,1-1-.2A10.13,10.13,0,0,0,63.21,36a18.7,18.7,0,0,0-4.69.55A7.09,7.09,0,0,0,57,37a.86.86,0,0,1-.47.14,1.49,1.49,0,0,1-1-.59,2.58,2.58,0,0,1-.59-1.19,1,1,0,0,1,.07-.31,1.64,1.64,0,0,0,1.37.85c.18,0,.65,0,1.22-.13,1.16-.18,2.06-.3,2.74-.37s.74-.09,1.1-.15a48.47,48.47,0,0,0,.7-4.93c0-.06,0-.07,0-.07a17.55,17.55,0,0,0-2.16.46,7,7,0,0,0-1,.38,1.14,1.14,0,0,1-.43.09c-.33,0-.63-.25-.9-.72a2.13,2.13,0,0,1-.34-1,.6.6,0,0,1,.1-.36A1.42,1.42,0,0,0,58.58,30.08Z"/><path class="cls-2" d="M71,30a2.41,2.41,0,0,0,1.75.43l2.21-.06,7-.1a7.11,7.11,0,0,1,2.35.16.37.37,0,0,1,.25.36.52.52,0,0,1-.42.48c-.48.17-.91.18-4.32.22-1.67,0-5.8.13-6.43.16-.84.06-1,.07-1.29.24a2.56,2.56,0,0,1-.27.05c-.27,0-.56-.2-.87-.59a3.32,3.32,0,0,1-.68-1.66c0-.25,0-.29.14-.41A1.68,1.68,0,0,0,71,30Z"/><path class="cls-2" d="M89.12,38.23a24.48,24.48,0,0,0,6-6.89,17.76,17.76,0,0,0,2.15-4.81c0-.18-.09-.23-.36-.23a26.88,26.88,0,0,0-3.33.61,19.24,19.24,0,0,0-3.3,1,1.81,1.81,0,0,1-.67.18c-.37,0-.84-.36-1.29-1A2.06,2.06,0,0,1,87.81,26a.57.57,0,0,1,.13-.36,1.73,1.73,0,0,0,1.67,1A43,43,0,0,0,94.74,26a6,6,0,0,0,2.09-.5c.22-.13.22-.13.36-.13a2.79,2.79,0,0,1,1.32.83,1.44,1.44,0,0,1,.55.89c0,.14,0,.25-.25.46a3.48,3.48,0,0,0-.63,1A26.21,26.21,0,0,1,93,35.77a17.93,17.93,0,0,1-3.71,2.68Zm13.29-13.59a1.8,1.8,0,1,1-1.8-1.8A1.81,1.81,0,0,1,102.41,24.64Zm-3.06,0a1.26,1.26,0,1,0,2.52,0,1.26,1.26,0,0,0-2.52,0Z"/><path class="cls-2" d="M117.62,29.52a15.89,15.89,0,0,1-2.68,3.06,22.4,22.4,0,0,1-5.44,3.67c-1,.53-1,.53-1.35.87a.55.55,0,0,1-.41.23c-.36,0-1.19-1.06-1.19-1.55,0-.09,0-.09.09-.32a10.14,10.14,0,0,0,.14-2.76c0-4-.09-5.72-.32-6.39-.16-.45-.45-.66-1.24-.93a.81.81,0,0,1,.55-.18,3.44,3.44,0,0,1,1.45.43c.7.38,1.06.74,1.06,1.1a.9.9,0,0,1-.09.38,9.91,9.91,0,0,0-.24,1.78c-.09,1.1-.19,4.37-.19,5.71v.9a23.37,23.37,0,0,0,6.14-3.19,24.34,24.34,0,0,0,3.49-3Z"/><path class="cls-2" d="M121,28.75a9.47,9.47,0,0,1,3.15,1.06A1.28,1.28,0,0,1,124.8,31c0,.46-.23.86-.5.86s-.29-.07-.56-.41A8.86,8.86,0,0,0,120.86,29Zm13.9-.45a21.29,21.29,0,0,1-2.69,3.07,40.26,40.26,0,0,1-6.82,5.24,14.3,14.3,0,0,0-1.39,1,.58.58,0,0,1-.41.18c-.36,0-.78-.34-1.28-1.08a3,3,0,0,1-.56-1.38.67.67,0,0,1,.16-.42c.35.69.85,1.12,1.35,1.12a11.75,11.75,0,0,0,3.46-1.76,41.67,41.67,0,0,0,8-6.13ZM123,25.56c2.88.68,3.8,1.24,3.8,2.29,0,.5-.22.9-.49.9s-.2,0-1-1a8.33,8.33,0,0,0-2.47-2Zm7.38-1.44c1.93.84,2.79,1.56,2.79,2.32a1.48,1.48,0,0,1-.25.87.3.3,0,0,1-.22.09c-.2,0-.25-.06-.5-.54a9.19,9.19,0,0,0-2-2.56ZM132,23c2,.66,2.92,1.33,2.92,2.14,0,.52-.18.92-.43.92s-.27-.11-.47-.45a8,8,0,0,0-2.14-2.42Z"/><path class="cls-2" d="M141.07,38.58a12.84,12.84,0,0,0,2.61-4.25,12.19,12.19,0,0,0,.87-3.68.9.9,0,0,0-.47-.88,14.63,14.63,0,0,0-4,1.14,1.14,1.14,0,0,1-.56.18,1.67,1.67,0,0,1-1.13-.69,1.77,1.77,0,0,1-.61-1.08,1.13,1.13,0,0,1,.07-.34,1.7,1.7,0,0,0,1.48.83,18.78,18.78,0,0,0,3.08-.47c1.09-.18,3.38-.47,5.54-.67a8.7,8.7,0,0,0,1.41-.3,1,1,0,0,1,.45-.09,2.27,2.27,0,0,1,.95.27c.5.23.85.57.85.83s-.2.36-.51.36a1.55,1.55,0,0,1-.45-.06,17.48,17.48,0,0,0-2.9-.23,21.45,21.45,0,0,0-2.95.18c.83.45,1.19.83,1.19,1.24a11,11,0,0,1-1.15,3.53,10.54,10.54,0,0,1-3.57,4.37Zm-.34-13.9a2.94,2.94,0,0,0,2.16,1,10,10,0,0,0,3.78-.88,1.06,1.06,0,0,1,.54-.15c.47,0,1.23.58,1.23.94s-.22.32-.94.48a24.55,24.55,0,0,1-4.12.47,3.08,3.08,0,0,1-2.92-1.65Zm8.34-.71a9,9,0,0,1,2.12,1.26,1.29,1.29,0,0,1,.56,1.08c0,.55-.2,1-.45,1s-.25-.13-.4-.43a8,8,0,0,0-2-2.67Zm1.58-1a7.26,7.26,0,0,1,2.16,1c.51.36.65.61.65,1.06s-.16.87-.4.87-.25-.09-.39-.36a6.7,6.7,0,0,0-2.16-2.38Z"/><path class="cls-2" d="M156.43,25.79a10.34,10.34,0,0,1,3.47,1.35,1.38,1.38,0,0,1,.61,1.23c0,.59-.19,1-.5,1s-.29-.09-.78-.72A9.32,9.32,0,0,0,156.3,26Zm12.8,1a18.83,18.83,0,0,1-3.78,4.84,35.5,35.5,0,0,1-5.06,4.11c-.85.59-.94.66-1.07.83-.28.34-.39.43-.63.43-.73,0-2.1-1.73-2.1-2.65a.88.88,0,0,1,.09-.36,2.52,2.52,0,0,0,.65.79,1.13,1.13,0,0,0,.72.38,4.47,4.47,0,0,0,1.74-.75,26.06,26.06,0,0,0,4.31-3,28.58,28.58,0,0,0,4.84-4.8Z"/><path class="cls-2" d="M172,37.17a26,26,0,0,0,4.84-3.94,32.55,32.55,0,0,0,3.44-4.48,11.9,11.9,0,0,0,1.22-2.33,19.18,19.18,0,0,0-3.8.8,9.72,9.72,0,0,0-1.51.48.77.77,0,0,1-.3.06c-.4,0-.78-.33-1.17-1a2.16,2.16,0,0,1-.38-1.08.69.69,0,0,1,.12-.36c.53.93.9,1.21,1.7,1.21a29,29,0,0,0,3.78-.51,4.9,4.9,0,0,0,1.69-.5.72.72,0,0,1,.41-.17c.38,0,1.41.92,1.41,1.26a.42.42,0,0,1-.24.35c-.37.25-.37.25-1,1.22-.87,1.3-.87,1.3-2.27,3.13a17.84,17.84,0,0,1,4.66,3,2.37,2.37,0,0,1,.69,1.78c0,.58-.18.94-.49.94-.13,0-.27-.09-.41-.29a4,4,0,0,1-.44-.72,15.31,15.31,0,0,0-4.28-4.41,19.73,19.73,0,0,1-4.36,4.05,16,16,0,0,1-3.15,1.76Z"/><path class="cls-2" d="M188.65,38a36,36,0,0,0,4.44-7.81,33.81,33.81,0,0,0,1.74-5.13,28.1,28.1,0,0,1,3.11,1.13c.17.09.26.18.26.29,0,.35-.38.49-1.28.49h-.15a37.43,37.43,0,0,1-3.68,6.59A24.78,24.78,0,0,1,189,38.36Zm12.42-16.68a28.49,28.49,0,0,0-.15-3.08c3.43.47,3.63.53,3.63.9s-.35.52-1.34.76V33.8c0,1.25,0,3.63.06,6.94-.08,1.88-.84,2.43-4,2.95-.09-1.59-.67-1.91-4.82-2.66v-.5a60.12,60.12,0,0,0,6.12.5c.38,0,.47-.12.47-.5Zm6,3.94a38.69,38.69,0,0,1,5.66,6c1.39,1.77,1.85,2.7,1.85,3.71,0,1.54-.49,3-1,3-.26,0-.43-.26-.67-1a51.39,51.39,0,0,0-2.66-6.18,29.66,29.66,0,0,0-3.54-5.28Z"/><path class="cls-2" d="M237.32,25.48h1.45a16.76,16.76,0,0,0,1.45-2.79,11.23,11.23,0,0,0,1-2.67c2,.85,2.73,1.25,2.73,1.51s-.32.41-.78.41a3,3,0,0,1-.5,0,29.25,29.25,0,0,1-3.45,3.57H242c.64-.84.84-1.1,1.57-1.95,1,.9,1.36,1.19,2.46,2.21a1.2,1.2,0,0,1,.06.17c0,.09-.12.23-.2.23h-8a10.38,10.38,0,0,0,2.82,2.44,16.94,16.94,0,0,0,6,2.35v.23c-1,.41-1.28.64-1.8,1.89a14.76,14.76,0,0,1-4-2.64,16,16,0,0,1-3.48-4.12v1.62c0,1.48,0,1.48,0,3.77,0,.21-.06.3-.2.35a6.07,6.07,0,0,1-1.31.12.25.25,0,0,1-.29-.23l0-3.75V27.3a23.64,23.64,0,0,1-7,5.6l0,3.6v.58c0,.81-.23,1.19-.79,1.48a3,3,0,0,1-1.42.38c-.11-1.11-.37-1.51-1.13-1.71,0,.31,0,.31.06,2.87.06,2.35.06,2.35.06,3.45a.29.29,0,0,1,0,.14.39.39,0,0,1-.21.32,11.4,11.4,0,0,1-1.3.12c-.29,0-.49-.15-.49-.29v-.12c.11-5.16.11-5.16.11-18.85v-.81h-1.62v6.35l.11,8.24c0,.26-.2.32-.93.34a2.6,2.6,0,0,0-.55,0h-.08c-.24,0-.35-.11-.38-.37.09-3.4.12-4.24.12-9.4v-3c0-.78,0-1-.09-2.76,0-.72,0-.72,0-1.24.84.46,1.1.61,1.94,1.1h1.51a51.46,51.46,0,0,0-.14-5.77c.58.05,1,.08,1.33.08,1.36.12,1.77.21,1.77.5s-.41.52-1.25.78v4.41h1.54c.41-.47.52-.61,1-1.1.69.58.92.75,1.53,1.27.12.12.15.18.15.26s-.23.38-.87.76v.9h3.77a11.87,11.87,0,0,1-.78-2,7.37,7.37,0,0,0-1.31-2.24,4.36,4.36,0,0,1-.64,0c-.11,0-.55,0-.95,0l-.09-.37a63.12,63.12,0,0,0,8.76-1.95A18.67,18.67,0,0,0,242,17.21,8.85,8.85,0,0,1,244.08,19c0,.17-.2.32-.44.32a4.06,4.06,0,0,1-1.16-.26,41,41,0,0,1-5.16,1.27Zm-12,11.37c.44.06.61.09,1.31.17.26,0,.35-.06.35-.26V24.06h-1.69Zm3.31-10.71v6.1a23.46,23.46,0,0,0,5.86-6.1ZM241,33.05c.41-.47.53-.61,1-1.07.73.63.93.84,1.6,1.45a.5.5,0,0,1,.2.37c0,.21-.12.29-.64.52v2.06q0,1.53.09,7.31c0,.35-.29.41-1.51.41-.35,0-.38,0-.41-.32V42.42H232v1.36c-.06.26-.2.29-1.07.32h-.47c-.26,0-.31-.09-.34-.32,0-1.45.08-8.06.08-8.64,0-1.08,0-1.8-.11-3,1,.41,1.27.52,2.14,1Zm-5.39-12.42a46,46,0,0,1-4.7.55,13.94,13.94,0,0,1,1.51,1.22c1,.81,1.27,1.22,1.27,1.63a2.32,2.32,0,0,1-.55,1.45h2.47Zm0,13.09H232v3.53h3.6Zm-3.6,4.2v3.83h3.6V37.92Zm9.28-.67V33.72h-3.94v3.53Zm-3.94,4.5h3.94V37.92h-3.94Z"/><path class="cls-2" d="M251.61,35.08a12.79,12.79,0,0,1,.09,1.33,8.73,8.73,0,0,1-.58,3.6c-.38.84-.84,1.33-1.28,1.33s-.58-.58-.58-1.45c0-.61.09-.78.64-1.24a4.77,4.77,0,0,0,1.31-3.57Zm7.52-11.34c.52-.64.66-.84,1.18-1.42A19.56,19.56,0,0,1,262.26,24a.64.64,0,0,1,.11.23c0,.12-.08.14-.32.14h-4.32v3.48H259c.58-.63.76-.81,1.36-1.45.85.76,1.08,1,1.83,1.74a.82.82,0,0,1,.12.21c0,.11-.12.17-.35.17h-4.18v3.86h1.86c.61-.61.61-.61,1.13-1.1.61.55.81.72,1.39,1.27.21.27.26.35.26.44s-.11.26-.92.67c-.18,4-.67,7.07-1.34,8.32a3.33,3.33,0,0,1-1.33,1.22,6.78,6.78,0,0,1-2.06.41c-.21-1.31-.41-1.45-3.22-2.15l.06-.46c1.45.23,3.8.52,4.46.52.44,0,.73-.41,1-1.42a31.24,31.24,0,0,0,.75-7.05h-6.49v.61c0,.34-.29.43-1.25.43-.44,0-.58-.09-.58-.32v-.11c.09-2.61.12-3.72.12-7.31,0-5.31,0-6.47-.15-8.07.84.5,1.1.64,2,1.25H259c.55-.73.72-1,1.3-1.68a19.86,19.86,0,0,1,2.24,2,.62.62,0,0,1,.14.23c0,.12-.06.15-.35.15h-4.61v3.51ZM253,34.93c1.07,1.8,1.39,2.61,1.39,3.6,0,.55-.64,1.39-1.08,1.39-.23,0-.34-.2-.34-.64v-.17c.05-.93.08-1.39.08-1.62a7.82,7.82,0,0,0-.37-2.41Zm3.1-14.7h-2.84v3.51h2.84Zm-2.84,4.17v3.48h2.84V24.4Zm0,4.15v3.86h2.84V28.55Zm1.56,5.95c1.31,1.27,2.09,2.44,2.09,3.1s-.46,1.37-.84,1.37c-.17,0-.29-.12-.32-.41a11.34,11.34,0,0,0-1.22-3.89Zm2-.41c1.36,1.16,2.08,2.06,2.08,2.67S258.4,38,258.05,38c-.11,0-.2-.12-.26-.38s-.14-.64-.29-1.16a6,6,0,0,0-1-2.12Zm8.81-4.87a30.46,30.46,0,0,1-1,7.89,18.17,18.17,0,0,1-2.29,5A9.79,9.79,0,0,1,260.6,44l-.31-.26a18.27,18.27,0,0,0,2.87-7.42,62.23,62.23,0,0,0,.69-8.91c0-5.63,0-7.89-.08-9.31.92.61,1.21.78,2.14,1.42h6.5c.49-.52.64-.7,1.16-1.25.75.58,1,.76,1.62,1.34.24.17.32.32.32.43s-.05.21-1,.67c0,.7,0,1.25,0,1.68v1.19c0,1.07,0,2.15,0,3.16,0,.26,0,.47,0,1.83,0,.9,0,.9.06,1.65v.18c0,.35-.38.46-1.54.46-.38,0-.46-.06-.49-.32V29.22H269a13.83,13.83,0,0,0,1.85,6.44,14.78,14.78,0,0,0,3.69,4.26,8.34,8.34,0,0,0,2.52,1.4v.43c-1.13.23-1.33.41-2.2,1.8A13.79,13.79,0,0,1,271.05,39a20,20,0,0,1-2.44-7.39c-.06-.64-.12-1-.23-2.41Zm6.94-.67V20.23h-6.82c0,.93,0,1.74,0,2.17,0,2.06,0,3.8-.12,6.15Z"/><path class="cls-2" d="M282.3,40.74c2.29-.06,2.46-.27,2.46-3V24.14c0-2.69-.14-2.87-2.46-3v-.7h7.45v.7c-2.29.11-2.44.29-2.44,3V37.78c0,2.69.18,2.9,2.44,3v.72H282.3Zm9,0c2.26-.06,2.44-.27,2.44-3V24.14c0-2.69-.15-2.87-2.44-3v-.7h7.45v.7c-2.29.11-2.46.29-2.46,3V37.78c0,2.66.17,2.9,2.46,3v.72h-7.45Z"/><path class="cls-3" d="M77.9,333.71l-1,3.27H73.61l4.92-15h3.8l4.92,15H83.94l-1-3.27Zm2.52-8.79-1.79,6.15h3.61Z"/><path class="cls-3" d="M92.65,321.94h2.71v15h-3V325.25l-2.56,1.86-.37-2.85Z"/><path class="cls-3" d="M100.2,328.08a10.89,10.89,0,0,0,4.34-5.52h9.66c-.83,10.92-6.93,14.07-11.56,15.55l-1.41-2.7a13,13,0,0,0,6.72-3.8,25.61,25.61,0,0,0-4.08-2.88,13.42,13.42,0,0,1-1.85,1.61Zm6.2-2.79c-.49.82-.68,1.1-1,1.52a19.41,19.41,0,0,1,4.1,2.6,12.09,12.09,0,0,0,1.31-4.12Z"/><path class="cls-3" d="M125.81,337.86h-2.94v-7.52a30,30,0,0,1-5.42,2.71l-1.35-2.69a25.74,25.74,0,0,0,12.05-8.75l2.47,1.85a33.44,33.44,0,0,1-4.81,4.77Z"/><path class="cls-3" d="M142.75,323l2.88,3.53c-.47,2.62-1.12,6.34-5,9.08a14.15,14.15,0,0,1-5.19,2.24l-1.27-2.81c6.7-1.31,8.1-5.4,8.59-9.05H133.1v-3Zm5.8-.1a2.32,2.32,0,1,1-2.32-2.47A2.38,2.38,0,0,1,148.55,322.93Zm-3.44,0a1.16,1.16,0,0,0,1.12,1.2,1.2,1.2,0,1,0-1.12-1.2Z"/><path class="cls-3" d="M160.36,324.26v3.31h-3.27v-3.31Zm0,7.91v3.32h-3.27v-3.32Z"/><path class="cls-3" d="M181,333.45V337H167.33a100.43,100.43,0,0,0,7.67-9.33c1-1.5,1.55-2.5,1.55-3.6a2.27,2.27,0,0,0-2.33-2.48c-2.36,0-3.7,2.13-4.25,3L168.42,321a7.2,7.2,0,0,1,5.87-2.93c3,0,6,1.82,6,5.87,0,3-1.55,5.06-5.32,9.54Z"/><path class="cls-3" d="M187.13,332.92v3.85c0,2.38-1.5,3-4,3.05V338c1.55,0,1.78-.46,1.8-1.13h-1.8v-3.9Z"/><path class="cls-3" d="M196.74,337v-3.62h-7.55v-3.22l7.64-11.73h3.61V330h2.05v3.4h-2.05V337Zm0-7v-6.15L192.81,330Z"/><path class="cls-3" d="M214,321.62a8.73,8.73,0,0,0-.95-.05c-3.07,0-4.41,1.81-5.31,3.93a5.68,5.68,0,0,1,3.19-1,5.94,5.94,0,0,1,5.91,6.28,6.32,6.32,0,0,1-6.28,6.54c-3.81,0-6.79-2.93-6.79-8.36,0-5.66,3.09-10.95,8.91-10.95.42,0,.93,0,1.32.07Zm-3.51,6.31a2.81,2.81,0,0,0-2.93,2.72,3,3,0,0,0,2.91,3.17,2.76,2.76,0,0,0,2.63-3A2.54,2.54,0,0,0,210.53,327.93Z"/><path class="cls-3" d="M229.82,320.9a13.39,13.39,0,0,1,1.43,6.8,13.55,13.55,0,0,1-1.43,6.81,5.8,5.8,0,0,1-10,0c-.81-1.34-1.43-3.37-1.43-6.81a13.24,13.24,0,0,1,1.43-6.8,5.78,5.78,0,0,1,10,0Zm-7.69,6.8c0,3.55.69,6.12,2.7,6.12s2.7-2.64,2.7-6.12c0-3.22-.58-6.13-2.7-6.13S222.13,324.25,222.13,327.7Z"/><path class="cls-3" d="M239.81,326.49h7.33a62.88,62.88,0,0,1-.73,9.65c-.47,2.3-1.72,2.58-2.92,2.58h-3L240,335.8h2.47c.9,0,1.16-.26,1.37-1.25a35.38,35.38,0,0,0,.41-5.35H239.6a13.32,13.32,0,0,1-5.65,9.58l-1.74-2.62c2.25-1.38,4.83-3.69,4.83-10.07v-1.83h-4.47v-2.73h15.88v2.73h-8.64Z"/><path class="cls-3" d="M252.67,338.72H250V321.51h14.68v15.17c0,2-1.4,2-1.94,2h-3.09l-.47-2.9h2.15c.64,0,.64-.17.64-.75v-3.19h-9.28ZM256,324.26h-3.29v5H256Zm6,5v-5h-3.33v5Z"/><path class="cls-4" d="M72.65,269.88a2.94,2.94,0,0,1-1.2,2.61,7.27,7.27,0,0,1-4,.83H64.27V261.63h3a7.44,7.44,0,0,1,3.8.73,2.42,2.42,0,0,1,1.17,2.19,2.3,2.3,0,0,1-.64,1.66,3.06,3.06,0,0,1-1.76.89v0a3.33,3.33,0,0,1,2,.91A2.53,2.53,0,0,1,72.65,269.88ZM67,266.25h.53a3.64,3.64,0,0,0,1.78-.32,1.06,1.06,0,0,0,.54-1,1,1,0,0,0-.44-.94,2.94,2.94,0,0,0-1.51-.29H67Zm0,2v3h1a2.85,2.85,0,0,0,1.68-.39,1.46,1.46,0,0,0,.52-1.26,1.15,1.15,0,0,0-.55-1.06,3.83,3.83,0,0,0-1.85-.33Z"/><path class="cls-4" d="M77.6,264.83a4.48,4.48,0,0,1,3,.76,3.15,3.15,0,0,1,.87,2.49v5.24H79l0-1.11h0a3.19,3.19,0,0,1-2.62,1.26,2.43,2.43,0,0,1-1.82-.71,2.48,2.48,0,0,1-.72-1.85q0-2.91,4.32-2.91h.73v-.2a1.1,1.1,0,0,0-.31-.88,1.61,1.61,0,0,0-1.05-.28,11.55,11.55,0,0,0-3.2.54v-1.86A11.59,11.59,0,0,1,77.6,264.83Zm1.25,4.67h-.73c-1.29,0-1.94.4-1.94,1.21a.91.91,0,0,0,.25.68,1,1,0,0,0,.69.24,1.68,1.68,0,0,0,1.25-.49,1.74,1.74,0,0,0,.48-1.29Z"/><path class="cls-4" d="M83.48,265H86v1.6h0a3.62,3.62,0,0,1,1.44-1.17,4.34,4.34,0,0,1,1.94-.43h.31v1.94h-.31a3.57,3.57,0,0,0-2.44.77,2.65,2.65,0,0,0-.88,2.09v3.52H83.48Z"/><path class="cls-4" d="M91.35,265.74v-2.46h2.72V261.1h2.36v2.18h4.73v2.43q0,3-.12,5.1c-.09,1.38-.37,2.24-.84,2.59a3.08,3.08,0,0,1-1.58.62,5.93,5.93,0,0,1-1.48,0,5.3,5.3,0,0,1-1-.26l-.38-.16V271.1a2.08,2.08,0,0,1,.32.14,5,5,0,0,0,.82.26,3.54,3.54,0,0,0,1.18,0,.51.51,0,0,0,.36-.22,1.52,1.52,0,0,0,.22-.79c0-.39.08-1,.12-1.73s0-1.78,0-3H96.37a10.91,10.91,0,0,1-.71,4.05,7.48,7.48,0,0,1-1.8,2.74A9.07,9.07,0,0,1,92,274l-.75.37V271.5a4.78,4.78,0,0,0,1.32-1.06,5.28,5.28,0,0,0,1-1.79,9.35,9.35,0,0,0,.42-2.91Z"/><path class="cls-4" d="M103.52,269.82V263.1h3.83V261h2.1v2.07h4v2.47a10.22,10.22,0,0,1-.62,3.54,6.9,6.9,0,0,1-1.5,2.41,9.54,9.54,0,0,1-1.89,1.45,9,9,0,0,1-1.87.83,11.49,11.49,0,0,1-1.43.35,3.27,3.27,0,0,1-.58.07v-2.39a4.45,4.45,0,0,0,.6-.08,7.69,7.69,0,0,0,1.42-.45,6.62,6.62,0,0,0,1.68-1,4.31,4.31,0,0,0,1.3-1.84,8.19,8.19,0,0,0,.47-2.91v-.08h-5.11v4.38Z"/><path class="cls-4" d="M115.35,264.18v-2.44h4.88v2.44Zm10.39.18a14.29,14.29,0,0,1-2.09,4.66,11.79,11.79,0,0,1-2.73,2.77,10.6,10.6,0,0,1-2.68,1.39,10,10,0,0,1-2.07.47,8,8,0,0,1-.82.06v-2.55a6.1,6.1,0,0,0,.64,0,8.6,8.6,0,0,0,1.6-.32,6.73,6.73,0,0,0,2.06-1.08,9.61,9.61,0,0,0,2-2,11.75,11.75,0,0,0,1.62-3.35Z"/><path class="cls-4" d="M132.4,261c-.05.3-.11.58-.16.82a4,4,0,0,1-.09.4h5.34v2.39a11.16,11.16,0,0,1-.9,3.72,8.55,8.55,0,0,1-1.77,2.63,12,12,0,0,1-5.75,3.27,4.32,4.32,0,0,1-.61.12v-2.54l.55-.13a11.78,11.78,0,0,0,1.35-.47,8.86,8.86,0,0,0,1.71-1,7.27,7.27,0,0,0,1.64-1.6h-2.89v-2.33h3.83a9.4,9.4,0,0,0,.3-1.76h-3.68a10.78,10.78,0,0,1-1.87,2.66,15.35,15.35,0,0,1-1.49,1.29,3.13,3.13,0,0,1-.61.41v-3a3.09,3.09,0,0,0,.36-.29,5.87,5.87,0,0,0,.78-.89,9.59,9.59,0,0,0,.86-1.53A9.9,9.9,0,0,0,130,261Z"/><path class="cls-4" d="M139.29,268.66v-2.45h7.22v2.45Z"/><path class="cls-4" d="M156.87,267.25a4.41,4.41,0,0,0-.55-2.08,2,2,0,0,0-1.53-1c0,1-.1,2-.2,3.06a13,13,0,0,1-.58,2.85,6.14,6.14,0,0,1-1.1,2.06,2,2,0,0,1-1.65.73,2.72,2.72,0,0,1-1.4-.47,3.43,3.43,0,0,1-1.13-1.48,7.29,7.29,0,0,1-.47-2.8A7.58,7.58,0,0,1,149,265a6.22,6.22,0,0,1,1.8-2.28,4.82,4.82,0,0,1,2.54-1,5.89,5.89,0,0,1,2.83.44,4.69,4.69,0,0,1,2.11,1.88,7,7,0,0,1,.92,3.39,8,8,0,0,1-.46,3,4.92,4.92,0,0,1-1.28,2,4.75,4.75,0,0,1-1.71,1,5.52,5.52,0,0,1-1.69.31v-2.35a2.59,2.59,0,0,0,2.1-1.08A5,5,0,0,0,156.87,267.25Zm-5.57,3.14c.24,0,.44-.19.61-.61a7.8,7.8,0,0,0,.39-1.6c.1-.65.17-1.33.22-2s.06-1.35,0-1.93a2.25,2.25,0,0,0-1.15.89,4.87,4.87,0,0,0-.7,1.47,6.49,6.49,0,0,0-.27,1.54,3.78,3.78,0,0,0,.2,1.71C150.81,270.18,151,270.37,151.3,270.39Z"/><path class="cls-4" d="M161.46,264.6v-2.11h2.8q0-.62,0-1c0-.25,0-.38,0-.39h2.16s0,.14-.05.39-.06.58-.09,1h5.48v2.11h-5.67s0,.12,0,.33,0,.41,0,.57h.13l.12,0a7.3,7.3,0,0,1,2.61.25A4.35,4.35,0,0,1,171,267a3.83,3.83,0,0,1,.88,2.51,5.64,5.64,0,0,1-.35,2.09,5.42,5.42,0,0,1-.82,1.42,6.64,6.64,0,0,1-1.18,1.09h-3a4,4,0,0,0,.51-.34,8.22,8.22,0,0,0,1.09-1,6.54,6.54,0,0,0,1.09-1.46,3.9,3.9,0,0,0,.48-1.86,2,2,0,0,0-.18-.88,1.76,1.76,0,0,0-.54-.64,15.69,15.69,0,0,1-.82,1.95,12.52,12.52,0,0,1-1.13,1.9,6.33,6.33,0,0,1-1.39,1.43,2.62,2.62,0,0,1-1.59.55,2.73,2.73,0,0,1-1.3-.35,2.55,2.55,0,0,1-1-1.16,4.47,4.47,0,0,1-.4-2.13,4.24,4.24,0,0,1,.82-2.46,5.37,5.37,0,0,1,2-1.65v-.73c0-.25,0-.5,0-.75Zm2.8,7,.19,0a.54.54,0,0,0,.18-.1c-.08-.39-.16-.87-.25-1.43s-.14-1.13-.17-1.74a3.65,3.65,0,0,0-.66.94,2.81,2.81,0,0,0-.29.94,1.5,1.5,0,0,0,.17,1A1,1,0,0,0,164.26,271.63Zm1.76-3.95c0,.33,0,.67.08,1s.1.71.16,1.09c.16-.34.33-.71.5-1.12a10.3,10.3,0,0,0,.39-1.19,2.94,2.94,0,0,0-.6,0,1.82,1.82,0,0,0-.53.09v.15Z"/><path class="cls-4" d="M175,261.69h7.38v2.19l-2.79,2.05a3.87,3.87,0,0,1,2.36.14,3.11,3.11,0,0,1,1.44,1.36,4.48,4.48,0,0,1,.55,2.15,4.13,4.13,0,0,1-.62,2.32,4,4,0,0,1-1.64,1.49,6.55,6.55,0,0,1-2.16.61,5.83,5.83,0,0,1-2.24-.18,2.85,2.85,0,0,1-1.41-.86,2.36,2.36,0,0,1-.51-1.52,2.89,2.89,0,0,1,.27-1.23,2.07,2.07,0,0,1,1-1,3.08,3.08,0,0,1,1.83-.18,3.15,3.15,0,0,1,1.63.77,4.25,4.25,0,0,1,1,1.44,1.92,1.92,0,0,0,.48-.77,2.73,2.73,0,0,0,.13-.92,1.53,1.53,0,0,0-.56-1.26,2.87,2.87,0,0,0-1.82-.41,5.14,5.14,0,0,0-2,.43,6.75,6.75,0,0,0-1.46.94l-1.84,1.53v-3l4.87-3.69H175Zm3,8.88a.62.62,0,0,0-.62.28.68.68,0,0,0,0,.65,1.05,1.05,0,0,0,.69.52,2.7,2.7,0,0,0,.94.09l.42-.06a1.87,1.87,0,0,0-.49-1A1.66,1.66,0,0,0,178,270.57Z"/><path class="cls-4" d="M198.27,265.41,200.1,267a24,24,0,0,1-2.75,1.77,7.75,7.75,0,0,0,3.27,3,6.9,6.9,0,0,0-.86.94,10.85,10.85,0,0,0-.75,1.09,8.59,8.59,0,0,1-3.19-3.2,18.65,18.65,0,0,1-1.92-5,11.08,11.08,0,0,1-1.13.83,6.92,6.92,0,0,1,1.65,2.15,6,6,0,0,1,.65,2.28,5.48,5.48,0,0,1-.23,2,2.54,2.54,0,0,1-.91,1.33,2.87,2.87,0,0,1-.94.59,3.55,3.55,0,0,1-1.17.16c-.37,0-.82,0-1.34,0a5.18,5.18,0,0,0-.52-2,29.42,29.42,0,0,1-3,1.28,7.61,7.61,0,0,0-1.22-1.92,20.7,20.7,0,0,0,3.58-1.25,15,15,0,0,0,3-1.75l-.15-.32a23.52,23.52,0,0,1-4.7,2.29,7,7,0,0,0-1.16-1.75,19.86,19.86,0,0,0,2.58-.81,13.76,13.76,0,0,0,2.23-1.07l-.1-.09-.1-.1a23.23,23.23,0,0,1-3.74,1.28,8.79,8.79,0,0,0-1.17-1.81,19.27,19.27,0,0,0,4.41-1.28h-1.58V263.6h8.42v1.95H196a12.56,12.56,0,0,0,.47,1.34A15.94,15.94,0,0,0,198.27,265.41Zm-9.84-2.5v1.75h-2.27v-3.84h5.66v-1.16h2.41v1.16H200v3.84h-2.37v-1.75Zm3.86,9.44a1.5,1.5,0,0,0,.44-1.1,22,22,0,0,1-2.39,1.41c.26,0,.61,0,1,0A1.08,1.08,0,0,0,192.29,272.35Z"/><path class="cls-4" d="M213.52,264.47v1.35a9.2,9.2,0,0,0,.16,1.58,11.5,11.5,0,0,0,.5,1.83,8,8,0,0,0,1,1.93,6.8,6.8,0,0,0,1.54,1.62,20.22,20.22,0,0,0-1.44,2.08,6.6,6.6,0,0,1-1.94-2.42,10.18,10.18,0,0,1-1-2.84,8.35,8.35,0,0,1-1.17,2.79,7.44,7.44,0,0,1-2.33,2.46,9.91,9.91,0,0,0-1.08-1.64l-1.1.42q-.15-.63-.18-.72c-1,.33-2.47.8-4.37,1.39l-.72-2.12c.2,0,.57-.11,1.11-.24v-7.08l0,0a5.29,5.29,0,0,0-.6-.87,4.78,4.78,0,0,0-.71-.75,8.55,8.55,0,0,0,3-3.64h2.14a27.48,27.48,0,0,1,2.77,2.87l-1.56,1.5a17.33,17.33,0,0,0-2-2.43,13.16,13.16,0,0,1-1,1.31h2V264h1.73v.94a12.67,12.67,0,0,0,1.73-5.33l2.25.35a23,23,0,0,1-.51,2.42h3l.35-.1,1.56.36a18.88,18.88,0,0,1-1.11,4.61l-1.84-.57a15.64,15.64,0,0,0,.48-2.21Zm-9-.47v-1.09c-.29.35-.63.72-1,1.09Zm.06,1.57v.48h1.69v-.48Zm0,2v.52h1.69v-.52Zm0,3.89,1.31-.33c-.14-.4-.27-.72-.37-.95l1.5-.53H204.6Zm3.72-1.81h-.84a21.84,21.84,0,0,1,1,2.53,7.38,7.38,0,0,0,1.65-2.16,8.55,8.55,0,0,0,1.09-4.18v-1.35h-.14a9.92,9.92,0,0,1-1.44,2.53,8.91,8.91,0,0,0-1.33-.95Z"/><path class="cls-4" d="M218.45,264.14v-2.5h5.87s0,.23,0,.64,0,1-.08,1.67-.12,1.46-.22,2.3c.45.15.9.33,1.36.53,0-.44.09-.9.11-1.37s0-1,0-1.44h2.07v.51c0,.33,0,.77-.06,1.34s-.1,1.19-.18,1.89c.4.19.71.36.93.49a3,3,0,0,0,.35.19v2.82s-.16-.11-.47-.29-.7-.41-1.2-.68a18.45,18.45,0,0,1-.5,2,11.68,11.68,0,0,1-.73,1.85h-2.5s.09-.21.29-.6.42-.95.68-1.68a21.75,21.75,0,0,0,.76-2.61c-.24-.12-.47-.22-.7-.32l-.67-.28,0,0a12.36,12.36,0,0,1-.75,2.13,6.87,6.87,0,0,1-1.19,1.84,2.41,2.41,0,0,1-1.56.82,2,2,0,0,1-1.82-1.11,5,5,0,0,1-.4-2.93,3.57,3.57,0,0,1,.81-1.8,4.86,4.86,0,0,1,1.5-1.22,4.22,4.22,0,0,1,1.82-.49c0-.33.07-.65.09-.95s0-.57.05-.79Zm1.7,6.77a.76.76,0,0,0,.6-.42,4.53,4.53,0,0,0,.43-.94c.11-.35.2-.67.27-.95l.09-.42a1.57,1.57,0,0,0-.91.26,1.82,1.82,0,0,0-.58.63,3.67,3.67,0,0,0-.28.64,1.41,1.41,0,0,0,.06.9C219.94,270.81,220,270.91,220.15,270.91Z"/><path class="cls-4" d="M230.62,264.14v-2.51h9a14.61,14.61,0,0,1-1,3.36,19.22,19.22,0,0,1-1.49,2.79c.47.62.94,1.18,1.4,1.69a10.73,10.73,0,0,0,1.2,1.18l.53.43v3c-.57-.41-1.08-.81-1.53-1.19a18.4,18.4,0,0,1-1.47-1.4,21.17,21.17,0,0,1-1.52-1.8,15.77,15.77,0,0,1-1.94,2,15.24,15.24,0,0,1-1.84,1.4,14.53,14.53,0,0,1-1.36.78l-.53.24v-2.8a10.51,10.51,0,0,0,2.44-1.69,15.89,15.89,0,0,0,2-2.26,14.1,14.1,0,0,0,1.75-3.24Z"/><path class="cls-4" d="M246.9,261c-.05.3-.11.58-.16.82a4,4,0,0,1-.09.4H252v2.39a11.16,11.16,0,0,1-.9,3.72,8.55,8.55,0,0,1-1.77,2.63,12,12,0,0,1-5.75,3.27,4.32,4.32,0,0,1-.61.12v-2.54l.55-.13a11.78,11.78,0,0,0,1.35-.47,8.86,8.86,0,0,0,1.71-1,7.27,7.27,0,0,0,1.64-1.6h-2.89v-2.33h3.83a9.4,9.4,0,0,0,.3-1.76h-3.68a10.78,10.78,0,0,1-1.87,2.66,15.35,15.35,0,0,1-1.49,1.29,3.13,3.13,0,0,1-.61.41v-3a3.09,3.09,0,0,0,.36-.29,5.87,5.87,0,0,0,.78-.89,9.59,9.59,0,0,0,.86-1.53,9.9,9.9,0,0,0,.65-2.18Z"/><path class="cls-4" d="M264.23,261.33a14.44,14.44,0,0,1-1.6,2.56c-.64.81-1.21,1.5-1.73,2.1v8.22h-2.47v-6.32a13.52,13.52,0,0,1-2.31,1.55,14.7,14.7,0,0,1-1.77.81l-.67.22V268l.8-.32a15.34,15.34,0,0,0,2-1.07,13.92,13.92,0,0,0,2.52-2,14.81,14.81,0,0,0,2.42-3.21Z"/><path class="cls-4" d="M265.24,273.53a19.63,19.63,0,0,0,.88-2.12,17,17,0,0,0,.6-2.37,16.32,16.32,0,0,0,.26-3v-4.44h2.36v4.44a20.14,20.14,0,0,1-.39,4.16,14.76,14.76,0,0,1-.71,2.5,5.9,5.9,0,0,1-.37.82Zm10.83-2.42a7.74,7.74,0,0,1-1.75,1.55,8.39,8.39,0,0,1-1.72.83,7.58,7.58,0,0,1-1.37.33,3.86,3.86,0,0,1-.57.06V261.44H273v9.05a6.65,6.65,0,0,0,1-.54,6.2,6.2,0,0,0,1-.8c.31-.31.66-.66,1-1.07Z"/></g></svg>