<svg id="レイヤー_1" data-name="レイヤー 1" xmlns="http://www.w3.org/2000/svg" viewBox="0 0 340 396"><defs><style>.cls-1{fill:none;}.cls-2{fill:#fff;}.cls-3{fill:#40220f;}.cls-4{fill:#f5e973;}</style></defs><title>tb02</title><rect class="cls-1" width="340" height="396"/><g id="_02" data-name=" 02"><path class="cls-2" d="M47.34,38.58A12.81,12.81,0,0,0,50,34.33a12.28,12.28,0,0,0,.87-3.68.89.89,0,0,0-.47-.88,14.65,14.65,0,0,0-4,1.14,1.12,1.12,0,0,1-.56.18,1.62,1.62,0,0,1-1.13-.69,1.76,1.76,0,0,1-.61-1.08,1.28,1.28,0,0,1,.07-.34,1.69,1.69,0,0,0,1.48.83,18.78,18.78,0,0,0,3.08-.47c1.09-.18,3.38-.47,5.54-.67a8.42,8.42,0,0,0,1.41-.3,1,1,0,0,1,.45-.09,2.2,2.2,0,0,1,1,.27c.5.23.85.57.85.83s-.2.36-.51.36a1.74,1.74,0,0,1-.45-.06,17.63,17.63,0,0,0-2.9-.23,21.48,21.48,0,0,0-3,.18c.83.45,1.19.83,1.19,1.24a11,11,0,0,1-1.15,3.53,10.63,10.63,0,0,1-3.57,4.37ZM47,24.68a2.94,2.94,0,0,0,2.16,1,9.86,9.86,0,0,0,3.78-.88,1,1,0,0,1,.54-.15c.47,0,1.23.58,1.23.94s-.22.32-.94.48a24.88,24.88,0,0,1-4.12.47,3.09,3.09,0,0,1-2.92-1.65ZM55.34,24a8.74,8.74,0,0,1,2.12,1.26,1.26,1.26,0,0,1,.54,1c0,.55-.2,1-.45,1s-.25-.13-.4-.43a8,8,0,0,0-2-2.67Zm1.58-1a7.2,7.2,0,0,1,2.16,1c.51.36.65.61.65,1.06s-.16.87-.4.87-.25-.09-.39-.36a6.76,6.76,0,0,0-2.16-2.38Z"/><path class="cls-2" d="M64.93,30.08a15,15,0,0,0,2.57-.34,2.59,2.59,0,0,0,.76-.24,1.08,1.08,0,0,1,.24-.12.5.5,0,0,1,.27-.08,1.88,1.88,0,0,1,.9.62c.28.3.36.43.36.61a.39.39,0,0,1-.13.29,3.19,3.19,0,0,0-.41,1.24c-.27,1-.65,2.61-.78,3.17l.74-.06a5.27,5.27,0,0,0,1.89-.25.85.85,0,0,1,.31-.09,2.25,2.25,0,0,1,.75.31c.43.25.7.57.7.83a.4.4,0,0,1-.41.36,3.78,3.78,0,0,1-1-.2A10.13,10.13,0,0,0,69.56,36a18.44,18.44,0,0,0-4.68.55,7.2,7.2,0,0,0-1.57.51.86.86,0,0,1-.47.14,1.45,1.45,0,0,1-1-.59,2.59,2.59,0,0,1-.6-1.19,1.08,1.08,0,0,1,.07-.31,1.67,1.67,0,0,0,1.37.85,5.65,5.65,0,0,0,1.23-.13c1.15-.18,2-.3,2.73-.37a10,10,0,0,0,1.1-.15,48.33,48.33,0,0,0,.7-4.93v-.07a17.65,17.65,0,0,0-2.16.46,7.09,7.09,0,0,0-1,.38,1.07,1.07,0,0,1-.43.09c-.32,0-.63-.25-.9-.72a2.1,2.1,0,0,1-.34-1,.66.66,0,0,1,.11-.36A1.4,1.4,0,0,0,64.93,30.08Z"/><path class="cls-2" d="M77.31,30a2.42,2.42,0,0,0,1.75.43l2.21-.06,7-.1a7.1,7.1,0,0,1,2.34.16.39.39,0,0,1,.25.36.52.52,0,0,1-.41.48c-.49.17-.92.18-4.33.22-1.67,0-5.79.13-6.42.16-.85.06-1,.07-1.3.24l-.27.05c-.27,0-.56-.2-.87-.59a3.38,3.38,0,0,1-.68-1.66c0-.25,0-.29.14-.41A1.66,1.66,0,0,0,77.31,30Z"/><path class="cls-2" d="M95.48,38.23a24.9,24.9,0,0,0,6-6.89,17.73,17.73,0,0,0,2.14-4.81c0-.18-.09-.23-.36-.23a27.06,27.06,0,0,0-3.33.61,19,19,0,0,0-3.3,1,1.91,1.91,0,0,1-.66.18c-.38,0-.85-.36-1.3-1A2.12,2.12,0,0,1,94.16,26a.59.59,0,0,1,.13-.36,1.74,1.74,0,0,0,1.67,1,42.25,42.25,0,0,0,5.13-.74,6,6,0,0,0,2.09-.5c.22-.13.22-.13.36-.13a2.79,2.79,0,0,1,1.32.83,1.48,1.48,0,0,1,.55.89c0,.14,0,.25-.25.46a3.26,3.26,0,0,0-.63,1,26,26,0,0,1-5.18,7.28,17.79,17.79,0,0,1-3.71,2.68Zm13.28-13.59a1.8,1.8,0,1,1-1.8-1.8A1.81,1.81,0,0,1,108.76,24.64Zm-3.06,0a1.26,1.26,0,0,0,2.52,0h0a1.26,1.26,0,1,0-2.52,0Z"/><path class="cls-2" d="M124,29.52a16,16,0,0,1-2.68,3.06,22.52,22.52,0,0,1-5.44,3.67,4.12,4.12,0,0,0-1.35.87.57.57,0,0,1-.41.23c-.36,0-1.19-1.06-1.19-1.55,0-.09,0-.09.09-.32a10.22,10.22,0,0,0,.14-2.76c0-4-.09-5.72-.32-6.39-.16-.45-.45-.66-1.24-.93a.82.82,0,0,1,.56-.18,3.44,3.44,0,0,1,1.44.43c.7.38,1.06.74,1.06,1.1a.85.85,0,0,1-.09.38,10.73,10.73,0,0,0-.24,1.78c-.09,1.1-.19,4.37-.19,5.71v.9a23.45,23.45,0,0,0,6.14-3.19,24.34,24.34,0,0,0,3.49-3Z"/><path class="cls-2" d="M127.32,28.75a9.24,9.24,0,0,1,3.15,1.06,1.28,1.28,0,0,1,.68,1.19c0,.46-.23.86-.5.86s-.29-.07-.56-.41A8.84,8.84,0,0,0,127.21,29Zm13.9-.45a20.13,20.13,0,0,1-2.69,3.07,39.88,39.88,0,0,1-6.82,5.24,15.3,15.3,0,0,0-1.39,1,.58.58,0,0,1-.41.18c-.36,0-.77-.34-1.28-1.08a3,3,0,0,1-.56-1.38.59.59,0,0,1,.17-.42A1.72,1.72,0,0,0,129.59,36,12,12,0,0,0,133,34.26a41.75,41.75,0,0,0,8-6.13ZM129.3,25.56c2.88.68,3.8,1.24,3.8,2.29,0,.5-.22.9-.49.9s-.2,0-1-1a8.24,8.24,0,0,0-2.47-2Zm7.38-1.44c1.93.84,2.79,1.56,2.79,2.32a1.5,1.5,0,0,1-.25.87.31.31,0,0,1-.22.09c-.2,0-.25-.06-.5-.54a9.38,9.38,0,0,0-2-2.56ZM138.35,23c2,.66,2.92,1.33,2.92,2.14,0,.52-.18.92-.43.92s-.27-.11-.47-.45a8,8,0,0,0-2.14-2.42Z"/><path class="cls-2" d="M147.42,38.58A13,13,0,0,0,150,34.33a12.65,12.65,0,0,0,.86-3.68.89.89,0,0,0-.47-.88,14.65,14.65,0,0,0-4,1.14,1.06,1.06,0,0,1-.55.18,1.66,1.66,0,0,1-1.14-.69,1.76,1.76,0,0,1-.61-1.08,1.28,1.28,0,0,1,.07-.34,1.71,1.71,0,0,0,1.48.83,18.78,18.78,0,0,0,3.08-.47c1.1-.18,3.38-.47,5.54-.67a8.42,8.42,0,0,0,1.41-.3,1,1,0,0,1,.45-.09,2.2,2.2,0,0,1,1,.27c.51.23.85.57.85.83s-.2.36-.51.36a1.74,1.74,0,0,1-.45-.06,17.63,17.63,0,0,0-2.9-.23,21.48,21.48,0,0,0-3,.18c.83.45,1.19.83,1.19,1.24a11,11,0,0,1-1.15,3.53,10.63,10.63,0,0,1-3.57,4.37Zm-.34-13.9a2.94,2.94,0,0,0,2.16,1A9.76,9.76,0,0,0,153,24.8a1,1,0,0,1,.54-.15c.47,0,1.23.58,1.23.94s-.22.32-.94.48a24.88,24.88,0,0,1-4.12.47,3.09,3.09,0,0,1-2.92-1.65Zm8.34-.71a8.74,8.74,0,0,1,2.12,1.26,1.26,1.26,0,0,1,.56,1.08c0,.55-.2,1-.45,1s-.25-.13-.39-.43a8.22,8.22,0,0,0-2-2.67ZM157,23a7.2,7.2,0,0,1,2.16,1c.51.36.65.61.65,1.06s-.16.87-.39.87-.26-.09-.4-.36a6.76,6.76,0,0,0-2.16-2.38Z"/><path class="cls-2" d="M162.78,25.79a10.08,10.08,0,0,1,3.47,1.35,1.37,1.37,0,0,1,.61,1.23c0,.59-.19,1-.5,1s-.29-.09-.77-.72A9.33,9.33,0,0,0,162.65,26Zm12.8,1a18.89,18.89,0,0,1-3.78,4.84,35.64,35.64,0,0,1-5.06,4.11c-.85.59-.94.66-1.06.83-.29.34-.4.43-.63.43-.74,0-2.11-1.73-2.11-2.65A1,1,0,0,1,163,34a2.59,2.59,0,0,0,.65.79,1.11,1.11,0,0,0,.72.38,4.43,4.43,0,0,0,1.74-.75,26.16,26.16,0,0,0,4.31-3,28.55,28.55,0,0,0,4.84-4.8Z"/><path class="cls-2" d="M178.35,37.17a25.83,25.83,0,0,0,4.84-3.94,32.48,32.48,0,0,0,3.44-4.48,12,12,0,0,0,1.22-2.33,19.51,19.51,0,0,0-3.79.8,9.94,9.94,0,0,0-1.52.48.77.77,0,0,1-.3.06c-.4,0-.78-.33-1.17-1a2.2,2.2,0,0,1-.38-1.08.77.77,0,0,1,.12-.36c.53.93.9,1.21,1.7,1.21a30.11,30.11,0,0,0,3.78-.51,4.78,4.78,0,0,0,1.69-.5.69.69,0,0,1,.41-.17c.38,0,1.41.92,1.41,1.26a.41.41,0,0,1-.24.35c-.37.25-.37.25-1,1.22-.87,1.3-.87,1.3-2.27,3.13a17.77,17.77,0,0,1,4.66,3,2.37,2.37,0,0,1,.69,1.78c0,.58-.18.94-.49.94a.56.56,0,0,1-.41-.29,6.52,6.52,0,0,1-.43-.72A15.4,15.4,0,0,0,186,31.63a19.74,19.74,0,0,1-4.36,4.05,16.48,16.48,0,0,1-3.15,1.76Z"/><path class="cls-2" d="M195.15,24.67c3.62,1.39,4.52,2,4.52,3.24,0,.9-.46,1.8-.95,1.8-.24,0-.41-.17-.64-.69a13,13,0,0,0-3.1-4Zm.26,10.79a9.86,9.86,0,0,0,1.68.43c.58,0,1-.78,6.24-12.24l.41.2L199.36,36a2.62,2.62,0,0,0-.06,2.52,10.07,10.07,0,0,1,.43,2.67,2.16,2.16,0,0,1-.55,1.59,2.27,2.27,0,0,1-1.51.79.73.73,0,0,1-.64-.76s.06-.32.12-.58a18.72,18.72,0,0,0,.44-3.42,2.8,2.8,0,0,0-.44-1.71c-.29-.38-.61-.61-1.88-1.28ZM197,18.14c3.71,1.56,4.61,2.2,4.61,3.13s-.49,1.86-.93,1.86c-.23,0-.35-.15-.61-.61a13.82,13.82,0,0,0-1.16-1.77,15.33,15.33,0,0,0-2.15-2.26Zm15,23.12h4.82c1.07-1.19,1.07-1.19,2.09-2.29l3,2.55c.09.11.12.17.12.23s-.12.17-.26.17H203.56a13.3,13.3,0,0,0-2.52.18l-.23-1.1a11,11,0,0,0,2.75.23h6.35V22h-4.2a13.29,13.29,0,0,0-2.44.17l-.2-1.13a11,11,0,0,0,2.75.29h10.53c.82-1,1.05-1.28,1.86-2.18,1.22,1,1.6,1.37,2.81,2.47a.28.28,0,0,1,.12.2c0,.12-.12.18-.35.18H212Z"/><path class="cls-2" d="M247.62,21.33c.78-1,1-1.25,1.76-2.12,1.31,1,1.72,1.28,2.93,2.32a.68.68,0,0,1,.12.26c0,.12-.14.21-.35.21H239.64v3.56h7.74c.55-.58.7-.75,1.25-1.27l1.8,1.3c.17.18.26.26.26.38s-.2.41-1.1.93V41.84a1.65,1.65,0,0,1-.29,1.22c-.44.58-1.4.89-3,1a1.61,1.61,0,0,0-.78-1.33c-.47-.29-.79-.38-3.31-.85v-.52c1.59.15,1.59.15,4.84.32.41,0,.5-.06.5-.32V26.23H230.1V43.72c0,.32-.21.41-1,.44a3.11,3.11,0,0,0-.61,0h-.06c-.29,0-.46-.12-.46-.32v-.06c.14-2.78.26-9.37.26-14.18,0-2.62,0-3.63-.12-5.34a12.32,12.32,0,0,1,2.27,1.27h7.37V22H229.3a18,18,0,0,0-2.84.17L226.27,21a13.13,13.13,0,0,0,3,.32h8.45v-.75c0-1.22,0-1.66-.09-2.82l1.45.2c1.54.18,1.91.29,1.91.58s-.32.44-1.33.79v2Zm-8.16,14.5h3.31c.64-.75.81-1,1.48-1.68a24.27,24.27,0,0,1,2.26,1.91.51.51,0,0,1,.15.3c0,.08-.12.14-.35.14h-6.85V38c0,1.59,0,3.39.12,4.7v.08c0,.32-.43.44-1.71.44-.29,0-.38-.06-.38-.23v-.06c.06-1.33.15-4,.15-4.93V36.5H234.1a14.28,14.28,0,0,0-2.53.17l-.14-1.07a12.58,12.58,0,0,0,3,.23h3.22V32.24h-4.73a10.89,10.89,0,0,0-1.89.17l-.17-1.16a8.71,8.71,0,0,0,2.32.32h3c-.26-.15-.26-.15-.52-1a14,14,0,0,0-1.86-3.42L234,27c2.09,1.1,3.31,2.2,3.31,3a2.73,2.73,0,0,1-.32,1,1,1,0,0,1-.49.61h3.19a27.1,27.1,0,0,0,2.26-4.7c2,.67,2.61,1,2.61,1.25s-.38.35-1.19.37a37.9,37.9,0,0,1-3,3.08h3c.52-.61,1-1.16,1.39-1.65,1,.81,1.28,1.07,2.21,1.94.09.12.11.17.11.23s-.11.15-.31.15h-7.29Z"/><path class="cls-2" d="M258,35.08c.05.44.08.89.09,1.33a8.85,8.85,0,0,1-.58,3.6c-.38.84-.84,1.33-1.28,1.33s-.58-.58-.58-1.45c0-.61.09-.78.64-1.24a4.77,4.77,0,0,0,1.31-3.57Zm7.52-11.34c.52-.64.66-.84,1.19-1.42a20.19,20.19,0,0,1,1.9,1.68,1,1,0,0,1,.12.23c0,.12-.09.14-.32.14h-4.33v3.48h1.22c.58-.63.76-.81,1.37-1.45.84.76,1.07,1,1.82,1.74a.72.72,0,0,1,.12.21c0,.11-.12.17-.35.17h-4.18v3.86h1.86c.61-.61.61-.61,1.13-1.1.61.55.81.72,1.39,1.27.21.27.27.35.27.44s-.12.26-.93.67c-.18,4-.67,7.07-1.34,8.32a3.33,3.33,0,0,1-1.33,1.22,6.92,6.92,0,0,1-2.06.41c-.2-1.31-.41-1.45-3.22-2.15l.06-.46c1.45.23,3.8.52,4.46.52.44,0,.73-.41,1-1.42a31,31,0,0,0,.76-7.05h-6.5v.61c0,.34-.29.43-1.25.43-.43,0-.58-.09-.58-.32v-.11c.09-2.61.12-3.72.12-7.31,0-5.31,0-6.47-.15-8.07.84.5,1.1.64,2,1.25h5.66c.55-.73.73-1,1.31-1.68a20.15,20.15,0,0,1,2.23,2,.43.43,0,0,1,.14.23c0,.12-.05.15-.34.15h-4.62v3.51Zm-6.15,11.19c1.07,1.8,1.39,2.61,1.39,3.6,0,.55-.64,1.39-1.07,1.39-.24,0-.35-.2-.35-.64v-.17c.06-.93.08-1.39.08-1.62a7.87,7.87,0,0,0-.37-2.41Zm3.1-14.7h-2.84v3.51h2.84Zm-2.84,4.17v3.48h2.84V24.4Zm0,4.15v3.86h2.84V28.55Zm1.56,5.95c1.31,1.27,2.09,2.44,2.09,3.1s-.5,1.4-.88,1.4c-.17,0-.29-.12-.32-.41a11.32,11.32,0,0,0-1.22-3.89Zm2-.41c1.36,1.16,2.09,2.06,2.09,2.67S264.75,38,264.4,38c-.11,0-.2-.12-.26-.38s-.14-.64-.29-1.16a6,6,0,0,0-1-2.12ZM272,29.22a30.43,30.43,0,0,1-1,7.89,17.71,17.71,0,0,1-2.29,5A9.59,9.59,0,0,1,267,44l-.32-.26a18.28,18.28,0,0,0,2.87-7.42,60.45,60.45,0,0,0,.69-8.91c0-5.63,0-7.89-.08-9.31.93.61,1.22.78,2.14,1.42h6.5c.49-.52.64-.7,1.16-1.25a17.31,17.31,0,0,1,1.63,1.34c.23.17.32.32.32.43s-.06.21-1.05.67v7.86a15.17,15.17,0,0,0,.06,1.65v.18c0,.35-.38.46-1.54.46-.38,0-.46-.06-.49-.32V29.22h-3.51a13.76,13.76,0,0,0,1.85,6.44,14.92,14.92,0,0,0,3.69,4.26,8.43,8.43,0,0,0,2.52,1.4v.43c-1.13.23-1.33.41-2.2,1.8A13.93,13.93,0,0,1,277.4,39a20,20,0,0,1-2.4-7.37c-.06-.64-.11-1-.23-2.41Zm6.94-.67V20.23h-6.82V22.4c0,2.06,0,3.8-.12,6.15Z"/><path class="cls-2" d="M286.59,40.3c2.35-.06,2.52-.29,2.52-3V23.68c0-2.7-.17-2.87-2.52-3V20h7.71v.69c-2.38.12-2.55.29-2.55,3V37.34c0,2.67.2,2.9,2.55,3V41h-7.71Z"/><path class="cls-3" d="M59.17,264.16v-2.45h9.77v11.61H59.17v-2.46h7.25V268.6H59.56v-2.28h6.86v-2.16Z"/><path class="cls-3" d="M71,268.66v-2.45h7.21v2.45Z"/><path class="cls-3" d="M90,273.33H80.2V261.89H90Zm-2.56-9H82.75v6.53h4.72Z"/><path class="cls-3" d="M93.67,263.44l.94,5.36H93l-.91-5.36ZM93.06,274v-2.19a5.56,5.56,0,0,0,2.71-1.18,5.86,5.86,0,0,0,1.61-2.11,13.09,13.09,0,0,0,.82-2.35,17.08,17.08,0,0,0,.38-1.89c.06-.51.09-.77.08-.79h2.09a20.69,20.69,0,0,1-.33,2.49,16.09,16.09,0,0,1-.69,2.37,10,10,0,0,1-1.36,2.46,8.64,8.64,0,0,1-2.17,2.05A7.82,7.82,0,0,1,93.06,274Zm3.22-10.53,1,5.36h-1.7l-.91-5.36Z"/><path class="cls-3" d="M102,273.53s.11-.22.3-.65a16.39,16.39,0,0,0,.65-1.82,21.58,21.58,0,0,0,1-6.38v-3.27h2.43v3.27a28.7,28.7,0,0,1-.23,3.82,18.78,18.78,0,0,1-.57,2.78c-.23.74-.5,1.49-.8,2.25Zm8.11-13.34a1.74,1.74,0,0,1,2.45,0,1.67,1.67,0,0,1,.5,1.23,1.73,1.73,0,0,1-1.71,1.71h-.21v1.55a20.44,20.44,0,0,0,.31,3.58,22.33,22.33,0,0,0,.66,2.8c.25.78.47,1.39.66,1.82s.28.64.29.65h-2.61a12.88,12.88,0,0,1-.9-2.25,21.75,21.75,0,0,1-.57-2.78,25.72,25.72,0,0,1-.26-3.82v-3.27h.89a1.67,1.67,0,0,1,.53-1.22Zm2,1.24a.78.78,0,0,0-.78-.78h0a.74.74,0,0,0-.53.21.87.87,0,0,0-.22.57.77.77,0,0,0,.22.54.8.8,0,0,0,1.1,0,.75.75,0,0,0,.26-.54Z"/><path class="cls-3" d="M114.86,263.89l1.83-.15v-2.49h2.39v2.38h1.19a2.2,2.2,0,0,1,1.8.76,4.25,4.25,0,0,1,.76,2.41,19.9,19.9,0,0,1,.09,2.44,12,12,0,0,1-.26,2.32,3.93,3.93,0,0,1-.79,1.72,2,2,0,0,1-1.52.69,7.37,7.37,0,0,1-1.32-.12,2.68,2.68,0,0,1-.49-.11v-2.5a4.66,4.66,0,0,0,1.43.28c.27,0,.46-.29.56-.77a8.66,8.66,0,0,0,.15-1.76,19,19,0,0,0-.07-2c0-.4-.07-.65-.21-.76a1.46,1.46,0,0,0-.79-.2h-.67a28.5,28.5,0,0,1-.65,4,35.83,35.83,0,0,1-1.16,3.78h-2.52a22.48,22.48,0,0,0,1.33-3.71,26.91,26.91,0,0,0,.66-4l-1.23.12-.49,0Zm6.92-2.17h2.35A23.79,23.79,0,0,1,126,268h-2.3A19.48,19.48,0,0,0,121.78,261.72Z"/><path class="cls-3" d="M127.77,269.78v-5.06h2.29v2.52l.33-.28a4.17,4.17,0,0,1,1-.53,5.39,5.39,0,0,1,1.54-.35,5,5,0,0,1,2.41.36,3.42,3.42,0,0,1,1.56,1.35,4.24,4.24,0,0,1,.53,2.06,3.57,3.57,0,0,1-2.15,3.47c-1.45.69-3.59.82-6.45.39v-2.38a19.66,19.66,0,0,0,3.25.32,5.33,5.33,0,0,0,1.9-.26,1.68,1.68,0,0,0,.89-.66,1.5,1.5,0,0,0,.23-.9,1.76,1.76,0,0,0-.25-.87,1.56,1.56,0,0,0-.74-.65,2.54,2.54,0,0,0-1.39-.09,4.55,4.55,0,0,0-1.59.66,10.11,10.11,0,0,0-1.17.9Zm1.23-8.37h3.06a14.71,14.71,0,0,1,1.49.11l1.25.16.51.08v2.51l-.54-.12c-.35-.07-.77-.15-1.28-.22s-1-.11-1.47-.13-1,0-1.43,0H129Z"/><path class="cls-3" d="M143.13,269.68v.76h2.21v2h-2.21v2.32h-2v-2.32h-2.25v-2h2.25v-.76h-1.92v-6h1.9V263h-2v-2h2v-1.42h2V261h2.28v2h-2.28v.7h1.83a8.25,8.25,0,0,0,2-1.82,12,12,0,0,0,1.52-2.27h2a14.29,14.29,0,0,0,1.8,2.36,7.38,7.38,0,0,0,2.09,1.59,9.78,9.78,0,0,0-1.17,2,8.63,8.63,0,0,1-1.47-1.16v.89H147.3v-.78a8,8,0,0,1-1.43,1.16,9.33,9.33,0,0,0-.79-1.5v5.47Zm-2.4-4.38v.7h.71v-.66Zm0,2.13v.65h.71v-.65Zm2.75-1.47v-.66h-.7v.7Zm0,2.12v-.65h-.7v.65Zm5.94-2.06v7.14c0,.72-.13,1.18-.4,1.37a2.18,2.18,0,0,1-1.27.3,4.62,4.62,0,0,0-.37-1.56h.4c.06,0,.1,0,.1-.14v-1.28h-.75v2.92h-1.54V266Zm-1.54,1.59h-.75v.6h.75Zm-.75,2.63h.75v-.56h-.75Zm1.15-6.72h2.58a12,12,0,0,1-1.31-1.78A13.08,13.08,0,0,1,148.28,263.52Zm3.1,3v5.83h-1.55v-5.83Zm.43,6.46v-7.16h1.8V273a3.35,3.35,0,0,1-.13,1,1,1,0,0,1-.51.56,5.18,5.18,0,0,1-2.14.3,5.81,5.81,0,0,0-.5-1.68h1.25a.22.22,0,0,0,.23-.21h0Z"/><path class="cls-3" d="M158.16,260.49H164q0,8.65,6.19,12.25a9,9,0,0,0-1,.95,13.34,13.34,0,0,0-.9,1.09,12.9,12.9,0,0,1-5.65-7.42,14,14,0,0,1-5.68,7.46,11.8,11.8,0,0,0-1-1c-.45-.4-.82-.71-1.12-.93q4.62-2.28,5.9-8.7l1.16.22c-.08-.47-.15-1-.2-1.58h-3.53Z"/><path class="cls-3" d="M180.08,267.25a4.45,4.45,0,0,0-.55-2.08,2,2,0,0,0-1.53-1c0,1-.1,2-.2,3.06a12.54,12.54,0,0,1-.58,2.85,6.19,6.19,0,0,1-1.09,2.06,2,2,0,0,1-1.66.73,2.69,2.69,0,0,1-1.4-.47,3.35,3.35,0,0,1-1.12-1.48,7,7,0,0,1-.48-2.8,7.46,7.46,0,0,1,.7-3.15,6.25,6.25,0,0,1,1.8-2.28,4.86,4.86,0,0,1,2.55-1,5.8,5.8,0,0,1,2.82.44,4.64,4.64,0,0,1,2.11,1.88,7.07,7.07,0,0,1,.93,3.39,7.86,7.86,0,0,1-.47,3,5,5,0,0,1-1.28,2,4.76,4.76,0,0,1-1.71,1,5.38,5.38,0,0,1-1.69.31v-2.35a2.59,2.59,0,0,0,2.1-1.08A5,5,0,0,0,180.08,267.25Zm-5.56,3.14c.23,0,.44-.19.6-.61a7.33,7.33,0,0,0,.39-1.6c.1-.65.17-1.33.22-2s.06-1.35.05-1.93a2.21,2.21,0,0,0-1.15.89,5.09,5.09,0,0,0-.7,1.47,6.72,6.72,0,0,0-.27,1.54,4,4,0,0,0,.2,1.71A.81.81,0,0,0,174.52,270.39Z"/><path class="cls-3" d="M184.25,263.86v-2.39h10.56v2.39a8.56,8.56,0,0,1-1.18,3,6.8,6.8,0,0,1-1.6,1.78,11.6,11.6,0,0,1-1.26.79,2.23,2.23,0,0,1-.49.24V267a2.3,2.3,0,0,0,.4-.23,3.75,3.75,0,0,0,.86-.92,5.15,5.15,0,0,0,.73-1.93Zm0,7.71a2.36,2.36,0,0,0,.51-.12,3.19,3.19,0,0,0,1.08-.6,3.83,3.83,0,0,0,1-1.42,6.18,6.18,0,0,0,.48-2.61v-1.44h2.36v1.53a8.12,8.12,0,0,1-.63,3.23,7.34,7.34,0,0,1-1.38,2.14,7.08,7.08,0,0,1-1.58,1.25,9.8,9.8,0,0,1-1.88.74Z"/><path class="cls-3" d="M196.34,264.18v-2.44h4.88v2.44Zm10.39.18a14.2,14.2,0,0,1-2.09,4.66,11.4,11.4,0,0,1-2.73,2.77,10.35,10.35,0,0,1-2.68,1.39,9.85,9.85,0,0,1-2.07.47c-.27,0-.55.05-.82.06v-2.55H197a8.83,8.83,0,0,0,1.61-.32,6.69,6.69,0,0,0,2-1.08,9.48,9.48,0,0,0,2-2,11.8,11.8,0,0,0,1.62-3.35Z"/><path class="cls-3" d="M208.27,268v-2.4h10.18V268H215.2a6.15,6.15,0,0,1-.79,2.78,5.48,5.48,0,0,1-1.67,1.75,8.41,8.41,0,0,1-1.9.94,11.65,11.65,0,0,1-1.52.38,4.2,4.2,0,0,1-.62.07V271.4a4.09,4.09,0,0,0,.6-.07,5.9,5.9,0,0,0,1.36-.4,3.34,3.34,0,0,0,1.35-1,3.54,3.54,0,0,0,.66-1.91Zm.43-4v-2.39H218V264Z"/><path class="cls-3" d="M229,263.36a10.86,10.86,0,0,1-1.35,2.18c-.53.68-1,1.28-1.47,1.78v7h-2.1V269a12.08,12.08,0,0,1-2,1.31,17.14,17.14,0,0,1-2.07.88V269a17.85,17.85,0,0,0,2.36-1.17,12.47,12.47,0,0,0,4.2-4.46Z"/><path class="cls-3" d="M230.16,268.66v-2.45h7.22v2.45Z"/><path class="cls-3" d="M244,261a4.09,4.09,0,0,1-.15.85c-.06.27-.13.53-.19.78h5.14V265a10.3,10.3,0,0,1-.89,3.58,8.57,8.57,0,0,1-1.73,2.56,10.69,10.69,0,0,1-2.06,1.61,14.93,14.93,0,0,1-2,1,10.82,10.82,0,0,1-1.49.49,5.6,5.6,0,0,1-.59.12v-2.54a2.57,2.57,0,0,0,.61-.14,8.62,8.62,0,0,0,1.48-.59,8,8,0,0,0,1.83-1.28,7.14,7.14,0,0,0,1.54-2,8.36,8.36,0,0,0,.79-2.85h-3.61a15.63,15.63,0,0,1-1.77,2.28,11.57,11.57,0,0,1-1.43,1.28,3.85,3.85,0,0,1-.6.39v-3l.35-.29a4.94,4.94,0,0,0,.78-.93,10.75,10.75,0,0,0,.85-1.52,9.52,9.52,0,0,0,.65-2.15Z"/><path class="cls-3" d="M262.92,265.41l1.83,1.56a25.71,25.71,0,0,1-2.75,1.77,7.7,7.7,0,0,0,3.27,3,5.89,5.89,0,0,0-.86.94,8.11,8.11,0,0,0-.75,1.09,8.59,8.59,0,0,1-3.19-3.2,18.75,18.75,0,0,1-1.92-5,13.12,13.12,0,0,1-1.13.83,6.79,6.79,0,0,1,1.65,2.15,5.86,5.86,0,0,1,.65,2.28,5.19,5.19,0,0,1-.24,2,2.51,2.51,0,0,1-.9,1.33,2.72,2.72,0,0,1-.94.59,3.56,3.56,0,0,1-1.17.16h-1.34a5.16,5.16,0,0,0-.52-2,30.36,30.36,0,0,1-3,1.28,7.72,7.72,0,0,0-1.22-1.92A20.9,20.9,0,0,0,254,271a15.27,15.27,0,0,0,3-1.75l-.15-.32a23,23,0,0,1-4.71,2.29,6.8,6.8,0,0,0-1.15-1.75,19.3,19.3,0,0,0,2.58-.81,14.27,14.27,0,0,0,2.23-1.07l-.1-.09-.1-.1a23.57,23.57,0,0,1-3.74,1.28,8.62,8.62,0,0,0-1.17-1.81,19.23,19.23,0,0,0,4.41-1.28h-1.58v-2h8.42v2h-1.26a12.45,12.45,0,0,0,.46,1.34A15.61,15.61,0,0,0,262.92,265.41Zm-9.84-2.5v1.75h-2.27v-3.84h5.66v-1.16h2.41v1.16h5.73v3.84h-2.38v-1.75Zm3.86,9.44a1.51,1.51,0,0,0,.44-1.1,22.17,22.17,0,0,1-2.4,1.41h1A1.07,1.07,0,0,0,256.94,272.35Z"/><path class="cls-3" d="M280.88,271.43h-4.32c1.92.69,3.44,1.31,4.58,1.84l-2.41,1.56a25.63,25.63,0,0,0-4.48-2l1.59-1.37H271.5l1.63,1.31a26.73,26.73,0,0,1-5.25,2.09,15.88,15.88,0,0,0-1.6-1.78,20.36,20.36,0,0,0,4.33-1.62h-4.08v-2.15h14.35Zm-2.22-11.27v8.58h-9.89v-8.58Zm-2.41,2.37v-.64h-5.2v.64Zm0,2.24v-.64h-5.2v.64Zm0,2.25v-.64h-5.2V267Z"/></g><path class="cls-4" d="M36.71,323.73l-1,3.28H32.43l4.92-15h3.8l4.92,15H42.76l-1-3.28Zm2.53-8.79-1.8,6.15h3.61Z"/><path class="cls-4" d="M57.49,324.14V327h-11a84.06,84.06,0,0,0,6.21-7.56,5.36,5.36,0,0,0,1.25-2.92,1.84,1.84,0,0,0-1.89-2c-1.91,0-3,1.72-3.44,2.45L47.33,314a5.84,5.84,0,0,1,4.76-2.37A4.56,4.56,0,0,1,57,316.42c0,2.41-1.26,4.09-4.3,7.72Z"/><path class="cls-4" d="M59,318.1a10.89,10.89,0,0,0,4.34-5.52H73c-.83,10.93-6.93,14.07-11.57,15.55l-1.4-2.69a13.08,13.08,0,0,0,6.72-3.8,24.29,24.29,0,0,0-4.08-2.88,14.15,14.15,0,0,1-1.85,1.61Zm6.19-2.79c-.48.83-.67,1.11-.95,1.52a19.83,19.83,0,0,1,4.1,2.6,12.09,12.09,0,0,0,1.31-4.12Z"/><path class="cls-4" d="M84.63,327.89H81.69v-7.52a30.39,30.39,0,0,1-5.43,2.71l-1.34-2.7a25.58,25.58,0,0,0,12-8.75l2.47,1.85a32.25,32.25,0,0,1-4.8,4.77Z"/><path class="cls-4" d="M101.57,313.05l2.88,3.54c-.47,2.62-1.12,6.34-5,9.07a13.88,13.88,0,0,1-5.18,2.24L93,325.1c6.7-1.31,8.1-5.41,8.59-9.06H91.92v-3Zm5.8-.09a2.32,2.32,0,1,1-2.32-2.47A2.39,2.39,0,0,1,107.37,313Zm-3.44,0a1.12,1.12,0,1,0,1.12-1.2A1.16,1.16,0,0,0,103.93,313Z"/><path class="cls-4" d="M119.18,314.29v3.31h-3.27v-3.31Zm0,7.91v3.31h-3.27V322.2Z"/><path class="cls-4" d="M139.78,323.47V327H126.15a100.29,100.29,0,0,0,7.67-9.34c1-1.5,1.55-2.49,1.55-3.6A2.27,2.27,0,0,0,133,311.6c-2.36,0-3.7,2.12-4.25,3L127.24,311a7.17,7.17,0,0,1,5.87-2.94c3,0,6,1.83,6,5.87,0,3-1.55,5.06-5.32,9.54Z"/><path class="cls-4" d="M146,322.94v3.86c0,2.38-1.5,3-4,3.05V328c1.54,0,1.77-.47,1.8-1.14h-1.8v-3.9Z"/><path class="cls-4" d="M159.62,310.93a16.78,16.78,0,0,1,0,13.6,5.79,5.79,0,0,1-10,0c-.8-1.34-1.43-3.37-1.43-6.81a13.19,13.19,0,0,1,1.43-6.79,5.77,5.77,0,0,1,10,0Zm-7.69,6.79c0,3.56.69,6.12,2.7,6.12s2.71-2.63,2.71-6.12c0-3.21-.58-6.12-2.71-6.12S151.93,314.28,151.93,317.72Z"/><path class="cls-4" d="M163.53,313.1c0-2.87,2.28-5,5.61-5s5.61,2.17,5.61,5a4.66,4.66,0,0,1-1.64,3.58,5.45,5.45,0,0,1,2.52,4.74c0,3.58-2.93,6-6.49,6s-6.49-2.36-6.49-6a5.45,5.45,0,0,1,2.52-4.74A4.61,4.61,0,0,1,163.53,313.1Zm8.36,8.18a2.76,2.76,0,0,0-5.5,0,2.76,2.76,0,0,0,5.5,0Zm-.67-8.07a2.08,2.08,0,0,0-4.16,0,2.08,2.08,0,0,0,4.16,0Z"/><path class="cls-4" d="M188.64,310.93a13.38,13.38,0,0,1,1.43,6.79,13.55,13.55,0,0,1-1.43,6.81,5.79,5.79,0,0,1-10,0c-.81-1.34-1.44-3.37-1.44-6.81a13.19,13.19,0,0,1,1.44-6.79,5.77,5.77,0,0,1,10,0Zm-7.7,6.79c0,3.56.7,6.12,2.71,6.12s2.7-2.63,2.7-6.12c0-3.21-.58-6.12-2.7-6.12S180.94,314.28,180.94,317.72Z"/><path class="cls-4" d="M198.63,316.51H206a64.11,64.11,0,0,1-.73,9.65c-.47,2.31-1.72,2.59-2.92,2.59h-3l-.51-2.92h2.47c.9,0,1.16-.26,1.37-1.26a35.38,35.38,0,0,0,.41-5.35h-4.64a13.28,13.28,0,0,1-5.65,9.58L191,326.18c2.25-1.38,4.83-3.68,4.83-10.06v-1.83h-4.47v-2.74h15.88v2.74h-8.64Z"/><path class="cls-4" d="M211.49,328.75H208.8V311.54h14.68v15.17c0,2-1.4,2-1.94,2h-3.09l-.47-2.9h2.15c.64,0,.64-.17.64-.75v-3.2h-9.28Zm3.29-14.46h-3.29v4.95h3.29Zm6,4.95v-4.95h-3.33v4.95Z"/><path class="cls-4" d="M228.92,318.79v2.07h8.3v.9h-8.3v2.07l-3.84-2.52Z"/><path class="cls-4" d="M246.86,325.39V327h-8.35c5.5-5.91,6.15-7.29,6.15-8.52a1.86,1.86,0,0,0-1.94-2,3.43,3.43,0,0,0-2.82,2l-.7-1.77a4.32,4.32,0,0,1,3.54-1.82,3.44,3.44,0,0,1,3.66,3.56c0,1.9-1,3.3-4.25,7Z"/><path class="cls-4" d="M250.64,324.82v2.05c0,1.38-.76,1.7-2.14,1.76v-.93c.91,0,1-.33,1-.75h-1v-2.13Z"/><path class="cls-4" d="M252.77,324.74a5.5,5.5,0,0,0,3.09.89c2.1,0,2.78-1.22,2.78-2.19s-.66-1.95-2.72-1.95h-1.08v-1.55h1a1.86,1.86,0,0,0,2.11-1.8,1.72,1.72,0,0,0-1.93-1.65,3.55,3.55,0,0,0-2.73,1.29l-.6-1.59a5.06,5.06,0,0,1,3.4-1.32c2.07,0,3.56,1.29,3.56,3.17a2.66,2.66,0,0,1-1.56,2.5,3.12,3.12,0,0,1,2.25,3.06c0,1.61-1.14,3.65-4.5,3.65a7.29,7.29,0,0,1-3.58-.89Z"/><path class="cls-4" d="M262.36,318a3.45,3.45,0,0,1,6.87,0,2.88,2.88,0,0,1-1.26,2.45,3.44,3.44,0,0,1,1.87,3.1,4.06,4.06,0,0,1-8.1,0,3.44,3.44,0,0,1,1.88-3.1A2.89,2.89,0,0,1,262.36,318Zm5.74,5.52a2.32,2.32,0,0,0-4.62,0,2.32,2.32,0,0,0,4.62,0Zm-.55-5.43a1.76,1.76,0,0,0-3.51,0,1.76,1.76,0,0,0,3.51,0Z"/><path class="cls-4" d="M279.23,321.05c0,1.13,0,6.2-4,6.2s-4-5.07-4-6.18,0-6.2,4-6.2S279.23,319.9,279.23,321.05Zm-6.3,0c0,2.2.39,4.56,2.28,4.56s2.28-2.52,2.28-4.58-.36-4.56-2.28-4.56S272.93,319,272.93,321.07Z"/><path class="cls-4" d="M285.76,318.41c0,.11,0,.3,0,.48h6.06a46.5,46.5,0,0,1-.61,7.62,2.14,2.14,0,0,1-2,1.82h-2.49l-.27-1.65h2.38c.62,0,.86-.29,1-1.31a36.85,36.85,0,0,0,.36-4.95h-4.53a10.61,10.61,0,0,1-4.49,7.91l-1.09-1.47c2.08-1.38,4.14-3.27,4.14-8.52v-2h-3.86v-1.59H293v1.59h-7.24Z"/><path class="cls-4" d="M295.81,328.34h-1.53v-13.6H306v12.19a1.24,1.24,0,0,1-1.35,1.41h-2.38L302,326.8h2c.45,0,.47-.17.47-.54v-3.68h-8.64Zm3.54-12.13h-3.54v4.92h3.54Zm5.1,4.92v-4.92h-3.6v4.92Z"/><path class="cls-4" d="M107.16,345.45h4.41v2.29h-11v-2.29h4.35v-6.1h-3.73v-2.29H111v2.29h-3.79Z"/><path class="cls-4" d="M119.5,341.84a8.12,8.12,0,0,1-4.72,7l-1.4-1.92c3.82-1.64,4-4.54,4-7.12h2.23c0,.73,0,1.08-.09,1.7a5.25,5.25,0,0,0,2.52-2.74h-8.67v-2.27H124.7c-.43,4-2,5.57-3.91,6.87Z"/><path class="cls-4" d="M136.66,337.09v10.72h-9.87V345.5h7.57v-6.11H127v-2.3Z"/><path class="cls-4" d="M143.28,340.9a15.46,15.46,0,0,0-4.16-2.21l.94-2a17.48,17.48,0,0,1,4.34,2.08ZM139.37,346c3.28-.34,7.43-1.22,9.13-8.59l1.89,1.32c-1.52,5.6-4,8.86-10.5,9.8Z"/><path class="cls-4" d="M154.33,349.32h-2v-6.44c-.27.36-.41.54-.7.87l-.68-2.95a11.5,11.5,0,0,0,2.2-5.44l2,.18a17.94,17.94,0,0,1-.82,3.23ZM163.65,338v2.1h-1.24v7.45c0,1.09-.44,1.73-1.6,1.73H158l-.35-2.26h2.29c.39,0,.41-.07.41-.49v-6.43h-5.45V338h5.45v-2.62h2.08V338Zm-6.42,7.6A22.5,22.5,0,0,0,155,342l1.58-1.17a20.23,20.23,0,0,1,2.34,3.6Z"/><path class="cls-4" d="M171.7,336c0,.54,0,.82.07,1.54a16.79,16.79,0,0,0,3-.44l.22,2a21,21,0,0,1-2.95.41c.05.27.14.71.28,1.19a16.62,16.62,0,0,0,3.39-.51l.27,2a19.87,19.87,0,0,1-3,.43,9.06,9.06,0,0,0,1.1,1.64l-2,1.24a9.2,9.2,0,0,1-1.49-2.78h-5.7v-1.92h5.13c-.09-.36-.13-.55-.25-1.17H165.4v-2h4.13c-.06-.54-.09-.86-.12-1.56Zm3,12.61c-.92.09-2.15.11-3.1.11-2.22,0-3.75-.15-4.75-1a2.49,2.49,0,0,1-.95-1.91,3.38,3.38,0,0,1,.95-2.26l1.77.83a2,2,0,0,0-.48,1.06c0,.94,1.3,1.05,3.12,1.05a27.92,27.92,0,0,0,3.35-.19Z"/><path class="cls-4" d="M181.15,337.06H183v4.1h3.7V343H183v4.09h-1.82V343h-3.72v-1.8h3.72Z"/><path class="cls-4" d="M199.88,342a13.38,13.38,0,0,1-2.3,2,12.22,12.22,0,0,0,2.53,3.18l-1.55,1.66a14.62,14.62,0,0,1-3.78-8.28h-.22c-.24.23-.38.38-.75.69a7,7,0,0,1,1.76,5c0,2.52-1.2,2.94-1.86,2.94h-2.17l-.32-1.7a17.25,17.25,0,0,1-3.09,1.25l-.7-1.91a15.94,15.94,0,0,0,6.15-2.5,5.39,5.39,0,0,0-.18-.59,15.4,15.4,0,0,1-4.92,2.19l-.7-1.75a13,13,0,0,0,5-1.62c-.13-.18-.22-.3-.35-.46a13.72,13.72,0,0,1-4,1.34l-.63-1.79a11.22,11.22,0,0,0,4.24-1.13h-2.55v-.73H188v-3.43h4.87v-1h2v1h4.87v3.43h-1.5v.73h-1.74a11,11,0,0,0,.38,1.66,9.88,9.88,0,0,0,1.77-1.75Zm-2.14-3.06v-.66H190v.66ZM193,347.48c.57,0,.85,0,.82-1.56a14,14,0,0,1-2.39,1.56Z"/><path class="cls-4" d="M212.49,349.45a11.64,11.64,0,0,1-4.35-1.87l1.18-1.25h-4.59l1.17,1.25a11.43,11.43,0,0,1-4.35,1.87l-1-2a9.52,9.52,0,0,0,3.8-1.12H200.8V344.5h12.41v1.83h-3.5a8,8,0,0,0,3.72,1.06Zm-10.41-5.52v-8.09H212v8.09Zm7.79-6.42h-5.74v.68h5.74Zm0,2.73v-.69h-5.74v.69Zm-5.74,1.41v.71h5.74v-.71Z"/><path class="cls-4" d="M217.11,349.32h-2v-6.44c-.27.36-.41.54-.7.87l-.68-2.95a11.5,11.5,0,0,0,2.2-5.44l2,.18a17.94,17.94,0,0,1-.82,3.23ZM226.43,338v2.1h-1.24v7.45c0,1.09-.44,1.73-1.6,1.73h-2.83l-.35-2.26h2.29c.39,0,.41-.07.41-.49v-6.43h-5.45V338h5.45v-2.62h2.08V338Zm-6.42,7.6a22.5,22.5,0,0,0-2.19-3.67l1.58-1.17a20.23,20.23,0,0,1,2.34,3.6Z"/><path class="cls-4" d="M234.48,336c0,.54,0,.82.07,1.54a16.79,16.79,0,0,0,3-.44l.22,2a21,21,0,0,1-2.95.41c0,.27.14.71.28,1.19a16.62,16.62,0,0,0,3.39-.51l.27,2a19.87,19.87,0,0,1-3,.43,9.06,9.06,0,0,0,1.1,1.64l-2,1.24a9.2,9.2,0,0,1-1.49-2.78h-5.7v-1.92h5.13c-.09-.36-.13-.55-.25-1.17h-4.41v-2h4.13c-.06-.54-.09-.86-.12-1.56Zm3,12.61c-.92.09-2.15.11-3.1.11-2.22,0-3.75-.15-4.75-1a2.49,2.49,0,0,1-.95-1.91,3.33,3.33,0,0,1,.95-2.26l1.77.83a2,2,0,0,0-.48,1.06c0,.94,1.3,1.05,3.12,1.05a27.92,27.92,0,0,0,3.35-.19Z"/></svg>