<svg id="レイヤー_1" data-name="レイヤー 1" xmlns="http://www.w3.org/2000/svg" viewBox="0 0 340 396"><defs><style>.cls-1{fill:none;}.cls-2{fill:#fff;}.cls-3{fill:#fff171;}.cls-4{fill:#40220f;}</style></defs><title>tb03</title><rect class="cls-1" width="340" height="396"/><g id="_03" data-name="03"><path class="cls-2" d="M41.51,38.58a13,13,0,0,0,2.62-4.25A12.44,12.44,0,0,0,45,30.65a.9.9,0,0,0-.47-.88,14.63,14.63,0,0,0-4,1.14,1.14,1.14,0,0,1-.55.18,1.66,1.66,0,0,1-1.14-.69,1.77,1.77,0,0,1-.61-1.08,1.13,1.13,0,0,1,.07-.34,1.71,1.71,0,0,0,1.48.83,18.78,18.78,0,0,0,3.08-.47c1.1-.18,3.38-.47,5.54-.67a8.7,8.7,0,0,0,1.41-.3,1,1,0,0,1,.45-.09,2.27,2.27,0,0,1,1,.27c.51.23.85.57.85.83s-.2.36-.51.36a1.59,1.59,0,0,1-.45-.06,17.39,17.39,0,0,0-2.9-.23,21.45,21.45,0,0,0-2.95.18c.83.45,1.19.83,1.19,1.24a11,11,0,0,1-1.15,3.53,10.54,10.54,0,0,1-3.57,4.37Zm-.34-13.9a2.94,2.94,0,0,0,2.16,1,9.93,9.93,0,0,0,3.78-.88,1.06,1.06,0,0,1,.54-.15c.47,0,1.23.58,1.23.94s-.22.32-.94.48a24.55,24.55,0,0,1-4.12.47,3.08,3.08,0,0,1-2.92-1.65ZM49.51,24a8.82,8.82,0,0,1,2.12,1.26,1.26,1.26,0,0,1,.56,1.08c0,.55-.2,1-.45,1s-.25-.13-.39-.43a8.19,8.19,0,0,0-2-2.67Zm1.58-1a7.26,7.26,0,0,1,2.16,1c.51.36.65.61.65,1.06s-.16.87-.39.87-.26-.09-.4-.36A6.7,6.7,0,0,0,51,23.18Z"/><path class="cls-2" d="M59.1,30.08a15.28,15.28,0,0,0,2.58-.34,2.48,2.48,0,0,0,.75-.24,1.08,1.08,0,0,1,.24-.12.49.49,0,0,1,.27-.08,1.91,1.91,0,0,1,.9.62c.28.3.36.43.36.61a.38.38,0,0,1-.13.29,3.35,3.35,0,0,0-.41,1.24c-.27,1-.65,2.61-.78,3.17l.74-.06a5.29,5.29,0,0,0,1.89-.25.88.88,0,0,1,.31-.09,2.19,2.19,0,0,1,.75.31c.44.25.71.57.71.83a.39.39,0,0,1-.42.36,4.1,4.1,0,0,1-1-.2A10.13,10.13,0,0,0,63.73,36a18.57,18.57,0,0,0-4.68.55,7.21,7.21,0,0,0-1.57.51.84.84,0,0,1-.47.14,1.45,1.45,0,0,1-1-.59,2.51,2.51,0,0,1-.6-1.19,1,1,0,0,1,.07-.31,1.64,1.64,0,0,0,1.37.85c.18,0,.65,0,1.23-.13,1.15-.18,2-.3,2.73-.37s.74-.09,1.1-.15a48.47,48.47,0,0,0,.7-4.93c0-.06,0-.07-.05-.07a17.55,17.55,0,0,0-2.16.46,8,8,0,0,0-1,.38,1.07,1.07,0,0,1-.43.09c-.32,0-.63-.25-.9-.72a2.13,2.13,0,0,1-.34-1,.62.62,0,0,1,.11-.36A1.4,1.4,0,0,0,59.1,30.08Z"/><path class="cls-2" d="M71.48,30a2.43,2.43,0,0,0,1.75.43l2.22-.06,7-.1a7.07,7.07,0,0,1,2.34.16.37.37,0,0,1,.25.36.52.52,0,0,1-.41.48c-.49.17-.92.18-4.33.22-1.67,0-5.79.13-6.42.16-.85.06-1,.07-1.3.24a2.56,2.56,0,0,1-.27.05c-.27,0-.56-.2-.86-.59a3.26,3.26,0,0,1-.69-1.66c0-.25,0-.29.15-.41A1.6,1.6,0,0,0,71.48,30Z"/><path class="cls-2" d="M89.65,38.23a24.8,24.8,0,0,0,6-6.89,18,18,0,0,0,2.14-4.81c0-.18-.09-.23-.36-.23a27.22,27.22,0,0,0-3.33.61,19.24,19.24,0,0,0-3.3,1,1.73,1.73,0,0,1-.66.18c-.38,0-.85-.36-1.3-1A2.06,2.06,0,0,1,88.33,26a.57.57,0,0,1,.13-.36,1.74,1.74,0,0,0,1.67,1A42.39,42.39,0,0,0,95.26,26a5.93,5.93,0,0,0,2.09-.5c.22-.13.22-.13.36-.13a2.79,2.79,0,0,1,1.32.83c.38.36.56.65.56.89s-.06.25-.26.46a3.48,3.48,0,0,0-.63,1,25.81,25.81,0,0,1-5.18,7.28,17.93,17.93,0,0,1-3.71,2.68Zm13.29-13.59a1.81,1.81,0,1,1-1.81-1.8A1.82,1.82,0,0,1,102.94,24.64Zm-3.07,0a1.26,1.26,0,1,0,2.52,0,1.26,1.26,0,1,0-2.52,0Z"/><path class="cls-2" d="M118.14,29.52a15.89,15.89,0,0,1-2.68,3.06A22.4,22.4,0,0,1,110,36.25c-1,.53-1,.53-1.35.87a.55.55,0,0,1-.41.23c-.36,0-1.19-1.06-1.19-1.55,0-.09,0-.09.09-.32a9.88,9.88,0,0,0,.15-2.76c0-4-.09-5.72-.33-6.39-.16-.45-.45-.66-1.24-.93a.83.83,0,0,1,.56-.18,3.41,3.41,0,0,1,1.44.43c.7.38,1.06.74,1.06,1.1a.9.9,0,0,1-.09.38,9.27,9.27,0,0,0-.23,1.78c-.09,1.1-.2,4.37-.2,5.71v.9a23.37,23.37,0,0,0,6.14-3.19,23.81,23.81,0,0,0,3.49-3Z"/><path class="cls-2" d="M121.49,28.75a9.39,9.39,0,0,1,3.15,1.06,1.26,1.26,0,0,1,.68,1.19c0,.46-.23.86-.5.86s-.29-.07-.56-.41A8.86,8.86,0,0,0,121.38,29Zm13.9-.45a21.1,21.1,0,0,1-2.68,3.07,40.38,40.38,0,0,1-6.83,5.24,12.56,12.56,0,0,0-1.38,1,.6.6,0,0,1-.42.18c-.36,0-.77-.34-1.28-1.08a3,3,0,0,1-.55-1.38.61.61,0,0,1,.16-.42A1.7,1.7,0,0,0,123.76,36a11.88,11.88,0,0,0,3.45-1.76,41.67,41.67,0,0,0,8-6.13Zm-11.92-2.74c2.88.68,3.8,1.24,3.8,2.29,0,.5-.22.9-.49.9s-.2,0-1-1a8.09,8.09,0,0,0-2.47-2Zm7.38-1.44c1.93.84,2.79,1.56,2.79,2.32a1.48,1.48,0,0,1-.25.87.3.3,0,0,1-.22.09c-.19,0-.25-.06-.5-.54a8.83,8.83,0,0,0-2-2.56ZM132.53,23c2,.66,2.91,1.33,2.91,2.14,0,.52-.18.92-.43.92s-.27-.11-.47-.45a8,8,0,0,0-2.14-2.42Z"/><path class="cls-2" d="M141.6,38.58a13.18,13.18,0,0,0,2.61-4.25,12.44,12.44,0,0,0,.86-3.68.9.9,0,0,0-.47-.88,14.46,14.46,0,0,0-4,1.14,1.2,1.2,0,0,1-.56.18,1.7,1.7,0,0,1-1.14-.69,1.77,1.77,0,0,1-.61-1.08,1.13,1.13,0,0,1,.07-.34,1.71,1.71,0,0,0,1.48.83,18.46,18.46,0,0,0,3.08-.47c1.1-.18,3.38-.47,5.54-.67a8.48,8.48,0,0,0,1.41-.3,1,1,0,0,1,.45-.09,2.27,2.27,0,0,1,.95.27c.51.23.85.57.85.83s-.2.36-.5.36a1.61,1.61,0,0,1-.46-.06,17.36,17.36,0,0,0-2.89-.23,21.5,21.5,0,0,0-3,.18c.83.45,1.19.83,1.19,1.24a11,11,0,0,1-1.15,3.53,10.54,10.54,0,0,1-3.57,4.37Zm-.35-13.9a2.94,2.94,0,0,0,2.16,1,10,10,0,0,0,3.79-.88,1,1,0,0,1,.54-.15c.46,0,1.22.58,1.22.94s-.22.32-.94.48a24.44,24.44,0,0,1-4.12.47A3.08,3.08,0,0,1,141,24.86Zm8.34-.71a8.82,8.82,0,0,1,2.12,1.26,1.26,1.26,0,0,1,.56,1.08c0,.55-.2,1-.45,1s-.25-.13-.39-.43a8.19,8.19,0,0,0-2-2.67Zm1.58-1a7.47,7.47,0,0,1,2.17,1c.5.36.64.61.64,1.06s-.16.87-.39.87-.25-.09-.4-.36A6.7,6.7,0,0,0,151,23.18Z"/><path class="cls-2" d="M157,25.79a10.25,10.25,0,0,1,3.47,1.35,1.39,1.39,0,0,1,.62,1.23c0,.59-.2,1-.51,1s-.29-.09-.77-.72A9.25,9.25,0,0,0,156.82,26Zm12.8,1A18.83,18.83,0,0,1,166,31.66a35,35,0,0,1-5.06,4.11c-.85.59-.94.66-1.06.83-.29.34-.4.43-.63.43-.74,0-2.11-1.73-2.11-2.65a.88.88,0,0,1,.09-.36,2.66,2.66,0,0,0,.65.79,1.13,1.13,0,0,0,.72.38,4.49,4.49,0,0,0,1.75-.75,26.39,26.39,0,0,0,4.3-3,28.58,28.58,0,0,0,4.84-4.8Z"/><path class="cls-2" d="M172.52,37.17a26,26,0,0,0,4.84-3.94,32.55,32.55,0,0,0,3.44-4.48A12.54,12.54,0,0,0,182,26.42a19,19,0,0,0-3.8.8,9.55,9.55,0,0,0-1.52.48.73.73,0,0,1-.3.06c-.4,0-.78-.33-1.17-1a2.26,2.26,0,0,1-.38-1.08.72.72,0,0,1,.13-.36c.52.93.9,1.21,1.69,1.21a29,29,0,0,0,3.78-.51,4.9,4.9,0,0,0,1.69-.5.72.72,0,0,1,.42-.17c.37,0,1.4.92,1.4,1.26a.43.43,0,0,1-.23.35c-.38.25-.38.25-1,1.22a36.4,36.4,0,0,1-2.27,3.13,17.84,17.84,0,0,1,4.66,3,2.37,2.37,0,0,1,.69,1.78c0,.58-.18.94-.49.94a.56.56,0,0,1-.41-.29,5.89,5.89,0,0,1-.43-.72,15.35,15.35,0,0,0-4.29-4.41,19.73,19.73,0,0,1-4.36,4.05,15.73,15.73,0,0,1-3.15,1.76Z"/><path class="cls-2" d="M195.79,25.85h.64c.58-.75.75-1,1.3-1.62a14.53,14.53,0,0,1,1.92,1.83.55.55,0,0,1,.14.29c0,.08-.11.17-.26.17h-3.74V29a17.35,17.35,0,0,1,1.88,1.33c1.22,1,1.48,1.42,1.48,2.24,0,1-.32,1.79-.75,1.79s-.38-.17-.67-1a11.77,11.77,0,0,0-1.94-3.77l.06,6.35,0,3.25v2.49c0,.35,0,1,0,1.86,0,.29-.05.35-.29.41a7.16,7.16,0,0,1-1.21.11c-.32,0-.47-.11-.47-.35v-.08l.09-7.52.14-6.12c-1.74,4.21-2.75,6-4.55,8.13l-.29-.18a36.82,36.82,0,0,0,2.9-6.64,35.69,35.69,0,0,0,1.42-4.76h-2.49a4.16,4.16,0,0,0-1.25.2l-.2-1.13a4.2,4.2,0,0,0,1.45.26h2.78V21.24a39.49,39.49,0,0,1-4,.73l-.09-.32c4.76-1.71,6.47-2.55,7.86-3.83l1.08.67c1.3.81,1.42.9,1.42,1.1s-.18.26-.44.26a6.18,6.18,0,0,1-1.13-.15,19.81,19.81,0,0,1-2.87,1.05Zm3.28-4.29a73.86,73.86,0,0,0,8.73-2.15,16.25,16.25,0,0,0,4.49-1.91c.5.35.87.64,1.14.81,1.33.93,1.56,1.13,1.56,1.37s-.17.26-.4.26a8.8,8.8,0,0,1-1.45-.32,60.79,60.79,0,0,1-14,2.38Zm1.19.93a9.87,9.87,0,0,1,1.88,2c.61.79.73,1.08.73,1.63,0,.81-.58,1.74-1.08,1.74-.23,0-.32-.18-.4-1a15.9,15.9,0,0,0-1.45-4.15Zm0,21.23c.08-1.88.11-2.69.11-4.29,0-6.93,0-9.51-.17-11.17,2.61.26,3,.35,3,.61s-.18.32-1,.67l0,7c0,1.65,0,4.47.06,7.11,0,.37-.29.46-1.42.46-.38,0-.49-.09-.49-.32Zm4.64-21.84a11.8,11.8,0,0,1,2.14,2.26c.58.76.76,1.08.76,1.51,0,.84-.67,1.89-1.19,1.89-.23,0-.35-.18-.41-.55-.11-.61-.2-1-.43-1.86a13,13,0,0,0-1.16-3ZM207,43.64v0c0,.18,0,.24-.23.29a5,5,0,0,1-1.13.12c-.38,0-.49-.09-.49-.35.08-2,.08-2.64.08-4.64,0-7.37,0-9-.14-10.79a18.49,18.49,0,0,1,2.15,1.16h5l1.19-1.28c.58.47.76.61,1.34,1.14.23.2.32.31.32.46s-.15.32-.73.64v3c0,3.92.06,8.33.15,9.92v0c0,.24,0,.29-.24.38A5.58,5.58,0,0,1,213,44c-.29,0-.4-.08-.4-.31V42.5H207Zm5.52-8.36V30.15H207v5.13ZM207,36v5.89h5.52V36Zm2.21-7.4a32.94,32.94,0,0,0,2.12-4.09,16,16,0,0,0,1.19-3.16c2.72.87,3,1,3,1.31s-.32.37-1,.37h-.43a24,24,0,0,1-4.67,5.78Z"/><path class="cls-2" d="M220.29,24.84a22.16,22.16,0,0,1,4,1.71,1.49,1.49,0,0,1,.75,1.36c0,.9-.4,1.86-.78,1.86-.2,0-.41-.23-.73-.75A13.6,13.6,0,0,0,220,25.13Zm.06,10.35a14,14,0,0,0,1.92.41c.34,0,.49-.17,1.1-1.3s1.39-2.62,3.1-6.15c1.45-3,1.45-3,2.23-4.44l.41.2L224.47,36a4.2,4.2,0,0,0-.41,1.45,4.56,4.56,0,0,0,.24,1.19,9.15,9.15,0,0,1,.46,2.61,2.25,2.25,0,0,1-1.07,1.88,2,2,0,0,1-1.05.47c-.35,0-.61-.38-.61-.87a6.21,6.21,0,0,1,.18-1,21.48,21.48,0,0,0,.26-3.16,3,3,0,0,0-.47-1.94c-.29-.35-.6-.53-1.71-1Zm1.51-16.67c3.57,1.21,4.73,2,4.73,3.16,0,.87-.38,1.77-.76,1.77s-.32-.09-1-1.11a16.65,16.65,0,0,0-3.22-3.56Zm10.41,11.19a23.51,23.51,0,0,1-1.48,7A17.35,17.35,0,0,1,227.52,42,15.78,15.78,0,0,1,225.17,44l-.24-.35a14.36,14.36,0,0,0,2.76-3.77,21.42,21.42,0,0,0,2.41-7.8c.2-2.12.35-5.34.35-8.53,0-1.36,0-1.48-.15-4.64a26.84,26.84,0,0,1,2.38,1.28h9a16.84,16.84,0,0,1,1.25-1.28c.75.55,1,.7,1.68,1.28.23.17.32.29.32.38s-.2.37-1.07.89v2.12c0,2.35,0,3.95.06,6.91,0,.52-.06.55-1.57.63-.29,0-.41-.08-.47-.34V29.71h-4.61A14.07,14.07,0,0,0,239.12,35a12.89,12.89,0,0,0,4.58,4.61A13.87,13.87,0,0,0,247,41v.43c-1.13.23-1.45.55-2,2a13.34,13.34,0,0,1-4.76-4.06,20.27,20.27,0,0,1-3.54-8.32c-.06-.32-.12-.55-.23-1.34Zm9.57-.66V20.87h-9.39c-.09,7.13-.09,7.13-.15,8.18Z"/><path class="cls-2" d="M252.13,35.08a12.79,12.79,0,0,1,.09,1.33,8.73,8.73,0,0,1-.58,3.6c-.38.84-.84,1.33-1.27,1.33s-.58-.58-.58-1.45a1.26,1.26,0,0,1,.63-1.24,4.73,4.73,0,0,0,1.31-3.57Zm7.52-11.34c.52-.64.66-.84,1.19-1.42A19.46,19.46,0,0,1,262.78,24a.72.72,0,0,1,.12.23c0,.12-.09.14-.32.14h-4.32v3.48h1.21c.58-.63.76-.81,1.37-1.45.84.76,1.07,1,1.82,1.74a.82.82,0,0,1,.12.21c0,.11-.12.17-.35.17h-4.17v3.86h1.85c.61-.61.61-.61,1.13-1.1.61.55.82.72,1.4,1.27.2.27.26.35.26.44s-.12.26-.93.67c-.18,4-.67,7.07-1.34,8.32a3.33,3.33,0,0,1-1.33,1.22,6.7,6.7,0,0,1-2.06.41c-.2-1.31-.41-1.45-3.22-2.15l.06-.46c1.45.23,3.8.52,4.47.52.43,0,.72-.41.95-1.42a31.12,31.12,0,0,0,.76-7.05h-6.5v.61c0,.34-.29.43-1.25.43-.43,0-.58-.09-.58-.32v-.11c.09-2.61.12-3.72.12-7.31,0-5.31,0-6.47-.15-8.07.84.5,1.1.64,2,1.25h5.65c.55-.73.73-1,1.31-1.68a20.68,20.68,0,0,1,2.23,2,.56.56,0,0,1,.15.23c0,.12-.06.15-.35.15h-4.61v3.51ZM253.5,34.93c1.07,1.8,1.39,2.61,1.39,3.6,0,.55-.64,1.39-1.07,1.39-.24,0-.35-.2-.35-.64v-.17c.06-.93.09-1.39.09-1.62a7.86,7.86,0,0,0-.38-2.41Zm3.1-14.7h-2.84v3.51h2.84Zm-2.84,4.17v3.48h2.84V24.4Zm0,4.15v3.86h2.84V28.55Zm1.57,5.95c1.3,1.27,2.08,2.44,2.08,3.1S257,39,256.57,39c-.17,0-.29-.12-.32-.41A11.56,11.56,0,0,0,255,34.67Zm2-.41c1.36,1.16,2.09,2.06,2.09,2.67s-.47,1.22-.82,1.22c-.11,0-.2-.12-.26-.38s-.14-.64-.29-1.16a6.13,6.13,0,0,0-1-2.12Zm8.82-4.87a30.82,30.82,0,0,1-1,7.89,17.88,17.88,0,0,1-2.29,5A9.37,9.37,0,0,1,261.13,44l-.32-.26a18.27,18.27,0,0,0,2.87-7.42,60.71,60.71,0,0,0,.7-8.91c0-5.63,0-7.89-.09-9.31.93.61,1.22.78,2.15,1.42h6.49c.5-.52.64-.7,1.16-1.25.76.58,1,.76,1.63,1.34.23.17.32.32.32.43s-.06.21-1.05.67c0,.7,0,1.25,0,1.68v1.19c0,1.07,0,2.15,0,3.16,0,.26,0,.47,0,1.83,0,.9,0,.9.06,1.65v.18c0,.35-.38.46-1.54.46-.37,0-.46-.06-.49-.32V29.22h-3.51a13.71,13.71,0,0,0,1.86,6.44,14.59,14.59,0,0,0,3.68,4.26,8.34,8.34,0,0,0,2.52,1.4v.43c-1.13.23-1.33.41-2.2,1.8A13.91,13.91,0,0,1,271.57,39a20,20,0,0,1-2.44-7.39c-.06-.64-.11-1-.23-2.41Zm6.93-.67V20.23h-6.82c0,.93,0,1.74,0,2.17,0,2.06,0,3.8-.11,6.15Z"/><path class="cls-2" d="M280.76,40.3c2.35-.06,2.52-.29,2.52-3V23.68c0-2.7-.17-2.87-2.52-3V20h7.71v.69c-2.38.12-2.55.29-2.55,3V37.34c0,2.67.2,2.9,2.55,3V41h-7.71Z"/><path class="cls-2" d="M292.41,40.3c2.35-.06,2.53-.29,2.53-3V23.68c0-2.7-.18-2.87-2.53-3V20h7.72v.69c-2.38.12-2.55.29-2.55,3V37.34c0,2.67.2,2.9,2.55,3V41h-7.72Z"/><path class="cls-3" d="M76.66,337v-15h4.79a7,7,0,0,1,2.79.41,3.75,3.75,0,0,1,2.22,3.56,3.81,3.81,0,0,1-1.53,3.14,4,4,0,0,1,1.95,3.65C86.88,337,83,337,81.66,337Zm3-9.07h2.14a1.52,1.52,0,0,0,1.66-1.55c0-.55-.2-1.56-1.81-1.56h-2Zm0,6.21h2.14a1.77,1.77,0,0,0,2.07-1.8c0-.74-.28-1.85-2-1.85H79.65Z"/><path class="cls-3" d="M92.52,321.94h2.71v15h-3V325.25l-2.56,1.86-.37-2.85Z"/><path class="cls-3" d="M100.07,328.08a10.89,10.89,0,0,0,4.34-5.52h9.66c-.83,10.92-6.93,14.07-11.56,15.55l-1.41-2.7a13,13,0,0,0,6.72-3.8,25.61,25.61,0,0,0-4.08-2.88,13.42,13.42,0,0,1-1.85,1.61Zm6.2-2.79c-.49.82-.68,1.1-1,1.52a19.41,19.41,0,0,1,4.1,2.6,12.09,12.09,0,0,0,1.31-4.12Z"/><path class="cls-3" d="M125.68,337.86h-2.94v-7.52a30,30,0,0,1-5.42,2.71L116,330.36A25.74,25.74,0,0,0,128,321.61l2.47,1.85a33.44,33.44,0,0,1-4.81,4.77Z"/><path class="cls-3" d="M142.4,323l2.88,3.53c-.47,2.62-1.13,6.34-5,9.08a14.19,14.19,0,0,1-5.18,2.24l-1.27-2.81c6.69-1.31,8.1-5.4,8.58-9.05h-9.67v-3Zm5.79-.1a2.31,2.31,0,1,1-4.62,0,2.32,2.32,0,1,1,4.62,0Zm-3.44,0a1.17,1.17,0,0,0,1.13,1.2,1.2,1.2,0,1,0-1.13-1.2Z"/><path class="cls-3" d="M158.14,324.26v3.31h-3.27v-3.31Zm0,7.91v3.32h-3.27v-3.32Z"/><path class="cls-3" d="M178.74,333.45V337H165.11a102.1,102.1,0,0,0,7.67-9.33c1-1.5,1.55-2.5,1.55-3.6a2.27,2.27,0,0,0-2.34-2.48c-2.35,0-3.69,2.13-4.25,3L166.19,321a7.22,7.22,0,0,1,5.87-2.93c3,0,6,1.82,6,5.87,0,3-1.55,5.06-5.31,9.54Z"/><path class="cls-3" d="M184.91,332.92v3.85c0,2.38-1.51,3-4,3.05V338c1.55,0,1.78-.46,1.81-1.13h-1.81v-3.9Z"/><path class="cls-3" d="M200.15,333.45V337H186.52a100.43,100.43,0,0,0,7.67-9.33c1-1.5,1.55-2.5,1.55-3.6a2.27,2.27,0,0,0-2.33-2.48c-2.36,0-3.7,2.13-4.25,3L187.61,321a7.19,7.19,0,0,1,5.87-2.93c3,0,6,1.82,6,5.87,0,3-1.55,5.06-5.32,9.54Z"/><path class="cls-3" d="M203.36,333.26a7,7,0,0,0,2.66.56c3.28,0,4.16-2.61,4.53-3.93a6.59,6.59,0,0,1-3.21.9,5.76,5.76,0,0,1-5.78-6.12,6.36,6.36,0,0,1,6.38-6.63c3.32,0,6.67,2.49,6.67,8.48,0,6.93-3.37,10.83-8.45,10.83a7.67,7.67,0,0,1-2.8-.46Zm4.62-5.77a3,3,0,1,0-2.7-2.84A2.7,2.7,0,0,0,208,327.49Z"/><path class="cls-3" d="M227.59,320.9a16.8,16.8,0,0,1,0,13.61,5.8,5.8,0,0,1-10,0c-.8-1.34-1.43-3.37-1.43-6.81a13.24,13.24,0,0,1,1.43-6.8,5.78,5.78,0,0,1,10,0Zm-7.69,6.8c0,3.55.69,6.12,2.7,6.12s2.71-2.64,2.71-6.12c0-3.22-.58-6.13-2.71-6.13S219.9,324.25,219.9,327.7Z"/><path class="cls-3" d="M237.58,326.49h7.34a64.2,64.2,0,0,1-.73,9.65c-.47,2.3-1.72,2.58-2.92,2.58h-3l-.5-2.92h2.47c.9,0,1.16-.26,1.36-1.25a35.48,35.48,0,0,0,.42-5.35h-4.64a13.32,13.32,0,0,1-5.65,9.58L230,336.16c2.24-1.38,4.82-3.69,4.82-10.07v-1.83h-4.47v-2.73h15.89v2.73h-8.65Z"/><path class="cls-3" d="M250.45,338.72h-2.7V321.51h14.69v15.17c0,2-1.4,2-1.95,2h-3.08l-.47-2.9h2.15c.64,0,.64-.17.64-.75v-3.19h-9.28Zm3.29-14.46h-3.29v5h3.29Zm6,5v-5H256.4v5Z"/><path class="cls-4" d="M77.34,274v-8.81h-4v-2.5h4v-1.78h2.32v1.78h4v2.5h-4V274Zm-1-7.86c0,1.76-.07,3.23-.19,4.39s-.28,2.33-.48,3.47H73.46s.07-.36.18-1,.23-1.58.37-2.76a39.3,39.3,0,0,0,.22-4.07Zm4.44,0h2.1a40.58,40.58,0,0,0,.17,4.07,25.68,25.68,0,0,0,.37,2.76c.12.67.2,1,.21,1H81.41c-.19-1.14-.35-2.3-.47-3.47S80.75,267.9,80.74,266.14Z"/><path class="cls-4" d="M85.73,268.57v-6.89h9.93v3.14a10.57,10.57,0,0,1-.59,3.61,7.09,7.09,0,0,1-1.5,2.48,9,9,0,0,1-1.92,1.57,8.75,8.75,0,0,1-1.87.86,11.4,11.4,0,0,1-1.43.36,3.18,3.18,0,0,1-.58.07v-2.5a4,4,0,0,0,.61-.09,7.28,7.28,0,0,0,1.4-.43,4.94,4.94,0,0,0,1.58-1,6.41,6.41,0,0,0,1.31-1.9,7.28,7.28,0,0,0,.59-3v-.65H88.2v4.44Z"/><path class="cls-4" d="M108.16,261.33a13.37,13.37,0,0,1-1.6,2.56c-.63.81-1.2,1.5-1.72,2.1v8.22h-2.47v-6.32a14,14,0,0,1-2.32,1.55,14.69,14.69,0,0,1-1.76.81l-.67.22V268l.79-.32a15.34,15.34,0,0,0,2-1.07,14.65,14.65,0,0,0,2.52-2,15.14,15.14,0,0,0,2.42-3.21Z"/><path class="cls-4" d="M110,274.13V261h2.47v4.22H119v2.46h-6.56v6.42Z"/><path class="cls-4" d="M131.07,261.33a13.89,13.89,0,0,1-1.6,2.56c-.63.81-1.21,1.5-1.73,2.1v8.22h-2.47v-6.32a13.52,13.52,0,0,1-2.31,1.55,15.45,15.45,0,0,1-1.76.81l-.68.22V268l.8-.32a15.34,15.34,0,0,0,2-1.07,14.31,14.31,0,0,0,2.53-2,15.14,15.14,0,0,0,2.42-3.21Z"/><path class="cls-4" d="M132.35,264.18v-2.44h4.88v2.44Zm10.39.18a14.29,14.29,0,0,1-2.09,4.66,11.79,11.79,0,0,1-2.73,2.77,10.6,10.6,0,0,1-2.68,1.39,10,10,0,0,1-2.07.47,8,8,0,0,1-.82.06v-2.55a6.1,6.1,0,0,0,.64,0,8.6,8.6,0,0,0,1.6-.32,6.73,6.73,0,0,0,2.06-1.08,9.61,9.61,0,0,0,2-2,11.75,11.75,0,0,0,1.62-3.35Z"/><path class="cls-4" d="M144.27,268V265.6h10.19V268h-3.25a6.15,6.15,0,0,1-.8,2.78,5.27,5.27,0,0,1-1.66,1.75,8.21,8.21,0,0,1-1.91.94,10.68,10.68,0,0,1-1.51.38,3.9,3.9,0,0,1-.62.07v-2.52a3.53,3.53,0,0,0,.59-.07,5.77,5.77,0,0,0,1.37-.4,3.28,3.28,0,0,0,1.35-1,3.47,3.47,0,0,0,.66-1.91Zm.44-4v-2.39H154V264Z"/><path class="cls-4" d="M156.8,268.49v-7.33h2.43v7.33Zm2.25,3.2a7.07,7.07,0,0,0,1.41-.46,3.8,3.8,0,0,0,1.12-.8,5.15,5.15,0,0,0,.92-1.4,5.25,5.25,0,0,0,.41-2.15v-5.72h2.43v5.72a8.22,8.22,0,0,1-.63,3.32,6.06,6.06,0,0,1-1.61,2.21,7.28,7.28,0,0,1-1.9,1.21,10.66,10.66,0,0,1-1.5.51l-.65.14Z"/><path class="cls-4" d="M167.71,263.86v-2.39h10.56v2.39a8.54,8.54,0,0,1-1.18,3,6.82,6.82,0,0,1-1.6,1.78,11.45,11.45,0,0,1-1.26.79,2.58,2.58,0,0,1-.49.24v-2.69a2,2,0,0,0,.4-.23,3.54,3.54,0,0,0,.86-.92,5,5,0,0,0,.73-1.93Zm0,7.71a2.94,2.94,0,0,0,.51-.12,3.12,3.12,0,0,0,1.08-.6,3.79,3.79,0,0,0,1-1.42,6.2,6.2,0,0,0,.48-2.61v-1.44h2.36v1.53a8.11,8.11,0,0,1-.63,3.23,7.32,7.32,0,0,1-1.38,2.14,6.71,6.71,0,0,1-1.58,1.25,9.57,9.57,0,0,1-1.88.74Z"/><path class="cls-4" d="M190.1,261.78v2.4a6.4,6.4,0,0,0-2.68.82,7.63,7.63,0,0,0-1.89,1.53,4.43,4.43,0,0,0-1,1.66,2.41,2.41,0,0,0,0,1.7,2,2,0,0,0,.92.92,2.91,2.91,0,0,0,1.08.32q.63,0,1.2,0c.39,0,.73-.05,1-.09l.46-.05v2.5a12.77,12.77,0,0,1-1.52.11c-.43,0-.89,0-1.36,0a7,7,0,0,1-1.53-.31,4.57,4.57,0,0,1-1.58-.85,3.71,3.71,0,0,1-1.1-1.55,5,5,0,0,1-.21-2.39,6.19,6.19,0,0,1,.6-1.79,6.62,6.62,0,0,1,.94-1.36,9.41,9.41,0,0,1,.87-.85,2.14,2.14,0,0,1,.39-.29h-4.94v-2.4Zm-2.78,5.66v-2.25h1.08v2.25Zm1.69,0v-2.25h1.08v2.25Z"/><path class="cls-4" d="M195.09,263.82v1.68c0,4.2-.61,7.3-1.82,9.28a7.75,7.75,0,0,0-1-.73,6.57,6.57,0,0,0-1-.58q1.48-2.45,1.49-8v-3.92h5.59v-1.95h2.44v1.95h5.61v2.24Zm11.73,10-2.42,1.08a12.05,12.05,0,0,0-.49-1.33q-5.88.5-9.12.69l-.22-2.39.86,0,1,0a39.67,39.67,0,0,0,1.87-7.36l2.68.52a64.39,64.39,0,0,1-2,6.73l1.83-.09c.92-.06,1.63-.09,2.14-.11a28.75,28.75,0,0,0-1.67-2.75l2.2-.93A24.07,24.07,0,0,1,206.82,273.78Z"/><path class="cls-4" d="M218.6,272.52h1.28a.48.48,0,0,0,.5-.37,9.68,9.68,0,0,0,.17-1.72,5.47,5.47,0,0,0,2.13.92A5.45,5.45,0,0,1,222,274a2.22,2.22,0,0,1-1.85.7h-1.86a2.8,2.8,0,0,1-2.1-.6,3.32,3.32,0,0,1-.54-2.2v-2.17h-1.53a8.69,8.69,0,0,1-.39,1.77,4.87,4.87,0,0,1-.84,1.42,4.77,4.77,0,0,1-1.59,1.17,12.83,12.83,0,0,1-2.54.83,6,6,0,0,0-.54-1.08,5.52,5.52,0,0,0-.76-1,9.28,9.28,0,0,0,2.5-.74,2.9,2.9,0,0,0,1.21-1,3.91,3.91,0,0,0,.45-1.4h-1.85V260.1h10.74v9.64H218v2.15a.92.92,0,0,0,.1.53A.8.8,0,0,0,218.6,272.52ZM212,262.11v.63h6.14v-.63Zm0,2.49v.62h6.14v-.62Zm0,2.5v.62h6.14v-.62Z"/><path class="cls-4" d="M224.37,264.69h7.9v1.94l-1.72,1.65a.91.91,0,0,1,.67.61,2.86,2.86,0,0,1,.08.82V271a.84.84,0,0,0,0,.36c0,.06.13.08.3.08a4,4,0,0,0,1-.08,9.86,9.86,0,0,0,1.06-.23l.45-.13v2.4a10.28,10.28,0,0,1-2.89.43,2.38,2.38,0,0,1-1.66-.5,2.17,2.17,0,0,1-.51-1.68v-1.54a.84.84,0,0,1,0-.12.39.39,0,0,0-.06-.19q0-.07-.15,0l-4.69,4.41v-3.3l4.63-4.09h-4.47Zm1.25-3.14c.56,0,1.08-.05,1.57-.05s1,0,1.63,0,1.17.06,1.69.12.94.11,1.26.16l.5.08V264l-.5-.11c-.32-.07-.74-.13-1.26-.19s-1.09-.09-1.71-.1c-.93,0-1.7,0-2.28,0l-.9,0Z"/><path class="cls-4" d="M235.88,264.35v-2.46h9.61v11.44h-9.61v-2.45H243v-6.53Z"/><path class="cls-4" d="M247.62,268.66v-2.45h7.22v2.45Z"/><path class="cls-4" d="M256.43,268V265.6h10.19V268h-3.25a6.28,6.28,0,0,1-.8,2.78,5.37,5.37,0,0,1-1.66,1.75,8.41,8.41,0,0,1-1.91.94,10.44,10.44,0,0,1-1.52.38,3.85,3.85,0,0,1-.61.07v-2.52a3.53,3.53,0,0,0,.59-.07,5.91,5.91,0,0,0,1.37-.4,3.32,3.32,0,0,0,1.34-1,3.55,3.55,0,0,0,.67-1.91Zm.44-4v-2.39h6.64V264Zm7.23,0v-2.43h1V264Zm1.56,0v-2.43h1V264Z"/></g></svg>