<svg id="レイヤー_1" data-name="レイヤー 1" xmlns="http://www.w3.org/2000/svg" viewBox="0 0 340 396"><defs><style>.cls-1{fill:none;}.cls-2{fill:#fff;}.cls-3{fill:#fff171;}.cls-4{fill:#40220f;}</style></defs><title>tb04</title><rect class="cls-1" width="340" height="396"/><g id="_04" data-name="04"><path class="cls-2" d="M41,38.58a12.84,12.84,0,0,0,2.61-4.25,12.19,12.19,0,0,0,.87-3.68.9.9,0,0,0-.47-.88,14.63,14.63,0,0,0-4,1.14,1.17,1.17,0,0,1-.56.18,1.67,1.67,0,0,1-1.13-.69,1.77,1.77,0,0,1-.61-1.08,1.13,1.13,0,0,1,.07-.34,1.7,1.7,0,0,0,1.48.83,18.62,18.62,0,0,0,3.07-.47c1.1-.18,3.39-.47,5.55-.67a8.37,8.37,0,0,0,1.4-.3,1,1,0,0,1,.45-.09,2.27,2.27,0,0,1,1,.27c.5.23.85.57.85.83s-.2.36-.51.36a1.55,1.55,0,0,1-.45-.06,17.48,17.48,0,0,0-2.9-.23,21.45,21.45,0,0,0-3,.18c.83.45,1.19.83,1.19,1.24a11,11,0,0,1-1.15,3.53,10.54,10.54,0,0,1-3.57,4.37Zm-.34-13.9a2.94,2.94,0,0,0,2.16,1,10,10,0,0,0,3.78-.88,1.06,1.06,0,0,1,.54-.15c.47,0,1.23.58,1.23.94s-.22.32-.94.48a24.55,24.55,0,0,1-4.12.47,3.06,3.06,0,0,1-2.92-1.65ZM49,24a9,9,0,0,1,2.12,1.26,1.29,1.29,0,0,1,.56,1.08c0,.55-.2,1-.45,1s-.25-.13-.4-.43a7.92,7.92,0,0,0-2-2.67Zm1.58-1a7.26,7.26,0,0,1,2.16,1c.51.36.65.61.65,1.06s-.16.87-.4.87-.25-.09-.39-.36a6.7,6.7,0,0,0-2.16-2.38Z"/><path class="cls-2" d="M58.58,30.08a15.18,15.18,0,0,0,2.57-.34,2.47,2.47,0,0,0,.76-.24,1.27,1.27,0,0,1,.23-.12.54.54,0,0,1,.27-.08,1.86,1.86,0,0,1,.9.62c.29.3.36.43.36.61a.36.36,0,0,1-.12.29,3.27,3.27,0,0,0-.42,1.24c-.27,1-.64,2.61-.77,3.17l.74-.06A5.29,5.29,0,0,0,65,34.92a.85.85,0,0,1,.3-.09,2.15,2.15,0,0,1,.76.31c.43.25.7.57.7.83a.39.39,0,0,1-.41.36,3.92,3.92,0,0,1-1-.2A10.13,10.13,0,0,0,63.21,36a18.7,18.7,0,0,0-4.69.55A7.09,7.09,0,0,0,57,37a.86.86,0,0,1-.47.14,1.49,1.49,0,0,1-1-.59,2.58,2.58,0,0,1-.59-1.19,1,1,0,0,1,.07-.31,1.64,1.64,0,0,0,1.37.85c.18,0,.65,0,1.22-.13,1.16-.18,2.06-.3,2.74-.37s.74-.09,1.1-.15a48.47,48.47,0,0,0,.7-4.93c0-.06,0-.07,0-.07a17.55,17.55,0,0,0-2.16.46,7,7,0,0,0-1,.38,1.14,1.14,0,0,1-.43.09c-.33,0-.63-.25-.9-.72a2.13,2.13,0,0,1-.34-1,.6.6,0,0,1,.1-.36A1.42,1.42,0,0,0,58.58,30.08Z"/><path class="cls-2" d="M71,30a2.41,2.41,0,0,0,1.75.43l2.21-.06,7-.1a7.11,7.11,0,0,1,2.35.16.37.37,0,0,1,.25.36.52.52,0,0,1-.42.48c-.48.17-.91.18-4.32.22-1.67,0-5.8.13-6.43.16-.84.06-1,.07-1.29.24a2.56,2.56,0,0,1-.27.05c-.27,0-.56-.2-.87-.59a3.32,3.32,0,0,1-.68-1.66c0-.25,0-.29.14-.41A1.68,1.68,0,0,0,71,30Z"/><path class="cls-2" d="M89.12,38.23a24.48,24.48,0,0,0,6-6.89,17.76,17.76,0,0,0,2.15-4.81c0-.18-.09-.23-.36-.23a26.88,26.88,0,0,0-3.33.61,19.24,19.24,0,0,0-3.3,1,1.81,1.81,0,0,1-.67.18c-.37,0-.84-.36-1.29-1A2.06,2.06,0,0,1,87.81,26a.57.57,0,0,1,.13-.36,1.73,1.73,0,0,0,1.67,1A43,43,0,0,0,94.74,26a6,6,0,0,0,2.09-.5c.22-.13.22-.13.36-.13a2.79,2.79,0,0,1,1.32.83,1.44,1.44,0,0,1,.55.89c0,.14,0,.25-.25.46a3.48,3.48,0,0,0-.63,1A26.21,26.21,0,0,1,93,35.77a17.93,17.93,0,0,1-3.71,2.68Zm13.29-13.59a1.8,1.8,0,1,1-1.8-1.8A1.81,1.81,0,0,1,102.41,24.64Zm-3.06,0a1.26,1.26,0,1,0,2.52,0,1.26,1.26,0,0,0-2.52,0Z"/><path class="cls-2" d="M117.62,29.52a15.89,15.89,0,0,1-2.68,3.06,22.4,22.4,0,0,1-5.44,3.67c-1,.53-1,.53-1.35.87a.55.55,0,0,1-.41.23c-.36,0-1.19-1.06-1.19-1.55,0-.09,0-.09.09-.32a10.14,10.14,0,0,0,.14-2.76c0-4-.09-5.72-.32-6.39-.16-.45-.45-.66-1.24-.93a.81.81,0,0,1,.55-.18,3.44,3.44,0,0,1,1.45.43c.7.38,1.06.74,1.06,1.1a.9.9,0,0,1-.09.38,9.91,9.91,0,0,0-.24,1.78c-.09,1.1-.19,4.37-.19,5.71v.9a23.37,23.37,0,0,0,6.14-3.19,24.34,24.34,0,0,0,3.49-3Z"/><path class="cls-2" d="M121,28.75a9.47,9.47,0,0,1,3.15,1.06A1.28,1.28,0,0,1,124.8,31c0,.46-.23.86-.5.86s-.29-.07-.56-.41A8.86,8.86,0,0,0,120.86,29Zm13.9-.45a21.29,21.29,0,0,1-2.69,3.07,40.26,40.26,0,0,1-6.82,5.24,14.3,14.3,0,0,0-1.39,1,.58.58,0,0,1-.41.18c-.36,0-.78-.34-1.28-1.08a3,3,0,0,1-.56-1.38.67.67,0,0,1,.16-.42c.35.69.85,1.12,1.35,1.12a11.75,11.75,0,0,0,3.46-1.76,41.67,41.67,0,0,0,8-6.13ZM123,25.56c2.88.68,3.8,1.24,3.8,2.29,0,.5-.22.9-.49.9s-.2,0-1-1a8.33,8.33,0,0,0-2.47-2Zm7.38-1.44c1.93.84,2.79,1.56,2.79,2.32a1.48,1.48,0,0,1-.25.87.3.3,0,0,1-.22.09c-.2,0-.25-.06-.5-.54a9.19,9.19,0,0,0-2-2.56ZM132,23c2,.66,2.92,1.33,2.92,2.14,0,.52-.18.92-.43.92s-.27-.11-.47-.45a8,8,0,0,0-2.14-2.42Z"/><path class="cls-2" d="M141.07,38.58a12.84,12.84,0,0,0,2.61-4.25,12.19,12.19,0,0,0,.87-3.68.9.9,0,0,0-.47-.88,14.63,14.63,0,0,0-4,1.14,1.14,1.14,0,0,1-.56.18,1.67,1.67,0,0,1-1.13-.69,1.77,1.77,0,0,1-.61-1.08,1.13,1.13,0,0,1,.07-.34,1.7,1.7,0,0,0,1.48.83,18.78,18.78,0,0,0,3.08-.47c1.09-.18,3.38-.47,5.54-.67a8.7,8.7,0,0,0,1.41-.3,1,1,0,0,1,.45-.09,2.27,2.27,0,0,1,.95.27c.5.23.85.57.85.83s-.2.36-.51.36a1.55,1.55,0,0,1-.45-.06,17.48,17.48,0,0,0-2.9-.23,21.45,21.45,0,0,0-2.95.18c.83.45,1.19.83,1.19,1.24a11,11,0,0,1-1.15,3.53,10.54,10.54,0,0,1-3.57,4.37Zm-.34-13.9a2.94,2.94,0,0,0,2.16,1,10,10,0,0,0,3.78-.88,1.06,1.06,0,0,1,.54-.15c.47,0,1.23.58,1.23.94s-.22.32-.94.48a24.55,24.55,0,0,1-4.12.47,3.08,3.08,0,0,1-2.92-1.65Zm8.34-.71a9,9,0,0,1,2.12,1.26,1.29,1.29,0,0,1,.56,1.08c0,.55-.2,1-.45,1s-.25-.13-.4-.43a8,8,0,0,0-2-2.67Zm1.58-1a7.26,7.26,0,0,1,2.16,1c.51.36.65.61.65,1.06s-.16.87-.4.87-.25-.09-.39-.36a6.7,6.7,0,0,0-2.16-2.38Z"/><path class="cls-2" d="M156.43,25.79a10.34,10.34,0,0,1,3.47,1.35,1.38,1.38,0,0,1,.61,1.23c0,.59-.19,1-.5,1s-.29-.09-.78-.72A9.32,9.32,0,0,0,156.3,26Zm12.8,1a18.83,18.83,0,0,1-3.78,4.84,35.5,35.5,0,0,1-5.06,4.11c-.85.59-.94.66-1.07.83-.28.34-.39.43-.63.43-.73,0-2.1-1.73-2.1-2.65a.88.88,0,0,1,.09-.36,2.52,2.52,0,0,0,.65.79,1.13,1.13,0,0,0,.72.38,4.47,4.47,0,0,0,1.74-.75,26.06,26.06,0,0,0,4.31-3,28.58,28.58,0,0,0,4.84-4.8Z"/><path class="cls-2" d="M172,37.17a26,26,0,0,0,4.84-3.94,32.55,32.55,0,0,0,3.44-4.48,11.9,11.9,0,0,0,1.22-2.33,19.18,19.18,0,0,0-3.8.8,9.72,9.72,0,0,0-1.51.48.77.77,0,0,1-.3.06c-.4,0-.78-.33-1.17-1a2.16,2.16,0,0,1-.38-1.08.69.69,0,0,1,.12-.36c.53.93.9,1.21,1.7,1.21a29,29,0,0,0,3.78-.51,4.9,4.9,0,0,0,1.69-.5.72.72,0,0,1,.41-.17c.38,0,1.41.92,1.41,1.26a.42.42,0,0,1-.24.35c-.37.25-.37.25-1,1.22-.87,1.3-.87,1.3-2.27,3.13a17.84,17.84,0,0,1,4.66,3,2.37,2.37,0,0,1,.69,1.78c0,.58-.18.94-.49.94-.13,0-.27-.09-.41-.29a4,4,0,0,1-.44-.72,15.31,15.31,0,0,0-4.28-4.41,19.73,19.73,0,0,1-4.36,4.05,16,16,0,0,1-3.15,1.76Z"/><path class="cls-2" d="M195.27,25.85h.63c.58-.75.76-1,1.31-1.62a13.85,13.85,0,0,1,1.91,1.83.51.51,0,0,1,.15.29c0,.08-.12.17-.26.17h-3.74V29a19.74,19.74,0,0,1,1.88,1.33c1.22,1,1.48,1.42,1.48,2.24,0,1-.32,1.79-.75,1.79s-.38-.17-.67-1a11.77,11.77,0,0,0-1.94-3.77l0,6.35,0,3.25v2.49c0,.35,0,1,0,1.86,0,.29-.06.35-.29.41a7.18,7.18,0,0,1-1.22.11c-.31,0-.46-.11-.46-.35v-.08l.09-7.52.14-6.12c-1.74,4.21-2.75,6-4.55,8.13l-.29-.18a36.82,36.82,0,0,0,2.9-6.64,35.69,35.69,0,0,0,1.42-4.76h-2.49a4.12,4.12,0,0,0-1.25.2l-.2-1.13a4.2,4.2,0,0,0,1.45.26h2.78V21.24c-1.54.35-2.18.47-4,.73l-.09-.32c4.76-1.71,6.47-2.55,7.86-3.83.49.32.84.52,1.07.67,1.31.81,1.42.9,1.42,1.1s-.17.26-.43.26a6.07,6.07,0,0,1-1.13-.15,20.25,20.25,0,0,1-2.87,1.05Zm3.27-4.29a74.57,74.57,0,0,0,8.74-2.15,16.25,16.25,0,0,0,4.49-1.91c.49.35.87.64,1.13.81,1.34.93,1.57,1.13,1.57,1.37s-.18.26-.41.26a9,9,0,0,1-1.45-.32,60.61,60.61,0,0,1-14,2.38Zm1.19.93a9.93,9.93,0,0,1,1.89,2c.61.79.72,1.08.72,1.63,0,.81-.58,1.74-1.07,1.74-.23,0-.32-.18-.41-1a15.53,15.53,0,0,0-1.45-4.15Zm0,21.23c.09-1.88.12-2.69.12-4.29,0-6.93,0-9.51-.18-11.17,2.62.26,3,.35,3,.61s-.17.32-1,.67l0,7c0,1.65,0,4.47.06,7.11,0,.37-.29.46-1.42.46-.38,0-.5-.09-.5-.32Zm4.64-21.84a11.51,11.51,0,0,1,2.15,2.26c.58.76.75,1.08.75,1.51,0,.84-.66,1.89-1.18,1.89-.24,0-.35-.18-.41-.55-.12-.61-.2-1-.44-1.86a12.59,12.59,0,0,0-1.16-3Zm2.12,21.76v0c0,.18-.06.24-.23.29a5,5,0,0,1-1.13.12c-.38,0-.5-.09-.5-.35.09-2,.09-2.64.09-4.64,0-7.37,0-9-.14-10.79a19.2,19.2,0,0,1,2.14,1.16h5c.52-.58.7-.75,1.19-1.28.58.47.75.61,1.33,1.14.24.2.32.31.32.46s-.14.32-.72.64v3c0,3.92.06,8.33.14,9.92v0c0,.24,0,.29-.23.38a5.65,5.65,0,0,1-1.36.17c-.29,0-.41-.08-.41-.31V42.5h-5.51ZM212,35.28V30.15h-5.51v5.13Zm-5.51.67v5.89H212V36Zm2.21-7.4a33.09,33.09,0,0,0,2.11-4.09A15.38,15.38,0,0,0,212,21.3c2.73.87,3.05,1,3.05,1.31s-.32.37-1,.37h-.43A24.24,24.24,0,0,1,209,28.76Z"/><path class="cls-2" d="M219.77,24.84a22.16,22.16,0,0,1,3.95,1.71,1.49,1.49,0,0,1,.75,1.36c0,.9-.41,1.86-.78,1.86-.21,0-.41-.23-.73-.75a13.75,13.75,0,0,0-3.45-3.89Zm.06,10.35a14.29,14.29,0,0,0,1.91.41c.35,0,.5-.17,1.11-1.3s1.39-2.62,3.1-6.15c1.45-3,1.45-3,2.23-4.44l.41.2L224,36a4.2,4.2,0,0,0-.41,1.45,4.86,4.86,0,0,0,.23,1.19,8.88,8.88,0,0,1,.47,2.61,2.23,2.23,0,0,1-1.08,1.88,2,2,0,0,1-1,.47c-.35,0-.61-.38-.61-.87a6.8,6.8,0,0,1,.17-1,20.13,20.13,0,0,0,.27-3.16,3,3,0,0,0-.47-1.94c-.29-.35-.61-.53-1.71-1Zm1.51-16.67c3.56,1.21,4.72,2,4.72,3.16,0,.87-.37,1.77-.75,1.77-.23,0-.32-.09-1-1.11a16.13,16.13,0,0,0-3.22-3.56Zm10.41,11.19a23.83,23.83,0,0,1-1.48,7A17.18,17.18,0,0,1,227,42,14.81,14.81,0,0,1,224.64,44l-.23-.35a14.36,14.36,0,0,0,2.76-3.77,21.4,21.4,0,0,0,2.4-7.8c.21-2.12.35-5.34.35-8.53,0-1.36,0-1.48-.14-4.64a26.84,26.84,0,0,1,2.38,1.28h9a16.84,16.84,0,0,1,1.25-1.28c.75.55,1,.7,1.68,1.28.23.17.32.29.32.38s-.2.37-1.08.89v2.12c0,2.35,0,3.95.06,6.91,0,.52-.06.55-1.56.63-.29,0-.41-.08-.47-.34V29.71h-4.61A14.07,14.07,0,0,0,238.6,35a12.89,12.89,0,0,0,4.58,4.61,13.69,13.69,0,0,0,3.28,1.4v.43c-1.13.23-1.45.55-2,2a13.39,13.39,0,0,1-4.75-4.06,20.27,20.27,0,0,1-3.54-8.32c-.06-.32-.12-.55-.23-1.34Zm9.57-.66V20.87h-9.4c-.08,7.13-.08,7.13-.14,8.18Z"/><path class="cls-2" d="M251.61,35.08a12.79,12.79,0,0,1,.09,1.33,8.73,8.73,0,0,1-.58,3.6c-.38.84-.84,1.33-1.28,1.33s-.58-.58-.58-1.45c0-.61.09-.78.64-1.24a4.77,4.77,0,0,0,1.31-3.57Zm7.52-11.34c.52-.64.66-.84,1.18-1.42A19.56,19.56,0,0,1,262.26,24a.64.64,0,0,1,.11.23c0,.12-.08.14-.32.14h-4.32v3.48H259c.58-.63.76-.81,1.36-1.45.85.76,1.08,1,1.83,1.74a.82.82,0,0,1,.12.21c0,.11-.12.17-.35.17h-4.18v3.86h1.86c.61-.61.61-.61,1.13-1.1.61.55.81.72,1.39,1.27.21.27.26.35.26.44s-.11.26-.92.67c-.18,4-.67,7.07-1.34,8.32a3.33,3.33,0,0,1-1.33,1.22,6.78,6.78,0,0,1-2.06.41c-.21-1.31-.41-1.45-3.22-2.15l.06-.46c1.45.23,3.8.52,4.46.52.44,0,.73-.41,1-1.42a31.24,31.24,0,0,0,.75-7.05h-6.49v.61c0,.34-.29.43-1.25.43-.44,0-.58-.09-.58-.32v-.11c.09-2.61.12-3.72.12-7.31,0-5.31,0-6.47-.15-8.07.84.5,1.1.64,2,1.25H259c.55-.73.72-1,1.3-1.68a19.86,19.86,0,0,1,2.24,2,.62.62,0,0,1,.14.23c0,.12-.06.15-.35.15h-4.61v3.51ZM253,34.93c1.07,1.8,1.39,2.61,1.39,3.6,0,.55-.64,1.39-1.08,1.39-.23,0-.34-.2-.34-.64v-.17c.05-.93.08-1.39.08-1.62a7.82,7.82,0,0,0-.37-2.41Zm3.1-14.7h-2.84v3.51h2.84Zm-2.84,4.17v3.48h2.84V24.4Zm0,4.15v3.86h2.84V28.55Zm1.56,5.95c1.31,1.27,2.09,2.44,2.09,3.1s-.46,1.37-.84,1.37c-.17,0-.29-.12-.32-.41a11.34,11.34,0,0,0-1.22-3.89Zm2-.41c1.36,1.16,2.08,2.06,2.08,2.67S258.4,38,258.05,38c-.11,0-.2-.12-.26-.38s-.14-.64-.29-1.16a6,6,0,0,0-1-2.12Zm8.81-4.87a30.46,30.46,0,0,1-1,7.89,18.17,18.17,0,0,1-2.29,5A9.79,9.79,0,0,1,260.6,44l-.31-.26a18.27,18.27,0,0,0,2.87-7.42,62.23,62.23,0,0,0,.69-8.91c0-5.63,0-7.89-.08-9.31.92.61,1.21.78,2.14,1.42h6.5c.49-.52.64-.7,1.16-1.25.75.58,1,.76,1.62,1.34.24.17.32.32.32.43s-.05.21-1,.67c0,.7,0,1.25,0,1.68v1.19c0,1.07,0,2.15,0,3.16,0,.26,0,.47,0,1.83,0,.9,0,.9.06,1.65v.18c0,.35-.38.46-1.54.46-.38,0-.46-.06-.49-.32V29.22H269a13.83,13.83,0,0,0,1.85,6.44,14.78,14.78,0,0,0,3.69,4.26,8.34,8.34,0,0,0,2.52,1.4v.43c-1.13.23-1.33.41-2.2,1.8A13.79,13.79,0,0,1,271.05,39a20,20,0,0,1-2.44-7.39c-.06-.64-.12-1-.23-2.41Zm6.94-.67V20.23h-6.82c0,.93,0,1.74,0,2.17,0,2.06,0,3.8-.12,6.15Z"/><path class="cls-2" d="M282.3,40.74c2.29-.06,2.46-.27,2.46-3V24.14c0-2.69-.14-2.87-2.46-3v-.7h7.45v.7c-2.29.11-2.44.29-2.44,3V37.78c0,2.69.18,2.9,2.44,3v.72H282.3Zm9,0c2.26-.06,2.44-.27,2.44-3V24.14c0-2.69-.15-2.87-2.44-3v-.7h7.45v.7c-2.29.11-2.46.29-2.46,3V37.78c0,2.66.17,2.9,2.46,3v.72h-7.45Z"/><path class="cls-3" d="M76.66,337v-15h4.79a7,7,0,0,1,2.79.41,3.75,3.75,0,0,1,2.22,3.56,3.81,3.81,0,0,1-1.53,3.14,4,4,0,0,1,1.94,3.65C86.87,337,83,337,81.66,337Zm3-9.07h2.14a1.52,1.52,0,0,0,1.66-1.55c0-.55-.2-1.56-1.81-1.56h-2Zm0,6.21h2.14a1.77,1.77,0,0,0,2.07-1.8c0-.74-.28-1.85-2-1.85H79.65Z"/><path class="cls-3" d="M98.54,334.12V337h-11a82.34,82.34,0,0,0,6.21-7.56A5.34,5.34,0,0,0,95,326.51a1.84,1.84,0,0,0-1.89-2c-1.91,0-3,1.73-3.44,2.46L88.39,324a5.8,5.8,0,0,1,4.75-2.38A4.57,4.57,0,0,1,98,326.39c0,2.42-1.25,4.1-4.3,7.73Z"/><path class="cls-3" d="M100.07,328.08a10.89,10.89,0,0,0,4.34-5.52h9.66c-.83,10.92-6.93,14.07-11.57,15.55l-1.4-2.7a13,13,0,0,0,6.72-3.8,25.61,25.61,0,0,0-4.08-2.88,13.42,13.42,0,0,1-1.85,1.61Zm6.19-2.79c-.48.82-.67,1.1-1,1.52a19.41,19.41,0,0,1,4.1,2.6,12.09,12.09,0,0,0,1.31-4.12Z"/><path class="cls-3" d="M125.68,337.86h-2.94v-7.52a29.69,29.69,0,0,1-5.43,2.71L116,330.36a25.65,25.65,0,0,0,12-8.75l2.47,1.85a32.74,32.74,0,0,1-4.8,4.77Z"/><path class="cls-3" d="M142.39,323l2.89,3.53c-.47,2.62-1.13,6.34-5,9.08a14.19,14.19,0,0,1-5.18,2.24l-1.27-2.81c6.69-1.31,8.1-5.4,8.58-9.05h-9.67v-3Zm5.8-.1a2.31,2.31,0,1,1-4.62,0,2.32,2.32,0,1,1,4.62,0Zm-3.44,0a1.17,1.17,0,0,0,1.12,1.2,1.2,1.2,0,1,0-1.12-1.2Z"/><path class="cls-3" d="M158.14,324.26v3.31h-3.27v-3.31Zm0,7.91v3.32h-3.27v-3.32Z"/><path class="cls-3" d="M178.74,333.45V337H165.11a102.1,102.1,0,0,0,7.67-9.33c1-1.5,1.55-2.5,1.55-3.6a2.27,2.27,0,0,0-2.34-2.48c-2.35,0-3.69,2.13-4.25,3L166.19,321a7.22,7.22,0,0,1,5.87-2.93c3,0,6,1.82,6,5.87,0,3-1.55,5.06-5.31,9.54Z"/><path class="cls-3" d="M184.91,332.92v3.85c0,2.38-1.51,3-4,3.05V338c1.55,0,1.78-.46,1.8-1.13h-1.8v-3.9Z"/><path class="cls-3" d="M188.12,332.5a8.61,8.61,0,0,0,4.57,1.32c.46,0,3.56,0,3.56-2.84a2.56,2.56,0,0,0-2.75-2.68,2.76,2.76,0,0,0-2.2.92h-3V318.41h10.44v3.53h-7v3.17a6.59,6.59,0,0,1,2.06-.33,5.85,5.85,0,0,1,6.19,6.13c0,3.14-1.92,6.44-7.18,6.44a11.88,11.88,0,0,1-5.57-1.34Z"/><path class="cls-3" d="M209,337v-3.62h-7.55v-3.22l7.64-11.73h3.61V330h2.05v3.4h-2.05V337Zm0-7v-6.15L205.09,330Z"/><path class="cls-3" d="M227.59,320.9a16.8,16.8,0,0,1,0,13.61,5.8,5.8,0,0,1-10,0c-.8-1.34-1.43-3.37-1.43-6.81a13.24,13.24,0,0,1,1.43-6.8,5.78,5.78,0,0,1,10,0Zm-7.69,6.8c0,3.55.69,6.12,2.7,6.12s2.71-2.64,2.71-6.12c0-3.22-.58-6.13-2.71-6.13S219.9,324.25,219.9,327.7Z"/><path class="cls-3" d="M237.58,326.49h7.34a64.2,64.2,0,0,1-.73,9.65c-.47,2.3-1.72,2.58-2.92,2.58h-3l-.5-2.92h2.47c.9,0,1.16-.26,1.36-1.25a35.48,35.48,0,0,0,.42-5.35h-4.64a13.32,13.32,0,0,1-5.65,9.58L230,336.16c2.24-1.38,4.82-3.69,4.82-10.07v-1.83h-4.47v-2.73h15.89v2.73h-8.65Z"/><path class="cls-3" d="M250.45,338.72h-2.7V321.51h14.69v15.17c0,2-1.4,2-1.95,2h-3.08l-.47-2.9h2.15c.64,0,.64-.17.64-.75v-3.19h-9.28Zm3.29-14.46h-3.29v5h3.29Zm6,5v-5H256.4v5Z"/><path class="cls-4" d="M92.2,274.25v-6.81a12.52,12.52,0,0,1-1.84,3,15.35,15.35,0,0,1-2,2,11.4,11.4,0,0,1-1.57,1.1l-.64.34v-2.81l.49-.3a10.44,10.44,0,0,0,2.77-2.74,13.94,13.94,0,0,0,1.49-2.77H86.13v-2.39H92.2v-2h2.43v2h1.78v2.39H94.63v8.93Z"/><path class="cls-4" d="M97.87,268.66v-2.45h7.22v2.45Z"/><path class="cls-4" d="M111.7,261c0,.29-.1.57-.16.85s-.13.53-.19.78h5.14V265a10.46,10.46,0,0,1-.89,3.58,8.76,8.76,0,0,1-1.72,2.56,10.65,10.65,0,0,1-2.07,1.61,15.46,15.46,0,0,1-2,1,11,11,0,0,1-1.49.49,3.86,3.86,0,0,1-.59.12v-2.54a3.54,3.54,0,0,0,.62-.14,9.13,9.13,0,0,0,1.47-.59,8.18,8.18,0,0,0,1.83-1.28,7.09,7.09,0,0,0,1.54-2,8.39,8.39,0,0,0,.79-2.85H110.4a15,15,0,0,1-1.77,2.28,11.58,11.58,0,0,1-1.43,1.28,3.43,3.43,0,0,1-.6.39v-3a2.66,2.66,0,0,0,.35-.29,4.8,4.8,0,0,0,.78-.93,11,11,0,0,0,.85-1.52,9.3,9.3,0,0,0,.65-2.15Z"/><path class="cls-4" d="M127.1,271.58l-1.65,1.66-2.91-2.91-2.92,2.91L118,271.58l2.9-2.9-2.9-2.91,1.64-1.66,2.92,2.92,2.91-2.92,1.65,1.66-2.92,2.91Z"/><path class="cls-4" d="M133.52,261c0,.29-.09.57-.15.85s-.13.53-.19.78h5.14V265a10.46,10.46,0,0,1-.89,3.58,8.59,8.59,0,0,1-1.73,2.56,10.6,10.6,0,0,1-2.06,1.61,15.46,15.46,0,0,1-2,1,11.44,11.44,0,0,1-1.49.49,4.14,4.14,0,0,1-.59.12v-2.54a3.36,3.36,0,0,0,.61-.14,9.18,9.18,0,0,0,1.48-.59,8.18,8.18,0,0,0,1.83-1.28,7.09,7.09,0,0,0,1.54-2,8.39,8.39,0,0,0,.79-2.85h-3.61a15.64,15.64,0,0,1-1.77,2.28,11.58,11.58,0,0,1-1.43,1.28,3.43,3.43,0,0,1-.6.39v-3a2.66,2.66,0,0,0,.35-.29,4.82,4.82,0,0,0,.77-.93,10,10,0,0,0,.86-1.52,8.86,8.86,0,0,0,.64-2.15Zm2.08,1v-2.25h1.08v2.25Zm1.69,0v-2.25h1.08v2.25Z"/><path class="cls-4" d="M150.77,265.71a16.57,16.57,0,0,1-2.29,4.07,11.08,11.08,0,0,1-2.57,2.43,9.7,9.7,0,0,1-2.39,1.2,10.57,10.57,0,0,1-2.64.42V261.44h2.49v9.39A4.62,4.62,0,0,0,145,270a8.24,8.24,0,0,0,1.75-1.7,11.66,11.66,0,0,0,1.5-2.61Z"/><path class="cls-4" d="M152.18,268.66v-2.45h7.22v2.45Z"/><path class="cls-4" d="M169.76,267.25a4.41,4.41,0,0,0-.55-2.08,2,2,0,0,0-1.53-1c0,1-.1,2-.2,3.06a12.4,12.4,0,0,1-.58,2.85,6.14,6.14,0,0,1-1.1,2.06,2,2,0,0,1-1.65.73,2.72,2.72,0,0,1-1.4-.47,3.35,3.35,0,0,1-1.12-1.48,7.09,7.09,0,0,1-.48-2.8,7.58,7.58,0,0,1,.7-3.15,6.22,6.22,0,0,1,1.8-2.28,4.82,4.82,0,0,1,2.55-1,5.87,5.87,0,0,1,2.82.44,4.64,4.64,0,0,1,2.11,1.88,7,7,0,0,1,.92,3.39,7.82,7.82,0,0,1-.46,3,4.92,4.92,0,0,1-1.28,2,4.75,4.75,0,0,1-1.71,1,5.52,5.52,0,0,1-1.69.31v-2.35a2.59,2.59,0,0,0,2.1-1.08A5,5,0,0,0,169.76,267.25Zm-5.56,3.14c.23,0,.44-.19.6-.61a7.8,7.8,0,0,0,.39-1.6c.1-.65.17-1.33.22-2s.06-1.35.05-1.93a2.25,2.25,0,0,0-1.15.89,4.87,4.87,0,0,0-.7,1.47,6.49,6.49,0,0,0-.27,1.54,3.78,3.78,0,0,0,.2,1.71C163.71,270.18,163.92,270.37,164.2,270.39Z"/><path class="cls-4" d="M174,265.74v-2.46h2.72V261.1h2.35v2.18h4.74v2.43c0,2,0,3.72-.13,5.1s-.37,2.24-.83,2.59a3.12,3.12,0,0,1-1.59.62,5.86,5.86,0,0,1-1.47,0,5.22,5.22,0,0,1-1-.26l-.37-.16V271.1a2.08,2.08,0,0,1,.32.14,4.71,4.71,0,0,0,.82.26,3.48,3.48,0,0,0,1.17,0,.51.51,0,0,0,.37-.22,1.63,1.63,0,0,0,.22-.79c0-.39.07-1,.11-1.73s.06-1.78,0-3H179a10.91,10.91,0,0,1-.7,4.05,7.49,7.49,0,0,1-1.81,2.74,8.8,8.8,0,0,1-1.85,1.43l-.75.37V271.5a4.78,4.78,0,0,0,1.32-1.06,5.28,5.28,0,0,0,1-1.79,9.35,9.35,0,0,0,.42-2.91Z"/><path class="cls-4" d="M186.1,264.18v-2.5h9.58V264a10.68,10.68,0,0,1-.72,4,9.49,9.49,0,0,1-1.64,2.72,7.9,7.9,0,0,1-2,1.67,11.08,11.08,0,0,1-2,.89,8.56,8.56,0,0,1-1.56.39,5.18,5.18,0,0,1-.61.08v-2.5a11.27,11.27,0,0,0,2.17-.54,6.73,6.73,0,0,0,1.84-1.12,5.8,5.8,0,0,0,1.49-2.06,9,9,0,0,0,.65-3.28Z"/><path class="cls-4" d="M197.76,265.89v-2.07H206v2.07h-3v5.57h3.27v2.07h-8.75v-2.07h3.31v-5.57Z"/><path class="cls-4" d="M208.27,264.14v-2.51h9a15.12,15.12,0,0,1-1,3.36,19.22,19.22,0,0,1-1.49,2.79c.47.62.93,1.18,1.4,1.69a10.73,10.73,0,0,0,1.2,1.18l.52.43v3c-.56-.41-1.07-.81-1.53-1.19a18.4,18.4,0,0,1-1.47-1.4,21.1,21.1,0,0,1-1.51-1.8,16.53,16.53,0,0,1-2,2,14.46,14.46,0,0,1-1.83,1.4c-.57.36-1,.61-1.36.78l-.53.24v-2.8a10.72,10.72,0,0,0,2.44-1.69,17.19,17.19,0,0,0,2-2.26,14.5,14.5,0,0,0,1.75-3.24Z"/><path class="cls-4" d="M224.55,261c-.05.3-.1.58-.15.82a2.74,2.74,0,0,1-.1.4h5.35v2.39a11.67,11.67,0,0,1-.9,3.72,8.73,8.73,0,0,1-1.77,2.63,12.4,12.4,0,0,1-2.16,1.74,12,12,0,0,1-2,1,12.22,12.22,0,0,1-1.54.49,4.32,4.32,0,0,1-.61.12v-2.54l.54-.13a11.21,11.21,0,0,0,1.36-.47,9.49,9.49,0,0,0,1.71-1,7.27,7.27,0,0,0,1.64-1.6H223v-2.33h3.82a8,8,0,0,0,.3-1.76h-3.67a10.78,10.78,0,0,1-1.88,2.66,14.32,14.32,0,0,1-1.48,1.29,4.06,4.06,0,0,1-.61.41v-3a2.66,2.66,0,0,0,.35-.29,4.94,4.94,0,0,0,.78-.89,8.26,8.26,0,0,0,.86-1.53,8.93,8.93,0,0,0,.65-2.18Z"/><path class="cls-4" d="M241.88,261.33a13.37,13.37,0,0,1-1.6,2.56c-.63.81-1.2,1.5-1.73,2.1v8.22h-2.46v-6.32a14,14,0,0,1-2.32,1.55,14.69,14.69,0,0,1-1.76.81l-.67.22V268l.79-.32a15.34,15.34,0,0,0,2-1.07,14.65,14.65,0,0,0,2.52-2,15.14,15.14,0,0,0,2.42-3.21Z"/><path class="cls-4" d="M242.9,273.53a21.69,21.69,0,0,0,.87-2.12,18.38,18.38,0,0,0,.61-2.37,16.36,16.36,0,0,0,.25-3v-4.44H247v4.44a20.93,20.93,0,0,1-.38,4.16,15.77,15.77,0,0,1-.71,2.5,5.11,5.11,0,0,1-.38.82Zm10.83-2.42a8,8,0,0,1-1.75,1.55,8.64,8.64,0,0,1-1.72.83,7.58,7.58,0,0,1-1.37.33,3.86,3.86,0,0,1-.57.06V261.44h2.38v9.05a6.65,6.65,0,0,0,1-.54,7.23,7.23,0,0,0,1-.8c.31-.31.65-.66,1-1.07Z"/></g></svg>