<svg id="レイヤー_1" data-name="レイヤー 1" xmlns="http://www.w3.org/2000/svg" viewBox="0 0 340 396"><defs><style>.cls-1{fill:none;}.cls-2{fill:#fff;}.cls-3{fill:#40220f;}.cls-4{fill:#f5e973;}</style></defs><title>tb05</title><rect class="cls-1" width="340" height="396"/><g id="_05" data-name=" 05"><path class="cls-2" d="M47.34,38.58A12.81,12.81,0,0,0,50,34.33a12.28,12.28,0,0,0,.87-3.68.89.89,0,0,0-.47-.88,14.65,14.65,0,0,0-4,1.14,1.12,1.12,0,0,1-.56.18,1.64,1.64,0,0,1-1.13-.69,1.76,1.76,0,0,1-.61-1.08,1.28,1.28,0,0,1,.07-.34,1.69,1.69,0,0,0,1.48.83,18.78,18.78,0,0,0,3.08-.47c1.09-.18,3.38-.47,5.54-.67a8.42,8.42,0,0,0,1.41-.3,1,1,0,0,1,.45-.09,2.2,2.2,0,0,1,1,.27c.5.23.85.57.85.83s-.2.36-.51.36a1.74,1.74,0,0,1-.45-.06,17.63,17.63,0,0,0-2.9-.23,21.48,21.48,0,0,0-3,.18c.83.45,1.19.83,1.19,1.24a11,11,0,0,1-1.15,3.53,10.55,10.55,0,0,1-3.57,4.37ZM47,24.68a2.94,2.94,0,0,0,2.16,1,9.86,9.86,0,0,0,3.78-.88,1,1,0,0,1,.54-.15c.47,0,1.23.58,1.23.94s-.22.32-.94.48a24.88,24.88,0,0,1-4.12.47,3.09,3.09,0,0,1-2.92-1.65ZM55.34,24a8.93,8.93,0,0,1,2.12,1.26,1.28,1.28,0,0,1,.54,1c0,.55-.2,1-.45,1s-.25-.13-.4-.43a8,8,0,0,0-2-2.67Zm1.58-1a7.2,7.2,0,0,1,2.16,1c.51.36.65.61.65,1.06s-.16.87-.4.87-.25-.09-.39-.36a6.76,6.76,0,0,0-2.16-2.38Z"/><path class="cls-2" d="M64.93,30.08a15,15,0,0,0,2.57-.34,2.59,2.59,0,0,0,.76-.24,1.08,1.08,0,0,1,.24-.12.5.5,0,0,1,.27-.08,1.88,1.88,0,0,1,.9.62c.28.3.36.43.36.61a.39.39,0,0,1-.13.29,3.19,3.19,0,0,0-.41,1.24c-.27,1-.65,2.61-.78,3.17l.74-.06a5.27,5.27,0,0,0,1.89-.25.85.85,0,0,1,.31-.09,2.25,2.25,0,0,1,.75.31c.43.25.7.57.7.83a.4.4,0,0,1-.41.36,3.78,3.78,0,0,1-1-.2A10.13,10.13,0,0,0,69.56,36a18.44,18.44,0,0,0-4.68.55,7.2,7.2,0,0,0-1.57.51.86.86,0,0,1-.47.14,1.45,1.45,0,0,1-1-.59,2.59,2.59,0,0,1-.6-1.19,1.08,1.08,0,0,1,.07-.31,1.65,1.65,0,0,0,1.37.85,5.5,5.5,0,0,0,1.23-.13c1.15-.18,2-.3,2.73-.37a9.62,9.62,0,0,0,1.1-.15,48.33,48.33,0,0,0,.7-4.93v-.07a17.65,17.65,0,0,0-2.16.46,7.09,7.09,0,0,0-1,.38,1.07,1.07,0,0,1-.43.09c-.32,0-.63-.25-.9-.72a2.1,2.1,0,0,1-.34-1,.66.66,0,0,1,.11-.36A1.4,1.4,0,0,0,64.93,30.08Z"/><path class="cls-2" d="M77.31,30a2.42,2.42,0,0,0,1.75.43l2.21-.06,7-.1a7.1,7.1,0,0,1,2.34.16.38.38,0,0,1,.25.36.52.52,0,0,1-.41.48c-.49.17-.92.18-4.33.22-1.67,0-5.79.13-6.42.16-.85.06-1,.07-1.3.24l-.27.05c-.27,0-.56-.2-.87-.59a3.34,3.34,0,0,1-.68-1.66c0-.25,0-.29.14-.41A1.66,1.66,0,0,0,77.31,30Z"/><path class="cls-2" d="M95.48,38.23a24.9,24.9,0,0,0,6-6.89,17.73,17.73,0,0,0,2.14-4.81c0-.18-.09-.23-.36-.23a27.06,27.06,0,0,0-3.33.61,19,19,0,0,0-3.3,1,1.91,1.91,0,0,1-.66.18c-.38,0-.85-.36-1.3-1A2.08,2.08,0,0,1,94.16,26a.59.59,0,0,1,.13-.36,1.74,1.74,0,0,0,1.67,1,42.25,42.25,0,0,0,5.13-.74,6,6,0,0,0,2.09-.5c.22-.13.22-.13.36-.13a2.79,2.79,0,0,1,1.32.83,1.45,1.45,0,0,1,.55.89c0,.14,0,.25-.25.46a3.26,3.26,0,0,0-.63,1,26,26,0,0,1-5.18,7.28,17.79,17.79,0,0,1-3.71,2.68Zm13.28-13.59a1.8,1.8,0,1,1-1.8-1.8A1.81,1.81,0,0,1,108.76,24.64Zm-3.06,0a1.26,1.26,0,0,0,2.52,0h0a1.26,1.26,0,1,0-2.52,0Z"/><path class="cls-2" d="M124,29.52a16,16,0,0,1-2.68,3.06,22.52,22.52,0,0,1-5.44,3.67,4.1,4.1,0,0,0-1.35.87.57.57,0,0,1-.41.23c-.36,0-1.19-1.06-1.19-1.55,0-.09,0-.09.09-.32a10.22,10.22,0,0,0,.14-2.76c0-4-.09-5.72-.32-6.39-.16-.45-.45-.66-1.24-.93a.82.82,0,0,1,.56-.18,3.44,3.44,0,0,1,1.44.43c.7.38,1.06.74,1.06,1.1a.85.85,0,0,1-.09.38,10.58,10.58,0,0,0-.24,1.78c-.09,1.1-.19,4.37-.19,5.71v.9a23.45,23.45,0,0,0,6.14-3.19,24.34,24.34,0,0,0,3.49-3Z"/><path class="cls-2" d="M127.32,28.75a9.32,9.32,0,0,1,3.15,1.06,1.28,1.28,0,0,1,.68,1.19c0,.46-.23.86-.5.86s-.29-.07-.56-.41A8.84,8.84,0,0,0,127.21,29Zm13.9-.45a20.13,20.13,0,0,1-2.69,3.07,39.88,39.88,0,0,1-6.82,5.24,15.3,15.3,0,0,0-1.39,1,.58.58,0,0,1-.41.18c-.36,0-.77-.34-1.28-1.08a3,3,0,0,1-.56-1.38.59.59,0,0,1,.17-.42A1.71,1.71,0,0,0,129.59,36,12,12,0,0,0,133,34.26a41.75,41.75,0,0,0,8-6.13ZM129.3,25.56c2.88.68,3.8,1.24,3.8,2.29,0,.5-.22.9-.49.9s-.2,0-1-1a8.24,8.24,0,0,0-2.47-2Zm7.38-1.44c1.93.84,2.79,1.56,2.79,2.32a1.5,1.5,0,0,1-.25.87.31.31,0,0,1-.22.09c-.2,0-.25-.06-.5-.54a9.23,9.23,0,0,0-2-2.56ZM138.35,23c2,.66,2.92,1.33,2.92,2.14,0,.52-.18.92-.43.92s-.27-.11-.47-.45a8,8,0,0,0-2.14-2.42Z"/><path class="cls-2" d="M147.42,38.58A13,13,0,0,0,150,34.33a12.65,12.65,0,0,0,.86-3.68.89.89,0,0,0-.47-.88,14.65,14.65,0,0,0-4,1.14,1.06,1.06,0,0,1-.55.18,1.66,1.66,0,0,1-1.14-.69,1.76,1.76,0,0,1-.61-1.08,1.28,1.28,0,0,1,.07-.34,1.71,1.71,0,0,0,1.48.83,18.78,18.78,0,0,0,3.08-.47c1.1-.18,3.38-.47,5.54-.67a8.42,8.42,0,0,0,1.41-.3,1,1,0,0,1,.45-.09,2.2,2.2,0,0,1,1,.27c.51.23.85.57.85.83s-.2.36-.51.36a1.74,1.74,0,0,1-.45-.06,17.63,17.63,0,0,0-2.9-.23,20.77,20.77,0,0,0-3,.18c.83.45,1.19.83,1.19,1.24a11,11,0,0,1-1.15,3.53,10.55,10.55,0,0,1-3.57,4.37Zm-.34-13.9a2.94,2.94,0,0,0,2.16,1A9.86,9.86,0,0,0,153,24.8a1,1,0,0,1,.54-.15c.47,0,1.23.58,1.23.94s-.22.32-.94.48a24.88,24.88,0,0,1-4.12.47,3.09,3.09,0,0,1-2.92-1.65Zm8.34-.71a8.74,8.74,0,0,1,2.12,1.26,1.26,1.26,0,0,1,.56,1.08c0,.55-.2,1-.45,1s-.25-.13-.39-.43a8.22,8.22,0,0,0-2-2.67ZM157,23a7.2,7.2,0,0,1,2.16,1c.51.36.65.61.65,1.06s-.16.87-.39.87-.26-.09-.4-.36a6.76,6.76,0,0,0-2.16-2.38Z"/><path class="cls-2" d="M162.78,25.79a10.08,10.08,0,0,1,3.47,1.35,1.37,1.37,0,0,1,.61,1.23c0,.59-.19,1-.5,1s-.29-.09-.77-.72A9.33,9.33,0,0,0,162.65,26Zm12.8,1a18.89,18.89,0,0,1-3.78,4.84,35.64,35.64,0,0,1-5.06,4.11c-.85.59-.94.66-1.06.83-.29.34-.4.43-.63.43-.74,0-2.11-1.73-2.11-2.65A1,1,0,0,1,163,34a2.59,2.59,0,0,0,.65.79,1.11,1.11,0,0,0,.72.38,4.43,4.43,0,0,0,1.74-.75,26.16,26.16,0,0,0,4.31-3,28.55,28.55,0,0,0,4.84-4.8Z"/><path class="cls-2" d="M178.35,37.17a25.83,25.83,0,0,0,4.84-3.94,32.48,32.48,0,0,0,3.44-4.48,12,12,0,0,0,1.22-2.33,19.51,19.51,0,0,0-3.79.8,9.94,9.94,0,0,0-1.52.48.77.77,0,0,1-.3.06c-.4,0-.78-.33-1.17-1a2.2,2.2,0,0,1-.38-1.08.77.77,0,0,1,.12-.36c.53.93.9,1.21,1.7,1.21a30.11,30.11,0,0,0,3.78-.51,4.78,4.78,0,0,0,1.69-.5.71.71,0,0,1,.41-.17c.38,0,1.41.92,1.41,1.26a.41.41,0,0,1-.24.35c-.37.25-.37.25-1,1.22-.87,1.3-.87,1.3-2.27,3.13a17.77,17.77,0,0,1,4.66,3,2.37,2.37,0,0,1,.69,1.78c0,.58-.18.94-.49.94a.56.56,0,0,1-.41-.29,6.52,6.52,0,0,1-.43-.72A15.4,15.4,0,0,0,186,31.63a19.74,19.74,0,0,1-4.36,4.05,16.48,16.48,0,0,1-3.15,1.76Z"/><path class="cls-2" d="M201.62,25.85h.64c.58-.75.75-1,1.3-1.62a14.44,14.44,0,0,1,1.92,1.83.61.61,0,0,1,.14.29c0,.08-.12.17-.26.17h-3.74V29a18.79,18.79,0,0,1,1.88,1.33c1.22,1,1.48,1.42,1.48,2.24,0,1-.32,1.79-.75,1.79s-.38-.17-.67-1a11.75,11.75,0,0,0-1.94-3.77l.06,6.35v7.6c0,.29,0,.35-.29.41a7,7,0,0,1-1.21.11c-.32,0-.47-.11-.47-.35v-.08l.09-7.52L200,30c-1.74,4.21-2.75,6-4.55,8.13l-.29-.18a37.31,37.31,0,0,0,2.9-6.64,35.67,35.67,0,0,0,1.42-4.76H197a4.09,4.09,0,0,0-1.25.2l-.2-1.13a4.22,4.22,0,0,0,1.45.26h2.78V21.24c-1.32.31-2.66.55-4,.73l-.09-.32c4.76-1.71,6.47-2.55,7.86-3.83.49.32.84.52,1.07.67,1.31.81,1.43.9,1.43,1.1s-.18.26-.44.26a7.14,7.14,0,0,1-1.13-.15,21,21,0,0,1-2.87,1.05Zm3.28-4.29a74.63,74.63,0,0,0,8.73-2.15,16.34,16.34,0,0,0,4.49-1.91c.5.35.87.64,1.13.81,1.34.93,1.57,1.13,1.57,1.37s-.17.26-.41.26a8.93,8.93,0,0,1-1.45-.32A60.63,60.63,0,0,1,205,22Zm1.18.93a9.69,9.69,0,0,1,1.89,2c.61.79.73,1.08.73,1.63,0,.81-.58,1.74-1.08,1.74-.23,0-.32-.18-.4-1a16.11,16.11,0,0,0-1.45-4.15Zm0,21.23c.09-1.88.12-2.69.12-4.29,0-6.93,0-9.51-.17-11.17,2.61.26,2.95.35,2.95.61s-.17.32-1,.67v7c0,1.65,0,4.47.06,7.11,0,.37-.29.46-1.42.46-.38,0-.5-.09-.5-.32Zm4.64-21.84a11.24,11.24,0,0,1,2.15,2.26c.58.76.76,1.08.76,1.51,0,.84-.67,1.89-1.19,1.89-.24,0-.35-.18-.41-.55-.12-.61-.2-1-.43-1.86a13.06,13.06,0,0,0-1.17-3Zm2.12,21.76h0c0,.18-.06.24-.23.29a5.35,5.35,0,0,1-1.13.12c-.38,0-.49-.09-.49-.35.08-2,.08-2.64.08-4.64,0-7.37,0-9-.14-10.79a17.7,17.7,0,0,1,2.14,1.16h5c.52-.58.7-.75,1.19-1.28.58.47.76.61,1.34,1.14.23.2.32.31.32.46s-.15.32-.73.64v3c0,3.92.06,8.33.15,9.92h0c0,.24,0,.29-.24.38a5.63,5.63,0,0,1-1.36.17c-.29,0-.41-.08-.41-.31v-1h-5.51Zm5.51-8.36V30.15h-5.51v5.13Zm-5.51.67v5.89h5.51V36Zm2.21-7.4a32.92,32.92,0,0,0,2.11-4.09,15.66,15.66,0,0,0,1.19-3.16c2.73.87,3.05,1,3.05,1.31s-.32.37-1,.37H220a23.91,23.91,0,0,1-4.67,5.78Z"/><path class="cls-2" d="M226.12,24.84a21.93,21.93,0,0,1,3.95,1.71,1.49,1.49,0,0,1,.75,1.36c0,.9-.41,1.86-.78,1.86-.21,0-.41-.23-.73-.75a13.52,13.52,0,0,0-3.45-3.89Zm.06,10.35a13.82,13.82,0,0,0,1.91.41c.35,0,.5-.17,1.11-1.3s1.39-2.62,3.1-6.15c1.45-3,1.45-3,2.23-4.44l.41.2L230.3,36a4.3,4.3,0,0,0-.41,1.45,4.91,4.91,0,0,0,.23,1.19,8.9,8.9,0,0,1,.47,2.61,2.25,2.25,0,0,1-1.07,1.88,2,2,0,0,1-1.05.47c-.35,0-.61-.38-.61-.87a5.67,5.67,0,0,1,.18-1,22.32,22.32,0,0,0,.26-3.16,3,3,0,0,0-.47-1.94c-.29-.35-.61-.53-1.71-1Zm1.51-16.67c3.57,1.21,4.73,2,4.73,3.16,0,.87-.38,1.77-.76,1.77-.23,0-.32-.09-1-1.11a16.29,16.29,0,0,0-3.22-3.56ZM238.1,29.71a23.27,23.27,0,0,1-1.48,7A17.06,17.06,0,0,1,233.34,42,14.39,14.39,0,0,1,231,44l-.23-.35a14.42,14.42,0,0,0,2.76-3.77,21.61,21.61,0,0,0,2.41-7.8c.2-2.12.34-5.34.34-8.53,0-1.36,0-1.48-.14-4.64.81.39,1.61.81,2.38,1.28h9a15.1,15.1,0,0,1,1.25-1.28c.75.55,1,.7,1.68,1.28.23.17.32.29.32.38s-.2.37-1.07.89v9c0,.52,0,.55-1.56.63-.29,0-.41-.08-.47-.34V29.71h-4.61A13.91,13.91,0,0,0,245,35a12.89,12.89,0,0,0,4.58,4.61,13.57,13.57,0,0,0,3.28,1.4v.43c-1.13.23-1.45.55-2,2a13.33,13.33,0,0,1-4.76-4.06,20.33,20.33,0,0,1-3.54-8.32c-.06-.32-.12-.55-.23-1.34Zm9.57-.66V20.87h-9.39c-.09,7.13-.09,7.13-.15,8.18Z"/><path class="cls-2" d="M258,35.08c.05.44.08.89.09,1.33a8.85,8.85,0,0,1-.58,3.6c-.38.84-.84,1.33-1.28,1.33s-.58-.58-.58-1.45c0-.61.09-.78.64-1.24a4.77,4.77,0,0,0,1.31-3.57Zm7.52-11.34c.52-.64.66-.84,1.19-1.42a20.19,20.19,0,0,1,1.9,1.68,1,1,0,0,1,.12.23c0,.12-.09.14-.32.14h-4.33v3.48h1.22c.58-.63.76-.81,1.37-1.45.84.76,1.07,1,1.82,1.74a.72.72,0,0,1,.12.21c0,.11-.12.17-.35.17h-4.18v3.86h1.86c.61-.61.61-.61,1.13-1.1.61.55.81.72,1.39,1.27.21.27.27.35.27.44s-.12.26-.93.67c-.18,4-.67,7.07-1.34,8.32a3.33,3.33,0,0,1-1.33,1.22,6.92,6.92,0,0,1-2.06.41c-.2-1.31-.41-1.45-3.22-2.15l.06-.46c1.45.23,3.8.52,4.46.52.44,0,.73-.41,1-1.42a31,31,0,0,0,.76-7.05h-6.5v.61c0,.34-.29.43-1.25.43-.43,0-.58-.09-.58-.32v-.11c.09-2.61.12-3.72.12-7.31,0-5.31,0-6.47-.15-8.07.84.5,1.1.64,2,1.25h5.66c.55-.73.73-1,1.31-1.68a20.15,20.15,0,0,1,2.23,2,.43.43,0,0,1,.14.23c0,.12-.05.15-.34.15h-4.62v3.51Zm-6.15,11.19c1.07,1.8,1.39,2.61,1.39,3.6,0,.55-.64,1.39-1.07,1.39-.24,0-.35-.2-.35-.64v-.17c.06-.93.08-1.39.08-1.62a7.87,7.87,0,0,0-.37-2.41Zm3.1-14.7h-2.84v3.51h2.84Zm-2.84,4.17v3.48h2.84V24.4Zm0,4.15v3.86h2.84V28.55Zm1.56,5.95c1.31,1.27,2.09,2.44,2.09,3.1s-.5,1.4-.88,1.4c-.17,0-.29-.12-.32-.41a11.32,11.32,0,0,0-1.22-3.89Zm2-.41c1.36,1.16,2.09,2.06,2.09,2.67S264.75,38,264.4,38c-.11,0-.2-.12-.26-.38s-.14-.64-.29-1.16a6.07,6.07,0,0,0-1-2.12ZM272,29.22a30.43,30.43,0,0,1-1,7.89,17.84,17.84,0,0,1-2.29,5A9.59,9.59,0,0,1,267,44l-.32-.26a18.28,18.28,0,0,0,2.87-7.42,60.45,60.45,0,0,0,.69-8.91c0-5.63,0-7.89-.08-9.31.93.61,1.22.78,2.14,1.42h6.5c.49-.52.64-.7,1.16-1.25a18,18,0,0,1,1.63,1.34c.23.17.32.32.32.43s-.06.21-1.05.67v7.86a13.84,13.84,0,0,0,.06,1.65v.18c0,.35-.38.46-1.54.46-.38,0-.46-.06-.49-.32V29.22h-3.51a13.76,13.76,0,0,0,1.85,6.44,14.92,14.92,0,0,0,3.69,4.26,8.43,8.43,0,0,0,2.52,1.4v.43c-1.13.23-1.33.41-2.2,1.8A13.93,13.93,0,0,1,277.4,39a20,20,0,0,1-2.4-7.37c-.06-.64-.11-1-.23-2.41Zm6.94-.67V20.23h-6.82V22.4c0,2.06,0,3.8-.12,6.15Z"/><path class="cls-2" d="M286.59,40.3c2.35-.06,2.52-.29,2.52-3V23.68c0-2.7-.17-2.87-2.52-3V20h7.71v.69c-2.38.12-2.55.29-2.55,3V37.34c0,2.67.2,2.9,2.55,3V41h-7.71Z"/><path class="cls-3" d="M108.05,266.19h-5.43a10,10,0,0,0,5.83,6.38,8.55,8.55,0,0,0-1.72,2.2,10.51,10.51,0,0,1-3.45-2.49,14.3,14.3,0,0,1-2.37-3.76,11,11,0,0,1-5.76,6.25,6.58,6.58,0,0,0-1.75-2,9.25,9.25,0,0,0,5.6-6.58H93.7v-2.41h5.7c0-.61.09-2,.11-4.15h2.56c0,1.84-.07,3.23-.16,4.15h6.14Z"/><path class="cls-3" d="M115.24,260h2.69a8.66,8.66,0,0,1-.05,1.06,5.63,5.63,0,0,0,.1,1.23,14.65,14.65,0,0,0,.28,1.59,17.13,17.13,0,0,0,.49,1.87,13.63,13.63,0,0,0,.82,1.93,12,12,0,0,0,1.21,1.93,11,11,0,0,0,1.7,1.71,10.45,10.45,0,0,0,2.23,1.43,6.39,6.39,0,0,0-1.8,2,12.48,12.48,0,0,1-6.15-7.5,14.12,14.12,0,0,1-5.67,7.52,7.16,7.16,0,0,0-2-1.88,10.84,10.84,0,0,0,1.71-1.22,12.3,12.3,0,0,0,1.37-1.33,10.57,10.57,0,0,0,1-1.47,16,16,0,0,0,.76-1.49,10.41,10.41,0,0,0,.54-1.54q.24-.84.36-1.44c.07-.4.14-.86.19-1.38s.09-.93.1-1.21,0-.62,0-1A4.22,4.22,0,0,1,115.24,260Z"/><path class="cls-3" d="M125.37,273.53s.11-.22.29-.65a18.19,18.19,0,0,0,.66-1.82,22.33,22.33,0,0,0,.66-2.8,20.44,20.44,0,0,0,.31-3.58v-3.27h2.42v3.27a27.11,27.11,0,0,1-.23,3.82,18.78,18.78,0,0,1-.57,2.78c-.23.74-.49,1.49-.79,2.25Zm8.11-13.34a1.74,1.74,0,0,1,3,1.24,1.62,1.62,0,0,1-.51,1.21,1.64,1.64,0,0,1-1.22.5h-.19v1.55a21.58,21.58,0,0,0,1,6.38c.25.78.47,1.39.65,1.82a6.12,6.12,0,0,0,.3.65H133.9a11.53,11.53,0,0,1-.91-2.25c-.2-.75-.39-1.67-.57-2.78a25.71,25.71,0,0,1-.25-3.82v-3.27H133A1.66,1.66,0,0,1,133.48,260.19Zm2,1.24a.77.77,0,0,0-.78-.79.75.75,0,0,0-.77.73v.06a.76.76,0,0,0,.74.76h0a.72.72,0,0,0,.55-.22A.74.74,0,0,0,135.48,261.43Z"/><path class="cls-3" d="M137.79,268.66v-2.45H145v2.45Z"/><path class="cls-3" d="M155.12,260.44a1.74,1.74,0,0,1,2.95,1.24,1.62,1.62,0,0,1-.51,1.21,1.64,1.64,0,0,1-1.22.5h-.05V264a10.69,10.69,0,0,1-.72,4,9.68,9.68,0,0,1-1.64,2.72,8,8,0,0,1-2,1.67,11.51,11.51,0,0,1-2,.89,8.48,8.48,0,0,1-1.56.39,4.25,4.25,0,0,1-.61.08v-2.5a11.48,11.48,0,0,0,2.17-.54,6.48,6.48,0,0,0,1.83-1.12,5.68,5.68,0,0,0,1.5-2.06,9,9,0,0,0,.65-3.28h-7.17v-2.5h7.91A1.68,1.68,0,0,1,155.12,260.44Zm2,1.24a.77.77,0,0,0-.78-.79.75.75,0,0,0-.77.73v.06a.76.76,0,0,0,.74.76h0a.72.72,0,0,0,.55-.22A.74.74,0,0,0,157.12,261.68Z"/><path class="cls-3" d="M158.32,273.53c.33-.69.62-1.4.88-2.12a19.58,19.58,0,0,0,.6-2.37,15.85,15.85,0,0,0,.25-3V261.6h2.36V266a20,20,0,0,1-.38,4.16,14.53,14.53,0,0,1-.71,2.5,6,6,0,0,1-.37.82Zm10.83-2.42a7.85,7.85,0,0,1-1.75,1.55,8.52,8.52,0,0,1-1.72.83,8,8,0,0,1-1.37.33,5.51,5.51,0,0,1-.57.06V261.44h2.38v9.05a6.45,6.45,0,0,0,2-1.34c.31-.31.65-.66,1-1.07Z"/><path class="cls-3" d="M179.63,267.25a4.44,4.44,0,0,0-.54-2.08,2,2,0,0,0-1.54-1c0,1-.09,2-.19,3.06a13.13,13.13,0,0,1-.59,2.85,6.19,6.19,0,0,1-1.09,2.06,2,2,0,0,1-1.66.73,2.66,2.66,0,0,1-1.39-.47,3.37,3.37,0,0,1-1.13-1.48,7,7,0,0,1-.48-2.8,7.63,7.63,0,0,1,.71-3.15,6,6,0,0,1,1.79-2.28,4.86,4.86,0,0,1,2.55-1,5.8,5.8,0,0,1,2.82.44A4.62,4.62,0,0,1,181,264a7,7,0,0,1,.92,3.39,8.05,8.05,0,0,1-.46,3,5.05,5.05,0,0,1-1.28,2,4.85,4.85,0,0,1-1.71,1,5.67,5.67,0,0,1-1.69.31v-2.35a2.56,2.56,0,0,0,2.09-1.08A5,5,0,0,0,179.63,267.25Zm-5.56,3.14c.24,0,.44-.19.6-.61a7.33,7.33,0,0,0,.39-1.6c.1-.65.17-1.33.22-2s.07-1.35.06-1.93a2.21,2.21,0,0,0-1.15.89,5.4,5.4,0,0,0-.71,1.47,6.72,6.72,0,0,0-.27,1.54,4,4,0,0,0,.2,1.71A.83.83,0,0,0,174.07,270.39Z"/><path class="cls-3" d="M183.93,267.69v-2.33h10.12a10,10,0,0,1-.57,3.55,6.46,6.46,0,0,1-1.64,2.45,8.87,8.87,0,0,1-2.16,1.47,10.09,10.09,0,0,1-2.08.74c-.65.15-1.19.26-1.59.31l-.64.08v-2.52a2.94,2.94,0,0,0,.51-.05,11,11,0,0,0,1.27-.26,9,9,0,0,0,1.59-.61,5,5,0,0,0,1.46-1.09,4,4,0,0,0,.92-1.74Zm.44-3.8v-2.32h9v2.32Z"/><path class="cls-3" d="M196.05,269.82V263.1h3.83V261H202v2.07h4v2.47a10.39,10.39,0,0,1-.62,3.54,6.94,6.94,0,0,1-1.5,2.41A9.44,9.44,0,0,1,202,273a8.67,8.67,0,0,1-1.87.83,11.92,11.92,0,0,1-1.43.35,3.68,3.68,0,0,1-.58.07v-2.39a4.11,4.11,0,0,0,.6-.08,7.1,7.1,0,0,0,1.42-.45,6.79,6.79,0,0,0,1.68-1,4.28,4.28,0,0,0,1.3-1.84,8.22,8.22,0,0,0,.47-2.91v-.08h-5.11v4.38Z"/><path class="cls-3" d="M207.88,264.18v-2.44h4.88v2.44Zm10.39.18a14.29,14.29,0,0,1-2.09,4.66,11.58,11.58,0,0,1-2.73,2.77,10.35,10.35,0,0,1-2.68,1.39,9.85,9.85,0,0,1-2.07.47c-.27,0-.55.05-.82.06v-2.55h.64a8.83,8.83,0,0,0,1.61-.32,6.72,6.72,0,0,0,2.05-1.08,9.48,9.48,0,0,0,2-2,11.8,11.8,0,0,0,1.62-3.35Z"/><path class="cls-3" d="M220,264v-2.45h4.57V264Zm10.39.36a14.22,14.22,0,0,1-2.1,4.66,11.36,11.36,0,0,1-2.72,2.77,11.18,11.18,0,0,1-2.68,1.39,10.52,10.52,0,0,1-2.07.47c-.27,0-.55.05-.82.06v-2.55h.64a8.72,8.72,0,0,0,1.6-.32,6.72,6.72,0,0,0,2-1.08,9.48,9.48,0,0,0,2-2,11.8,11.8,0,0,0,1.62-3.35ZM220,267.8v-2.45h4.57v2.45Zm7.76-4.05V261.5h1.08v2.25Zm1.69,0V261.5h1.08v2.25Z"/><path class="cls-3" d="M233.12,260.16h11.93q-.13,4.88,0,8.51c.06,2.42.25,3.63.55,3.63.14,0,.21-.71.23-2.14A11.84,11.84,0,0,0,247.1,272a5.69,5.69,0,0,1-.55,2.15,1.32,1.32,0,0,1-1.2.67,1.53,1.53,0,0,1-1-.37,2.57,2.57,0,0,1-.7-1.13,11.41,11.41,0,0,1-.47-1.64,16.61,16.61,0,0,1-.27-2.22c-.06-.89-.1-1.74-.12-2.56s0-1.78,0-2.9a25.92,25.92,0,0,1-2.77.5v.9h2.47v4.82h-.27a13.6,13.6,0,0,1,1.18,3.44l-1.89.59a8.45,8.45,0,0,0-.21-1c-1.8.17-3.81.34-6,.53l-.14-2.06,1.52-.09,1.37-.08v-1.35h-2.31v-4.82H238v-.71l-2.11.1a6.57,6.57,0,0,0-.53-1.68V266q0,6.24-2,8.9a5.7,5.7,0,0,0-.89-.66,8.91,8.91,0,0,0-1-.57,7.58,7.58,0,0,0,1.38-3.34,26.16,26.16,0,0,0,.34-4.33Zm8.22,2.2,1.39,1.57V262.3h-7.42v.81a29.88,29.88,0,0,0,6-.75Zm-4,6.17H238v-1.35h-.58Zm3.19-1.35H240v1.35h.61Zm-.61,4.29h.69a1.11,1.11,0,0,0-.1-.26l-.13-.3c0-.09-.07-.17-.1-.24l1.23-.38H240Z"/></g><path class="cls-4" d="M51.64,322.74l-1,3.27H47.35l4.92-15h3.8L61,326H57.68l-1-3.27Zm2.52-8.8-1.79,6.16H56Z"/><path class="cls-4" d="M66.39,311H69.1v15h-3V314.28l-2.57,1.85-.37-2.84Z"/><path class="cls-4" d="M74,317.1a11,11,0,0,0,4.34-5.51h9.65c-.82,10.92-6.92,14.06-11.56,15.54L75,324.44a13,13,0,0,0,6.72-3.8,23.88,23.88,0,0,0-4.08-2.88,13.42,13.42,0,0,1-1.85,1.61Zm6.19-2.78c-.49.82-.68,1.1-1,1.51a20.26,20.26,0,0,1,4.1,2.6,11.83,11.83,0,0,0,1.31-4.11Z"/><path class="cls-4" d="M99.55,326.89H96.61v-7.52a30.41,30.41,0,0,1-5.42,2.71l-1.35-2.69a25.75,25.75,0,0,0,12-8.76l2.47,1.85a32.43,32.43,0,0,1-4.81,4.77Z"/><path class="cls-4" d="M116.27,312.05l2.88,3.54c-.47,2.62-1.12,6.34-5,9.07a14.05,14.05,0,0,1-5.18,2.25l-1.27-2.81c6.7-1.31,8.1-5.41,8.59-9.05h-9.68v-3Zm5.8-.09a2.32,2.32,0,1,1-2.32-2.47A2.38,2.38,0,0,1,122.07,312Zm-3.45,0a1.18,1.18,0,0,0,1.13,1.2,1.2,1.2,0,1,0-1.13-1.2Z"/><path class="cls-4" d="M132,313.29v3.31h-3.27v-3.31Zm0,7.91v3.31h-3.27V321.2Z"/><path class="cls-4" d="M152.61,322.47V326H139a101.77,101.77,0,0,0,7.67-9.33c1-1.51,1.55-2.5,1.55-3.61a2.27,2.27,0,0,0-2.33-2.47c-2.36,0-3.7,2.13-4.26,3L140.07,310a7.16,7.16,0,0,1,5.87-2.93c3,0,6,1.82,6,5.86,0,3-1.54,5.06-5.31,9.54Z"/><path class="cls-4" d="M158.78,321.94v3.86c0,2.38-1.5,3-4.05,3.05V327c1.55,0,1.78-.46,1.81-1.13h-1.81v-3.91Z"/><path class="cls-4" d="M174,322.47V326H160.39a100.11,100.11,0,0,0,7.67-9.33c1-1.51,1.55-2.5,1.55-3.61a2.27,2.27,0,0,0-2.33-2.47c-2.36,0-3.7,2.13-4.25,3L161.48,310a7.18,7.18,0,0,1,5.87-2.93c3,0,6,1.82,6,5.86,0,3-1.55,5.06-5.32,9.54Z"/><path class="cls-4" d="M176.36,312.1c0-2.86,2.28-5,5.61-5s5.61,2.17,5.61,5a4.64,4.64,0,0,1-1.64,3.58,5.45,5.45,0,0,1,2.52,4.74c0,3.58-2.93,6-6.49,6s-6.49-2.36-6.49-6a5.45,5.45,0,0,1,2.52-4.74A4.6,4.6,0,0,1,176.36,312.1Zm8.36,8.18a2.76,2.76,0,0,0-5.5,0,2.76,2.76,0,0,0,5.5,0Zm-.67-8.06a2.08,2.08,0,0,0-4.16,0,2.08,2.08,0,0,0,4.16,0Z"/><path class="cls-4" d="M201.47,309.93a16.91,16.91,0,0,1,0,13.61,5.8,5.8,0,0,1-10,0c-.81-1.34-1.44-3.38-1.44-6.82a13.21,13.21,0,0,1,1.44-6.79,5.78,5.78,0,0,1,10,0Zm-7.7,6.79c0,3.56.7,6.12,2.71,6.12s2.7-2.63,2.7-6.12c0-3.21-.58-6.12-2.7-6.12S193.77,313.28,193.77,316.72Z"/><path class="cls-4" d="M211.46,315.51h7.33a64.31,64.31,0,0,1-.73,9.66c-.47,2.3-1.72,2.58-2.92,2.58h-3l-.51-2.92h2.47c.9,0,1.16-.26,1.37-1.25a35.47,35.47,0,0,0,.41-5.35h-4.64a13.28,13.28,0,0,1-5.65,9.57l-1.74-2.61c2.24-1.39,4.83-3.69,4.83-10.07v-1.83h-4.48v-2.73H220.1v2.73h-8.64Z"/><path class="cls-4" d="M224.32,327.75h-2.69V310.54h14.68v15.17c0,2-1.4,2-1.94,2h-3.09l-.47-2.9H233c.64,0,.64-.17.64-.75v-3.2h-9.28Zm3.29-14.46h-3.29v5h3.29Zm6,5v-5h-3.33v5Z"/><path class="cls-4" d="M241.75,317.79v2.07h8.3v.9h-8.3v2.07l-3.84-2.52Z"/><path class="cls-4" d="M259.69,324.39V326h-8.35c5.5-5.91,6.15-7.29,6.15-8.52a1.86,1.86,0,0,0-1.94-2,3.43,3.43,0,0,0-2.82,2l-.7-1.77a4.32,4.32,0,0,1,3.54-1.82,3.44,3.44,0,0,1,3.66,3.56c0,1.9-1,3.3-4.25,7Z"/><path class="cls-4" d="M263.47,323.82v2.05c0,1.38-.76,1.7-2.14,1.76v-.93c.91,0,1-.33,1-.75h-1v-2.13Z"/><path class="cls-4" d="M265.66,323.74a5.12,5.12,0,0,0,3,.89c2.53,0,2.8-1.7,2.8-2.33a2.2,2.2,0,0,0-2.38-2.25,2.39,2.39,0,0,0-1.64.57h-1.47v-6.51h6.33v1.62h-4.72v3.06a3.89,3.89,0,0,1,1.62-.31,3.75,3.75,0,0,1,4,3.82c0,2-1.33,3.95-4.48,3.95a6.86,6.86,0,0,1-3.48-.89Z"/><path class="cls-4" d="M275.19,317a3.45,3.45,0,0,1,6.87,0,2.88,2.88,0,0,1-1.26,2.45,3.44,3.44,0,0,1,1.87,3.1,4.06,4.06,0,0,1-8.1,0,3.44,3.44,0,0,1,1.88-3.1A2.87,2.87,0,0,1,275.19,317Zm5.74,5.52a2.32,2.32,0,0,0-4.62,0,2.32,2.32,0,0,0,4.62,0Zm-.55-5.43a1.76,1.76,0,0,0-3.51,0,1.76,1.76,0,0,0,3.51,0Z"/><path class="cls-4" d="M292.06,320.05c0,1.13,0,6.2-4,6.2s-4-5.07-4-6.18,0-6.2,4-6.2S292.06,318.9,292.06,320.05Zm-6.3,0c0,2.2.39,4.56,2.28,4.56s2.28-2.52,2.28-4.58-.36-4.56-2.28-4.56S285.76,318,285.76,320.07Z"/><path class="cls-4" d="M298.59,317.41c0,.11,0,.3,0,.48h6.06a46.5,46.5,0,0,1-.61,7.62,2.14,2.14,0,0,1-2,1.82h-2.49l-.27-1.65h2.38c.62,0,.86-.29,1-1.31a36.85,36.85,0,0,0,.36-4.95h-4.53a10.61,10.61,0,0,1-4.49,7.91l-1.09-1.47c2.08-1.38,4.14-3.27,4.14-8.52v-2h-3.86v-1.59h12.66v1.59h-7.24Z"/><path class="cls-4" d="M308.64,327.34h-1.53v-13.6h11.71v12.19a1.24,1.24,0,0,1-1.35,1.41h-2.38l-.29-1.54h2c.45,0,.47-.17.47-.54v-3.68h-8.64Zm3.54-12.13h-3.54v4.92h3.54Zm5.1,4.92v-4.92h-3.6v4.92Z"/><path class="cls-4" d="M18,348.07a8.37,8.37,0,0,0,1.4-2.92l1.73.66a9,9,0,0,1-1.54,3.56Zm5.58-10.49v-1.74h6.81c-.16,3.51-.25,4.58-1.67,4.58H27.18l-.33-1.76H28c.37,0,.43-.19.5-1.08H27.09a5,5,0,0,1-2.76,3.28h5.74v4.35H29a15.29,15.29,0,0,1,1.76,3.11l-1.86,1.05a14.45,14.45,0,0,0-1.71-3.43l1.62-.73h-5v-4.35H24l-.83-1.48v5.55H18.64v-9.05h4.49v3.41a3.1,3.1,0,0,0,2-1.71Zm-2.17,1.87v-1.73H20.36v1.73Zm-1.08,1.79V343h1.08v-1.79Zm1.39,7.82a14.17,14.17,0,0,0,.09-1.68c0-.66,0-1.22-.06-1.63h1.74a24,24,0,0,1,.23,3.31Zm3.44,0a16.67,16.67,0,0,0-.69-3.31l1.73-.16a18.32,18.32,0,0,1,1,3.36Zm3.06-6.63H25.66v1.2h2.59Z"/><path class="cls-4" d="M37.44,335.78h6.11v12.08a1.25,1.25,0,0,1-1.29,1.45h-2l-.4-2.2h1.32c.41,0,.47-.1.47-.55v-1.8H39.14a6.88,6.88,0,0,1-3.1,4.67l-1.43-1.77a2.25,2.25,0,0,1,.21-.12H31.64V336h5v9.93a7.26,7.26,0,0,0,.8-3.8Zm-2.59,5V338H33.49v2.74Zm-1.36,1.87v2.93h1.36V342.6Zm8.14-3.32v-1.51H39.32v1.51Zm-2.31,1.93v1.57h2.31v-1.57Z"/><path class="cls-4" d="M49.78,342.34a2.2,2.2,0,1,1-2.2-2.2A2.2,2.2,0,0,1,49.78,342.34Z"/><path class="cls-4" d="M57.86,336c0,.73,0,.81-.12,2.43h4.6v2.58a31,31,0,0,1-.43,5.54c-.41,1.61-1.24,2-2.74,2a10.85,10.85,0,0,1-2-.17l-.12-2.33a9.56,9.56,0,0,0,1.72.18c.88,0,1-.31,1.13-.88a31.17,31.17,0,0,0,.23-3.69v-1H57.5a11,11,0,0,1-4.61,8l-1.49-1.89a8.37,8.37,0,0,0,3.91-6.13H52v-2.21h3.55c0-.88.07-1.4.07-2.44Z"/><path class="cls-4" d="M75.89,341.12v2.43H64.64v-2.43Z"/><path class="cls-4" d="M78.18,346.69c3.72-.57,4.25-2.18,4.32-4.41H77.79v-2.15h11v2.15h-4c-.1,4.75-3,6-5.7,6.52Zm9.58-10.2v2.16h-9v-2.16Z"/><path class="cls-4" d="M94.79,340.86a15.61,15.61,0,0,0-4.16-2.21l.93-2a17.3,17.3,0,0,1,4.34,2.08Zm-3.92,5.07c3.29-.34,7.43-1.22,9.13-8.59l1.89,1.32c-1.52,5.6-4,8.86-10.5,9.8Z"/><path class="cls-4" d="M107.9,342.34a2.2,2.2,0,1,1-2.2-2.2A2.2,2.2,0,0,1,107.9,342.34Z"/><path class="cls-4" d="M116.71,345.42h4.41v2.28H110.07v-2.28h4.35v-6.11h-3.73V337h9.81v2.29h-3.79Z"/><path class="cls-4" d="M129.05,341.8a8.12,8.12,0,0,1-4.72,7l-1.41-1.92c3.83-1.64,4-4.54,4-7.12h2.23c0,.73,0,1.09-.09,1.7a5.25,5.25,0,0,0,2.52-2.74h-8.67v-2.27h11.31c-.43,4-2,5.57-3.91,6.87Z"/><path class="cls-4" d="M146.21,337.05v10.72h-9.88v-2.31h7.58v-6.11h-7.42v-2.3Z"/><path class="cls-4" d="M152.83,340.86a15.46,15.46,0,0,0-4.16-2.21l.94-2a17.48,17.48,0,0,1,4.34,2.08Zm-3.91,5.07c3.28-.34,7.43-1.22,9.13-8.59l1.89,1.32c-1.53,5.6-4,8.86-10.51,9.8Z"/><path class="cls-4" d="M163.88,349.28h-2v-6.44c-.27.36-.41.54-.71.88l-.67-3a11.71,11.71,0,0,0,2.2-5.44l2,.18a19.15,19.15,0,0,1-.82,3.24ZM173.2,338v2.1H172v7.45c0,1.09-.44,1.73-1.59,1.73h-2.83l-.35-2.25h2.28c.4,0,.41-.08.41-.5V340.1h-5.45V338h5.45v-2.62H172V338Zm-6.42,7.61a22.16,22.16,0,0,0-2.19-3.68l1.58-1.17a20.6,20.6,0,0,1,2.34,3.6Z"/><path class="cls-4" d="M181.25,335.92c0,.54,0,.82.07,1.54a16.92,16.92,0,0,0,3-.44l.22,2a19.58,19.58,0,0,1-2.95.41,9.93,9.93,0,0,0,.28,1.19,16.42,16.42,0,0,0,3.38-.51l.28,2a21.23,21.23,0,0,1-3,.42,9.06,9.06,0,0,0,1.1,1.64l-2,1.25a9.14,9.14,0,0,1-1.49-2.79h-5.7v-1.92h5.13c-.09-.36-.14-.55-.25-1.17H175v-2h4.13c-.06-.54-.09-.86-.12-1.56Zm3,12.62c-.92.08-2.15.1-3.11.1-2.21,0-3.75-.15-4.74-.95a2.53,2.53,0,0,1-1-1.92,3.33,3.33,0,0,1,1-2.26l1.77.84a2,2,0,0,0-.48,1c0,.94,1.3,1.06,3.12,1.06a27.19,27.19,0,0,0,3.35-.2Z"/><path class="cls-4" d="M191.36,349.28a10.75,10.75,0,0,1,0-13.88h1.86a11,11,0,0,0,0,13.88Z"/><path class="cls-4" d="M194.63,345.06a5.46,5.46,0,0,0,2.9.84c.29,0,2.26,0,2.26-1.8a1.63,1.63,0,0,0-1.75-1.7,1.76,1.76,0,0,0-1.39.58h-1.92v-6.85h6.62v2.24h-4.42v2a4.17,4.17,0,0,1,1.3-.21,3.71,3.71,0,0,1,3.93,3.88c0,2-1.22,4.09-4.56,4.09a7.63,7.63,0,0,1-3.53-.85Z"/><path class="cls-4" d="M210.47,337.71a8.57,8.57,0,0,1,.91,4.31,8.68,8.68,0,0,1-.91,4.32,3.68,3.68,0,0,1-6.33,0,8.21,8.21,0,0,1-.91-4.32,8.35,8.35,0,0,1,.91-4.31,3.66,3.66,0,0,1,6.33,0ZM205.59,342c0,2.25.44,3.88,1.71,3.88S209,344.23,209,342c0-2-.37-3.89-1.72-3.89S205.59,339.83,205.59,342Z"/><path class="cls-4" d="M218,339.69h5.74a50.74,50.74,0,0,1-.57,7.56c-.37,1.8-1.35,2-2.29,2H218.5l-.4-2.29H220c.7,0,.9-.2,1.07-1a29.79,29.79,0,0,0,.32-4.19H217.8a10.44,10.44,0,0,1-4.43,7.5L212,347.26c1.76-1.08,3.78-2.88,3.78-7.88v-1.44h-3.5v-2.13h12.43v2.13H218Z"/><path class="cls-4" d="M228,349.27h-2.11V335.79h11.5v11.88c0,1.6-1.1,1.6-1.52,1.6h-2.42l-.37-2.27h1.69c.49,0,.49-.13.49-.59v-2.5H228Zm2.58-11.33H228v3.89h2.58Zm4.68,3.89v-3.89h-2.6v3.89Z"/><path class="cls-4" d="M238.56,347.25c3.66-1.41,3.91-3.8,4-4.85h-2v-.91c-.36.37-.57.54-.9.85l-1.35-2a9,9,0,0,0,3.66-5l2,.47a12.92,12.92,0,0,1-2.38,4.49H248a16.57,16.57,0,0,1-2.39-4.45l2-.53a12,12,0,0,0,3.67,5.12l-1.41,1.9c-.26-.22-.44-.37-.84-.76-.17,7.37-.79,7.75-2.47,7.75h-2.18l-.43-2.21h1.79c.38,0,.75-.08.88-.87a28.18,28.18,0,0,0,.29-3.82h-2.31a8,8,0,0,1-4.91,6.93Z"/><path class="cls-4" d="M253.61,335.4a10.75,10.75,0,0,1,0,13.88h-1.86a11,11,0,0,0,0-13.88Z"/><path class="cls-4" d="M262.83,337h1.81v4.1h3.71v1.8h-3.71V347h-1.81v-4.09h-3.72v-1.8h3.72Z"/><path class="cls-4" d="M281.55,341.94a12.22,12.22,0,0,1-2.3,2.05,11.92,11.92,0,0,0,2.54,3.18l-1.56,1.66a14.67,14.67,0,0,1-3.77-8.28h-.22a9.39,9.39,0,0,1-.75.69,7,7,0,0,1,1.76,5c0,2.52-1.2,2.94-1.86,2.94h-2.17l-.32-1.7a17.34,17.34,0,0,1-3.1,1.25l-.7-1.9a16,16,0,0,0,6.15-2.51,3.93,3.93,0,0,0-.17-.59,15.4,15.4,0,0,1-4.92,2.19l-.71-1.75a13,13,0,0,0,5-1.62c-.13-.18-.22-.3-.35-.46a13.51,13.51,0,0,1-4,1.34l-.63-1.79a11.19,11.19,0,0,0,4.23-1.13h-2.55v-.73h-1.46v-3.43h4.86v-1h2v1h4.86v3.43h-1.49v.73h-1.74a9.87,9.87,0,0,0,.38,1.66,9.89,9.89,0,0,0,1.77-1.75Zm-2.14-3.06v-.66h-7.77v.66Zm-4.78,8.56c.57,0,.84,0,.82-1.56a14,14,0,0,1-2.39,1.56Z"/><path class="cls-4" d="M294.17,349.41a11.57,11.57,0,0,1-4.35-1.87l1.17-1.25h-4.58l1.17,1.25a11.43,11.43,0,0,1-4.35,1.87l-1-2a9.41,9.41,0,0,0,3.81-1.12h-3.59v-1.83h12.41v1.83h-3.5a7.89,7.89,0,0,0,3.72,1.06Zm-10.41-5.52v-8.08h9.88v8.08Zm7.79-6.41h-5.74v.67h5.74Zm0,2.72v-.69h-5.74v.69Zm-5.74,1.41v.71h5.74v-.71Z"/><path class="cls-4" d="M298.79,349.28h-2v-6.44c-.26.36-.41.54-.7.88l-.67-3a11.61,11.61,0,0,0,2.19-5.44l2,.18a19.15,19.15,0,0,1-.82,3.24ZM308.11,338v2.1h-1.25v7.45c0,1.09-.44,1.73-1.59,1.73h-2.83l-.35-2.25h2.28c.4,0,.41-.08.41-.5V340.1h-5.45V338h5.45v-2.62h2.08V338Zm-6.42,7.61a21.56,21.56,0,0,0-2.2-3.68l1.59-1.17a21.19,21.19,0,0,1,2.34,3.6Z"/><path class="cls-4" d="M316.15,335.92c0,.54,0,.82.08,1.54a17.05,17.05,0,0,0,3-.44l.21,2a19.47,19.47,0,0,1-2.94.41,8.29,8.29,0,0,0,.28,1.19,16.52,16.52,0,0,0,3.38-.51l.28,2a21.45,21.45,0,0,1-3,.42,9.06,9.06,0,0,0,1.1,1.64l-2,1.25a9.14,9.14,0,0,1-1.49-2.79h-5.7v-1.92h5.12c-.08-.36-.13-.55-.25-1.17h-4.4v-2H314c-.06-.54-.09-.86-.12-1.56Zm3,12.62c-.93.08-2.16.1-3.11.1-2.21,0-3.75-.15-4.74-.95a2.54,2.54,0,0,1-1-1.92,3.36,3.36,0,0,1,1-2.26l1.77.84a2,2,0,0,0-.49,1c0,.94,1.31,1.06,3.12,1.06a27.25,27.25,0,0,0,3.36-.2Z"/></svg>