<svg id="レイヤー_1" data-name="レイヤー 1" xmlns="http://www.w3.org/2000/svg" viewBox="0 0 340 396"><defs><style>.cls-1{fill:none;}.cls-2{fill:#fff;}.cls-3{fill:#40220f;}.cls-4{fill:#f5e973;}</style></defs><title>tb06</title><rect class="cls-1" width="340" height="396"/><g id="_06" data-name=" 06"><path class="cls-2" d="M23.33,38.58a12.94,12.94,0,0,0,2.61-4.25,12.28,12.28,0,0,0,.87-3.68.89.89,0,0,0-.47-.88,14.65,14.65,0,0,0-4,1.14,1.12,1.12,0,0,1-.56.18,1.64,1.64,0,0,1-1.13-.69A1.68,1.68,0,0,1,20,29.32a.8.8,0,0,1,.07-.34,1.69,1.69,0,0,0,1.47.83,18.78,18.78,0,0,0,3.08-.47c1.1-.18,3.39-.47,5.55-.67a8.52,8.52,0,0,0,1.4-.3,1,1,0,0,1,.45-.09,2.2,2.2,0,0,1,1,.27c.5.23.84.57.84.83s-.19.36-.5.36a1.74,1.74,0,0,1-.45-.06,17.63,17.63,0,0,0-2.9-.23,21.48,21.48,0,0,0-3,.18c.83.45,1.19.83,1.19,1.24A11.27,11.27,0,0,1,27,34.4a10.61,10.61,0,0,1-3.56,4.37ZM23,24.68a2.94,2.94,0,0,0,2.16,1,9.86,9.86,0,0,0,3.78-.88,1,1,0,0,1,.54-.15c.47,0,1.23.58,1.23.94s-.22.32-.94.48a24.88,24.88,0,0,1-4.12.47,3.07,3.07,0,0,1-2.92-1.65ZM31.33,24a8.93,8.93,0,0,1,2.12,1.26,1.29,1.29,0,0,1,.55,1c0,.55-.2,1-.45,1s-.25-.13-.4-.43a8,8,0,0,0-2-2.67Zm1.58-1a7.2,7.2,0,0,1,2.16,1c.5.36.65.61.65,1.06s-.16.87-.4.87-.25-.09-.39-.36a6.85,6.85,0,0,0-2.16-2.38Z"/><path class="cls-2" d="M40.92,30.08a15,15,0,0,0,2.57-.34,2.59,2.59,0,0,0,.76-.24,1,1,0,0,1,.23-.12.5.5,0,0,1,.27-.08,1.84,1.84,0,0,1,.9.62c.29.3.36.43.36.61a.35.35,0,0,1-.12.29,3.2,3.2,0,0,0-.42,1.24c-.27,1-.65,2.61-.77,3.17l.74-.06a5.27,5.27,0,0,0,1.89-.25.8.8,0,0,1,.3-.09,2.11,2.11,0,0,1,.76.31c.43.25.7.57.7.83a.4.4,0,0,1-.41.36,3.78,3.78,0,0,1-1-.2A10.22,10.22,0,0,0,45.54,36a18.44,18.44,0,0,0-4.68.55A7,7,0,0,0,39.3,37a.86.86,0,0,1-.47.14,1.45,1.45,0,0,1-1-.59,2.57,2.57,0,0,1-.59-1.19,1.08,1.08,0,0,1,.07-.31,1.65,1.65,0,0,0,1.37.85,5.38,5.38,0,0,0,1.22-.13c1.16-.18,2.06-.3,2.74-.37s.74-.09,1.1-.15a48.33,48.33,0,0,0,.7-4.93v-.07a17.65,17.65,0,0,0-2.16.46,7.09,7.09,0,0,0-1,.38,1.07,1.07,0,0,1-.43.09c-.33,0-.63-.25-.9-.72a2.1,2.1,0,0,1-.34-1,.58.58,0,0,1,.1-.36A1.42,1.42,0,0,0,40.92,30.08Z"/><path class="cls-2" d="M53.3,30a2.42,2.42,0,0,0,1.75.43l2.21-.06,7-.1a7.1,7.1,0,0,1,2.34.16.38.38,0,0,1,.26.36.53.53,0,0,1-.42.48c-.48.17-.92.18-4.32.22-1.67,0-5.8.13-6.43.16-.84.06-1,.07-1.29.24-.08,0-.2.05-.27.05-.27,0-.56-.2-.87-.59a3.25,3.25,0,0,1-.68-1.66c0-.25,0-.29.14-.41A1.63,1.63,0,0,0,53.3,30Z"/><path class="cls-2" d="M71.46,38.23a24.6,24.6,0,0,0,6-6.89,17.76,17.76,0,0,0,2.15-4.81c0-.18-.09-.23-.36-.23a27.22,27.22,0,0,0-3.34.61,18.91,18.91,0,0,0-3.29,1,2,2,0,0,1-.67.18c-.37,0-.84-.36-1.29-1A2.08,2.08,0,0,1,70.15,26a.58.58,0,0,1,.12-.36,1.75,1.75,0,0,0,1.68,1A42.29,42.29,0,0,0,77.08,26a6,6,0,0,0,2.09-.5c.22-.13.22-.13.36-.13a2.76,2.76,0,0,1,1.31.83c.38.36.56.65.56.89s-.05.25-.25.46a3.26,3.26,0,0,0-.63,1,26,26,0,0,1-5.19,7.28,17.73,17.73,0,0,1-3.7,2.68ZM84.75,24.64a1.8,1.8,0,1,1-1.8-1.8A1.81,1.81,0,0,1,84.75,24.64Zm-3.06,0a1.26,1.26,0,1,0,2.52,0h0a1.26,1.26,0,0,0-2.52,0Z"/><path class="cls-2" d="M100,29.52a16,16,0,0,1-2.68,3.06,22.52,22.52,0,0,1-5.44,3.67,4.1,4.1,0,0,0-1.35.87.57.57,0,0,1-.41.23c-.36,0-1.19-1.06-1.19-1.55,0-.09,0-.09.09-.32a10.64,10.64,0,0,0,.14-2.76c0-4-.09-5.72-.32-6.39-.16-.45-.45-.66-1.24-.93a.78.78,0,0,1,.55-.18,3.3,3.3,0,0,1,1.44.43c.71.38,1.07.74,1.07,1.1a.85.85,0,0,1-.09.38,10.58,10.58,0,0,0-.24,1.78c-.09,1.1-.2,4.37-.2,5.71v.9a22.85,22.85,0,0,0,6.14-3.19,24.42,24.42,0,0,0,3.5-3Z"/><path class="cls-2" d="M103.31,28.75a9.32,9.32,0,0,1,3.15,1.06,1.28,1.28,0,0,1,.68,1.19c0,.46-.23.86-.5.86s-.29-.07-.56-.41A8.84,8.84,0,0,0,103.2,29Zm13.9-.45a21.28,21.28,0,0,1-2.69,3.07,40.27,40.27,0,0,1-6.82,5.24,13.58,13.58,0,0,0-1.39,1,.58.58,0,0,1-.41.18c-.36,0-.78-.34-1.28-1.08a3,3,0,0,1-.56-1.38.67.67,0,0,1,.16-.42c.35.69.85,1.12,1.35,1.12A11.77,11.77,0,0,0,109,34.26a41.75,41.75,0,0,0,8-6.13Zm-11.92-2.74c2.88.68,3.79,1.24,3.79,2.29,0,.5-.21.9-.48.9s-.2,0-1-1a8.37,8.37,0,0,0-2.47-2Zm7.38-1.44c1.92.84,2.79,1.56,2.79,2.32a1.5,1.5,0,0,1-.25.87.31.31,0,0,1-.22.09c-.2,0-.25-.06-.5-.54a8.91,8.91,0,0,0-2-2.56ZM114.34,23c2,.66,2.92,1.33,2.92,2.14,0,.52-.18.92-.43.92s-.27-.11-.47-.45a8,8,0,0,0-2.14-2.42Z"/><path class="cls-2" d="M123.41,38.58A12.89,12.89,0,0,0,126,34.33a12.28,12.28,0,0,0,.87-3.68.89.89,0,0,0-.47-.88,14.65,14.65,0,0,0-4,1.14,1.12,1.12,0,0,1-.56.18,1.64,1.64,0,0,1-1.13-.69,1.76,1.76,0,0,1-.61-1.08,1.28,1.28,0,0,1,.07-.34,1.69,1.69,0,0,0,1.48.83,18.83,18.83,0,0,0,3.07-.47c1.1-.18,3.39-.47,5.55-.67a8.52,8.52,0,0,0,1.4-.3,1,1,0,0,1,.45-.09,2.2,2.2,0,0,1,1,.27c.5.23.85.57.85.83s-.2.36-.51.36a1.74,1.74,0,0,1-.45-.06,17.63,17.63,0,0,0-2.9-.23,21.48,21.48,0,0,0-3,.18c.83.45,1.19.83,1.19,1.24a11,11,0,0,1-1.15,3.53,10.55,10.55,0,0,1-3.57,4.37Zm-.34-13.9a2.94,2.94,0,0,0,2.16,1A9.86,9.86,0,0,0,129,24.8a1,1,0,0,1,.54-.15c.47,0,1.23.58,1.23.94s-.22.32-.94.48a24.88,24.88,0,0,1-4.12.47,3.07,3.07,0,0,1-2.92-1.65Zm8.34-.71a8.93,8.93,0,0,1,2.12,1.26,1.26,1.26,0,0,1,.56,1.08c0,.55-.2,1-.45,1s-.25-.13-.4-.43a8,8,0,0,0-2-2.67ZM133,23a7.2,7.2,0,0,1,2.16,1c.51.36.65.61.65,1.06s-.16.87-.4.87-.25-.09-.39-.36a6.76,6.76,0,0,0-2.16-2.38Z"/><path class="cls-2" d="M138.76,25.79a10.21,10.21,0,0,1,3.48,1.35,1.4,1.4,0,0,1,.61,1.23c0,.59-.2,1-.5,1s-.29-.09-.78-.72A9.4,9.4,0,0,0,138.64,26Zm12.81,1a18.89,18.89,0,0,1-3.78,4.84,35.64,35.64,0,0,1-5.06,4.11c-.85.59-.94.66-1.07.83-.28.34-.39.43-.63.43-.73,0-2.1-1.73-2.1-2.65A.71.71,0,0,1,139,34a2.48,2.48,0,0,0,.65.79,1.11,1.11,0,0,0,.72.38,4.43,4.43,0,0,0,1.74-.75,26.16,26.16,0,0,0,4.31-3,28.55,28.55,0,0,0,4.84-4.8Z"/><path class="cls-2" d="M154.34,37.17a26.57,26.57,0,0,0,4.84-3.94,32.48,32.48,0,0,0,3.44-4.48,12,12,0,0,0,1.22-2.33,19.77,19.77,0,0,0-3.8.8,9.82,9.82,0,0,0-1.51.48.81.81,0,0,1-.31.06c-.39,0-.77-.33-1.17-1a2.29,2.29,0,0,1-.37-1.08.77.77,0,0,1,.12-.36c.52.93.9,1.21,1.69,1.21a30.26,30.26,0,0,0,3.79-.51,5,5,0,0,0,1.69-.5.71.71,0,0,1,.41-.17c.38,0,1.41.92,1.41,1.26a.44.44,0,0,1-.24.35c-.38.25-.38.25-1,1.22-.87,1.3-.87,1.3-2.27,3.13a17.77,17.77,0,0,1,4.66,3,2.37,2.37,0,0,1,.69,1.78c0,.58-.18.94-.49.94-.13,0-.27-.09-.41-.29a4.08,4.08,0,0,1-.44-.72A15.33,15.33,0,0,0,162,31.63a19.74,19.74,0,0,1-4.36,4.05,16.48,16.48,0,0,1-3.15,1.76Z"/><path class="cls-2" d="M180.07,23.77c-.09,3.74-.11,4.11-.29,6.49h2a20.51,20.51,0,0,1,1.57-1.79c1,.84,1.36,1.13,2.32,2a.32.32,0,0,1,.12.2.29.29,0,0,1-.26.23h-5.75a17.65,17.65,0,0,1-.58,3.31,4.71,4.71,0,0,1,.58.32,18.57,18.57,0,0,1,4.88,3.3,2,2,0,0,1,.52,1.37c0,1-.41,1.94-.84,1.94-.21,0-.32-.12-.5-.43A18.65,18.65,0,0,0,181.2,37a13.53,13.53,0,0,0-2.2-2.21,14.89,14.89,0,0,1-2,4.2,13.62,13.62,0,0,1-5.31,4.41l-.26-.37a14,14,0,0,0,4.67-5.43,18.62,18.62,0,0,0,1.71-6.67h-4.15a11.2,11.2,0,0,0-1.83.15l-.29-1a12,12,0,0,0,2.47.2h3.86c.17-2.32.2-2.87.23-6.49h-2.41a18.64,18.64,0,0,1-3.65,4.9l-.35-.32a24.26,24.26,0,0,0,3.39-6.93,19.43,19.43,0,0,0,.93-3.6c2.58.52,3.16.7,3.16,1s-.29.4-1.3.52a37.2,37.2,0,0,1-1.8,3.77h5.54c.61-.81.81-1.07,1.48-1.86,1,.84,1.33,1.13,2.32,2.06a.82.82,0,0,1,.14.26.22.22,0,0,1-.23.21h0Zm14-1.14a11.38,11.38,0,0,1,1-1.39,14.93,14.93,0,0,1,1.68,1.39c.17.15.26.27.26.35s-.15.29-.9.79v10c0,.06.06,4.56.09,7.54-.06.47-.38.61-1.42.61-.47,0-.58-.08-.61-.4V40.07h-5.81V42c0,.38-.26.47-1.27.47-.55,0-.7-.06-.76-.41.09-3,.12-5.13.12-9.78,0-7.54,0-9.92-.12-11a20.66,20.66,0,0,1,2.3,1.39ZM188.42,39.4h5.81V23.3h-5.81Z"/><path class="cls-2" d="M218.38,20.75c.52-.61.67-.78,1.22-1.36.93.69,1.22.9,2.15,1.56.14.15.2.23.2.32,0,.26-.46.47-1.6.7-3.07,4.29-5.42,6.64-8.93,8.84a28.16,28.16,0,0,1-9,3.8l-.12-.4A35.4,35.4,0,0,0,211.59,29a27,27,0,0,0,6.79-7.54h-6.32a26.61,26.61,0,0,1-2.7,2.61A14.28,14.28,0,0,1,212,25.42a1.44,1.44,0,0,1,.67,1.16c0,.61-.47,1.42-.84,1.42-.21,0-.29-.12-.47-.43s-.69-1.25-1-1.74a4.6,4.6,0,0,0-1.4-1.51,24.24,24.24,0,0,1-6.2,3.71l-.21-.32a31.39,31.39,0,0,0,6.7-5.68,14.85,14.85,0,0,0,3.08-4.88,29.54,29.54,0,0,1,2.87,1c.15.06.2.14.2.23a.5.5,0,0,1-.08.2,1.21,1.21,0,0,1-.44.15,3,3,0,0,0-.78.23c-.64.81-.84,1-1.48,1.77ZM217.19,31a26.4,26.4,0,0,1-2.64,2.32c1.37.78,2.18,1.27,2.44,1.45.81.61,1,.93,1,1.59S217.47,38,217.1,38c-.15,0-.24-.12-.38-.41s-.81-1.56-1.19-2.2a7.8,7.8,0,0,0-1.36-1.77,31.55,31.55,0,0,1-8,4.26l-.17-.35c5.74-3.16,10.09-7,12-10.73,2.15.55,2.76.78,2.76,1.05s-.35.46-1.3.66c-.73.84-1,1.11-1.63,1.83H224A12,12,0,0,1,225.43,29c1,.66,1.25.87,2.15,1.53.11.09.17.15.17.24s0,.2-1.54.72a22,22,0,0,1-4.64,5.66,25.44,25.44,0,0,1-10.79,5.68,54,54,0,0,1-6.55,1.25l-.15-.44a43,43,0,0,0,11.52-4.17,24.64,24.64,0,0,0,6.55-5.57A19.52,19.52,0,0,0,224,31Z"/><path class="cls-2" d="M252.92,27.62a22.06,22.06,0,0,1,1.74-2,20.71,20.71,0,0,1,2.7,2.15.51.51,0,0,1,.14.26c0,.14-.14.23-.34.23H246.28v5.66H254a27.94,27.94,0,0,1,1.86-2.12c1.19,1,1.57,1.28,2.7,2.35a.39.39,0,0,1,.11.17c0,.15-.17.26-.34.26h-12l.09,9.11c0,.23-.09.32-.29.35a8.54,8.54,0,0,1-1.43.12c-.46,0-.55-.06-.58-.38.12-4.93.12-4.93.12-9.2h-8.67a14.37,14.37,0,0,0-2.93.15l-.26-1.13a15.63,15.63,0,0,0,3.27.32h8.59V28.29h-6.76a26.13,26.13,0,0,0-3.31.18L234,27.33a25,25,0,0,0,3.86.29h6.35V22.78c0-1.83,0-2-.12-4.9,2.76.32,3.46.46,3.46.84s-.27.43-1.28.75v8.15Zm-17-8.55a23.12,23.12,0,0,1,3.83,3.36,2.56,2.56,0,0,1,.87,1.8c0,1-.61,2.2-1.16,2.2-.26,0-.43-.2-.64-.87a27.52,27.52,0,0,0-1.19-3,24.33,24.33,0,0,0-2-3.22Zm12.21,7.74a41.55,41.55,0,0,0,4.21-8c1.13.4,2.47.92,2.84,1.1.21.09.29.17.29.32s-.37.43-1.48.52a36.16,36.16,0,0,1-5.59,6.32Z"/><path class="cls-2" d="M266.17,42.94c0,.26-.06.35-.29.43a5.93,5.93,0,0,1-1.19.12c-.4,0-.52-.09-.52-.46.06-2.47.09-8.3.09-15.35,0-3.28-.06-7.22-.15-8.41a14.77,14.77,0,0,1,2.44,1.25h17.34c.56-.64.73-.84,1.31-1.42.84.6,1.1.81,1.91,1.42a.49.49,0,0,1,.24.4c0,.24-.15.35-1.11.84v6c0,5.89.08,11,.23,15.08-.09.41-.47.55-1.51.55-.49,0-.67-.08-.7-.43v-2.2H266.17Zm8.07-13.2V21.18h-8.07v8.56Zm0,.7h-8.07V40.1h8.07Zm10-9.26h-8.12v8.56h8.12Zm-8.12,9.26V40.1h8.12V30.44Z"/><path class="cls-2" d="M293.63,35.08c.05.44.08.89.09,1.33a8.85,8.85,0,0,1-.58,3.6c-.38.84-.84,1.33-1.28,1.33s-.58-.58-.58-1.45c0-.61.09-.78.64-1.24a4.77,4.77,0,0,0,1.31-3.57Zm7.52-11.34c.52-.64.66-.84,1.19-1.42A20.67,20.67,0,0,1,304.28,24a1,1,0,0,1,.12.23c0,.12-.09.14-.32.14h-4.33v3.48H301c.58-.63.76-.81,1.37-1.45.84.76,1.07,1,1.82,1.74a.72.72,0,0,1,.12.21c0,.11-.12.17-.35.17h-4.18v3.86h1.86c.61-.61.61-.61,1.13-1.1.61.55.81.72,1.39,1.27.21.27.27.35.27.44s-.12.26-.93.67c-.18,4-.67,7.07-1.34,8.32a3.33,3.33,0,0,1-1.33,1.22,6.92,6.92,0,0,1-2.06.41c-.2-1.31-.41-1.45-3.22-2.15l.06-.46c1.45.23,3.8.52,4.46.52.44,0,.73-.41,1-1.42a31,31,0,0,0,.76-7.05h-6.5v.61c0,.34-.29.43-1.25.43-.43,0-.58-.09-.58-.32v-.11c.09-2.61.12-3.72.12-7.31,0-5.31,0-6.47-.15-8.07.84.5,1.1.64,2,1.25H301c.55-.73.73-1,1.31-1.68a20.15,20.15,0,0,1,2.23,2,.43.43,0,0,1,.14.23c0,.12,0,.15-.34.15h-4.62v3.51ZM295,34.93c1.07,1.8,1.39,2.61,1.39,3.6,0,.55-.64,1.39-1.07,1.39-.24,0-.35-.2-.35-.64v-.17c.06-.93.08-1.39.08-1.62a7.87,7.87,0,0,0-.37-2.41Zm3.1-14.7h-2.84v3.51h2.84Zm-2.84,4.17v3.48h2.84V24.4Zm0,4.15v3.86h2.84V28.55Zm1.56,5.95c1.31,1.27,2.09,2.44,2.09,3.1s-.46,1.37-.84,1.37c-.17,0-.29-.12-.32-.41a11.32,11.32,0,0,0-1.22-3.89Zm2-.41c1.36,1.16,2.09,2.06,2.09,2.67s-.47,1.22-.82,1.22c-.11,0-.2-.12-.26-.38s-.14-.64-.29-1.16a6.07,6.07,0,0,0-1-2.12Zm8.81-4.87a30.43,30.43,0,0,1-1,7.89,17.84,17.84,0,0,1-2.29,5A9.59,9.59,0,0,1,302.63,44l-.32-.26a18.28,18.28,0,0,0,2.87-7.42,60.45,60.45,0,0,0,.69-8.91c0-5.63,0-7.89-.08-9.31.93.61,1.22.78,2.14,1.42h6.5c.49-.52.64-.7,1.16-1.25a18,18,0,0,1,1.63,1.34c.23.17.32.32.32.43s-.06.21-1.05.67v7.86a13.84,13.84,0,0,0,.06,1.65v.18c0,.35-.38.46-1.54.46-.38,0-.46-.06-.49-.32V29.22H311a13.76,13.76,0,0,0,1.85,6.44,14.92,14.92,0,0,0,3.69,4.26,8.43,8.43,0,0,0,2.52,1.4v.43c-1.13.23-1.33.41-2.2,1.8A13.87,13.87,0,0,1,313.07,39a20,20,0,0,1-2.44-7.39c-.06-.64-.11-1-.23-2.41Zm6.94-.67V20.23h-6.82V22.4c0,2.06,0,3.8-.12,6.15Z"/><path class="cls-3" d="M100.21,256v-2.46h9.61V265h-9.61v-2.45h7.06V256Z"/><path class="cls-3" d="M112,255.8v-2.43h4.88v2.43Zm10.39.19a14.2,14.2,0,0,1-2.09,4.66,11.58,11.58,0,0,1-2.73,2.77,10.49,10.49,0,0,1-4.75,1.86,7.52,7.52,0,0,1-.82.05v-2.54h.64a7.29,7.29,0,0,0,1.61-.32,6.66,6.66,0,0,0,2-1.07,10,10,0,0,0,2-2,11.94,11.94,0,0,0,1.62-3.35Z"/><path class="cls-3" d="M129,252.6a8.28,8.28,0,0,1-.16.84c-.06.27-.12.54-.18.79h5.14v2.39a10.77,10.77,0,0,1-.89,3.58,8.76,8.76,0,0,1-1.73,2.56,10.69,10.69,0,0,1-2.06,1.61,14.93,14.93,0,0,1-2,1,10.86,10.86,0,0,1-1.49.5,4.21,4.21,0,0,1-.6.11v-2.53a3.3,3.3,0,0,0,.62-.15,9.88,9.88,0,0,0,1.48-.58A8.12,8.12,0,0,0,129,261.4a7.29,7.29,0,0,0,1.53-2,8,8,0,0,0,.79-2.86h-3.61a14.43,14.43,0,0,1-1.76,2.28,11.65,11.65,0,0,1-1.43,1.29,3.85,3.85,0,0,1-.6.39v-3l.35-.29a5.29,5.29,0,0,0,.77-.93,10.75,10.75,0,0,0,.85-1.52,8.48,8.48,0,0,0,.65-2.15Z"/><path class="cls-3" d="M136.15,260.12v-7.33h2.42v7.33Zm2.25,3.2a7.65,7.65,0,0,0,1.4-.46,3.73,3.73,0,0,0,1.12-.81,4.66,4.66,0,0,0,.92-1.4,5.24,5.24,0,0,0,.42-2.14v-5.72h2.42v5.72a8.21,8.21,0,0,1-.63,3.32,6,6,0,0,1-1.6,2.21,7.57,7.57,0,0,1-1.9,1.21,13.4,13.4,0,0,1-1.51.51l-.64.14Z"/><path class="cls-3" d="M147,260.29v-2.46h7.22v2.46Z"/><path class="cls-3" d="M156.38,265.76v-13.1h2.47v4.22h6.56v2.45h-6.56v6.43Z"/><path class="cls-3" d="M172.07,253.91v1.82h-5.41v-1.82Zm9.36-2.12V264a4.07,4.07,0,0,1-.16,1.3,1.35,1.35,0,0,1-.59.74,2.35,2.35,0,0,1-1,.35,11.34,11.34,0,0,1-1.54.07,6.81,6.81,0,0,0-.63-2.25H179c.19,0,.28-.1.28-.3V253.74h-4.61v4.19q0,6-1.41,8.59a6.07,6.07,0,0,0-1.64-1.15v.25H169v.61h-1.78v-5.55h4.36v4.26a18.79,18.79,0,0,0,.94-7V251.8Zm-9.77,4.42v1.72h-4.32v-1.72Zm-4.32,3.94v-1.74h4.32v1.74Zm4.28-8.42v1.73h-4.19v-1.73Zm-1.83,12.09v-1.36h-.74v1.36Zm5.22-6.64h1v-.81h-1v-1.66h1v-.88h1.77v.88h1.05v1.66h-1.05v.81h1.09v1.67H175Zm3.87,6.58h-2.23v.53H175v-4.83h3.84Zm-1.64-2.69h-.59v1.08h.59Z"/><path class="cls-3" d="M183.1,259.62v-2.39h10.19v2.39H190a6.17,6.17,0,0,1-.8,2.78,5.34,5.34,0,0,1-1.66,1.75,8.44,8.44,0,0,1-1.91.93,9.85,9.85,0,0,1-1.51.39,2.87,2.87,0,0,0-.62.07V263a3.81,3.81,0,0,0,.59-.07,6.52,6.52,0,0,0,1.37-.4,3.31,3.31,0,0,0,1.34-1,3.56,3.56,0,0,0,.67-1.91Zm.44-4v-2.39h9.33v2.39Z"/><path class="cls-3" d="M194.93,260.29v-2.46h7.22v2.46Z"/><path class="cls-3" d="M203.85,255.8v-2.5h9.05v-.92H214v2.25h-.55v1a10.5,10.5,0,0,1-.72,4,9.37,9.37,0,0,1-1.64,2.73,8,8,0,0,1-2,1.66,10.28,10.28,0,0,1-2,.9,8.48,8.48,0,0,1-1.56.39,4.22,4.22,0,0,1-.61.07v-2.5a10.14,10.14,0,0,0,2.17-.54,6.41,6.41,0,0,0,1.84-1.11,5.86,5.86,0,0,0,1.49-2.06,9.05,9.05,0,0,0,.65-3.29Zm10.74-1.17v-2.25h1.07v2.25Z"/><path class="cls-3" d="M215.93,265.16a20.51,20.51,0,0,0,.87-2.12,17.92,17.92,0,0,0,.61-2.37,15.85,15.85,0,0,0,.25-3v-4.44H220v4.44a20,20,0,0,1-.38,4.15,14.39,14.39,0,0,1-.71,2.51,4.07,4.07,0,0,1-.38.82Zm10.83-2.42a7.85,7.85,0,0,1-1.75,1.55,8.52,8.52,0,0,1-1.72.83,8.28,8.28,0,0,1-1.37.33,5.51,5.51,0,0,1-.57.06V253.07h2.38v9.05a6.45,6.45,0,0,0,2-1.34c.31-.31.65-.66,1-1.07Z"/><path class="cls-3" d="M237.24,258.88a4.33,4.33,0,0,0-.54-2.08,2,2,0,0,0-1.54-1c0,1-.09,2-.19,3.06a13,13,0,0,1-.59,2.84,6.23,6.23,0,0,1-1.09,2.07,2,2,0,0,1-1.66.73,2.71,2.71,0,0,1-1.4-.48,3.34,3.34,0,0,1-1.12-1.47,7,7,0,0,1-.48-2.8,7.63,7.63,0,0,1,.71-3.15,6,6,0,0,1,1.79-2.28,4.94,4.94,0,0,1,2.55-1,6.05,6.05,0,0,1,2.82.45,4.71,4.71,0,0,1,2.12,1.88,7,7,0,0,1,.92,3.39,7.86,7.86,0,0,1-.46,3,5.05,5.05,0,0,1-1.28,2,5.44,5.44,0,0,1-3.4,1.32V263a2.56,2.56,0,0,0,2.09-1.08A5.08,5.08,0,0,0,237.24,258.88ZM231.68,262c.24,0,.44-.19.6-.61a7.33,7.33,0,0,0,.39-1.6c.1-.65.17-1.33.22-2s.07-1.35.06-1.94a2.28,2.28,0,0,0-1.15.9,4.76,4.76,0,0,0-.71,1.47,6.72,6.72,0,0,0-.27,1.54,4,4,0,0,0,.2,1.71C231.19,261.82,231.41,262,231.68,262Z"/><path class="cls-3" d="M102.44,274.81v-3.4h2.42v14.76h-2.42v-3.12l-3.21,1.34-1-2.41c1-.27,2.43-.71,4.24-1.34v-3.52H98.81v-2.31Zm7.09,9h1.27q.4,0,.54-.6a22.43,22.43,0,0,0,.21-2.58,5,5,0,0,0,1.07.62,6,6,0,0,0,1.16.42,8.46,8.46,0,0,1-.73,3.44,2.1,2.1,0,0,1-2,1h-1.9a2.49,2.49,0,0,1-2.07-.71,4.52,4.52,0,0,1-.56-2.65V271.42H109v4.52a30.73,30.73,0,0,0,2.91-2.19l1.66,2.12c-1.33.82-2.86,1.67-4.57,2.55v4.35a2,2,0,0,0,.1.85c0,.12.17.18.43.18Z"/><path class="cls-3" d="M126.45,276.12v1.55a9.46,9.46,0,0,0,.26,2.12,8.78,8.78,0,0,0,1,2.41,6.78,6.78,0,0,0,2,2.13,23.33,23.33,0,0,0-1.42,2,6.36,6.36,0,0,1-2-2.31,9.66,9.66,0,0,1-1-2.75,8.33,8.33,0,0,1-1.12,2.72,7.1,7.1,0,0,1-2.22,2.34,8.63,8.63,0,0,0-1.09-1.7h-3.69v1H115V272h7v2.14h-4.78v2l.65-.78c.52.46.92.82,1.19,1.08.19-.71.35-1.44.47-2.17l2.11.36a23.37,23.37,0,0,1-.91,3.5,14.36,14.36,0,0,1,1.47,1.92l-1.42,1.75a9.76,9.76,0,0,0-1-1.47,10.65,10.65,0,0,1-1.43,2.14,11.55,11.55,0,0,0-1.15-1.06v1.17H122v.75a7.3,7.3,0,0,0,1.63-2.76,9.24,9.24,0,0,0,.51-2.85v-1.39a13.37,13.37,0,0,1-1.31,2.91,10.19,10.19,0,0,0-1.84-1.57c.92-1.32,1.55-3.48,1.87-6.48l2.34.36c-.08.67-.23,1.51-.45,2.53h2.8l.34-.12,1.6.56a20,20,0,0,1-1.21,4.81l-1.65-1c.17-.74.31-1.46.4-2.16Zm-9.26,1.32v2.92a8.42,8.42,0,0,0,1.06-1.81C117.9,278.16,117.54,277.79,117.19,277.44Z"/><path class="cls-3" d="M131.3,275.67v-2.51h9a15.11,15.11,0,0,1-1,3.36,19.65,19.65,0,0,1-1.49,2.79c.47.62.94,1.18,1.4,1.69a11.14,11.14,0,0,0,1.2,1.18l.53.43v3c-.57-.4-1.08-.8-1.53-1.18a19.76,19.76,0,0,1-3-3.21,16.67,16.67,0,0,1-1.94,2,15.65,15.65,0,0,1-1.84,1.4,14,14,0,0,1-1.36.77l-.53.25v-2.8a10.53,10.53,0,0,0,2.44-1.69,15.33,15.33,0,0,0,2-2.26,14.29,14.29,0,0,0,1.75-3.24Z"/><path class="cls-3" d="M147.58,272.5c-.05.3-.11.58-.16.82a2.88,2.88,0,0,1-.09.4h5.34v2.39a11.14,11.14,0,0,1-.9,3.72,8.52,8.52,0,0,1-1.77,2.63,12.87,12.87,0,0,1-2.16,1.74,12.76,12.76,0,0,1-3.55,1.5,4.1,4.1,0,0,1-.61.11v-2.53l.55-.13a10.83,10.83,0,0,0,1.35-.48,9.44,9.44,0,0,0,1.71-1,7.11,7.11,0,0,0,1.64-1.6H146v-2.33h3.83a8.88,8.88,0,0,0,.3-1.76h-3.68a11.2,11.2,0,0,1-1.87,2.66,16.59,16.59,0,0,1-1.49,1.29,3.62,3.62,0,0,1-.61.41v-3l.36-.29a5.6,5.6,0,0,0,.78-.9,9.13,9.13,0,0,0,.86-1.52,9.77,9.77,0,0,0,.65-2.18Z"/><path class="cls-3" d="M164.91,272.86a13.61,13.61,0,0,1-1.61,2.56c-.63.8-1.2,1.5-1.72,2.1v8.21h-2.47v-6.31A14.52,14.52,0,0,1,156.8,281a14.09,14.09,0,0,1-1.77.8l-.67.23v-2.52s.28-.1.8-.32a14.55,14.55,0,0,0,4.51-3.09,14.87,14.87,0,0,0,2.42-3.21Z"/><path class="cls-3" d="M166.81,280v-7.33h2.42V280Zm2.25,3.2a7.75,7.75,0,0,0,1.41-.46,3.73,3.73,0,0,0,1.12-.81,5.22,5.22,0,0,0,.92-1.4,5.43,5.43,0,0,0,.41-2.14v-5.72h2.42v5.72a8.2,8.2,0,0,1-.62,3.32,6.07,6.07,0,0,1-1.61,2.21,7.57,7.57,0,0,1-1.9,1.21,13.4,13.4,0,0,1-1.51.51l-.64.14Z"/><path class="cls-3" d="M179.27,275l.93,5.36h-1.64l-.9-5.36Zm-.61,10.53v-2.19a5.67,5.67,0,0,0,2.71-1.19A5.94,5.94,0,0,0,183,280a13.92,13.92,0,0,0,.82-2.35,17.7,17.7,0,0,0,.37-1.9,7,7,0,0,0,.08-.79h2.09a23.4,23.4,0,0,1-.32,2.5,16.13,16.13,0,0,1-.7,2.37,10,10,0,0,1-1.36,2.46,8.64,8.64,0,0,1-2.17,2,7.75,7.75,0,0,1-3.15,1.16ZM181.88,275l1,5.36h-1.67l-.9-5.36Z"/><path class="cls-3" d="M188.11,275.53v-2.45h4.58v2.45Zm10.39.36a14.29,14.29,0,0,1-2.09,4.66,12,12,0,0,1-2.73,2.77A10.31,10.31,0,0,1,191,284.7a10.54,10.54,0,0,1-2.07.48,7.52,7.52,0,0,1-.82.05v-2.54h.64a7.32,7.32,0,0,0,1.6-.32,6.43,6.43,0,0,0,2.06-1.07,10,10,0,0,0,2-2A11.94,11.94,0,0,0,196,276Zm-10.39,3.44v-2.46h4.58v2.46Z"/><path class="cls-3" d="M200.31,277.42v-2.08h7.41l-.5,7.58h1.64v2.14h-9v-2.14H205l.35-5.5Z"/><path class="cls-3" d="M210.41,275.87v-2.45H220v11.44h-9.61v-2.45h7.06v-6.54Z"/><path class="cls-3" d="M222.14,280.19v-2.46h7.22v2.46Z"/><path class="cls-3" d="M231,279.52v-2.4h10.19v2.4h-3.25a6.17,6.17,0,0,1-.8,2.78,5.34,5.34,0,0,1-1.66,1.75,8.44,8.44,0,0,1-1.91.93,9.85,9.85,0,0,1-1.51.39c-.4.05-.61.08-.62.07v-2.52a3.81,3.81,0,0,0,.59-.07,6.52,6.52,0,0,0,1.37-.4,3.34,3.34,0,0,0,1.35-1,3.54,3.54,0,0,0,.66-1.91Zm.44-4v-2.39H238v2.39Zm7.24,0v-2.44h1v2.44Zm1.56,0v-2.44h1v2.44Z"/></g><path class="cls-4" d="M37.74,333.7l-1,3.28H33.46l4.92-15h3.79l4.92,15H43.78l-1-3.28Zm2.53-8.79-1.8,6.16h3.61Z"/><path class="cls-4" d="M52.5,321.94h2.71v15H52.16V325.25L49.6,327.1l-.38-2.84Z"/><path class="cls-4" d="M60.05,328.07a11,11,0,0,0,4.34-5.52H74c-.82,10.93-6.92,14.07-11.56,15.55l-1.4-2.69a12.92,12.92,0,0,0,6.71-3.8,24.35,24.35,0,0,0-4.07-2.88,13,13,0,0,1-1.86,1.61Zm6.19-2.78c-.49.82-.67,1.1-.95,1.51a20.5,20.5,0,0,1,4.09,2.6,11.83,11.83,0,0,0,1.31-4.11Z"/><path class="cls-4" d="M85.65,337.86H82.72v-7.52a30.39,30.39,0,0,1-5.43,2.71l-1.35-2.69a25.69,25.69,0,0,0,12-8.76l2.47,1.85a31.94,31.94,0,0,1-4.81,4.77Z"/><path class="cls-4" d="M102.6,323l2.88,3.54c-.47,2.62-1.13,6.34-5,9.07a14.22,14.22,0,0,1-5.18,2.25L94,335.07c6.7-1.31,8.1-5.41,8.58-9.05H92.94v-3Zm5.8-.09a2.32,2.32,0,1,1-2.33-2.47A2.39,2.39,0,0,1,108.4,322.93Zm-3.45,0a1.18,1.18,0,0,0,1.12,1.2,1.2,1.2,0,1,0-1.12-1.2Z"/><path class="cls-4" d="M120.21,324.26v3.31h-3.27v-3.31Zm0,7.91v3.31h-3.27v-3.31Z"/><path class="cls-4" d="M140.81,333.44V337H127.18a103.5,103.5,0,0,0,7.67-9.33c1-1.51,1.55-2.5,1.55-3.61a2.27,2.27,0,0,0-2.34-2.47c-2.35,0-3.69,2.13-4.25,3L128.27,321a7.17,7.17,0,0,1,5.86-2.94c3,0,6,1.83,6,5.87,0,3-1.55,5.06-5.31,9.54Z"/><path class="cls-4" d="M147,332.91v3.86c0,2.38-1.51,3-4,3.05V338c1.55,0,1.78-.46,1.8-1.13h-1.8v-3.91Z"/><path class="cls-4" d="M162.11,333.44V337H148.48a107.12,107.12,0,0,0,7.67-9.33c1-1.51,1.54-2.5,1.54-3.61a2.27,2.27,0,0,0-2.33-2.47c-2.38,0-3.69,2.13-4.25,3L149.56,321a7.19,7.19,0,0,1,5.87-2.94c3,0,6,1.83,6,5.87,0,3-1.53,5.06-5.29,9.54Z"/><path class="cls-4" d="M165.23,333.26a6.91,6.91,0,0,0,2.65.55c3.28,0,4.16-2.61,4.53-3.92a6.66,6.66,0,0,1-3.21.9,5.76,5.76,0,0,1-5.78-6.13A6.36,6.36,0,0,1,169.8,318c3.33,0,6.68,2.5,6.68,8.48,0,6.93-3.38,10.84-8.46,10.84a7.83,7.83,0,0,1-2.79-.46Zm4.62-5.78a3,3,0,1,0-2.71-2.84A2.69,2.69,0,0,0,169.85,327.48Z"/><path class="cls-4" d="M189.46,320.9a13.38,13.38,0,0,1,1.43,6.79,13.61,13.61,0,0,1-1.43,6.82,5.8,5.8,0,0,1-10,0c-.81-1.34-1.44-3.38-1.44-6.82a13.21,13.21,0,0,1,1.44-6.79,5.77,5.77,0,0,1,10,0Zm-7.7,6.79c0,3.56.7,6.12,2.71,6.12s2.7-2.63,2.7-6.12c0-3.21-.58-6.12-2.7-6.12S181.76,324.25,181.76,327.69Z"/><path class="cls-4" d="M199.45,326.48h7.33a64.31,64.31,0,0,1-.73,9.66c-.47,2.3-1.72,2.58-2.92,2.58h-3l-.51-2.92h2.47c.9,0,1.16-.26,1.37-1.25a35.57,35.57,0,0,0,.41-5.35h-4.64a13.28,13.28,0,0,1-5.65,9.57l-1.74-2.61c2.25-1.39,4.83-3.69,4.83-10.07v-1.83h-4.47v-2.73h15.88v2.73h-8.64Z"/><path class="cls-4" d="M212.31,338.72h-2.69V321.51H224.3v15.17c0,2-1.4,2-1.94,2h-3.09l-.47-2.9H221c.64,0,.64-.17.64-.75v-3.2h-9.28Zm3.29-14.46h-3.29v4.95h3.29Zm6,4.95v-4.95h-3.33v4.95Z"/><path class="cls-4" d="M229.74,328.76v2.07H238v.9h-8.3v2.07l-3.84-2.52Z"/><path class="cls-4" d="M247.68,335.36V337h-8.35c5.5-5.91,6.15-7.29,6.15-8.52a1.86,1.86,0,0,0-1.94-2,3.43,3.43,0,0,0-2.82,2l-.7-1.77a4.32,4.32,0,0,1,3.54-1.82,3.44,3.44,0,0,1,3.66,3.56c0,1.9-1,3.3-4.25,7Z"/><path class="cls-4" d="M251.46,334.79v2c0,1.38-.76,1.7-2.14,1.76v-.93c.91,0,1-.33,1-.75h-1v-2.13Z"/><path class="cls-4" d="M258.06,337v-2.55H252.9v-1.5l5.13-7.85h1.76v7.79h1.45v1.56h-1.45V337Zm0-4.11v-5.31l-3.43,5.31Z"/><path class="cls-4" d="M263.45,335.28a3.71,3.71,0,0,0,1.57.32c2.76,0,3.48-2.69,3.66-4a3.88,3.88,0,0,1-2.74,1.15,3.66,3.66,0,0,1-3.69-3.84,3.93,3.93,0,0,1,4-4.08c2.23,0,4.17,1.68,4.17,5.31,0,4.76-2.36,7.07-5.33,7.07a4.09,4.09,0,0,1-1.63-.3Zm2.76-4.06a2.33,2.33,0,0,0,2.37-2.34,2.31,2.31,0,1,0-4.61,0A2.2,2.2,0,0,0,266.21,331.22Z"/><path class="cls-4" d="M279.78,331c0,1.13,0,6.2-4,6.2s-4-5.07-4-6.18,0-6.2,4-6.2S279.78,329.87,279.78,331Zm-6.3,0c0,2.2.39,4.56,2.28,4.56S278,333.08,278,331s-.36-4.56-2.28-4.56S273.48,328.92,273.48,331Z"/><path class="cls-4" d="M286.31,328.38c0,.11,0,.3,0,.48h6.06a46.5,46.5,0,0,1-.61,7.62,2.14,2.14,0,0,1-2,1.82h-2.49l-.27-1.65h2.38c.62,0,.86-.29,1-1.31a36.85,36.85,0,0,0,.36-4.95h-4.53a10.61,10.61,0,0,1-4.49,7.91l-1.09-1.47c2.08-1.38,4.14-3.27,4.14-8.52v-2h-3.86v-1.59h12.66v1.59h-7.24Z"/><path class="cls-4" d="M296.36,338.31h-1.53v-13.6h11.71V336.9a1.24,1.24,0,0,1-1.35,1.41h-2.38l-.29-1.54h2c.45,0,.47-.17.47-.54v-3.68h-8.64Zm3.54-12.13h-3.54v4.92h3.54Zm5.1,4.92v-4.92h-3.6v4.92Z"/></svg>