<svg id="レイヤー_1" data-name="レイヤー 1" xmlns="http://www.w3.org/2000/svg" viewBox="0 0 340 396"><defs><style>.cls-1{fill:none;}.cls-2{fill:#fff;}.cls-3{fill:#40220f;}.cls-4{fill:#f5e973;}</style></defs><title>tb07</title><rect class="cls-1" width="340" height="396"/><g id="_07" data-name=" 07"><path class="cls-2" d="M23.33,38.58a12.94,12.94,0,0,0,2.61-4.25,12.28,12.28,0,0,0,.87-3.68.89.89,0,0,0-.47-.88,14.65,14.65,0,0,0-4,1.14,1.12,1.12,0,0,1-.56.18,1.64,1.64,0,0,1-1.13-.69A1.68,1.68,0,0,1,20,29.32a.8.8,0,0,1,.07-.34,1.69,1.69,0,0,0,1.47.83,18.78,18.78,0,0,0,3.08-.47c1.1-.18,3.39-.47,5.55-.67a8.52,8.52,0,0,0,1.4-.3,1,1,0,0,1,.45-.09,2.2,2.2,0,0,1,1,.27c.5.23.84.57.84.83s-.19.36-.5.36a1.74,1.74,0,0,1-.45-.06,17.63,17.63,0,0,0-2.9-.23,21.48,21.48,0,0,0-3,.18c.83.45,1.19.83,1.19,1.24A11.27,11.27,0,0,1,27,34.4a10.61,10.61,0,0,1-3.56,4.37ZM23,24.68a2.94,2.94,0,0,0,2.16,1,9.86,9.86,0,0,0,3.78-.88,1,1,0,0,1,.54-.15c.47,0,1.23.58,1.23.94s-.22.32-.94.48a24.88,24.88,0,0,1-4.12.47,3.07,3.07,0,0,1-2.92-1.65ZM31.33,24a8.93,8.93,0,0,1,2.12,1.26,1.29,1.29,0,0,1,.55,1c0,.54-.2,1-.45,1s-.25-.13-.4-.43a8,8,0,0,0-2-2.67Zm1.58-1a7.2,7.2,0,0,1,2.16,1c.5.36.65.61.65,1.06s-.16.87-.4.87-.25-.09-.39-.36a6.85,6.85,0,0,0-2.16-2.38Z"/><path class="cls-2" d="M40.92,30.08a15,15,0,0,0,2.57-.34,2.59,2.59,0,0,0,.76-.24,1,1,0,0,1,.23-.12.5.5,0,0,1,.27-.08,1.84,1.84,0,0,1,.9.62c.29.3.36.43.36.61a.35.35,0,0,1-.12.29,3.2,3.2,0,0,0-.42,1.24c-.27,1-.65,2.61-.77,3.17l.74-.06a5.27,5.27,0,0,0,1.89-.25.8.8,0,0,1,.3-.09,2.11,2.11,0,0,1,.76.31c.43.25.7.57.7.83a.4.4,0,0,1-.41.36,3.78,3.78,0,0,1-1-.2A10.22,10.22,0,0,0,45.54,36a18.44,18.44,0,0,0-4.68.55A7,7,0,0,0,39.3,37a.86.86,0,0,1-.47.14,1.45,1.45,0,0,1-1-.59,2.57,2.57,0,0,1-.59-1.19,1.08,1.08,0,0,1,.07-.31,1.65,1.65,0,0,0,1.37.85,5.38,5.38,0,0,0,1.22-.13c1.16-.18,2.06-.3,2.74-.37s.74-.09,1.1-.15a48.33,48.33,0,0,0,.7-4.93v-.07a17.65,17.65,0,0,0-2.16.46,7.09,7.09,0,0,0-1,.38,1.07,1.07,0,0,1-.43.09c-.33,0-.63-.25-.9-.72a2.1,2.1,0,0,1-.34-1,.58.58,0,0,1,.1-.36A1.42,1.42,0,0,0,40.92,30.08Z"/><path class="cls-2" d="M53.3,30a2.42,2.42,0,0,0,1.75.43l2.21-.06,7-.1a7.1,7.1,0,0,1,2.34.16.38.38,0,0,1,.26.36.53.53,0,0,1-.42.48c-.48.17-.92.18-4.32.22-1.67,0-5.8.13-6.43.16-.84.06-1,.07-1.29.24-.08,0-.2.05-.27.05-.27,0-.56-.2-.87-.59a3.25,3.25,0,0,1-.68-1.66c0-.25,0-.29.14-.41A1.63,1.63,0,0,0,53.3,30Z"/><path class="cls-2" d="M71.46,38.23a24.6,24.6,0,0,0,6-6.89,17.76,17.76,0,0,0,2.15-4.81c0-.18-.09-.23-.36-.23a27.22,27.22,0,0,0-3.34.61,18.91,18.91,0,0,0-3.29,1,2,2,0,0,1-.67.18c-.37,0-.84-.36-1.29-1A2.08,2.08,0,0,1,70.15,26a.58.58,0,0,1,.12-.36,1.75,1.75,0,0,0,1.68,1A42.29,42.29,0,0,0,77.08,26a6,6,0,0,0,2.09-.5c.22-.13.22-.13.36-.13a2.76,2.76,0,0,1,1.31.83c.38.36.56.65.56.89s-.05.25-.25.46a3.26,3.26,0,0,0-.63,1,26,26,0,0,1-5.19,7.28,17.73,17.73,0,0,1-3.7,2.68ZM84.75,24.64a1.8,1.8,0,1,1-1.8-1.8A1.81,1.81,0,0,1,84.75,24.64Zm-3.06,0a1.26,1.26,0,1,0,2.52,0h0a1.26,1.26,0,0,0-2.52,0Z"/><path class="cls-2" d="M100,29.52a16,16,0,0,1-2.68,3.06,22.52,22.52,0,0,1-5.44,3.67,4.1,4.1,0,0,0-1.35.87.57.57,0,0,1-.41.23c-.36,0-1.19-1.06-1.19-1.55,0-.09,0-.09.09-.32a10.64,10.64,0,0,0,.14-2.76c0-4-.09-5.72-.32-6.39-.16-.45-.45-.66-1.24-.93a.78.78,0,0,1,.55-.18,3.3,3.3,0,0,1,1.44.43c.71.38,1.07.74,1.07,1.1,0,.1,0,.1-.09.38a10.58,10.58,0,0,0-.24,1.78c-.09,1.1-.2,4.37-.2,5.71v.9a22.85,22.85,0,0,0,6.14-3.19,24.42,24.42,0,0,0,3.5-3Z"/><path class="cls-2" d="M103.31,28.75a9.32,9.32,0,0,1,3.15,1.06,1.28,1.28,0,0,1,.68,1.19c0,.46-.23.86-.5.86s-.29-.07-.56-.41A8.84,8.84,0,0,0,103.2,29Zm13.9-.45a21.28,21.28,0,0,1-2.69,3.07,40.27,40.27,0,0,1-6.82,5.24,13.58,13.58,0,0,0-1.39,1,.58.58,0,0,1-.41.18c-.36,0-.78-.34-1.28-1.08a3,3,0,0,1-.56-1.38.67.67,0,0,1,.16-.42c.35.69.85,1.12,1.35,1.12A11.77,11.77,0,0,0,109,34.26a41.75,41.75,0,0,0,8-6.13Zm-11.92-2.74c2.88.68,3.79,1.24,3.79,2.29,0,.5-.21.9-.48.9s-.2,0-1-1a8.37,8.37,0,0,0-2.47-2Zm7.38-1.44c1.92.84,2.79,1.56,2.79,2.32a1.5,1.5,0,0,1-.25.87.31.31,0,0,1-.22.09c-.2,0-.25-.06-.5-.55a9.18,9.18,0,0,0-2-2.55ZM114.34,23c2,.66,2.92,1.33,2.92,2.14,0,.52-.18.92-.43.92s-.27-.11-.47-.45a8,8,0,0,0-2.14-2.42Z"/><path class="cls-2" d="M123.41,38.58A12.89,12.89,0,0,0,126,34.33a12.28,12.28,0,0,0,.87-3.68.89.89,0,0,0-.47-.88,14.65,14.65,0,0,0-4,1.14,1.12,1.12,0,0,1-.56.18,1.64,1.64,0,0,1-1.13-.69,1.76,1.76,0,0,1-.61-1.08,1.28,1.28,0,0,1,.07-.34,1.69,1.69,0,0,0,1.48.83,18.83,18.83,0,0,0,3.07-.47c1.1-.18,3.39-.47,5.55-.67a8.52,8.52,0,0,0,1.4-.3,1,1,0,0,1,.45-.09,2.2,2.2,0,0,1,1,.27c.5.23.85.57.85.83s-.2.36-.51.36a1.74,1.74,0,0,1-.45-.06,17.63,17.63,0,0,0-2.9-.23,21.48,21.48,0,0,0-3,.18c.83.45,1.19.83,1.19,1.24a11,11,0,0,1-1.15,3.53,10.55,10.55,0,0,1-3.57,4.37Zm-.34-13.9a2.94,2.94,0,0,0,2.16,1A9.86,9.86,0,0,0,129,24.8a1,1,0,0,1,.54-.15c.47,0,1.23.58,1.23.94s-.22.32-.94.48a24.88,24.88,0,0,1-4.12.47,3.07,3.07,0,0,1-2.92-1.65Zm8.34-.71a8.93,8.93,0,0,1,2.12,1.26,1.26,1.26,0,0,1,.56,1.08c0,.54-.2,1-.45,1s-.25-.13-.4-.43a8,8,0,0,0-2-2.67ZM133,23a7.2,7.2,0,0,1,2.16,1c.51.36.65.61.65,1.06s-.16.87-.4.87-.25-.09-.39-.36a6.76,6.76,0,0,0-2.16-2.38Z"/><path class="cls-2" d="M138.76,25.79a10.21,10.21,0,0,1,3.48,1.35,1.4,1.4,0,0,1,.61,1.23c0,.59-.2,1-.5,1s-.29-.09-.78-.72A9.4,9.4,0,0,0,138.64,26Zm12.81,1a18.89,18.89,0,0,1-3.78,4.84,35.64,35.64,0,0,1-5.06,4.11c-.85.59-.94.66-1.07.83-.28.34-.39.43-.63.43-.73,0-2.1-1.73-2.1-2.65A.71.71,0,0,1,139,34a2.48,2.48,0,0,0,.65.79,1.11,1.11,0,0,0,.72.38,4.43,4.43,0,0,0,1.74-.75,26.16,26.16,0,0,0,4.31-3,28.55,28.55,0,0,0,4.84-4.8Z"/><path class="cls-2" d="M154.34,37.17a26.57,26.57,0,0,0,4.84-3.94,32.48,32.48,0,0,0,3.44-4.48,12,12,0,0,0,1.22-2.33,19.77,19.77,0,0,0-3.8.8,9.82,9.82,0,0,0-1.51.48.81.81,0,0,1-.31.06c-.39,0-.77-.33-1.17-1a2.29,2.29,0,0,1-.37-1.08.77.77,0,0,1,.12-.36c.52.93.9,1.21,1.69,1.21a30.26,30.26,0,0,0,3.79-.51,5,5,0,0,0,1.69-.5.71.71,0,0,1,.41-.17c.38,0,1.41.92,1.41,1.26a.44.44,0,0,1-.24.35c-.38.25-.38.25-1,1.22-.87,1.3-.87,1.3-2.27,3.13a17.77,17.77,0,0,1,4.66,3,2.37,2.37,0,0,1,.69,1.78c0,.58-.18.94-.49.94-.13,0-.27-.09-.41-.29a4.08,4.08,0,0,1-.44-.72A15.33,15.33,0,0,0,162,31.63a19.74,19.74,0,0,1-4.36,4.05,16.48,16.48,0,0,1-3.15,1.76Z"/><path class="cls-2" d="M180.07,23.77c-.09,3.74-.11,4.11-.29,6.49h2a20.51,20.51,0,0,1,1.57-1.79c1,.84,1.36,1.13,2.32,2a.32.32,0,0,1,.12.2.29.29,0,0,1-.26.23h-5.75a17.65,17.65,0,0,1-.58,3.31,4.71,4.71,0,0,1,.58.32,18.57,18.57,0,0,1,4.88,3.3,2,2,0,0,1,.52,1.37c0,1-.41,1.94-.84,1.94-.21,0-.32-.12-.5-.43A18.65,18.65,0,0,0,181.2,37a13.53,13.53,0,0,0-2.2-2.21,14.89,14.89,0,0,1-2,4.2,13.62,13.62,0,0,1-5.31,4.41l-.26-.37a14,14,0,0,0,4.67-5.43,18.62,18.62,0,0,0,1.71-6.67h-4.15a11.2,11.2,0,0,0-1.83.15l-.29-1a12,12,0,0,0,2.47.2h3.86c.17-2.32.2-2.87.23-6.49h-2.41a18.64,18.64,0,0,1-3.65,4.9l-.35-.32a24.26,24.26,0,0,0,3.39-6.93,19.43,19.43,0,0,0,.93-3.6c2.58.52,3.16.7,3.16,1s-.29.4-1.3.52a37.2,37.2,0,0,1-1.8,3.77h5.54c.61-.81.81-1.07,1.48-1.86,1,.84,1.33,1.13,2.32,2.06a.82.82,0,0,1,.14.26.22.22,0,0,1-.23.21h0Zm14-1.14a11.38,11.38,0,0,1,1-1.39,14.93,14.93,0,0,1,1.68,1.39c.17.15.26.27.26.35s-.15.29-.9.79v10c0,.06.06,4.56.09,7.54-.06.47-.38.61-1.42.61-.47,0-.58-.08-.61-.4V40.07h-5.81V42c0,.38-.26.47-1.27.47-.55,0-.7-.06-.76-.41.09-3,.12-5.14.12-9.78,0-7.54,0-9.92-.12-11a20.66,20.66,0,0,1,2.3,1.39ZM188.42,39.4h5.81V23.3h-5.81Z"/><path class="cls-2" d="M218.38,20.75c.52-.61.67-.78,1.22-1.36.93.69,1.22.9,2.15,1.56.14.15.2.23.2.32,0,.26-.46.47-1.6.7-3.07,4.29-5.42,6.64-8.93,8.84a28.16,28.16,0,0,1-9,3.8l-.12-.4A35.4,35.4,0,0,0,211.59,29a27,27,0,0,0,6.79-7.54h-6.32a26.61,26.61,0,0,1-2.7,2.61A14.28,14.28,0,0,1,212,25.42a1.44,1.44,0,0,1,.67,1.16c0,.61-.47,1.42-.84,1.42-.21,0-.29-.12-.47-.43s-.69-1.25-1-1.74a4.6,4.6,0,0,0-1.4-1.51,24.24,24.24,0,0,1-6.2,3.71l-.21-.32a31.39,31.39,0,0,0,6.7-5.68,14.85,14.85,0,0,0,3.08-4.88,29.54,29.54,0,0,1,2.87,1c.15.06.2.14.2.23a.5.5,0,0,1-.08.2,1.21,1.21,0,0,1-.44.15,3,3,0,0,0-.78.23c-.64.81-.84,1-1.48,1.77ZM217.19,31a26.4,26.4,0,0,1-2.64,2.32c1.37.78,2.18,1.27,2.44,1.45.81.61,1,.93,1,1.59S217.47,38,217.1,38c-.15,0-.24-.12-.38-.41s-.81-1.56-1.19-2.2a7.8,7.8,0,0,0-1.36-1.77,32,32,0,0,1-8,4.26l-.17-.35c5.74-3.16,10.09-7,12-10.73,2.15.55,2.76.78,2.76,1.05s-.35.46-1.3.66c-.73.84-1,1.11-1.63,1.83H224A12,12,0,0,1,225.43,29c1,.66,1.25.87,2.15,1.53.11.09.17.15.17.24s0,.2-1.54.72a22,22,0,0,1-4.64,5.66,25.44,25.44,0,0,1-10.79,5.68,54,54,0,0,1-6.55,1.25l-.15-.44a43,43,0,0,0,11.52-4.17,24.64,24.64,0,0,0,6.55-5.57A19.52,19.52,0,0,0,224,31Z"/><path class="cls-2" d="M252.92,27.62a22.06,22.06,0,0,1,1.74-2,20.71,20.71,0,0,1,2.7,2.15.51.51,0,0,1,.14.26c0,.14-.14.23-.34.23H246.28v5.66H254a27.94,27.94,0,0,1,1.86-2.12c1.19,1,1.57,1.28,2.7,2.35a.39.39,0,0,1,.11.17c0,.15-.17.26-.34.26h-12l.09,9.11c0,.23-.09.32-.29.35a8.54,8.54,0,0,1-1.43.12c-.46,0-.55-.06-.58-.38.12-4.93.12-4.93.12-9.2h-8.67a14.37,14.37,0,0,0-2.93.15l-.26-1.13a15.63,15.63,0,0,0,3.27.32h8.59V28.29h-6.76a26.13,26.13,0,0,0-3.31.18L234,27.33a25,25,0,0,0,3.86.29h6.35V22.78c0-1.83,0-2-.12-4.9,2.76.32,3.46.46,3.46.84s-.27.43-1.28.75v8.15Zm-17-8.55a23.12,23.12,0,0,1,3.83,3.36,2.56,2.56,0,0,1,.87,1.8c0,1-.61,2.2-1.16,2.2-.26,0-.43-.2-.64-.87a27.52,27.52,0,0,0-1.19-3,24.33,24.33,0,0,0-2-3.22Zm12.21,7.74a41.55,41.55,0,0,0,4.21-8c1.13.4,2.47.92,2.84,1.1.21.09.29.17.29.32s-.37.43-1.48.52a36.16,36.16,0,0,1-5.59,6.32Z"/><path class="cls-2" d="M266.17,42.94c0,.26-.06.35-.29.43a5.93,5.93,0,0,1-1.19.12c-.4,0-.52-.09-.52-.46.06-2.47.09-8.3.09-15.35,0-3.28-.06-7.22-.15-8.41a14.77,14.77,0,0,1,2.44,1.25h17.34c.56-.64.73-.84,1.31-1.42.84.6,1.1.81,1.91,1.42a.49.49,0,0,1,.24.4c0,.24-.15.35-1.11.84v6c0,5.89.08,11,.23,15.08-.09.41-.47.55-1.51.55-.49,0-.67-.08-.7-.43v-2.2H266.17Zm8.07-13.2V21.18h-8.07v8.56Zm0,.7h-8.07V40.1h8.07Zm10-9.26h-8.12v8.56h8.12Zm-8.12,9.26V40.1h8.12V30.44Z"/><path class="cls-2" d="M293.63,35.08c.05.44.08.89.09,1.33a8.85,8.85,0,0,1-.58,3.6c-.38.84-.84,1.33-1.28,1.33s-.58-.58-.58-1.45c0-.61.09-.78.64-1.24a4.77,4.77,0,0,0,1.31-3.57Zm7.52-11.34c.52-.64.66-.84,1.19-1.42A20.67,20.67,0,0,1,304.28,24a1,1,0,0,1,.12.23c0,.12-.09.14-.32.14h-4.33v3.48H301c.58-.63.76-.81,1.37-1.45.84.76,1.07,1,1.82,1.74a.72.72,0,0,1,.12.21c0,.11-.12.17-.35.17h-4.18v3.86h1.86c.61-.61.61-.61,1.13-1.1.61.55.81.72,1.39,1.27.21.27.27.35.27.44s-.12.26-.93.67c-.18,4-.67,7.07-1.34,8.32a3.33,3.33,0,0,1-1.33,1.22,6.92,6.92,0,0,1-2.06.41c-.2-1.31-.41-1.45-3.22-2.15l.06-.46c1.45.23,3.8.52,4.46.52.44,0,.73-.41,1-1.42a31,31,0,0,0,.76-7.05h-6.5v.61c0,.34-.29.43-1.25.43-.43,0-.58-.09-.58-.32v-.11c.09-2.61.12-3.72.12-7.31,0-5.31,0-6.47-.15-8.07.84.5,1.1.64,2,1.25H301c.55-.73.73-1,1.31-1.68a20.15,20.15,0,0,1,2.23,2,.43.43,0,0,1,.14.23c0,.12,0,.15-.34.15h-4.62v3.51ZM295,34.93c1.07,1.8,1.39,2.61,1.39,3.6,0,.55-.64,1.39-1.07,1.39-.24,0-.35-.2-.35-.64v-.17c.06-.93.08-1.39.08-1.62a7.87,7.87,0,0,0-.37-2.41Zm3.1-14.7h-2.84v3.51h2.84Zm-2.84,4.17v3.48h2.84V24.4Zm0,4.15v3.86h2.84V28.55Zm1.56,5.95c1.31,1.27,2.09,2.43,2.09,3.1s-.46,1.37-.84,1.37c-.17,0-.29-.12-.32-.41a11.32,11.32,0,0,0-1.22-3.89Zm2-.41c1.36,1.16,2.09,2.06,2.09,2.67s-.47,1.22-.82,1.22c-.11,0-.2-.12-.26-.38s-.14-.64-.29-1.16a6.07,6.07,0,0,0-1-2.12Zm8.81-4.87a30.43,30.43,0,0,1-1,7.89,17.84,17.84,0,0,1-2.29,5A9.59,9.59,0,0,1,302.63,44l-.32-.26a18.32,18.32,0,0,0,2.87-7.43,60.31,60.31,0,0,0,.69-8.9c0-5.63,0-7.89-.08-9.31.93.61,1.22.78,2.14,1.42h6.5c.49-.52.64-.7,1.16-1.25a18,18,0,0,1,1.63,1.34c.23.17.32.32.32.43s-.06.21-1.05.67v7.86a13.84,13.84,0,0,0,.06,1.65v.18c0,.35-.38.46-1.54.46-.38,0-.46-.06-.49-.32V29.22H311a13.76,13.76,0,0,0,1.85,6.44,14.92,14.92,0,0,0,3.69,4.26,8.43,8.43,0,0,0,2.52,1.4v.43c-1.13.23-1.33.41-2.2,1.8A13.87,13.87,0,0,1,313.07,39a20,20,0,0,1-2.44-7.39c-.06-.64-.11-1-.23-2.41Zm6.94-.67V20.23h-6.82V22.4c0,2.06,0,3.8-.12,6.15Z"/><path class="cls-3" d="M68.75,257.46h10c-.07,4.46.24,6.69.91,6.69.16,0,.26-.71.28-2.09a8.64,8.64,0,0,0,1.48,1.48,5.31,5.31,0,0,1-.53,2.25,1.48,1.48,0,0,1-1.39.67,2.27,2.27,0,0,1-1.08-.24,2.16,2.16,0,0,1-.79-.71,5.22,5.22,0,0,1-.57-1.07A7.23,7.23,0,0,1,76.7,263c-.09-.55-.16-1.12-.21-1.68s-.08-1.21-.1-1.92H73.3l2.18.7A13.17,13.17,0,0,1,74,262.39a16.8,16.8,0,0,1,2.36,1.84L74.45,266a15.18,15.18,0,0,0-2.15-1.86,15.86,15.86,0,0,1-3.92,2.61,12.26,12.26,0,0,0-.82-.94,9.24,9.24,0,0,0-.9-.87,13.67,13.67,0,0,0,3.73-2.13c-.71-.45-1.54-.95-2.48-1.48l1.67-1.55c.91.48,1.73.94,2.45,1.38a9.81,9.81,0,0,0,1.16-1.77H68.08V258A13.28,13.28,0,0,0,66,256.6a7.76,7.76,0,0,0,2.07-2.31,11.35,11.35,0,0,0,1.33-3.15l2.46.53c-.09.3-.2.64-.33,1H80.7v1.9h-10a4.23,4.23,0,0,1-.25.47h8.86v1.86H70v-1.12A11.44,11.44,0,0,1,68.75,257.46Z"/><path class="cls-3" d="M87.22,258l.3,2.08-1.38.37V264A3.6,3.6,0,0,1,86,265.2a1.42,1.42,0,0,1-.56.72,4.19,4.19,0,0,1-2.33.44,7,7,0,0,0-.57-2.16h1.23c.17,0,.25-.09.25-.28V261l-1.45.39-.49-2.23c.44-.09,1.09-.22,1.94-.41v-2.44H82.34v-2.12H84v-2.91h2.14v2.91h1.17v2.12H86.14v1.92Zm10.19.22H95.64v1h1.64v2.09H95.64v2.87a3.32,3.32,0,0,1-.19,1.29,1.49,1.49,0,0,1-.7.7,6.87,6.87,0,0,1-2.7.36,8.6,8.6,0,0,0-.64-2.17h1.72a.37.37,0,0,0,.23-.05.24.24,0,0,0,.06-.2v-2.83H90.34A11,11,0,0,1,92,263.79l-2,1.14a10.93,10.93,0,0,0-1.62-2.81l1.59-.89H87.69v-2.09h5.73v-1H87.56V256h3.82v-1H88.17v-2.09h3.21V251.3h2.21v1.61h3.13V255H93.59v1.05h3.82Z"/><path class="cls-3" d="M98.64,256.81v-2.39h3.22q.31-.75.45-1.17c.1-.29.14-.43.14-.44H105c-.09.28-.19.55-.27.82s-.19.53-.29.79h4.45v2.39h-5.3c-.26.55-.55,1.09-.86,1.61a8.11,8.11,0,0,1,.84-.25,5,5,0,0,1,.84-.16,4.49,4.49,0,0,1,3.1.78,3.3,3.3,0,0,1,1.22,2.69,4,4,0,0,1-.83,2.57,4.13,4.13,0,0,1-2.88,1.39,17.35,17.35,0,0,1-4.88-.18v-2.42a22.14,22.14,0,0,0,3.25.36,5.31,5.31,0,0,0,1.9-.23,1.72,1.72,0,0,0,.89-.63,1.52,1.52,0,0,0,.24-.88,1.1,1.1,0,0,0-.49-1,2.74,2.74,0,0,0-1.71-.26,6.7,6.7,0,0,0-2.2.58,17.1,17.1,0,0,0-2.39,1.36v-2.38c.76-1.5,1.23-2.48,1.43-2.95Z"/><path class="cls-3" d="M111.22,253.28h2.34V254c0,.44,0,1-.06,1.7s0,1.41-.06,2.16,0,1.45,0,2.09a13.34,13.34,0,0,0,.11,2q.12.76.51.81a2.1,2.1,0,0,0,1-.34,8.07,8.07,0,0,0,1-.64l.45-.33V264l-.33.27a4.79,4.79,0,0,1-.91.57,4.43,4.43,0,0,1-1.38.38,2,2,0,0,1-2-1.09,7.71,7.71,0,0,1-.66-3.64V254C111.23,253.54,111.22,253.3,111.22,253.28Zm6.3,0h2.42s.12.42.33,1.25a35.81,35.81,0,0,1,.6,3.85,55.42,55.42,0,0,1,.24,6.57h-2.3V262c0-.87-.09-1.84-.18-2.88s-.23-2.07-.4-3.09A16.09,16.09,0,0,0,117.52,253.28Z"/><path class="cls-3" d="M124.08,253.28h2.34V254c0,.44,0,1-.06,1.7s0,1.41-.06,2.16,0,1.45,0,2.09a13.34,13.34,0,0,0,.12,2q.12.76.51.81a2.1,2.1,0,0,0,1-.34,8.07,8.07,0,0,0,1-.64l.45-.33V264l-.33.27a4.79,4.79,0,0,1-.91.57,4.43,4.43,0,0,1-1.38.38,2,2,0,0,1-2-1.09,7.71,7.71,0,0,1-.66-3.64V254C124.1,253.54,124.08,253.3,124.08,253.28Zm6.3,0h2.42s.12.42.33,1.25a35.81,35.81,0,0,1,.6,3.85A56.29,56.29,0,0,1,134,265h-2.3v-2.95c0-.87-.09-1.84-.18-2.88s-.23-2.07-.4-3.09A16,16,0,0,0,130.38,253.28Z"/><path class="cls-3" d="M150.91,259.45v2.26h-6.19v2.08a3.15,3.15,0,0,1-.27,1.48,1.66,1.66,0,0,1-.9.77,10.47,10.47,0,0,1-3.69.39,8.06,8.06,0,0,0-1-2.29h2.86c.34,0,.51-.14.51-.43v-2H136v-2.26h6.22V258h-5.09v-2.23h5.09v-1.55c-1.4.13-3,.22-4.75.27a7,7,0,0,0-.58-2,56.37,56.37,0,0,0,10.91-1.23l1.67,1.93a39,39,0,0,1-4.81.85v1.78h5.22V258h-5.22v1.49Z"/><path class="cls-3" d="M157.17,255.37h1.75v9c0,.89-.22,1.46-.67,1.72a4,4,0,0,1-2.08.38,5,5,0,0,0-.61-1.92h1.27a.21.21,0,0,0,.23-.19V262.2h-2.58a9.92,9.92,0,0,1-1.2,4.22,7,7,0,0,0-1.58-1c.72-1.19,1.08-3.13,1.08-5.79v-2.72a10.28,10.28,0,0,0-1.11-.86,10.75,10.75,0,0,0,2.1-4.83l2,.44-.26,1h1l.36-.12,1.22.84A16.29,16.29,0,0,1,157.17,255.37Zm-1.5-1h-.75c-.12.34-.25.67-.4,1h.76a8.18,8.18,0,0,0,.39-1Zm-1.08,5.16v1h.48v-1Zm0-2.52v1h.47v-1Zm2,0v1h.51v-1Zm0,3.47h.51v-1h-.51Zm10.7,5.31-1.95.64a7.13,7.13,0,0,0-.17-1.06c-2.17.25-4.08.47-5.74.64l-.31-2.23,2.81-.21v-2.39h-2.42v-6.73h2.42v-3.27H164v3.27h2.56v6.73H164v2.21l.61-.05c-.09-.27-.24-.72-.47-1.34l1.81-.57a15.32,15.32,0,0,1,1.3,4.39Zm-5.86-6.5h.5v-3h-.5Zm3.17-3H164v3h.54Z"/><path class="cls-3" d="M169,252.85h2.35v.43a9.19,9.19,0,0,1-.12,1c0,.38-.09.88-.13,1.36a6.52,6.52,0,0,1,1.18-1.8,2.32,2.32,0,0,1,1.58-.73,2.79,2.79,0,0,1,2.75,1.56,10,10,0,0,1,.85,4.57,6,6,0,0,1-1.78,4.65,7.37,7.37,0,0,1-5.24,1.64v-2.36a7,7,0,0,0,3-.6,2.89,2.89,0,0,0,1.35-1.41,4.85,4.85,0,0,0,.36-1.92,9,9,0,0,0-.27-2.64c-.2-.67-.53-1-1-1a1.52,1.52,0,0,0-.92.41,3.12,3.12,0,0,0-.72,1c-.18.39-.35.77-.5,1.15a6.12,6.12,0,0,0-.32.94c-.06.18-.11.43-.18.75a5.81,5.81,0,0,0-.09,1.18v.65h-2.41a5.51,5.51,0,0,0-.05-.61c-.05-.4,0-.9-.07-1.52a19,19,0,0,1,0-2c0-.73.08-1.33.14-2.05s.13-1.33.19-1.84A5.75,5.75,0,0,0,169,252.85Z"/><path class="cls-3" d="M188.19,258.85a4.45,4.45,0,0,0-.55-2.08,2,2,0,0,0-1.53-1c0,1-.1,2-.2,3.06a13.23,13.23,0,0,1-.58,2.85,6,6,0,0,1-1.1,2.06,2,2,0,0,1-1.65.73,2.69,2.69,0,0,1-1.4-.47,3.37,3.37,0,0,1-1.13-1.48,7.21,7.21,0,0,1-.47-2.8,7.42,7.42,0,0,1,.7-3.14,6.2,6.2,0,0,1,1.8-2.29,4.86,4.86,0,0,1,2.55-1,5.8,5.8,0,0,1,2.82.44,4.64,4.64,0,0,1,2.11,1.88,7,7,0,0,1,.92,3.4,8.05,8.05,0,0,1-.46,3,5,5,0,0,1-1.28,2,4.76,4.76,0,0,1-1.71,1,5.11,5.11,0,0,1-1.69.31V263a2.62,2.62,0,0,0,2.1-1.09A5,5,0,0,0,188.19,258.85ZM182.63,262c.23,0,.43-.2.6-.61a7.42,7.42,0,0,0,.39-1.61c.1-.65.17-1.33.22-2a11.41,11.41,0,0,0,0-1.94,2.21,2.21,0,0,0-1.15.89,5,5,0,0,0-.7,1.48,6.64,6.64,0,0,0-.27,1.53,3.73,3.73,0,0,0,.2,1.72A.85.85,0,0,0,182.63,262Z"/><path class="cls-3" d="M192.36,258.39c.42-.71.77-1.32,1.06-1.82s.58-1,.86-1.45.5-.83.66-1.08a2.11,2.11,0,0,1,.61-.65,1.62,1.62,0,0,1,.56-.23h.23a2.11,2.11,0,0,1,.78.18,1.64,1.64,0,0,1,.55.53l.74,1.13,1.29,1.94,1.4,2.13,1.62,2.45V266q-5.92-9.09-6.05-9.31a.75.75,0,0,0-.24-.29h-.15a1.51,1.51,0,0,0-.22.28c-.09.12-.28.41-.55.85s-.59,1-.94,1.55l-1.37,2.3-.84,1.44Zm7.69-2.85v-2.25h1.08v2.25Zm1.68,0v-2.25h1.08v2.25Z"/><path class="cls-3" d="M214.66,264.93h-9.83V253.5h9.83Zm-2.57-9h-4.71v6.53h4.71Z"/><path class="cls-3" d="M216.75,255.46v-2.39h10.56v2.39a8.63,8.63,0,0,1-1.18,3,6.93,6.93,0,0,1-1.6,1.77,14,14,0,0,1-1.26.8,3.12,3.12,0,0,1-.49.23v-2.69a2.3,2.3,0,0,0,.4-.23,3.75,3.75,0,0,0,.86-.92,5.15,5.15,0,0,0,.73-1.93Zm0,7.71a2.36,2.36,0,0,0,.51-.12,3.45,3.45,0,0,0,1.08-.59,3.78,3.78,0,0,0,1-1.43,6.18,6.18,0,0,0,.48-2.61V257h2.36v1.53a8.12,8.12,0,0,1-.63,3.23,7.34,7.34,0,0,1-1.38,2.14,6.6,6.6,0,0,1-1.58,1.25,9.8,9.8,0,0,1-1.88.74Z"/><path class="cls-3" d="M231,253.1l1.94,6h-2.53l-1.91-6Zm-1.15,12.33v-2.56a6.4,6.4,0,0,0,3.19-1.4,7.14,7.14,0,0,0,2-2.47,16,16,0,0,0,1-2.76,16.94,16.94,0,0,0,.45-2.23c.06-.6.09-.91.08-.93h2.41a24.24,24.24,0,0,1-.39,2.93,17.14,17.14,0,0,1-.82,2.79,11.57,11.57,0,0,1-1.6,2.9,10.34,10.34,0,0,1-2.57,2.41,9.15,9.15,0,0,1-3.68,1.32Z"/><path class="cls-3" d="M240.72,255.78v-2.5h9.58v2.29a10.69,10.69,0,0,1-.72,4,9.68,9.68,0,0,1-1.64,2.72,8,8,0,0,1-2,1.67,12.36,12.36,0,0,1-2,.9,10.47,10.47,0,0,1-1.56.39c-.4.05-.61.08-.62.07v-2.5a11.78,11.78,0,0,0,2.18-.54,6.62,6.62,0,0,0,1.83-1.12,5.51,5.51,0,0,0,1.49-2.05,8.82,8.82,0,0,0,.66-3.29Z"/><path class="cls-3" d="M252.23,257.14v-2h9v2a7.06,7.06,0,0,1-1,2.5,5.55,5.55,0,0,1-1.35,1.51,9.2,9.2,0,0,1-1.07.68,2,2,0,0,1-.42.2v-2.28a1.68,1.68,0,0,0,.34-.2,3.14,3.14,0,0,0,.72-.78,4.39,4.39,0,0,0,.63-1.63Zm0,6.54.43-.11a2.5,2.5,0,0,0,.92-.5,3.23,3.23,0,0,0,.89-1.21,5.44,5.44,0,0,0,.41-2.22v-1.22h2v1.29a7,7,0,0,1-.53,2.75,6.06,6.06,0,0,1-1.18,1.82,5.79,5.79,0,0,1-1.34,1.07,8.45,8.45,0,0,1-1.6.63Z"/><path class="cls-3" d="M273.27,253.39v2.39a6.35,6.35,0,0,0-2.68.82,7.35,7.35,0,0,0-1.89,1.53,4.23,4.23,0,0,0-1,1.66,2.37,2.37,0,0,0,0,1.7,2,2,0,0,0,.91.92,2.8,2.8,0,0,0,1.09.32h1.2a6.73,6.73,0,0,0,1-.09l.46-.05v2.5c-.57.07-1.07.11-1.51.12s-.89,0-1.36,0a6.21,6.21,0,0,1-1.53-.31,4.45,4.45,0,0,1-1.59-.85,3.69,3.69,0,0,1-1.09-1.55,4.86,4.86,0,0,1-.21-2.39,5.65,5.65,0,0,1,.6-1.79,6.28,6.28,0,0,1,.94-1.35,8.73,8.73,0,0,1,.86-.86,2.82,2.82,0,0,1,.39-.29H263v-2.39ZM270.48,259v-2.25h1.08V259Zm1.69,0v-2.25h1.08V259Z"/><path class="cls-3" d="M123.88,277h4.05v-.87H123.6V274h4.33v-1.35h2.27V274h3.29v2.17H130.2V277h3v2.13h-3v1.14a9.45,9.45,0,0,1,1.4.67c.4.23.79.49,1.17.76a3.32,3.32,0,0,1,.47.37v2.68l-.47-.41c-.3-.26-.68-.58-1.14-.94a11.82,11.82,0,0,0-1.43-1v.49a2.77,2.77,0,0,1-.53,1.8,2.29,2.29,0,0,1-1.19.76,5.6,5.6,0,0,1-1.41.16,4.81,4.81,0,0,1-1.72-.32,2.76,2.76,0,0,1-1.24-.92,2.6,2.6,0,0,1-.48-1.5,2.5,2.5,0,0,1,.58-1.72,3.46,3.46,0,0,1,1.6-.93,8.41,8.41,0,0,1,2.12-.3v-.83h-4.05Zm3.19,6.6a1,1,0,0,0,.58-.18.7.7,0,0,0,.28-.52v-1a2.77,2.77,0,0,0-1.58.18c-.39.2-.6.42-.61.65a.83.83,0,0,0,.26.61A1.61,1.61,0,0,0,127.07,283.6Z"/><path class="cls-3" d="M135.05,276.47a16.23,16.23,0,0,1,2.37-.73,11.19,11.19,0,0,1,2.31-.25A5.57,5.57,0,0,1,142,276a3.61,3.61,0,0,1,1.61,1.36,4.42,4.42,0,0,1,.62,2.24,4.61,4.61,0,0,1-1.75,4.16q-1.86,1.38-5.79,1.4v-2a9.55,9.55,0,0,0,3.23-.39,3.18,3.18,0,0,0,1.73-1.24,3.26,3.26,0,0,0,.47-1.88,1.92,1.92,0,0,0-.58-1.41,3.07,3.07,0,0,0-2-.64,5.35,5.35,0,0,0-1.49.15c-.48.12-1,.26-1.43.41s-.85.3-1.14.43a2.48,2.48,0,0,0-.44.2Z"/><path class="cls-3" d="M146.27,276.65v-2.22h2.16a9.59,9.59,0,0,1,.12-1.27,2,2,0,0,0,0-.47h2.15a16.34,16.34,0,0,1-.14,1.74h2.22v1.9h4v2.29c-.6,0-1.26-.05-2-.05h-2.95l-.05-2h-1.45c-.23,1.79-.48,3.33-.74,4.62s-.47,2.29-.64,3-.25,1.06-.26,1.06h-2.38c.45-1.54.82-3.06,1.12-4.58s.53-2.88.69-4.1Zm4.74,3.76h2.17a3.46,3.46,0,0,0-.67,1.88q0,.73,1.47.75h1.52L157,283v2.41c-.65.05-1.26.08-1.82.1s-1.19,0-1.91,0a3.76,3.76,0,0,1-1.8-.46,2.34,2.34,0,0,1-.92-1,3,3,0,0,1-.27-1.25,4.06,4.06,0,0,1,.18-1.2,5.87,5.87,0,0,1,.52-1.14Z"/><path class="cls-3" d="M159.55,272.75h2.35a2.62,2.62,0,0,1-.05.43c0,.27-.07.62-.12,1s-.09.88-.13,1.36a6.52,6.52,0,0,1,1.18-1.8,2.36,2.36,0,0,1,1.59-.73,2.79,2.79,0,0,1,2.75,1.56,10.11,10.11,0,0,1,.84,4.57,6,6,0,0,1-1.78,4.65,7.35,7.35,0,0,1-5.23,1.64v-2.36a7,7,0,0,0,3-.6,2.89,2.89,0,0,0,1.35-1.41,4.85,4.85,0,0,0,.36-1.92,8.7,8.7,0,0,0-.28-2.64c-.2-.67-.53-1-1-1a1.44,1.44,0,0,0-.92.41,2.84,2.84,0,0,0-.72,1c-.19.39-.36.77-.51,1.15a8,8,0,0,0-.32.94c0,.18-.11.43-.17.75a5.18,5.18,0,0,0-.1,1.18,3.38,3.38,0,0,1,0,.45v.2h-2.41V281c0-.4-.06-.9-.07-1.52s0-1.27,0-2,.08-1.33.14-2,.13-1.33.19-1.84A7.59,7.59,0,0,0,159.55,272.75Z"/><path class="cls-3" d="M176.09,272.88H180l-2.22,1.77-1.92,1.52c-.65.51-1.21,1-1.68,1.37a9.37,9.37,0,0,0-.89.78.44.44,0,0,0-.15.36.69.69,0,0,0,.2.45c.12.12.42.41.9.85l1.68,1.56,1.91,1.75,2.21,2h-3.62l-1.64-1.45c-.47-.42-.95-.85-1.45-1.28l-1.33-1.2a10.32,10.32,0,0,1-.82-.8,2.57,2.57,0,0,1-.75-1.85,2.41,2.41,0,0,1,.74-1.73c.16-.16.44-.39.82-.71l1.27-1.06,1.35-1.11C175,273.75,175.5,273.34,176.09,272.88Z"/><path class="cls-3" d="M181.54,274.74a17.13,17.13,0,0,1,2.8-.87,13.61,13.61,0,0,1,2.7-.29,6.72,6.72,0,0,1,2.69.56,4.19,4.19,0,0,1,1.9,1.61,5.17,5.17,0,0,1,.72,2.63,5.36,5.36,0,0,1-2,4.89q-2.21,1.62-6.82,1.64v-2.36a11.43,11.43,0,0,0,3.81-.47,3.77,3.77,0,0,0,2-1.46,3.92,3.92,0,0,0,.55-2.21,2.21,2.21,0,0,0-.68-1.66,3.78,3.78,0,0,0-2.36-.75,6.43,6.43,0,0,0-1.75.18,16.3,16.3,0,0,0-1.69.48c-.55.19-1,.36-1.35.5l-.51.24Z"/><path class="cls-3" d="M195.48,273h7.37v2.17l-3,2.52a4,4,0,0,1,2.47-.12,3.23,3.23,0,0,1,1.64,1.27,4,4,0,0,1,.62,2.19,3.68,3.68,0,0,1-2,3.69q-2.1,1.06-6.23.33v-2.42a14.24,14.24,0,0,0,3.85.34,2.44,2.44,0,0,0,1.75-.69,1.84,1.84,0,0,0,.37-1.28,1.49,1.49,0,0,0-.53-1.18,2.68,2.68,0,0,0-1.94-.29,5.21,5.21,0,0,0-1.34.36,8.14,8.14,0,0,0-1.77,1,17.75,17.75,0,0,0-2.28,2.05v-3.33l4.78-4.19h-3.73Z"/><path class="cls-3" d="M212.43,272.88h3.86l-2.21,1.77-1.92,1.52c-.66.51-1.22,1-1.69,1.37a8.17,8.17,0,0,0-.88.78.42.42,0,0,0-.16.36.69.69,0,0,0,.2.45l.9.85,1.68,1.56c.65.59,1.28,1.18,1.92,1.75s1.36,1.25,2.21,2h-3.63l-1.64-1.45-1.44-1.28c-.5-.44-.95-.84-1.34-1.2a8.75,8.75,0,0,1-.81-.8,2.58,2.58,0,0,1-.76-1.85,2.41,2.41,0,0,1,.74-1.73c.17-.16.44-.39.82-.71l1.27-1.06,1.36-1.11Zm1.39,5v-2.25h1.08v2.25Zm1.69,0v-2.25h1.08v2.25Z"/></g><path class="cls-4" d="M37.5,333.7l-1,3.28H33.22l4.92-15h3.8l4.92,15H43.55l-1-3.28ZM40,324.91l-1.8,6.16h3.61Z"/><path class="cls-4" d="M58.28,334.12V337h-11a80.68,80.68,0,0,0,6.21-7.56,5.32,5.32,0,0,0,1.26-2.92,1.84,1.84,0,0,0-1.89-2c-1.91,0-3,1.72-3.44,2.45L48.12,324a5.83,5.83,0,0,1,4.75-2.37,4.57,4.57,0,0,1,4.89,4.75c0,2.41-1.26,4.1-4.31,7.73Z"/><path class="cls-4" d="M59.81,328.07a10.89,10.89,0,0,0,4.34-5.52H73.8c-.82,10.93-6.92,14.07-11.56,15.55l-1.4-2.69a12.92,12.92,0,0,0,6.71-3.8,24.35,24.35,0,0,0-4.07-2.88,13,13,0,0,1-1.86,1.61ZM66,325.29c-.48.82-.67,1.1-1,1.51a20.22,20.22,0,0,1,4.09,2.6,11.83,11.83,0,0,0,1.31-4.11Z"/><path class="cls-4" d="M85.41,337.86H82.48v-7.52a30.39,30.39,0,0,1-5.43,2.71l-1.35-2.69a25.69,25.69,0,0,0,12-8.76l2.47,1.85a31.94,31.94,0,0,1-4.81,4.77Z"/><path class="cls-4" d="M102.36,323l2.88,3.54c-.47,2.62-1.13,6.34-5,9.07a14.22,14.22,0,0,1-5.18,2.25l-1.27-2.81c6.7-1.31,8.1-5.41,8.59-9.05H92.7v-3Zm5.8-.09a2.32,2.32,0,1,1-2.32-2.47A2.39,2.39,0,0,1,108.16,322.93Zm-3.45,0a1.18,1.18,0,0,0,1.13,1.2,1.2,1.2,0,1,0-1.13-1.2Z"/><path class="cls-4" d="M120,324.26v3.31H116.7v-3.31Zm0,7.91v3.31H116.7v-3.31Z"/><path class="cls-4" d="M133.13,318.4h3.35V337h-3.76V322.49l-3.17,2.29-.46-3.51Z"/><path class="cls-4" d="M146.74,332.91v3.86c0,2.38-1.5,3-4.05,3.05V338c1.55,0,1.78-.46,1.81-1.13h-1.81v-3.91Z"/><path class="cls-4" d="M149.81,323.07c0-2.86,2.29-5,5.61-5s5.62,2.18,5.62,5a4.66,4.66,0,0,1-1.64,3.58,5.47,5.47,0,0,1,2.51,4.74c0,3.58-2.93,6-6.49,6s-6.49-2.36-6.49-6a5.45,5.45,0,0,1,2.52-4.74A4.6,4.6,0,0,1,149.81,323.07Zm8.36,8.18a2.76,2.76,0,0,0-5.5,0,2.76,2.76,0,0,0,5.5,0Zm-.67-8.06a2.08,2.08,0,1,0-2.08,2A2,2,0,0,0,157.5,323.19Z"/><path class="cls-4" d="M165.19,333.26a7,7,0,0,0,2.66.55c3.28,0,4.16-2.61,4.53-3.92a6.66,6.66,0,0,1-3.21.9,5.77,5.77,0,0,1-5.78-6.13,6.36,6.36,0,0,1,6.38-6.63c3.32,0,6.67,2.5,6.67,8.48,0,6.93-3.37,10.84-8.45,10.84a7.9,7.9,0,0,1-2.8-.46Zm4.62-5.78a3,3,0,1,0-2.7-2.84A2.69,2.69,0,0,0,169.81,327.48Z"/><path class="cls-4" d="M189.43,320.9a16.91,16.91,0,0,1,0,13.61,5.8,5.8,0,0,1-10,0c-.81-1.34-1.44-3.38-1.44-6.82a13.21,13.21,0,0,1,1.44-6.79,5.77,5.77,0,0,1,10,0Zm-7.7,6.79c0,3.56.7,6.12,2.71,6.12s2.7-2.63,2.7-6.12c0-3.21-.58-6.12-2.7-6.12S181.73,324.25,181.73,327.69Z"/><path class="cls-4" d="M199.41,326.48h7.34a64.31,64.31,0,0,1-.73,9.66c-.47,2.3-1.72,2.58-2.92,2.58h-3l-.51-2.92h2.47c.9,0,1.16-.26,1.37-1.25a36.93,36.93,0,0,0,.41-5.35h-4.64a13.28,13.28,0,0,1-5.65,9.57l-1.74-2.61c2.24-1.39,4.83-3.69,4.83-10.07v-1.83h-4.48v-2.73h15.89v2.73h-8.65Z"/><path class="cls-4" d="M212.28,338.72h-2.7V321.51h14.69v15.17c0,2-1.4,2-2,2h-3.08l-.47-2.9h2.15c.64,0,.64-.17.64-.75v-3.2h-9.28Zm3.29-14.46h-3.29v4.95h3.29Zm6,4.95v-4.95h-3.33v4.95Z"/><path class="cls-4" d="M229.71,328.76v2.07H238v.9h-8.3v2.07l-3.84-2.52Z"/><path class="cls-4" d="M247.65,335.36V337H239.3c5.5-5.91,6.15-7.29,6.15-8.52a1.86,1.86,0,0,0-1.94-2,3.43,3.43,0,0,0-2.82,2l-.7-1.77a4.32,4.32,0,0,1,3.54-1.82,3.44,3.44,0,0,1,3.66,3.56c0,1.9-1,3.3-4.25,7Z"/><path class="cls-4" d="M251.43,334.79v2c0,1.38-.76,1.7-2.14,1.76v-.93c.91,0,1-.33,1-.75h-1v-2.13Z"/><path class="cls-4" d="M256.86,325.08h1.56V337h-1.75V327l-2.19,1.55-.23-1.65Z"/><path class="cls-4" d="M263.69,335.28a3.71,3.71,0,0,0,1.57.32c2.76,0,3.48-2.69,3.66-4a3.88,3.88,0,0,1-2.74,1.15,3.66,3.66,0,0,1-3.69-3.84,3.93,3.93,0,0,1,4-4.08c2.23,0,4.17,1.68,4.17,5.31,0,4.76-2.36,7.07-5.33,7.07a4.09,4.09,0,0,1-1.63-.3Zm2.76-4.06a2.33,2.33,0,0,0,2.37-2.34,2.31,2.31,0,1,0-4.61,0A2.2,2.2,0,0,0,266.45,331.22Z"/><path class="cls-4" d="M280,331c0,1.13,0,6.2-4,6.2s-4-5.07-4-6.18,0-6.2,4-6.2S280,329.87,280,331Zm-6.3,0c0,2.2.39,4.56,2.28,4.56s2.28-2.52,2.28-4.58-.36-4.56-2.28-4.56S273.72,328.92,273.72,331Z"/><path class="cls-4" d="M286.55,328.38c0,.11,0,.3,0,.48h6.06a46.5,46.5,0,0,1-.61,7.62,2.14,2.14,0,0,1-2,1.82h-2.49l-.27-1.65h2.38c.62,0,.86-.29,1-1.31a36.85,36.85,0,0,0,.36-4.95h-4.53a10.61,10.61,0,0,1-4.49,7.91l-1.09-1.47c2.08-1.38,4.14-3.27,4.14-8.52v-2h-3.86v-1.59h12.66v1.59h-7.24Z"/><path class="cls-4" d="M296.6,338.31h-1.53v-13.6h11.71V336.9a1.24,1.24,0,0,1-1.35,1.41h-2.38l-.29-1.54h2c.45,0,.47-.17.47-.54v-3.68H296.6Zm3.54-12.13H296.6v4.92h3.54Zm5.1,4.92v-4.92h-3.6v4.92Z"/></svg>