<svg id="レイヤー_1" data-name="レイヤー 1" xmlns="http://www.w3.org/2000/svg" viewBox="0 0 340 396"><defs><style>.cls-1{fill:none;}.cls-2{fill:#fff;}.cls-3{fill:#40220f;}.cls-4{fill:#f5e973;}</style></defs><title>tb08</title><rect class="cls-1" width="340" height="396"/><g id="_08" data-name=" 08"><path class="cls-2" d="M23.33,38.58a12.94,12.94,0,0,0,2.61-4.25,12.28,12.28,0,0,0,.87-3.68.89.89,0,0,0-.47-.88,14.65,14.65,0,0,0-4,1.14,1.12,1.12,0,0,1-.56.18,1.64,1.64,0,0,1-1.13-.69A1.68,1.68,0,0,1,20,29.32a.8.8,0,0,1,.07-.34,1.69,1.69,0,0,0,1.47.83,18.78,18.78,0,0,0,3.08-.47c1.1-.18,3.39-.47,5.55-.67a8.52,8.52,0,0,0,1.4-.3,1,1,0,0,1,.45-.09,2.2,2.2,0,0,1,1,.27c.5.23.84.57.84.83s-.19.36-.5.36a1.74,1.74,0,0,1-.45-.06,17.63,17.63,0,0,0-2.9-.23,21.48,21.48,0,0,0-3,.18c.83.45,1.19.83,1.19,1.24A11.27,11.27,0,0,1,27,34.4a10.61,10.61,0,0,1-3.56,4.37ZM23,24.68a2.94,2.94,0,0,0,2.16,1,9.86,9.86,0,0,0,3.78-.88,1,1,0,0,1,.54-.15c.47,0,1.23.58,1.23.94s-.22.32-.94.48a24.88,24.88,0,0,1-4.12.47,3.07,3.07,0,0,1-2.92-1.65ZM31.33,24a8.93,8.93,0,0,1,2.12,1.26,1.29,1.29,0,0,1,.55,1c0,.54-.2,1-.45,1s-.25-.13-.4-.43a8,8,0,0,0-2-2.67Zm1.58-1a7.2,7.2,0,0,1,2.16,1c.5.36.65.61.65,1.06s-.16.87-.4.87-.25-.09-.39-.36a6.85,6.85,0,0,0-2.16-2.38Z"/><path class="cls-2" d="M40.92,30.08a15,15,0,0,0,2.57-.34,2.59,2.59,0,0,0,.76-.24,1,1,0,0,1,.23-.12.5.5,0,0,1,.27-.08,1.84,1.84,0,0,1,.9.62c.29.3.36.43.36.61a.35.35,0,0,1-.12.29,3.2,3.2,0,0,0-.42,1.24c-.27,1-.65,2.61-.77,3.17l.74-.06a5.27,5.27,0,0,0,1.89-.25.8.8,0,0,1,.3-.09,2.11,2.11,0,0,1,.76.31c.43.25.7.57.7.83a.4.4,0,0,1-.41.36,3.78,3.78,0,0,1-1-.2A10.22,10.22,0,0,0,45.54,36a18.44,18.44,0,0,0-4.68.55A7,7,0,0,0,39.3,37a.86.86,0,0,1-.47.14,1.45,1.45,0,0,1-1-.59,2.57,2.57,0,0,1-.59-1.19,1.08,1.08,0,0,1,.07-.31,1.65,1.65,0,0,0,1.37.85,5.38,5.38,0,0,0,1.22-.13c1.16-.18,2.06-.3,2.74-.37s.74-.09,1.1-.15a48.33,48.33,0,0,0,.7-4.93v-.07a17.65,17.65,0,0,0-2.16.46,7.09,7.09,0,0,0-1,.38,1.07,1.07,0,0,1-.43.09c-.33,0-.63-.25-.9-.72a2.1,2.1,0,0,1-.34-1,.58.58,0,0,1,.1-.36A1.42,1.42,0,0,0,40.92,30.08Z"/><path class="cls-2" d="M53.3,30a2.42,2.42,0,0,0,1.75.43l2.21-.06,7-.1a7.1,7.1,0,0,1,2.34.16.38.38,0,0,1,.26.36.53.53,0,0,1-.42.48c-.48.17-.92.18-4.32.22-1.67,0-5.8.13-6.43.16-.84.06-1,.07-1.29.24-.08,0-.2.05-.27.05-.27,0-.56-.2-.87-.59a3.25,3.25,0,0,1-.68-1.66c0-.25,0-.29.14-.41A1.63,1.63,0,0,0,53.3,30Z"/><path class="cls-2" d="M71.46,38.23a24.6,24.6,0,0,0,6-6.89,17.76,17.76,0,0,0,2.15-4.81c0-.18-.09-.23-.36-.23a27.22,27.22,0,0,0-3.34.61,18.91,18.91,0,0,0-3.29,1,2,2,0,0,1-.67.18c-.37,0-.84-.36-1.29-1A2.08,2.08,0,0,1,70.15,26a.58.58,0,0,1,.12-.36,1.75,1.75,0,0,0,1.68,1A42.29,42.29,0,0,0,77.08,26a6,6,0,0,0,2.09-.5c.22-.13.22-.13.36-.13a2.76,2.76,0,0,1,1.31.83c.38.36.56.65.56.89s-.05.25-.25.46a3.26,3.26,0,0,0-.63,1,26,26,0,0,1-5.19,7.28,17.73,17.73,0,0,1-3.7,2.68ZM84.75,24.64a1.8,1.8,0,1,1-1.8-1.8A1.81,1.81,0,0,1,84.75,24.64Zm-3.06,0a1.26,1.26,0,1,0,2.52,0h0a1.26,1.26,0,0,0-2.52,0Z"/><path class="cls-2" d="M100,29.52a16,16,0,0,1-2.68,3.06,22.52,22.52,0,0,1-5.44,3.67,4.1,4.1,0,0,0-1.35.87.57.57,0,0,1-.41.23c-.36,0-1.19-1.06-1.19-1.55,0-.09,0-.09.09-.32a10.64,10.64,0,0,0,.14-2.76c0-4-.09-5.72-.32-6.39-.16-.45-.45-.66-1.24-.93a.78.78,0,0,1,.55-.18,3.3,3.3,0,0,1,1.44.43c.71.38,1.07.74,1.07,1.1,0,.1,0,.1-.09.38a10.58,10.58,0,0,0-.24,1.78c-.09,1.1-.2,4.37-.2,5.71v.9a22.85,22.85,0,0,0,6.14-3.19,24.42,24.42,0,0,0,3.5-3Z"/><path class="cls-2" d="M103.31,28.75a9.32,9.32,0,0,1,3.15,1.06,1.28,1.28,0,0,1,.68,1.19c0,.46-.23.86-.5.86s-.29-.07-.56-.41A8.84,8.84,0,0,0,103.2,29Zm13.9-.45a21.28,21.28,0,0,1-2.69,3.07,40.27,40.27,0,0,1-6.82,5.24,13.58,13.58,0,0,0-1.39,1,.58.58,0,0,1-.41.18c-.36,0-.78-.34-1.28-1.08a3,3,0,0,1-.56-1.38.67.67,0,0,1,.16-.42c.35.69.85,1.12,1.35,1.12A11.77,11.77,0,0,0,109,34.26a41.75,41.75,0,0,0,8-6.13Zm-11.92-2.74c2.88.68,3.79,1.24,3.79,2.29,0,.5-.21.9-.48.9s-.2,0-1-1a8.37,8.37,0,0,0-2.47-2Zm7.38-1.44c1.92.84,2.79,1.56,2.79,2.32a1.5,1.5,0,0,1-.25.87.31.31,0,0,1-.22.09c-.2,0-.25-.06-.5-.55a9.18,9.18,0,0,0-2-2.55ZM114.34,23c2,.66,2.92,1.33,2.92,2.14,0,.52-.18.92-.43.92s-.27-.11-.47-.45a8,8,0,0,0-2.14-2.42Z"/><path class="cls-2" d="M123.41,38.58A12.89,12.89,0,0,0,126,34.33a12.28,12.28,0,0,0,.87-3.68.89.89,0,0,0-.47-.88,14.65,14.65,0,0,0-4,1.14,1.12,1.12,0,0,1-.56.18,1.64,1.64,0,0,1-1.13-.69,1.76,1.76,0,0,1-.61-1.08,1.28,1.28,0,0,1,.07-.34,1.69,1.69,0,0,0,1.48.83,18.83,18.83,0,0,0,3.07-.47c1.1-.18,3.39-.47,5.55-.67a8.52,8.52,0,0,0,1.4-.3,1,1,0,0,1,.45-.09,2.2,2.2,0,0,1,1,.27c.5.23.85.57.85.83s-.2.36-.51.36a1.74,1.74,0,0,1-.45-.06,17.63,17.63,0,0,0-2.9-.23,21.48,21.48,0,0,0-3,.18c.83.45,1.19.83,1.19,1.24a11,11,0,0,1-1.15,3.53,10.55,10.55,0,0,1-3.57,4.37Zm-.34-13.9a2.94,2.94,0,0,0,2.16,1A9.86,9.86,0,0,0,129,24.8a1,1,0,0,1,.54-.15c.47,0,1.23.58,1.23.94s-.22.32-.94.48a24.88,24.88,0,0,1-4.12.47,3.07,3.07,0,0,1-2.92-1.65Zm8.34-.71a8.93,8.93,0,0,1,2.12,1.26,1.26,1.26,0,0,1,.56,1.08c0,.54-.2,1-.45,1s-.25-.13-.4-.43a8,8,0,0,0-2-2.67ZM133,23a7.2,7.2,0,0,1,2.16,1c.51.36.65.61.65,1.06s-.16.87-.4.87-.25-.09-.39-.36a6.76,6.76,0,0,0-2.16-2.38Z"/><path class="cls-2" d="M138.76,25.79a10.21,10.21,0,0,1,3.48,1.35,1.4,1.4,0,0,1,.61,1.23c0,.59-.2,1-.5,1s-.29-.09-.78-.72A9.4,9.4,0,0,0,138.64,26Zm12.81,1a18.89,18.89,0,0,1-3.78,4.84,35.64,35.64,0,0,1-5.06,4.11c-.85.59-.94.66-1.07.83-.28.34-.39.43-.63.43-.73,0-2.1-1.73-2.1-2.65A.71.71,0,0,1,139,34a2.48,2.48,0,0,0,.65.79,1.11,1.11,0,0,0,.72.38,4.43,4.43,0,0,0,1.74-.75,26.16,26.16,0,0,0,4.31-3,28.55,28.55,0,0,0,4.84-4.8Z"/><path class="cls-2" d="M154.34,37.17a26.57,26.57,0,0,0,4.84-3.94,32.48,32.48,0,0,0,3.44-4.48,12,12,0,0,0,1.22-2.33,19.77,19.77,0,0,0-3.8.8,9.82,9.82,0,0,0-1.51.48.81.81,0,0,1-.31.06c-.39,0-.77-.33-1.17-1a2.29,2.29,0,0,1-.37-1.08.77.77,0,0,1,.12-.36c.52.93.9,1.21,1.69,1.21a30.26,30.26,0,0,0,3.79-.51,5,5,0,0,0,1.69-.5.71.71,0,0,1,.41-.17c.38,0,1.41.92,1.41,1.26a.44.44,0,0,1-.24.35c-.38.25-.38.25-1,1.22-.87,1.3-.87,1.3-2.27,3.13a17.77,17.77,0,0,1,4.66,3,2.37,2.37,0,0,1,.69,1.78c0,.58-.18.94-.49.94-.13,0-.27-.09-.41-.29a4.08,4.08,0,0,1-.44-.72A15.33,15.33,0,0,0,162,31.63a19.74,19.74,0,0,1-4.36,4.05,16.48,16.48,0,0,1-3.15,1.76Z"/><path class="cls-2" d="M180.07,23.77c-.09,3.74-.11,4.11-.29,6.49h2a20.51,20.51,0,0,1,1.57-1.79c1,.84,1.36,1.13,2.32,2a.32.32,0,0,1,.12.2.29.29,0,0,1-.26.23h-5.75a17.65,17.65,0,0,1-.58,3.31,4.71,4.71,0,0,1,.58.32,18.57,18.57,0,0,1,4.88,3.3,2,2,0,0,1,.52,1.37c0,1-.41,1.94-.84,1.94-.21,0-.32-.12-.5-.43A18.65,18.65,0,0,0,181.2,37a13.53,13.53,0,0,0-2.2-2.21,14.89,14.89,0,0,1-2,4.2,13.62,13.62,0,0,1-5.31,4.41l-.26-.37a14,14,0,0,0,4.67-5.43,18.62,18.62,0,0,0,1.71-6.67h-4.15a11.2,11.2,0,0,0-1.83.15l-.29-1a12,12,0,0,0,2.47.2h3.86c.17-2.32.2-2.87.23-6.49h-2.41a18.64,18.64,0,0,1-3.65,4.9l-.35-.32a24.26,24.26,0,0,0,3.39-6.93,19.43,19.43,0,0,0,.93-3.6c2.58.52,3.16.7,3.16,1s-.29.4-1.3.52a37.2,37.2,0,0,1-1.8,3.77h5.54c.61-.81.81-1.07,1.48-1.86,1,.84,1.33,1.13,2.32,2.06a.82.82,0,0,1,.14.26.22.22,0,0,1-.23.21h0Zm14-1.14a11.38,11.38,0,0,1,1-1.39,14.93,14.93,0,0,1,1.68,1.39c.17.15.26.27.26.35s-.15.29-.9.79v10c0,.06.06,4.56.09,7.54-.06.47-.38.61-1.42.61-.47,0-.58-.08-.61-.4V40.07h-5.81V42c0,.38-.26.47-1.27.47-.55,0-.7-.06-.76-.41.09-3,.12-5.14.12-9.78,0-7.54,0-9.92-.12-11a20.66,20.66,0,0,1,2.3,1.39ZM188.42,39.4h5.81V23.3h-5.81Z"/><path class="cls-2" d="M218.38,20.75c.52-.61.67-.78,1.22-1.36.93.69,1.22.9,2.15,1.56.14.15.2.23.2.32,0,.26-.46.47-1.6.7-3.07,4.29-5.42,6.64-8.93,8.84a28.16,28.16,0,0,1-9,3.8l-.12-.4A35.4,35.4,0,0,0,211.59,29a27,27,0,0,0,6.79-7.54h-6.32a26.61,26.61,0,0,1-2.7,2.61A14.28,14.28,0,0,1,212,25.42a1.44,1.44,0,0,1,.67,1.16c0,.61-.47,1.42-.84,1.42-.21,0-.29-.12-.47-.43s-.69-1.25-1-1.74a4.6,4.6,0,0,0-1.4-1.51,24.24,24.24,0,0,1-6.2,3.71l-.21-.32a31.39,31.39,0,0,0,6.7-5.68,14.85,14.85,0,0,0,3.08-4.88,29.54,29.54,0,0,1,2.87,1c.15.06.2.14.2.23a.5.5,0,0,1-.08.2,1.21,1.21,0,0,1-.44.15,3,3,0,0,0-.78.23c-.64.81-.84,1-1.48,1.77ZM217.19,31a26.4,26.4,0,0,1-2.64,2.32c1.37.78,2.18,1.27,2.44,1.45.81.61,1,.93,1,1.59S217.47,38,217.1,38c-.15,0-.24-.12-.38-.41s-.81-1.56-1.19-2.2a7.8,7.8,0,0,0-1.36-1.77,32,32,0,0,1-8,4.26l-.17-.35c5.74-3.16,10.09-7,12-10.73,2.15.55,2.76.78,2.76,1.05s-.35.46-1.3.66c-.73.84-1,1.11-1.63,1.83H224A12,12,0,0,1,225.43,29c1,.66,1.25.87,2.15,1.53.11.09.17.15.17.24s0,.2-1.54.72a22,22,0,0,1-4.64,5.66,25.44,25.44,0,0,1-10.79,5.68,54,54,0,0,1-6.55,1.25l-.15-.44a43,43,0,0,0,11.52-4.17,24.64,24.64,0,0,0,6.55-5.57A19.52,19.52,0,0,0,224,31Z"/><path class="cls-2" d="M252.92,27.62a22.06,22.06,0,0,1,1.74-2,20.71,20.71,0,0,1,2.7,2.15.51.51,0,0,1,.14.26c0,.14-.14.23-.34.23H246.28v5.66H254a27.94,27.94,0,0,1,1.86-2.12c1.19,1,1.57,1.28,2.7,2.35a.39.39,0,0,1,.11.17c0,.15-.17.26-.34.26h-12l.09,9.11c0,.23-.09.32-.29.35a8.54,8.54,0,0,1-1.43.12c-.46,0-.55-.06-.58-.38.12-4.93.12-4.93.12-9.2h-8.67a14.37,14.37,0,0,0-2.93.15l-.26-1.13a15.63,15.63,0,0,0,3.27.32h8.59V28.29h-6.76a26.13,26.13,0,0,0-3.31.18L234,27.33a25,25,0,0,0,3.86.29h6.35V22.78c0-1.83,0-2-.12-4.9,2.76.32,3.46.46,3.46.84s-.27.43-1.28.75v8.15Zm-17-8.55a23.12,23.12,0,0,1,3.83,3.36,2.56,2.56,0,0,1,.87,1.8c0,1-.61,2.2-1.16,2.2-.26,0-.43-.2-.64-.87a27.52,27.52,0,0,0-1.19-3,24.33,24.33,0,0,0-2-3.22Zm12.21,7.74a41.55,41.55,0,0,0,4.21-8c1.13.4,2.47.92,2.84,1.1.21.09.29.17.29.32s-.37.43-1.48.52a36.16,36.16,0,0,1-5.59,6.32Z"/><path class="cls-2" d="M266.17,42.94c0,.26-.06.35-.29.43a5.93,5.93,0,0,1-1.19.12c-.4,0-.52-.09-.52-.46.06-2.47.09-8.3.09-15.35,0-3.28-.06-7.22-.15-8.41a14.77,14.77,0,0,1,2.44,1.25h17.34c.56-.64.73-.84,1.31-1.42.84.6,1.1.81,1.91,1.42a.49.49,0,0,1,.24.4c0,.24-.15.35-1.11.84v6c0,5.89.08,11,.23,15.08-.09.41-.47.55-1.51.55-.49,0-.67-.08-.7-.43v-2.2H266.17Zm8.07-13.2V21.18h-8.07v8.56Zm0,.7h-8.07V40.1h8.07Zm10-9.26h-8.12v8.56h8.12Zm-8.12,9.26V40.1h8.12V30.44Z"/><path class="cls-2" d="M293.63,35.08c.05.44.08.89.09,1.33a8.85,8.85,0,0,1-.58,3.6c-.38.84-.84,1.33-1.28,1.33s-.58-.58-.58-1.45c0-.61.09-.78.64-1.24a4.77,4.77,0,0,0,1.31-3.57Zm7.52-11.34c.52-.64.66-.84,1.19-1.42A20.67,20.67,0,0,1,304.28,24a1,1,0,0,1,.12.23c0,.12-.09.14-.32.14h-4.33v3.48H301c.58-.63.76-.81,1.37-1.45.84.76,1.07,1,1.82,1.74a.72.72,0,0,1,.12.21c0,.11-.12.17-.35.17h-4.18v3.86h1.86c.61-.61.61-.61,1.13-1.1.61.55.81.72,1.39,1.27.21.27.27.35.27.44s-.12.26-.93.67c-.18,4-.67,7.07-1.34,8.32a3.33,3.33,0,0,1-1.33,1.22,6.92,6.92,0,0,1-2.06.41c-.2-1.31-.41-1.45-3.22-2.15l.06-.46c1.45.23,3.8.52,4.46.52.44,0,.73-.41,1-1.42a31,31,0,0,0,.76-7.05h-6.5v.61c0,.34-.29.43-1.25.43-.43,0-.58-.09-.58-.32v-.11c.09-2.61.12-3.72.12-7.31,0-5.31,0-6.47-.15-8.07.84.5,1.1.64,2,1.25H301c.55-.73.73-1,1.31-1.68a20.15,20.15,0,0,1,2.23,2,.43.43,0,0,1,.14.23c0,.12,0,.15-.34.15h-4.62v3.51ZM295,34.93c1.07,1.8,1.39,2.61,1.39,3.6,0,.55-.64,1.39-1.07,1.39-.24,0-.35-.2-.35-.64v-.17c.06-.93.08-1.39.08-1.62a7.87,7.87,0,0,0-.37-2.41Zm3.1-14.7h-2.84v3.51h2.84Zm-2.84,4.17v3.48h2.84V24.4Zm0,4.15v3.86h2.84V28.55Zm1.56,5.95c1.31,1.27,2.09,2.43,2.09,3.1s-.46,1.37-.84,1.37c-.17,0-.29-.12-.32-.41a11.32,11.32,0,0,0-1.22-3.89Zm2-.41c1.36,1.16,2.09,2.06,2.09,2.67s-.47,1.22-.82,1.22c-.11,0-.2-.12-.26-.38s-.14-.64-.29-1.16a6.07,6.07,0,0,0-1-2.12Zm8.81-4.87a30.43,30.43,0,0,1-1,7.89,17.84,17.84,0,0,1-2.29,5A9.59,9.59,0,0,1,302.63,44l-.32-.26a18.32,18.32,0,0,0,2.87-7.43,60.31,60.31,0,0,0,.69-8.9c0-5.63,0-7.89-.08-9.31.93.61,1.22.78,2.14,1.42h6.5c.49-.52.64-.7,1.16-1.25a18,18,0,0,1,1.63,1.34c.23.17.32.32.32.43s-.06.21-1.05.67v7.86a13.84,13.84,0,0,0,.06,1.65v.18c0,.35-.38.46-1.54.46-.38,0-.46-.06-.49-.32V29.22H311a13.76,13.76,0,0,0,1.85,6.44,14.92,14.92,0,0,0,3.69,4.26,8.43,8.43,0,0,0,2.52,1.4v.43c-1.13.23-1.33.41-2.2,1.8A13.87,13.87,0,0,1,313.07,39a20,20,0,0,1-2.44-7.39c-.06-.64-.11-1-.23-2.41Zm6.94-.67V20.23h-6.82V22.4c0,2.06,0,3.8-.12,6.15Z"/><path class="cls-3" d="M100.59,252.57a3.75,3.75,0,0,1-.15.82,2.6,2.6,0,0,1-.1.4h5.35v2.39a11.65,11.65,0,0,1-.9,3.72,8.89,8.89,0,0,1-1.77,2.63,12.13,12.13,0,0,1-4.21,2.78,12,12,0,0,1-1.54.49,6,6,0,0,1-.61.12v-2.53l.54-.14a9.38,9.38,0,0,0,1.35-.47,9.52,9.52,0,0,0,1.72-1,7.37,7.37,0,0,0,1.64-1.61H99v-2.32h3.82a8.19,8.19,0,0,0,.3-1.77H99.47a10.59,10.59,0,0,1-1.88,2.66A16.47,16.47,0,0,1,96.11,260a4.33,4.33,0,0,1-.61.41v-3a3.07,3.07,0,0,0,.35-.28,5.6,5.6,0,0,0,.78-.9,8.22,8.22,0,0,0,.86-1.53,9.77,9.77,0,0,0,.65-2.18Z"/><path class="cls-3" d="M107.48,260.26v-2.45h7.22v2.45Z"/><path class="cls-3" d="M116.27,256v-2.5h9.61v11.43h-9.61v-2.45h7.06V256Z"/><path class="cls-3" d="M138.44,252.93a14.52,14.52,0,0,1-1.6,2.57c-.63.8-1.21,1.5-1.73,2.09v8.22h-2.47V259.5a14.89,14.89,0,0,1-4.08,2.35l-.67.22v-2.51l.8-.32a16.61,16.61,0,0,0,2-1.06,14.3,14.3,0,0,0,2.52-2,14.67,14.67,0,0,0,2.43-3.21Z"/><path class="cls-3" d="M140.16,255.75v-2.52h8.32v-1.06h1.08v2.25h-.68a16.81,16.81,0,0,1-.74,2.17,20.9,20.9,0,0,1-1.5,2.8c.47.61.94,1.17,1.4,1.68a11.14,11.14,0,0,0,1.2,1.18l.53.43v3c-.57-.41-1.08-.8-1.54-1.19a18.39,18.39,0,0,1-1.46-1.4,20.09,20.09,0,0,1-1.52-1.8,16.75,16.75,0,0,1-1.95,2,15.46,15.46,0,0,1-1.83,1.39,12.25,12.25,0,0,1-1.36.78l-.53.24v-2.8a10.81,10.81,0,0,0,2.44-1.68,16.66,16.66,0,0,0,2-2.27,14.22,14.22,0,0,0,1.75-3.23Zm10-1.33v-2.25h1.08v2.25Z"/><path class="cls-3" d="M152,255.78v-2.5h9.05v-.93h1.08v2.25h-.55v1a10.69,10.69,0,0,1-.72,4,9.45,9.45,0,0,1-1.64,2.72,8,8,0,0,1-2,1.67,12.36,12.36,0,0,1-2,.9,10.47,10.47,0,0,1-1.56.39c-.4.05-.6.08-.61.07v-2.5a11.48,11.48,0,0,0,2.17-.54,6.48,6.48,0,0,0,1.83-1.12,5.64,5.64,0,0,0,1.5-2.05,9.05,9.05,0,0,0,.65-3.29Zm10.74-1.18v-2.25h1.07v2.25Z"/><path class="cls-3" d="M164.11,265.14c.33-.7.63-1.41.89-2.14a17.92,17.92,0,0,0,.61-2.37,15.85,15.85,0,0,0,.25-3v-4.44h2.36v4.44a20.71,20.71,0,0,1-.38,4.16,14.39,14.39,0,0,1-.71,2.51,5.07,5.07,0,0,1-.38.82Zm10.83-2.43a7.61,7.61,0,0,1-1.75,1.55,8.52,8.52,0,0,1-1.72.83,8.07,8.07,0,0,1-1.37.34,3.66,3.66,0,0,1-.57.05V253h2.38v9a6.43,6.43,0,0,0,1-.54,6,6,0,0,0,1-.8c.31-.3.65-.66,1-1.07Z"/><path class="cls-3" d="M176.59,260.26v-2.45h7.22v2.45Z"/><path class="cls-3" d="M194.17,258.85a4.44,4.44,0,0,0-.54-2.08,2,2,0,0,0-1.54-1c0,1-.09,2-.19,3.06a13.13,13.13,0,0,1-.59,2.85,6.19,6.19,0,0,1-1.09,2.06,2,2,0,0,1-1.66.73,2.82,2.82,0,0,1-1.4-.47,3.42,3.42,0,0,1-1.12-1.48,7,7,0,0,1-.48-2.8,7.55,7.55,0,0,1,.71-3.14,6,6,0,0,1,1.79-2.29,4.86,4.86,0,0,1,2.55-1,5.8,5.8,0,0,1,2.82.44,4.71,4.71,0,0,1,2.12,1.88,7,7,0,0,1,.92,3.4,8.05,8.05,0,0,1-.46,3,5.05,5.05,0,0,1-1.28,2,4.85,4.85,0,0,1-1.71,1,5.38,5.38,0,0,1-1.69.31V263a2.62,2.62,0,0,0,2.09-1.09A5,5,0,0,0,194.17,258.85ZM188.61,262c.24,0,.44-.2.6-.61a7.42,7.42,0,0,0,.39-1.61c.1-.65.17-1.33.22-2s.07-1.36.06-1.94a2.21,2.21,0,0,0-1.15.89,4.82,4.82,0,0,0-.71,1.48,6.64,6.64,0,0,0-.27,1.53,4,4,0,0,0,.2,1.72A.87.87,0,0,0,188.61,262Z"/><path class="cls-3" d="M198.34,258.39c.42-.71.77-1.32,1.07-1.82s.57-1,.86-1.45l.65-1.08a2.14,2.14,0,0,1,.62-.65,1.57,1.57,0,0,1,.55-.23h.24a2,2,0,0,1,.77.18,1.58,1.58,0,0,1,.56.53l.74,1.13,1.28,1.94,1.41,2.13,1.61,2.45V266q-5.92-9.09-6-9.31a1,1,0,0,0-.25-.29h-.14a1,1,0,0,0-.22.28c-.1.12-.28.41-.56.85s-.59,1-.94,1.55-.8,1.35-1.36,2.3l-.85,1.44Zm7.69-2.85v-2.25h1.08v2.25Zm1.69,0v-2.25h1.08v2.25Z"/><path class="cls-3" d="M210.45,255.78v-2.44h4.88v2.44Zm10.39.18a14.2,14.2,0,0,1-2.09,4.66,11.4,11.4,0,0,1-2.73,2.77,10,10,0,0,1-2.68,1.39,9.71,9.71,0,0,1-2.07.47c-.27,0-.55.05-.82.06v-2.55h.64a8.83,8.83,0,0,0,1.61-.32,6.72,6.72,0,0,0,2.05-1.08,10,10,0,0,0,2-2,12,12,0,0,0,1.62-3.36Z"/><path class="cls-3" d="M222.31,259.82v-2.43h4.19v-1.77h-3.75v-2.44h9.36v2.44H229v1.77h3.58v2.43H229a5.21,5.21,0,0,1-.88,2.58,7.45,7.45,0,0,1-3.36,2.7,12.16,12.16,0,0,1-1.44.48l-.59.13v-2.59a3.82,3.82,0,0,0,.57-.11,5.89,5.89,0,0,0,1.23-.47,3.79,3.79,0,0,0,1.25-1,3.39,3.39,0,0,0,.7-1.72Z"/><path class="cls-3" d="M244.44,253.39v2.39a6.35,6.35,0,0,0-2.68.82,7.35,7.35,0,0,0-1.89,1.53,4.35,4.35,0,0,0-1,1.66,2.32,2.32,0,0,0,0,1.7,2,2,0,0,0,.91.92,2.8,2.8,0,0,0,1.09.32h1.2a4.81,4.81,0,0,0,1-.09l.47-.05v2.5c-.58.07-1.08.11-1.52.12s-.89,0-1.36,0a6.21,6.21,0,0,1-1.53-.31,4.79,4.79,0,0,1-1.59-.85,3.69,3.69,0,0,1-1.09-1.55,4.86,4.86,0,0,1-.21-2.39,5.65,5.65,0,0,1,.6-1.79,6.66,6.66,0,0,1,.94-1.35,11.63,11.63,0,0,1,.86-.86,2.27,2.27,0,0,1,.4-.29h-4.94v-2.39ZM241.66,259v-2.25h1.07V259Zm1.68,0v-2.25h1.08V259Z"/><path class="cls-3" d="M101.27,283.74v-9.89h2.1v3.2a8,8,0,0,1,1.1-1.61,5.09,5.09,0,0,1,1.46-1.15c0-.29-.05-.58-.08-.88s-.07-.61-.11-.94h2.1c.06.52.11,1,.14,1.49a3.56,3.56,0,0,1,2.17,1,5,5,0,0,1,1.14,2,7.34,7.34,0,0,1,.33,2.18,5.51,5.51,0,0,1-.42,2.16,4.74,4.74,0,0,1-1.35,1.84,4,4,0,0,1-2.34.86,8.44,8.44,0,0,1-.74,1.75h-2.4a11.54,11.54,0,0,0,.9-2.11,6.64,6.64,0,0,1-1.29-.87V280a6.65,6.65,0,0,0,.92.84,3,3,0,0,0,1,.46c.08-.55.14-1.21.18-2v-2.47a5.85,5.85,0,0,0-1,1.05,11.34,11.34,0,0,0-.91,1.38c-.28.49-.52,1-.74,1.44v3.05Zm8.32-4.74a3.19,3.19,0,0,0-.38-1.63,1.94,1.94,0,0,0-1.08-.91v2.47a20.74,20.74,0,0,1-.23,2.61,1.87,1.87,0,0,0,1.3-.88A3.11,3.11,0,0,0,109.59,279Z"/><path class="cls-3" d="M113.35,276.47a16.23,16.23,0,0,1,2.37-.73,11.17,11.17,0,0,1,2.3-.25,5.59,5.59,0,0,1,2.28.48,3.55,3.55,0,0,1,1.61,1.36,4.33,4.33,0,0,1,.63,2.24,4.61,4.61,0,0,1-1.75,4.16q-1.86,1.38-5.8,1.4v-2a9.61,9.61,0,0,0,3.24-.39A3.18,3.18,0,0,0,120,281.5a3.36,3.36,0,0,0,.47-1.88,1.92,1.92,0,0,0-.58-1.41,3.07,3.07,0,0,0-2-.64,5.35,5.35,0,0,0-1.49.15c-.48.12-1,.26-1.43.41s-.85.3-1.14.43a2.48,2.48,0,0,0-.44.2Z"/><path class="cls-3" d="M124.57,276.65v-2.22h2.16a12.23,12.23,0,0,1,.11-1.27,3.05,3.05,0,0,0,0-.47H129a16.34,16.34,0,0,1-.14,1.74h2.22v1.9h4v2.29c-.6,0-1.26-.05-2-.05h-3v-2h-1.46c-.23,1.79-.47,3.33-.73,4.62s-.47,2.29-.64,3-.26,1.06-.27,1.06h-2.37c.45-1.54.82-3.06,1.12-4.58s.52-2.88.69-4.1Zm4.73,3.76h2.18a3.47,3.47,0,0,0-.68,1.88q.06.73,1.47.75h1.53l1.52-.09v2.41c-.66.05-1.26.08-1.82.1s-1.2,0-1.91,0a3.76,3.76,0,0,1-1.8-.46,2.28,2.28,0,0,1-.92-1,3,3,0,0,1-.27-1.25,4.06,4.06,0,0,1,.18-1.2A5.33,5.33,0,0,1,129.3,280.41Z"/><path class="cls-3" d="M137.85,272.75h2.35v.43a9.19,9.19,0,0,1-.12,1c-.05.38-.09.88-.13,1.36a6.52,6.52,0,0,1,1.18-1.8,2.32,2.32,0,0,1,1.58-.73,2.79,2.79,0,0,1,2.75,1.56,10,10,0,0,1,.85,4.57,6,6,0,0,1-1.78,4.65,7.37,7.37,0,0,1-5.24,1.64v-2.36a7,7,0,0,0,3-.6,2.89,2.89,0,0,0,1.35-1.41,4.85,4.85,0,0,0,.36-1.92,9,9,0,0,0-.27-2.64c-.2-.67-.53-1-1-1a1.52,1.52,0,0,0-.92.41,3.12,3.12,0,0,0-.72,1c-.18.39-.35.77-.5,1.15a6.12,6.12,0,0,0-.32.94c-.06.18-.11.43-.18.75a5.81,5.81,0,0,0-.09,1.18v.65h-2.41V281c0-.4-.05-.9-.07-1.52s0-1.27,0-2,.08-1.33.14-2,.13-1.33.19-1.84A3.43,3.43,0,0,0,137.85,272.75Z"/><path class="cls-3" d="M149,276.41v-2.2h2.82v-1.56H154v1.56h1.64c-.19-.4-.46-.9-.82-1.5h2.43c.75,1.54,1.27,2.71,1.57,3.52l.46,1.23H157l-.45-1.29a12.33,12.33,0,0,0-.68-1.42v1.66H154v1.2l.34-.06a8.36,8.36,0,0,1,1.5.13,4.48,4.48,0,0,1,1.5.57,3.11,3.11,0,0,1,1.15,1.21,5,5,0,0,1,0,4.15,3.31,3.31,0,0,1-1.12,1.23,4.32,4.32,0,0,1-1.42.59,6.71,6.71,0,0,1-1.34.15v-2.39a4,4,0,0,0,1.24-.16,1.09,1.09,0,0,0,.66-.53,2.14,2.14,0,0,0,.18-1,1.52,1.52,0,0,0-.63-1.32,3,3,0,0,0-1.89-.4H154v2.64a3.4,3.4,0,0,1-.51,1.89,2.16,2.16,0,0,1-1,.79,2.61,2.61,0,0,1-1,.14,2.54,2.54,0,0,1-1.31-.39,3.25,3.25,0,0,1-1.11-1.13,3.58,3.58,0,0,1-.5-1.77,3.64,3.64,0,0,1,.38-1.75,4.57,4.57,0,0,1,1.14-1.41,5.43,5.43,0,0,1,1.68-.93v-1.5Zm2.82,6.28v-2.4a2,2,0,0,0-.82.7,1.78,1.78,0,0,0-.3,1,.85.85,0,0,0,.15.58.88.88,0,0,0,.37.32.73.73,0,0,0,.38.09h.11c.11,0,0-.14.06-.29Z"/><path class="cls-3" d="M173.35,280.83l1.67,1.41c-.56.36-1.4.84-2.53,1.44a16.75,16.75,0,0,0,3.21.64,6.4,6.4,0,0,0-.77.95,7.25,7.25,0,0,0-.63,1.08,10.5,10.5,0,0,1-5.62-2.49v1.71c-1.82.18-4,.39-6.61.61l-.31-2.13,1.59-.11v-7.33c-.66.34-1.17.57-1.51.71a9.12,9.12,0,0,0-.6-1,8.47,8.47,0,0,0-.75-.93,16.88,16.88,0,0,0,3.68-1.9,12.89,12.89,0,0,0,2.73-2.43h2.37a14.23,14.23,0,0,0,6.75,4.17,12.93,12.93,0,0,0-1.48,2.06,14,14,0,0,1-1.47-.69V281Zm-3.9-5.29h1.78a15,15,0,0,1-3-2.44,16,16,0,0,1-3,2.44H167v-1h2.41Zm-3.77,1.78v.54h5.08v-.54Zm0,2.75h5.08v-.58h-5.08Zm0,1.78v1.9l1.34-.1,1.35-.1a9.37,9.37,0,0,1-1.24-1.7Zm6.23,0h-2.42a4.75,4.75,0,0,0,1,.84c.21-.11.69-.39,1.42-.84Z"/><path class="cls-3" d="M191.77,280.18v1.75H190.1v2.78h-2.37v-.66H185.4v.19a2.68,2.68,0,0,1-.21,1.19,1.52,1.52,0,0,1-.73.64,9.12,9.12,0,0,1-2.94.31,5.81,5.81,0,0,0-.75-1.78h1.86a.35.35,0,0,0,.39-.3V284h-4.68V282.4H183v-.47h-6.23v-1.75H183v-.44h-4.57v-1.53H183v-.49h-4.2v-3.39H183v-.47h-5.84v-1.81H183v-.92h2.38v.92h6v1.81h-6v.47h4.4v3.39h-4.4v.49h4.7v2ZM181,276.3h2v-.55h-2Zm6.41-.55h-2v.55h2Zm-2,4v.44h2.33v-.44Zm2.33,2.66v-.47H185.4v.47Z"/><path class="cls-3" d="M193.57,275.65v-2.52h9a14.6,14.6,0,0,1-1,3.36,19.82,19.82,0,0,1-1.5,2.8c.47.61.94,1.17,1.4,1.68a11.24,11.24,0,0,0,1.21,1.18l.52.43v3c-.56-.41-1.07-.8-1.53-1.19a17.72,17.72,0,0,1-1.47-1.4,20.09,20.09,0,0,1-1.52-1.8,16.67,16.67,0,0,1-1.94,2,14.55,14.55,0,0,1-1.84,1.39,12.25,12.25,0,0,1-1.36.78l-.53.24v-2.8a11.1,11.1,0,0,0,2.45-1.68,18,18,0,0,0,2-2.27,14.22,14.22,0,0,0,1.75-3.23Z"/><path class="cls-3" d="M209.85,272.47a3.75,3.75,0,0,1-.15.82,3.26,3.26,0,0,1-.1.4H215v2.39a11.65,11.65,0,0,1-.9,3.72,8.73,8.73,0,0,1-1.78,2.63,12,12,0,0,1-5.75,3.27,3.14,3.14,0,0,1-.61.12v-2.53l.55-.14a8.8,8.8,0,0,0,3.06-1.47,7.37,7.37,0,0,0,1.64-1.61h-2.89v-2.32h3.83a8.19,8.19,0,0,0,.3-1.77h-3.67a10.59,10.59,0,0,1-1.88,2.66,16.47,16.47,0,0,1-1.48,1.29,4.33,4.33,0,0,1-.61.41v-3a3.07,3.07,0,0,0,.35-.28,6.62,6.62,0,0,0,.78-.9,8.83,8.83,0,0,0,.86-1.53,9.77,9.77,0,0,0,.65-2.18Z"/><path class="cls-3" d="M227.18,272.83a14.52,14.52,0,0,1-1.6,2.57c-.63.8-1.21,1.5-1.73,2.09v8.22h-2.47V279.4a14.89,14.89,0,0,1-4.08,2.35l-.67.22v-2.51l.8-.32a16.61,16.61,0,0,0,2-1.06,14.74,14.74,0,0,0,2.53-2,15.11,15.11,0,0,0,2.42-3.21Z"/><path class="cls-3" d="M228.2,285a20.68,20.68,0,0,0,.87-2.13,16.13,16.13,0,0,0,.6-2.37,15.86,15.86,0,0,0,.26-3v-4.44h2.36v4.44a20.71,20.71,0,0,1-.38,4.16,17,17,0,0,1-.71,2.51,5.07,5.07,0,0,1-.38.82Zm10.8-2.39a7.38,7.38,0,0,1-1.75,1.55,8.14,8.14,0,0,1-3.08,1.17,3.66,3.66,0,0,1-.57.05V272.94H236V282a6.43,6.43,0,0,0,1-.54,6,6,0,0,0,1-.8,13.42,13.42,0,0,0,1-1.07Z"/></g><path class="cls-4" d="M34.81,337v-15H39.6a6.91,6.91,0,0,1,2.78.41,3.73,3.73,0,0,1,2.23,3.55,3.83,3.83,0,0,1-1.53,3.15A4,4,0,0,1,45,332.69C45,337,41.09,337,39.8,337Zm3-9.07h2.13a1.53,1.53,0,0,0,1.67-1.56c0-.54-.21-1.55-1.82-1.55h-2Zm0,6.21h2.13a1.78,1.78,0,0,0,2.08-1.8c0-.75-.28-1.85-2-1.85H37.8Z"/><path class="cls-4" d="M56.69,334.12V337h-11a80.68,80.68,0,0,0,6.21-7.56,5.32,5.32,0,0,0,1.26-2.92,1.84,1.84,0,0,0-1.89-2c-1.91,0-3,1.72-3.44,2.45L46.53,324a5.83,5.83,0,0,1,4.75-2.37,4.57,4.57,0,0,1,4.89,4.75c0,2.41-1.26,4.1-4.31,7.73Z"/><path class="cls-4" d="M58.22,328.07a10.89,10.89,0,0,0,4.34-5.52h9.65c-.82,10.93-6.92,14.07-11.56,15.55l-1.4-2.69a13,13,0,0,0,6.72-3.8,24.71,24.71,0,0,0-4.08-2.88A13,13,0,0,1,60,330.34Zm6.19-2.78c-.48.82-.67,1.1-.95,1.51a20.54,20.54,0,0,1,4.1,2.6,12,12,0,0,0,1.3-4.11Z"/><path class="cls-4" d="M83.82,337.86H80.89v-7.52a30.39,30.39,0,0,1-5.43,2.71l-1.34-2.69a25.71,25.71,0,0,0,12-8.76l2.47,1.85a31.94,31.94,0,0,1-4.81,4.77Z"/><path class="cls-4" d="M100.77,323l2.88,3.54c-.47,2.62-1.13,6.34-5,9.07a14.22,14.22,0,0,1-5.18,2.25l-1.27-2.81c6.7-1.31,8.1-5.41,8.59-9.05H91.11v-3Zm5.8-.09a2.32,2.32,0,1,1-2.32-2.47A2.39,2.39,0,0,1,106.57,322.93Zm-3.45,0a1.18,1.18,0,0,0,1.13,1.2,1.2,1.2,0,1,0-1.13-1.2Z"/><path class="cls-4" d="M118.38,324.26v3.31h-3.27v-3.31Zm0,7.91v3.31h-3.27v-3.31Z"/><path class="cls-4" d="M131.54,318.4h3.35V337h-3.76V322.49L128,324.78l-.46-3.51Z"/><path class="cls-4" d="M145.15,332.91v3.86c0,2.38-1.5,3-4.05,3.05V338c1.55,0,1.78-.46,1.81-1.13H141.1v-3.91Z"/><path class="cls-4" d="M148.36,332.5a8.7,8.7,0,0,0,4.57,1.31c.46,0,3.56,0,3.56-2.84a2.56,2.56,0,0,0-2.75-2.68,2.72,2.72,0,0,0-2.19.93h-3V318.4H159v3.54h-7v3.16a6.53,6.53,0,0,1,2.06-.32,5.85,5.85,0,0,1,6.19,6.12c0,3.14-1.92,6.45-7.18,6.45a11.92,11.92,0,0,1-5.57-1.34Z"/><path class="cls-4" d="M162.73,323.07c0-2.86,2.28-5,5.61-5s5.61,2.18,5.61,5a4.66,4.66,0,0,1-1.64,3.58,5.45,5.45,0,0,1,2.52,4.74c0,3.58-2.93,6-6.49,6s-6.49-2.36-6.49-6a5.45,5.45,0,0,1,2.52-4.74A4.6,4.6,0,0,1,162.73,323.07Zm8.36,8.18a2.76,2.76,0,0,0-5.5,0,2.76,2.76,0,0,0,5.5,0Zm-.67-8.06a2.08,2.08,0,0,0-4.16,0,2.08,2.08,0,0,0,4.16,0Z"/><path class="cls-4" d="M187.84,320.9a16.91,16.91,0,0,1,0,13.61,5.8,5.8,0,0,1-10,0c-.81-1.34-1.44-3.38-1.44-6.82a13.21,13.21,0,0,1,1.44-6.79,5.77,5.77,0,0,1,10,0Zm-7.7,6.79c0,3.56.7,6.12,2.71,6.12s2.7-2.63,2.7-6.12c0-3.21-.58-6.12-2.7-6.12S180.14,324.25,180.14,327.69Z"/><path class="cls-4" d="M197.82,326.48h7.34a64.31,64.31,0,0,1-.73,9.66c-.47,2.3-1.72,2.58-2.92,2.58h-3L198,335.8h2.47c.9,0,1.16-.26,1.37-1.25a36.93,36.93,0,0,0,.41-5.35h-4.64a13.28,13.28,0,0,1-5.65,9.57l-1.74-2.61c2.24-1.39,4.83-3.69,4.83-10.07v-1.83h-4.48v-2.73h15.89v2.73h-8.65Z"/><path class="cls-4" d="M210.69,338.72H208V321.51h14.69v15.17c0,2-1.4,2-2,2h-3.08l-.47-2.9h2.15c.64,0,.64-.17.64-.75v-3.2h-9.28ZM214,324.26h-3.29v4.95H214Zm6,4.95v-4.95h-3.33v4.95Z"/><path class="cls-4" d="M228.12,328.76v2.07h8.3v.9h-8.3v2.07l-3.84-2.52Z"/><path class="cls-4" d="M241.67,325.08h1.56V337h-1.76V327l-2.19,1.55-.22-1.65Z"/><path class="cls-4" d="M249.84,334.79v2c0,1.38-.76,1.7-2.14,1.76v-.93c.91,0,1-.33,1-.75h-1v-2.13Z"/><path class="cls-4" d="M259.67,325.08v1.68L254,337H252l5.79-10.28h-6.34v-1.62Z"/><path class="cls-4" d="M262.1,335.28a3.71,3.71,0,0,0,1.57.32c2.76,0,3.48-2.69,3.66-4a3.88,3.88,0,0,1-2.74,1.15,3.66,3.66,0,0,1-3.69-3.84,3.93,3.93,0,0,1,4-4.08c2.23,0,4.17,1.68,4.17,5.31,0,4.76-2.36,7.07-5.33,7.07a4.09,4.09,0,0,1-1.63-.3Zm2.76-4.06a2.33,2.33,0,0,0,2.37-2.34,2.31,2.31,0,1,0-4.61,0A2.2,2.2,0,0,0,264.86,331.22Z"/><path class="cls-4" d="M278.43,331c0,1.13,0,6.2-4,6.2s-4-5.07-4-6.18,0-6.2,4-6.2S278.43,329.87,278.43,331Zm-6.3,0c0,2.2.39,4.56,2.28,4.56s2.28-2.52,2.28-4.58-.36-4.56-2.28-4.56S272.13,328.92,272.13,331Z"/><path class="cls-4" d="M285,328.38c0,.11,0,.3,0,.48H291a46.5,46.5,0,0,1-.61,7.62,2.14,2.14,0,0,1-2,1.82h-2.49l-.27-1.65H288c.62,0,.86-.29,1-1.31a36.85,36.85,0,0,0,.36-4.95h-4.53a10.61,10.61,0,0,1-4.49,7.91l-1.09-1.47c2.08-1.38,4.14-3.27,4.14-8.52v-2h-3.86v-1.59H292.2v1.59H285Z"/><path class="cls-4" d="M295,338.31h-1.53v-13.6h11.71V336.9a1.24,1.24,0,0,1-1.35,1.41h-2.38l-.29-1.54h2c.45,0,.47-.17.47-.54v-3.68H295Zm3.54-12.13H295v4.92h3.54Zm5.1,4.92v-4.92h-3.6v4.92Z"/></svg>