<svg id="レイヤー_1" data-name="レイヤー 1" xmlns="http://www.w3.org/2000/svg" viewBox="0 0 340 396"><defs><style>.cls-1{fill:none;}.cls-2{fill:#fff;}.cls-3{fill:#40220f;}.cls-4{fill:#f5e973;}</style></defs><title>tb09</title><rect class="cls-1" width="340" height="396"/><g id="_09" data-name=" 09"><path class="cls-2" d="M23.33,38.58a12.94,12.94,0,0,0,2.61-4.25,12.28,12.28,0,0,0,.87-3.68.89.89,0,0,0-.47-.88,14.65,14.65,0,0,0-4,1.14,1.12,1.12,0,0,1-.56.18,1.62,1.62,0,0,1-1.13-.69A1.68,1.68,0,0,1,20,29.32a.8.8,0,0,1,.07-.34,1.69,1.69,0,0,0,1.47.83,18.78,18.78,0,0,0,3.08-.47c1.1-.18,3.39-.47,5.55-.67a8.52,8.52,0,0,0,1.4-.3,1,1,0,0,1,.45-.09,2.2,2.2,0,0,1,1,.27c.5.23.84.57.84.83s-.19.36-.5.36a1.74,1.74,0,0,1-.45-.06,17.63,17.63,0,0,0-2.9-.23,21.48,21.48,0,0,0-3,.18c.83.45,1.19.83,1.19,1.24A11.26,11.26,0,0,1,27,34.4a10.61,10.61,0,0,1-3.56,4.37ZM23,24.68a2.94,2.94,0,0,0,2.16,1,9.86,9.86,0,0,0,3.78-.88,1,1,0,0,1,.54-.15c.47,0,1.23.58,1.23.94s-.22.32-.94.48a24.88,24.88,0,0,1-4.12.47,3.07,3.07,0,0,1-2.92-1.65ZM31.33,24a8.74,8.74,0,0,1,2.12,1.26,1.29,1.29,0,0,1,.55,1c0,.54-.2,1-.45,1s-.25-.13-.4-.43a8,8,0,0,0-2-2.67Zm1.58-1a7.2,7.2,0,0,1,2.16,1c.5.36.65.61.65,1.06s-.16.87-.4.87-.25-.09-.39-.36a6.85,6.85,0,0,0-2.16-2.38Z"/><path class="cls-2" d="M40.92,30.08a15,15,0,0,0,2.57-.34,2.59,2.59,0,0,0,.76-.24,1,1,0,0,1,.23-.12.5.5,0,0,1,.27-.08,1.84,1.84,0,0,1,.9.62c.29.3.36.43.36.61a.35.35,0,0,1-.12.29,3.2,3.2,0,0,0-.42,1.24c-.27,1-.65,2.61-.77,3.17l.74-.06a5.27,5.27,0,0,0,1.89-.25.8.8,0,0,1,.3-.09,2.11,2.11,0,0,1,.76.31c.43.25.7.57.7.83a.4.4,0,0,1-.41.36,3.78,3.78,0,0,1-1-.2A10.22,10.22,0,0,0,45.54,36a18.44,18.44,0,0,0-4.68.55A7,7,0,0,0,39.3,37a.86.86,0,0,1-.47.14,1.45,1.45,0,0,1-1-.59,2.57,2.57,0,0,1-.59-1.19,1.08,1.08,0,0,1,.07-.31,1.67,1.67,0,0,0,1.37.85,5.56,5.56,0,0,0,1.22-.13c1.16-.18,2.06-.3,2.74-.37s.74-.09,1.1-.15a48.33,48.33,0,0,0,.7-4.93v-.07a17.65,17.65,0,0,0-2.16.46,7.09,7.09,0,0,0-1,.38,1.07,1.07,0,0,1-.43.09c-.33,0-.63-.25-.9-.72a2.1,2.1,0,0,1-.34-1,.58.58,0,0,1,.1-.36A1.42,1.42,0,0,0,40.92,30.08Z"/><path class="cls-2" d="M53.3,30a2.42,2.42,0,0,0,1.75.43l2.21-.06,7-.1a7.1,7.1,0,0,1,2.34.16.38.38,0,0,1,.26.36.53.53,0,0,1-.42.48c-.48.17-.92.18-4.32.22-1.67,0-5.8.13-6.43.16-.84.06-1,.07-1.29.24-.08,0-.2.05-.27.05-.27,0-.56-.2-.87-.59a3.25,3.25,0,0,1-.68-1.66c0-.25,0-.29.14-.41A1.63,1.63,0,0,0,53.3,30Z"/><path class="cls-2" d="M71.46,38.23a24.6,24.6,0,0,0,6-6.89,17.76,17.76,0,0,0,2.15-4.81c0-.18-.09-.23-.36-.23a27.22,27.22,0,0,0-3.34.61,18.91,18.91,0,0,0-3.29,1,2,2,0,0,1-.67.18c-.37,0-.84-.36-1.29-1A2.12,2.12,0,0,1,70.15,26a.58.58,0,0,1,.12-.36,1.75,1.75,0,0,0,1.68,1A42.29,42.29,0,0,0,77.08,26a6,6,0,0,0,2.09-.5c.22-.13.22-.13.36-.13a2.76,2.76,0,0,1,1.31.83c.38.36.56.65.56.89s-.05.25-.25.46a3.26,3.26,0,0,0-.63,1,26,26,0,0,1-5.19,7.28,17.73,17.73,0,0,1-3.7,2.68ZM84.75,24.64a1.8,1.8,0,1,1-1.8-1.8A1.81,1.81,0,0,1,84.75,24.64Zm-3.06,0a1.26,1.26,0,1,0,2.52,0h0a1.26,1.26,0,0,0-2.52,0Z"/><path class="cls-2" d="M100,29.52a16,16,0,0,1-2.68,3.06,22.52,22.52,0,0,1-5.44,3.67,4.12,4.12,0,0,0-1.35.87.57.57,0,0,1-.41.23c-.36,0-1.19-1.06-1.19-1.55,0-.09,0-.09.09-.32a10.64,10.64,0,0,0,.14-2.76c0-4-.09-5.72-.32-6.39-.16-.45-.45-.66-1.24-.93a.78.78,0,0,1,.55-.18,3.3,3.3,0,0,1,1.44.43c.71.38,1.07.74,1.07,1.1,0,.1,0,.1-.09.38a10.73,10.73,0,0,0-.24,1.78c-.09,1.1-.2,4.37-.2,5.71v.9a22.85,22.85,0,0,0,6.14-3.19,24.42,24.42,0,0,0,3.5-3Z"/><path class="cls-2" d="M103.31,28.75a9.24,9.24,0,0,1,3.15,1.06,1.28,1.28,0,0,1,.68,1.19c0,.46-.23.86-.5.86s-.29-.07-.56-.41A8.84,8.84,0,0,0,103.2,29Zm13.9-.45a21.28,21.28,0,0,1-2.69,3.07,40.27,40.27,0,0,1-6.82,5.24,13.58,13.58,0,0,0-1.39,1,.58.58,0,0,1-.41.18c-.36,0-.78-.34-1.28-1.08a3,3,0,0,1-.56-1.38.67.67,0,0,1,.16-.42c.35.69.85,1.12,1.35,1.12A12,12,0,0,0,109,34.26a41.75,41.75,0,0,0,8-6.13Zm-11.92-2.74c2.88.68,3.79,1.24,3.79,2.29,0,.5-.21.9-.48.9s-.2,0-1-1a8.37,8.37,0,0,0-2.47-2Zm7.38-1.44c1.92.84,2.79,1.56,2.79,2.32a1.5,1.5,0,0,1-.25.87.31.31,0,0,1-.22.09c-.2,0-.25-.06-.5-.55a9.18,9.18,0,0,0-2-2.55ZM114.34,23c2,.66,2.92,1.33,2.92,2.14,0,.52-.18.92-.43.92s-.27-.11-.47-.45a8,8,0,0,0-2.14-2.42Z"/><path class="cls-2" d="M123.41,38.58A12.89,12.89,0,0,0,126,34.33a12.28,12.28,0,0,0,.87-3.68.89.89,0,0,0-.47-.88,14.65,14.65,0,0,0-4,1.14,1.12,1.12,0,0,1-.56.18,1.62,1.62,0,0,1-1.13-.69,1.76,1.76,0,0,1-.61-1.08,1.28,1.28,0,0,1,.07-.34,1.69,1.69,0,0,0,1.48.83,18.83,18.83,0,0,0,3.07-.47c1.1-.18,3.39-.47,5.55-.67a8.52,8.52,0,0,0,1.4-.3,1,1,0,0,1,.45-.09,2.2,2.2,0,0,1,1,.27c.5.23.85.57.85.83s-.2.36-.51.36a1.74,1.74,0,0,1-.45-.06,17.63,17.63,0,0,0-2.9-.23,21.48,21.48,0,0,0-3,.18c.83.45,1.19.83,1.19,1.24a11,11,0,0,1-1.15,3.53,10.63,10.63,0,0,1-3.57,4.37Zm-.34-13.9a2.94,2.94,0,0,0,2.16,1A9.85,9.85,0,0,0,129,24.8a1,1,0,0,1,.54-.15c.47,0,1.23.58,1.23.94s-.22.32-.94.48a24.88,24.88,0,0,1-4.12.47,3.07,3.07,0,0,1-2.92-1.65Zm8.34-.71a8.74,8.74,0,0,1,2.12,1.26,1.26,1.26,0,0,1,.56,1.08c0,.54-.2,1-.45,1s-.25-.13-.4-.43a8,8,0,0,0-2-2.67ZM133,23a7.2,7.2,0,0,1,2.16,1c.51.36.65.61.65,1.06s-.16.87-.4.87-.25-.09-.39-.36a6.76,6.76,0,0,0-2.16-2.38Z"/><path class="cls-2" d="M138.76,25.79a10.21,10.21,0,0,1,3.48,1.35,1.4,1.4,0,0,1,.61,1.23c0,.59-.2,1-.5,1s-.29-.09-.78-.72A9.52,9.52,0,0,0,138.64,26Zm12.81,1a18.89,18.89,0,0,1-3.78,4.84,35.64,35.64,0,0,1-5.06,4.11c-.85.59-.94.66-1.07.83-.28.34-.39.43-.63.43-.73,0-2.1-1.73-2.1-2.65A.71.71,0,0,1,139,34a2.48,2.48,0,0,0,.65.79,1.11,1.11,0,0,0,.72.38,4.43,4.43,0,0,0,1.74-.75,26.16,26.16,0,0,0,4.31-3,28.55,28.55,0,0,0,4.84-4.8Z"/><path class="cls-2" d="M154.34,37.17a26.57,26.57,0,0,0,4.84-3.94,32.48,32.48,0,0,0,3.44-4.48,12,12,0,0,0,1.22-2.33,19.77,19.77,0,0,0-3.8.8,9.82,9.82,0,0,0-1.51.48.81.81,0,0,1-.31.06c-.39,0-.77-.33-1.17-1a2.29,2.29,0,0,1-.37-1.08.77.77,0,0,1,.12-.36c.52.93.9,1.21,1.69,1.21a30.26,30.26,0,0,0,3.79-.51,5,5,0,0,0,1.69-.5.69.69,0,0,1,.41-.17c.38,0,1.41.92,1.41,1.26a.44.44,0,0,1-.24.35c-.38.25-.38.25-1,1.22-.87,1.3-.87,1.3-2.27,3.13a17.77,17.77,0,0,1,4.66,3,2.37,2.37,0,0,1,.69,1.78c0,.58-.18.94-.49.94-.13,0-.27-.09-.41-.29a4.08,4.08,0,0,1-.44-.72A15.33,15.33,0,0,0,162,31.63a19.74,19.74,0,0,1-4.36,4.05,16.48,16.48,0,0,1-3.15,1.76Z"/><path class="cls-2" d="M184.63,24.87a32.9,32.9,0,0,1,6.2,2.87c1.89,1.07,2.24,1.54,2.24,2.93,0,1-.29,1.8-.7,1.8-.14,0-.26-.09-.41-.32a25.29,25.29,0,0,0-4-4.27,17.37,17.37,0,0,0-3.33-2.46v9.66l.11,8.35c0,.23-.11.32-.38.38a4.3,4.3,0,0,1-1.13.12c-.61,0-.69,0-.72-.41l.06-8.44V20.43h-7a35.6,35.6,0,0,0-4,.2l-.17-1.19a19.64,19.64,0,0,0,4.12.32h17.2c.81-1,1.07-1.3,1.91-2.29,1.34,1.07,1.74,1.39,3,2.55a.44.44,0,0,1,.11.24c0,.11-.08.17-.29.17H184.63Z"/><path class="cls-2" d="M201.44,38a36.11,36.11,0,0,0,4.44-7.81,33.32,33.32,0,0,0,1.74-5.13,26.08,26.08,0,0,1,3.1,1.13c.18.09.27.18.27.29,0,.35-.38.49-1.28.49h-.15a37,37,0,0,1-3.68,6.59,25.11,25.11,0,0,1-4.09,4.76Zm12.42-16.68a26.36,26.36,0,0,0-.15-3.08c3.42.47,3.63.53,3.63.9s-.35.52-1.34.76V33.8c0,1.25,0,3.63.06,6.94-.09,1.88-.84,2.43-4,2.95-.09-1.59-.67-1.91-4.82-2.66v-.5a59.62,59.62,0,0,0,6.12.5c.38,0,.47-.12.47-.5Zm6,3.94a38.28,38.28,0,0,1,5.66,6c1.39,1.77,1.85,2.7,1.85,3.71,0,1.54-.49,3-1,3-.26,0-.43-.26-.67-1a52.29,52.29,0,0,0-2.7-6.13,29.12,29.12,0,0,0-3.53-5.28Z"/><path class="cls-2" d="M235.72,42.94c0,.26-.06.35-.29.43a5.93,5.93,0,0,1-1.19.12c-.4,0-.52-.09-.52-.46.06-2.47.09-8.3.09-15.35,0-3.28-.06-7.22-.15-8.41a14.77,14.77,0,0,1,2.44,1.25h17.34c.56-.64.73-.84,1.31-1.42.84.6,1.1.81,1.91,1.42a.49.49,0,0,1,.24.4c0,.24-.15.35-1.11.84v6c0,5.89.08,11,.23,15.08-.09.41-.47.55-1.51.55-.49,0-.67-.08-.7-.43v-2.2H235.72Zm8.07-13.2V21.18h-8.07v8.56Zm0,.7h-8.07V40.1h8.07Zm10-9.26h-8.12v8.56h8.12Zm-8.12,9.26V40.1h8.12V30.44Z"/><path class="cls-2" d="M277.69,24.43a48.19,48.19,0,0,0-.21-6.58,18.93,18.93,0,0,1,3,.38c.17.08.29.2.29.31s-.23.35-1.13.7v5.19h3.13c.7-.9.9-1.19,1.6-2.09A32.65,32.65,0,0,1,287,24.69a.64.64,0,0,1,.06.18.28.28,0,0,1-.26.23h-7.19l.08,7.8h3.86c.82-1,1.08-1.3,1.89-2.32,1.19,1.08,1.54,1.42,2.7,2.56a.31.31,0,0,1,.11.2.29.29,0,0,1-.29.23h-8.27c.06,6.64.06,6.64.12,9.43,0,.23,0,.32-.12.4a5.59,5.59,0,0,1-1.68.18c-.32,0-.46-.12-.49-.38.09-4.44.12-7,.12-7.69V33.57h-7a11.89,11.89,0,0,1-2.91,6.21A14,14,0,0,1,262,43.64l-.26-.35a14,14,0,0,0,5.31-4.9,13.11,13.11,0,0,0,1.66-4.82h-2.82a37.76,37.76,0,0,0-4.12.2l-.17-1.13a29.33,29.33,0,0,0,4.29.26h2.9a39.81,39.81,0,0,0,.29-5V25.1h-2a39.92,39.92,0,0,0-4.64.2l-.12-1.13a41.53,41.53,0,0,0,4.73.26h2V22.29a34.67,34.67,0,0,0-.14-4.44c3.28.35,3.57.4,3.57.69s-.21.35-1.28.76v5.13Zm-6.53.67a47.29,47.29,0,0,1-.35,7.8h6.91V25.1Z"/><path class="cls-2" d="M293.63,35.08c.05.44.08.89.09,1.33a8.85,8.85,0,0,1-.58,3.6c-.38.84-.84,1.33-1.28,1.33s-.58-.58-.58-1.45c0-.61.09-.78.64-1.24a4.77,4.77,0,0,0,1.31-3.57Zm7.52-11.34c.52-.64.66-.84,1.19-1.42A20.67,20.67,0,0,1,304.28,24a1,1,0,0,1,.12.23c0,.12-.09.14-.32.14h-4.33v3.48H301c.58-.63.76-.81,1.37-1.45.84.76,1.07,1,1.82,1.74a.72.72,0,0,1,.12.21c0,.11-.12.17-.35.17h-4.18v3.86h1.86c.61-.61.61-.61,1.13-1.1.61.55.81.72,1.39,1.27.21.27.27.35.27.44s-.12.26-.93.67c-.18,4-.67,7.07-1.34,8.32a3.33,3.33,0,0,1-1.33,1.22,6.92,6.92,0,0,1-2.06.41c-.2-1.31-.41-1.45-3.22-2.15l.06-.46c1.45.23,3.8.52,4.46.52.44,0,.73-.41,1-1.42a31,31,0,0,0,.76-7.05h-6.5v.61c0,.34-.29.43-1.25.43-.43,0-.58-.09-.58-.32v-.11c.09-2.61.12-3.72.12-7.31,0-5.31,0-6.47-.15-8.07.84.5,1.1.64,2,1.25H301c.55-.73.73-1,1.31-1.68a20.15,20.15,0,0,1,2.23,2,.43.43,0,0,1,.14.23c0,.12,0,.15-.34.15h-4.62v3.51ZM295,34.93c1.07,1.8,1.39,2.61,1.39,3.6,0,.55-.64,1.39-1.07,1.39-.24,0-.35-.2-.35-.64v-.17c.06-.93.08-1.39.08-1.62a7.87,7.87,0,0,0-.37-2.41Zm3.1-14.7h-2.84v3.51h2.84Zm-2.84,4.17v3.48h2.84V24.4Zm0,4.15v3.86h2.84V28.55Zm1.56,5.95c1.31,1.27,2.09,2.43,2.09,3.1s-.46,1.37-.84,1.37c-.17,0-.29-.12-.32-.41a11.32,11.32,0,0,0-1.22-3.89Zm2-.41c1.36,1.16,2.09,2.06,2.09,2.67s-.47,1.22-.82,1.22c-.11,0-.2-.12-.26-.38s-.14-.64-.29-1.16a6,6,0,0,0-1-2.12Zm8.81-4.87a30.43,30.43,0,0,1-1,7.89,17.71,17.71,0,0,1-2.29,5A9.59,9.59,0,0,1,302.63,44l-.32-.26a18.32,18.32,0,0,0,2.87-7.43,60.31,60.31,0,0,0,.69-8.9c0-5.63,0-7.89-.08-9.31.93.61,1.22.78,2.14,1.42h6.5c.49-.52.64-.7,1.16-1.25a17.31,17.31,0,0,1,1.63,1.34c.23.17.32.32.32.43s-.06.21-1.05.67v7.86a15.17,15.17,0,0,0,.06,1.65v.18c0,.35-.38.46-1.54.46-.38,0-.46-.06-.49-.32V29.22H311a13.76,13.76,0,0,0,1.85,6.44,14.92,14.92,0,0,0,3.69,4.26,8.43,8.43,0,0,0,2.52,1.4v.43c-1.13.23-1.33.41-2.2,1.8A13.87,13.87,0,0,1,313.07,39a20,20,0,0,1-2.44-7.39c-.06-.64-.11-1-.23-2.41Zm6.94-.67V20.23h-6.82V22.4c0,2.06,0,3.8-.12,6.15Z"/><path class="cls-3" d="M80.3,269.35H78.06a3.42,3.42,0,0,1-.06.78,1.88,1.88,0,0,0,0,.58h1.93v2H77.64a3.14,3.14,0,0,1-.44,1.22,2.2,2.2,0,0,1-1.51.88,14,14,0,0,1-2.24,0,4,4,0,0,0-.53-1.68c.58.05,1.13.07,1.63.07a.76.76,0,0,0,.61-.29.55.55,0,0,0,.12-.24H69.45a4.86,4.86,0,0,1-.14.85l-2.37-.16c.25-1.24.48-2.59.7-4.06H65.25v-2.07h2.67c.11-.77.2-1.59.28-2.46a9.44,9.44,0,0,1-1,1,6,6,0,0,0-.92-.83,5.91,5.91,0,0,0-1-.65,10.94,10.94,0,0,0,3.42-4.74l2.52.44c-.18.4-.34.72-.49,1h8.91v2.07H69.53a9.57,9.57,0,0,1-.64.89h9.44v1c0,1-.08,1.8-.11,2.32H80.3Zm-8.55,0H70l-.19,1.36h1.8A10.27,10.27,0,0,1,71.75,269.35ZM70.39,266l-.16,1.28H72c0-.29.07-.71.11-1.28Zm3.34,4.71h1.93a12.28,12.28,0,0,1,.14-1.36H73.91C73.8,270.15,73.74,270.6,73.73,270.71Zm2.19-3.43L76,266H74.23c0,.25-.06.68-.12,1.28Z"/><path class="cls-3" d="M83,260.53H94.58v14.11H92.06v-1.06H85.42v1.06H83Zm9,2.35H85.42v2.94h6.64Zm-6.64,8.36H92v-3.13H85.42Z"/><path class="cls-3" d="M99.72,265.86h10c-.07,4.46.24,6.69.91,6.69.16,0,.26-.71.28-2.09a8.64,8.64,0,0,0,1.48,1.48,5.31,5.31,0,0,1-.53,2.25,1.48,1.48,0,0,1-1.39.67,2.17,2.17,0,0,1-1.88-.95,6.42,6.42,0,0,1-.56-1.07,8,8,0,0,1-.37-1.44c-.08-.56-.15-1.12-.2-1.69s-.08-1.2-.1-1.91h-3.09l2.18.7a13,13,0,0,1-1.53,2.28,17.65,17.65,0,0,1,2.36,1.85l-1.86,1.78a15.85,15.85,0,0,0-2.15-1.86,15.92,15.92,0,0,1-3.93,2.61,10.3,10.3,0,0,0-.81-.94,9.24,9.24,0,0,0-.9-.87,13.67,13.67,0,0,0,3.73-2.13,27,27,0,0,0-2.48-1.48l1.67-1.55c.91.48,1.73.94,2.45,1.38a11,11,0,0,0,1.16-1.77H99.05v-1.39A14.34,14.34,0,0,0,97,265a7.79,7.79,0,0,0,2.08-2.31,11.41,11.41,0,0,0,1.33-3.16l2.45.54c-.08.3-.19.64-.32,1h9.17V263h-10c-.1.21-.19.37-.25.47h8.86v1.86H101v-1.12A11.38,11.38,0,0,1,99.72,265.86Z"/><path class="cls-3" d="M121.61,260.66l2.31-.91a15.83,15.83,0,0,0,2,3,20.56,20.56,0,0,0,2.7,2.66,11.43,11.43,0,0,0-2,2.11l-.7-.72c-.07,2.33-.17,4-.28,5a4.27,4.27,0,0,1-.56,2,2.49,2.49,0,0,1-1.61.89,14.29,14.29,0,0,1-2.36.07,5,5,0,0,0-.78-2.34c.66.05,1.31.08,2,.08a.85.85,0,0,0,.64-.25c.26-.29.44-1.82.55-4.59h-2.63a13.14,13.14,0,0,1-.33,1.77,8.65,8.65,0,0,1-.61,1.63,7.2,7.2,0,0,1-1,1.51,8.12,8.12,0,0,1-1.53,1.28,12,12,0,0,1-2.18,1.09,7.14,7.14,0,0,0-1.53-2.16,10,10,0,0,0,2.15-1,4.68,4.68,0,0,0,1.38-1.24,6,6,0,0,0,.75-1.36,8.2,8.2,0,0,0,.36-1.54H116v-1a11.77,11.77,0,0,1-1.12,1,13.25,13.25,0,0,0-2-1.89,11.83,11.83,0,0,0,2.75-2.58,13.28,13.28,0,0,0,2-3.41l2.53.74a20,20,0,0,1-3,4.89h7.71A27.81,27.81,0,0,1,121.61,260.66Z"/><path class="cls-3" d="M130,263.89l1.83-.15v-2.49h2.39v2.38h1.18a2.22,2.22,0,0,1,1.81.76,4.33,4.33,0,0,1,.76,2.41,22.1,22.1,0,0,1,.08,2.44,11.3,11.3,0,0,1-.26,2.32,3.91,3.91,0,0,1-.78,1.72,2,2,0,0,1-1.53.69,7.37,7.37,0,0,1-1.32-.12,2.68,2.68,0,0,1-.49-.11v-2.5a4.72,4.72,0,0,0,1.44.28c.27,0,.45-.29.55-.77a8.66,8.66,0,0,0,.15-1.76c0-.69,0-1.37-.06-2a1,1,0,0,0-.22-.76,1.44,1.44,0,0,0-.78-.2H134a30.06,30.06,0,0,1-.66,4,33.62,33.62,0,0,1-1.16,3.78h-2.51A24.48,24.48,0,0,0,131,270.1a25.66,25.66,0,0,0,.65-4,8.27,8.27,0,0,0-1.22.12l-.5,0Zm7.5-1.2v-2.25h1.08v2.25Zm.18.53H140a22.8,22.8,0,0,1,1.16,4.81h-2.3a15.71,15.71,0,0,0-1.23-4.81Zm1.51-.53v-2.25h1.08v2.25Z"/><path class="cls-3" d="M150.34,271.69H157V274H142.22v-2.34h5.61V259.82h2.51v4.4h5.5v2.36h-5.5Z"/><path class="cls-3" d="M158.78,263.89l1.83-.15v-2.49H163v2.38h1.19a2.22,2.22,0,0,1,1.81.76,4.24,4.24,0,0,1,.75,2.41,19.9,19.9,0,0,1,.09,2.44,12,12,0,0,1-.26,2.32,3.82,3.82,0,0,1-.79,1.72,2,2,0,0,1-1.52.69,7.37,7.37,0,0,1-1.32-.12,2.68,2.68,0,0,1-.49-.11v-2.5a4.72,4.72,0,0,0,1.44.28c.27,0,.45-.29.55-.77a8.66,8.66,0,0,0,.15-1.76c0-.69,0-1.37-.06-2a1,1,0,0,0-.22-.76,1.44,1.44,0,0,0-.78-.2h-.68a28.5,28.5,0,0,1-.65,4,33.62,33.62,0,0,1-1.16,3.78h-2.51a23.4,23.4,0,0,0,1.32-3.71,26.91,26.91,0,0,0,.66-4l-1.23.12-.49,0Zm7.5-1.2v-2.25h1.08v2.25Zm.17.53h2.35A21.89,21.89,0,0,1,170,268h-2.29A15.58,15.58,0,0,0,166.45,263.22Zm1.52-.53v-2.25h1.08v2.25Z"/><path class="cls-3" d="M172.28,261.69h7.38v2.19l-2.78,2.05a3.86,3.86,0,0,1,2.35.14,3.06,3.06,0,0,1,1.44,1.36,4.49,4.49,0,0,1,.55,2.15,4.11,4.11,0,0,1-.62,2.32,4,4,0,0,1-1.64,1.49,6.52,6.52,0,0,1-2.16.61,5.85,5.85,0,0,1-2.24-.18,2.84,2.84,0,0,1-1.41-.86,2.39,2.39,0,0,1-.51-1.52,2.93,2.93,0,0,1,.27-1.23,2,2,0,0,1,1-1,3,3,0,0,1,1.82-.18,3.13,3.13,0,0,1,1.63.77,4.34,4.34,0,0,1,1,1.44,1.93,1.93,0,0,0,.48-.77,2.63,2.63,0,0,0,.13-.92,1.53,1.53,0,0,0-.56-1.26,2.83,2.83,0,0,0-1.82-.41,5.1,5.1,0,0,0-2,.43,6.75,6.75,0,0,0-1.46.94l-1.84,1.53v-3l4.87-3.69h-3.78Zm3,8.88a.62.62,0,0,0-.62.28.68.68,0,0,0,0,.65,1.1,1.1,0,0,0,.69.52,2.71,2.71,0,0,0,.94.09l.42-.06a1.73,1.73,0,0,0-.49-1A1.61,1.61,0,0,0,175.28,270.57Z"/><path class="cls-3" d="M183.34,264v-2.45h4.58V264Zm10.39.36a14.2,14.2,0,0,1-2.09,4.66,11.4,11.4,0,0,1-2.73,2.77,10.35,10.35,0,0,1-2.68,1.39,9.85,9.85,0,0,1-2.07.47c-.27,0-.55.05-.82.06v-2.55H184a8.83,8.83,0,0,0,1.61-.32,6.69,6.69,0,0,0,2-1.08,9.48,9.48,0,0,0,2-2,11.8,11.8,0,0,0,1.62-3.35Zm-10.39,3.44v-2.45h4.58v2.45Z"/><path class="cls-3" d="M195.13,265.72v-2.08h8.29v9.86h-8.29v-2.07h6.15V269.5h-5.83v-1.93h5.83v-1.85Z"/><path class="cls-3" d="M207,263.44l.94,5.36H206.3l-.91-5.36ZM206.39,274v-2.19a5.56,5.56,0,0,0,2.71-1.18,6,6,0,0,0,1.61-2.11,13.92,13.92,0,0,0,.82-2.35,17.08,17.08,0,0,0,.38-1.89,7,7,0,0,0,.07-.79h2.1a20.69,20.69,0,0,1-.33,2.49,15,15,0,0,1-.7,2.37,10,10,0,0,1-1.35,2.46,8.5,8.5,0,0,1-2.18,2.05A7.83,7.83,0,0,1,206.39,274Zm3.22-10.53,1,5.36h-1.67l-.91-5.36Z"/><path class="cls-3" d="M224.22,260.44a1.73,1.73,0,0,1,2.44,0,1.68,1.68,0,0,1,.51,1.23,1.72,1.72,0,0,1-1.73,1.71h-.05V264a10.73,10.73,0,0,1-.72,4,9.45,9.45,0,0,1-1.64,2.72,8,8,0,0,1-2,1.67,11.51,11.51,0,0,1-2,.89,8.18,8.18,0,0,1-1.55.39,4.2,4.2,0,0,1-.62.08v-2.5a11.48,11.48,0,0,0,2.17-.54,6.68,6.68,0,0,0,1.84-1.12,5.54,5.54,0,0,0,1.49-2.06,9,9,0,0,0,.65-3.28h-7.17v-2.5h7.91A1.76,1.76,0,0,1,224.22,260.44Zm2,1.24a.78.78,0,0,0-.78-.78h0a.74.74,0,0,0-.75.73v.05a.7.7,0,0,0,.22.54.8.8,0,0,0,1.1,0A.74.74,0,0,0,226.22,261.68Z"/><path class="cls-3" d="M228.81,260.16h11.94c-.09,3.25-.11,6.09,0,8.51s.25,3.63.56,3.63c.13,0,.21-.71.23-2.14a10.8,10.8,0,0,0,1.27,1.87,5.69,5.69,0,0,1-.55,2.15,1.32,1.32,0,0,1-1.2.67,1.53,1.53,0,0,1-1-.37,2.57,2.57,0,0,1-.7-1.13,11.38,11.38,0,0,1-.46-1.64,13.74,13.74,0,0,1-.27-2.22c-.06-.89-.1-1.74-.13-2.56s0-1.78,0-2.9a23.48,23.48,0,0,1-2.76.5v.9h2.47v4.82h-.27a14,14,0,0,1,1.17,3.44l-1.89.59a8.43,8.43,0,0,0-.2-1c-1.8.17-3.81.34-6,.53l-.14-2.06,1.51-.09,1.38-.08v-1.35h-2.32v-4.82h2.32v-.71l-2.11.1a6.57,6.57,0,0,0-.53-1.68V266c0,4.16-.68,7.13-2,8.9a5.78,5.78,0,0,0-.9-.66,6.61,6.61,0,0,0-1-.57,7.71,7.71,0,0,0,1.39-3.34A26.2,26.2,0,0,0,229,266Zm8.22,2.2,1.39,1.57V262.3H231v.81a30.31,30.31,0,0,0,6-.75Zm-3.95,6.17h.58v-1.35h-.58Zm3.19-1.35h-.61v1.35h.61Zm-.61,4.29h.68a2,2,0,0,0-.1-.26c0-.11-.09-.21-.12-.3l-.1-.24,1.23-.38h-1.59Z"/><path class="cls-3" d="M243.64,264.35v-2.46h9.61v11.44h-9.61v-2.45h7.06v-6.53Z"/><path class="cls-3" d="M255.38,268.66v-2.45h7.21v2.45Z"/><path class="cls-3" d="M264.19,268v-2.4h10.19V268h-3.25a6.29,6.29,0,0,1-.8,2.78,5.48,5.48,0,0,1-1.67,1.75,8.41,8.41,0,0,1-1.9.94,11.65,11.65,0,0,1-1.52.38,4.22,4.22,0,0,1-.61.07V271.4a3.81,3.81,0,0,0,.59-.07,6,6,0,0,0,1.37-.4,3.31,3.31,0,0,0,1.34-1,3.54,3.54,0,0,0,.66-1.91Zm.44-4v-2.39h6.64V264Zm7.23,0v-2.43h1V264Zm1.56,0v-2.43h1V264Z"/></g><path class="cls-4" d="M41.35,327V312h4.79a7,7,0,0,1,2.79.41,3.73,3.73,0,0,1,2.22,3.55,3.8,3.8,0,0,1-1.53,3.14,4,4,0,0,1,1.94,3.65c0,4.29-3.92,4.29-5.21,4.29Zm3-9.08h2.14a1.52,1.52,0,0,0,1.66-1.55c0-.54-.2-1.55-1.81-1.55h-2Zm0,6.21h2.14a1.77,1.77,0,0,0,2.07-1.79c0-.75-.28-1.85-2-1.85H44.34Z"/><path class="cls-4" d="M53,318.1a10.89,10.89,0,0,0,4.34-5.52H67c-.82,10.93-6.92,14.07-11.56,15.55l-1.4-2.7a12.93,12.93,0,0,0,6.71-3.79,24.35,24.35,0,0,0-4.07-2.88,13.13,13.13,0,0,1-1.86,1.6Zm6.19-2.79c-.48.83-.67,1.11-1,1.52a20.05,20.05,0,0,1,4.09,2.6,11.87,11.87,0,0,0,1.31-4.12Z"/><path class="cls-4" d="M78.62,327.89H75.69v-7.53a30,30,0,0,1-5.43,2.72l-1.35-2.7a25.62,25.62,0,0,0,12-8.75l2.47,1.85a32.42,32.42,0,0,1-4.81,4.77Z"/><path class="cls-4" d="M95.34,313.05l2.88,3.54c-.47,2.62-1.12,6.34-5,9.07a14,14,0,0,1-5.18,2.24l-1.28-2.8c6.7-1.31,8.1-5.41,8.59-9.06H85.69v-3Zm5.8-.09a2.32,2.32,0,1,1-2.32-2.47A2.39,2.39,0,0,1,101.14,313Zm-3.44,0a1.16,1.16,0,0,0,1.12,1.19A1.2,1.2,0,1,0,97.7,313Z"/><path class="cls-4" d="M111.09,314.29v3.31h-3.28v-3.31Zm0,7.91v3.31h-3.28V322.2Z"/><path class="cls-4" d="M131.69,323.47V327H118.06a102,102,0,0,0,7.67-9.34c1-1.5,1.54-2.49,1.54-3.6a2.27,2.27,0,0,0-2.33-2.47c-2.36,0-3.7,2.12-4.25,3L119.14,311a7.19,7.19,0,0,1,5.87-2.94c3,0,6,1.83,6,5.87,0,3-1.55,5.06-5.31,9.54Z"/><path class="cls-4" d="M137.85,322.94v3.86c0,2.38-1.5,3-4,3.05V328c1.55,0,1.78-.47,1.8-1.13h-1.8v-3.91Z"/><path class="cls-4" d="M141.06,322.52a8.66,8.66,0,0,0,4.58,1.32c.46,0,3.55,0,3.55-2.84a2.56,2.56,0,0,0-2.75-2.68,2.78,2.78,0,0,0-2.19.92h-3V308.43h10.45V312h-7v3.16a6.5,6.5,0,0,1,2.06-.32,5.85,5.85,0,0,1,6.19,6.12c0,3.14-1.92,6.45-7.19,6.45a11.92,11.92,0,0,1-5.57-1.34Z"/><path class="cls-4" d="M155.43,313.1c0-2.87,2.29-5,5.61-5s5.62,2.17,5.62,5a4.66,4.66,0,0,1-1.64,3.58,5.48,5.48,0,0,1,2.52,4.74c0,3.58-2.94,6-6.5,6s-6.49-2.36-6.49-6a5.48,5.48,0,0,1,2.52-4.74A4.61,4.61,0,0,1,155.43,313.1Zm8.36,8.18a2.76,2.76,0,0,0-5.5,0,2.76,2.76,0,0,0,5.5,0Zm-.67-8.07a2.08,2.08,0,1,0-2.08,2A1.94,1.94,0,0,0,163.12,313.21Z"/><path class="cls-4" d="M180.54,310.93a13.38,13.38,0,0,1,1.43,6.79,13.55,13.55,0,0,1-1.43,6.81,5.79,5.79,0,0,1-10,0c-.81-1.34-1.43-3.37-1.43-6.81a13.19,13.19,0,0,1,1.43-6.79,5.77,5.77,0,0,1,10,0Zm-7.69,6.79c0,3.56.69,6.12,2.7,6.12s2.7-2.63,2.7-6.12c0-3.21-.57-6.12-2.7-6.12S172.85,314.28,172.85,317.72Z"/><path class="cls-4" d="M190.53,316.51h7.33a62.88,62.88,0,0,1-.73,9.65c-.47,2.31-1.72,2.59-2.92,2.59h-3l-.5-2.92h2.47c.89,0,1.16-.26,1.36-1.26a35.38,35.38,0,0,0,.41-5.35h-4.64a13.3,13.3,0,0,1-5.65,9.58l-1.74-2.62c2.25-1.38,4.83-3.68,4.83-10.06v-1.83h-4.47v-2.74h15.88v2.74h-8.64Z"/><path class="cls-4" d="M203.39,328.75H200.7V311.54h14.68v15.17c0,2-1.4,2-1.94,2h-3.09l-.47-2.9H212c.63,0,.63-.17.63-.75v-3.2h-9.28Zm3.3-14.46h-3.3v4.95h3.3Zm6,4.95v-4.95h-3.33v4.95Z"/><path class="cls-4" d="M220.83,318.79v2.07h8.29v.9h-8.29v2.07L217,321.31Z"/><path class="cls-4" d="M238.77,325.39V327h-8.36c5.51-5.91,6.15-7.29,6.15-8.52a1.86,1.86,0,0,0-1.93-2,3.4,3.4,0,0,0-2.82,2l-.71-1.77a4.33,4.33,0,0,1,3.54-1.82,3.44,3.44,0,0,1,3.66,3.56c0,1.9-1,3.3-4.24,7Z"/><path class="cls-4" d="M242.55,324.82v2.05c0,1.38-.77,1.7-2.15,1.76v-.93c.92,0,1-.33,1-.75h-1v-2.13Z"/><path class="cls-4" d="M252.37,315.11v1.68L246.69,327h-1.95l5.79-10.28h-6.35v-1.62Z"/><path class="cls-4" d="M254.1,324.74a5.47,5.47,0,0,0,3.09.89c2.1,0,2.77-1.22,2.77-2.19s-.66-1.95-2.71-1.95h-1.08v-1.55h1c1.31,0,2.12-.75,2.12-1.8a1.72,1.72,0,0,0-1.94-1.65,3.55,3.55,0,0,0-2.73,1.29l-.6-1.59a5.08,5.08,0,0,1,3.41-1.32c2.07,0,3.55,1.29,3.55,3.17a2.66,2.66,0,0,1-1.56,2.5,3.11,3.11,0,0,1,2.25,3.06c0,1.61-1.14,3.65-4.5,3.65a7.29,7.29,0,0,1-3.58-.89Z"/><path class="cls-4" d="M271.14,321.05c0,1.13,0,6.2-4,6.2s-4-5.07-4-6.18,0-6.2,4-6.2S271.14,319.9,271.14,321.05Zm-6.3,0c0,2.2.39,4.56,2.28,4.56s2.28-2.52,2.28-4.58-.36-4.56-2.28-4.56S264.84,319,264.84,321.07Z"/><path class="cls-4" d="M277.66,318.41c0,.11,0,.3,0,.48h6.06a46.62,46.62,0,0,1-.62,7.62,2.12,2.12,0,0,1-2,1.82h-2.49l-.27-1.65h2.39c.61,0,.85-.29,1-1.31a35.28,35.28,0,0,0,.36-4.95h-4.53a10.6,10.6,0,0,1-4.48,7.91l-1.1-1.47c2.09-1.38,4.14-3.27,4.14-8.52v-2h-3.85v-1.59h12.66v1.59h-7.25Z"/><path class="cls-4" d="M287.71,328.34h-1.53v-13.6H297.9v12.19a1.24,1.24,0,0,1-1.35,1.41h-2.39l-.28-1.54h2c.45,0,.46-.17.46-.54v-3.68h-8.64Zm3.54-12.13h-3.54v4.92h3.54Zm5.1,4.92v-4.92h-3.6v4.92Z"/><path class="cls-4" d="M107.25,346.37h4.41v2.29h-11v-2.29H105v-6.11h-3.74V338h9.82v2.28h-3.8Z"/><path class="cls-4" d="M119.59,342.76a8.12,8.12,0,0,1-4.72,7l-1.4-1.92c3.82-1.64,4-4.54,4-7.12h2.22c0,.73,0,1.08-.09,1.7a5.21,5.21,0,0,0,2.52-2.74h-8.67v-2.27h11.31c-.42,4-2,5.57-3.91,6.87Z"/><path class="cls-4" d="M136.75,338v10.72h-9.87v-2.31h7.57v-6.11H127V338Z"/><path class="cls-4" d="M143.38,341.82a15.33,15.33,0,0,0-4.16-2.21l.93-2a17.3,17.3,0,0,1,4.34,2.08Zm-3.91,5.07c3.28-.34,7.42-1.22,9.12-8.59l1.89,1.32c-1.52,5.6-4,8.86-10.5,9.8Z"/><path class="cls-4" d="M154.43,350.24h-2V343.8c-.26.36-.41.54-.7.88l-.68-3a11.5,11.5,0,0,0,2.2-5.44l2,.18a19.92,19.92,0,0,1-.82,3.23ZM163.74,339v2.1H162.5v7.45c0,1.09-.44,1.73-1.6,1.73h-2.83l-.35-2.25H160c.39,0,.41-.08.41-.5v-6.43H155V339h5.45v-2.62h2.08V339Zm-6.41,7.6a23.3,23.3,0,0,0-2.2-3.67l1.58-1.17a20.7,20.7,0,0,1,2.35,3.6Z"/><path class="cls-4" d="M171.79,336.88c0,.54,0,.82.07,1.54a16.79,16.79,0,0,0,3-.44l.22,2a20.84,20.84,0,0,1-2.94.41,8.29,8.29,0,0,0,.28,1.19,16.63,16.63,0,0,0,3.38-.51l.28,2a20.19,20.19,0,0,1-3,.43,9.06,9.06,0,0,0,1.1,1.64l-2,1.25a9.37,9.37,0,0,1-1.49-2.79H165v-1.92h5.13c-.09-.36-.13-.55-.25-1.17h-4.41v-2h4.13c-.06-.54-.09-.86-.11-1.56Zm3,12.61c-.92.09-2.15.11-3.1.11-2.21,0-3.75-.15-4.75-1a2.49,2.49,0,0,1-.95-1.91,3.38,3.38,0,0,1,.95-2.26l1.77.83a2,2,0,0,0-.48,1.06c0,.94,1.3,1.05,3.12,1.05a27.92,27.92,0,0,0,3.35-.19Z"/><path class="cls-4" d="M181.24,338h1.82v4.1h3.71v1.8h-3.71V348h-1.82v-4.09h-3.72v-1.8h3.72Z"/><path class="cls-4" d="M200,342.9a13.38,13.38,0,0,1-2.3,2.05,12.22,12.22,0,0,0,2.53,3.18l-1.55,1.66a14.62,14.62,0,0,1-3.78-8.28h-.22a7.91,7.91,0,0,1-.75.69,7,7,0,0,1,1.76,5c0,2.52-1.2,2.94-1.86,2.94h-2.17l-.32-1.7a17.25,17.25,0,0,1-3.09,1.25l-.7-1.91a15.85,15.85,0,0,0,6.15-2.5,5.39,5.39,0,0,0-.18-.59,15.2,15.2,0,0,1-4.92,2.19l-.7-1.75a13,13,0,0,0,5-1.62c-.13-.18-.22-.3-.35-.46a13.72,13.72,0,0,1-4,1.34l-.63-1.79a11.18,11.18,0,0,0,4.24-1.13h-2.55v-.73h-1.47v-3.43h4.87v-1h2v1h4.87v3.43h-1.5v.73h-1.74a12.34,12.34,0,0,0,.38,1.66,9.88,9.88,0,0,0,1.77-1.75Zm-2.14-3.06v-.66h-7.78v.66ZM193,348.4c.57,0,.85,0,.82-1.56a13.62,13.62,0,0,1-2.39,1.56Z"/><path class="cls-4" d="M212.59,350.37a11.5,11.5,0,0,1-4.35-1.87l1.17-1.25h-4.59L206,348.5a11.43,11.43,0,0,1-4.35,1.87l-1-2a9.61,9.61,0,0,0,3.81-1.12H200.9v-1.83h12.4v1.83h-3.5a8,8,0,0,0,3.72,1.06Zm-10.42-5.52v-8.09h9.89v8.09Zm7.79-6.42h-5.74v.68H210Zm0,2.73v-.69h-5.74v.69Zm-5.74,1.41v.71H210v-.71Z"/><path class="cls-4" d="M217.21,350.24h-2V343.8c-.26.36-.41.54-.7.88l-.68-3a11.5,11.5,0,0,0,2.2-5.44l2,.18a19.92,19.92,0,0,1-.82,3.23ZM226.52,339v2.1h-1.24v7.45c0,1.09-.44,1.73-1.6,1.73h-2.83L220.5,348h2.29c.39,0,.41-.08.41-.5v-6.43h-5.45V339h5.45v-2.62h2.08V339Zm-6.41,7.6a23.3,23.3,0,0,0-2.2-3.67l1.58-1.17a20,20,0,0,1,2.34,3.6Z"/><path class="cls-4" d="M234.57,336.88c0,.54,0,.82.07,1.54a16.79,16.79,0,0,0,3-.44l.22,2a21,21,0,0,1-2.94.41,9.54,9.54,0,0,0,.27,1.19,16.62,16.62,0,0,0,3.39-.51l.28,2a20.19,20.19,0,0,1-3,.43,9.06,9.06,0,0,0,1.1,1.64l-2,1.25a9.37,9.37,0,0,1-1.49-2.79h-5.7v-1.92h5.13c-.09-.36-.13-.55-.25-1.17h-4.41v-2h4.13c-.06-.54-.09-.86-.12-1.56Zm3,12.61c-.92.09-2.15.11-3.1.11-2.21,0-3.75-.15-4.75-1a2.49,2.49,0,0,1-.95-1.91,3.38,3.38,0,0,1,.95-2.26l1.77.83a2,2,0,0,0-.48,1.06c0,.94,1.3,1.05,3.12,1.05a27.92,27.92,0,0,0,3.35-.19Z"/></svg>