<svg id="レイヤー_1" data-name="レイヤー 1" xmlns="http://www.w3.org/2000/svg" viewBox="0 0 340 396"><defs><style>.cls-1{fill:none;}.cls-2{fill:#fff;}.cls-3{fill:#fff171;}.cls-4{fill:#231815;}</style></defs><title>tb10</title><rect class="cls-1" width="340" height="396"/><g id="_10" data-name="10"><path class="cls-2" d="M53.17,38.58a13,13,0,0,0,2.61-4.25,12.19,12.19,0,0,0,.87-3.68.9.9,0,0,0-.47-.88,14.63,14.63,0,0,0-4,1.14,1.17,1.17,0,0,1-.56.18,1.67,1.67,0,0,1-1.13-.69,1.77,1.77,0,0,1-.61-1.08A1.13,1.13,0,0,1,50,29a1.7,1.7,0,0,0,1.48.83,18.62,18.62,0,0,0,3.07-.47c1.1-.18,3.39-.47,5.55-.67a8.7,8.7,0,0,0,1.41-.3,1,1,0,0,1,.45-.09,2.27,2.27,0,0,1,1,.27c.5.23.85.57.85.83s-.2.36-.51.36a1.55,1.55,0,0,1-.45-.06,17.48,17.48,0,0,0-2.9-.23,21.45,21.45,0,0,0-3,.18c.83.45,1.19.83,1.19,1.24a11,11,0,0,1-1.15,3.53,10.54,10.54,0,0,1-3.57,4.37Zm-.34-13.9a2.94,2.94,0,0,0,2.16,1,10,10,0,0,0,3.78-.88,1.06,1.06,0,0,1,.54-.15c.47,0,1.23.58,1.23.94s-.22.32-.94.48a24.55,24.55,0,0,1-4.12.47,3.06,3.06,0,0,1-2.92-1.65ZM61.17,24a9,9,0,0,1,2.12,1.26,1.29,1.29,0,0,1,.56,1.08c0,.54-.2,1-.45,1s-.25-.13-.4-.43a7.92,7.92,0,0,0-2-2.67Zm1.58-1a7.26,7.26,0,0,1,2.16,1c.51.36.65.61.65,1.06s-.16.87-.4.87-.25-.09-.39-.36a6.7,6.7,0,0,0-2.16-2.38Z"/><path class="cls-2" d="M70.76,30.08a15.18,15.18,0,0,0,2.57-.34,2.47,2.47,0,0,0,.76-.24,1.27,1.27,0,0,1,.23-.12.54.54,0,0,1,.27-.08,1.86,1.86,0,0,1,.9.62c.29.3.37.43.37.61a.38.38,0,0,1-.13.29,3.27,3.27,0,0,0-.42,1.24c-.27,1-.64,2.61-.77,3.17l.74-.06a5.29,5.29,0,0,0,1.89-.25.83.83,0,0,1,.31-.09,2.19,2.19,0,0,1,.75.31c.43.25.7.57.7.83a.39.39,0,0,1-.41.36,4.1,4.1,0,0,1-1-.2A10.13,10.13,0,0,0,75.39,36a18.57,18.57,0,0,0-4.68.55,7,7,0,0,0-1.57.51.86.86,0,0,1-.47.14,1.49,1.49,0,0,1-1-.59,2.58,2.58,0,0,1-.59-1.19,1,1,0,0,1,.07-.31,1.64,1.64,0,0,0,1.37.85c.18,0,.65,0,1.22-.13,1.16-.18,2.06-.3,2.74-.37s.74-.09,1.1-.15a48.47,48.47,0,0,0,.7-4.93c0-.06,0-.07,0-.07a17.55,17.55,0,0,0-2.16.46,7.5,7.5,0,0,0-1,.38,1.07,1.07,0,0,1-.43.09c-.33,0-.63-.25-.9-.72a2.13,2.13,0,0,1-.34-1,.68.68,0,0,1,.1-.36A1.42,1.42,0,0,0,70.76,30.08Z"/><path class="cls-2" d="M83.14,30a2.41,2.41,0,0,0,1.75.43l2.21-.06,7-.1a7.07,7.07,0,0,1,2.34.16.37.37,0,0,1,.25.36.52.52,0,0,1-.42.48c-.48.17-.91.18-4.32.22-1.67,0-5.79.13-6.43.16-.84.06-1,.07-1.29.24A2.56,2.56,0,0,1,84,32c-.27,0-.56-.2-.87-.59a3.32,3.32,0,0,1-.68-1.66c0-.25,0-.29.14-.41A1.68,1.68,0,0,0,83.14,30Z"/><path class="cls-2" d="M101.3,38.23a24.48,24.48,0,0,0,6-6.89,17.76,17.76,0,0,0,2.15-4.81c0-.18-.09-.23-.36-.23a27.22,27.22,0,0,0-3.33.61,19.24,19.24,0,0,0-3.3,1,1.77,1.77,0,0,1-.67.18c-.37,0-.84-.36-1.29-1A2.06,2.06,0,0,1,100,26a.57.57,0,0,1,.13-.36,1.73,1.73,0,0,0,1.67,1,43,43,0,0,0,5.13-.74,6,6,0,0,0,2.09-.5c.22-.13.22-.13.36-.13a2.79,2.79,0,0,1,1.32.83,1.44,1.44,0,0,1,.55.89c0,.14,0,.25-.25.46a3.48,3.48,0,0,0-.63,1,26.21,26.21,0,0,1-5.18,7.28,17.93,17.93,0,0,1-3.71,2.68Zm13.29-13.59a1.8,1.8,0,1,1-1.8-1.8A1.81,1.81,0,0,1,114.59,24.64Zm-3.06,0a1.26,1.26,0,1,0,2.52,0,1.26,1.26,0,1,0-2.52,0Z"/><path class="cls-2" d="M129.8,29.52a15.89,15.89,0,0,1-2.68,3.06,22.4,22.4,0,0,1-5.44,3.67c-1,.53-1,.53-1.35.87a.55.55,0,0,1-.41.23c-.36,0-1.19-1.06-1.19-1.55,0-.09,0-.09.09-.32a10.14,10.14,0,0,0,.14-2.76c0-4-.09-5.72-.32-6.39-.16-.45-.45-.66-1.24-.93a.82.82,0,0,1,.56-.18,3.45,3.45,0,0,1,1.44.43c.7.38,1.06.74,1.06,1.1,0,.1,0,.1-.09.38a9.91,9.91,0,0,0-.24,1.78c-.09,1.1-.19,4.37-.19,5.71v.9a23.37,23.37,0,0,0,6.14-3.19,24.34,24.34,0,0,0,3.49-3Z"/><path class="cls-2" d="M133.15,28.75a9.47,9.47,0,0,1,3.15,1.06A1.28,1.28,0,0,1,137,31c0,.46-.23.86-.5.86s-.29-.07-.56-.41A8.86,8.86,0,0,0,133,29Zm13.9-.45a21.29,21.29,0,0,1-2.69,3.07,39.86,39.86,0,0,1-6.82,5.24,14.3,14.3,0,0,0-1.39,1,.58.58,0,0,1-.41.18c-.36,0-.78-.34-1.28-1.08a3,3,0,0,1-.56-1.38.67.67,0,0,1,.16-.42c.35.69.85,1.12,1.36,1.12a11.88,11.88,0,0,0,3.45-1.76,41.67,41.67,0,0,0,8-6.13Zm-11.92-2.74c2.88.68,3.8,1.24,3.8,2.29,0,.5-.22.9-.49.9s-.2,0-1-1a8.21,8.21,0,0,0-2.47-2Zm7.38-1.44c1.93.84,2.79,1.56,2.79,2.32a1.48,1.48,0,0,1-.25.87.3.3,0,0,1-.22.09c-.2,0-.25-.06-.5-.55a9.3,9.3,0,0,0-2-2.55ZM144.18,23c2,.66,2.92,1.33,2.92,2.14,0,.52-.18.92-.43.92s-.27-.11-.47-.45a8,8,0,0,0-2.14-2.42Z"/><path class="cls-2" d="M153.25,38.58a12.84,12.84,0,0,0,2.61-4.25,12.19,12.19,0,0,0,.87-3.68.9.9,0,0,0-.47-.88,14.63,14.63,0,0,0-4,1.14,1.14,1.14,0,0,1-.55.18,1.66,1.66,0,0,1-1.14-.69,1.77,1.77,0,0,1-.61-1.08A1.13,1.13,0,0,1,150,29a1.7,1.7,0,0,0,1.48.83,18.78,18.78,0,0,0,3.08-.47c1.09-.18,3.38-.47,5.54-.67a8.7,8.7,0,0,0,1.41-.3,1,1,0,0,1,.45-.09,2.27,2.27,0,0,1,.95.27c.5.23.85.57.85.83s-.2.36-.51.36a1.55,1.55,0,0,1-.45-.06,17.48,17.48,0,0,0-2.9-.23,21.45,21.45,0,0,0-3,.18c.83.45,1.19.83,1.19,1.24A11,11,0,0,1,157,34.4a10.54,10.54,0,0,1-3.57,4.37Zm-.34-13.9a2.94,2.94,0,0,0,2.16,1,10,10,0,0,0,3.78-.88,1.06,1.06,0,0,1,.54-.15c.47,0,1.23.58,1.23.94s-.22.32-.94.48a24.55,24.55,0,0,1-4.12.47,3.08,3.08,0,0,1-2.92-1.65Zm8.34-.71a9,9,0,0,1,2.12,1.26,1.29,1.29,0,0,1,.56,1.08c0,.54-.2,1-.45,1s-.25-.13-.4-.43a8,8,0,0,0-2-2.67Zm1.58-1A7.26,7.26,0,0,1,165,24c.51.36.65.61.65,1.06s-.16.87-.39.87-.26-.09-.4-.36a6.7,6.7,0,0,0-2.16-2.38Z"/><path class="cls-2" d="M168.61,25.79a10.34,10.34,0,0,1,3.47,1.35,1.38,1.38,0,0,1,.61,1.23c0,.59-.19,1-.5,1s-.29-.09-.77-.72A9.36,9.36,0,0,0,168.48,26Zm12.8,1a18.83,18.83,0,0,1-3.78,4.84,35.5,35.5,0,0,1-5.06,4.11c-.85.59-.94.66-1.06.83-.29.34-.4.43-.63.43-.74,0-2.11-1.73-2.11-2.65a.88.88,0,0,1,.09-.36,2.52,2.52,0,0,0,.65.79,1.13,1.13,0,0,0,.72.38,4.47,4.47,0,0,0,1.74-.75,26.06,26.06,0,0,0,4.31-3,28.58,28.58,0,0,0,4.84-4.8Z"/><path class="cls-2" d="M184.18,37.17A26,26,0,0,0,189,33.23a32.55,32.55,0,0,0,3.44-4.48,11.9,11.9,0,0,0,1.22-2.33,19.18,19.18,0,0,0-3.8.8,9.72,9.72,0,0,0-1.51.48.77.77,0,0,1-.3.06c-.4,0-.78-.33-1.17-1a2.16,2.16,0,0,1-.38-1.08.69.69,0,0,1,.12-.36c.53.93.9,1.21,1.7,1.21a29,29,0,0,0,3.78-.51,4.9,4.9,0,0,0,1.69-.5.72.72,0,0,1,.41-.17c.38,0,1.41.92,1.41,1.26a.42.42,0,0,1-.24.35c-.37.25-.37.25-1,1.22-.87,1.3-.87,1.3-2.27,3.13a17.84,17.84,0,0,1,4.66,3,2.37,2.37,0,0,1,.69,1.78c0,.58-.18.94-.49.94-.13,0-.27-.09-.41-.29a4,4,0,0,1-.44-.72,15.31,15.31,0,0,0-4.28-4.41,19.73,19.73,0,0,1-4.36,4.05,16,16,0,0,1-3.15,1.76Z"/><path class="cls-2" d="M201.33,40.44a25.43,25.43,0,0,0,3.27-5.74,15.41,15.41,0,0,0,1.25-4c.58.2,1,.35,1.31.43,1.39.47,1.94.76,1.94,1.05s-.35.35-1.28.43A26.24,26.24,0,0,1,205.16,37a18.93,18.93,0,0,1-3.54,3.72Zm11.54-12.15c0,4.67-.41,7-1.51,9.17a11.9,11.9,0,0,1-4.9,5,19.75,19.75,0,0,1-4,1.77l-.18-.38a18.8,18.8,0,0,0,5.57-4.09c2-2.23,2.9-4.87,3.05-9.11V28.29h-7.14a11.35,11.35,0,0,0-2,.18l-.2-1.11a8.15,8.15,0,0,0,2.2.26h9.6V22.9h-7.22a10,10,0,0,0-2,.14l-.12-1a10.64,10.64,0,0,0,2.09.2h7.22v-.9c0-1.74,0-2.21-.11-3.51,3,.32,3.3.38,3.3.72s-.29.41-1.18.67v3h5.07c.84-.93,1.1-1.22,1.92-2.06,1.27,1,1.68,1.28,2.93,2.35a.37.37,0,0,1,.11.23c0,.12-.09.15-.32.15h-9.71v4.72h7.42c.87-.92,1.13-1.19,2-2.08a36.5,36.5,0,0,1,2.79,2.4.33.33,0,0,1,.11.21c0,.08-.08.14-.2.14h-9.4V37c0,3.4,0,3.4,0,4.73s-.52,1.83-3,2.26c-.12-.75-.27-1.07-.67-1.33a4.31,4.31,0,0,0-1.51-.47c-.09,0-.64-.08-1.62-.2l0-.49c.64,0,1.22.06,1.54.06l2.84.11c.35,0,.44-.08.44-.43v-13Zm7,2.5a41.07,41.07,0,0,1,4.7,4c1,1,1.36,1.62,1.36,2.35,0,1.36-.46,2.58-1,2.58-.23,0-.41-.17-.58-.64-1-2.58-2-4.12-4.82-7.92Z"/><path class="cls-2" d="M231.75,24.32a19.73,19.73,0,0,1,3.62,1.48,1.43,1.43,0,0,1,.9,1.3c0,.9-.46,1.77-.93,1.77-.23,0-.4-.14-.63-.55a14.38,14.38,0,0,0-3.14-3.74Zm.37,10.56a13.14,13.14,0,0,0,1.8.31c.32,0,.44-.14.76-.81.17-.43.49-1.1.9-2,1.19-2.58,1.19-2.58,2.67-6,.84-2,.84-2,1.45-3.34l.37.14-4,11.93a4.6,4.6,0,0,0-.38,1.53,4.33,4.33,0,0,0,.23,1.16,15.45,15.45,0,0,1,.56,3.28,2.42,2.42,0,0,1-2,2.44.66.66,0,0,1-.72-.73,5.66,5.66,0,0,1,.11-1,30.69,30.69,0,0,0,.35-3.63c0-1.68-.37-2.17-2.17-2.87Zm1.48-16.74a23.06,23.06,0,0,1,3.51,1.36c.82.41,1.11.79,1.11,1.39,0,1-.38,1.8-.87,1.8-.21,0-.41-.17-.67-.58a16.87,16.87,0,0,0-3.25-3.71Zm13.58,9V20.4a23.15,23.15,0,0,0-.09-2.61c2.79.32,3.16.41,3.16.73s-.2.34-1.1.66c0,3.66,0,3.89,0,7.34l4.38-1.36,1.08-1.8c.92.46,1.19.61,2,1.1.23.15.32.26.32.35s-.21.41-1,.93c-.23,5.71-.35,7.05-.7,8.87-.29,1.57-.69,1.86-3,2.12a1.9,1.9,0,0,0-.61-1.48c-.26-.23-.26-.23-2-.61l0-.43c1.69.17,2.67.26,3.08.26s.61-.17.78-1.57a54.89,54.89,0,0,0,.38-7.19l-4.79,1.48c0,3.89,0,7.45.06,10.7,0,.44-.38.58-1.51.58-.4,0-.52-.08-.55-.35,0-2.32.06-7.51.06-10.32l-4,1.25V40.24c0,.67.08.81.55.9s2.75.15,6.09.15c4.67,0,5.05,0,5.42-.5a41.29,41.29,0,0,0,2-6.2l.46,0-.58,5.51a1,1,0,0,0,0,.27c0,.43,0,.43.58.69a.9.9,0,0,1,.52.7,1.18,1.18,0,0,1-.81.93c-.61.26-1.22.32-3.42.32l-6,0c-3.85,0-5,0-5.71-.32s-1-.72-1.05-2V29.65l-.4.15a12.61,12.61,0,0,0-1.77.67l-.41-.87a11.6,11.6,0,0,0,2-.44l.6-.17V24.81c0-2.15,0-2.38-.08-3.71a14.22,14.22,0,0,1,2.87.46c.2.06.32.18.32.29s-.26.38-1.13.7v5.83Z"/><path class="cls-2" d="M263.79,35.08a12.79,12.79,0,0,1,.09,1.33,8.73,8.73,0,0,1-.58,3.6c-.38.84-.84,1.33-1.28,1.33s-.58-.58-.58-1.45c0-.61.09-.78.64-1.24a4.78,4.78,0,0,0,1.31-3.57Zm7.52-11.34c.52-.64.66-.84,1.18-1.42A19.56,19.56,0,0,1,274.44,24a.64.64,0,0,1,.11.23c0,.12-.08.14-.32.14h-4.32v3.48h1.22c.58-.63.76-.81,1.36-1.45.85.76,1.08,1,1.83,1.74a.82.82,0,0,1,.12.21c0,.11-.12.17-.35.17h-4.18v3.86h1.86c.61-.61.61-.61,1.13-1.1.61.55.81.72,1.39,1.27.21.27.26.35.26.44s-.11.26-.92.67c-.18,4-.67,7.07-1.34,8.32A3.33,3.33,0,0,1,271,43.23a6.78,6.78,0,0,1-2.06.41c-.21-1.31-.41-1.45-3.22-2.15l.06-.46c1.45.23,3.8.52,4.46.52.44,0,.73-.41,1-1.42a31.24,31.24,0,0,0,.75-7.05h-6.49v.61c0,.34-.29.43-1.25.43-.44,0-.58-.09-.58-.32v-.11c.09-2.61.12-3.72.12-7.31,0-5.31,0-6.47-.15-8.07.84.5,1.1.64,2,1.25h5.66c.55-.73.72-1,1.3-1.68a19.86,19.86,0,0,1,2.24,2,.62.62,0,0,1,.14.23c0,.12-.06.15-.35.15h-4.61v3.51Zm-6.15,11.19c1.07,1.8,1.39,2.61,1.39,3.6,0,.55-.64,1.39-1.07,1.39-.24,0-.35-.2-.35-.64v-.17c.06-.93.08-1.39.08-1.62a7.82,7.82,0,0,0-.37-2.41Zm3.1-14.7h-2.84v3.51h2.84Zm-2.84,4.17v3.48h2.84V24.4Zm0,4.15v3.86h2.84V28.55ZM267,34.5c1.31,1.27,2.09,2.43,2.09,3.1s-.46,1.37-.84,1.37c-.17,0-.29-.12-.32-.41a11.34,11.34,0,0,0-1.22-3.89Zm2-.41c1.36,1.16,2.08,2.06,2.08,2.67s-.46,1.22-.81,1.22c-.11,0-.2-.12-.26-.38s-.14-.64-.29-1.16a6,6,0,0,0-1-2.12Zm8.81-4.87a30.46,30.46,0,0,1-1,7.89,18.17,18.17,0,0,1-2.29,5A9.79,9.79,0,0,1,272.78,44l-.31-.26a18.26,18.26,0,0,0,2.87-7.43,62,62,0,0,0,.69-8.9c0-5.63,0-7.89-.08-9.31.92.61,1.21.78,2.14,1.42h6.5c.49-.52.64-.7,1.16-1.25.75.58,1,.76,1.63,1.34.23.17.31.32.31.43s-.05.21-1,.67c0,.7,0,1.25,0,1.68v1.19c0,1.07,0,2.15,0,3.16,0,.26,0,.47,0,1.83,0,.9,0,.9.06,1.65v.18c0,.35-.38.46-1.54.46-.38,0-.46-.06-.49-.32V29.22H281.2a13.83,13.83,0,0,0,1.85,6.44,14.78,14.78,0,0,0,3.69,4.26,8.34,8.34,0,0,0,2.52,1.4v.43c-1.13.23-1.33.41-2.2,1.8A13.79,13.79,0,0,1,283.23,39a20,20,0,0,1-2.44-7.39c-.06-.64-.12-1-.23-2.41Zm6.94-.67V20.23h-6.82c0,.93,0,1.74,0,2.17,0,2.06,0,3.8-.12,6.15Z"/><path class="cls-3" d="M76.66,337v-15h4.79a7,7,0,0,1,2.79.41,3.75,3.75,0,0,1,2.22,3.56,3.81,3.81,0,0,1-1.53,3.14,4,4,0,0,1,1.94,3.65C86.87,337,83,337,81.66,337Zm3-9.07h2.14a1.52,1.52,0,0,0,1.66-1.55c0-.55-.2-1.56-1.81-1.56h-2Zm0,6.21h2.14a1.77,1.77,0,0,0,2.07-1.8c0-.74-.28-1.85-2-1.85H79.65Z"/><path class="cls-3" d="M98.54,334.12V337h-11a82.34,82.34,0,0,0,6.21-7.56A5.34,5.34,0,0,0,95,326.51a1.84,1.84,0,0,0-1.89-2c-1.91,0-3,1.73-3.44,2.46L88.39,324a5.8,5.8,0,0,1,4.75-2.38A4.57,4.57,0,0,1,98,326.39c0,2.42-1.25,4.1-4.3,7.73Z"/><path class="cls-3" d="M100.07,328.08a10.89,10.89,0,0,0,4.34-5.52h9.66c-.83,10.92-6.93,14.07-11.57,15.55l-1.4-2.7a13,13,0,0,0,6.72-3.8,25.61,25.61,0,0,0-4.08-2.88,13.42,13.42,0,0,1-1.85,1.61Zm6.19-2.79c-.48.82-.67,1.1-1,1.52a19.41,19.41,0,0,1,4.1,2.6,12.09,12.09,0,0,0,1.31-4.12Z"/><path class="cls-3" d="M125.68,337.86h-2.94v-7.52a29.69,29.69,0,0,1-5.43,2.71L116,330.36a25.65,25.65,0,0,0,12-8.75l2.47,1.85a32.74,32.74,0,0,1-4.8,4.77Z"/><path class="cls-3" d="M142.39,323l2.89,3.53c-.47,2.62-1.13,6.34-5,9.08a14.19,14.19,0,0,1-5.18,2.24l-1.27-2.81c6.69-1.31,8.1-5.4,8.58-9.05h-9.67v-3Zm5.8-.1a2.31,2.31,0,1,1-4.62,0,2.32,2.32,0,1,1,4.62,0Zm-3.44,0a1.17,1.17,0,0,0,1.12,1.2,1.2,1.2,0,1,0-1.12-1.2Z"/><path class="cls-3" d="M158.14,324.26v3.31h-3.27v-3.31Zm0,7.91v3.32h-3.27v-3.32Z"/><path class="cls-3" d="M178.74,333.45V337H165.11a102.1,102.1,0,0,0,7.67-9.33c1-1.5,1.55-2.5,1.55-3.6a2.27,2.27,0,0,0-2.34-2.48c-2.35,0-3.69,2.13-4.25,3L166.19,321a7.22,7.22,0,0,1,5.87-2.93c3,0,6,1.82,6,5.87,0,3-1.55,5.06-5.31,9.54Z"/><path class="cls-3" d="M184.91,332.92v3.85c0,2.38-1.51,3-4,3.05V338c1.55,0,1.78-.46,1.8-1.13h-1.8v-3.9Z"/><path class="cls-3" d="M194.51,337v-3.62H187v-3.22l7.65-11.73h3.6V330h2.06v3.4h-2.06V337Zm0-7v-6.15L190.59,330Z"/><path class="cls-3" d="M202.48,323.08c0-2.87,2.29-5,5.62-5s5.61,2.17,5.61,5a4.67,4.67,0,0,1-1.64,3.58,5.45,5.45,0,0,1,2.52,4.73c0,3.58-2.94,6-6.49,6s-6.49-2.35-6.49-6a5.46,5.46,0,0,1,2.51-4.73A4.61,4.61,0,0,1,202.48,323.08Zm8.37,8.17a2.76,2.76,0,0,0-5.5,0,2.76,2.76,0,0,0,5.5,0Zm-.67-8.06a2.08,2.08,0,0,0-4.16,0,2.08,2.08,0,0,0,4.16,0Z"/><path class="cls-3" d="M227.59,320.9a16.8,16.8,0,0,1,0,13.61,5.8,5.8,0,0,1-10,0c-.8-1.34-1.43-3.37-1.43-6.81a13.24,13.24,0,0,1,1.43-6.8,5.78,5.78,0,0,1,10,0Zm-7.69,6.8c0,3.55.69,6.12,2.7,6.12s2.71-2.64,2.71-6.12c0-3.22-.58-6.13-2.71-6.13S219.9,324.25,219.9,327.7Z"/><path class="cls-3" d="M237.58,326.49h7.34a64.2,64.2,0,0,1-.73,9.65c-.47,2.3-1.72,2.58-2.92,2.58h-3l-.5-2.92h2.47c.9,0,1.16-.26,1.36-1.25a35.48,35.48,0,0,0,.42-5.35h-4.64a13.32,13.32,0,0,1-5.65,9.58L230,336.16c2.24-1.38,4.82-3.69,4.82-10.07v-1.83h-4.47v-2.73h15.89v2.73h-8.65Z"/><path class="cls-3" d="M250.45,338.72h-2.7V321.51h14.69v15.17c0,2-1.4,2-1.95,2h-3.08l-.47-2.9h2.15c.64,0,.64-.17.64-.75v-3.19h-9.28Zm3.29-14.46h-3.29v5h3.29Zm6,5v-5H256.4v5Z"/><path class="cls-4" d="M40.53,268.53l-1.26,1.91c-.11-.25-.38-.76-.83-1.53v5.92H36.17V269.6a13.43,13.43,0,0,1-1.67,3,11.82,11.82,0,0,0-1.12-2.41,13.44,13.44,0,0,0,2.29-3.89H33.78v-2.13h2.39V262.6c-.62.09-1.23.17-1.83.23a6.42,6.42,0,0,0-.64-1.78,23.8,23.8,0,0,0,5.41-1.34l1.42,1.84c-.8.27-1.5.47-2.09.61v2h1.75v2.13H38.44v.17q.33.27,1.11,1.05C40.07,268,40.4,268.36,40.53,268.53Zm6.64-.56-1.64-.44c.65,2.7,1.8,4.52,3.47,5.44a6.09,6.09,0,0,0-1.42,1.8,8.09,8.09,0,0,1-3.17-4.2,8.36,8.36,0,0,1-3.49,4.28,4.59,4.59,0,0,0-.66-.92,6.05,6.05,0,0,0-.84-.8,7.17,7.17,0,0,0,1.16-.84,7.83,7.83,0,0,0,.9-.93,5,5,0,0,0,.67-1.09c.19-.42.35-.81.48-1.18a7.45,7.45,0,0,0,.32-1.38c.09-.54.15-1,.2-1.47s.08-1,.1-1.67,0-1.27,0-1.79,0-1.17,0-2v-1.09h2.14c0,3.17-.08,5.35-.17,6.51l.14.8a21,21,0,0,0,1.14-3.84l2.28.5A43.35,43.35,0,0,1,47.17,268Zm-5.2.16-2-.77a9.4,9.4,0,0,0,.83-4.18l2,.26A10.16,10.16,0,0,1,42,268.13Z"/><path class="cls-4" d="M50,264.69v-2.16h3.36c.11-.37.24-.79.37-1.26h2.36a1.55,1.55,0,0,0-.09.34,9.23,9.23,0,0,1-.28.92h3.56v2.16H54.66a2.6,2.6,0,0,1-.19.39c-.13.23-.24.44-.33.64l.18-.13a1,1,0,0,1,.27-.15,1.83,1.83,0,0,1,1.64,0A1.89,1.89,0,0,1,57,266.6c.58-.32,1.13-.58,1.64-.8s1.08-.44,1.7-.67v2.53l-.48.16c-.32.1-.72.24-1.22.42s-1,.38-1.5.61V271H55v-1.12l-.15.1-.23.13c-.45.38-.64.73-.56,1.05s.45.5,1.14.52a19.07,19.07,0,0,0,2.07-.14c.65-.07,1.18-.15,1.6-.23l.64-.13v2.57a6.3,6.3,0,0,1-1.18.15,29.33,29.33,0,0,1-3.27.1,3.69,3.69,0,0,1-2-.59,2.51,2.51,0,0,1-1-1.4,2.63,2.63,0,0,1,.17-1.79,4.36,4.36,0,0,1,1.53-1.76c.22-.15.43-.29.65-.42l.65-.41a.59.59,0,0,0-.14-.39.64.64,0,0,0-.47-.06,2.75,2.75,0,0,0-.75.36,11.58,11.58,0,0,0-.93.71c-.32.27-.62.54-.9.79q-.77.84-1.32,1.38c-.37.36-.57.54-.59.55v-2.9a3.71,3.71,0,0,0,.38-.34,7,7,0,0,0,.84-.94q.47-.61,1-1.41l.22-.44c.08-.16.12-.26.13-.28Z"/><path class="cls-4" d="M68.67,272.58h1.75c.28,0,.47-.07.55-.22a3.49,3.49,0,0,0,.19-1.08,5.09,5.09,0,0,0,2,.8,3.45,3.45,0,0,1-.73,2,2.67,2.67,0,0,1-1.83.52H68.38a3.34,3.34,0,0,1-2.25-.54,2.7,2.7,0,0,1-.57-2v-1.85h2.16c-.16-.11-.34-.24-.55-.37l1.1-.91H65v-3.53H69.7v2.25a8.32,8.32,0,0,0,1.19-.92,16.43,16.43,0,0,1-1.09-3.91H64.86v.66q0,4.56-1.88,6.78a5.82,5.82,0,0,0-.82-.77,5.89,5.89,0,0,0-.88-.64,5.23,5.23,0,0,0,1.17-2.41,15.46,15.46,0,0,0,.27-3v-2.44h6.86c0-.62-.07-1.1-.08-1.42h2.17c0,.63,0,1.11.08,1.42h.91c-.25-.12-.51-.24-.77-.34L73,259.44a7.16,7.16,0,0,1,2.2,1.06l-.46.55h1.31v1.81H72c.11.58.26,1.23.47,2a9.17,9.17,0,0,0,.8-1.75l2.16.5a12.74,12.74,0,0,1-1.93,3.51,1.26,1.26,0,0,0,.93.61c.16,0,.29-.14.36-.42a7.56,7.56,0,0,0,.18-1.44,4.7,4.7,0,0,0,1.72,1,4.58,4.58,0,0,1-.74,2.35,2.11,2.11,0,0,1-1.65.59A3,3,0,0,1,72,268.64a9.77,9.77,0,0,1-1.26,1,11.17,11.17,0,0,0-1.07-1.14v.5h-.5A9.31,9.31,0,0,1,71,270.5l-1.62,1.36a8.25,8.25,0,0,0-1.52-1.48v1.69c0,.23,0,.37.14.43A1.76,1.76,0,0,0,68.67,272.58Zm-5.29,1.94-1.93-1.31a5.66,5.66,0,0,0,1.89-3l2.1.73A7.12,7.12,0,0,1,63.38,274.52Zm6.34-11.09v1.43H65.09v-1.43Zm-1.89,4.1v-.65h-1v.65Zm4.47,3.32,2-1a15.15,15.15,0,0,1,1.45,1.72,7.78,7.78,0,0,1,1,1.69l-2.12,1.06a8.11,8.11,0,0,0-.87-1.71A12.59,12.59,0,0,0,72.3,270.85Z"/><path class="cls-4" d="M81,261.08v8.72a2.34,2.34,0,0,0,.31,1.36,1.18,1.18,0,0,0,.94.48,4.49,4.49,0,0,0,1.75-.39,14.83,14.83,0,0,0,1.79-1q.89-.56,2-1.44v2.86A16,16,0,0,1,86,272.92a10.31,10.31,0,0,1-1.83.83,6.88,6.88,0,0,1-2.14.39,3.19,3.19,0,0,1-2.64-1.07,4.57,4.57,0,0,1-.81-2.88v-9.11Zm2,2.63v-2.58h1.23v2.58Zm2.13,0v-2.58h1.23v2.58Z"/><path class="cls-4" d="M90.45,261.69h7.38v2.19l-2.78,2.05a3.84,3.84,0,0,1,2.35.14,3.11,3.11,0,0,1,1.44,1.36,4.48,4.48,0,0,1,.55,2.15,4.09,4.09,0,0,1-2.26,3.81A6.56,6.56,0,0,1,95,274a5.87,5.87,0,0,1-2.25-.18,2.85,2.85,0,0,1-1.41-.86,2.36,2.36,0,0,1-.51-1.52,2.77,2.77,0,0,1,.28-1.23,2,2,0,0,1,1-1,3.06,3.06,0,0,1,1.83-.18,3.23,3.23,0,0,1,1.62.77,4.2,4.2,0,0,1,1,1.44,1.92,1.92,0,0,0,.48-.77,2.5,2.5,0,0,0,.13-.92,1.53,1.53,0,0,0-.56-1.26,2.85,2.85,0,0,0-1.82-.41,5.14,5.14,0,0,0-2,.43,6.75,6.75,0,0,0-1.46.94l-1.84,1.53v-3l4.87-3.69H90.45Zm3,8.88a.62.62,0,0,0-.62.28.68.68,0,0,0,0,.65,1.1,1.1,0,0,0,.69.52,2.74,2.74,0,0,0,1,.09l.41-.06a1.8,1.8,0,0,0-.49-1A1.62,1.62,0,0,0,93.45,270.57Z"/><path class="cls-4" d="M106.5,261c0,.3-.1.58-.16.82a4,4,0,0,1-.09.4h5.34v2.39a11.42,11.42,0,0,1-.89,3.72,8.75,8.75,0,0,1-1.78,2.63,12.73,12.73,0,0,1-2.15,1.74,12,12,0,0,1-3.6,1.53,4,4,0,0,1-.61.12v-2.54l.55-.13a11.78,11.78,0,0,0,1.35-.47,8.86,8.86,0,0,0,1.71-1,7.07,7.07,0,0,0,1.64-1.6h-2.89v-2.33h3.83a8,8,0,0,0,.3-1.76h-3.67a10.85,10.85,0,0,1-1.88,2.66,15.46,15.46,0,0,1-1.48,1.29,4.06,4.06,0,0,1-.61.41v-3l.35-.29a5.87,5.87,0,0,0,.78-.89,8.87,8.87,0,0,0,.86-1.53,9.9,9.9,0,0,0,.65-2.18Zm2.34.66v-2.25h1.08v2.25Zm1.69,0v-2.25h1.08v2.25Z"/><path class="cls-4" d="M113.41,268.66v-2.45h7.22v2.45Z"/><path class="cls-4" d="M127.23,261c0,.29-.09.58-.15.85s-.13.53-.19.78H132V265a10.46,10.46,0,0,1-.89,3.58,8.59,8.59,0,0,1-1.73,2.56,10.23,10.23,0,0,1-2.06,1.61,15.46,15.46,0,0,1-2,1,11,11,0,0,1-1.49.49,4.14,4.14,0,0,1-.59.12v-2.54a2.52,2.52,0,0,0,.61-.14,9.18,9.18,0,0,0,1.48-.59,8.18,8.18,0,0,0,1.83-1.28,7.09,7.09,0,0,0,1.54-2,8.39,8.39,0,0,0,.79-2.85h-3.61a15.64,15.64,0,0,1-1.77,2.28,11.58,11.58,0,0,1-1.43,1.28,3.43,3.43,0,0,1-.6.39v-3a2.66,2.66,0,0,0,.35-.29,4.8,4.8,0,0,0,.78-.93,11,11,0,0,0,.85-1.52,9.3,9.3,0,0,0,.65-2.15Z"/><path class="cls-4" d="M138.8,261c-.05.29-.1.58-.16.85s-.12.53-.19.78h5.14V265a10.46,10.46,0,0,1-.89,3.58,8.76,8.76,0,0,1-1.72,2.56,10.28,10.28,0,0,1-2.07,1.61,16.07,16.07,0,0,1-2,1,11,11,0,0,1-1.5.49,3.86,3.86,0,0,1-.59.12v-2.54a2.54,2.54,0,0,0,.62-.14,9.13,9.13,0,0,0,1.47-.59,7.75,7.75,0,0,0,1.83-1.28,6.91,6.91,0,0,0,1.54-2,8.39,8.39,0,0,0,.79-2.85H137.5a14.37,14.37,0,0,1-1.77,2.28,11.58,11.58,0,0,1-1.43,1.28,3.43,3.43,0,0,1-.6.39v-3a2.66,2.66,0,0,0,.35-.29,4.47,4.47,0,0,0,.78-.93,11,11,0,0,0,.85-1.52,8.84,8.84,0,0,0,.65-2.15Zm2.08,1v-2.25H142v2.25Zm1.68,0v-2.25h1.08v2.25Z"/><path class="cls-4" d="M146.17,268.49v-7.33h2.42v7.33Zm2.25,3.2a7.29,7.29,0,0,0,1.41-.46,3.93,3.93,0,0,0,1.12-.8,5.23,5.23,0,0,0,.92-1.4,5.42,5.42,0,0,0,.41-2.15v-5.72h2.42v5.72a8.4,8.4,0,0,1-.62,3.32,6.06,6.06,0,0,1-1.61,2.21,7.28,7.28,0,0,1-1.9,1.21,10.31,10.31,0,0,1-1.51.51l-.64.14Z"/><path class="cls-4" d="M157.05,268.66v-2.45h7.22v2.45Z"/><path class="cls-4" d="M165.88,264.18v-2.44h4.87v2.44Zm10.39.18a14.3,14.3,0,0,1-2.1,4.66,11.57,11.57,0,0,1-2.72,2.77,10.94,10.94,0,0,1-2.68,1.39,9.66,9.66,0,0,1-2.07.47,8.14,8.14,0,0,1-.82.06v-2.55a6.12,6.12,0,0,0,.64,0,8.76,8.76,0,0,0,1.6-.32,6.69,6.69,0,0,0,2-1.08,9.61,9.61,0,0,0,2-2,11.75,11.75,0,0,0,1.62-3.35Z"/><path class="cls-4" d="M178.34,274.13V261h2.47v4.22h6.57v2.46h-6.57v6.42Zm4-10.81v-2.25h1.08v2.25Zm1.69,0v-2.25h1.07v2.25Z"/><path class="cls-4" d="M189,263.86v-2.39h10.56v2.39a8.54,8.54,0,0,1-1.18,3,6.82,6.82,0,0,1-1.6,1.78,11.45,11.45,0,0,1-1.26.79,2.58,2.58,0,0,1-.49.24v-2.69a2,2,0,0,0,.4-.23,3.54,3.54,0,0,0,.86-.92,5,5,0,0,0,.73-1.93Zm0,7.71a2.94,2.94,0,0,0,.51-.12,3.25,3.25,0,0,0,1.08-.59,3.92,3.92,0,0,0,1-1.43,6.2,6.2,0,0,0,.48-2.61v-1.44h2.36v1.53a8.29,8.29,0,0,1-.62,3.23,7.54,7.54,0,0,1-1.39,2.14,6.71,6.71,0,0,1-1.58,1.25,9.57,9.57,0,0,1-1.88.74Z"/><path class="cls-4" d="M210,271.58l-1.66,1.66-2.9-2.91-2.93,2.91-1.64-1.66,2.91-2.9-2.91-2.91,1.64-1.66,2.93,2.92,2.9-2.92,1.66,1.66-2.92,2.91Z"/><path class="cls-4" d="M216.39,261a7.52,7.52,0,0,1-.16.85q-.09.4-.18.78h5.14V265a10.69,10.69,0,0,1-.89,3.58,8.78,8.78,0,0,1-1.73,2.56,10.23,10.23,0,0,1-2.06,1.61,16.14,16.14,0,0,1-2,1,11.44,11.44,0,0,1-1.49.49,4.08,4.08,0,0,1-.6.12v-2.54a2.54,2.54,0,0,0,.62-.14,9.56,9.56,0,0,0,1.48-.59,8.18,8.18,0,0,0,1.83-1.28,7.06,7.06,0,0,0,1.53-2,8.17,8.17,0,0,0,.79-2.85h-3.61a15,15,0,0,1-1.76,2.28,12.36,12.36,0,0,1-1.43,1.28,3.43,3.43,0,0,1-.6.39v-3l.35-.29a4.82,4.82,0,0,0,.77-.93,10,10,0,0,0,.85-1.52,8.42,8.42,0,0,0,.65-2.15Zm2.08,1v-2.25h1.08v2.25Zm1.69,0v-2.25h1.07v2.25Z"/><path class="cls-4" d="M233.64,265.71a16.57,16.57,0,0,1-2.3,4.07,10.86,10.86,0,0,1-2.56,2.43,9.7,9.7,0,0,1-2.39,1.2,10.57,10.57,0,0,1-2.64.42V261.44h2.48v9.39a4.56,4.56,0,0,0,1.59-.81,8.48,8.48,0,0,0,1.75-1.7,11.66,11.66,0,0,0,1.49-2.61Z"/><path class="cls-4" d="M235.05,268.66v-2.45h7.22v2.45Z"/><path class="cls-4" d="M254.23,261.33a13.37,13.37,0,0,1-1.6,2.56c-.63.81-1.2,1.5-1.72,2.1v8.22h-2.47v-6.32a13.92,13.92,0,0,1-2.31,1.55,14.7,14.7,0,0,1-1.77.81l-.67.22V268l.79-.32a15.34,15.34,0,0,0,2-1.07,14.27,14.27,0,0,0,2.52-2,14.81,14.81,0,0,0,2.42-3.21Z"/><path class="cls-4" d="M255.52,264.18v-2.44h4.87v2.44Zm10.39.18a14.09,14.09,0,0,1-2.1,4.66,11.57,11.57,0,0,1-2.72,2.77,10.94,10.94,0,0,1-2.68,1.39,9.66,9.66,0,0,1-2.07.47,8.14,8.14,0,0,1-.82.06v-2.55a6.12,6.12,0,0,0,.64,0,8.76,8.76,0,0,0,1.6-.32,6.69,6.69,0,0,0,2.05-1.08,9.37,9.37,0,0,0,2-2,11.75,11.75,0,0,0,1.62-3.35Z"/><path class="cls-4" d="M267.44,268V265.6h10.19V268h-3.25a6.28,6.28,0,0,1-.8,2.78,5.29,5.29,0,0,1-1.67,1.75,8.15,8.15,0,0,1-1.9.94,10.76,10.76,0,0,1-1.52.38,3.85,3.85,0,0,1-.61.07v-2.52a3.64,3.64,0,0,0,.59-.07,6,6,0,0,0,1.37-.4,3.32,3.32,0,0,0,1.34-1,3.47,3.47,0,0,0,.66-1.91Zm.44-4v-2.39h9.32V264Z"/><path class="cls-4" d="M280,268.49v-7.33h2.42v7.33Zm2.25,3.2a7.29,7.29,0,0,0,1.41-.46,3.89,3.89,0,0,0,1.11-.8,4.79,4.79,0,0,0,.92-1.4,5.24,5.24,0,0,0,.42-2.15v-5.72h2.42v5.72a8.4,8.4,0,0,1-.62,3.32,6.17,6.17,0,0,1-1.61,2.21,7.28,7.28,0,0,1-1.9,1.21,10.31,10.31,0,0,1-1.51.51l-.64.14Z"/><path class="cls-4" d="M290.88,263.86v-2.39h10.56v2.39a8.54,8.54,0,0,1-1.19,3,6.64,6.64,0,0,1-1.59,1.78,11.45,11.45,0,0,1-1.26.79,3,3,0,0,1-.49.24v-2.69a2.14,2.14,0,0,0,.39-.23,3.38,3.38,0,0,0,.86-.92,5,5,0,0,0,.73-1.93Zm0,7.71a3,3,0,0,0,.5-.12,3.25,3.25,0,0,0,1.08-.59,4.05,4.05,0,0,0,1.05-1.43,6.38,6.38,0,0,0,.47-2.61v-1.44h2.36v1.53a8.29,8.29,0,0,1-.62,3.23,7.75,7.75,0,0,1-1.38,2.14,7.14,7.14,0,0,1-1.58,1.25,10.09,10.09,0,0,1-1.88.74Z"/></g></svg>