<svg id="レイヤー_1" data-name="レイヤー 1" xmlns="http://www.w3.org/2000/svg" viewBox="0 0 340 396"><defs><style>.cls-1{fill:none;}.cls-2{fill:#fff;}.cls-3{fill:#fff171;}.cls-4{fill:#40220f;}</style></defs><title>tb11</title><rect class="cls-1" width="340" height="396"/><g id="_11" data-name="11"><path class="cls-2" d="M41,38.58a12.84,12.84,0,0,0,2.61-4.25,12.19,12.19,0,0,0,.87-3.68.9.9,0,0,0-.47-.88,14.63,14.63,0,0,0-4,1.14,1.17,1.17,0,0,1-.56.18,1.67,1.67,0,0,1-1.13-.69,1.77,1.77,0,0,1-.61-1.08,1.13,1.13,0,0,1,.07-.34,1.7,1.7,0,0,0,1.48.83,18.62,18.62,0,0,0,3.07-.47c1.1-.18,3.39-.47,5.55-.67a8.37,8.37,0,0,0,1.4-.3,1,1,0,0,1,.45-.09,2.27,2.27,0,0,1,1,.27c.5.23.85.57.85.83s-.2.36-.51.36a1.51,1.51,0,0,1-.45-.06,17.48,17.48,0,0,0-2.9-.23,21.45,21.45,0,0,0-3,.18c.83.45,1.19.83,1.19,1.24a11,11,0,0,1-1.15,3.53,10.54,10.54,0,0,1-3.57,4.37Zm-.34-13.9a2.94,2.94,0,0,0,2.16,1,10,10,0,0,0,3.78-.88,1.06,1.06,0,0,1,.54-.15c.47,0,1.23.58,1.23.94s-.22.32-.94.48a24.55,24.55,0,0,1-4.12.47,3.06,3.06,0,0,1-2.92-1.65ZM49,24a9,9,0,0,1,2.12,1.26,1.29,1.29,0,0,1,.56,1.08c0,.54-.2,1-.45,1s-.25-.13-.4-.43a7.92,7.92,0,0,0-2-2.67Zm1.58-1a7.26,7.26,0,0,1,2.16,1c.51.36.65.61.65,1.06s-.16.87-.4.87-.25-.09-.39-.36a6.7,6.7,0,0,0-2.16-2.38Z"/><path class="cls-2" d="M58.58,30.08a15.18,15.18,0,0,0,2.57-.34,2.47,2.47,0,0,0,.76-.24,1.27,1.27,0,0,1,.23-.12.54.54,0,0,1,.27-.08,1.86,1.86,0,0,1,.9.62c.29.3.36.43.36.61a.36.36,0,0,1-.12.29,3.27,3.27,0,0,0-.42,1.24c-.27,1-.64,2.61-.77,3.17l.74-.06A5.29,5.29,0,0,0,65,34.92a.85.85,0,0,1,.3-.09,2.15,2.15,0,0,1,.76.31c.43.25.7.57.7.83a.39.39,0,0,1-.41.36,3.92,3.92,0,0,1-1-.2A10.13,10.13,0,0,0,63.21,36a18.65,18.65,0,0,0-4.69.55A7.09,7.09,0,0,0,57,37a.86.86,0,0,1-.47.14,1.49,1.49,0,0,1-1-.59,2.58,2.58,0,0,1-.59-1.19,1,1,0,0,1,.07-.31,1.64,1.64,0,0,0,1.37.85c.18,0,.65,0,1.22-.13,1.16-.18,2.06-.3,2.74-.37s.74-.09,1.1-.15a48.47,48.47,0,0,0,.7-4.93c0-.06,0-.07,0-.07a17.55,17.55,0,0,0-2.16.46,7,7,0,0,0-1,.38,1.14,1.14,0,0,1-.43.09c-.33,0-.63-.25-.9-.72a2.13,2.13,0,0,1-.34-1,.6.6,0,0,1,.1-.36A1.42,1.42,0,0,0,58.58,30.08Z"/><path class="cls-2" d="M71,30a2.41,2.41,0,0,0,1.75.43l2.21-.06,7-.1a7.11,7.11,0,0,1,2.35.16.37.37,0,0,1,.25.36.52.52,0,0,1-.42.48c-.48.17-.91.18-4.32.22-1.67,0-5.8.13-6.43.16-.84.06-1,.07-1.29.24a2.56,2.56,0,0,1-.27.05c-.27,0-.56-.2-.87-.59a3.32,3.32,0,0,1-.68-1.66c0-.25,0-.29.14-.41A1.68,1.68,0,0,0,71,30Z"/><path class="cls-2" d="M89.12,38.23a24.48,24.48,0,0,0,6-6.89,17.76,17.76,0,0,0,2.15-4.81c0-.18-.09-.23-.36-.23a26.88,26.88,0,0,0-3.33.61,19.24,19.24,0,0,0-3.3,1,1.81,1.81,0,0,1-.67.18c-.37,0-.84-.36-1.29-1A2.06,2.06,0,0,1,87.81,26a.57.57,0,0,1,.13-.36,1.73,1.73,0,0,0,1.67,1A43,43,0,0,0,94.74,26a6,6,0,0,0,2.09-.5c.22-.13.22-.13.36-.13a2.79,2.79,0,0,1,1.32.83,1.44,1.44,0,0,1,.55.89c0,.14,0,.25-.25.46a3.48,3.48,0,0,0-.63,1A26.21,26.21,0,0,1,93,35.77a17.93,17.93,0,0,1-3.71,2.68Zm13.29-13.59a1.8,1.8,0,1,1-1.8-1.8A1.81,1.81,0,0,1,102.41,24.64Zm-3.06,0a1.26,1.26,0,1,0,2.52,0,1.26,1.26,0,0,0-2.52,0Z"/><path class="cls-2" d="M117.62,29.52a15.89,15.89,0,0,1-2.68,3.06,22.4,22.4,0,0,1-5.44,3.67c-1,.53-1,.53-1.35.87a.55.55,0,0,1-.41.23c-.36,0-1.19-1.06-1.19-1.55,0-.09,0-.09.09-.32a10.14,10.14,0,0,0,.14-2.76c0-4-.09-5.72-.32-6.39-.16-.45-.45-.66-1.24-.93a.81.81,0,0,1,.55-.18,3.44,3.44,0,0,1,1.45.43c.7.38,1.06.74,1.06,1.1,0,.1,0,.1-.09.38a9.91,9.91,0,0,0-.24,1.78c-.09,1.1-.19,4.37-.19,5.71v.9a23.15,23.15,0,0,0,6.13-3.19,23.93,23.93,0,0,0,3.5-3Z"/><path class="cls-2" d="M121,28.75a9.47,9.47,0,0,1,3.15,1.06A1.28,1.28,0,0,1,124.8,31c0,.46-.23.86-.5.86s-.29-.07-.56-.41A8.86,8.86,0,0,0,120.86,29Zm13.9-.45a21.29,21.29,0,0,1-2.69,3.07,40.26,40.26,0,0,1-6.82,5.24,14.3,14.3,0,0,0-1.39,1,.58.58,0,0,1-.41.18c-.36,0-.78-.34-1.28-1.08a3,3,0,0,1-.56-1.38.67.67,0,0,1,.16-.42c.35.69.85,1.12,1.35,1.12a11.75,11.75,0,0,0,3.46-1.76,41.67,41.67,0,0,0,8-6.13ZM123,25.56c2.88.68,3.8,1.24,3.8,2.29,0,.5-.22.9-.49.9s-.2,0-1-1a8.33,8.33,0,0,0-2.47-2Zm7.38-1.44c1.93.84,2.79,1.56,2.79,2.32a1.48,1.48,0,0,1-.25.87.3.3,0,0,1-.22.09c-.2,0-.25-.06-.5-.55a9.3,9.3,0,0,0-2-2.55ZM132,23c2,.66,2.92,1.33,2.92,2.14,0,.52-.18.92-.43.92s-.27-.11-.47-.45a8,8,0,0,0-2.14-2.42Z"/><path class="cls-2" d="M141.07,38.58a12.84,12.84,0,0,0,2.61-4.25,12.19,12.19,0,0,0,.87-3.68.9.9,0,0,0-.47-.88,14.63,14.63,0,0,0-4,1.14,1.14,1.14,0,0,1-.56.18,1.67,1.67,0,0,1-1.13-.69,1.77,1.77,0,0,1-.61-1.08,1.13,1.13,0,0,1,.07-.34,1.7,1.7,0,0,0,1.48.83,18.78,18.78,0,0,0,3.08-.47c1.09-.18,3.38-.47,5.54-.67a8.7,8.7,0,0,0,1.41-.3,1,1,0,0,1,.45-.09,2.27,2.27,0,0,1,.95.27c.5.23.85.57.85.83s-.2.36-.51.36a1.55,1.55,0,0,1-.45-.06,17.48,17.48,0,0,0-2.9-.23,21.45,21.45,0,0,0-2.95.18c.83.45,1.19.83,1.19,1.24a11,11,0,0,1-1.15,3.53,10.54,10.54,0,0,1-3.57,4.37Zm-.34-13.9a2.94,2.94,0,0,0,2.16,1,10,10,0,0,0,3.78-.88,1.06,1.06,0,0,1,.54-.15c.47,0,1.23.58,1.23.94s-.22.32-.94.48a24.55,24.55,0,0,1-4.12.47,3.08,3.08,0,0,1-2.92-1.65Zm8.34-.71a9,9,0,0,1,2.12,1.26,1.29,1.29,0,0,1,.56,1.08c0,.54-.2,1-.45,1s-.25-.13-.4-.43a8,8,0,0,0-2-2.67Zm1.58-1a7.26,7.26,0,0,1,2.16,1c.51.36.65.61.65,1.06s-.16.87-.4.87-.25-.09-.39-.36a6.7,6.7,0,0,0-2.16-2.38Z"/><path class="cls-2" d="M156.43,25.79a10.34,10.34,0,0,1,3.47,1.35,1.38,1.38,0,0,1,.61,1.23c0,.59-.19,1-.5,1s-.29-.09-.78-.72A9.32,9.32,0,0,0,156.3,26Zm12.8,1a18.83,18.83,0,0,1-3.78,4.84,35.5,35.5,0,0,1-5.06,4.11c-.85.59-.94.66-1.07.83-.28.34-.39.43-.63.43-.73,0-2.1-1.73-2.1-2.65a.88.88,0,0,1,.09-.36,2.52,2.52,0,0,0,.65.79,1.13,1.13,0,0,0,.72.38,4.47,4.47,0,0,0,1.74-.75,26.06,26.06,0,0,0,4.31-3,28.58,28.58,0,0,0,4.84-4.8Z"/><path class="cls-2" d="M172,37.17a26,26,0,0,0,4.84-3.94,32.55,32.55,0,0,0,3.44-4.48,12.46,12.46,0,0,0,1.22-2.33,19.18,19.18,0,0,0-3.8.8,9.72,9.72,0,0,0-1.51.48.77.77,0,0,1-.3.06c-.4,0-.78-.33-1.17-1a2.16,2.16,0,0,1-.38-1.08.69.69,0,0,1,.12-.36c.53.93.9,1.21,1.7,1.21a29,29,0,0,0,3.78-.51,4.9,4.9,0,0,0,1.69-.5.72.72,0,0,1,.41-.17c.38,0,1.41.92,1.41,1.26a.42.42,0,0,1-.24.35c-.37.25-.37.25-1,1.22-.87,1.3-.87,1.3-2.27,3.13a17.84,17.84,0,0,1,4.66,3,2.37,2.37,0,0,1,.69,1.78c0,.58-.18.94-.49.94-.13,0-.27-.09-.41-.29a4,4,0,0,1-.44-.72,15.31,15.31,0,0,0-4.28-4.41,19.73,19.73,0,0,1-4.36,4.05,16,16,0,0,1-3.15,1.76Z"/><path class="cls-2" d="M195.27,25.85h.63c.58-.75.76-1,1.31-1.62a13.85,13.85,0,0,1,1.91,1.83.51.51,0,0,1,.15.29c0,.08-.12.17-.26.17h-3.74V29a19.74,19.74,0,0,1,1.88,1.33c1.22,1,1.48,1.42,1.48,2.24,0,1-.32,1.79-.75,1.79s-.38-.17-.67-1a11.77,11.77,0,0,0-1.94-3.77l0,6.35,0,3.25v2.49c0,.35,0,1,0,1.86,0,.29-.06.35-.29.41a7.18,7.18,0,0,1-1.22.11c-.31,0-.46-.11-.46-.35v-.08l.09-7.52.14-6.12c-1.74,4.21-2.75,6-4.55,8.13l-.29-.18a36.82,36.82,0,0,0,2.9-6.64,35.69,35.69,0,0,0,1.42-4.76h-2.49a4.12,4.12,0,0,0-1.25.2l-.2-1.13a4.2,4.2,0,0,0,1.45.26h2.78V21.24c-1.54.35-2.18.47-4,.73l-.09-.32c4.76-1.71,6.47-2.55,7.86-3.83.49.32.84.52,1.07.67,1.31.81,1.42.9,1.42,1.1s-.17.26-.43.26a6.07,6.07,0,0,1-1.13-.15,20.25,20.25,0,0,1-2.87,1.05Zm3.27-4.29a74.57,74.57,0,0,0,8.74-2.15,16.25,16.25,0,0,0,4.49-1.91c.49.35.87.64,1.13.81,1.34.93,1.57,1.13,1.57,1.37s-.18.26-.41.26a9,9,0,0,1-1.45-.32,60.61,60.61,0,0,1-14,2.38Zm1.19.93a9.93,9.93,0,0,1,1.89,2c.61.79.72,1.08.72,1.63,0,.81-.58,1.74-1.07,1.74-.23,0-.32-.18-.41-1a15.53,15.53,0,0,0-1.45-4.15Zm0,21.23c.09-1.88.12-2.69.12-4.29,0-6.93,0-9.51-.18-11.17,2.62.26,3,.35,3,.61s-.17.32-1,.67l0,7c0,1.65,0,4.47.06,7.11,0,.37-.29.46-1.42.46-.38,0-.5-.09-.5-.32Zm4.64-21.84a11.51,11.51,0,0,1,2.15,2.26c.58.76.75,1.08.75,1.51,0,.84-.66,1.89-1.18,1.89-.24,0-.35-.18-.41-.55-.12-.61-.2-1-.44-1.86a12.59,12.59,0,0,0-1.16-3Zm2.12,21.76v0c0,.18-.06.24-.23.29a5,5,0,0,1-1.13.12c-.38,0-.5-.09-.5-.35.09-2,.09-2.64.09-4.64,0-7.37,0-9-.14-10.79a19.2,19.2,0,0,1,2.14,1.16h5c.52-.58.7-.75,1.19-1.28.58.47.75.61,1.33,1.14.24.2.32.31.32.46s-.14.32-.72.64v3c0,3.92.06,8.33.14,9.92v0c0,.24,0,.29-.23.38a5.65,5.65,0,0,1-1.36.17c-.29,0-.41-.08-.41-.31V42.5h-5.51ZM212,35.28V30.15h-5.51v5.13Zm-5.51.67v5.89H212V36Zm2.21-7.4a33.09,33.09,0,0,0,2.11-4.09A15.38,15.38,0,0,0,212,21.3c2.73.87,3.05,1,3.05,1.31s-.32.37-1,.37h-.43A24.24,24.24,0,0,1,209,28.76Z"/><path class="cls-2" d="M219.77,24.84a22.16,22.16,0,0,1,3.95,1.71,1.49,1.49,0,0,1,.75,1.36c0,.9-.41,1.86-.78,1.86-.21,0-.41-.23-.73-.75a13.75,13.75,0,0,0-3.45-3.89Zm.06,10.35a14.29,14.29,0,0,0,1.91.41c.35,0,.5-.17,1.11-1.3s1.39-2.62,3.1-6.15c1.45-3,1.45-3,2.23-4.44l.41.2L224,36a4.2,4.2,0,0,0-.41,1.45,4.86,4.86,0,0,0,.23,1.19,8.88,8.88,0,0,1,.47,2.61,2.23,2.23,0,0,1-1.08,1.88,2,2,0,0,1-1,.47c-.35,0-.61-.38-.61-.87a6.8,6.8,0,0,1,.17-1,20.13,20.13,0,0,0,.27-3.16,3,3,0,0,0-.47-2,4,4,0,0,0-1.71-1Zm1.51-16.67c3.56,1.21,4.72,2,4.72,3.16,0,.87-.37,1.77-.75,1.77-.23,0-.32-.09-1-1.11a16.13,16.13,0,0,0-3.22-3.56Zm10.41,11.19a23.83,23.83,0,0,1-1.48,7A17.18,17.18,0,0,1,227,42,15.28,15.28,0,0,1,224.64,44l-.23-.35a14.36,14.36,0,0,0,2.76-3.77,21.4,21.4,0,0,0,2.4-7.8c.21-2.12.35-5.34.35-8.53,0-1.36,0-1.48-.14-4.64a26.84,26.84,0,0,1,2.38,1.28h9a16.84,16.84,0,0,1,1.25-1.28c.75.55,1,.7,1.68,1.28.23.17.32.29.32.38s-.2.37-1.08.89v2.12c0,2.35,0,3.95.06,6.91,0,.52-.06.55-1.56.63-.29,0-.41-.08-.47-.34V29.71h-4.61A14.07,14.07,0,0,0,238.6,35a12.89,12.89,0,0,0,4.58,4.61,13.69,13.69,0,0,0,3.28,1.4v.43c-1.13.23-1.45.55-2,2a13.39,13.39,0,0,1-4.75-4.06,20.27,20.27,0,0,1-3.54-8.32c-.06-.32-.12-.55-.23-1.34Zm9.57-.66V20.87h-9.4c-.08,7.13-.08,7.13-.14,8.18Z"/><path class="cls-2" d="M251.61,35.08a12.79,12.79,0,0,1,.09,1.33,8.73,8.73,0,0,1-.58,3.6c-.38.84-.84,1.33-1.28,1.33s-.58-.58-.58-1.45c0-.61.09-.78.64-1.24a4.78,4.78,0,0,0,1.31-3.57Zm7.51-11.34c.53-.64.67-.84,1.19-1.42A19.56,19.56,0,0,1,262.26,24a.64.64,0,0,1,.11.23c0,.12-.08.14-.32.14h-4.32v3.48H259c.58-.63.76-.81,1.36-1.45.85.76,1.08,1,1.83,1.74a.82.82,0,0,1,.12.21c0,.11-.12.17-.35.17h-4.18v3.86h1.86c.61-.61.61-.61,1.13-1.1.61.55.81.72,1.39,1.27.21.27.26.35.26.44s-.11.26-.92.67c-.18,4-.67,7.07-1.34,8.32a3.33,3.33,0,0,1-1.33,1.22,6.78,6.78,0,0,1-2.06.41c-.21-1.31-.41-1.45-3.22-2.15l.06-.46c1.45.23,3.8.52,4.46.52.44,0,.73-.41,1-1.42a31.24,31.24,0,0,0,.75-7.05h-6.49v.61c0,.34-.29.43-1.25.43-.44,0-.58-.09-.58-.32v-.11c.09-2.61.12-3.72.12-7.31,0-5.31,0-6.47-.15-8.07.84.5,1.1.64,2,1.25H259c.55-.73.72-1,1.3-1.68a19.86,19.86,0,0,1,2.24,2,.62.62,0,0,1,.14.23c0,.12-.06.15-.35.15h-4.61v3.51ZM253,34.93c1.07,1.8,1.39,2.61,1.39,3.6,0,.55-.64,1.39-1.08,1.39-.23,0-.34-.2-.34-.64v-.17c.05-.93.08-1.39.08-1.62a7.82,7.82,0,0,0-.37-2.41Zm3.1-14.7h-2.84v3.51h2.84Zm-2.84,4.17v3.48h2.84V24.4Zm0,4.15v3.86h2.84V28.55Zm1.56,5.95c1.31,1.27,2.09,2.43,2.09,3.1s-.46,1.37-.84,1.37c-.17,0-.29-.12-.32-.41a11.34,11.34,0,0,0-1.22-3.89Zm2-.41c1.36,1.16,2.08,2.06,2.08,2.67S258.4,38,258.05,38c-.11,0-.2-.12-.26-.38s-.14-.64-.29-1.16a6,6,0,0,0-1-2.12Zm8.81-4.87a30.46,30.46,0,0,1-1,7.89,18.17,18.17,0,0,1-2.29,5A9.79,9.79,0,0,1,260.6,44l-.31-.26a18.26,18.26,0,0,0,2.87-7.43,62,62,0,0,0,.69-8.9c0-5.63,0-7.89-.08-9.31.92.61,1.21.78,2.14,1.42h6.5c.49-.52.64-.7,1.16-1.25.75.58,1,.76,1.62,1.34.24.17.32.32.32.43s-.05.21-1,.67c0,.7,0,1.25,0,1.68v1.19c0,1.07,0,2.15,0,3.16,0,.26,0,.47,0,1.83,0,.9,0,.9.06,1.65v.18c0,.35-.38.46-1.54.46-.38,0-.46-.06-.49-.32V29.22H269a13.83,13.83,0,0,0,1.85,6.44,14.78,14.78,0,0,0,3.69,4.26,8.34,8.34,0,0,0,2.52,1.4v.43c-1.13.23-1.33.41-2.2,1.8A13.79,13.79,0,0,1,271.05,39a20,20,0,0,1-2.44-7.39c-.06-.64-.12-1-.23-2.41Zm6.94-.67V20.23h-6.82c0,.93,0,1.74,0,2.17,0,2.06,0,3.8-.12,6.15Z"/><path class="cls-2" d="M282.3,40.74c2.29-.06,2.46-.27,2.46-3V24.14c0-2.69-.14-2.87-2.46-3v-.7h7.45v.7c-2.29.11-2.44.29-2.44,3V37.78c0,2.69.18,2.9,2.44,3v.72H282.3Zm9,0c2.26-.06,2.44-.27,2.44-3V24.14c0-2.69-.15-2.87-2.44-3v-.7h7.45v.7c-2.29.11-2.46.29-2.46,3V37.78c0,2.66.17,2.9,2.46,3v.72h-7.45Z"/><path class="cls-3" d="M79,333.71l-1,3.27H74.74l4.92-15h3.8l4.92,15H85.07l-1-3.27Zm2.52-8.79-1.79,6.15h3.61Z"/><path class="cls-3" d="M93.69,321.94H96.4v15H93.35V325.25l-2.56,1.86-.37-2.85Z"/><path class="cls-3" d="M101.17,328.08a11,11,0,0,0,4.34-5.52h9.65c-.82,10.92-6.92,14.07-11.56,15.55l-1.4-2.7a13,13,0,0,0,6.71-3.8,25.15,25.15,0,0,0-4.08-2.88,12.84,12.84,0,0,1-1.85,1.61Zm6.19-2.79c-.49.82-.67,1.1-1,1.52a19.41,19.41,0,0,1,4.1,2.6,11.87,11.87,0,0,0,1.31-4.12Z"/><path class="cls-3" d="M126.77,337.86h-2.94v-7.52a29.71,29.71,0,0,1-5.42,2.71l-1.35-2.69a25.74,25.74,0,0,0,12.05-8.75l2.47,1.85a32.92,32.92,0,0,1-4.81,4.77Z"/><path class="cls-3" d="M143.49,323l2.88,3.53c-.47,2.62-1.12,6.34-5,9.08a14,14,0,0,1-5.18,2.24l-1.27-2.81c6.7-1.31,8.1-5.4,8.59-9.05h-9.67v-3Zm5.8-.1a2.32,2.32,0,1,1-2.32-2.47A2.38,2.38,0,0,1,149.29,322.93Zm-3.44,0a1.12,1.12,0,1,0,2.24,0,1.12,1.12,0,1,0-2.24,0Z"/><path class="cls-3" d="M159.23,324.26v3.31H156v-3.31Zm0,7.91v3.32H156v-3.32Z"/><path class="cls-3" d="M179.83,333.45V337H166.2a100.43,100.43,0,0,0,7.67-9.33c1-1.5,1.55-2.5,1.55-3.6a2.27,2.27,0,0,0-2.33-2.48c-2.36,0-3.7,2.13-4.25,3L167.29,321a7.19,7.19,0,0,1,5.87-2.93c3,0,6,1.82,6,5.87,0,3-1.55,5.06-5.32,9.54Z"/><path class="cls-3" d="M186,332.92v3.85c0,2.38-1.5,3-4,3.05V338c1.54,0,1.78-.46,1.8-1.13H182v-3.9Z"/><path class="cls-3" d="M195.61,337v-3.62h-7.56v-3.22l7.65-11.73h3.61V330h2.05v3.4h-2.05V337Zm0-7v-6.15L191.68,330Z"/><path class="cls-3" d="M204.46,333.26a6.92,6.92,0,0,0,2.65.56c3.28,0,4.16-2.61,4.53-3.93a6.55,6.55,0,0,1-3.21.9,5.77,5.77,0,0,1-5.78-6.12A6.36,6.36,0,0,1,209,318c3.33,0,6.68,2.49,6.68,8.48,0,6.93-3.38,10.83-8.46,10.83a7.61,7.61,0,0,1-2.79-.46Zm4.62-5.77a3,3,0,1,0-2.71-2.84A2.71,2.71,0,0,0,209.08,327.49Z"/><path class="cls-3" d="M228.69,320.9a13.39,13.39,0,0,1,1.43,6.8,13.55,13.55,0,0,1-1.43,6.81,5.8,5.8,0,0,1-10,0c-.81-1.34-1.43-3.37-1.43-6.81a13.24,13.24,0,0,1,1.43-6.8,5.78,5.78,0,0,1,10,0ZM221,327.7c0,3.55.69,6.12,2.7,6.12s2.7-2.64,2.7-6.12c0-3.22-.58-6.13-2.7-6.13S221,324.25,221,327.7Z"/><path class="cls-3" d="M238.68,326.49H246a62.88,62.88,0,0,1-.73,9.65c-.47,2.3-1.72,2.58-2.92,2.58h-3l-.51-2.92h2.47c.9,0,1.16-.26,1.37-1.25a35.38,35.38,0,0,0,.41-5.35h-4.64a13.32,13.32,0,0,1-5.65,9.58l-1.74-2.62c2.25-1.38,4.83-3.69,4.83-10.07v-1.83h-4.47v-2.73h15.88v2.73h-8.64Z"/><path class="cls-3" d="M251.54,338.72h-2.69V321.51h14.68v15.17c0,2-1.4,2-1.94,2H258.5l-.47-2.9h2.15c.64,0,.64-.17.64-.75v-3.19h-9.28Zm3.29-14.46h-3.29v5h3.29Zm6,5v-5h-3.33v5Z"/><path class="cls-4" d="M111.88,258.65h-1.64v1.18h1.46V262h-1.46v2.91a3.63,3.63,0,0,1-.19,1.34,1.44,1.44,0,0,1-.71.73,7.25,7.25,0,0,1-2.88.39,7.4,7.4,0,0,0-.69-2.29q.69,0,1.83,0a.41.41,0,0,0,.26-.06s.07-.1.07-.21V262h-2.7a13.27,13.27,0,0,1,1.59,2.05l-1.83,1.2a11.43,11.43,0,0,0-1.75-2.47l1.25-.78h-1.65v-.8l-1.25.39v5.82H99.46v-5.21c-1.2.36-1.95.58-2.26.66l-.54-2.22c.37-.07,1.3-.3,2.8-.67v-2.66h-.84a15.29,15.29,0,0,1-.53,1.86,10.93,10.93,0,0,0-1.63-1.06,18.38,18.38,0,0,0,.81-5.08l1.93.31c-.06.6-.12,1.19-.19,1.77h.45v-2.91h2.13v2.91h1.15v1.44h3.36v-1h-2.69v-2.1h2.69v-1.26h2.3v1.26h2.8v2.1h-2.8v1h3.48Zm-3.95,1.18v-1.18h-5.48v-1.38h-.86v2.08l1.26-.33.13.81Z"/><path class="cls-4" d="M117.26,259.79h3.22q0,.56,0,.81c-.08,2-.17,3.38-.27,4.24a3.76,3.76,0,0,1-.48,1.7,2,2,0,0,1-1.3.7,11,11,0,0,1-1.92.08,4.27,4.27,0,0,0-.61-2c.39,0,.88.06,1.45.06a.67.67,0,0,0,.52-.2,9.84,9.84,0,0,0,.43-3.38H117a9.38,9.38,0,0,1-2.86,5.57,5.59,5.59,0,0,0-1.56-1.71,5.88,5.88,0,0,0,1.25-1.43,6.08,6.08,0,0,0,.74-1.79,16.27,16.27,0,0,0,.34-1.79c.07-.54.12-1.2.15-2h-1.52v-5.76h6.75v5.76h-3c0,.15,0,.36,0,.64S117.26,259.76,117.26,259.79ZM115.65,255v1.69h2.42V255Zm7.89-.83v9.16h-2.27v-9.16Zm1.44-1.62h2.29v12.12a4.12,4.12,0,0,1-.21,1.5,1.53,1.53,0,0,1-.76.81,8.41,8.41,0,0,1-3.37.44,7.54,7.54,0,0,0-.8-2.4c.68,0,1.48,0,2.41,0,.29,0,.44-.13.44-.4Z"/><path class="cls-4" d="M129.6,256.71v-2.5h9.49v2.5h-4.85v2h5.45v2.44h-5.45v.23c0,.15,0,.31,0,.5s0,.35,0,.47a2.27,2.27,0,0,0,.23,1,.94.94,0,0,0,.86.36c.45,0,1,0,1.55,0l1.5-.05.64,0v2.53h-.62l-1.56,0c-.63,0-1.22,0-1.77,0a4.22,4.22,0,0,1-1.6-.35,2.14,2.14,0,0,1-1.14-1.15,5.81,5.81,0,0,1-.42-2.06c0-.16,0-.35,0-.57s0-.42,0-.6,0-.27,0-.28h-2.72v-2.44h2.71v-2Z"/><path class="cls-4" d="M141.3,260.52v-2.39h10.19v2.39h-3.25a6.24,6.24,0,0,1-.79,2.78,5.3,5.3,0,0,1-1.67,1.75,8.76,8.76,0,0,1-3.42,1.32,3.9,3.9,0,0,1-.62.07v-2.51a3.69,3.69,0,0,0,.6-.07,5.93,5.93,0,0,0,1.36-.41,3.26,3.26,0,0,0,1.35-1,3.54,3.54,0,0,0,.66-1.92Zm.44-4V254.1h6.64v2.39Zm7.24.05V254.1h1v2.44Zm1.56,0V254.1h1v2.44Z"/><path class="cls-4" d="M153,266.07a21.81,21.81,0,0,0,.87-2.13,16.78,16.78,0,0,0,.86-5.36v-4.43H157v4.43a20.86,20.86,0,0,1-.38,4.16,17.14,17.14,0,0,1-.71,2.51,5.11,5.11,0,0,1-.38.82Zm10.82-2.42a7.48,7.48,0,0,1-1.75,1.54,8.11,8.11,0,0,1-3.08,1.17,4.61,4.61,0,0,1-.57.05V254h2.37v9a5.31,5.31,0,0,0,1-.54,6.53,6.53,0,0,0,1-.79c.31-.31.66-.67,1-1.07Z"/><path class="cls-4" d="M165.24,266.07a19.74,19.74,0,0,0,.88-2.13,16.78,16.78,0,0,0,.86-5.36v-4.43h2.36v4.43a20.07,20.07,0,0,1-.39,4.16,14.93,14.93,0,0,1-.71,2.51,5.9,5.9,0,0,1-.37.82Zm10.83-2.42a7.68,7.68,0,0,1-1.75,1.54,7.9,7.9,0,0,1-1.72.83,7.72,7.72,0,0,1-1.37.34,4.61,4.61,0,0,1-.57.05V254H173v9a5.25,5.25,0,0,0,1-.54,6.13,6.13,0,0,0,1-.79c.31-.31.66-.67,1-1.07Z"/><path class="cls-4" d="M177.73,261.19v-2.45H185v2.45Z"/><path class="cls-4" d="M192,254c-.35,1.75-.71,3.31-1.08,4.67s-.7,2.49-1,3.36-.49,1.4-.58,1.62h5a24.31,24.31,0,0,0-.64-2.4c-.29-.88-.63-1.81-1-2.79h2.57a36.66,36.66,0,0,1,1.32,3.82,32,32,0,0,1,.85,3.82H186.52v-2.32c.43-1.08.81-2.07,1.13-3s.65-2,1-3.12.63-2.39.88-3.67Z"/><path class="cls-4" d="M199.74,254.15h2.35c-.16,1.21-.28,2.26-.35,3.17s-.11,1.83-.12,2.78.07,2,.16,2.89.23,2,.43,3.22h-2.42c-.17-1.17-.29-2.21-.37-3.13s-.12-1.89-.13-2.93.05-1.93.12-2.84S199.6,255.34,199.74,254.15Zm3.5,6.23h2.17a6.91,6.91,0,0,0-.43,1,2.93,2.93,0,0,0-.16.9,1.17,1.17,0,0,0,.11.56.91.91,0,0,0,.51.44,2.88,2.88,0,0,0,1.13.19,17.36,17.36,0,0,0,2-.09,5,5,0,0,0,.72-.1v2.49a9.25,9.25,0,0,1-1.15.12c-.42,0-1,0-1.76.05a4.22,4.22,0,0,1-2.78-.9,2.88,2.88,0,0,1-1-2.1,4.4,4.4,0,0,1,.13-1.37A5.43,5.43,0,0,1,203.24,260.38Zm-.14-5.55H209v2.4H203.1Z"/><path class="cls-4" d="M211.13,255.77a19.94,19.94,0,0,1,2.8-.87,13.72,13.72,0,0,1,2.7-.28,6.75,6.75,0,0,1,2.7.55,4.2,4.2,0,0,1,1.89,1.61,5.21,5.21,0,0,1,.73,2.63,5.39,5.39,0,0,1-2.06,4.89c-1.46,1.09-3.74,1.63-6.82,1.64v-2.36a11.1,11.1,0,0,0,3.81-.47,3.69,3.69,0,0,0,2-1.46,3.92,3.92,0,0,0,.56-2.21,2.19,2.19,0,0,0-.69-1.65,3.68,3.68,0,0,0-2.36-.75,6.42,6.42,0,0,0-1.75.17c-.57.13-1.14.3-1.69.48s-1,.36-1.34.5a4.24,4.24,0,0,0-.52.24Z"/><path class="cls-4" d="M224.65,255l1.63,0h1.54c-.09-.44-.17-.78-.23-1s-.1-.36-.1-.37H230c0,.21.07.41.12.62s.11.43.16.64c.63,0,1.2-.07,1.71-.13l1.23-.16.5-.07v2.22a22.48,22.48,0,0,1-2.91.28c.05.21.11.42.17.62s.12.41.17.62l1.71-.16,1.34-.14a3.2,3.2,0,0,0,.52-.08v2.27c-.55.08-1,.15-1.47.19s-.92.1-1.47.14c.21.67.37,1.21.5,1.61a4.7,4.7,0,0,0,.2.59h-2.58l-.29-1q-.17-.53-.3-1.05l-1.69.05h-3.28v-2.23l2.35,0,2-.05c-.05-.22-.11-.43-.16-.63s-.11-.41-.15-.61c-.68,0-1.29,0-1.82,0h-1.9Zm1.08,6.65h2.48a7,7,0,0,0-.49.84,1.4,1.4,0,0,0-.15.66.82.82,0,0,0,.13.48.88.88,0,0,0,.5.31,6.91,6.91,0,0,0,1.31.14c.73,0,1.4,0,2-.08s1.31-.14,2.08-.25v2.59l-1.27.12c-.64.07-1.61.11-2.92.12a5.35,5.35,0,0,1-3.17-.83,2.63,2.63,0,0,1-1.09-2.24,3.45,3.45,0,0,1,.15-1A6,6,0,0,1,225.73,261.69Z"/><path class="cls-4" d="M236.71,263.6l1.78-1.47q1.8,2.12,3,3.63l-1.86,1.34Q238.65,265.8,236.71,263.6Z"/><path class="cls-4" d="M106.73,281.37h1.7v2.15h-1.7v2.23h-2.6v-2.23h-5.2v-2.15l5.2-7.31h2.6Zm-2.6,0v-4h0l-2.76,4v0Z"/><path class="cls-4" d="M110.87,275.31a4.17,4.17,0,0,1,3.47-1.4,4.23,4.23,0,0,1,3.5,1.4c.77.94,1.15,2.47,1.15,4.6s-.38,3.65-1.15,4.59a5,5,0,0,1-7,0,9.76,9.76,0,0,1,0-9.19ZM113,283a1.45,1.45,0,0,0,1.39.87,1.53,1.53,0,0,0,1.43-.87,10.41,10.41,0,0,0,0-6.12,1.52,1.52,0,0,0-1.43-.88,1.48,1.48,0,0,0-1.41.88,7.35,7.35,0,0,0-.45,3.06A6.91,6.91,0,0,0,113,283Z"/><path class="cls-4" d="M134.66,275.37h-8.32c0,.5,0,1.25-.11,2.25h7.23c0,.47,0,.8-.05,1-.11,2.43-.25,4.19-.42,5.3a4.69,4.69,0,0,1-.72,2.23,2.35,2.35,0,0,1-.81.63,4,4,0,0,1-1.08.28,18.69,18.69,0,0,1-2.79,0,4.59,4.59,0,0,0-.83-2.28c.72.06,1.59.1,2.62.1a1.15,1.15,0,0,0,.77-.24c.37-.34.63-1.95.78-4.81h-5a13.23,13.23,0,0,1-1.47,4.23,8.93,8.93,0,0,1-3.08,3.13,5.44,5.44,0,0,0-.74-1,5.89,5.89,0,0,0-.94-.89,8.37,8.37,0,0,0,1.45-1.07,6.59,6.59,0,0,0,1.78-2.57,10.93,10.93,0,0,0,.72-3c.06-.59.1-1.11.12-1.57s0-1,.07-1.6v-.11h-3.41v-2.26h14.2Z"/><path class="cls-4" d="M150.51,273.05v11.59a3.77,3.77,0,0,1-.21,1.41,1.54,1.54,0,0,1-.76.79,3.25,3.25,0,0,1-1.2.35,19.34,19.34,0,0,1-2,.08,6.36,6.36,0,0,0-.83-2.32c.42,0,1.15.05,2.19.05q.42,0,.42-.39v-3.3h-9.09v5.94h-2.33v-14.2Zm-11.44,2.29V279h3.27v-3.68Zm5.59,3.68h3.5v-3.68h-3.5Z"/><path class="cls-4" d="M152.32,278v-2.39H156l-.14-2.12h2.5l.16,2.12h4.28V278h-4.13l.14,2.1h4v2.45H159l.28,4h-2.51l-.28-4h-4.16v-2.45h4l-.14-2.1Z"/><path class="cls-4" d="M164.26,279.67v-2.06l1.39-.06-.24-2h2.05l.24,2,5.56-.17v2.06a5.77,5.77,0,0,1-1,2.23,7.58,7.58,0,0,1-1.4,1.46,10.14,10.14,0,0,1-1.71,1.05v-2.27a4,4,0,0,0,.87-.61,5.29,5.29,0,0,0,.66-.75,4,4,0,0,0,.5-1l-3.23.11.85,7.09h-2l-.87-7.05Z"/><path class="cls-4" d="M176.48,275.87l.93,5.36h-1.64l-.9-5.36Zm-.61,10.54v-2.19a5.57,5.57,0,0,0,2.71-1.19,6,6,0,0,0,1.61-2.11,13.94,13.94,0,0,0,.82-2.34,15.86,15.86,0,0,0,.37-1.9,5.44,5.44,0,0,0,.08-.79h2.09a22.08,22.08,0,0,1-.32,2.49,15.53,15.53,0,0,1-.7,2.38,10,10,0,0,1-1.36,2.46,8.85,8.85,0,0,1-2.17,2A7.72,7.72,0,0,1,175.87,286.41Zm3.22-10.54,1,5.36h-1.67l-.9-5.36Z"/><path class="cls-4" d="M185.32,276.44V274h4.58v2.46Zm10.39.36a14.23,14.23,0,0,1-2.09,4.65,11.85,11.85,0,0,1-2.73,2.78,10.38,10.38,0,0,1-2.68,1.38,10.15,10.15,0,0,1-2.07.48c-.54,0-.81.06-.82.05v-2.55a3.87,3.87,0,0,0,.64,0,7.85,7.85,0,0,0,1.6-.32,6.73,6.73,0,0,0,2.06-1.08,9.55,9.55,0,0,0,2-2,12,12,0,0,0,1.62-3.35Zm-10.39,3.43v-2.45h4.58v2.45Z"/><path class="cls-4" d="M197.52,278.33v-2.08h7.41l-.5,7.58h1.64V286h-9v-2.14h5.17l.35-5.5Z"/><path class="cls-4" d="M207.3,286s.11-.23.3-.66a17.57,17.57,0,0,0,.66-1.82,22.16,22.16,0,0,0,1-6.38v-3.27h2.42v3.27a28.76,28.76,0,0,1-.23,3.83,17.55,17.55,0,0,1-.57,2.77c-.23.75-.49,1.5-.8,2.26Zm11.07,0h-2.61a11.49,11.49,0,0,1-.91-2.26,23.68,23.68,0,0,1-.57-2.77,25.43,25.43,0,0,1-.26-3.83v-3.27h2.43v3.27a21.74,21.74,0,0,0,1,6.38,17.57,17.57,0,0,0,.66,1.82Q218.36,286,218.37,286Zm-1.25-9.85v-2.25h1.08v2.25Zm1.68,0v-2.25h1.08v2.25Z"/><path class="cls-4" d="M221.84,275.87l.93,5.36h-1.64l-.9-5.36Zm-.61,10.54v-2.19a5.57,5.57,0,0,0,2.71-1.19,6,6,0,0,0,1.61-2.11,13.94,13.94,0,0,0,.82-2.34,18.14,18.14,0,0,0,.37-1.9c.06-.51.09-.77.08-.79h2.09a22.08,22.08,0,0,1-.32,2.49,15.53,15.53,0,0,1-.7,2.38,10,10,0,0,1-1.36,2.46,8.85,8.85,0,0,1-2.17,2A7.72,7.72,0,0,1,221.23,286.41Zm3.22-10.54,1,5.36h-1.67l-.9-5.36Z"/><path class="cls-4" d="M235.55,273.41q-.06.43-.15.84c-.06.27-.13.53-.19.78h5.14v2.39a10.52,10.52,0,0,1-.89,3.59,8.53,8.53,0,0,1-1.73,2.55,9.88,9.88,0,0,1-2.06,1.61,14.24,14.24,0,0,1-2,1,11,11,0,0,1-1.49.49,3.86,3.86,0,0,1-.59.12v-2.53a4.3,4.3,0,0,0,.61-.15,8,8,0,0,0,1.48-.59,7.86,7.86,0,0,0,1.83-1.28,7,7,0,0,0,1.54-2,8.39,8.39,0,0,0,.79-2.86h-3.61a14.62,14.62,0,0,1-1.77,2.28,11.58,11.58,0,0,1-1.43,1.28,3.43,3.43,0,0,1-.6.39v-3l.35-.29a4.8,4.8,0,0,0,.78-.93,11.79,11.79,0,0,0,.85-1.53,9.21,9.21,0,0,0,.65-2.14Z"/></g></svg>