<svg id="レイヤー_1" data-name="レイヤー 1" xmlns="http://www.w3.org/2000/svg" viewBox="0 0 363 123"><defs><style>.cls-1{fill:#004021;}</style></defs><path class="cls-1" d="M362.0.0v34H1V1h362M363,0H0V35H363V0Z"/><path class="cls-1" d="M35.37,18.37a.83.83,0,0,0,.44-.21.79.79,0,0,1,.57-.15,2.41,2.41,0,0,1,.8.18.51.51,0,0,1,.35.43c0,.26-.17.4-.53.4a7.7,7.7,0,0,0-1,.05,22.6,22.6,0,0,0-2.78.49c.23,1.28.51,2.65.72,3.68a3.94,3.94,0,0,1,.13.75.49.49,0,0,1-.53.48c-.3,0-.46-.19-.52-.62-.16-1.15-.43-2.84-.65-4.08-.93.22-1.71.42-2.45.66-.41.15-.6.22-.67.32a.51.51,0,0,1-.44.2,2.2,2.2,0,0,1-1.31-.79.7.7,0,0,1-.17-.4c0-.1,0-.18.1-.18a.73.73,0,0,1,.22.11,1.65,1.65,0,0,0,.8.27,4.53,4.53,0,0,0,.93-.17l2.88-.71c-.12-.72-.25-1.4-.38-2.1l-1.54.41a3.15,3.15,0,0,0-.75.24.55.55,0,0,1-.36.11,1.34,1.34,0,0,1-.85-.45c-.34-.31-.5-.51-.5-.67s.05-.2.11-.2a.3.3,0,0,1,.2.08,1.55,1.55,0,0,0,.95.33A4,4,0,0,0,30,16.7c.49-.1,1.16-.23,1.76-.39-.19-1-.3-1.55-.43-2.08a.81.81,0,0,0-.22-.41,1.27,1.27,0,0,0-.72-.14q-.15,0-.15-.12c0-.08.11-.18.2-.24a1.06,1.06,0,0,1,.56-.17,2.8,2.8,0,0,1,1.11.21c.34.13.52.3.52.51a.46.46,0,0,1-.13.3.47.47,0,0,0-.1.39,10.36,10.36,0,0,0,.21,1.52c.62-.14,1.23-.3,1.76-.46a.83.83,0,0,0,.34-.2,1,1,0,0,1,.54-.2,2.66,2.66,0,0,1,.75.1.45.45,0,0,1,.33.38.3.3,0,0,1-.26.33c-.23,0-.49.1-.82.15-.74.16-1.53.35-2.51.58.12.72.25,1.38.38,2.13C34,18.71,34.65,18.55,35.37,18.37Zm1-4.63a3.13,3.13,0,0,1,1.25.72c.35.3.55.56.55.86a.4.4,0,0,1-.41.43c-.18,0-.34-.13-.47-.39A5.08,5.08,0,0,0,36.06,14a.21.21,0,0,1-.1-.14.16.16,0,0,1,.16-.15A.71.71,0,0,1,36.35,13.74Zm1.25-1a3.3,3.3,0,0,1,1.15.56c.35.25.67.58.67.91a.41.41,0,0,1-.39.46c-.19,0-.31-.07-.46-.34A4.42,4.42,0,0,0,37.24,13a.16.16,0,0,1-.1-.14.15.15,0,0,1,.14-.15A1.72,1.72,0,0,1,37.6,12.77Z"/><path class="cls-1" d="M50.16,17.78a.79.79,0,0,0,.39-.24.41.41,0,0,1,.33-.17c.16,0,.34.08.77.41s.45.41.45.59-.11.28-.36.31a.48.48,0,0,0-.37.17,21.4,21.4,0,0,1-2.25,2,.54.54,0,0,1-.26.1.18.18,0,0,1-.16-.14.42.42,0,0,1,.13-.23,19,19,0,0,0,1.79-2.23.07.07,0,0,0-.07-.11c-.81.21-2.08.6-3.06.9.09.39.19.76.29,1.21.27,1.08.53,2.09.79,3.07a3,3,0,0,1,.13.67.41.41,0,0,1-.4.39c-.26,0-.45-.06-.51-.37-.27-1.26-.53-2.52-.79-3.65-.08-.41-.17-.79-.24-1.11-.82.26-1.43.48-1.95.68a1.46,1.46,0,0,0-.42.26.4.4,0,0,1-.31.14c-.18,0-.32-.07-.66-.4a1.17,1.17,0,0,1-.48-.86c0-.1,0-.22.1-.22s.09,0,.16.1a1,1,0,0,0,.63.35,3,3,0,0,0,.74-.1c.63-.16,1.32-.33,2-.55-.14-.63-.27-1.11-.39-1.54a2,2,0,0,0-.21-.55c-.06-.09-.17-.11-.3-.13h-.36c-.11,0-.16,0-.16-.1s.07-.19.24-.31a.83.83,0,0,1,.49-.17,2.38,2.38,0,0,1,.82.24c.42.22.51.35.51.48a.54.54,0,0,1-.09.26.4.4,0,0,0-.07.2,1.33,1.33,0,0,0,0,.3c.05.36.13.7.23,1.16Z"/><path class="cls-1" d="M57.67,24.38a.26.26,0,0,1,.15-.22,15.93,15.93,0,0,0,4-3.61A14.12,14.12,0,0,0,64,17.16a1.28,1.28,0,0,0,.08-.24s0-.06-.08-.06l-.32,0c-1.59.14-3,.35-4.27.53a4.16,4.16,0,0,0-.89.23.64.64,0,0,1-.4.13,1.51,1.51,0,0,1-.87-.53,1.38,1.38,0,0,1-.47-.79c0-.2.06-.32.14-.32s.09.06.18.15a1.45,1.45,0,0,0,1.08.47,7.58,7.58,0,0,0,1.06-.09c1.2-.11,3-.31,4.44-.49A.85.85,0,0,0,64.1,16a.54.54,0,0,1,.33-.16c.23,0,.42.16.86.54.26.21.39.39.39.56s-.11.24-.3.32a.88.88,0,0,0-.43.46,15.46,15.46,0,0,1-2.45,3.54,13.85,13.85,0,0,1-4.38,3.24.94.94,0,0,1-.28.07C57.76,24.58,57.67,24.54,57.67,24.38Zm6.84-10.56a.37.37,0,0,1-.27.41,6.91,6.91,0,0,1-.91.15c-.83.12-2.16.26-3.14.36-.3,0-.66.06-.85.06a1.36,1.36,0,0,1-1-.55,1.16,1.16,0,0,1-.36-.69.1.1,0,0,1,.1-.11.38.38,0,0,1,.21.11A1.66,1.66,0,0,0,59.5,14a9.15,9.15,0,0,0,1-.08,19.91,19.91,0,0,0,2.31-.4,3.64,3.64,0,0,0,.43-.14,1.35,1.35,0,0,1,.43-.08C64.07,13.3,64.51,13.49,64.51,13.82Z"/><path class="cls-1" d="M77.11,13.09c.42.17.74.39.74.69a.44.44,0,0,1-.15.33c-.1.1-.15.26-.15.75a35.45,35.45,0,0,1-.21,4.23A5.79,5.79,0,0,1,76.22,22a7.52,7.52,0,0,1-4.39,2.65c-.09,0-.19,0-.26,0a.19.19,0,0,1-.2-.2.24.24,0,0,1,.18-.2,7.28,7.28,0,0,0,4.17-3.23,7.05,7.05,0,0,0,.73-2.95c.07-.94.09-2.16.07-3.77,0-.46,0-.65-.23-.8a1.65,1.65,0,0,0-.65-.28c-.13,0-.17-.09-.17-.15s.06-.1.16-.17a1,1,0,0,1,.45-.13A3.47,3.47,0,0,1,77.11,13.09ZM73.24,14c.36.22.66.49.66.74a.49.49,0,0,1-.16.33,1,1,0,0,0-.11.59c0,.95-.06,2.36-.07,4.09,0,.39-.12.57-.39.57s-.38-.15-.49-.38a1.67,1.67,0,0,1-.19-.78,1.34,1.34,0,0,1,.07-.39,2,2,0,0,0,.07-.51c0-.95,0-1.8,0-2.8a2.27,2.27,0,0,0-.1-1A1,1,0,0,0,72,14c-.11,0-.19-.09-.19-.14s.08-.12.16-.16a.87.87,0,0,1,.39-.07A2.35,2.35,0,0,1,73.24,14Z"/><path class="cls-1" d="M85.16,19.7c-.29,0-.63-.32-1-.84a1.53,1.53,0,0,1-.33-.74c0-.19,0-.36.13-.36s.13.07.23.17c.51.49.71.59,1,.59s.85,0,1.83-.09c2-.11,3.9-.19,5.13-.23a1.72,1.72,0,0,0,.87-.17,1.06,1.06,0,0,1,.45-.1,1.76,1.76,0,0,1,.59.13c.68.26.77.42.77.67s-.19.44-.51.44c-.55,0-1.32-.06-2-.06-1.28,0-3.83.09-5.72.24a3,3,0,0,0-1,.22A.78.78,0,0,1,85.16,19.7Z"/><path class="cls-1" d="M100.86,19.34a.53.53,0,0,1,0,.2,2.63,2.63,0,0,0-.17.95,1.45,1.45,0,0,0,.92,1.41,5.41,5.41,0,0,0,2.61.48,8.89,8.89,0,0,0,2.46-.3,2.67,2.67,0,0,1,.88-.13c.54,0,.92.24.92.62s-.3.51-.82.59a22.46,22.46,0,0,1-3.21.23,7,7,0,0,1-2.72-.46,2.41,2.41,0,0,1-1.18-3.58c.06-.1.13-.14.18-.14S100.86,19.27,100.86,19.34Zm.93-3.69a2.28,2.28,0,0,1-.9-.7.23.23,0,0,1-.06-.18.16.16,0,0,1,.14-.16.31.31,0,0,1,.19.08,2.59,2.59,0,0,0,1,.37,5.37,5.37,0,0,0,1.06.09,10.15,10.15,0,0,0,1.37-.13,8.26,8.26,0,0,0,1.28-.29,1.94,1.94,0,0,1,.42-.1,1.78,1.78,0,0,1,.52.07c.36.12.47.3.47.56s-.17.42-.66.46a9.54,9.54,0,0,0-2,.35,10.37,10.37,0,0,0-2.38,1.43.79.79,0,0,1-.32.13s-.15-.11-.15-.16a.49.49,0,0,1,.15-.23l1.47-1.3A3.89,3.89,0,0,1,101.79,15.65Zm5.92-2.42A3.36,3.36,0,0,1,109,14a1.23,1.23,0,0,1,.54.87.4.4,0,0,1-.4.43c-.19,0-.34-.13-.47-.39a5.1,5.1,0,0,0-1.21-1.38.22.22,0,0,1-.1-.15.14.14,0,0,1,.15-.14A1,1,0,0,1,107.71,13.23Zm1.26-1a3.3,3.3,0,0,1,1.15.56,1.29,1.29,0,0,1,.66.91.41.41,0,0,1-.39.46c-.18,0-.3-.07-.46-.35a4.35,4.35,0,0,0-1.32-1.35.18.18,0,0,1-.1-.15.14.14,0,0,1,.14-.14A1.88,1.88,0,0,1,109,12.27Z"/><path class="cls-1" d="M121,19.14A8.81,8.81,0,0,0,123.76,22a10.92,10.92,0,0,0,3.52,1.48c.06,0,0,.13,0,.14-.43.09-.59.25-.82.78-.07.15-.13.2-.23.2a1.44,1.44,0,0,1-.55-.2,12.2,12.2,0,0,1-2.53-1.76,10.51,10.51,0,0,1-2.27-3.14c0,1.55.08,4.83.08,5.39,0,.33-.23.49-.67.49s-.5-.13-.5-.43c0-.48.07-3.11.13-4.84a12.68,12.68,0,0,1-6,4.54c-.1,0-.19-.15-.1-.2a14.35,14.35,0,0,0,5.43-5.26h-3.92a6.88,6.88,0,0,0-1.15.08l-.15-.54a8.74,8.74,0,0,0,1.28.1h4.51v-4H116a7.73,7.73,0,0,0-1,.08l-.14-.56a5.36,5.36,0,0,0,1.15.12h3.86v-.71a12.91,12.91,0,0,0-.07-1.76c1.37.16,1.6.22,1.6.42s-.09.22-.48.41v1.64h3.24c.67-.75.77-.82.85-.82s.21.07.88.6c.32.28.39.36.39.45s0,.13-.2.13H120.9v4h.8A13,13,0,0,0,123,16.4a5.79,5.79,0,0,0,.4-1.17c1.11.51,1.41.7,1.41.85s-.13.26-.6.26a12.29,12.29,0,0,1-2.08,2.44h2.81c.62-.75.72-.81.81-.81s.22.06.92.58c.32.27.38.36.38.44s0,.15-.19.15Zm-3.86-1.53a4.19,4.19,0,0,0-.8-2c0-.06,0-.16.11-.13,1.26.64,1.83,1.35,1.83,2a.66.66,0,0,1-.59.72C117.37,18.19,117.2,18,117.14,17.61Z"/><path class="cls-1" d="M132.35,16.44h-.76a3.57,3.57,0,0,0-.81.09l-.14-.55a3.86,3.86,0,0,0,.92.1h.79V14.5a21.84,21.84,0,0,0-.07-2.29c1.41.14,1.58.24,1.58.4s-.11.22-.49.38v3.09h.46c.48-.6.58-.67.67-.67s.2.07.7.5c.2.19.28.29.28.38s0,.15-.19.15h-1.92v3.89c.62-.26,1.23-.54,1.76-.82.06,0,.14.12.09.16a19.39,19.39,0,0,1-3.65,2.48c0,.47-.1.62-.26.62s-.24-.22-.82-1.49a7.19,7.19,0,0,0,.85-.18c.32-.1.65-.23,1-.36Zm9.51,3.48c.39-.44.47-.49.56-.49s.17.05.65.43c.2.17.26.27.26.36s-.06.14-.39.37a11.66,11.66,0,0,1-.56,3.42,1.73,1.73,0,0,1-.67.86,1.81,1.81,0,0,1-1,.23c-.14,0-.19-.06-.23-.27s-.29-.54-1.34-.82c-.08,0-.08-.22,0-.21.88.09,1.33.13,1.69.13s.54-.18.7-.82a12.5,12.5,0,0,0,.38-2.83h-.9a8.67,8.67,0,0,1-5.61,4.88c-.09,0-.16-.15-.09-.19A10,10,0,0,0,140,20.28h-1a8.35,8.35,0,0,1-4.73,3.64c-.08,0-.16-.13-.08-.17a8.57,8.57,0,0,0,3.68-3.47h-1.09a9.08,9.08,0,0,1-3.1,1.94c-.08,0-.17-.14-.1-.19a8.9,8.9,0,0,0,2.91-2.7,4.06,4.06,0,0,0,.4-.81h-1a6,6,0,0,0-1.08.08l-.14-.54a7.49,7.49,0,0,0,1.21.1h6.1c.57-.68.67-.75.75-.75s.22.07.81.58c.24.2.3.3.3.38s0,.15-.19.15h-6.18c.61.19.78.27.78.37s-.14.2-.5.23a10.19,10.19,0,0,1-.64.8Zm-4.74-2.86c0,.31-.22.45-.64.45-.27,0-.43-.09-.43-.35s.06-.87.06-2.7c0-1.08,0-1.46-.07-2.19a10.54,10.54,0,0,1,1.18.57h3.48c.44-.46.51-.52.6-.52s.2.06.66.42c.21.18.27.28.27.36s-.07.2-.4.43v.81c0,1.56,0,2.33,0,2.55s-.19.43-.62.43-.43-.11-.43-.37V16.8h-3.7Zm3.7-3.86h-3.7v1.43h3.7Zm-3.7,3.24h3.7V15h-3.7Z"/><path class="cls-1" d="M154.11,20.87c0,1.64.06,2.33.06,3a1.08,1.08,0,0,1-.38.85,1.45,1.45,0,0,1-1,.39c-.23,0-.29,0-.34-.3-.09-.43-.48-.63-1.83-.88-.1,0-.1-.24,0-.23,1.05.1,1.71.13,2.23.13.19,0,.26-.06.26-.27V17.73h-4.54a4.23,4.23,0,0,0-1.06.1l-.15-.55a8.74,8.74,0,0,0,1.21.09h9.64c.5-.48.62-.57.72-.57s.27.13.83.7c.19.2.26.28.26.4s-.07.24-.6.27a.43.43,0,0,0-.29.15,14.39,14.39,0,0,1-2.94,1.83c-.07,0-.19-.1-.11-.16a11.65,11.65,0,0,0,2.16-2.26h-4.08Zm2.45-7.94c.5-.48.58-.52.68-.52s.18,0,.76.59c.27.25.33.32.33.42s-.13.24-.71.32a13.94,13.94,0,0,1-3.31,2.13,1.19,1.19,0,0,1,.35.78.59.59,0,0,1-.55.63c-.29,0-.37-.07-.69-.72a5.5,5.5,0,0,0-1.85-2s0-.14.09-.13a7,7,0,0,1,2.42,1.24,12.28,12.28,0,0,0,2.45-2.33h-6.48a5.77,5.77,0,0,0-1.1.1l-.14-.55a7.07,7.07,0,0,0,1.22.09Z"/><path class="cls-1" d="M163.5,24.11a14.78,14.78,0,0,0,.9-2.78,5.82,5.82,0,0,0,.12-1.37c1.22.33,1.35.39,1.35.55s-.1.2-.44.27a9.16,9.16,0,0,1-1.76,3.44C163.61,24.28,163.47,24.18,163.5,24.11Zm2.66-5.3c-.52.1-1.06.18-1.68.27-.12.33-.19.4-.31.4s-.24-.21-.44-1.34a6.25,6.25,0,0,0,.66.05l.84,0a22.51,22.51,0,0,0,1.88-2.89,7.37,7.37,0,0,0,.58-1.34c1.08.52,1.31.65,1.31.82s-.12.19-.55.19a17.26,17.26,0,0,1-2.82,3.21c.88,0,1.76-.06,2.62-.13a4.11,4.11,0,0,0-.63-1.23s.07-.13.11-.1a2.83,2.83,0,0,1,1.64,2.09c0,.41-.2.71-.49.71s-.41-.1-.47-.78c0-.14,0-.27-.07-.4-.41.1-.8.2-1.2.28v2.76c0,1.59,0,3,0,3.45s-.21.46-.64.46-.45-.1-.45-.37.07-1.18.07-3Zm0-2.86c0,.39-.21.67-.52.67s-.38-.07-.57-.68A3.34,3.34,0,0,0,164,14.3c-.05-.05,0-.12.08-.1a5.26,5.26,0,0,1,1.16.53,11.6,11.6,0,0,0,.73-1.77,4.9,4.9,0,0,0,.22-1c1.06.39,1.44.57,1.44.74s-.1.23-.56.26a13.72,13.72,0,0,1-1.56,1.91A1.35,1.35,0,0,1,166.13,16Zm2.15,6.33a5.49,5.49,0,0,0-.71-2.21s.08-.1.12-.07a3.35,3.35,0,0,1,1.63,2.39c0,.44-.22.77-.57.77S168.35,23,168.28,22.28ZM175,15c.47-.56.54-.61.63-.61s.17,0,.71.52c.21.22.26.31.26.41s-.06.14-.41.39a36.15,36.15,0,0,1-.69,7.33,3,3,0,0,1-.85,1.62,1.82,1.82,0,0,1-1.09.36c-.23,0-.31,0-.35-.28-.1-.46-.34-.64-1.53-1-.1,0-.1-.25,0-.23a13.63,13.63,0,0,0,1.76.18c.69,0,.87-.34,1.05-1.06a34,34,0,0,0,.64-7.29H171a9.94,9.94,0,0,1-1.75,2.23c-.06.06-.21,0-.16-.11a14.28,14.28,0,0,0,1.64-3.73,9.86,9.86,0,0,0,.3-1.65c1.37.35,1.59.48,1.59.64s-.11.23-.54.3a12.2,12.2,0,0,1-.88,2Zm-3.14,4.9a5,5,0,0,0-1.18-2.44s0-.14.1-.11c1.29.57,2.2,1.55,2.2,2.36a.71.71,0,0,1-.63.78C172.07,20.48,171.94,20.33,171.84,19.89Z"/><path class="cls-1" d="M182.38,21.73c0,.16.07.22.13.22s.08-.06.14-.19c.33-.74.72-1.7,1.07-2.52,0-.12.11-.17.18-.17a.17.17,0,0,1,.16.15,1.49,1.49,0,0,1,0,.18c-.35,1.12-.62,2.09-.84,2.86a2.86,2.86,0,0,0-.11.69,3.4,3.4,0,0,0,0,.57,2.15,2.15,0,0,1,0,.43.36.36,0,0,1-.37.4.73.73,0,0,1-.62-.49,8,8,0,0,1-.53-3.18,21.23,21.23,0,0,1,.72-4.8,4.47,4.47,0,0,0,.21-1.24,1.85,1.85,0,0,0-.31-1,.42.42,0,0,1-.1-.22c0-.07,0-.11.14-.11a.32.32,0,0,1,.16,0,3.11,3.11,0,0,1,.73.66,1.72,1.72,0,0,1,.49,1.12.65.65,0,0,1-.16.47,1.64,1.64,0,0,0-.31.61,13.06,13.06,0,0,0-.9,4.2A7.44,7.44,0,0,0,182.38,21.73Zm9.62,1a.64.64,0,0,1,.27.47.46.46,0,0,1-.47.52.8.8,0,0,1-.55-.26,7.39,7.39,0,0,0-1.46-1.05c0,1.05-.85,1.64-2.24,1.64-1.16,0-2-.62-2-1.43s.75-1.45,2.05-1.45a6.58,6.58,0,0,1,1.35.14c0-1.31,0-2.6-.05-3.93a16.65,16.65,0,0,1-2.06.13,1.56,1.56,0,0,1-1.66-1,.69.69,0,0,1-.06-.24.15.15,0,0,1,.12-.12c.05,0,.11.05.18.13a1.5,1.5,0,0,0,1.26.55,12.07,12.07,0,0,0,2.22-.22c0-.89,0-1.47,0-2,0-.39-.06-.56-.26-.66a1.38,1.38,0,0,0-.41-.11,1.53,1.53,0,0,0-.32,0c-.07,0-.1,0-.1-.08s.13-.17.23-.23a1.46,1.46,0,0,1,.55-.15,2.17,2.17,0,0,1,.95.25c.3.16.62.35.62.65a.39.39,0,0,1-.16.33.82.82,0,0,0-.2.58c0,.43-.08.78-.08,1.31.28-.06.48-.11.68-.17a2.81,2.81,0,0,0,.39-.19,1.05,1.05,0,0,1,.63-.17c.48,0,.65.16.65.4s-.13.36-.42.46a11.16,11.16,0,0,1-1.94.49c0,1.56.06,3,.13,4.29A8.24,8.24,0,0,1,192,22.7Zm-4.7-1c-.59,0-1.27.26-1.27.87,0,.4.41.75,1.36.75a1.82,1.82,0,0,0,1.19-.35,1,1,0,0,0,.34-.66,1.26,1.26,0,0,0,0-.28A4.1,4.1,0,0,0,187.3,21.7Z"/><path class="cls-1" d="M198.27,19.3a.54.54,0,0,1,0,.2,2.63,2.63,0,0,0-.17.95,1.44,1.44,0,0,0,.92,1.41,5.38,5.38,0,0,0,2.61.48,8.44,8.44,0,0,0,2.46-.31,3,3,0,0,1,.88-.13c.53,0,.92.25.92.62s-.3.52-.82.59a21.08,21.08,0,0,1-3.21.23,6.93,6.93,0,0,1-2.72-.46,2.3,2.3,0,0,1-1.57-2.19,2.37,2.37,0,0,1,.38-1.38.24.24,0,0,1,.19-.14C198.19,19.17,198.27,19.22,198.27,19.3Zm.94-3.69a2.18,2.18,0,0,1-.91-.71.25.25,0,0,1-.05-.17.15.15,0,0,1,.14-.16.37.37,0,0,1,.19.07,2.7,2.7,0,0,0,1,.38,5.56,5.56,0,0,0,1.07.08A10,10,0,0,0,202,15a9.61,9.61,0,0,0,1.28-.29,1.42,1.42,0,0,1,.42-.1,1.68,1.68,0,0,1,.51.07c.36.11.48.3.48.56s-.17.42-.66.46a9.65,9.65,0,0,0-2,.35,10.46,10.46,0,0,0-2.37,1.42.79.79,0,0,1-.32.13.22.22,0,0,1-.16-.16.55.55,0,0,1,.16-.23l1.47-1.29A3.83,3.83,0,0,1,199.21,15.61Z"/><path class="cls-1" d="M212,16.79a1.81,1.81,0,0,1-1.74-1,.32.32,0,0,1-.06-.15.15.15,0,0,1,.14-.14.36.36,0,0,1,.18.08,1.76,1.76,0,0,0,1.25.52,7.33,7.33,0,0,0,1.6-.21c.09-.51.11-.82.17-1.29,0-.27.06-.53.06-.67,0-.41-.12-.48-.43-.56a3,3,0,0,0-.43-.06c-.08,0-.13,0-.13-.1a.34.34,0,0,1,.18-.23,1.49,1.49,0,0,1,.68-.15,2,2,0,0,1,1,.38c.19.11.41.31.41.53a.5.5,0,0,1-.21.38.79.79,0,0,0-.23.43c-.1.36-.2.78-.28,1.16a4.16,4.16,0,0,0,1.48-.62.93.93,0,0,1,.62-.23,1.93,1.93,0,0,1,.5.09c.16.06.33.17.33.36s-.17.38-.59.52a20,20,0,0,1-2.52.69c-.21,1.07-.46,2.31-.66,3.4a7.13,7.13,0,0,1,3.86-1.51,3.23,3.23,0,0,1,2.1.63,2,2,0,0,1,.78,1.66c0,1.27-.88,2.14-2.13,2.79a12.43,12.43,0,0,1-4.75,1.14c-.19,0-.29-.07-.29-.2s.11-.17.24-.19a11.75,11.75,0,0,0,4.12-1.34,2.92,2.92,0,0,0,1.7-2.46,1.37,1.37,0,0,0-.43-1.11,2,2,0,0,0-1.43-.46,3.61,3.61,0,0,0-1.65.46A6.2,6.2,0,0,0,214,20.46a2.77,2.77,0,0,0-.67.92c-.09.22-.21.35-.41.35s-.33-.11-.44-.36a1.81,1.81,0,0,1-.18-.69.61.61,0,0,1,.09-.33.81.81,0,0,0,.11-.26,3.08,3.08,0,0,0,.12-.42c.22-.88.4-1.89.61-3A11.14,11.14,0,0,1,212,16.79Z"/><path class="cls-1" d="M227.42,14.18a2,2,0,0,1-.6-1.32c0-.13.05-.18.11-.18s.12,0,.19.16a3.23,3.23,0,0,0,1.8,1.33,2.18,2.18,0,0,1,.85.46.82.82,0,0,1,.3.62.39.39,0,0,1-.39.4,1.35,1.35,0,0,1-.44-.07,2.08,2.08,0,0,0-.7-.09,5.34,5.34,0,0,0-1.81.42c-.23.1-.36.25-.36.39a1.15,1.15,0,0,0,.11.39,1.52,1.52,0,0,1,.12.62,8.68,8.68,0,0,1-.1,1,16.56,16.56,0,0,0-.19,2.07c0,.06,0,.1.07.1a.26.26,0,0,0,.18-.08,13.72,13.72,0,0,1,1.93-1.3,5.08,5.08,0,0,1,2.66-.85,3.08,3.08,0,0,1,2.25.81,2.17,2.17,0,0,1,.68,1.58c0,1.31-.91,2.25-2.32,2.9a12.19,12.19,0,0,1-4.57.95c-.16,0-.29-.05-.29-.18a.24.24,0,0,1,.22-.21,12.5,12.5,0,0,0,4-1.24c1.15-.66,1.82-1.46,1.82-2.38a1.81,1.81,0,0,0-.51-1.34,2,2,0,0,0-1.4-.44,3.54,3.54,0,0,0-1.9.62,8.71,8.71,0,0,0-1.75,1.48,3.84,3.84,0,0,0-.77,1.06c-.08.28-.18.38-.41.38s-.38-.14-.55-.42a1.47,1.47,0,0,1-.23-.83,16.39,16.39,0,0,1,.34-2.94,5.93,5.93,0,0,0,.12-1.1c0-.16,0-.36,0-.54a1,1,0,0,1,.56-.84,9.2,9.2,0,0,1,1.82-.72A3.1,3.1,0,0,1,227.42,14.18Z"/><path class="cls-1" d="M244.27,11.75a.17.17,0,0,1-.09.16,8.81,8.81,0,0,0,0,13.38c.1.08.11.13.11.17a.08.08,0,0,1-.09.09.46.46,0,0,1-.18-.07,10.2,10.2,0,0,1-2.88-3.12,7.3,7.3,0,0,1,0-7.51A9.73,9.73,0,0,1,244,11.71a.34.34,0,0,1,.14-.05A.08.08,0,0,1,244.27,11.75Z"/><path class="cls-1" d="M253,19c-.15,3.51-1.6,5.27-5.22,6.08-.1,0-.16-.18-.07-.22,3-1.28,4-2.79,4.16-5.86h-2.38a9.65,9.65,0,0,0-1.13.08l-.15-.54a7.54,7.54,0,0,0,1.28.1h8.76c.68-.77.78-.85.87-.85s.2.08.88.63c.33.26.4.36.4.45s-.06.13-.2.13H256v4.19c0,.55.29.66,1.55.66.95,0,1.41,0,1.68-.27a5.17,5.17,0,0,0,.82-2c0-.08.16-.05.16,0,0,.51-.09,1.33-.09,1.6s0,.23.26.32a.37.37,0,0,1,.25.39c0,.33-.28.59-.89.73a8.85,8.85,0,0,1-2.21.19c-2.06,0-2.63-.29-2.63-1.54,0-.26,0-.61,0-1.71V19Zm-3.35-4.58c-.05,1-.53,1.68-1.13,1.68a.59.59,0,0,1-.62-.6c0-.26.1-.41.4-.59a1.82,1.82,0,0,0,1-1.7c0-.09.19-.09.2,0a3.91,3.91,0,0,1,.13.85h3.86v-1c0-.28,0-.62,0-1.07,1.48.16,1.65.27,1.65.45s-.13.24-.52.4v1.2h4.21c.45-.55.53-.62.62-.62s.23.1.83.65c.31.3.36.38.36.48s-.14.28-.63.29a.39.39,0,0,0-.33.15,5.35,5.35,0,0,1-1,.8s-.15,0-.12-.07a5.15,5.15,0,0,0,.48-1.32Zm.62,1.84a6.94,6.94,0,0,0,1.17.1h5c.62-.73.74-.79.82-.79s.2.06.82.57c.29.24.35.35.35.44s0,.14-.19.14h-6.81a7.19,7.19,0,0,0-1,.07Z"/><path class="cls-1" d="M274.15,16a9.77,9.77,0,0,0,3.53,1.48c.07,0,.06.16,0,.17-.38.06-.59.29-.76.87-.06.14-.13.2-.21.2a1.48,1.48,0,0,1-.51-.19,12.73,12.73,0,0,1-2.45-1.71,12.94,12.94,0,0,1-2.85-3.65,12.93,12.93,0,0,1-6.58,5.61c-.09,0-.2-.16-.12-.22a15.26,15.26,0,0,0,4.73-4.45A8.29,8.29,0,0,0,270,12c1.5.47,1.67.56,1.67.69s-.08.19-.5.29A10.52,10.52,0,0,0,274.15,16Zm1,8.22c.67-.82.77-.89.86-.89s.19.07.88.66c.32.28.37.38.37.46s0,.13-.18.13H265.62a6.67,6.67,0,0,0-1.05.09l-.14-.55a5.53,5.53,0,0,0,1.18.1H270v-3h-2.69a6.39,6.39,0,0,0-.94.08l-.15-.56a4.78,4.78,0,0,0,1.09.12H270V18.22h-2.17a5.53,5.53,0,0,0-.95.08l-.14-.54a5.26,5.26,0,0,0,1.09.1h4.8c.54-.7.64-.77.73-.77s.23.05.82.56c.28.23.33.35.33.44s-.05.13-.2.13h-3.21v2.65h2.3c.61-.77.71-.84.8-.84s.2.07.83.62c.3.25.38.35.38.43s-.05.15-.19.15h-4.12v3Z"/><path class="cls-1" d="M287.84,20.87c0,1.64.06,2.33.06,3a1.08,1.08,0,0,1-.37.85,1.47,1.47,0,0,1-1,.39c-.24,0-.29,0-.35-.3-.09-.43-.48-.63-1.83-.88-.1,0-.1-.24,0-.23,1.05.1,1.71.13,2.23.13.19,0,.26-.06.26-.27V17.73h-4.54a4.23,4.23,0,0,0-1.06.1l-.15-.55a8.74,8.74,0,0,0,1.21.09h9.64c.51-.48.62-.57.72-.57s.28.13.84.7c.18.2.26.28.26.4s-.08.24-.61.27a.45.45,0,0,0-.29.15,14.13,14.13,0,0,1-2.94,1.83c-.07,0-.18-.1-.11-.16a11.36,11.36,0,0,0,2.16-2.26h-4.08Zm2.45-7.94c.51-.48.58-.52.68-.52s.19,0,.76.59c.28.25.33.32.33.42s-.13.24-.7.32a13.94,13.94,0,0,1-3.31,2.13,1.18,1.18,0,0,1,.34.78.59.59,0,0,1-.55.63c-.28,0-.37-.07-.69-.72a5.38,5.38,0,0,0-1.84-2s0-.14.08-.13a6.94,6.94,0,0,1,2.42,1.24,12,12,0,0,0,2.45-2.33h-6.48a5.6,5.6,0,0,0-1.09.1l-.15-.55a7.18,7.18,0,0,0,1.23.09Z"/><path class="cls-1" d="M297.23,24.11a14.81,14.81,0,0,0,.91-2.78,5.85,5.85,0,0,0,.11-1.37c1.23.33,1.36.39,1.36.55s-.1.2-.45.27a9,9,0,0,1-1.76,3.44C297.35,24.28,297.2,24.18,297.23,24.11Zm2.67-5.3c-.52.1-1.07.18-1.69.27-.12.33-.19.4-.3.4s-.25-.21-.45-1.34c.32,0,.45.05.66.05l.84,0a22.55,22.55,0,0,0,1.89-2.89,8,8,0,0,0,.57-1.34c1.08.52,1.31.65,1.31.82s-.11.19-.54.19a17.28,17.28,0,0,1-2.83,3.21c.88,0,1.76-.06,2.62-.13a4.11,4.11,0,0,0-.63-1.23s.07-.13.12-.1a2.83,2.83,0,0,1,1.64,2.09c0,.41-.2.71-.49.71s-.42-.1-.48-.78a2.57,2.57,0,0,0-.07-.4c-.4.1-.79.2-1.2.28v2.76c0,1.59.05,3,.05,3.45s-.22.46-.65.46-.45-.1-.45-.37.08-1.18.08-3Zm0-2.86c0,.39-.22.67-.52.67s-.39-.07-.58-.68a3.34,3.34,0,0,0-1.08-1.64c0-.05,0-.12.09-.1a5.16,5.16,0,0,1,1.15.53,10.67,10.67,0,0,0,.73-1.77,4.27,4.27,0,0,0,.22-1c1.07.39,1.44.57,1.44.74s-.1.23-.56.26a13.72,13.72,0,0,1-1.56,1.91A1.36,1.36,0,0,1,299.87,16ZM302,22.28a5.33,5.33,0,0,0-.7-2.21s.07-.1.11-.07a3.35,3.35,0,0,1,1.63,2.39c0,.44-.22.77-.56.77S302.08,23,302,22.28Zm6.7-7.29c.48-.56.55-.61.63-.61s.18,0,.71.52c.22.22.26.31.26.41s-.06.14-.4.39a36,36,0,0,1-.7,7.33,3,3,0,0,1-.85,1.62,1.82,1.82,0,0,1-1.09.36c-.23,0-.3,0-.35-.28-.1-.46-.34-.64-1.52-1-.1,0-.1-.25,0-.23a13.54,13.54,0,0,0,1.75.18c.7,0,.87-.34,1.06-1.06a33.54,33.54,0,0,0,.63-7.29h-4.13A10.29,10.29,0,0,1,303,17.58c-.06.06-.2,0-.16-.11a14,14,0,0,0,1.64-3.73,9.86,9.86,0,0,0,.3-1.65c1.37.35,1.59.48,1.59.64s-.1.23-.53.3a13.15,13.15,0,0,1-.88,2Zm-3.14,4.9a5,5,0,0,0-1.18-2.44s0-.14.1-.11c1.3.57,2.2,1.55,2.2,2.36a.71.71,0,0,1-.63.78C305.8,20.48,305.67,20.33,305.57,19.89Z"/><path class="cls-1" d="M320.1,19c.43-.43.5-.47.59-.47s.19,0,.62.4c.2.19.26.28.26.36s-.06.19-.38.42v.76c0,1.54,0,1.95,0,2.24a.82.82,0,0,1-.31.73,1.33,1.33,0,0,1-.78.29c-.16,0-.22-.07-.25-.23-.05-.45-.17-.58-1-.77-.07,0-.07-.17,0-.17.56,0,.86.06,1.06.06s.23-.06.23-.2V19.35h-1.75c0,3.3,0,4.86,0,5.42,0,.33-.19.5-.61.5s-.49-.13-.49-.44c0-.54,0-2,.06-5.48h-1.76v1.39c0,1.54,0,2.13,0,2.53s-.19.45-.61.45-.42-.12-.42-.38.05-1,.05-2.86c0-1.08,0-1.54-.05-2.08a9.45,9.45,0,0,1,1.14.59h1.63c0-.4,0-.82,0-1.22v-.53h-2.53a4.83,4.83,0,0,0-.91.07l-.14-.53a5.21,5.21,0,0,0,1,.1h2.55V14.93h-1.71a6.8,6.8,0,0,1-1.46,1.59c-.07.05-.2-.06-.14-.13a7.79,7.79,0,0,0,1.14-2.31,7,7,0,0,0,.29-1.4c1.24.32,1.38.38,1.38.54s-.13.23-.5.33a9.63,9.63,0,0,1-.49,1h1.49c0-1.58,0-2.1-.07-2.53,1.36.15,1.56.23,1.56.43s-.1.21-.49.37v1.73h1.29c.54-.66.64-.73.74-.73s.2.07.78.56c.26.21.33.32.33.4s-.06.13-.19.13h-3v1.95h1.86c.57-.72.67-.8.76-.8s.19.08.82.61c.26.22.33.32.33.4s0,.15-.19.15h-3.58V19Zm3.63-3c0,3.3.06,4.88.06,5.35s-.2.48-.65.48-.46-.12-.46-.42.07-1.44.07-4.36c0-2.44,0-3.06-.07-3.85,1.32.15,1.51.2,1.51.42s-.09.22-.46.36Zm2.62,2c0,4.07.06,5.2.06,5.77a1,1,0,0,1-.49,1,1.57,1.57,0,0,1-.84.26c-.21,0-.28-.07-.34-.3-.06-.43-.38-.64-1.62-.89-.08,0-.07-.21,0-.19.82.07,1.48.11,1.94.11.18,0,.25-.07.25-.24V14.64a14.06,14.06,0,0,0-.1-2.43c1.44.17,1.55.22,1.55.42s-.07.23-.43.39Z"/><path class="cls-1" d="M330.81,11.71a9.88,9.88,0,0,1,2.93,3.14,7.36,7.36,0,0,1,0,7.51,10,10,0,0,1-2.9,3.12.39.39,0,0,1-.17.07.08.08,0,0,1-.09-.09c0-.06,0-.11.12-.19a8.8,8.8,0,0,0-.05-13.38.24.24,0,0,1-.07-.16s0-.07.09-.07A.21.21,0,0,1,330.81,11.71Z"/><path class="cls-1" d="M76.44,75.54c0,10.1-3.62,16.46-9.68,16.46C60.49,92,57,85.94,57,75.81s3.57-16.59,9.76-16.59S76.44,65.54,76.44,75.54Zm-14.34.14c0,9.12.92,15,4.66,15s4.58-5.84,4.58-15-.87-15.1-4.58-15.1S62.1,66.5,62.1,75.68Z"/><path class="cls-1" d="M101.33,83c0,5-3.57,9-9.68,9-5.93,0-9.72-4-9.72-8.64,0-3.69,2.62-6.06,6.76-8.08-4.32-2.15-5.89-4.61-5.89-8.51s3.71-7.55,8.9-7.55,8.72,3.07,8.72,7c0,3.34-1.84,5.09-5.72,7C99.59,75.63,101.33,78.4,101.33,83Zm-14.78.4c0,4.39,2,7.24,5.19,7.24s5.32-2.76,5.32-7c0-3.16-1.79-5.05-7.11-7.64C87.08,77.69,86.55,80.2,86.55,83.4Zm9.59-17.12c0-3.46-1.91-5.7-4.44-5.7-2.84,0-4.71,2.19-4.71,5.49,0,2.41,1,3.94,6.45,6.45C95.49,71.24,96.14,69.09,96.14,66.28Z"/><path class="cls-1" d="M126.31,75.54c0,10.1-3.62,16.46-9.68,16.46-6.28,0-9.77-6.06-9.77-16.19s3.58-16.59,9.77-16.59S126.31,65.54,126.31,75.54ZM112,75.68c0,9.12.92,15,4.67,15s4.58-5.84,4.58-15-.88-15.1-4.58-15.1S112,66.5,112,75.68Z"/><path class="cls-1" d="M151.24,75.54c0,10.1-3.62,16.46-9.68,16.46-6.28,0-9.76-6.06-9.76-16.19s3.57-16.59,9.76-16.59S151.24,65.54,151.24,75.54Zm-14.34.14c0,9.12.91,15,4.66,15s4.58-5.84,4.58-15-.87-15.1-4.58-15.1S136.9,66.5,136.9,75.68Z"/><path class="cls-1" d="M168.37,81.12H158v-4h10.42Z"/><path class="cls-1" d="M178.26,64.22c-.43.13-.61.09-.74-.48s-.13-.61.39-.79c2.53-.92,6.37-2.55,9.29-4,.3,0,.7.22.7.53-.05,3.51-.18,6.14-.18,9.69V83c0,4.34.05,4.92.48,5.84s1.88,1,3.71,1.14c.3,0,.39.17.39.66s-.09.61-.39.61c-2-.09-4.41-.13-6.46-.13-2.26,0-4.57,0-6.62.13-.35,0-.44-.09-.44-.61s.13-.62.44-.66c1.83-.13,3.27-.18,3.7-1.14S183,85.9,183,83V67.25a7.49,7.49,0,0,0-.44-3.38c-.3-.48-1.22-.53-2.57-.13Z"/><path class="cls-1" d="M206.64,64.18c-2.4,0-3,.35-3.58,1a8.74,8.74,0,0,0-1.52,2.9c-.13.31-.22.44-.79.31s-.52-.18-.48-.49c.35-2.23.88-5.74,1.14-8.07,2.87.13,5.75.13,8.76.13s5.71,0,8.5-.13c.26,0,.35,0,.35.92a1.93,1.93,0,0,1-.18,1.14c-4.22,7.64-6.58,13.78-7.62,19.05a28.65,28.65,0,0,0-.66,5.79c0,1.23.09,1.89.09,2.94,0,1.4-1.66,2.37-3.31,2.37-1.44,0-2.75-.53-2.75-1.93,0-3.34,1.22-6.93,3.14-11.15a115.79,115.79,0,0,1,8.37-14.74Z"/><path class="cls-1" d="M244.26,75.54c0,10.1-3.62,16.46-9.68,16.46-6.28,0-9.77-6.06-9.77-16.19s3.58-16.59,9.77-16.59S244.26,65.54,244.26,75.54Zm-14.35.14c0,9.12.92,15,4.67,15s4.58-5.84,4.58-15-.88-15.1-4.58-15.1S229.91,66.5,229.91,75.68Z"/><path class="cls-1" d="M261.38,81.12H251v-4h10.41Z"/><path class="cls-1" d="M271.5,72.34c-.05.66-.18,1.36-.26,2.28,1.61-1.84,3.74-2.72,6.88-2.72,5.41,0,8.81,3.82,8.81,9.52,0,5.93-3.45,10.58-10,10.58a12.59,12.59,0,0,1-6.15-1.49c-1.44-.84-3-2.28-3-3.73,0-.92,1.09-1.8,3.14-1.8,1.7,0,2.36,2.06,2.84,3.25A3.3,3.3,0,0,0,277,90.64c3.4,0,4.79-4,4.79-9.17,0-5-2.44-7.9-5.14-7.9a5.92,5.92,0,0,0-5.5,3.2c-.26.44-.43.53-1.17.22s-.61-.48-.53-.88a10.92,10.92,0,0,0,.27-1.22l1-14a.83.83,0,0,1,.26-.57.72.72,0,0,1,.61-.27c1.75.05,4.54.05,6.85.05,1.79,0,4.53-.05,7.41-.18.3,0,.43.18.39.35l-1.44,3.95a.45.45,0,0,1-.43.31c-1.75,0-2.84-.09-4.41-.09h-7.84Z"/><path class="cls-1" d="M296.21,64.22c-.44.13-.61.09-.74-.48s-.13-.61.39-.79c2.53-.92,6.37-2.55,9.29-4,.3,0,.69.22.69.53,0,3.51-.17,6.14-.17,9.69V83c0,4.34,0,4.92.48,5.84s1.87,1,3.71,1.14c.3,0,.39.17.39.66s-.09.61-.39.61c-2-.09-4.41-.13-6.46-.13-2.26,0-4.57,0-6.62.13-.35,0-.44-.09-.44-.61s.13-.62.44-.66c1.83-.13,3.27-.18,3.7-1.14s.44-2.9.44-5.84V67.25a7.49,7.49,0,0,0-.44-3.38c-.3-.48-1.22-.53-2.57-.13Z"/><path class="cls-1" d="M337.27,75.54c0,10.1-3.62,16.46-9.68,16.46-6.27,0-9.76-6.06-9.76-16.19s3.57-16.59,9.76-16.59S337.27,65.54,337.27,75.54Zm-14.34.14c0,9.12.92,15,4.66,15s4.58-5.84,4.58-15-.87-15.1-4.58-15.1S322.93,66.5,322.93,75.68Z"/><path class="cls-1" d="M358.32,84.54c0,2.81,0,3.38.4,4.39s1.57,1,3.14,1.14c.26,0,.3.09.3.57s-.09.57-.35.57C360,91.12,358,91,356.19,91s-4.06.09-5.89.18c-.3,0-.39,0-.39-.57s.09-.53.39-.57c1.4-.13,2.62-.22,3-1,.43-.92.56-2.06.56-4.47v-2H347c-1.66,0-2.88,0-4.14,0-.4,0-.57-.13-.57-1.14a2.73,2.73,0,0,1,.48-1.8C346.82,72.52,350,67,354.4,60.05l3.88-1c.22,0,.35.09.35.53-.09,3.46-.09,7.06-.22,11.19L358.32,81c1.18,0,2.88-.09,4.41-.22.22,0,.3.08.26.3l-.39,1.32c-.09.26-.13.31-.4.31-1.26-.09-3-.09-3.88-.09Zm-4.4-13c.05-3.29.09-5.18.26-8.17-3.4,5.45-6.88,11.28-9.94,17-.26.48-.21.7.35.7h9.24Z"/><path class="cls-1" d="M75.29,112.16c-.15,0-.21,0-.27-.16s0-.22.15-.28a22.55,22.55,0,0,0,2.89-1.29c.15,0,.24.09.24.18,0,1.19-.06,2-.06,3.27v4.62c0,1.49,0,1.67.17,2s.72.32,1.33.38c.11,0,.14.06.14.22s0,.21-.14.21c-.66,0-1.47-.06-2.1-.06s-1.45,0-2.15.06c-.12,0-.15,0-.15-.21s0-.21.15-.22c.6,0,1.12-.06,1.3-.38a5.79,5.79,0,0,0,.16-2v-5.33a2.37,2.37,0,0,0-.16-1.11.41.41,0,0,0-.39-.18,2,2,0,0,0-.54.1Z"/><path class="cls-1" d="M88.72,116c0,3.4-1.15,5.55-3.07,5.55s-3.1-2.06-3.1-5.46,1.18-5.58,3.1-5.58S88.72,112.66,88.72,116Zm-4.71,0c0,3.08.35,5,1.64,5s1.6-2,1.6-5-.33-5.08-1.6-5.08S84,113,84,116.05Z"/><path class="cls-1" d="M93.16,115.29a.92.92,0,1,1-.9-.92A.91.91,0,0,1,93.16,115.29Zm0,5.35a.92.92,0,1,1-.9-.94A.91.91,0,0,1,93.16,120.64Z"/><path class="cls-1" d="M102,116c0,3.4-1.15,5.55-3.07,5.55s-3.1-2.06-3.1-5.46,1.18-5.58,3.1-5.58S102,112.66,102,116Zm-4.7,0c0,3.08.34,5,1.63,5s1.61-2,1.61-5-.33-5.08-1.61-5.08S97.25,113,97.25,116.05Z"/><path class="cls-1" d="M110.2,116c0,3.4-1.16,5.55-3.07,5.55s-3.11-2.06-3.11-5.46,1.19-5.58,3.11-5.58S110.2,112.66,110.2,116Zm-4.71,0c0,3.08.35,5,1.64,5s1.6-2,1.6-5-.33-5.08-1.6-5.08S105.49,113,105.49,116.05Z"/><path class="cls-1" d="M119.09,115.47a6.44,6.44,0,0,0,3.16,1.1,4.32,4.32,0,0,0,3.06-1.22.2.2,0,0,1,.15-.06.11.11,0,0,1,.09.11.27.27,0,0,1-.06.16c-1.07,1.21-2.12,2-3.5,2a5.73,5.73,0,0,1-2.9-.94,6.49,6.49,0,0,0-3.18-1.11,4.34,4.34,0,0,0-3,1.2.23.23,0,0,1-.15,0,.11.11,0,0,1-.09-.11.28.28,0,0,1,.06-.15c1.07-1.19,2.09-2,3.46-2A5.85,5.85,0,0,1,119.09,115.47Z"/><path class="cls-1" d="M129,112.16c-.15,0-.21,0-.27-.16s0-.22.15-.28a22.68,22.68,0,0,0,2.9-1.29c.15,0,.24.09.24.18,0,1.19-.06,2-.06,3.27v4.62c0,1.49,0,1.67.16,2s.72.32,1.34.38c.1,0,.13.06.13.22s0,.21-.13.21c-.66,0-1.47-.06-2.1-.06s-1.46,0-2.16.06c-.12,0-.15,0-.15-.21s0-.21.15-.22c.6,0,1.12-.06,1.3-.38a5.47,5.47,0,0,0,.17-2v-5.33a2.34,2.34,0,0,0-.17-1.11.41.41,0,0,0-.39-.18,2,2,0,0,0-.54.1Z"/><path class="cls-1" d="M142.48,118.54a3,3,0,0,1-3.11,3,3,3,0,0,1-3.17-2.9c0-1.26.87-2.14,2.24-2.83a3,3,0,0,1-1.94-2.77,2.77,2.77,0,0,1,2.87-2.54,2.57,2.57,0,0,1,2.81,2.37c0,1.18-.61,1.84-1.88,2.46C141.84,116.14,142.48,117,142.48,118.54Zm-5,.12c0,1.42.78,2.43,1.86,2.43s1.89-1,1.89-2.35c0-1.1-.59-1.79-2.37-2.68A2.72,2.72,0,0,0,137.52,118.66ZM141,112.9a1.74,1.74,0,0,0-1.61-1.93,1.72,1.72,0,0,0-1.68,1.85c0,.85.31,1.42,2.13,2.25A2.25,2.25,0,0,0,141,112.9Z"/><path class="cls-1" d="M146.86,115.29a.91.91,0,0,1-.9.92.92.92,0,1,1,0-1.84A.9.9,0,0,1,146.86,115.29Zm0,5.35a.9.9,0,0,1-.9.9.92.92,0,1,1,0-1.84A.9.9,0,0,1,146.86,120.64Z"/><path class="cls-1" d="M155.66,116c0,3.4-1.16,5.55-3.07,5.55s-3.11-2.06-3.11-5.46,1.19-5.58,3.11-5.58S155.66,112.66,155.66,116Zm-4.71,0c0,3.08.35,5,1.64,5s1.6-2,1.6-5-.33-5.08-1.6-5.08S151,113,151,116.05Z"/><path class="cls-1" d="M163.9,116c0,3.4-1.15,5.55-3.07,5.55s-3.1-2.06-3.1-5.46,1.18-5.58,3.1-5.58S163.9,112.66,163.9,116Zm-4.7,0c0,3.08.34,5,1.63,5s1.6-2,1.6-5-.33-5.08-1.6-5.08S159.2,113,159.2,116.05Z"/><path class="cls-1" d="M189,121.37a12,12,0,0,0,2,.14,21.84,21.84,0,0,0,3.9-.3c.07,0,.09.15,0,.18a.84.84,0,0,0-.51.81c0,.21-.08.27-.3.3-.62,0-1.55.06-2.7.06a6.76,6.76,0,0,1-4.59-1.31,5.62,5.62,0,0,1-1.71-2.36,7.73,7.73,0,0,1-3.31,3.78c-.07,0-.21-.11-.15-.17a9.9,9.9,0,0,0,2.81-5,10.6,10.6,0,0,0,.21-1.86c1.22.23,1.58.35,1.58.55s-.07.21-.49.36a10.84,10.84,0,0,1-.5,1.91,4.85,4.85,0,0,0,1.86,2.21,5,5,0,0,0,.81.39v-6.89h-3.32a4.39,4.39,0,0,0-1,.09l-.15-.59a5.27,5.27,0,0,0,1.14.12h7c.63-.78.74-.86.84-.86s.2.08.92.64c.31.27.39.36.39.45s-.06.15-.21.15H189v3.14h2.33c.65-.78.75-.85.84-.85s.21.07.89.64c.3.26.36.37.36.46s-.05.13-.2.13H189Zm-5.29-9.74c0,1.18-.56,1.92-1.23,1.92a.61.61,0,0,1-.65-.62.64.64,0,0,1,.44-.63,2,2,0,0,0,1.11-1.81c0-.09.19-.1.21,0a4.51,4.51,0,0,1,.1.78h4.09v-1.13a7.71,7.71,0,0,0-.06-1c1.52.16,1.68.28,1.68.45s-.1.22-.49.36v1.28h4.28c.53-.59.6-.65.69-.65s.23,0,.9.68c.33.3.38.39.38.49s-.14.31-.6.32a.59.59,0,0,0-.5.18,5.54,5.54,0,0,1-.93.72s-.15,0-.12-.1a5.59,5.59,0,0,0,.38-1.27Z"/><path class="cls-1" d="M200.11,116.62c0,3.56,0,5.24,0,5.76,0,.35-.21.53-.63.53s-.53-.14-.53-.47.06-1.38.09-4.87c0-1,0-1.92,0-2.86a14.17,14.17,0,0,1-1.77,2c-.07.08-.24-.1-.18-.18a18,18,0,0,0,2.77-5.34,11.15,11.15,0,0,0,.45-2.06c1.17.34,1.68.55,1.68.73s-.16.26-.58.32a17.65,17.65,0,0,1-1.73,3.63c.72.12.84.19.84.34s-.07.21-.45.36Zm6.13-3.27a10,10,0,0,0,5.17,5.6c.08,0,0,.15,0,.17-.29.06-.5.22-.68.67-.09.24-.13.27-.25.27a.91.91,0,0,1-.49-.27,10,10,0,0,1-2.16-2.39,12.46,12.46,0,0,1-1.68-3.7c0,2.81.12,7.31.12,8.71,0,.33-.21.48-.71.48s-.52-.12-.52-.39c0-.72.09-4.89.15-7.57a13.08,13.08,0,0,1-4.51,5.21c-.09.06-.24-.11-.17-.18a16.66,16.66,0,0,0,4.21-6.61h-2.59a4.93,4.93,0,0,0-1,.09l-.15-.57a6.41,6.41,0,0,0,1.1.1h3v-1.76a13.67,13.67,0,0,0-.09-2c1.62.19,1.7.24,1.7.45s-.09.24-.53.43V113h2.78c.66-.82.76-.9.87-.9s.21.08.88.68c.3.27.37.36.37.45s0,.15-.19.15Z"/><path class="cls-1" d="M216.47,122c0,.36-.24.49-.72.49s-.5-.1-.5-.4c0-.79.09-1.88.09-6.93,0-2.75,0-4.09-.09-5.31a6.69,6.69,0,0,1,1.4.68h6.2c.52-.56.6-.61.69-.61s.21,0,.75.5c.24.21.28.3.28.39s-.07.23-.42.45v3c0,4.83.08,6.94.08,7.6,0,.36-.24.51-.74.51s-.49-.12-.49-.42v-.69h-6.53Zm6.53-11.1h-6.53v4.68H223Zm-6.53,10H223V116h-6.53Z"/><path class="cls-1" d="M228.44,122.58,241.6,109l.42.42L228.86,123Z"/><path class="cls-1" d="M247.88,113.7c.5-.55.57-.61.66-.61s.21.06.73.56c.24.23.29.33.29.42s-.11.21-.51.36c-1,3.44-2.4,5.35-5.07,6.93-.07,0-.21-.12-.13-.18a12.19,12.19,0,0,0,4.12-7.11h-2.44a4.45,4.45,0,0,0-1.05.12l-.15-.6a5.85,5.85,0,0,0,1.21.11Zm3.34-.91c0,3.27.15,8.3.15,8.76a1.11,1.11,0,0,1-.46,1,1.73,1.73,0,0,1-1,.33c-.18,0-.21,0-.26-.34-.07-.47-.42-.66-1.76-.94-.08,0-.08-.19,0-.19.91.07,1.73.12,2.09.12.18,0,.26-.08.26-.29V112a17.63,17.63,0,0,0-.08-2.65c1.64.17,1.76.24,1.76.44s-.06.25-.6.48a14.56,14.56,0,0,0,1.65,5.6,15.08,15.08,0,0,0,2-2.6,6.26,6.26,0,0,0,.64-1.31c1.23.7,1.44.85,1.44,1s-.15.24-.66.21a14.28,14.28,0,0,1-3.31,2.91,7,7,0,0,0,.47.69,10.45,10.45,0,0,0,4.48,3.49c.07,0,0,.15-.05.17a1,1,0,0,0-.81.64c-.13.29-.18.35-.3.35a1.35,1.35,0,0,1-.63-.33,12.9,12.9,0,0,1-2.9-3.22,16.08,16.08,0,0,1-2.09-5.8Z"/><path class="cls-1" d="M261.42,120.94c0,.27-.21.43-.6.43s-.44-.12-.44-.34c0-.51.06-2,.06-6.43,0-2.6,0-3.54-.06-4.7a6.36,6.36,0,0,1,1.14.56h1.35c.37-.45.45-.51.54-.51s.19.06.6.4c.22.2.28.29.28.4s-.06.15-.36.33v2.59c0,4.26.06,6.21.06,6.82,0,.27-.21.4-.58.4s-.42-.1-.42-.34v-.7h-1.57Zm1.57-10.1h-1.57v4H263Zm-1.57,8.64H263v-4.31h-1.57Zm5,3c0,.33-.21.47-.61.47s-.44-.12-.44-.39,0-1.33,0-3.82c0-.49,0-1,0-1.45a11.09,11.09,0,0,1-1.14,1c-.06,0-.16-.07-.12-.13a13.57,13.57,0,0,0,1.73-2.68,5.29,5.29,0,0,0,.4-1.21c1.05.31,1.37.44,1.37.58s-.11.21-.54.28c-.18.32-.38.62-.57.91h2.23c.16-.31.3-.62.42-.92a3.77,3.77,0,0,0,.19-.73c1.17.31,1.4.4,1.4.55s-.15.24-.56.28l-1,.82h2.31c.51-.61.63-.67.72-.67s.19.06.73.51c.24.19.32.29.32.38s-.05.15-.21.15h-3.48v1.42h1.53c.45-.58.57-.65.66-.65s.19.07.73.53c.21.15.27.27.27.34s-.06.15-.19.15h-3v1.51h1.56c.45-.56.57-.63.66-.63s.19.07.75.52c.18.17.24.27.24.35s-.06.13-.2.13h-3v1.71h2.07c.55-.7.66-.76.75-.76s.21.06.81.58c.25.21.33.31.33.4s-.06.15-.2.15h-7Zm-.61-10.47a3.47,3.47,0,0,0-.92.09l-.16-.56a6.56,6.56,0,0,0,1.08.09h1.75v-1.36h-1.9a2.89,2.89,0,0,0-.9.11l-.15-.57a6.2,6.2,0,0,0,1.05.09h1.78c.41-.45.48-.51.57-.51s.18.06.57.4c.22.18.28.27.28.36s0,.14-.34.34v.84c0,1.56,0,2.32,0,2.56s-.22.39-.56.39-.44-.08-.44-.33v-.12h-1.86a4.37,4.37,0,0,0-1,.1l-.15-.55a7.24,7.24,0,0,0,1.12.07h1.86v-1.44Zm2.87,5.78v-1.42h-2.26v1.42Zm0,1.88v-1.51h-2.26v1.51Zm0,2.08v-1.71h-2.26v1.71Zm1.68-9.74a3.88,3.88,0,0,0-1,.09l-.15-.56a7.17,7.17,0,0,0,1.13.09H272v-1.36h-1.75a3.68,3.68,0,0,0-1,.11l-.16-.57a8,8,0,0,0,1.17.09h1.65c.39-.47.48-.51.57-.51s.18,0,.6.42c.24.18.28.27.28.36s0,.15-.36.38v.84c0,1.56,0,2.33,0,2.56s-.21.42-.6.42-.42-.09-.42-.33v-.21H270.2a4.07,4.07,0,0,0-.95.1l-.15-.55a7,7,0,0,0,1.1.07H272v-1.44Z"/><path class="cls-1" d="M278.89,122c0,.36-.24.49-.72.49s-.49-.1-.49-.4c0-.79.09-1.88.09-6.93,0-2.75,0-4.09-.09-5.31a6.62,6.62,0,0,1,1.39.68h6.21c.52-.56.6-.61.69-.61s.21,0,.75.5c.24.21.28.3.28.39s-.07.23-.42.45v3c0,4.83.08,6.94.08,7.6,0,.36-.24.51-.74.51s-.49-.12-.49-.42v-.69h-6.54Zm6.54-11.1h-6.54v4.68h6.54Zm-6.54,10h6.54V116h-6.54Z"/><path class="cls-1" d="M0,59V87.54H47V59ZM16.45,86.58H10.63V66.31a6.36,6.36,0,0,1,6.51-6.52H24v5.33H18.68A2.09,2.09,0,0,0,16.45,67v3.52H31.81v5.33H16.45Zm19.76,0H33.36a6.37,6.37,0,0,1-6.52-6.53v-3h5v2.76a1.42,1.42,0,0,0,1.53,1.42h2.87Zm0-21.48H33.34a1.41,1.41,0,0,0-1.53,1.41v2.76h-5v-3a6.37,6.37,0,0,1,6.52-6.52h2.85Z"/><path class="cls-1" d="M7.08,89.35A6.91,6.91,0,0,1,5.8,93.59a6.45,6.45,0,0,1-4,2.24l-.56-1.22c3.53-.61,4.1-2.38,4.37-4H.66V89.35Z"/><path class="cls-1" d="M9.74,93.46H8.41V89.1H9.74Zm3.83-1.2c0,3-2.38,3.39-4.27,3.62l-.48-1.22A6.74,6.74,0,0,0,11.51,94a1.82,1.82,0,0,0,.72-1.58V89h1.34Z"/><rect class="cls-1" x="14.92" y="91.65" width="7" height="1.33"/><polygon class="cls-1" points="29.04 89.47 29.04 95.33 23.03 95.33 23.03 94.08 27.7 94.08 27.7 90.71 23.11 90.71 23.11 89.47 29.04 89.47"/><rect class="cls-1" x="30.49" y="91.65" width="7" height="1.33"/><path class="cls-1" d="M40.67,91.08a13.62,13.62,0,0,1-.24,2.63A4.12,4.12,0,0,1,39.23,96l-1-1a3.08,3.08,0,0,0,1-1.8,10.27,10.27,0,0,0,.2-2v-2h1.27Zm2.17,3.09a1.94,1.94,0,0,0,1.21-1,5.07,5.07,0,0,0,.54-1.72l1.19.58a5,5,0,0,1-1.36,2.68,4.3,4.3,0,0,1-2.84,1.09V89h1.26Z"/></svg>