<svg id="レイヤー_1" data-name="レイヤー 1" xmlns="http://www.w3.org/2000/svg" viewBox="0 0 736 186"><defs><style>.cls-1{fill:#221714;}</style></defs><title>catch</title><path class="cls-1" d="M53.87,4.55C51.31,6,50,7.67,50,9.47c0,.81,0,.87,1.63,1.22a3,3,0,0,1,2.3,3A3.36,3.36,0,0,1,50.45,17c-2.25,0-3.88-1.95-3.88-4.61,0-3.78,2.35-7.21,6.28-9Zm10,0C61.32,6,60,7.67,60,9.47c0,.81,0,.87,1.63,1.22a3,3,0,0,1,2.3,3A3.36,3.36,0,0,1,60.45,17c-2.25,0-3.88-1.95-3.88-4.61,0-3.78,2.35-7.21,6.28-9Z"/><path class="cls-1" d="M81.43,9.57A11.05,11.05,0,0,0,85,13.25a15.44,15.44,0,0,0,6,2.2c1.43-7.11,1.58-7.88,1.58-9.11,0-1.74-.71-2.81-2.75-4.24a2,2,0,0,1,.86-.21,7.86,7.86,0,0,1,3.78,1.59C96,4.6,97.05,6,97.05,7.16a2.25,2.25,0,0,1-.67,1.49c-.87,1.22-1.43,2.61-2.8,7.11a3.74,3.74,0,0,1,2,1.12,3,3,0,0,1,.71,1.69c0,.67-.61,1.08-1.63,1.08a12.07,12.07,0,0,1-2-.26,60.18,60.18,0,0,0-2,9.47,14.36,14.36,0,0,0,2.6.35,1.18,1.18,0,0,0,.41-.05,3.39,3.39,0,0,1,.56-.05c1.33,0,3.06,1.59,3.06,2.77,0,.71-.66,1.17-1.73,1.17a20.7,20.7,0,0,1-5.41-.92C90.05,33.36,90,34,90,34.64c0,5.22,2.91,8.13,8.07,8.13,3.47,0,6.48-1.33,8.06-3.48a8.6,8.6,0,0,0,1.68-5.21c0-4.25-2.85-9.06-7.7-12.8l.56-.66c7.55,4.66,10.77,8.9,10.77,14.12,0,6.19-5.31,10.9-12.4,10.9a11.62,11.62,0,0,1-6.94-2.1c-2.66-2-3.93-5.06-3.93-9.52,0-.61,0-1.28.1-2.55a12.88,12.88,0,0,1-4.09-2.61,7.7,7.7,0,0,1-2.24-5.07,5.29,5.29,0,0,1,1.58-3.53,10.78,10.78,0,0,1,5-2.71,13,13,0,0,1-5-3.17,12.73,12.73,0,0,1-2.65-4.51Zm3,11.41a3.52,3.52,0,0,0-1.12,2.56c0,2.14,1.73,3.73,5.25,4.8A88,88,0,0,1,90.1,19C87.14,19.19,85.66,19.75,84.44,21Z"/><path class="cls-1" d="M138.39,47a28.34,28.34,0,0,0,6.74-7.37,31.55,31.55,0,0,0,4.34-15.55c0-5.07-1.84-8.19-4.85-8.19-2.71,0-6.28,2.2-9.8,6-1,1-1.28,1.18-2.09,1.18-1.08,0-2.3-.82-3.37-2.31A6.41,6.41,0,0,1,128,17.34a2.75,2.75,0,0,1,.82-1.89c.45,2.25,1.48,3.53,2.8,3.53.72,0,2-.56,4.7-2,4.34-2.36,6-2.92,8.62-2.92a8.06,8.06,0,0,1,6.33,3.43A13.49,13.49,0,0,1,153.19,25a25,25,0,0,1-6.33,16.53,23.5,23.5,0,0,1-8,6ZM135.58.46a15,15,0,0,0,9.55,3.27h1.17A4,4,0,0,1,149.06,5a2.58,2.58,0,0,1,1.07,1.74c0,.72-.72,1.13-2.09,1.13-2.15,0-2.15,0-12.71,3.12l-.26-.72c3.83-1.74,7.35-3.32,8.63-3.78C139.51,5.58,137,4,135.07.87Z"/><path class="cls-1" d="M171.52,22.51a34.15,34.15,0,0,0,6.68.41h30.17c1.43-1.94,1.94-2.51,3.52-4.35,2.6,2.05,3.42,2.71,5.92,4.91a.6.6,0,0,1,.15.31c0,.15-.2.31-.56.31H178.2a37.92,37.92,0,0,0-6.32.36Z"/><path class="cls-1" d="M247.21,14.17a50.22,50.22,0,0,0-.15-5.27c4.18.26,5.15.41,5.15.87s-.61.77-1.63,1.13v3.27h10V12.79a28.39,28.39,0,0,0-.15-3.89c4.44.26,5.05.41,5.05.87s-.46.67-1.53,1v3.37H268c1.18-1.63,1.59-2.1,2.81-3.68,2.35,1.84,3.06,2.4,5.31,4.25a.55.55,0,0,1,.15.3c0,.16-.25.31-.56.31H264c.05,6.7.05,6.7.05,9.52-.05.46-.2.51-1.32.66-.21,0-1.33.1-1.43.1-.41,0-.62-.15-.67-.61V23.23h-10V25c-.05.41-.15.56-.41.66a11.83,11.83,0,0,1-2.4.31c-.46,0-.66-.15-.66-.51v-.15c.1-2.66.1-2.66.1-10h-8.52l-.05,4.5c-.21,8-1.28,13.66-3.63,19.29a25.71,25.71,0,0,1-4.49,7.42l-.61-.46c2-3.63,3.16-7.27,4.13-12.89a112.65,112.65,0,0,0,.92-12c.16-3.32.26-7.77.26-9.56s0-2-.16-5.38c-.1-1.84-.1-1.84-.15-3.37a32.77,32.77,0,0,1,4.39,2.76h13.17V3a26.85,26.85,0,0,0-.21-3c4.65.31,6.23.56,6.23,1.18,0,.41-.51.71-2.19,1.38V5.68h12.25c1.27-1.69,1.63-2.2,3-3.79,2.24,1.74,3,2.31,5.3,4.15a2.1,2.1,0,0,1,.21.46c0,.25-.26.36-.82.36H238.84c-.05,2.5-.05,2.5-.1,7.31ZM277.88,42c-2.09.66-2.65,1.27-3.67,4-7.4-1.18-12.76-3.12-18-6.55a52.4,52.4,0,0,1-8.78,4.35,52.31,52.31,0,0,1-13,3.27l-.3-.72A55.59,55.59,0,0,0,254,37.81a27.8,27.8,0,0,1-7.6-8.75h-2.05a26.94,26.94,0,0,0-4.49.26l-.36-1.95a22.64,22.64,0,0,0,4.85.51h18.94c1-.92,1.22-1.17,2.14-2.09a36.92,36.92,0,0,1,3,2.5c.51.46.72.77.72,1,0,.46-.72.76-2.25,1A36,36,0,0,1,258.54,38a44.66,44.66,0,0,0,9.8,2.66,46.1,46.1,0,0,0,9.54.77ZM247.57,29.06a24.46,24.46,0,0,0,8.16,7.52,33.65,33.65,0,0,0,7.46-7.52Zm3-7h10v-6.7h-10Z"/><path class="cls-1" d="M289.78,35.46a45.73,45.73,0,0,1,10,4.91c2,1.48,2.71,2.66,2.71,4.5,0,1.64-1,3.38-1.84,3.38a1.71,1.71,0,0,1-.71-.31c-.36-.31-.36-.31-2.61-3.68a39.8,39.8,0,0,0-7.85-8.14Z"/><path class="cls-1" d="M355.72,34.89c-4.89,6.66-11.58,10.59-17.91,10.59-3.88,0-6.89-1.58-8.47-4.34-1-1.79-1.43-4.3-1.43-8.65,0-2.81.15-7.68.41-12.33.3-5.53.36-7,.36-8.8,0-4.4-.51-5.27-4.14-6.81A2.05,2.05,0,0,1,326,4a12.59,12.59,0,0,1,4.59,1.18c1.94.92,3,1.94,3,3a5.32,5.32,0,0,1-.46,1.84c-1,3.07-2.65,18.57-2.65,24.56,0,3.12.61,5,2,6.14A7.49,7.49,0,0,0,337,42.16a26.44,26.44,0,0,0,11.64-3.28,31.1,31.1,0,0,0,6.48-4.55ZM343.27,8.44a18.19,18.19,0,0,1,6.59,3.84,3.88,3.88,0,0,1,1.27,2.92c0,1.33-.56,2.25-1.33,2.25-.4,0-.56-.16-1.42-1.74A24.41,24.41,0,0,0,342.86,9Zm4.54-3.58a19.82,19.82,0,0,1,6.84,3.43,2.86,2.86,0,0,1,1.23,2.56c0,1.48-.46,2.45-1.18,2.45-.45,0-.66-.25-1.32-1.43a22.52,22.52,0,0,0-5.92-6.45Z"/><path class="cls-1" d="M385,42.06c6.38-1.33,10.57-3.12,14.14-6.19a10.72,10.72,0,0,0,4.29-8.29c0-4.45-3.06-7.42-7.61-7.42-5,0-11.53,2.66-16.94,7-1,.71-1.43,1-2,1-1.89,0-4.95-3.68-4.95-6a2.45,2.45,0,0,1,.35-1c.82,1.84,1.94,2.81,3.17,2.81.66,0,1.89-.41,4.49-1.43a63.57,63.57,0,0,1,11.64-3.63,21.87,21.87,0,0,1,4-.31c6.68,0,11.38,4.09,11.38,9.93A12,12,0,0,1,401.36,38c-4.09,2.77-8.58,4.15-16.18,5Z"/><path class="cls-1" d="M438.21,2.05a10.76,10.76,0,0,1,5.67,2.71c.81.82,1.12,1.33,1.12,2s-.26,1-3,3.18a125.58,125.58,0,0,0-9.39,8.85c-1.79,2-2.45,3.17-2.45,4.14a4.27,4.27,0,0,0,1.53,2.66A46.22,46.22,0,0,0,435.3,29c5.56,5.17,8.17,8,9.39,10.44a6.58,6.58,0,0,1,.77,3.37c0,2-.67,3.07-1.74,3.07-.66,0-.86-.25-1.73-2.09a48,48,0,0,0-4.29-7.22c-1.89-2.71-2.14-3-7.45-9.26-1.38-1.69-1.94-2.91-1.94-4.3,0-1.63.82-3,3.93-6.85C438.42,8.65,440,6.5,440,5.27c0-.87-.67-1.64-2.81-3A2.41,2.41,0,0,1,438.21,2.05Z"/><path class="cls-1" d="M476.49,46.82a28,28,0,0,0,8.12-7.17A28,28,0,0,0,490,22.41c0-4.45-.77-8.65-1.89-10.54a4.2,4.2,0,0,0-3.63-2.25c-2.55,0-4.9,2.2-6.73,6.39a28.9,28.9,0,0,0-2.4,11c0,.87.05,1.44.2,3.18a7.25,7.25,0,0,1,.05,1.07c0,1-.46,1.54-1.32,1.54-1.94,0-3.22-4.15-3.22-10.49,0-4.25.31-6.91,1.64-13.71a22.26,22.26,0,0,0,.56-3.74c0-1.64-.72-2.61-2.76-3.63a3,3,0,0,1,.92-.26,8,8,0,0,1,4.08,1.69c1.43,1,2,1.84,2,2.87a3,3,0,0,1-.71,1.94c-1.94,3.22-3.68,10.49-3.68,15.25,0,.46,0,1,.05,1.89h.11c1.53-6.55,3.42-10.8,5.92-13.4a8.25,8.25,0,0,1,6.22-3c4.9,0,8.37,6,8.37,14.58,0,6.65-1.83,12.18-5.56,16.73a25.86,25.86,0,0,1-11.28,8.08Z"/><path class="cls-1" d="M540.65,41.65c0,1,0,1.07.21,1.23.4.25,1.88.35,5.41.35H547c1.38,0,2.4,0,3,0h.36c1.88,0,2.55-.3,3-1.33.3-.82.81-2.86,2.45-9.26l.66.1L556,41v.52c0,.71.16,1,.77,1.22.92.31,1.17.57,1.17,1.28s-.76,1.43-2,1.69a53.29,53.29,0,0,1-8.22.41h-.86c-2.3,0-4.29,0-4.75,0-4,0-5.1-.72-5.1-3.43v-2.2c.05-1.23.05-2.15.05-2.4V30.54h-4.9a18,18,0,0,1-4.54,10c-2.5,2.71-5.87,4.61-10.47,5.84-1.53.35-2.7.61-5.46,1l-.2-.92c4-1,6-1.74,8.52-3.28,5-3,7.91-7.31,8.53-12.69h-4.09v1.64c0,.87-.41,1-2.7,1-1.07,0-1.23-.11-1.23-.77.26-7.06.36-11.26.36-18.11,0-7.47,0-10.13-.31-13.15a25.14,25.14,0,0,1,4.29,2.71H545a20.11,20.11,0,0,1,2.24-2.36c1.23.93,1.64,1.28,2.86,2.31.46.41.62.66.62.87,0,.36-.26.56-1.64,1.38v5.68c0,9.21,0,16.68.21,20.41,0,.77-.51.92-2.66.92-.92,0-1.12-.1-1.17-.66v-1.9h-4.8Zm4.8-36.58h-21v7.16h21Zm-21,8.34v7.16h21V13.41Zm0,8.33v7.63h21V21.74Z"/><path class="cls-1" d="M571.43,13.51c2.09,2.15,3.42,2.81,5.62,2.81a23.92,23.92,0,0,0,6.48-1,37,37,0,0,0,1.73-8.65c0-1.58-.76-2.25-3.62-3.22A2.67,2.67,0,0,1,583.22,3a13,13,0,0,1,4.39,1c1.53.56,2.3,1.28,2.3,2.05,0,.36,0,.36-.61,1.23a42,42,0,0,0-3.07,7.31,17.06,17.06,0,0,0,5.92-3.12c.82-.77,1-.87,1.43-.87a9.71,9.71,0,0,1,2.71.56c.56.21.81.52.81.92,0,.87-.81,1.54-3,2.51a59.75,59.75,0,0,1-8.93,3c-.61,1.74-.61,1.74-2.14,6.5-1,3.07-1,3.07-3.83,11.41-2,6.09-2.7,7.36-3.78,7.36-.51,0-.86-.3-1.17-1a7.65,7.65,0,0,1-.71-3c0-.82,0-1,1.12-2.5,2.55-3.74,4.54-8.19,8-18.32a26,26,0,0,1-4.9.51c-3.11,0-5.1-1.33-7-4.6ZM591.8,31.16c-.06.77-.06,1.38-.06,1.58a6.34,6.34,0,0,0,3.88,6.2,14.56,14.56,0,0,0,5.46,1,12.23,12.23,0,0,0,4.9-.77,2.37,2.37,0,0,1,.87-.2,5.82,5.82,0,0,1,2.6,1.22,2,2,0,0,1,.92,1.44c0,1.12-2,1.68-6,1.68a22.75,22.75,0,0,1-9.44-1.63,7.79,7.79,0,0,1-4.34-7.42A10.32,10.32,0,0,1,591,31Zm1.37-9.47A23.45,23.45,0,0,1,605,18.27a6.15,6.15,0,0,1,3.22.92,1.69,1.69,0,0,1,.82,1.43c0,.82-.46,1.12-1.94,1.18a7.32,7.32,0,0,0-3.93,1,23.51,23.51,0,0,0-2.81,1.74c-1,.61-1,.61-1.79,1.07l-.3-.46c.61-.61.61-.61,2.45-2.3.46-.41.92-.82,2.5-2.4a26.52,26.52,0,0,0-9.75,1.89Z"/><path class="cls-1" d="M642.28,23.13c-3.73,8.59-4.8,11.61-4.8,13.66a6.26,6.26,0,0,0,.3,1.74,3.76,3.76,0,0,1,.11.82,1.2,1.2,0,0,1-1.13,1.27c-1.43,0-4-2-5.61-4.34A23.44,23.44,0,0,1,627.68,26a57.38,57.38,0,0,1-.36-9c-.05-4.76-.41-5.94-2.6-8.8h.46c.82,0,2.29,1,3.83,2.5s2.29,2.87,2.29,4a9.1,9.1,0,0,1-.15,1.33,40.26,40.26,0,0,0-.92,7.62,22.13,22.13,0,0,0,1.17,7.42,7.42,7.42,0,0,0,2.66,4c.56-.82.56-.82,1.68-2.71L640,25.22c.82-1.33.82-1.33,1.48-2.45Zm10.87-9.26c6.43,1.43,11.53,8.23,11.53,15.29,0,2.46-1,4.05-2.55,4.05a2.47,2.47,0,0,1-1.53-.57c-.67-.46-1.64-.61-3.83-.61-1.17,0-2.14,0-3.88.1l-.15-.77c4.13-1.12,6.43-1.79,6.89-1.94,1-.36,1.17-.56,1.17-1.54a18.56,18.56,0,0,0-1.58-6.7,14.13,14.13,0,0,0-6.33-6.7Z"/><path class="cls-1" d="M679.49,16.47c2.55-1.48,3.88-3.12,3.88-4.91,0-.82-.06-.87-1.64-1.22a3,3,0,0,1-2.29-3A3.35,3.35,0,0,1,682.91,4c2.29,0,3.88,1.9,3.88,4.66,0,3.73-2.4,7.16-6.28,9Zm10,0c2.55-1.48,3.88-3.12,3.88-4.91,0-.82,0-.87-1.63-1.22a3,3,0,0,1-2.3-3A3.35,3.35,0,0,1,692.91,4c2.3,0,3.88,1.9,3.88,4.66,0,3.73-2.4,7.16-6.28,9Z"/><path class="cls-1" d="M0,110.71a16.55,16.55,0,0,1,3-7.82c1.56-2.25,3.24-3.85,8.37-8a12.32,12.32,0,0,0,3-3.13,6.6,6.6,0,0,0,.88-3.37c0-3.37-2.2-5.66-5.44-5.66A4.66,4.66,0,0,0,5,85.83a10.89,10.89,0,0,0-.4,2.93c-.08,1.37-.52,1.73-1.92,1.73s-2-.48-2-1.65c0-4.13,4-7.22,9.37-7.22,3.36,0,6.16,1.08,7.68,3A6.49,6.49,0,0,1,19,88.88c0,3.33-1.48,5.38-5.92,8.11-5,3.09-6.09,3.89-7.85,5.62A11.4,11.4,0,0,0,2,107.7H13.53c2.88,0,3.88-.88,4.68-4.25l1.2.28-1.08,7Z"/><path class="cls-1" d="M34,114.28c-.16.56-.48.65-2.16.65-.68,0-.8-.09-.8-.49.2-3.69.24-9.06.24-22.35,0-3.61-.12-9.51-.24-12.88,1.48.85,1.92,1.09,3.4,2H59.72c.88-1,1.16-1.2,2-2,1.16.89,1.48,1.17,2.56,2,.2.28.28.4.28.56,0,.32-.52.72-1.56,1.29v3.41c0,20.42,0,21.78.16,27.44,0,.56-.48.72-1.88.76h-.41c-.4,0-.64-.16-.68-.52v-2H34Zm0-3.09H60.2v-29H34Zm8-6.46c0,.48-.32.61-1.44.61a2.47,2.47,0,0,0-.6,0h-.12c-.36,0-.56-.17-.56-.53.08-3.33.12-5,.12-8.86,0-4.18,0-5.94-.08-8.35a13.1,13.1,0,0,1,3,1.85h9L53,87.88l2,1.65c.28.24.4.4.4.52s-.28.44-1,.84v1.64c0,3,0,10.12.08,11.44,0,.56-.44.72-1.72.76h-.36c-.4,0-.56-.12-.6-.48V102H42Zm0-3.61h9.73V90.41H42Z"/><path class="cls-1" d="M81,114c-.08.32-.2.44-.43.48a13.55,13.55,0,0,1-1.93.16.7.7,0,0,1-.76-.48c.2-7.14.24-11.91.24-19.74,0-6.74,0-10.39-.24-14.85,1.6.93,2.12,1.21,3.69,2.29H99c.8-.8.8-.8,1.8-1.88,1,.8,1.36,1.08,2.36,1.88.28.24.4.4.4.52,0,.28-.24.48-1.28,1.21,0,24.07,0,24.07.24,30.21-.08.36-.16.48-.36.6a7.27,7.27,0,0,1-2.08.2c-.36,0-.48-.12-.6-.48v-2.73H81Zm18.5-31.22H81v8.35h18.5ZM81,92.09v8.27h18.5V92.09Zm0,9.23v9.19h18.5v-9.19Z"/><path class="cls-1" d="M124.18,105.78a88.86,88.86,0,0,0,12.93-5.14l.2.52a57.22,57.22,0,0,1-8.65,5.14c-2.68,1.32-4.48,2.12-9.16,4,0,.44-.08.8-.08,1,0,.57-.24.89-.52.89-.48,0-.68-.48-2-4.46a31.61,31.61,0,0,0,4.64-1.16L120.9,85c0-1.2-.12-2.17-.36-4.13.88.12,1.56.16,2,.2,2,.2,2.6.36,2.6.76s-.48.6-1.52.88Zm1.44,8.14c6.89-3.17,11.49-7.18,14-12.32,2.16-4.25,3.52-11.35,3.52-18.41,0-1,0-1.69-.08-3,4.29.56,4.81.68,4.81,1.08s-.52.68-1.73.92c-.36,8-.72,11-1.64,14.33a25.27,25.27,0,0,1-2.36,5.78,53.54,53.54,0,0,1,6.41,4.49c1.24,1,1.8,1.93,1.8,2.81,0,1.64-.72,3.33-1.44,3.33-.36,0-.56-.24-1-1.16a27.71,27.71,0,0,0-6.17-8.83,23,23,0,0,1-6.12,6.86c-2.76,2.13-5.37,3.33-9.85,4.65Zm2.52-29.65a33,33,0,0,1,6.33,4.29c1.64,1.45,2.16,2.21,2.16,3.13,0,1.65-.64,3.09-1.36,3.09-.4,0-.56-.2-1-1.32a31.32,31.32,0,0,0-6.45-8.87Z"/><path class="cls-1" d="M165.82,106.46c0,.32,0,1.24,0,2.65,0,.92,0,1.2.08,5.13,0,.36-.12.48-.32.6a7.91,7.91,0,0,1-1.89.21c-.36,0-.52-.17-.56-.53.12-4,.2-11.51.2-21.58,0-4.94-.08-10-.2-13.69,1.2.73,1.56,1,2.65,1.69h4.8c.64-.76.84-1,1.48-1.69,1.2.93,1.56,1.21,2.64,2.13.32.32.4.44.4.6,0,.32-.4.56-1.52.8a85,85,0,0,1-5,9.51,12.58,12.58,0,0,1,3.08,3.82,12,12,0,0,1,1.36,5.33,6.34,6.34,0,0,1-1.32,4.22,4.17,4.17,0,0,1-2.76,1.28c-.56-1.77-.92-2-3.16-2.41Zm0-2.69c2.24.16,2.52.16,2.72.16a1.59,1.59,0,0,0,1.36-.44,4.83,4.83,0,0,0,.8-2.85,14.35,14.35,0,0,0-1-4.94,9.21,9.21,0,0,0-2.16-3.37,70.38,70.38,0,0,0,3.36-10.47h-5.08Zm20.25-4.45c0-2.33,0-2.69-.12-4.06,4.12.4,4.12.4,4.12.81s-.48.56-1.48.84v2.41h2c.8-.93,1-1.21,1.92-2.13a22.54,22.54,0,0,1,2.88,2.45.65.65,0,0,1,.12.36c0,.12-.2.24-.48.24h-6.48v6.7h3.76c1-1.12,1.28-1.48,2.24-2.49a38.65,38.65,0,0,1,3.29,2.81.48.48,0,0,1,.16.32c0,.12-.24.28-.44.28h-9c0,4.18,0,4.18.12,6.22,0,.4-.12.52-.36.64a10.24,10.24,0,0,1-1.84.25.52.52,0,0,1-.6-.49c.08-2,.08-2,.12-6.62H175.26c-.76,0-1.48,0-3.2.16l-.2-1.28c1.2.12,2.4.2,3.6.2h2.16v-6.7c-.72,0-.72,0-2.56.12l-.24-1.28a15.86,15.86,0,0,0,2.8.24ZM191,82.42c.76-.76,1-1,1.84-1.72,1,.88,1.28,1.16,2.2,2.08.32.37.4.53.4.69,0,.4-.4.56-1.92.72a35,35,0,0,1-5.84,6.26c2.92,1.8,6.48,2.81,11.37,3.17l0,.68c-1.2.24-1.64.68-2.36,2.61a27.44,27.44,0,0,1-10.33-5.42,37.61,37.61,0,0,1-12.77,6.06l-.2-.72a36.92,36.92,0,0,0,11.41-6.78,19.25,19.25,0,0,1-3.85-5.3,28.63,28.63,0,0,1-7.48,7.38l-.32-.48a32.24,32.24,0,0,0,8.33-13.28c3.24.68,4,1,4,1.32s-.48.61-1.76.81c-.56.92-.76,1.28-1.2,1.92Zm-10.85,17.82v6.7h5.93v-6.7Zm1.77-16.89c-.24.32-.32.4-.56.76a16.23,16.23,0,0,0,4.48,5,24.93,24.93,0,0,0,4.88-5.77Z"/><path class="cls-1" d="M217,97.27c-.72,2.53-1.84,6.9-2.33,8.87a13.74,13.74,0,0,0-.52,3.41c0,1.28-.08,1.44-.28,1.76a.92.92,0,0,1-.76.45c-.68,0-1.24-.57-1.72-1.81a23.87,23.87,0,0,1-1.28-8.07c0-3.69.44-7.06,1.8-13.36a17.67,17.67,0,0,0,.6-3.61,6.25,6.25,0,0,0-1.16-3.53c.92,0,1.68.56,2.8,2a5.63,5.63,0,0,1,1.45,3c0,.44,0,.44-.64,1.76a31.31,31.31,0,0,0-3.05,13.08,16,16,0,0,0,.64,5l1.68-4,2.17-5.18ZM221,90a8.32,8.32,0,0,0,5.16,1.64,21.63,21.63,0,0,0,4.57-.56V89.32c0-4.49,0-5-.57-5.57a4.08,4.08,0,0,0-2.64-.93,2.22,2.22,0,0,1,1.92-.64,11.77,11.77,0,0,1,2.73.36c1.16.36,1.76.85,1.76,1.45,0,.28,0,.32-.36,1.24a18.14,18.14,0,0,0-.84,5.38A9.5,9.5,0,0,0,236.39,89c.4-.4.52-.44.88-.44a4.75,4.75,0,0,1,1.88.52.87.87,0,0,1,.52.73c0,.88-2.92,2.08-7.08,2.89a79.35,79.35,0,0,0,.52,10.91c4.64,1.24,6.6,2.81,6.6,5.14,0,.84-.36,1.48-.8,1.48s-.6-.2-1.4-1a12.24,12.24,0,0,0-4.32-3.21,8.37,8.37,0,0,1,0,1c0,2.89-2.4,4.61-6.41,4.61-3.48,0-5.92-1.68-5.92-4.09,0-2.77,3-4.53,7.52-4.53.76,0,1.32,0,2.45.12v-.68l-.09-4.3,0-5.13a17.9,17.9,0,0,1-3.53.32,8,8,0,0,1-6.6-2.81Zm6.12,14.64c-3.16,0-5.12,1-5.12,2.81,0,1.41,1.56,2.37,3.92,2.37,2.2,0,3.76-.64,4.41-1.89a5,5,0,0,0,.52-2.81A13,13,0,0,0,227.1,104.65Z"/><path class="cls-1" d="M251.09,105.74a35.75,35.75,0,0,1,7.8,3.85c1.56,1.16,2.12,2.08,2.12,3.53,0,1.28-.76,2.65-1.44,2.65a1.31,1.31,0,0,1-.56-.24c-.28-.24-.28-.24-2-2.89a31,31,0,0,0-6.16-6.38Z"/><path class="cls-1" d="M282.91,94.62h-3.2a26.89,26.89,0,0,0-3.48.2l-.2-1.44a16.8,16.8,0,0,0,3.68.32h3.2V86.19a34.77,34.77,0,0,1-6,5.38l-.48-.44A52.79,52.79,0,0,0,283,82.5a18.86,18.86,0,0,0,2.16-4.57c4.56,1.6,4.56,1.6,4.56,2s-.68.52-2.4.56a35.42,35.42,0,0,1-2.76,3.77h21a33,33,0,0,1,2.16-2.65c1.48,1.2,2,1.61,3.4,2.93a2.17,2.17,0,0,1,.16.32c0,.2-.2.32-.52.32h-5.4V93.7h1.68c1-1.17,1.28-1.49,2.28-2.61,1.48,1.24,1.92,1.65,3.32,3a.62.62,0,0,1,.12.24.4.4,0,0,1-.4.32h-7v8.59h1.12a34,34,0,0,1,2.32-2.61c1.48,1.24,1.92,1.65,3.32,2.93a.58.58,0,0,1,.2.32.32.32,0,0,1-.36.28H280.67c-.56,0-2,.08-2.88.2l-.2-1.4a14.69,14.69,0,0,0,3.08.28h2.24Zm.84,11.16a10.59,10.59,0,0,1-2.68,6.54,4.72,4.72,0,0,1-2.72,1.72c-.6,0-1.08-.8-1.08-1.84,0-.85.16-1,1.32-1.53a7.67,7.67,0,0,0,2.28-1.64,7.42,7.42,0,0,0,2.28-3.41Zm5.84-12.08V85.15h-4.16V93.7Zm0,9.51V94.62h-4.16v8.59Zm-.72,2.29c1.69,2.12,3.09,4.69,3.09,5.65,0,1.13-1.16,2.53-2.08,2.53-.49,0-.64-.4-.64-1.64a28.25,28.25,0,0,0-.81-6.34Zm7.33-11.8V85.15H292V93.7Zm0,9.51V94.62H292v8.59Zm0,2.21a23.19,23.19,0,0,1,3.84,3.93,2.91,2.91,0,0,1,.76,1.64c0,1.21-1,2.65-1.72,2.65-.36,0-.44-.2-.72-1.4a27.43,27.43,0,0,0-2.64-6.58Zm2.4-11.72h4.24V85.15H298.6Zm0,9.51h4.24V94.62H298.6Zm5.32,2.29a26.38,26.38,0,0,1,5.57,3.49c1.16,1,1.52,1.48,1.52,2.12a5.25,5.25,0,0,1-.68,2.17,1.13,1.13,0,0,1-.72.52c-.28,0-.64-.36-1-1a31.07,31.07,0,0,0-5.13-6.94Z"/><path class="cls-1" d="M322.42,113.68a30.76,30.76,0,0,0,7.65-7.1,38.59,38.59,0,0,0,7.24-16.29,45.61,45.61,0,0,0,.92-8.59c0-.8,0-1.24-.12-2.33,4.37.57,4.85.69,4.85,1.09s-.16.4-1.72,1c0,.56,0,.88,0,1.24a33,33,0,0,0,5.64,17.7,28,28,0,0,0,8.13,7.74,19.78,19.78,0,0,0,4.56,2.21l0,.48h-.28a2.46,2.46,0,0,0-2,.8,7.22,7.22,0,0,0-1.16,2,29.51,29.51,0,0,1-9.57-9.71,45.22,45.22,0,0,1-4.64-11.19,31.2,31.2,0,0,1-1-5.82c-1.16,7.46-3,12.56-6.41,17.37a29.25,29.25,0,0,1-11.69,9.87Z"/><path class="cls-1" d="M391,110.59c0,.76,0,.84.16,1,.32.21,1.48.29,4.24.29H396c1.08,0,1.88,0,2.32,0h.28c1.48,0,2-.25,2.32-1,.24-.64.64-2.25,1.92-7.26l.52.08-.28,6.54v.4c0,.56.12.8.6,1,.73.25.93.45.93,1S404,113.6,403,113.8a42.4,42.4,0,0,1-6.44.32h-.68c-1.8,0-3.36,0-3.72,0-3.13,0-4-.56-4-2.69v-1.72c0-1,0-1.69,0-1.89v-5.9h-3.84a14.19,14.19,0,0,1-3.56,7.87,16.39,16.39,0,0,1-8.21,4.57c-1.2.28-2.12.48-4.28.81l-.16-.73a21.34,21.34,0,0,0,6.69-2.56,13.06,13.06,0,0,0,6.68-10h-3.2v1.29c0,.68-.32.8-2.12.8-.84,0-1-.08-1-.6.2-5.54.28-8.83.28-14.21,0-5.85,0-7.94-.24-10.31A19.81,19.81,0,0,1,378.67,81h15.77a16.27,16.27,0,0,1,1.76-1.85c1,.73,1.28,1,2.24,1.81.36.32.48.52.48.68s-.2.44-1.28,1.08v4.46c0,7.22,0,13.08.16,16,0,.6-.4.72-2.08.72-.72,0-.88-.08-.92-.52v-1.49H391ZM394.8,81.9H378.35v5.62H394.8Zm-16.45,6.54v5.62H394.8V88.44Zm0,6.54v6H394.8V95Z"/><path class="cls-1" d="M444.76,101.12c1-1.32,1.4-1.76,2.56-3.09,1.6,1.41,2.08,1.85,3.64,3.33a.84.84,0,0,1,.16.4c0,.16-.2.28-.48.28H434.19v4.7c0,1.72,0,2.89,0,5.42a2.28,2.28,0,0,1-1.44,2.28,8.68,8.68,0,0,1-3.48.89c-.44-2.17-.68-2.29-6.29-3.17v-.61c3.05.25,3.33.25,7.57.45.52,0,.64-.12.64-.57V102H417.82a26.86,26.86,0,0,0-3.28.17l-.24-1.41a16.44,16.44,0,0,0,3.44.32h13.49v-.68c0-.8,0-1-.08-3.29.8.12,1.8.28,3,.52a25.17,25.17,0,0,0,4.24-4.81h-14a17.78,17.78,0,0,0-2.89.2l-.24-1.41a17,17,0,0,0,3.09.28h14.36c.77-.8,1-1,1.77-1.8,1.24.92,1.64,1.2,2.8,2.12.36.28.52.49.52.69,0,.36-.48.52-2,.64a44.19,44.19,0,0,1-6.53,4.33c.36.12.52.24.52.44s-.4.48-1.56.73v2Zm.6-14.16c.84-.93,1.08-1.21,2-2,1.44,1,1.88,1.24,3.28,2.33.4.28.56.48.56.68,0,.48-.68.72-2.48.76-.8.85-.8.85-2,2.21-.76.84-.76.84-1.6,1.68l-.4-.16a23.53,23.53,0,0,0,1.12-4.53H419.66c-.24,2.57-.72,4.05-1.76,5.34a2.81,2.81,0,0,1-1.76,1.24c-.28,0-.56-.2-.72-.64a4.85,4.85,0,0,1-.44-1.65c0-.56.2-.84,1.2-1.6,1.6-1.21,2.4-2.93,2.8-5.9h.76c0,1.2,0,1.44,0,2.29h18.09a35,35,0,0,0,4.33-8c3.8,1.49,4.2,1.69,4.2,2s-.48.6-1.12.6c-.2,0-.56,0-.88,0A46.19,46.19,0,0,1,438.79,87ZM421.9,79.41a27,27,0,0,1,3.81,2.85,2.34,2.34,0,0,1,1,1.69,4.35,4.35,0,0,1-.84,2.29.76.76,0,0,1-.6.32c-.4,0-.56-.24-1-1.37a19.79,19.79,0,0,0-2.77-5.46Zm8.17-.92c3.44,2.53,4.88,4,4.88,5.06a5.17,5.17,0,0,1-.76,2.2,1,1,0,0,1-.84.53c-.48,0-.6-.21-1-1.65a15.16,15.16,0,0,0-2.72-5.78Z"/><path class="cls-1" d="M471.5,113.28a21,21,0,0,0,7.69-8.19c1.44-3,2-6.46,2.24-12.88a62.84,62.84,0,0,0-8.93,1.21v1.36c0,.16,0,1.73.08,4.58,0,.12,0,.68,0,1.52a7.86,7.86,0,0,1,.05,1c0,1.45-.37,2.21-1.05,2.21s-2-2-2-3.21a1.79,1.79,0,0,1,.2-.8,7.59,7.59,0,0,0,.44-1.93c0-.4.12-1.84.16-4.29a20.08,20.08,0,0,0-5.16,1.56,4.19,4.19,0,0,1-1.48.45c-1.24,0-3.6-2.77-3.6-4.26a.92.92,0,0,1,.12-.36c1.16,1.32,2.12,1.89,3.28,1.89.44,0,1.64-.16,2.8-.32s1.08-.16,2.64-.45c.8-.16.8-.16,1.32-.24a26.1,26.1,0,0,0-.56-5.41,3.74,3.74,0,0,0-1.32-1.85c-.12-.08-.48-.28-1.12-.64a.94.94,0,0,1,.88-.32,7.55,7.55,0,0,1,3.4,1.24c1,.56,1.41,1.17,1.41,1.85a3.57,3.57,0,0,1-.16.88,15.89,15.89,0,0,0-.37,3.93c3.41-.48,3.41-.48,9-1.08,0-1,0-1.16,0-2.57,0-3.17-.16-4.41-.68-5.09a4.59,4.59,0,0,0-2.72-1.49,2.9,2.9,0,0,1,1.56-.44,10.3,10.3,0,0,1,3.8.92c.92.4,1.4,1,1.4,1.57a1.77,1.77,0,0,1-.2.72,20.7,20.7,0,0,0-.76,6.14c3.08-.24,3.8-.4,4.85-.84a2.22,2.22,0,0,1,1.12-.29c1.32,0,3.6,1.53,3.6,2.37a.78.78,0,0,1-.84.72,5.13,5.13,0,0,1-.72,0,43.08,43.08,0,0,0-4.69-.32h-1.48c-1.28,0-1.28,0-1.88,0-.24,7.55-1,11.12-2.76,14.13a20.38,20.38,0,0,1-9.21,7.58Z"/><path class="cls-1" d="M506.89,94.66c1,.76,1.77,1,3.89,1,.44,0,.44,0,4.92-.12,1.56,0,14.29-.24,15.61-.24,3.6,0,4.48.08,5.2.36a.85.85,0,0,1,.56.81,1.17,1.17,0,0,1-.92,1.08c-1.08.36-2,.4-9.6.48-3.72,0-12.89.28-14.29.36-1.88.12-2.24.16-2.88.52a3.22,3.22,0,0,1-.6.13c-.6,0-1.24-.45-1.93-1.33A7.22,7.22,0,0,1,505.33,94c0-.56,0-.64.32-.92A3.59,3.59,0,0,0,506.89,94.66Z"/><path class="cls-1" d="M552,83.79a10.42,10.42,0,0,1,4,1.12c.93.52,1.37,1,1.37,1.69a2.22,2.22,0,0,1-.2.88c-.57,1.28-.85,3-1.13,6.54a2.55,2.55,0,0,0,1.89.56,32.41,32.41,0,0,0,7.72-1.52,13.13,13.13,0,0,0,3.92-1.73,2,2,0,0,1,.88-.32c1.16,0,3.09,1.24,3.09,2,0,.6-.52.92-1.93,1.24a64.57,64.57,0,0,1-12.44,1.85,5.07,5.07,0,0,1-3.21-1c-.2,4.34-.24,5.94-.24,6.86,0,4.86,1.08,6,5.61,6a28.92,28.92,0,0,0,9.44-1.36,4,4,0,0,1,1.2-.24c1,0,2.73,1.36,2.73,2.2,0,.57-.4.89-1.4,1.09a59.68,59.68,0,0,1-9.21.68c-5.16,0-7.6-.76-9.09-2.85a8.56,8.56,0,0,1-1.36-4.65c0-1-.08-2.77-.08-5.82V95.06c0-1.8,0-2.93,0-3.61,0-3.53-.12-4.65-.48-5.42a4.19,4.19,0,0,0-2.72-1.88A2.16,2.16,0,0,1,552,83.79Zm17.93-1.05a18,18,0,0,1,5.69,3.05,2.66,2.66,0,0,1,.92,2.29c0,1-.32,1.73-.84,1.73-.32,0-.64-.28-1-.89a18.6,18.6,0,0,0-5.13-5.69Zm3.49-2.88a18,18,0,0,1,5.44,2.44c1,.77,1.32,1.25,1.32,2.17,0,1.16-.4,2-.92,2-.36,0-.52-.12-1.12-1.13-1-1.64-2.36-3-5-5Z"/><path class="cls-1" d="M590.12,110.63a57.69,57.69,0,0,0,10.77-8.79,71.71,71.71,0,0,0,7.65-10,26.93,26.93,0,0,0,2.72-5.17,42.75,42.75,0,0,0-8.45,1.76,19.8,19.8,0,0,0-3.36,1.09,1.87,1.87,0,0,1-.68.12c-.88,0-1.72-.73-2.6-2.29a5,5,0,0,1-.84-2.41,1.59,1.59,0,0,1,.28-.8c1.16,2.09,2,2.69,3.76,2.69a62.6,62.6,0,0,0,8.41-1.13,10.37,10.37,0,0,0,3.76-1.12,1.59,1.59,0,0,1,.92-.36c.84,0,3.12,2,3.12,2.81a.93.93,0,0,1-.52.76c-.84.56-.84.56-2.28,2.73-1.92,2.89-1.92,2.89-5,7,5.64,3,8.8,5,10.36,6.78a5.34,5.34,0,0,1,1.52,4c0,1.29-.4,2.09-1.08,2.09a1.26,1.26,0,0,1-.92-.64,11.75,11.75,0,0,1-1-1.61,34.37,34.37,0,0,0-9.52-9.83,43.67,43.67,0,0,1-9.69,9,34.87,34.87,0,0,1-7,3.93Z"/><path class="cls-1" d="M634.92,90.65v24c0,.57-.4.69-2.12.69-.48,0-.68-.12-.68-.49.2-5.25.24-11,.24-26.08,0-4.41,0-7-.12-10.35a19.47,19.47,0,0,1,3.16,1.73h7.89c.64-.85.84-1.09,1.44-1.93,1,.72,1.36.92,2.32,1.69.28.24.36.4.36.56s-.28.48-1.28,1v2c0,1.44,0,2.56.12,8.5,0,.32-.08.4-.4.48a7.37,7.37,0,0,1-1.56.17c-.48,0-.68-.17-.68-.49V90.65Zm8.69-9.59h-8.69v3.77h8.69Zm0,4.69h-8.69v4h8.69Zm10.28,16.54h2.2c.8-1.05,1.08-1.33,1.88-2.29,1.29,1.16,1.73,1.56,3,2.81a.57.57,0,0,1,.08.24c0,.08-.12.16-.24.16h-7v2c0,3,0,4.14.12,7.87v.12c0,.44-.6.64-2,.64-.44,0-.68-.16-.68-.48v-.12c0-1.16,0-3.81.08-7.86v-2.21h-5.64c-.4,3.29-1,5-2.45,6.82a14.32,14.32,0,0,1-6.24,4.49l-.4-.48a13.84,13.84,0,0,0,5.64-5.9c.65-1.32.84-2.2,1.08-4.93h-2.76a18.49,18.49,0,0,0-3.24.24l-.36-1.49a14.2,14.2,0,0,0,3.6.33h2.85c.08-1.41.12-2.65.12-3.82,0-.92,0-1.12,0-2h-2.29a15.86,15.86,0,0,0-3,.2L638,95.14a11.72,11.72,0,0,0,3.32.36h13.53c.84-1,1.08-1.32,1.84-2.32,1.4,1.16,1.84,1.56,3.17,2.77a.53.53,0,0,1,.12.28c0,.08-.16.2-.28.2h-5.81Zm-7.84-5.86v1.84c0,1.45,0,2.37-.16,4h5.56V96.43Zm7.84-5.78V92c0,.32-.12.44-.36.52a13.57,13.57,0,0,1-1.64.13c-.52,0-.68-.13-.68-.53.12-2.89.12-3.69.12-6.78,0-4.13,0-5.09-.16-6.9a27.73,27.73,0,0,1,2.92,1.73h8c.72-.85.92-1.13,1.64-2,1,.72,1.28.92,2.32,1.6.36.29.52.45.52.61s-.2.44-1.12,1.08v18.66l.08,12a2.25,2.25,0,0,1-1.4,2.12,8.91,8.91,0,0,1-3.32,1c-.2-1.85-.84-2.21-4.73-2.85v-.6c4,.12,4,.12,4.77.12h1.32c.44,0,.44-.08.44-.89V90.65Zm8.73-9.59h-8.73v3.77h8.73Zm0,4.69h-8.73v4h8.73Z"/><path class="cls-1" d="M687.68,87.76A19.84,19.84,0,0,1,689,86c1.08.65,1.4.85,2.44,1.57.28.24.44.44.44.6,0,.36-.4.72-1.28,1.12-.88,6.91-2,11-4,15,3.84,2.45,4.4,3,4.4,4.42s-.56,2.52-1.12,2.52c-.2,0-.44-.24-.8-.76a22.16,22.16,0,0,0-3.44-4.45,30.38,30.38,0,0,1-9.21,9.19l-.52-.69A32.71,32.71,0,0,0,684,104.41a35.31,35.31,0,0,0-3.2-2.61c-.24.73-.32,1-.56,1.85-.16.36-.36.44-.8.44-1.52,0-2-.12-2-.44a.64.64,0,0,1,.12-.32,114.86,114.86,0,0,0,3.69-14.65h-.84a15.51,15.51,0,0,0-3.65.24l-.32-1.52a21.8,21.8,0,0,0,4,.36h1c.64-3.41,1-6.14,1.32-9,4.16.68,4.28.72,4.28,1.17s-.6.68-1.8.88c-.48,3.17-.72,4.41-1.24,7Zm-3.84.92c-.76,3.69-2.24,10.07-2.84,12.44a35.37,35.37,0,0,1,3.64,1.93A42.81,42.81,0,0,0,688,88.68ZM703.77,84a38.06,38.06,0,0,1,7.37,6.42c1.24,1.4,1.84,2.57,1.84,3.49,0,1.4-.84,3.21-1.48,3.21a.75.75,0,0,1-.64-.48,19,19,0,0,1-1-2.33c-.28-.72-.52-1.24-.92-2.05-1.57.36-2.29.53-5.25,1.05-5.52,1-5.52,1-10.64,1.68-.29,1-.49,1.45-.81,1.45s-.56-.48-1.16-4.26c1.52,0,2,0,2.73,0h.52a46.05,46.05,0,0,0,2.36-6c1.4-4.21,1.76-5.53,2-7.62,1.92.32,3.84.72,4.36.88.36.12.52.28.52.49s0,.32-2,.92c-.52,1-.52,1-2.2,4.41a67.31,67.31,0,0,1-4,6.9c7-.28,9.08-.44,13-.92a37.51,37.51,0,0,0-5.13-6.86Zm3,15.49a14.11,14.11,0,0,1,1.6-1.85,18.55,18.55,0,0,1,2.29,1.77c.4.32.56.52.56.68s-.4.64-1.24,1.08c0,3.49,0,3.49,0,4,0,.81.08,3.94.2,9.35,0,.53-.4.73-1.48.73-.41,0-.69,0-.69,0h-.12c-.48,0-.64-.12-.68-.49v-2.48H696.33v2.16c0,.36-.12.48-.36.57a9,9,0,0,1-1.72.16c-.56,0-.76-.12-.76-.49v-.12c.16-4.89.2-7.38.2-11.15a40,40,0,0,0-.2-5.78,23.92,23.92,0,0,1,3.16,1.85Zm-10.44,11.87h10.84v-11H696.33Z"/><path class="cls-1" d="M736,109.15a2.68,2.68,0,1,1-2.68-2.69A2.59,2.59,0,0,1,736,109.15Zm-3.4-6.06a173.6,173.6,0,0,0-1.4-18.66,6.18,6.18,0,0,1-.16-1.36c0-.93.8-1.41,2.28-1.41s2.32.44,2.32,1.45a9.39,9.39,0,0,1-.12,1.32c-.6,3.77-1.32,13.28-1.48,18.66Z"/><path class="cls-1" d="M32.62,154.54a17.66,17.66,0,0,1,1.72-2c1.12.89,1.44,1.13,2.44,2,.28.28.41.44.41.64s-.33.56-1.33,1.05v7.3c0,13.92,0,14.44.28,20.82,0,.37-.12.49-.4.57a9.87,9.87,0,0,1-2.2.28c-.32,0-.44-.12-.44-.48v-2.93H14.45v2.69a.48.48,0,0,1-.4.52c-.2,0-1.36.12-1.8.12s-.76-.12-.76-.48v-.08c.12-4.86.2-11.16.2-15.49,0-9.79,0-14.45-.16-16.78,1.52.93,2,1.25,3.48,2.29h4.36a25.58,25.58,0,0,0,2-6.82c4.61,1.2,4.73,1.24,4.73,1.64s-.36.49-1.84.81c-.44.52-.76,1-1,1.2a22.49,22.49,0,0,1-2.69,3.17Zm.48,8.31v-7.39H14.45v7.39Zm-18.65.92v7.82H33.1v-7.82Zm0,8.75v8.3H33.1v-8.3Z"/><path class="cls-1" d="M54.48,182.83v1.56c0,.33-.08.49-.32.57a11.94,11.94,0,0,1-2,.2.5.5,0,0,1-.56-.44c.12-8.75.12-8.79.12-12.88,0-12.12,0-13-.12-14.89,1.48.8,2,1,3.4,1.92h9.73v-5.45a24.54,24.54,0,0,0-.24-4.9c4,.52,4.72.72,4.72,1.13s-.64.72-1.88,1.12v8.1H78A23.38,23.38,0,0,1,79.58,157c1.16.84,1.48,1.12,2.56,1.92.24.25.32.37.32.49s-.32.52-1.4,1.12c0,16.45,0,16.45.16,23.91v.17a.57.57,0,0,1-.4.6,11,11,0,0,1-2,.2c-.44,0-.6-.16-.6-.64v-1.89Zm10.25-23H54.48v10.11H64.73Zm0,10.95H54.48V182H64.73ZM78.26,159.8H67.33v10.07H78.26Zm0,10.95H67.33V182H78.26Z"/><path class="cls-1" d="M102.24,167.5c-.08.36-.68,2.89-1.8,7.55a15.79,15.79,0,0,0-.68,4.25,5.84,5.84,0,0,1-.12,1.72,1,1,0,0,1-1,.69c-.68,0-1.28-.57-1.72-1.65a23.88,23.88,0,0,1-1.4-8.55,36.35,36.35,0,0,1,.32-4.29,61.25,61.25,0,0,1,1.4-7.58,18.89,18.89,0,0,0,.56-3.73,7.18,7.18,0,0,0-1.12-3.78c.88,0,1.6.57,2.68,2a5.42,5.42,0,0,1,1.48,3.17c0,.64,0,.8-.84,2.41a34,34,0,0,0-2.16,6.38,22,22,0,0,0-.52,5,15.28,15.28,0,0,0,.76,5.3,31.8,31.8,0,0,0,1.44-3.41l2.12-5.62Zm5.05,2a15.56,15.56,0,0,0-.12,1.68c0,4.42,2.52,6.22,8.72,6.22a18.88,18.88,0,0,0,3.4-.28,6.23,6.23,0,0,0,2.12-.64,2,2,0,0,1,.6-.12,3.08,3.08,0,0,1,2.53,2.37c0,.48-.32.8-.88,1a20.21,20.21,0,0,1-5,.44c-5,0-8.56-.84-10.36-2.45a6.64,6.64,0,0,1-2.17-5.21,10.86,10.86,0,0,1,.48-3.17Zm-.08-12.76a6.26,6.26,0,0,0,3.72,1.08,21.24,21.24,0,0,0,8-1.8c.52-.28.6-.33.88-.33a3.08,3.08,0,0,1,1.4.57c.84.48,1.25,1,1.25,1.48s-.29.76-1.13.92a23.33,23.33,0,0,0-5.68,1.41,39.8,39.8,0,0,0-5.16,2.85l-.4-.4c1.8-1.53,3.16-2.65,3.8-3.13-.84,0-1.28.08-1.64.08a7.09,7.09,0,0,1-5.45-2.25Z"/><path class="cls-1" d="M162.29,153.7c1-1.17,1.36-1.53,2.4-2.65,1.48,1.24,2,1.65,3.4,3,.16.16.2.24.2.32s-.2.28-.52.28H144.16A38.65,38.65,0,0,1,135,165.5l-.4-.45a40,40,0,0,0,7-11,29.49,29.49,0,0,0,1.88-5.3c1.72.36,3.72.85,4.24,1.05.32.12.44.24.44.4,0,.4-.48.6-1.88.84-.68,1.2-.84,1.48-1.56,2.69Zm-20.57,14.12a55.79,55.79,0,0,1,8.28,4.94,30.33,30.33,0,0,0,4.44-6.82c3.45,1.64,3.81,1.88,3.81,2.16s-.36.45-.8.45a6.42,6.42,0,0,1-.84,0c-2.77,3.49-3.49,4.33-4.69,5.65,5.21,3.9,6,4.78,6,6.58,0,1.25-.28,2-.76,2-.32,0-.6-.24-1.09-.92a41.11,41.11,0,0,0-5.64-6.14,37.68,37.68,0,0,1-6,4.57,36,36,0,0,1-8.13,3.73l-.32-.6a39.93,39.93,0,0,0,12.73-9.19c-.52-.44-.52-.44-7.32-5.82ZM139,163.53a31.47,31.47,0,0,0,4.57.28h17.45c.56-.76.76-1,1.4-1.81,1,.77,1.28,1,2.24,1.81.36.28.48.44.48.56s-.44.68-1.32,1.21c0,1-.08,1.72-.08,2.16a24.93,24.93,0,0,0,1.12,7.55,8.91,8.91,0,0,0,2.76,4.25,65.17,65.17,0,0,0,2.28-6.9l.6.16-.72,6.1c-.12,1-.16,1.52-.16,1.56,0,.4.08.52.64,1.13a1.76,1.76,0,0,1,.56,1.2,1.16,1.16,0,0,1-1.16,1.16c-1,0-2.88-1.24-4.4-3a14.82,14.82,0,0,1-3.36-7.14,36.23,36.23,0,0,1-.68-7.22c0-.4,0-1,0-1.85H143.6a37,37,0,0,0-4.33.2Zm4.41-5.14a23.48,23.48,0,0,0,3.56.32h12c1-1,1.24-1.36,2.28-2.36a37.54,37.54,0,0,1,3.44,2.69c.16.16.2.24.2.32s-.16.28-.48.28H146.84c-.28,0-1.36,0-3.24.16Z"/><path class="cls-1" d="M190.23,172v4.57h3.29c.92-1,1.24-1.28,2.2-2.25,1.2,1.13,1.56,1.45,2.8,2.57a1.14,1.14,0,0,1,.16.32c0,.16-.16.28-.4.28h-8.05c0,5.62,0,5.62.08,7.31,0,.52-.36.64-1.8.64-.52,0-.64-.08-.76-.4.08-1.13.12-3.65.16-7.55h-4.6a14.92,14.92,0,0,0-3.08.32l-.24-1.64a12.39,12.39,0,0,0,3.32.4h4.6V172h-3.44v1.64c-.08.4-.32.48-1.2.52-.32,0-.52,0-.68,0h0a.43.43,0,0,1-.48-.36c.12-3.29.12-3.29.12-12.72,0-1.44,0-2.25-.12-3.73a22,22,0,0,1,2.88,1.56h3v-4.09h-4.12a7.62,7.62,0,0,0-2.76.24l-.24-1.52a13.4,13.4,0,0,0,3,.36h4.12v-1.37a35,35,0,0,0-.12-3.89c3.81.48,4.17.56,4.17,1s-.44.56-1.73.84v3.45h2.85c.88-1,1.12-1.28,2-2.21,1.32,1.09,1.72,1.41,3,2.53q.24.24.24.36c0,.12-.2.24-.36.24h-7.65v4.09h3.29l1.52-1.52c.8.68,1,.88,1.88,1.52.48.41.52.49.52.65s-.08.32-1.36,1v5.3c0,3.57,0,4.25.12,7.14,0,.28-.12.4-.36.48a13.67,13.67,0,0,1-1.56.2c-.32,0-.44-.12-.48-.44V172Zm-2.32-12.12h-3.44v5h3.44Zm0,5.9h-3.44V171h3.44Zm5.85-5.9h-3.53v5h3.53Zm0,5.9h-3.57V171h3.57Zm11.12,4.41c0-1.48,0-2.17-.16-3.69,3.89.44,4.49.6,4.49,1s-.24.44-1.72.88v4.74h3.76c.92-1.16,1.2-1.53,2.12-2.61,1.44,1.25,1.88,1.61,3.24,2.85.2.16.28.28.28.4s-.2.28-.44.28h-8.92v8.43h4.6c1-1.29,1.36-1.65,2.44-2.89,1.4,1.36,1.84,1.77,3.2,3.21a.66.66,0,0,1,.2.36c0,.12-.16.24-.36.24H198.08a10.36,10.36,0,0,0-2.68.28l-.24-1.56a10.08,10.08,0,0,0,2.92.36h6.84V174H200.2a6.31,6.31,0,0,0-2.24.32l-.28-1.56a10.61,10.61,0,0,0,2.52.32h4.72Zm6.45-18.46a23.9,23.9,0,0,1,1.72-1.76c1,.84,1.36,1.08,2.36,1.84.36.28.48.48.48.64,0,.33-.24.45-1.72.89a29.16,29.16,0,0,1-6,7.86c3,1.93,5.4,2.81,9.84,3.65v.61a2.8,2.8,0,0,0-2.32,2.24,29.93,29.93,0,0,1-9.08-5.17,41.3,41.3,0,0,1-9.33,5.65l-.4-.64c5.2-3.25,6.24-4,8.52-6.18a22.5,22.5,0,0,1-5.16-8.7,8.31,8.31,0,0,0-2.68.32l-.28-1.61a7.9,7.9,0,0,0,2.84.36Zm-10.33.93c2.56,4.57,3.36,5.61,5.65,7.46a23.81,23.81,0,0,0,5-7.46Z"/><path class="cls-1" d="M236.11,167.5c-.08.36-.68,2.89-1.8,7.55a15.79,15.79,0,0,0-.68,4.25,5.84,5.84,0,0,1-.12,1.72,1,1,0,0,1-1,.69c-.68,0-1.28-.57-1.72-1.65a23.88,23.88,0,0,1-1.4-8.55,36.35,36.35,0,0,1,.32-4.29,61.25,61.25,0,0,1,1.4-7.58,18.89,18.89,0,0,0,.56-3.73,7.18,7.18,0,0,0-1.12-3.78c.88,0,1.6.57,2.68,2a5.42,5.42,0,0,1,1.48,3.17c0,.64,0,.8-.84,2.41a34,34,0,0,0-2.16,6.38,22,22,0,0,0-.52,5,15.28,15.28,0,0,0,.76,5.3,31.8,31.8,0,0,0,1.44-3.41l2.12-5.62Zm5,2a15.56,15.56,0,0,0-.12,1.68c0,4.42,2.53,6.22,8.73,6.22a18.88,18.88,0,0,0,3.4-.28,6.23,6.23,0,0,0,2.12-.64,2,2,0,0,1,.6-.12,3.08,3.08,0,0,1,2.53,2.37c0,.48-.32.8-.88,1a20.21,20.21,0,0,1-5,.44c-5,0-8.56-.84-10.36-2.45a6.64,6.64,0,0,1-2.17-5.21,10.86,10.86,0,0,1,.48-3.17Zm-.08-12.76a6.31,6.31,0,0,0,3.73,1.08,21.24,21.24,0,0,0,8-1.8c.52-.28.6-.33.88-.33a3.08,3.08,0,0,1,1.4.57c.84.48,1.24,1,1.24,1.48s-.28.76-1.12.92a23.33,23.33,0,0,0-5.68,1.41,39.8,39.8,0,0,0-5.16,2.85l-.4-.4c1.8-1.53,3.16-2.65,3.8-3.13-.84,0-1.28.08-1.64.08a7.09,7.09,0,0,1-5.45-2.25Z"/><path class="cls-1" d="M269.62,176a36.31,36.31,0,0,1,7.81,3.85c1.56,1.16,2.12,2.09,2.12,3.53,0,1.29-.76,2.65-1.44,2.65a1.31,1.31,0,0,1-.56-.24c-.28-.24-.28-.24-2-2.89a31.6,31.6,0,0,0-6.17-6.38Z"/><path class="cls-1" d="M294.64,182.75a44.09,44.09,0,0,0,2.8-12.48c3.45.72,3.73.8,3.73,1.12s-.32.49-1.4.69A29.24,29.24,0,0,1,295.2,183ZM296.76,168c-.32,1.33-.36,1.49-.68,1.49s-.44,0-1.16-3.73c.68,0,1.2.08,1.56.08s.52,0,2.28-.08a52.65,52.65,0,0,0,3.25-4.62,44.72,44.72,0,0,0,4-7.3c2.76,1.28,3.52,1.72,3.52,2.05s-.36.44-1.08.44a3.69,3.69,0,0,1-.6,0,69.94,69.94,0,0,1-7.76,9.39,61.57,61.57,0,0,0,6.84-.49,13.67,13.67,0,0,0-1.44-3.08l.36-.33c2.08,1.61,3.92,4,3.92,5S309,169,308.37,169c-.32,0-.4-.12-.68-1.41-.08-.4-.2-.68-.52-1.72l-3,.64v8.67c0,1.84,0,5,.08,9.47,0,.32-.12.44-.32.52a10.18,10.18,0,0,1-2,.16c-.32,0-.48-.12-.52-.44.12-2.81.16-6.46.16-9.71V167Zm-1-13.16c1.2.68,1.64.93,2.6,1.57a28.86,28.86,0,0,0,3.13-8c3.6,1.17,4,1.37,4,1.77s-.36.48-1.6.52a52.4,52.4,0,0,1-4.93,6.14c1.61,1.12,2.13,1.72,2.13,2.53,0,1-.52,2.12-1,2.12-.32,0-.49-.16-1-1.24a29.35,29.35,0,0,0-3.68-5Zm9.73,15.33c2.2,2.65,3.4,4.69,3.4,5.82s-.92,2.73-1.56,2.73c-.36,0-.44-.16-.6-1.57a30.53,30.53,0,0,0-1.6-6.78Zm21.33-13.32c.68-.8.88-1,1.6-1.81,1,.77,1.32,1,2.17,1.65.36.32.52.48.52.68s-.32.56-1.29,1.12v13.69c0,1.64,0,2.32.08,9.11,0,1.24-.24,1.72-1,2.24a7.83,7.83,0,0,1-3.16,1.17c-.24-1.13-.48-1.49-1.28-1.81a15,15,0,0,0-4.44-1v-.56c3.88.16,4.12.16,6.6.2h.2a.4.4,0,0,0,.44-.45V157.75h-6.36a37.83,37.83,0,0,1-.6,5.22,28.87,28.87,0,0,1,4.28,4.69c1.56,2,1.76,2.37,1.76,3.09,0,1.09-1,2.65-1.64,2.65-.24,0-.44-.24-.52-.76a23.92,23.92,0,0,0-4.08-8.79,22,22,0,0,1-1.36,4.09,15.85,15.85,0,0,1-4.93,6.66l-.36-.44a21.5,21.5,0,0,0,4.25-9.59,40.87,40.87,0,0,0,.72-6.82H313v26.93c-.12.44-.32.56-1.28.6-.36,0-.6,0-.72,0h-.08c-.36,0-.52-.12-.56-.48,0-4.5.12-14.17.12-17.18,0-10.71,0-10.71-.12-12.8a14.71,14.71,0,0,1,3.12,2h5c0-1.33.08-4.09.08-4.94a21.66,21.66,0,0,0-.2-3.13c4,.44,4.4.56,4.4,1s-.44.56-1.56.88c-.16,4.45-.16,4.45-.24,6.22Z"/><path class="cls-1" d="M345.76,166.78a29.83,29.83,0,0,1-5.12,4.69l-.52-.56a32.27,32.27,0,0,0,6-8,29.74,29.74,0,0,0,2.52-5.58c.85.28,1.49.56,1.89.72,1.6.56,2,.84,2,1.21s-.56.56-1.64.6c-1.77,2.61-2.53,3.69-3.85,5.37,2.21.29,2.57.41,2.57.77s-.32.48-1.25.68v8.79c0,1.52,0,1.52,0,6.34v2.6c0,.33-.08.45-.36.53a6.25,6.25,0,0,1-1.68.16c-.64,0-.76-.08-.76-.44.12-7.63.12-7.63.12-8.71Zm-5.12-7.3a30.81,30.81,0,0,0,5.32-6.26,25.23,25.23,0,0,0,2.44-4.7c3.89,1.49,4.17,1.65,4.17,2s-.36.52-2,.64c-3.69,4.66-5.49,6.3-9.53,8.79Zm13.17,7.66c-.48,0-.8,0-2.44.16l-.36-1.4a13.78,13.78,0,0,0,3.12.32H371.3c1-1.13,1.28-1.49,2.28-2.53,1.4,1.2,1.84,1.56,3.24,2.85a.79.79,0,0,1,.16.32c0,.2-.16.28-.6.28h-6.2v4.33h2c1.08-1.12,1.4-1.48,2.4-2.56,1.48,1.24,2,1.64,3.4,3a1.1,1.1,0,0,1,.16.28c0,.12-.16.24-.4.24h-7.6v4.09c0,.32,0,1.28,0,2.73,0,.56,0,1.48,0,2.61s-.2,1.64-1,2.08a10.23,10.23,0,0,1-3.72,1.05,2.37,2.37,0,0,0-1.45-2.09,11.41,11.41,0,0,0-2.32-.52l-2.72-.44v-.44c3.64.2,4.8.2,8,.24.4,0,.48-.12.48-.61v-8.7H354.21a17.69,17.69,0,0,0-3.64.28l-.36-1.57a20.58,20.58,0,0,0,4.28.36h13.05v-4.33Zm3.72-3.45c0,.28-.08.4-.32.48a8.37,8.37,0,0,1-1.64.16c-.6,0-.8-.12-.8-.4v-.24A64.8,64.8,0,0,0,355,157c0-4.58,0-5.54-.2-7.79a26.4,26.4,0,0,1,3.36,1.93h10.41c.72-.88.92-1.12,1.64-1.93,1.08.73,1.4,1,2.44,1.73.36.28.52.48.52.6,0,.28,0,.28-1.44,1v3.22c0,2.36,0,4.13.08,7.42a.68.68,0,0,1,0,.28.42.42,0,0,1-.2.36,7.64,7.64,0,0,1-1.92.32c-.36,0-.48-.12-.52-.48v-1.2H357.53Zm-1.72,9.43a21.77,21.77,0,0,1,5,3.17,2.26,2.26,0,0,1,.64,1.64c0,1.33-.52,2.57-1.12,2.57-.32,0-.44-.16-.88-1a19.46,19.46,0,0,0-4-6Zm13.37-21H357.53v4.06h11.65Zm-11.65,5v4.49h11.65v-4.49Z"/><path class="cls-1" d="M401.41,166.3c-2.93,6.74-3.77,9.11-3.77,10.71a4.89,4.89,0,0,0,.24,1.37,3.5,3.5,0,0,1,.08.64.94.94,0,0,1-.88,1c-1.12,0-3.16-1.56-4.4-3.41a18.43,18.43,0,0,1-2.72-8,45.67,45.67,0,0,1-.28-7.07c0-3.73-.32-4.65-2-6.9H388c.64,0,1.8.76,3,2a4.82,4.82,0,0,1,1.8,3.17,6.82,6.82,0,0,1-.12,1,31.46,31.46,0,0,0-.72,6,17.25,17.25,0,0,0,.92,5.82,5.84,5.84,0,0,0,2.08,3.13c.44-.64.44-.64,1.32-2.13,1.28-2.17,1.28-2.17,3.37-5.66.64-1,.64-1,1.16-1.92Zm8.52-7.26c5.05,1.12,9.05,6.46,9.05,12,0,1.93-.8,3.17-2,3.17a1.93,1.93,0,0,1-1.2-.44c-.52-.36-1.29-.48-3-.48-.92,0-1.68,0-3,.08l-.12-.6c3.24-.88,5-1.41,5.41-1.53.8-.28.92-.44.92-1.2a14.49,14.49,0,0,0-1.25-5.26,11.08,11.08,0,0,0-5-5.25Z"/><path class="cls-1" d="M441.88,149.77a8.42,8.42,0,0,1,4.44,2.12,2.2,2.2,0,0,1,.88,1.61c0,.52-.2.76-2.32,2.49a97.37,97.37,0,0,0-7.36,6.94c-1.4,1.56-1.92,2.49-1.92,3.25a3.35,3.35,0,0,0,1.2,2.08,34.83,34.83,0,0,0,2.8,2.65c4.36,4.06,6.4,6.3,7.36,8.19a5.16,5.16,0,0,1,.6,2.65c0,1.52-.52,2.4-1.36,2.4-.52,0-.68-.2-1.36-1.64a37.79,37.79,0,0,0-3.36-5.66,73.17,73.17,0,0,0-5.84-7.26,5.21,5.21,0,0,1-1.53-3.37c0-1.29.64-2.37,3.09-5.38,4.84-5.9,6-7.58,6-8.55,0-.68-.52-1.28-2.2-2.36A1.86,1.86,0,0,1,441.88,149.77Z"/><path class="cls-1" d="M464.94,156.55c2.12,1.76,3.4,2.16,6.44,2.16a36.52,36.52,0,0,0,5.73-.48c-.16-6.14-.44-6.7-3.48-7.14.56-.56.88-.64,2-.64A11.16,11.16,0,0,1,479,151c1,.32,1.36.72,1.36,1.32,0,.24,0,.24-.52,1.37a13,13,0,0,0-.72,4.25c4-.76,6.12-1.44,7.44-2.37a1.14,1.14,0,0,1,.48-.16,5.11,5.11,0,0,1,2.09.69,1.2,1.2,0,0,1,.68,1c0,.56-.64.88-3.13,1.48a65.76,65.76,0,0,1-7.64,1.41c0,1,0,1.64,0,2.57s0,1.88,0,3.65a31.8,31.8,0,0,0,4.56-1.09,6.24,6.24,0,0,0,2-1,1,1,0,0,1,.6-.16,4.71,4.71,0,0,1,2.05.6.82.82,0,0,1,.48.76c0,.73-.56,1.05-3.09,1.73a43,43,0,0,1-6.52,1.16c.08,1.57.08,2.21.12,3.62s.12,2.12.24,3.13c3.68.68,7.2,2,8.81,3.45a3.45,3.45,0,0,1,1.16,2.64c0,.85-.36,1.41-.88,1.41s-.57-.12-1.61-1.12a22.21,22.21,0,0,0-3.36-2.49,14.05,14.05,0,0,0-4-1.69c.08.88.12,1.29.12,1.77a4,4,0,0,1-1.36,3.37,9,9,0,0,1-5.36,1.48c-4,0-6.77-1.76-6.77-4.29,0-2.85,3.72-4.86,9-4.86.64,0,1,0,2,0,0-1.92,0-2.2,0-2.76v-3.5c-1.6.08-2.36.12-3,.12-2.61,0-4.37-.28-5.33-.88a3.48,3.48,0,0,1-1.8-3.05c0-.28,0-.68.08-1.12l.6,0c0,1.24.24,1.8.84,2.29s2.36.88,4.69.88a32.94,32.94,0,0,0,3.88-.28v-2.81l-.08-2.93v-.48c-2.2.2-3.8.28-5.17.28-3.8,0-5.44-.76-7.44-3.45Zm8.89,19.74a12.47,12.47,0,0,0-4.37.76c-1.44.56-2.16,1.37-2.16,2.41,0,1.44,1.64,2.29,4.36,2.29a6.58,6.58,0,0,0,4.57-1.45,3.05,3.05,0,0,0,.88-2.08c0-.29.08-1.21.08-1.53v-.12A23.51,23.51,0,0,0,473.83,176.29Z"/><path class="cls-1" d="M503.65,158.35a2.27,2.27,0,0,0,1.8.69c1.12,0,2.13-.21,11.09-2.37,1.68-.44,3.84-.88,6.49-1.41a47.46,47.46,0,0,0,5.4-1.32,5,5,0,0,1,1.4-.32,5.34,5.34,0,0,1,2.16.84c.8.52,1.16,1,1.16,1.53s-.48,1-1.24,1a5.13,5.13,0,0,1-.72,0,5.87,5.87,0,0,0-1.12-.08c-6.84,0-13.45,6.54-13.45,13.28a8.2,8.2,0,0,0,5.28,7.95,12.64,12.64,0,0,0,4.09,1,2,2,0,0,1,1.68.64,3.26,3.26,0,0,1,1.2,1.93c0,.64-.6,1.12-1.44,1.12a16.47,16.47,0,0,1-8.17-2.89,10.68,10.68,0,0,1-4.64-9,14.89,14.89,0,0,1,4.36-9.79c1.6-1.76,3.16-2.85,6.53-4.61A64.05,64.05,0,0,0,514,159.28a44.67,44.67,0,0,0-6.4,2.56,2.64,2.64,0,0,1-1.61.57c-1,0-2.16-.93-3.08-2.37a5.74,5.74,0,0,1-1-2.69,1.74,1.74,0,0,1,.44-1.08A4.35,4.35,0,0,0,503.65,158.35Zm23.1,2.29a21.9,21.9,0,0,1,4,2.21,3.13,3.13,0,0,1,1.56,2.49c0,1.12-.44,2-1,2-.36,0-.44-.12-1.2-1.52a19.21,19.21,0,0,0-3.72-4.66Zm3.84-1.64a16.94,16.94,0,0,1,4,1.6,2.85,2.85,0,0,1,1.76,2.57c0,1.08-.4,1.92-1,1.92-.28,0-.52-.2-.8-.84a13.18,13.18,0,0,0-4.24-4.81Z"/><path class="cls-1" d="M544.53,169a55.33,55.33,0,0,0,6.52-12,42.73,42.73,0,0,0,2.52-8.31c4.09,1,4.93,1.25,4.93,1.61s-.36.52-2,.8a68.83,68.83,0,0,1-5,10.11c2.92.64,3.08.68,3.08.93s-.52.6-1.44.92v9.15c.08,4.29.08,4.29.08,7.46,0,2.61,0,2.61.12,4.78v.08a.49.49,0,0,1-.36.52,8,8,0,0,1-2,.2c-.48,0-.6-.12-.6-.52v-.08c.12-3,.12-3,.2-12.44v-9.47a37.5,37.5,0,0,1-5.44,6.54Zm16.17-15.09a22,22,0,0,0-3.28.24l-.24-1.53a29.12,29.12,0,0,0,3.52.37h15.49c1-1.37,1.36-1.77,2.48-3.09,1.52,1.36,2,1.8,3.44,3.33q.24.24.24.36c0,.16-.24.32-.48.32H578v17.29c0,3.21,0,3.29.12,6.62,0,2,0,2,.08,3.82v.28a2.24,2.24,0,0,1-1.08,2.12,7.28,7.28,0,0,1-3.56,1.17c-.36-1.37-.52-1.65-1.16-2a17.54,17.54,0,0,0-2.61-.64l-1.48-.28c-.48-.08-1-.2-1.44-.28l0-.52c5.69.24,5.69.24,7.57.24.6,0,.8-.16.8-.53V153.86Zm0,22.31c0,.36-.12.52-.4.6a8.83,8.83,0,0,1-1.68.16c-.48,0-.64-.12-.64-.48v-.12c.08-2.25.08-2.25.08-13,0-.6,0-2.09-.08-4.33,1.2.72,1.56.92,2.72,1.68h6.88a16.1,16.1,0,0,1,1.2-1.68c1,.72,1.36.92,2.32,1.68.36.28.48.44.48.56a.48.48,0,0,1-.2.36l-.44.32-.64.45V167c0,3,0,4.45.12,7.66,0,.53-.52.69-2,.69-.64,0-.76-.08-.76-.49v-1.72H560.7Zm0-4h6.92V161.56H560.7Z"/><path class="cls-1" d="M604.81,159.28a38.75,38.75,0,0,0-.12-4.14c3.29.2,4,.32,4,.69s-.48.6-1.28.88v2.57h7.84v-1.09a21.88,21.88,0,0,0-.12-3.05c3.48.2,4,.32,4,.69s-.36.52-1.2.8v2.65h3.2c.93-1.29,1.24-1.65,2.21-2.89,1.84,1.44,2.4,1.88,4.16,3.33a.44.44,0,0,1,.12.24c0,.12-.2.24-.44.24h-9.25c0,5.26,0,5.26,0,7.46,0,.36-.16.4-1,.52-.16,0-1,.08-1.12.08-.32,0-.48-.12-.52-.48v-1.4h-7.84v1.4c0,.32-.12.44-.32.52a10,10,0,0,1-1.89.25c-.36,0-.52-.13-.52-.41V168c.08-2.08.08-2.08.08-7.82h-6.68l0,3.53c-.16,6.3-1,10.71-2.84,15.13a20.54,20.54,0,0,1-3.52,5.82l-.48-.37a29.32,29.32,0,0,0,3.24-10.11,89.47,89.47,0,0,0,.72-9.39c.12-2.6.2-6.1.2-7.5s0-1.56-.12-4.21c-.08-1.45-.08-1.45-.12-2.65a25.48,25.48,0,0,1,3.44,2.17h10.33v-2.13a22.27,22.27,0,0,0-.16-2.33c3.64.24,4.88.44,4.88.92,0,.33-.4.57-1.72,1.09v2.45h9.6c1-1.33,1.29-1.73,2.37-3,1.76,1.36,2.32,1.8,4.16,3.25a2,2,0,0,1,.16.36c0,.2-.2.28-.64.28H598.25c0,2,0,2-.08,5.74Zm24.06,21.82c-1.64.53-2.08,1-2.88,3.13a33.57,33.57,0,0,1-14.09-5.13,40.55,40.55,0,0,1-6.89,3.41,41,41,0,0,1-10.2,2.57l-.24-.56a43.88,43.88,0,0,0,15.57-6.71,21.77,21.77,0,0,1-6-6.86h-1.6a21.67,21.67,0,0,0-3.52.2l-.28-1.52a17.87,17.87,0,0,0,3.8.4h14.85c.76-.72,1-.92,1.68-1.65,1.08.85,1.4,1.13,2.32,2,.4.36.57.6.57.76,0,.36-.57.61-1.77.77a28.29,28.29,0,0,1-6.52,6.05,34.84,34.84,0,0,0,7.68,2.09,36.74,36.74,0,0,0,7.49.6ZM605.09,171a19.14,19.14,0,0,0,6.41,5.9,26.33,26.33,0,0,0,5.84-5.9Zm2.37-5.49h7.84V160.2h-7.84Z"/><path class="cls-1" d="M639,158.35a2.28,2.28,0,0,0,1.81.69c1.12,0,2.12-.21,11.08-2.37,1.68-.44,3.84-.88,6.49-1.41a47.46,47.46,0,0,0,5.4-1.32,5,5,0,0,1,1.4-.32,5.34,5.34,0,0,1,2.16.84c.8.52,1.16,1,1.16,1.53s-.48,1-1.24,1a5.13,5.13,0,0,1-.72,0,5.87,5.87,0,0,0-1.12-.08c-6.84,0-13.45,6.54-13.45,13.28a8.2,8.2,0,0,0,5.29,7.95,12.53,12.53,0,0,0,4.08,1,2,2,0,0,1,1.68.64,3.26,3.26,0,0,1,1.2,1.93c0,.64-.6,1.12-1.44,1.12a16.51,16.51,0,0,1-8.17-2.89,10.68,10.68,0,0,1-4.64-9,14.89,14.89,0,0,1,4.36-9.79c1.6-1.76,3.17-2.85,6.53-4.61a64.26,64.26,0,0,0-11.49,2.81,44.67,44.67,0,0,0-6.4,2.56,2.6,2.6,0,0,1-1.6.57c-1,0-2.17-.93-3.09-2.37a5.74,5.74,0,0,1-1-2.69,1.74,1.74,0,0,1,.44-1.08A4.35,4.35,0,0,0,639,158.35Zm23.1,2.29a21.9,21.9,0,0,1,4,2.21,3.13,3.13,0,0,1,1.56,2.49c0,1.12-.44,2-1,2-.36,0-.44-.12-1.2-1.52a19.21,19.21,0,0,0-3.72-4.66Zm3.84-1.64a16.94,16.94,0,0,1,4,1.6,2.86,2.86,0,0,1,1.77,2.57c0,1.08-.41,1.92-1,1.92-.28,0-.52-.2-.8-.84a13.18,13.18,0,0,0-4.24-4.81Z"/><path class="cls-1" d="M683.72,155.66a8.65,8.65,0,0,0,2.76,2.89,12,12,0,0,0,4.69,1.73c1.12-5.58,1.24-6.18,1.24-7.14,0-1.37-.56-2.21-2.17-3.33a1.66,1.66,0,0,1,.69-.16,6.13,6.13,0,0,1,3,1.24,4.17,4.17,0,0,1,2.08,2.89,1.72,1.72,0,0,1-.52,1.16c-.68,1-1.12,2.05-2.2,5.58a2.9,2.9,0,0,1,1.6.88,2.29,2.29,0,0,1,.56,1.33c0,.52-.48.84-1.28.84a9.2,9.2,0,0,1-1.56-.2,46.67,46.67,0,0,0-1.6,7.42,11.09,11.09,0,0,0,2,.28.88.88,0,0,0,.32,0,2.64,2.64,0,0,1,.44,0,2.78,2.78,0,0,1,2.4,2.17c0,.56-.52.92-1.36.92a16.35,16.35,0,0,1-4.25-.72c-.08,1-.12,1.44-.12,2,0,4.09,2.29,6.38,6.33,6.38a7.78,7.78,0,0,0,6.32-2.73,6.78,6.78,0,0,0,1.32-4.09c0-3.34-2.24-7.11-6-10l.44-.52c5.92,3.65,8.45,7,8.45,11.08,0,4.85-4.17,8.54-9.73,8.54a9.14,9.14,0,0,1-5.44-1.64c-2.09-1.57-3.09-4-3.09-7.47,0-.48,0-1,.08-2a9.82,9.82,0,0,1-3.2-2.05,6,6,0,0,1-1.76-4,4.15,4.15,0,0,1,1.24-2.77,8.53,8.53,0,0,1,3.88-2.13,9.35,9.35,0,0,1-6-6Zm2.36,9a2.79,2.79,0,0,0-.88,2c0,1.68,1.36,2.93,4.12,3.77a66.36,66.36,0,0,1,1.2-7.3C688.2,163.21,687,163.65,686.08,164.61Z"/><path class="cls-1" d="M729.92,180.82a5.17,5.17,0,1,1-5.17-5.17A5.13,5.13,0,0,1,729.92,180.82Zm-9,0a3.92,3.92,0,0,0,3.88,3.9,3.9,3.9,0,1,0-3.88-3.9Z"/></svg>