<svg id="レイヤー_1" data-name="レイヤー 1" xmlns="http://www.w3.org/2000/svg" viewBox="0 0 718 186"><defs><style>.cls-1{fill:#221714;}</style></defs><title>名称未設定-2</title><path class="cls-1" d="M66.07,4.75C63.52,6.18,62.2,7.87,62.2,9.66c0,.82,0,.87,1.63,1.23a3,3,0,0,1,2.29,3,3.34,3.34,0,0,1-3.46,3.32c-2.25,0-3.88-1.94-3.88-4.6,0-3.78,2.35-7.2,6.27-9Zm10,0c-2.55,1.43-3.88,3.12-3.88,4.91,0,.82,0,.87,1.64,1.23a3,3,0,0,1,2.29,3,3.35,3.35,0,0,1-3.47,3.32c-2.24,0-3.87-1.94-3.87-4.6,0-3.78,2.34-7.2,6.27-9Z"/><path class="cls-1" d="M89.44,10.58a36.3,36.3,0,0,0,4.23.41h8.77c1.13-1.43,1.48-1.84,2.66-3.22A42.15,42.15,0,0,1,109,11.14a1.11,1.11,0,0,1,.31.61.5.5,0,0,1-.51.41H93.67a30,30,0,0,0-3.88.21Zm1.68-6.8a24.94,24.94,0,0,0,4.64.41h4.64A19.59,19.59,0,0,1,103.26.82a38.79,38.79,0,0,1,4.08,3.73,1.16,1.16,0,0,1,.2.46c0,.25-.25.36-.86.36H95.76c-1.27,0-2.24,0-4.33.15Zm.25,13.65a33.07,33.07,0,0,0,4.75.46h4.23a28.07,28.07,0,0,1,2.5-3c1.58,1.43,2,1.89,3.52,3.38a1.51,1.51,0,0,1,.1.41c0,.2-.2.35-.51.35H95.76c-1.07,0-2,.05-4,.16Zm0,6.85a18.29,18.29,0,0,0,4.75.46h4.23c1.12-1.38,1.48-1.74,2.6-3.07a34.26,34.26,0,0,1,3.73,3.47.64.64,0,0,1,.2.41c0,.16-.31.36-.56.36H96.12a38.51,38.51,0,0,0-4.29.21ZM95.1,46.46c0,.41-.15.56-.41.66a13.16,13.16,0,0,1-2.35.26c-.56,0-.76-.16-.81-.67.2-3.37.3-7.05.3-11.29,0-2.05,0-3.73-.2-6a44.55,44.55,0,0,1,4.08,2.19H102c.86-1,1.17-1.22,2-2.14,1.27.92,1.63,1.22,2.8,2.14.36.26.46.46.46.67s-.15.46-1.73,1.48v2.2c0,2.2.1,8.79.15,9.81a.84.84,0,0,1-.31.77,6.3,6.3,0,0,1-2.45.41c-.3,0-.45-.11-.56-.46V44.31H95.1Zm0-3.33h7.34V32.76H95.1ZM127.9,22a39.25,39.25,0,0,1,2.6-3.27,47.14,47.14,0,0,1,4,3.57,1.18,1.18,0,0,1,.25.52c0,.2-.25.35-.56.35h-10V32h3.73c1.07-1.48,1.42-1.94,2.6-3.37a26.58,26.58,0,0,1,4.23,3.73.86.86,0,0,1,.2.46c0,.21-.25.36-.66.36h-10.1v9.91h5c1.28-1.58,1.68-2,3.11-3.57a50.92,50.92,0,0,1,4.24,4,1.71,1.71,0,0,1,.1.41c0,.16-.26.36-.46.36H114.38v2.15a.77.77,0,0,1-.56.87,6.62,6.62,0,0,1-2.2.3c-.66,0-.81-.1-.86-.61.15-4.7.15-5,.25-19.78V17A37.08,37.08,0,0,1,106.32,23l-.66-.56A60.14,60.14,0,0,0,114.89.72c4.18,1.22,5.35,1.63,5.35,2a.73.73,0,0,1-.45.51c-.26.15-.26.15-1.84.46a75.14,75.14,0,0,1-4.28,8.79h7a58.15,58.15,0,0,0,3.88-11,36.15,36.15,0,0,1,4.85,1.43c.25.11.4.26.4.46,0,.41-.46.57-2.24.87-1.73,3.27-1.73,3.27-5.66,8.28h6.63c1.17-1.53,1.53-1.94,2.75-3.37a42.5,42.5,0,0,1,4.29,3.78.83.83,0,0,1,.2.51c0,.15-.2.26-.51.26H124.17V22Zm-6.84,0V13.7h-6.83V22Zm-6.83,10h6.83V23.2h-6.83Zm6.83,1.18h-6.83v9.91h6.83Z"/><path class="cls-1" d="M160,24.84c-.1.46-.86,3.68-2.29,9.61a19.88,19.88,0,0,0-.87,5.41,7.62,7.62,0,0,1-.15,2.2,1.26,1.26,0,0,1-1.23.87c-.86,0-1.63-.71-2.19-2.09A30.42,30.42,0,0,1,151.47,30a47.06,47.06,0,0,1,.4-5.47,79.3,79.3,0,0,1,1.79-9.66,23.87,23.87,0,0,0,.71-4.75A9.1,9.1,0,0,0,153,5.26c1.12.06,2,.72,3.41,2.51a6.86,6.86,0,0,1,1.89,4c0,.81-.05,1-1.07,3.06A43.72,43.72,0,0,0,154.42,23a28.61,28.61,0,0,0-.66,6.34,19.44,19.44,0,0,0,1,6.74,40.18,40.18,0,0,0,1.84-4.34l2.7-7.16Zm6.43,2.55a20.58,20.58,0,0,0-.15,2.15c0,5.62,3.21,7.92,11.12,7.92a23.51,23.51,0,0,0,4.33-.36,8,8,0,0,0,2.71-.81,2.3,2.3,0,0,1,.76-.16c1.33,0,3.21,1.79,3.21,3,0,.61-.4,1-1.12,1.28a26,26,0,0,1-6.37.56c-6.38,0-10.92-1.07-13.21-3.12a8.49,8.49,0,0,1-2.76-6.64,13.82,13.82,0,0,1,.61-4Zm-.1-16.25a8,8,0,0,0,4.74,1.38,26.94,26.94,0,0,0,10.25-2.3c.67-.36.77-.41,1.13-.41a3.9,3.9,0,0,1,1.78.72c1.07.61,1.58,1.22,1.58,1.89s-.35,1-1.42,1.17a30,30,0,0,0-7.25,1.79A52.72,52.72,0,0,0,170.54,19L170,18.5c2.3-1.94,4-3.37,4.85-4-1.07.06-1.63.11-2.09.11a9,9,0,0,1-6.94-2.87Z"/><path class="cls-1" d="M205.54,9.76a11.05,11.05,0,0,0,3.52,3.68,15.32,15.32,0,0,0,6,2.2c1.42-7.11,1.58-7.87,1.58-9.1,0-1.74-.72-2.81-2.76-4.24a2.14,2.14,0,0,1,.87-.2,7.8,7.8,0,0,1,3.77,1.58c1.64,1.12,2.66,2.56,2.66,3.68a2.21,2.21,0,0,1-.67,1.48c-.86,1.23-1.42,2.61-2.8,7.11a3.67,3.67,0,0,1,2,1.12,2.89,2.89,0,0,1,.71,1.69c0,.66-.61,1.07-1.63,1.07a11.18,11.18,0,0,1-2-.26,61.22,61.22,0,0,0-2,9.46,14.75,14.75,0,0,0,2.6.36,1.15,1.15,0,0,0,.41-.05,2.9,2.9,0,0,1,.56-.06c1.33,0,3.06,1.59,3.06,2.76,0,.72-.66,1.18-1.73,1.18a20.76,20.76,0,0,1-5.41-.92c-.1,1.23-.15,1.84-.15,2.5,0,5.22,2.9,8.13,8.06,8.13,3.46,0,6.47-1.33,8.06-3.47a8.66,8.66,0,0,0,1.68-5.22c0-4.24-2.86-9-7.7-12.77l.56-.67c7.55,4.65,10.76,8.89,10.76,14.11,0,6.18-5.3,10.88-12.39,10.88a11.62,11.62,0,0,1-6.94-2.09c-2.65-2-3.93-5.06-3.93-9.51,0-.61,0-1.28.1-2.55A12.54,12.54,0,0,1,208.29,29,7.66,7.66,0,0,1,206.05,24a5.29,5.29,0,0,1,1.58-3.53,10.82,10.82,0,0,1,5-2.71,12.83,12.83,0,0,1-5-3.16,12.76,12.76,0,0,1-2.65-4.5Zm3,11.4a3.52,3.52,0,0,0-1.12,2.55c0,2.15,1.73,3.73,5.25,4.81a82.23,82.23,0,0,1,1.53-9.3C211.25,19.37,209.77,19.93,208.55,21.16Z"/><path class="cls-1" d="M263.08,18.55a39.16,39.16,0,0,0-6.63,2.66,2.67,2.67,0,0,1-1.48.56,3.79,3.79,0,0,1-2.25-1.53A8.22,8.22,0,0,1,251,16.35a3.28,3.28,0,0,1,.31-1.12c1.07,2.15,2,2.81,3.87,2.81a51.85,51.85,0,0,0,8.68-1.79A28.9,28.9,0,0,0,266,7.87c0-1.58-1-2.45-3.93-3.42a2.29,2.29,0,0,1,1.53-.51A13.93,13.93,0,0,1,267,4.6c2.29.66,3.57,1.58,3.57,2.66,0,.41-.11.61-.72,1.48a49.91,49.91,0,0,0-3.26,7,17.69,17.69,0,0,1,4.44-.61c4.38,0,6.47,2.6,6.47,8,0,6.54-2.6,15-5.56,18.35a7.2,7.2,0,0,1-4.89,2.3,1.19,1.19,0,0,1-1.38-1.18c-.15-1.43-.25-1.53-5.66-6l.46-.66c3.93,2.25,6.83,3.52,7.9,3.52s2-1.07,3.32-4.29a39.7,39.7,0,0,0,3-13.75c0-3.42-.92-4.65-3.62-4.65-1.53,0-2.45.21-5.36,1.08-.71,1.73-.71,1.73-3,7-.2.51-1.22,2.91-3,7.15-2,4.81-3.72,8.49-4.54,9.92-.35.66-.76,1-1.22,1-.92,0-1.48-1.33-1.48-3.53a3.35,3.35,0,0,1,1.17-2.86,34.52,34.52,0,0,0,3.78-6c1.94-3.78,1.94-3.78,4.08-8.49ZM283,15.28a17.8,17.8,0,0,1,9.34,6.13,12.12,12.12,0,0,1,2.9,7.26c0,1.74-.76,2.76-2,2.76a1.9,1.9,0,0,1-1.17-.36,3.29,3.29,0,0,0-2.09-.51,45.06,45.06,0,0,0-6.38.46l-.2-.71a79.81,79.81,0,0,0,7.8-2.61,13.05,13.05,0,0,0-1.58-4.91,14.78,14.78,0,0,0-7-6.79Z"/><path class="cls-1" d="M309.75,10.89c2.71,2.24,4.34,2.76,8.22,2.76a46.53,46.53,0,0,0,7.29-.62c-.2-7.82-.56-8.53-4.44-9.09.72-.72,1.13-.82,2.55-.82a14.19,14.19,0,0,1,4.29.66c1.22.41,1.73.92,1.73,1.69,0,.31,0,.31-.66,1.74a16.39,16.39,0,0,0-.92,5.41c5.05-1,7.81-1.84,9.49-3a1.48,1.48,0,0,1,.61-.21,6.47,6.47,0,0,1,2.65.87,1.55,1.55,0,0,1,.87,1.23c0,.71-.82,1.12-4,1.89a86.36,86.36,0,0,1-9.74,1.79c0,1.33,0,2.09,0,3.27,0,1.38,0,2.4,0,4.65a42.78,42.78,0,0,0,5.81-1.38,7.71,7.71,0,0,0,2.55-1.28,1.27,1.27,0,0,1,.77-.2,5.89,5.89,0,0,1,2.6.77,1,1,0,0,1,.61,1c0,.92-.71,1.33-3.93,2.19a54.67,54.67,0,0,1-8.31,1.49c.1,2,.1,2.81.15,4.6s.16,2.7.31,4c4.69.87,9.18,2.61,11.22,4.4A4.41,4.41,0,0,1,341,42c0,1.07-.46,1.79-1.12,1.79s-.72-.15-2-1.43a29.33,29.33,0,0,0-4.29-3.17,18.51,18.51,0,0,0-5.1-2.15c.11,1.13.16,1.64.16,2.25a5.07,5.07,0,0,1-1.74,4.29c-1.43,1.18-4.08,1.9-6.83,1.9-5.1,0-8.62-2.25-8.62-5.47,0-3.63,4.74-6.19,11.52-6.19.82,0,1.33,0,2.56.05-.06-2.45-.06-2.81-.06-3.52V25.91c-2,.1-3,.16-3.77.16-3.32,0-5.56-.36-6.78-1.13a4.45,4.45,0,0,1-2.3-3.88c0-.36.05-.87.1-1.43l.77.05c.05,1.58.3,2.3,1.07,2.91s3,1.12,6,1.12a42.77,42.77,0,0,0,4.94-.35V19.78l-.1-3.73v-.62c-2.8.26-4.84.36-6.58.36-4.84,0-6.93-1-9.49-4.39ZM321.08,36a15.92,15.92,0,0,0-5.56,1c-1.84.72-2.76,1.74-2.76,3.07,0,1.84,2.1,2.91,5.56,2.91a8.43,8.43,0,0,0,5.82-1.84,3.9,3.9,0,0,0,1.12-2.66c.05-.35.1-1.53.1-1.94v-.15A29.25,29.25,0,0,0,321.08,36Z"/><path class="cls-1" d="M380.35,42.22c9.18-3.22,14.18-8.69,14.18-15.44,0-5-3.16-8.43-7.75-8.43S376.43,21,371,25.55c.05,4.14.3,9.77.56,11.76a13.26,13.26,0,0,1,.15,2,11.6,11.6,0,0,1-1,4.75,1.47,1.47,0,0,1-1.27,1,1.24,1.24,0,0,1-1.07-.67,13.41,13.41,0,0,0-.51-1.43,7.29,7.29,0,0,0-1.79-3.06A31.35,31.35,0,0,0,362.2,36a8.57,8.57,0,0,0-.51,1c-.72,1.38-1.08,1.84-1.48,1.84-.72,0-1.53-1.94-1.53-3.63,0-.66.2-1.07,1-1.89a26.64,26.64,0,0,0,2.2-2.5c1.48-1.89,6.27-8.69,7.55-10.79.1-1.84.15-3.06.2-3.73a42.75,42.75,0,0,0-5,3.22,3.74,3.74,0,0,1-2.09,1,3.8,3.8,0,0,1-2.7-1.73A5.55,5.55,0,0,1,358.52,16a2.77,2.77,0,0,1,.26-.87c.86,1.63,1.94,2.45,3.11,2.45s4.79-1.48,7.9-3.22c.11-1,.26-4,.26-5.11,0-3.22-.36-3.94-3-5.88a1.49,1.49,0,0,1,.77-.25A8.59,8.59,0,0,1,372,4.86c1.27.92,1.89,1.68,1.89,2.4,0,.41,0,.41-.62,2a16.48,16.48,0,0,0-1,4.24c1.23,1,1.84,1.79,1.84,2.3,0,.36,0,.36-.87,1.33a15,15,0,0,0-1.83,3.38,14.73,14.73,0,0,0-.16,1.68c3-1.63,3.68-2,5.26-2.76a23.59,23.59,0,0,1,10.4-2.66c6.68,0,11.58,4.5,11.58,10.63,0,5.06-2.91,9.36-8.42,12.42A27.85,27.85,0,0,1,380.61,43ZM365.66,30.1c-2.5,4.19-2.5,4.19-3,5a64.75,64.75,0,0,0,6.13,4.09c0-3.27.2-10.89.35-15.18C366.17,29.23,366.12,29.34,365.66,30.1Z"/><path class="cls-1" d="M422.9,46.56c5.91-4,8.41-7.31,9.69-12.78a5.78,5.78,0,0,1-3.27,1c-3.57,0-6.27-3.16-6.27-7.36,0-4.49,2.81-7.81,6.58-7.81a5.17,5.17,0,0,1,2.86.86c0-.86.05-3.68.05-5.31a10,10,0,0,0-.05-1,69.65,69.65,0,0,0-12.86,2.55,19.26,19.26,0,0,0-3.31,1.38,5,5,0,0,1-1.18.26,5.27,5.27,0,0,1-3.26-1.94,7.65,7.65,0,0,1-2-3.74,1.66,1.66,0,0,1,.26-.61A5.9,5.9,0,0,0,415,14.67a27,27,0,0,0,4.39-.46c6-1,7.85-1.23,13.06-1.79,0-3.07-.16-4.55-.56-5.67-.57-1.43-1.79-2.15-4.39-2.51.61-.76,1-.92,2.35-.92a17,17,0,0,1,4.94.72c1.23.41,1.94,1.07,1.94,1.79,0,.41,0,.51-.51,1.38a12.77,12.77,0,0,0-1.12,5c1.33-.15,1.33-.15,3.31-.3,4.9-.36,5.46-.46,6.79-.92a4.74,4.74,0,0,1,1.89-.57,8.91,8.91,0,0,1,4.33,1.9,1.58,1.58,0,0,1,.82,1.38c0,.56-.36.86-1.13.86a21,21,0,0,1-2.75-.3,53.93,53.93,0,0,0-7.85-.51c-1.89,0-3.37.05-5.46.2-.21,1.94-.36,5.06-.36,7,0,.36,0,1,0,1.74a13.31,13.31,0,0,1,1.63,6.8,17.75,17.75,0,0,1-5.5,13,26,26,0,0,1-7.6,4.85Zm6.48-25.71c-2.3,0-4.09,2.4-4.09,5.52s1.74,5.57,4.14,5.57c2.19,0,3.26-1.63,3.26-4.8C432.69,22.9,431.62,20.85,429.38,20.85ZM442.33,1.18c5.31,2.4,7.45,4.14,7.45,6.08,0,1.12-.61,2.09-1.28,2.09-.46,0-.51,0-1.53-1.79a23.74,23.74,0,0,0-5.05-5.77ZM448.55,0a20.91,20.91,0,0,1,6.12,3.22A3.16,3.16,0,0,1,456,5.67c0,1.18-.61,2.3-1.17,2.3s-.67-.25-1.53-1.63A17.19,17.19,0,0,0,448.15.61Z"/><path class="cls-1" d="M495.48,41.81c0,1,0,1.07.21,1.22.41.26,1.89.36,5.41.36h.71c1.38,0,2.4,0,3,0h.36c1.88,0,2.55-.31,2.95-1.33.31-.82.82-2.86,2.45-9.25l.66.1-.35,8.33v.51c0,.72.15,1,.76,1.23.92.31,1.18.56,1.18,1.28s-.77,1.43-2,1.68a53.47,53.47,0,0,1-8.22.41h-.86c-2.3,0-4.29,0-4.75,0-4,0-5.1-.71-5.1-3.42v-2.2c.05-1.23.05-2.15.05-2.4V30.72H487a18,18,0,0,1-4.54,10c-2.5,2.71-5.87,4.6-10.46,5.83-1.53.36-2.7.61-5.46,1l-.2-.92a27,27,0,0,0,8.52-3.27c5-3,7.9-7.31,8.52-12.67h-4.08v1.63c0,.87-.41,1-2.71,1-1.07,0-1.22-.1-1.22-.76.25-7.06.36-11.25.36-18.1,0-7.46-.06-10.11-.31-13.13a24.68,24.68,0,0,1,4.28,2.71h20.1a20,20,0,0,1,2.24-2.35c1.23.92,1.64,1.28,2.86,2.3.46.41.61.66.61.87s-.25.56-1.63,1.38V12c0,9.2.05,16.66.21,20.39,0,.77-.51.92-2.66.92-.92,0-1.12-.1-1.17-.66V30.72h-4.8Zm4.8-36.55h-21v7.16h21Zm-21,8.33v7.16h21V13.59Zm0,8.34v7.61h21V21.93Z"/><path class="cls-1" d="M563.94,29.74c1.33-1.68,1.79-2.24,3.27-3.93,2,1.79,2.65,2.35,4.64,4.24a1.09,1.09,0,0,1,.2.51c0,.21-.25.36-.61.36h-21v6c0,2.2,0,3.68,0,6.9a2.92,2.92,0,0,1-1.84,2.91,11.21,11.21,0,0,1-4.44,1.13c-.56-2.76-.86-2.92-8-4V43c3.88.31,4.24.31,9.65.56.66,0,.81-.15.81-.71v-12H529.61a37.89,37.89,0,0,0-4.18.2l-.3-1.78a21.32,21.32,0,0,0,4.38.4H546.7v-.86c0-1,0-1.33-.1-4.19,1,.15,2.29.35,3.88.66a32.08,32.08,0,0,0,5.4-6.13H538a23,23,0,0,0-3.67.25L534,17.68a21.19,21.19,0,0,0,3.93.36h18.31c1-1,1.27-1.33,2.24-2.3,1.58,1.18,2.09,1.53,3.57,2.71.46.36.67.61.67.87,0,.46-.61.66-2.6.82-4.44,3.27-6,4.34-8.32,5.52.46.15.67.3.67.56,0,.41-.52.61-2,.92v2.6Zm.77-18c1.07-1.17,1.37-1.53,2.5-2.6,1.83,1.22,2.39,1.58,4.18,3,.51.36.71.61.71.87,0,.61-.87.92-3.16,1-1,1.07-1,1.07-2.55,2.81-1,1.08-1,1.08-2,2.15l-.51-.21a30.16,30.16,0,0,0,1.43-5.77H532c-.31,3.27-.92,5.16-2.24,6.8a3.6,3.6,0,0,1-2.25,1.58c-.36,0-.71-.25-.92-.82a6.23,6.23,0,0,1-.56-2.09c0-.72.26-1.08,1.53-2.05,2-1.53,3.06-3.73,3.57-7.51h1c0,1.53,0,1.84,0,2.91h23.06a44.36,44.36,0,0,0,5.5-10.17c4.85,1.89,5.36,2.15,5.36,2.61s-.61.77-1.43.77c-.25,0-.71,0-1.12,0a59,59,0,0,1-7,6.84ZM534.82,2.1a33.27,33.27,0,0,1,4.84,3.62,3,3,0,0,1,1.23,2.15,5.47,5.47,0,0,1-1.07,2.91,1,1,0,0,1-.77.41c-.51,0-.71-.3-1.22-1.74a25,25,0,0,0-3.52-6.95ZM545.22.92c4.39,3.22,6.22,5.11,6.22,6.44a6.73,6.73,0,0,1-1,2.81,1.28,1.28,0,0,1-1.08.66c-.61,0-.76-.25-1.27-2.09a19.22,19.22,0,0,0-3.47-7.36Z"/><path class="cls-1" d="M623.88,25.76c0,8.79,0,8.79.1,16.76-.05,1.69-.41,2.35-1.58,3.12s-2.5,1.07-6,1.58a3.45,3.45,0,0,0-1.53-2.71c-1-.71-2.14-1-6.53-1.53v-.76c5.21.25,7.45.35,9.49.35h1.48c.71-.1.87-.25.87-.92V5.72H590.78c-1.53,0-4.9.16-6.12.31l-.36-2a29.58,29.58,0,0,0,6.48.56h32.84c1.23-1.69,1.64-2.2,3-3.83,2.15,1.78,2.81,2.35,4.85,4.24.15.2.25.3.25.41s-.3.35-.71.35h-7.14Zm-28.62,9.71c0,.77-.35,1-1.83,1a5,5,0,0,1-.72.05h-.15c-.56,0-.81-.2-.87-.71.11-3.43.21-12.22.21-17.33,0-.56,0-3-.15-7.26a48.63,48.63,0,0,1,4.38,2.66h10.71a32.11,32.11,0,0,1,2.15-2.4c1.37,1,1.78,1.33,3.06,2.4.3.31.45.51.45.66s-.25.46-1.68,1.28v3.27c0,4.91.1,10.17.26,14.62a.77.77,0,0,1-.46.72,14.84,14.84,0,0,1-2.45.25c-.56,0-.77-.2-.77-.66V30.82H595.26Zm0-5.83H607.4V15H595.26Z"/><path class="cls-1" d="M643.88,16.66c2.55-1.48,3.88-3.12,3.88-4.91,0-.81-.06-.86-1.64-1.22a3,3,0,0,1-2.29-3,3.35,3.35,0,0,1,3.47-3.32c2.29,0,3.87,1.89,3.87,4.65,0,3.73-2.39,7.16-6.27,9Zm10,0c2.55-1.48,3.87-3.12,3.87-4.91,0-.81,0-.86-1.63-1.22a3,3,0,0,1-2.29-3,3.34,3.34,0,0,1,3.46-3.32c2.3,0,3.88,1.89,3.88,4.65,0,3.73-2.4,7.16-6.27,9Z"/><path class="cls-1" d="M133.11,94.72h-3.2a26.89,26.89,0,0,0-3.48.2l-.2-1.44a16.8,16.8,0,0,0,3.68.32h3.2V86.3a35.19,35.19,0,0,1-6,5.38l-.48-.45a52.64,52.64,0,0,0,6.56-8.61,19,19,0,0,0,2.16-4.57c4.56,1.6,4.56,1.6,4.56,2s-.68.52-2.4.56a33.48,33.48,0,0,1-2.76,3.77h21A32.83,32.83,0,0,1,158,81.7c1.48,1.2,2,1.6,3.4,2.92a2.17,2.17,0,0,1,.16.32c0,.2-.2.32-.52.32h-5.4V93.8h1.68c1-1.16,1.28-1.48,2.28-2.61,1.48,1.25,1.92,1.65,3.32,3a.62.62,0,0,1,.12.24.4.4,0,0,1-.4.32h-7v8.58h1.12c1-1.16,1.28-1.52,2.32-2.61,1.48,1.25,1.92,1.65,3.32,2.93a.58.58,0,0,1,.2.32.32.32,0,0,1-.36.28H130.87c-.56,0-2,.08-2.88.2l-.2-1.4a14.69,14.69,0,0,0,3.08.28h2.24Zm.84,11.14a10.59,10.59,0,0,1-2.68,6.54,4.72,4.72,0,0,1-2.72,1.72c-.6,0-1.08-.8-1.08-1.84,0-.84.16-1,1.32-1.53a7.67,7.67,0,0,0,2.28-1.64,7.32,7.32,0,0,0,2.28-3.41Zm5.84-12.06V85.26h-4.16V93.8Zm0,9.5V94.72h-4.16v8.58Zm-.72,2.28c1.68,2.13,3.08,4.69,3.08,5.66,0,1.12-1.16,2.52-2.08,2.52-.48,0-.64-.4-.64-1.64a28.25,28.25,0,0,0-.8-6.34Zm7.32-11.78V85.26h-4.2V93.8Zm0,9.5V94.72h-4.2v8.58Zm0,2.2a24,24,0,0,1,3.84,3.93,2.91,2.91,0,0,1,.76,1.65c0,1.2-1,2.64-1.72,2.64-.36,0-.44-.2-.72-1.4a27.59,27.59,0,0,0-2.64-6.58Zm2.4-11.7H153V85.26h-4.24Zm0,9.5H153V94.72h-4.24Zm5.32,2.28a27.42,27.42,0,0,1,5.56,3.49c1.16,1,1.52,1.48,1.52,2.13a5.21,5.21,0,0,1-.68,2.16,1.13,1.13,0,0,1-.72.52c-.28,0-.64-.36-1-1a31.77,31.77,0,0,0-5.12-6.94Z"/><path class="cls-1" d="M172.6,113.76a30.85,30.85,0,0,0,7.64-7.09,38.5,38.5,0,0,0,7.24-16.28,45.41,45.41,0,0,0,.92-8.57c0-.81,0-1.25-.12-2.33,4.36.56,4.84.68,4.84,1.08s-.16.4-1.72,1c0,.57,0,.89,0,1.25A32.91,32.91,0,0,0,197,100.53a28.1,28.1,0,0,0,8.12,7.74,20.2,20.2,0,0,0,4.56,2.2l0,.48h-.28a2.47,2.47,0,0,0-2,.81,7,7,0,0,0-1.16,2,29.45,29.45,0,0,1-9.56-9.7A45.14,45.14,0,0,1,192,92.88a31.22,31.22,0,0,1-1-5.81c-1.16,7.45-3,12.54-6.4,17.35a29.26,29.26,0,0,1-11.68,9.86Z"/><path class="cls-1" d="M241.17,110.67c0,.77,0,.85.16,1,.32.2,1.48.28,4.24.28h.56c1.08,0,1.88,0,2.32,0h.28c1.48,0,2-.24,2.32-1,.24-.64.64-2.24,1.92-7.25l.52.08-.28,6.53v.4c0,.57.12.81.6,1,.72.24.92.44.92,1s-.6,1.12-1.56,1.32a42.4,42.4,0,0,1-6.44.32h-.68c-1.8,0-3.36,0-3.72,0-3.12,0-4-.56-4-2.68v-1.73c0-1,0-1.68,0-1.88V102h-3.84a14.13,14.13,0,0,1-3.56,7.85,16.4,16.4,0,0,1-8.2,4.57c-1.2.28-2.12.48-4.28.8l-.16-.72a21.18,21.18,0,0,0,6.68-2.56,13,13,0,0,0,6.68-9.94h-3.2v1.28c0,.68-.32.8-2.12.8-.84,0-1-.08-1-.6.2-5.53.28-8.82.28-14.19,0-5.85,0-7.94-.24-10.3a19.75,19.75,0,0,1,3.36,2.12h15.76a15.38,15.38,0,0,1,1.76-1.84c1,.72,1.28,1,2.24,1.8.36.32.48.52.48.69s-.2.44-1.28,1.08v4.45c0,7.21,0,13.06.16,16,0,.6-.4.72-2.08.72-.72,0-.88-.08-.92-.52V102h-3.76ZM244.93,82H228.49v5.61h16.44Zm-16.44,6.53v5.61h16.44V88.55Zm0,6.53v6h16.44v-6Z"/><path class="cls-1" d="M294.86,101.22c1-1.33,1.4-1.77,2.56-3.09,1.6,1.4,2.08,1.84,3.64,3.33a.84.84,0,0,1,.16.4c0,.16-.2.28-.48.28H284.3v4.69c0,1.72,0,2.88,0,5.41a2.28,2.28,0,0,1-1.44,2.28,8.87,8.87,0,0,1-3.48.88c-.44-2.16-.68-2.28-6.28-3.16v-.6c3,.24,3.32.24,7.56.44.52,0,.64-.12.64-.56v-9.38h-13.4a29.06,29.06,0,0,0-3.28.16l-.24-1.41a16.45,16.45,0,0,0,3.44.33h13.48v-.69c0-.8,0-1-.08-3.28.8.12,1.8.28,3,.52A25.17,25.17,0,0,0,288.54,93h-14a17.74,17.74,0,0,0-2.88.2l-.24-1.4a17,17,0,0,0,3.08.28h14.36c.76-.81,1-1.05,1.76-1.81,1.24.92,1.64,1.2,2.8,2.13.36.28.52.48.52.68,0,.36-.48.52-2,.64A43.72,43.72,0,0,1,285.34,98c.36.12.52.24.52.44s-.4.48-1.56.72v2Zm.6-14.15c.84-.93,1.08-1.21,2-2,1.44,1,1.88,1.24,3.28,2.33.4.28.56.48.56.68,0,.48-.68.72-2.48.76-.8.84-.8.84-2,2.2-.76.85-.76.85-1.6,1.69l-.4-.16A23.94,23.94,0,0,0,295.9,88H269.78c-.24,2.56-.72,4.05-1.76,5.33a2.81,2.81,0,0,1-1.76,1.24c-.28,0-.56-.2-.72-.64a4.8,4.8,0,0,1-.44-1.64c0-.56.2-.85,1.2-1.61,1.6-1.2,2.4-2.92,2.8-5.89h.76c0,1.2,0,1.44,0,2.29H287.9a35.26,35.26,0,0,0,4.32-8c3.8,1.48,4.2,1.68,4.2,2s-.48.61-1.12.61c-.2,0-.56,0-.88,0a47.6,47.6,0,0,1-5.52,5.37ZM272,79.53a25.37,25.37,0,0,1,3.8,2.85,2.32,2.32,0,0,1,1,1.68,4.29,4.29,0,0,1-.84,2.28.74.74,0,0,1-.6.33c-.4,0-.56-.25-1-1.37a19.57,19.57,0,0,0-2.76-5.45Zm8.16-.92c3.44,2.52,4.88,4,4.88,5a5.17,5.17,0,0,1-.76,2.2,1,1,0,0,1-.84.52c-.48,0-.6-.2-1-1.64A15.11,15.11,0,0,0,279.74,79Z"/><path class="cls-1" d="M321.59,113.36a20.91,20.91,0,0,0,7.68-8.18c1.44-3,2-6.45,2.24-12.86a62.55,62.55,0,0,0-8.92,1.2v1.36c0,.16,0,1.73.08,4.57,0,.12,0,.68,0,1.52a10.09,10.09,0,0,1,0,1c0,1.44-.36,2.2-1,2.2s-2-2-2-3.21a1.79,1.79,0,0,1,.2-.8,7.61,7.61,0,0,0,.44-1.92c0-.4.12-1.84.16-4.29a20.08,20.08,0,0,0-5.16,1.56,4.13,4.13,0,0,1-1.48.44c-1.24,0-3.6-2.76-3.6-4.24a1,1,0,0,1,.12-.37c1.16,1.33,2.12,1.89,3.28,1.89.44,0,1.64-.16,2.8-.32s1.08-.16,2.64-.44c.8-.16.8-.16,1.32-.24a26,26,0,0,0-.56-5.41A3.74,3.74,0,0,0,318.51,85c-.12-.08-.48-.28-1.12-.64a.94.94,0,0,1,.88-.32,7.55,7.55,0,0,1,3.4,1.24c1,.56,1.4,1.16,1.4,1.85a3.15,3.15,0,0,1-.16.88,16.48,16.48,0,0,0-.36,3.93c3.4-.49,3.4-.49,9-1.09,0-1,0-1.16,0-2.56,0-3.17-.16-4.41-.68-5.09a4.64,4.64,0,0,0-2.72-1.48,2.83,2.83,0,0,1,1.56-.45,10.14,10.14,0,0,1,3.8.93c.92.4,1.4,1,1.4,1.56a1.77,1.77,0,0,1-.2.72,20.67,20.67,0,0,0-.76,6.13c3.08-.24,3.8-.4,4.84-.84a2.19,2.19,0,0,1,1.12-.28c1.32,0,3.6,1.52,3.6,2.37a.78.78,0,0,1-.84.72,5.13,5.13,0,0,1-.72,0,43.07,43.07,0,0,0-4.68-.32h-1.48c-1.28,0-1.28,0-1.88,0-.24,7.53-1,11.1-2.76,14.11a20.45,20.45,0,0,1-9.2,7.57Z"/><path class="cls-1" d="M357,94.76c1,.76,1.76,1,3.88,1,.44,0,.44,0,4.92-.12,1.56,0,14.28-.24,15.6-.24,3.6,0,4.48.08,5.2.36a.84.84,0,0,1,.56.81,1.17,1.17,0,0,1-.92,1.08c-1.08.36-2,.4-9.6.48-3.72,0-12.88.28-14.28.36-1.88.12-2.24.16-2.88.52a3.19,3.19,0,0,1-.6.12q-.9,0-1.92-1.32a7.22,7.22,0,0,1-1.52-3.69c0-.56,0-.64.32-.92A3.59,3.59,0,0,0,357,94.76Z"/><path class="cls-1" d="M402.05,83.9a10.42,10.42,0,0,1,4,1.12c.92.52,1.36,1,1.36,1.69a2.22,2.22,0,0,1-.2.88c-.56,1.28-.84,3-1.12,6.53a2.53,2.53,0,0,0,1.88.56,32.41,32.41,0,0,0,7.72-1.52,12.64,12.64,0,0,0,3.92-1.73,2,2,0,0,1,.88-.32c1.16,0,3.08,1.25,3.08,2,0,.6-.52.92-1.92,1.24a64.4,64.4,0,0,1-12.44,1.84,5,5,0,0,1-3.2-1c-.2,4.33-.24,5.93-.24,6.86,0,4.85,1.08,6,5.6,6a28.92,28.92,0,0,0,9.44-1.36,4,4,0,0,1,1.2-.24c1,0,2.72,1.36,2.72,2.2,0,.56-.4.88-1.4,1.08a59.43,59.43,0,0,1-9.2.68c-5.16,0-7.6-.76-9.08-2.84a8.56,8.56,0,0,1-1.36-4.65c0-1-.08-2.77-.08-5.81V95.16c0-1.8,0-2.92,0-3.6,0-3.53-.12-4.65-.48-5.42a4.19,4.19,0,0,0-2.72-1.88A2.16,2.16,0,0,1,402.05,83.9Zm17.92-1a17.86,17.86,0,0,1,5.68,3,2.66,2.66,0,0,1,.92,2.29c0,1-.32,1.72-.84,1.72-.32,0-.64-.28-1-.88a18.55,18.55,0,0,0-5.12-5.69ZM423.45,80a17.75,17.75,0,0,1,5.44,2.45c1,.76,1.32,1.24,1.32,2.16,0,1.16-.4,2-.92,2-.36,0-.52-.13-1.12-1.13-1-1.64-2.36-3-5-5Z"/><path class="cls-1" d="M440.14,110.71a57.85,57.85,0,0,0,10.76-8.77,72,72,0,0,0,7.64-10,27.23,27.23,0,0,0,2.72-5.17,42.7,42.7,0,0,0-8.44,1.76,20.88,20.88,0,0,0-3.36,1.08,1.87,1.87,0,0,1-.68.12c-.88,0-1.72-.72-2.6-2.28a5,5,0,0,1-.84-2.41,1.59,1.59,0,0,1,.28-.8c1.16,2.08,2,2.69,3.76,2.69a64,64,0,0,0,8.4-1.13,10.37,10.37,0,0,0,3.76-1.12,1.59,1.59,0,0,1,.92-.36c.84,0,3.12,2,3.12,2.81a.93.93,0,0,1-.52.76c-.84.56-.84.56-2.28,2.72-1.92,2.89-1.92,2.89-5,7,5.64,3,8.8,5,10.36,6.77a5.32,5.32,0,0,1,1.52,4c0,1.28-.4,2.08-1.08,2.08a1.26,1.26,0,0,1-.92-.64,11.9,11.9,0,0,1-1-1.6,34.34,34.34,0,0,0-9.52-9.82,43.6,43.6,0,0,1-9.68,9,36.09,36.09,0,0,1-7,3.93Z"/><path class="cls-1" d="M484.91,90.75v24c0,.56-.4.68-2.12.68-.48,0-.68-.12-.68-.48.2-5.25.24-10.94.24-26,0-4.41,0-7-.12-10.34a20.21,20.21,0,0,1,3.16,1.72h7.88c.64-.84.84-1.08,1.44-1.92,1,.72,1.36.92,2.32,1.68.28.24.36.4.36.56s-.28.48-1.28,1v2c0,1.44,0,2.56.12,8.5,0,.32-.08.4-.4.48a7.47,7.47,0,0,1-1.56.16c-.48,0-.68-.16-.68-.48V90.75Zm8.68-9.58h-8.68v3.77h8.68Zm0,4.69h-8.68v4h8.68Zm10.28,16.52h2.2c.8-1,1.08-1.33,1.88-2.29,1.28,1.17,1.72,1.57,3,2.81a.57.57,0,0,1,.08.24c0,.08-.12.16-.24.16h-7v2c0,3,0,4.13.12,7.86v.12c0,.44-.6.64-2,.64-.44,0-.68-.16-.68-.48v-.12c0-1.16,0-3.81.08-7.86v-2.2h-5.64c-.4,3.29-1,5-2.44,6.81a14.32,14.32,0,0,1-6.24,4.49l-.4-.48a13.88,13.88,0,0,0,5.64-5.89c.64-1.32.84-2.21,1.08-4.93h-2.76a18.49,18.49,0,0,0-3.24.24l-.36-1.48a14.75,14.75,0,0,0,3.6.32h2.84c.08-1.41.12-2.65.12-3.81,0-.92,0-1.12,0-2h-2.28a15.86,15.86,0,0,0-3,.2L488,95.24a11.72,11.72,0,0,0,3.32.36h13.52c.84-1,1.08-1.32,1.84-2.32,1.4,1.16,1.84,1.56,3.16,2.76a.56.56,0,0,1,.12.29c0,.08-.16.2-.28.2h-5.8ZM496,96.53v1.84c0,1.44,0,2.36-.16,4h5.56V96.53Zm7.84-5.78v1.33c0,.32-.12.44-.36.52a14,14,0,0,1-1.64.12c-.52,0-.68-.12-.68-.52.12-2.89.12-3.69.12-6.78,0-4.13,0-5.09-.16-6.89a29.5,29.5,0,0,1,2.92,1.72h8c.72-.84.92-1.12,1.64-2,1,.72,1.28.92,2.32,1.6.36.28.52.44.52.6s-.2.44-1.12,1.08v18.64l.08,12a2.25,2.25,0,0,1-1.4,2.12,9,9,0,0,1-3.32,1c-.2-1.84-.84-2.2-4.72-2.84v-.6c4,.12,4,.12,4.76.12h1.32c.44,0,.44-.08.44-.88V90.75Zm8.72-9.58h-8.72v3.77h8.72Zm0,4.69h-8.72v4h8.72Z"/><path class="cls-1" d="M537.64,87.87A19.84,19.84,0,0,1,539,86.14c1.08.65,1.4.85,2.44,1.57.28.24.44.44.44.6,0,.36-.4.72-1.28,1.12-.88,6.9-2,10.94-4,14.95,3.84,2.45,4.4,3,4.4,4.41s-.56,2.53-1.12,2.53c-.2,0-.44-.24-.8-.77a22.1,22.1,0,0,0-3.44-4.44,30.4,30.4,0,0,1-9.2,9.17l-.52-.68A32.66,32.66,0,0,0,534,104.5a33.6,33.6,0,0,0-3.2-2.6c-.24.72-.32,1-.56,1.84-.16.36-.36.44-.8.44-1.52,0-2-.12-2-.44a.64.64,0,0,1,.12-.32,116.81,116.81,0,0,0,3.68-14.63h-.84a15.37,15.37,0,0,0-3.64.24l-.32-1.52a21.63,21.63,0,0,0,4,.36h1c.64-3.41,1-6.13,1.32-9,4.16.68,4.28.72,4.28,1.16s-.6.68-1.8.88c-.48,3.17-.72,4.41-1.24,7Zm-3.84.92c-.76,3.69-2.24,10.06-2.84,12.43a35.27,35.27,0,0,1,3.64,1.92,42.74,42.74,0,0,0,3.32-14.35Zm19.92-4.73a38.3,38.3,0,0,1,7.36,6.41c1.24,1.41,1.84,2.57,1.84,3.49,0,1.4-.84,3.21-1.48,3.21a.75.75,0,0,1-.64-.48,19,19,0,0,1-1-2.33,21.8,21.8,0,0,0-.92-2c-1.56.36-2.28.52-5.24,1-5.52,1-5.52,1-10.64,1.68-.28,1-.48,1.45-.8,1.45s-.56-.49-1.16-4.25c1.52,0,2,0,2.72,0h.52a46.63,46.63,0,0,0,2.36-6c1.4-4.2,1.76-5.53,2-7.61,1.92.32,3.84.72,4.36.88.36.12.52.28.52.48s0,.32-2,.92c-.52,1-.52,1-2.2,4.41a68.4,68.4,0,0,1-4,6.9,128.88,128.88,0,0,0,13-.93,37.25,37.25,0,0,0-5.12-6.85Zm3,15.47a14.67,14.67,0,0,1,1.6-1.84,20.26,20.26,0,0,1,2.28,1.76c.4.32.56.52.56.68s-.4.64-1.24,1.09c0,3.48,0,3.48,0,4,0,.8.08,3.93.2,9.34,0,.52-.4.72-1.48.72-.4,0-.68,0-.68,0h-.12c-.48,0-.64-.12-.68-.48v-2.48H546.28v2.16c0,.36-.12.48-.36.56a9,9,0,0,1-1.72.16c-.56,0-.76-.12-.76-.48v-.12c.16-4.89.2-7.37.2-11.14a39.74,39.74,0,0,0-.2-5.77,25,25,0,0,1,3.16,1.84ZM546.28,111.4h10.84v-11H546.28Z"/><path class="cls-1" d="M585.93,109.23a2.68,2.68,0,1,1-2.68-2.68A2.58,2.58,0,0,1,585.93,109.23Zm-3.4-6a173.36,173.36,0,0,0-1.4-18.64,6.18,6.18,0,0,1-.16-1.36c0-.92.8-1.4,2.28-1.4s2.32.44,2.32,1.44a9.39,9.39,0,0,1-.12,1.32c-.6,3.77-1.32,13.27-1.48,18.64Z"/><path class="cls-1" d="M21.12,154.58a16.08,16.08,0,0,1,1.72-2c1.12.88,1.44,1.12,2.44,2,.28.28.4.44.4.64s-.32.56-1.32,1v7.29c0,13.91,0,14.43.28,20.81,0,.36-.12.48-.4.56a9.87,9.87,0,0,1-2.2.28c-.32,0-.44-.12-.44-.48v-2.93H3v2.69a.48.48,0,0,1-.4.52c-.2,0-1.36.12-1.8.12S0,185,0,184.6v-.08c.12-4.85.2-11.15.2-15.47,0-9.78,0-14.43-.16-16.76,1.52.92,2,1.24,3.48,2.29H7.88a25.58,25.58,0,0,0,2-6.82c4.6,1.2,4.72,1.24,4.72,1.65s-.36.48-1.84.8c-.44.52-.76,1-1,1.2a23.94,23.94,0,0,1-2.68,3.17Zm.48,8.29V155.5H3v7.37ZM3,163.79v7.82H21.6v-7.82Zm0,8.74v8.3H21.6v-8.3Z"/><path class="cls-1" d="M43,182.83v1.57c0,.32-.08.48-.32.56a11.94,11.94,0,0,1-2,.2.5.5,0,0,1-.56-.44c.12-8.74.12-8.78.12-12.87,0-12.1,0-12.95-.12-14.87,1.48.8,2,1,3.4,1.92h9.72v-5.45a24.48,24.48,0,0,0-.24-4.89c4,.52,4.72.73,4.72,1.13s-.64.72-1.88,1.12v8.09H66.49A23.38,23.38,0,0,1,68.05,157c1.16.84,1.48,1.12,2.56,1.92.24.25.32.37.32.49s-.32.52-1.4,1.12c0,16.43,0,16.43.16,23.89v.16a.57.57,0,0,1-.4.6,11,11,0,0,1-2,.2c-.44,0-.6-.16-.6-.64v-1.89Zm10.24-23H43v10.1H53.21Zm0,10.94H43V182H53.21Zm13.52-10.94H55.81v10.06H66.73Zm0,10.94H55.81V182H66.73Z"/><path class="cls-1" d="M90.7,167.52c-.08.36-.68,2.89-1.8,7.54a15.73,15.73,0,0,0-.68,4.25A5.84,5.84,0,0,1,88.1,181a1,1,0,0,1-1,.68c-.68,0-1.28-.56-1.72-1.64a23.82,23.82,0,0,1-1.4-8.54,36.2,36.2,0,0,1,.32-4.29,61.57,61.57,0,0,1,1.4-7.57,18.89,18.89,0,0,0,.56-3.73,7.15,7.15,0,0,0-1.12-3.77c.88,0,1.6.56,2.68,2a5.45,5.45,0,0,1,1.48,3.17c0,.64,0,.8-.84,2.41a34.12,34.12,0,0,0-2.16,6.37,22,22,0,0,0-.52,5,15.22,15.22,0,0,0,.76,5.29A31,31,0,0,0,88,172.93l2.12-5.61Zm5,2a15.56,15.56,0,0,0-.12,1.68c0,4.41,2.52,6.21,8.72,6.21a18.88,18.88,0,0,0,3.4-.28,6.23,6.23,0,0,0,2.12-.64,2,2,0,0,1,.6-.12,3.08,3.08,0,0,1,2.52,2.37c0,.48-.32.8-.88,1a20.11,20.11,0,0,1-5,.44c-5,0-8.56-.84-10.36-2.45a6.65,6.65,0,0,1-2.16-5.21,10.84,10.84,0,0,1,.48-3.16Zm-.08-12.75a6.26,6.26,0,0,0,3.72,1.08,21.24,21.24,0,0,0,8-1.8c.52-.28.6-.32.88-.32a3,3,0,0,1,1.4.56c.84.48,1.24,1,1.24,1.48s-.28.76-1.12.92a23.33,23.33,0,0,0-5.68,1.41A40.85,40.85,0,0,0,99,163l-.4-.4c1.8-1.52,3.16-2.64,3.8-3.12-.84,0-1.28.08-1.64.08a7.06,7.06,0,0,1-5.44-2.25Z"/><path class="cls-1" d="M150.71,153.73c1-1.16,1.36-1.52,2.4-2.64,1.48,1.24,2,1.64,3.4,3,.16.17.2.25.2.33s-.2.28-.52.28h-23.6a38.5,38.5,0,0,1-9.2,10.86l-.4-.44a39.69,39.69,0,0,0,7-11,29.15,29.15,0,0,0,1.88-5.29c1.72.36,3.72.85,4.24,1.05.32.12.44.24.44.4,0,.4-.48.6-1.88.84-.68,1.2-.84,1.48-1.56,2.68Zm-20.56,14.11a56.58,56.58,0,0,1,8.28,4.93,30.05,30.05,0,0,0,4.44-6.81c3.44,1.64,3.8,1.88,3.8,2.16s-.36.44-.8.44a6.49,6.49,0,0,1-.84,0c-2.76,3.49-3.48,4.33-4.68,5.66,5.2,3.88,6,4.77,6,6.57,0,1.24-.28,2-.76,2-.32,0-.6-.24-1.08-.92a41.56,41.56,0,0,0-5.64-6.13,37.68,37.68,0,0,1-6,4.57,36.79,36.79,0,0,1-8.12,3.73l-.32-.61a40.1,40.1,0,0,0,12.72-9.17c-.52-.45-.52-.45-7.32-5.82Zm-2.68-4.29a31.32,31.32,0,0,0,4.56.28h17.44c.56-.76.76-1,1.4-1.8,1,.76,1.28,1,2.24,1.8.36.29.48.45.48.57s-.44.68-1.32,1.2c0,1-.08,1.72-.08,2.16a24.86,24.86,0,0,0,1.12,7.54,9,9,0,0,0,2.76,4.25,65.17,65.17,0,0,0,2.28-6.9l.6.16-.72,6.1c-.12,1-.16,1.52-.16,1.56,0,.4.08.52.64,1.12a1.76,1.76,0,0,1,.56,1.2,1.17,1.17,0,0,1-1.16,1.17c-1,0-2.88-1.25-4.4-3a14.83,14.83,0,0,1-3.36-7.13,36.31,36.31,0,0,1-.68-7.22c0-.4,0-1,0-1.84H132a36.94,36.94,0,0,0-4.32.2Zm4.4-5.13a23.48,23.48,0,0,0,3.56.32h12c1-1,1.24-1.36,2.28-2.36a39.29,39.29,0,0,1,3.44,2.68c.16.17.2.25.2.33s-.16.28-.48.28h-17.6c-.28,0-1.36,0-3.24.16Z"/><path class="cls-1" d="M178.64,172v4.57h3.28c.92-1,1.24-1.28,2.2-2.24,1.2,1.12,1.56,1.44,2.8,2.56a1.14,1.14,0,0,1,.16.32c0,.16-.16.28-.4.28h-8c0,5.61,0,5.61.08,7.3,0,.52-.36.64-1.8.64-.52,0-.64-.08-.76-.4.08-1.12.12-3.65.16-7.54h-4.6a14.92,14.92,0,0,0-3.08.32l-.24-1.64a12.39,12.39,0,0,0,3.32.4h4.6V172h-3.44v1.64c-.08.41-.32.49-1.2.53-.32,0-.52,0-.68,0h0a.43.43,0,0,1-.48-.36c.12-3.29.12-3.29.12-12.71,0-1.44,0-2.25-.12-3.73a22,22,0,0,1,2.88,1.56h3v-4.08H172.2a7.62,7.62,0,0,0-2.76.24l-.24-1.53a13.4,13.4,0,0,0,3,.36h4.12v-1.36a35,35,0,0,0-.12-3.89c3.8.48,4.16.56,4.16,1s-.44.56-1.72.84v3.44h2.84c.88-1,1.12-1.28,2-2.2,1.32,1.08,1.72,1.4,3,2.53q.24.24.24.36c0,.12-.2.24-.36.24h-7.64v4.08h3.28l1.52-1.52c.8.68,1,.88,1.88,1.52.48.41.52.49.52.65s-.08.32-1.36,1v5.29c0,3.57,0,4.25.12,7.13,0,.28-.12.4-.36.48a13.67,13.67,0,0,1-1.56.2c-.32,0-.44-.12-.48-.44V172Zm-2.32-12.1h-3.44v5h3.44Zm0,5.89h-3.44v5.29h3.44Zm5.84-5.89h-3.52v5h3.52Zm0,5.89h-3.56v5.29h3.56Zm11.12,4.41c0-1.49,0-2.17-.16-3.69,3.88.44,4.48.6,4.48,1s-.24.44-1.72.88v4.73h3.76c.92-1.16,1.2-1.52,2.12-2.6,1.44,1.24,1.88,1.6,3.24,2.84.2.16.28.28.28.4s-.2.29-.44.29H196v8.41h4.6c1-1.28,1.36-1.64,2.44-2.88,1.4,1.36,1.84,1.76,3.2,3.2a.66.66,0,0,1,.2.36c0,.12-.16.24-.36.24H186.48a10,10,0,0,0-2.68.29l-.24-1.57a10.08,10.08,0,0,0,2.92.36h6.84V174H188.6a6.31,6.31,0,0,0-2.24.32l-.28-1.57a10.61,10.61,0,0,0,2.52.32h4.72Zm6.44-18.44a23.9,23.9,0,0,1,1.72-1.76c1,.84,1.36,1.08,2.36,1.84.36.28.48.48.48.64,0,.32-.24.44-1.72.88a29.16,29.16,0,0,1-6,7.86c3,1.92,5.4,2.81,9.84,3.65v.6a2.8,2.8,0,0,0-2.32,2.24,29.72,29.72,0,0,1-9.08-5.17,40.64,40.64,0,0,1-9.32,5.65l-.4-.64c5.2-3.24,6.24-4,8.52-6.17a22.43,22.43,0,0,1-5.16-8.7A8.31,8.31,0,0,0,186,153l-.28-1.6a7.9,7.9,0,0,0,2.84.36Zm-10.32.92c2.56,4.57,3.36,5.61,5.64,7.46a23.7,23.7,0,0,0,5-7.46Z"/><path class="cls-1" d="M224.49,167.52c-.08.36-.68,2.89-1.8,7.54a15.73,15.73,0,0,0-.68,4.25,5.84,5.84,0,0,1-.12,1.72,1,1,0,0,1-1,.68c-.68,0-1.28-.56-1.72-1.64a23.82,23.82,0,0,1-1.4-8.54,36.2,36.2,0,0,1,.32-4.29,61.57,61.57,0,0,1,1.4-7.57,18.89,18.89,0,0,0,.56-3.73,7.15,7.15,0,0,0-1.12-3.77c.88,0,1.6.56,2.68,2a5.45,5.45,0,0,1,1.48,3.17c0,.64,0,.8-.84,2.41a34.12,34.12,0,0,0-2.16,6.37,22,22,0,0,0-.52,5,15.22,15.22,0,0,0,.76,5.29,31,31,0,0,0,1.44-3.41l2.12-5.61Zm5,2a15.56,15.56,0,0,0-.12,1.68c0,4.41,2.52,6.21,8.72,6.21a18.88,18.88,0,0,0,3.4-.28,6.23,6.23,0,0,0,2.12-.64,2,2,0,0,1,.6-.12,3.08,3.08,0,0,1,2.52,2.37c0,.48-.32.8-.88,1a20.11,20.11,0,0,1-5,.44c-5,0-8.56-.84-10.36-2.45a6.65,6.65,0,0,1-2.16-5.21,10.84,10.84,0,0,1,.48-3.16Zm-.08-12.75a6.26,6.26,0,0,0,3.72,1.08,21.24,21.24,0,0,0,8-1.8c.52-.28.6-.32.88-.32a3,3,0,0,1,1.4.56c.84.48,1.24,1,1.24,1.48s-.28.76-1.12.92a23.33,23.33,0,0,0-5.68,1.41,40.85,40.85,0,0,0-5.16,2.84l-.4-.4c1.8-1.52,3.16-2.64,3.8-3.12-.84,0-1.28.08-1.64.08a7.06,7.06,0,0,1-5.44-2.25Z"/><path class="cls-1" d="M258,176a35.75,35.75,0,0,1,7.8,3.85c1.56,1.16,2.12,2.08,2.12,3.52,0,1.29-.76,2.65-1.44,2.65a1.31,1.31,0,0,1-.56-.24c-.28-.24-.28-.24-2-2.89a31.23,31.23,0,0,0-6.16-6.37Z"/><path class="cls-1" d="M283,182.75a44,44,0,0,0,2.8-12.46c3.44.72,3.72.8,3.72,1.12s-.32.48-1.4.68A29,29,0,0,1,283.54,183ZM285.1,168c-.32,1.33-.36,1.49-.68,1.49s-.44,0-1.16-3.73c.68,0,1.2.08,1.56.08s.52,0,2.28-.08a54.62,54.62,0,0,0,3.24-4.61,44.57,44.57,0,0,0,4-7.3c2.76,1.29,3.52,1.73,3.52,2.05s-.36.44-1.08.44a3.57,3.57,0,0,1-.6,0,70.34,70.34,0,0,1-7.77,9.38,65.56,65.56,0,0,0,6.85-.48,14.45,14.45,0,0,0-1.44-3.09l.35-.32c2.08,1.6,3.93,4,3.93,5s-.77,2.25-1.36,2.25c-.33,0-.4-.12-.68-1.41-.08-.4-.2-.68-.52-1.72l-3,.64v8.66c0,1.84,0,5,.09,9.46,0,.32-.13.44-.33.52a10.18,10.18,0,0,1-2,.16c-.32,0-.48-.12-.52-.44.12-2.81.16-6.46.16-9.7V167Zm-1-13.14c1.2.68,1.64.92,2.6,1.56a28.76,28.76,0,0,0,3.12-8c3.61,1.17,4,1.37,4,1.77s-.35.48-1.6.52a54.12,54.12,0,0,1-4.92,6.13c1.6,1.12,2.12,1.72,2.12,2.53,0,1-.52,2.12-1,2.12-.32,0-.48-.16-1-1.24a29,29,0,0,0-3.68-5Zm9.72,15.31c2.21,2.64,3.41,4.69,3.41,5.81s-.92,2.73-1.57,2.73c-.35,0-.43-.17-.59-1.57a31,31,0,0,0-1.6-6.77Zm21.33-13.31c.68-.8.88-1,1.6-1.8,1,.76,1.32,1,2.16,1.64.36.32.52.48.52.68s-.32.56-1.28,1.12v13.67c0,1.65,0,2.33.08,9.1,0,1.24-.24,1.72-1,2.24a7.54,7.54,0,0,1-3.16,1.17c-.24-1.13-.48-1.49-1.28-1.81a15,15,0,0,0-4.44-1v-.56c3.88.16,4.12.16,6.6.2h.2a.4.4,0,0,0,.44-.44V157.78h-6.36a37.47,37.47,0,0,1-.6,5.21,29.3,29.3,0,0,1,4.28,4.69c1.56,2,1.76,2.37,1.76,3.09,0,1.08-1,2.64-1.64,2.64-.24,0-.44-.24-.52-.76a24,24,0,0,0-4.08-8.78A22,22,0,0,1,307,168a16,16,0,0,1-4.92,6.66l-.36-.44A21.66,21.66,0,0,0,306,164.6a41,41,0,0,0,.72-6.82h-5.4v26.9c-.12.44-.32.56-1.28.6-.36,0-.6,0-.72,0h-.08c-.36,0-.52-.12-.56-.48,0-4.49.12-14.15.12-17.16,0-10.7,0-10.7-.12-12.78a14.67,14.67,0,0,1,3.12,2h5c0-1.32.08-4.09.08-4.93a21.66,21.66,0,0,0-.2-3.13c4,.44,4.4.57,4.4,1s-.44.56-1.56.88c-.16,4.45-.16,4.45-.24,6.21Z"/><path class="cls-1" d="M334.07,166.8a30.24,30.24,0,0,1-5.12,4.69l-.52-.56a32.73,32.73,0,0,0,6-8,30.68,30.68,0,0,0,2.52-5.57c.84.28,1.47.56,1.87.72,1.61.56,2,.84,2,1.21s-.55.56-1.64.6c-1.76,2.6-2.52,3.68-3.84,5.37,2.2.28,2.56.4,2.56.76s-.32.48-1.24.68v8.78c0,1.52,0,1.52,0,6.33v2.61c0,.32-.08.44-.36.52a6.2,6.2,0,0,1-1.68.16c-.64,0-.76-.08-.76-.44.12-7.62.12-7.62.12-8.7ZM329,159.51a30.54,30.54,0,0,0,5.32-6.26,24.29,24.29,0,0,0,2.44-4.69c3.89,1.49,4.16,1.65,4.16,2s-.35.52-2,.64c-3.68,4.65-5.49,6.29-9.53,8.78Zm13.17,7.65c-.49,0-.8,0-2.44.16l-.36-1.4a13.75,13.75,0,0,0,3.11.32H359.6c1-1.12,1.28-1.48,2.28-2.53,1.4,1.21,1.84,1.57,3.24,2.85a.79.79,0,0,1,.16.32c0,.2-.16.28-.6.28h-6.2v4.33h2c1.08-1.12,1.4-1.48,2.4-2.56,1.48,1.24,2,1.64,3.4,3a1.1,1.1,0,0,1,.16.28c0,.12-.16.24-.4.24h-7.6v4.09c0,.32,0,1.28,0,2.73,0,.56,0,1.48,0,2.6s-.2,1.64-1,2.09a10.26,10.26,0,0,1-3.72,1,2.39,2.39,0,0,0-1.44-2.09,11.41,11.41,0,0,0-2.32-.52l-2.72-.44v-.44c3.64.2,4.8.2,8,.24.4,0,.48-.12.48-.6v-8.7H342.51a17.59,17.59,0,0,0-3.63.28l-.36-1.56a20.52,20.52,0,0,0,4.28.36h13v-4.33Zm3.71-3.45c0,.29-.07.41-.31.49a8.37,8.37,0,0,1-1.64.16c-.61,0-.8-.12-.8-.41v-.24c.19-2.52.19-3.24.19-6.65,0-4.57,0-5.53-.19-7.77a25.84,25.84,0,0,1,3.36,1.92h10.4c.72-.88.92-1.12,1.64-1.92,1.08.72,1.4,1,2.44,1.72.36.28.52.48.52.6,0,.28,0,.28-1.44,1v3.21c0,2.36,0,4.13.08,7.41a.68.68,0,0,1,0,.28.42.42,0,0,1-.2.36,7.17,7.17,0,0,1-1.92.33c-.36,0-.48-.12-.52-.49v-1.2H345.83Zm-1.72,9.42a22,22,0,0,1,5,3.17,2.26,2.26,0,0,1,.64,1.64c0,1.33-.52,2.57-1.12,2.57-.32,0-.44-.16-.88-1a19.46,19.46,0,0,0-4-6Zm13.37-21H345.83v4.05h11.65Zm-11.65,5v4.49h11.65V157.1Z"/><path class="cls-1" d="M389.69,166.32c-2.93,6.73-3.77,9.1-3.77,10.7a4.62,4.62,0,0,0,.25,1.36,3.61,3.61,0,0,1,.08.65,1,1,0,0,1-.88,1c-1.13,0-3.17-1.57-4.41-3.41a18.38,18.38,0,0,1-2.72-8,45.35,45.35,0,0,1-.28-7c0-3.73-.32-4.65-2-6.89h.36c.64,0,1.8.76,3,2a4.82,4.82,0,0,1,1.8,3.17,6.82,6.82,0,0,1-.12,1,31.37,31.37,0,0,0-.72,6,16.9,16.9,0,0,0,.93,5.81,5.73,5.73,0,0,0,2.07,3.13,22.64,22.64,0,0,0,1.33-2.13c1.27-2.16,1.27-2.16,3.36-5.65.64-1,.64-1,1.15-1.92Zm8.52-7.26c5,1.13,9,6.46,9,12,0,1.92-.8,3.17-2,3.17a1.89,1.89,0,0,1-1.2-.45c-.52-.36-1.28-.48-3-.48-.92,0-1.68,0-3,.08l-.12-.6c3.24-.88,5-1.4,5.4-1.52.8-.28.92-.44.92-1.2A14.53,14.53,0,0,0,403,164.8a11,11,0,0,0-5-5.25Z"/><path class="cls-1" d="M430.13,149.81a8.42,8.42,0,0,1,4.44,2.12c.64.64.88,1,.88,1.6s-.2.77-2.32,2.49a99.48,99.48,0,0,0-7.36,6.93c-1.4,1.57-1.92,2.49-1.92,3.25a3.35,3.35,0,0,0,1.2,2.08c.56.6.56.6,2.8,2.65,4.36,4,6.4,6.29,7.36,8.18a5.15,5.15,0,0,1,.6,2.64c0,1.52-.52,2.41-1.36,2.41-.52,0-.68-.2-1.36-1.65a38.25,38.25,0,0,0-3.36-5.65,74.85,74.85,0,0,0-5.84-7.25,5.24,5.24,0,0,1-1.52-3.37c0-1.28.64-2.37,3.08-5.37,4.84-5.89,6-7.58,6-8.54,0-.68-.52-1.28-2.2-2.36A1.86,1.86,0,0,1,430.13,149.81Z"/><path class="cls-1" d="M453.18,156.58c2.12,1.76,3.4,2.16,6.44,2.16a36.5,36.5,0,0,0,5.72-.48c-.16-6.13-.44-6.69-3.48-7.13.56-.56.88-.64,2-.64a11.16,11.16,0,0,1,3.36.52c1,.32,1.36.72,1.36,1.32,0,.24,0,.24-.52,1.36a13,13,0,0,0-.72,4.25c4-.76,6.12-1.44,7.44-2.36a1.14,1.14,0,0,1,.48-.16,5.1,5.1,0,0,1,2.08.68,1.2,1.2,0,0,1,.68,1c0,.56-.64.88-3.12,1.48a65.76,65.76,0,0,1-7.64,1.41c0,1,0,1.64,0,2.56,0,1.08,0,1.89,0,3.65a33.23,33.23,0,0,0,4.56-1.08,6.24,6.24,0,0,0,2-1,.91.91,0,0,1,.6-.17,4.65,4.65,0,0,1,2,.61.82.82,0,0,1,.48.76c0,.72-.56,1-3.08,1.72a43,43,0,0,1-6.52,1.16c.08,1.57.08,2.21.12,3.61s.12,2.13.24,3.13c3.68.68,7.2,2,8.8,3.44a3.49,3.49,0,0,1,1.16,2.65c0,.84-.36,1.4-.88,1.4s-.56-.12-1.6-1.12a22.91,22.91,0,0,0-3.36-2.48,14.05,14.05,0,0,0-4-1.69c.08.88.12,1.28.12,1.77a4,4,0,0,1-1.36,3.36,9,9,0,0,1-5.36,1.49c-4,0-6.76-1.77-6.76-4.29,0-2.85,3.72-4.85,9-4.85.64,0,1,0,2,0,0-1.93,0-2.21,0-2.77v-3.49c-1.6.08-2.36.12-3,.12-2.6,0-4.36-.28-5.32-.88a3.48,3.48,0,0,1-1.8-3c0-.28,0-.69.08-1.13l.6,0c0,1.25.24,1.81.84,2.29s2.36.88,4.68.88a32.94,32.94,0,0,0,3.88-.28v-2.81l-.08-2.92v-.48c-2.2.2-3.8.28-5.16.28-3.8,0-5.44-.76-7.44-3.45Zm8.88,19.72a12.45,12.45,0,0,0-4.36.76c-1.44.56-2.16,1.36-2.16,2.41,0,1.44,1.64,2.28,4.36,2.28a6.62,6.62,0,0,0,4.56-1.44,3.06,3.06,0,0,0,.88-2.09c0-.28.08-1.2.08-1.52v-.12A23.51,23.51,0,0,0,462.06,176.3Z"/><path class="cls-1" d="M491.87,158.38a2.27,2.27,0,0,0,1.8.68c1.12,0,2.12-.2,11.08-2.36,1.68-.44,3.84-.88,6.48-1.4a44.69,44.69,0,0,0,5.4-1.33,5,5,0,0,1,1.4-.32,5.24,5.24,0,0,1,2.16.85c.8.52,1.16,1,1.16,1.52s-.48,1-1.24,1a5.13,5.13,0,0,1-.72,0,5.87,5.87,0,0,0-1.12-.08c-6.84,0-13.44,6.53-13.44,13.27a8.17,8.17,0,0,0,5.28,7.93,12.31,12.31,0,0,0,4.08,1,2,2,0,0,1,1.68.64,3.28,3.28,0,0,1,1.2,1.92c0,.64-.6,1.12-1.44,1.12a16.52,16.52,0,0,1-8.16-2.88,10.66,10.66,0,0,1-4.64-9,14.87,14.87,0,0,1,4.36-9.78c1.6-1.76,3.16-2.85,6.52-4.61a64.17,64.17,0,0,0-11.48,2.81,44.67,44.67,0,0,0-6.4,2.56,2.64,2.64,0,0,1-1.6.56c-1,0-2.16-.92-3.08-2.36a5.74,5.74,0,0,1-1-2.69,1.74,1.74,0,0,1,.44-1.08A4.35,4.35,0,0,0,491.87,158.38ZM515,160.67a21.9,21.9,0,0,1,4,2.2,3.14,3.14,0,0,1,1.56,2.49c0,1.12-.44,2-1,2-.36,0-.44-.12-1.2-1.52a19.17,19.17,0,0,0-3.72-4.65Zm3.84-1.65a17.36,17.36,0,0,1,4,1.61,2.83,2.83,0,0,1,1.76,2.56c0,1.09-.4,1.93-1,1.93-.28,0-.52-.2-.8-.84a13.11,13.11,0,0,0-4.24-4.81Z"/><path class="cls-1" d="M532.72,169A55,55,0,0,0,539.24,157a42.68,42.68,0,0,0,2.52-8.3c4.08,1,4.92,1.25,4.92,1.61s-.36.52-2,.8a69.16,69.16,0,0,1-5,10.1c2.92.64,3.08.68,3.08.92s-.52.6-1.44.92v9.14c.08,4.29.08,4.29.08,7.46,0,2.6,0,2.6.12,4.77v.08a.49.49,0,0,1-.36.52,8,8,0,0,1-2,.2c-.48,0-.6-.12-.6-.52v-.08c.12-3,.12-3,.2-12.43v-9.46a37.5,37.5,0,0,1-5.44,6.54Zm16.16-15.08a22,22,0,0,0-3.28.24l-.24-1.52a30.65,30.65,0,0,0,3.52.36h15.48c1-1.36,1.36-1.76,2.48-3.08,1.52,1.36,2,1.8,3.44,3.32q.24.24.24.36c0,.16-.24.32-.48.32H566.2v17.28c0,3.21,0,3.29.12,6.61,0,2,0,2,.08,3.81v.28a2.26,2.26,0,0,1-1.08,2.13,7.4,7.4,0,0,1-3.56,1.16c-.36-1.36-.52-1.65-1.16-2a17,17,0,0,0-2.6-.64l-1.48-.28c-.48-.08-1-.2-1.44-.28l0-.52c5.68.24,5.68.24,7.56.24.6,0,.8-.16.8-.52v-27.3Zm0,22.29c0,.36-.12.52-.4.6a8.83,8.83,0,0,1-1.68.16c-.48,0-.64-.12-.64-.48v-.12c.08-2.24.08-2.24.08-13,0-.6,0-2.08-.08-4.33,1.2.73,1.56.93,2.72,1.69h6.88A17.35,17.35,0,0,1,557,159c1,.73,1.36.93,2.32,1.69.36.28.48.44.48.56a.48.48,0,0,1-.2.36l-.44.32c-.16.12-.36.24-.64.44V167c0,3,0,4.45.12,7.66,0,.52-.52.68-2,.68-.64,0-.76-.08-.76-.48v-1.73h-6.92Zm0-4h6.92V161.59h-6.92Z"/><path class="cls-1" d="M593,159.31a38.44,38.44,0,0,0-.12-4.13c3.28.2,4,.32,4,.68s-.48.6-1.28.88v2.57h7.84v-1.09a21.65,21.65,0,0,0-.12-3c3.48.2,4,.32,4,.68s-.36.52-1.2.8v2.65h3.2c.92-1.29,1.24-1.65,2.2-2.89,1.84,1.44,2.4,1.88,4.16,3.33a.44.44,0,0,1,.12.24c0,.12-.2.24-.44.24h-9.24c0,5.25,0,5.25,0,7.45,0,.36-.16.4-1,.52-.16,0-1,.08-1.12.08-.32,0-.48-.12-.52-.48v-1.4h-7.84v1.4c0,.32-.12.44-.32.52a9.86,9.86,0,0,1-1.88.24c-.36,0-.52-.12-.52-.4V168c.08-2.08.08-2.08.08-7.81h-6.68l0,3.52c-.16,6.3-1,10.71-2.84,15.12a20.49,20.49,0,0,1-3.52,5.81l-.48-.36a29.48,29.48,0,0,0,3.24-10.1,89.7,89.7,0,0,0,.72-9.38c.12-2.61.2-6.1.2-7.5s0-1.56-.12-4.21c-.08-1.44-.08-1.44-.12-2.64a26.47,26.47,0,0,1,3.44,2.16h10.32v-2.12a22.43,22.43,0,0,0-.16-2.33c3.64.24,4.88.44,4.88.92,0,.33-.4.57-1.72,1.09v2.44h9.6c1-1.32,1.28-1.72,2.36-3,1.76,1.36,2.32,1.8,4.16,3.24a2,2,0,0,1,.16.36c0,.2-.2.28-.64.28H586.41c0,2,0,2-.08,5.74Zm24,21.8c-1.64.52-2.08,1-2.88,3.13a33.85,33.85,0,0,1-14.08-5.13,43,43,0,0,1-17.08,6l-.24-.56a43.74,43.74,0,0,0,15.56-6.7,21.81,21.81,0,0,1-6-6.85h-1.6a21.67,21.67,0,0,0-3.52.2l-.28-1.52a17.87,17.87,0,0,0,3.8.4h14.84c.76-.72,1-.92,1.68-1.65,1.08.85,1.4,1.13,2.32,2,.4.36.56.6.56.76,0,.36-.56.6-1.76.76a28.07,28.07,0,0,1-6.52,6.05,34.84,34.84,0,0,0,7.68,2.09,36.58,36.58,0,0,0,7.48.6ZM593.25,171a19.19,19.19,0,0,0,6.4,5.89,26.29,26.29,0,0,0,5.84-5.89Zm2.36-5.49h7.84v-5.25h-7.84Z"/><path class="cls-1" d="M627.14,158.38a2.27,2.27,0,0,0,1.8.68c1.12,0,2.12-.2,11.08-2.36,1.68-.44,3.84-.88,6.48-1.4a44.69,44.69,0,0,0,5.4-1.33,5,5,0,0,1,1.4-.32,5.24,5.24,0,0,1,2.16.85c.8.52,1.16,1,1.16,1.52s-.48,1-1.24,1a5.13,5.13,0,0,1-.72,0,5.87,5.87,0,0,0-1.12-.08c-6.84,0-13.44,6.53-13.44,13.27a8.17,8.17,0,0,0,5.28,7.93,12.31,12.31,0,0,0,4.08,1,2,2,0,0,1,1.68.64,3.28,3.28,0,0,1,1.2,1.92c0,.64-.6,1.12-1.44,1.12a16.52,16.52,0,0,1-8.16-2.88,10.66,10.66,0,0,1-4.64-9,14.87,14.87,0,0,1,4.36-9.78c1.6-1.76,3.16-2.85,6.52-4.61a64.17,64.17,0,0,0-11.48,2.81,44.67,44.67,0,0,0-6.4,2.56,2.64,2.64,0,0,1-1.6.56c-1,0-2.16-.92-3.08-2.36a5.74,5.74,0,0,1-1-2.69,1.74,1.74,0,0,1,.44-1.08A4.35,4.35,0,0,0,627.14,158.38Zm23.08,2.29a21.9,21.9,0,0,1,4,2.2,3.14,3.14,0,0,1,1.56,2.49c0,1.12-.44,2-1,2-.36,0-.44-.12-1.2-1.52a19.17,19.17,0,0,0-3.72-4.65Zm3.84-1.65a17.36,17.36,0,0,1,4,1.61,2.83,2.83,0,0,1,1.76,2.56c0,1.09-.4,1.93-1,1.93-.28,0-.52-.2-.8-.84a13.11,13.11,0,0,0-4.24-4.81Z"/><path class="cls-1" d="M671.83,155.7a8.7,8.7,0,0,0,2.76,2.88,12,12,0,0,0,4.68,1.73c1.12-5.57,1.24-6.18,1.24-7.14,0-1.36-.56-2.2-2.16-3.32a1.65,1.65,0,0,1,.68-.16,6.13,6.13,0,0,1,3,1.24,4.16,4.16,0,0,1,2.08,2.88,1.73,1.73,0,0,1-.52,1.17c-.68,1-1.12,2-2.2,5.57a2.9,2.9,0,0,1,1.6.88,2.26,2.26,0,0,1,.56,1.32c0,.52-.48.84-1.28.84a9.2,9.2,0,0,1-1.56-.2,47.8,47.8,0,0,0-1.6,7.42,11.09,11.09,0,0,0,2,.28.88.88,0,0,0,.32,0,2.64,2.64,0,0,1,.44,0,2.77,2.77,0,0,1,2.4,2.16c0,.56-.52.93-1.36.93a15.85,15.85,0,0,1-4.24-.73c-.08,1-.12,1.45-.12,2,0,4.09,2.28,6.37,6.32,6.37a7.78,7.78,0,0,0,6.32-2.72,6.78,6.78,0,0,0,1.32-4.09c0-3.33-2.24-7.1-6-10l.44-.52c5.92,3.64,8.44,7,8.44,11.06,0,4.85-4.16,8.54-9.72,8.54a9.15,9.15,0,0,1-5.44-1.65c-2.08-1.56-3.08-4-3.08-7.45,0-.48,0-1,.08-2a9.81,9.81,0,0,1-3.2-2,6,6,0,0,1-1.76-4,4.13,4.13,0,0,1,1.24-2.76,8.35,8.35,0,0,1,3.88-2.13,9.35,9.35,0,0,1-6-6Zm2.36,8.94a2.77,2.77,0,0,0-.88,2c0,1.68,1.36,2.93,4.12,3.77a66.36,66.36,0,0,1,1.2-7.3C676.31,163.23,675.15,163.67,674.19,164.64Z"/><path class="cls-1" d="M718,180.83a5.16,5.16,0,1,1-5.16-5.17A5.17,5.17,0,0,1,718,180.83Zm-9,0a3.92,3.92,0,0,0,3.88,3.89,3.89,3.89,0,1,0-3.88-3.89Z"/></svg>