<svg id="レイヤー_1" data-name="レイヤー 1" xmlns="http://www.w3.org/2000/svg" viewBox="0 0 278.63 62"><defs><style>.cls-1{fill:#004021;}.cls-2{fill:none;stroke:#004021;stroke-miterlimit:10;}</style></defs><title>howto-step1</title><path class="cls-1" d="M5.66,25.61h.92c.32,3.45,1.71,5.08,4.28,5.08A3,3,0,0,0,14.1,28a2.16,2.16,0,0,0,0-.44c0-1.56-.9-2.51-3.78-3.91a18.14,18.14,0,0,1-3-1.63,4.16,4.16,0,0,1-1.89-3.66A4.68,4.68,0,0,1,8.15,14a6.59,6.59,0,0,1,2.94-.53,11.62,11.62,0,0,1,2.81.4,5.58,5.58,0,0,0,.81.09,3.63,3.63,0,0,0,1.38-.33l-.19,5.16H15a5.74,5.74,0,0,0-.78-2.88A3.59,3.59,0,0,0,11,14.11,2.85,2.85,0,0,0,8,16.8a1.61,1.61,0,0,0,0,.31A2.68,2.68,0,0,0,8.79,19a10.55,10.55,0,0,0,3,1.77,12.57,12.57,0,0,1,3.83,2.34,4.41,4.41,0,0,1,1.19,3.2A4.52,4.52,0,0,1,15.2,30,6.7,6.7,0,0,1,11,31.36,13.79,13.79,0,0,1,7.87,31,5.16,5.16,0,0,0,7,30.9a7.83,7.83,0,0,0-1.52.21Z"/><path class="cls-1" d="M26.4,27.43a6,6,0,0,0,.24,2.07,1.23,1.23,0,0,0,1.12.85,2.69,2.69,0,0,0,1.61-.71l.33.57a4.75,4.75,0,0,1-3.16,1.15,2.78,2.78,0,0,1-2.6-1.26c-.27-.58-.34-1.13-.34-3.18V19.75H22.28v-.69a2.43,2.43,0,0,0,2.19-1.22,6,6,0,0,0,.85-2.46l1.15-.12c0,1-.07,1.66-.07,3.75h2.79v.74H26.4Z"/><path class="cls-1" d="M37.27,24.53a9.15,9.15,0,0,0,.6,3.66A3.32,3.32,0,0,0,41,30.46a4.26,4.26,0,0,0,3.8-2.62l.57.37a5.2,5.2,0,0,1-5.06,3.15c-3.66,0-6-2.46-6-6.3s2.28-6.39,5.78-6.39a4.7,4.7,0,0,1,4.77,3,8.74,8.74,0,0,1,.41,2.83Zm5.11-.67A8.94,8.94,0,0,0,42,21c-.44-1.22-1.08-1.79-2-1.79s-1.75.69-2.23,2a10.26,10.26,0,0,0-.49,2.64Z"/><path class="cls-1" d="M54.47,20.48a4.44,4.44,0,0,1,3.73-1.81c3.08,0,4.83,2.18,4.83,6a8.08,8.08,0,0,1-1.42,4.95,5,5,0,0,1-3.89,1.7,4.3,4.3,0,0,1-3.2-1.24v3.19c0,2,.13,2.23,1.88,2.3v.55H50v-.55c1.61,0,1.75-.25,1.75-2.3V21.8c0-2-.21-2.21-1.75-2.24V19l4.49-.3Zm.6,8.74a2.41,2.41,0,0,0,2.12,1.47C59.05,30.69,60,28.81,60,25s-.87-5.61-2.51-5.61c-1.89,0-3,2.23-3,5.91A9.36,9.36,0,0,0,55.07,29.22Z"/><path class="cls-1" d="M74.81,39.43c2.32,0,3-.15,3.78-.6,1.15-.61,1.51-1.91,1.51-5.13V10.57a14.35,14.35,0,0,0-.16-3c-.2-1.1-.85-1.35-3.42-1.35H75.16V4.79c4.78-.4,8.46-.91,11.78-1.51Q86.49,8.64,86.49,16V33.7c0,3.06.3,4.32,1.2,5,.71.55,1.31.65,3.88.7v1.41H74.81Z"/><path class="cls-1" d="M177.84,37.37c0,2.94.32,3.26,3.33,3.33v.83H170.33V40.7c3-.07,3.29-.39,3.29-3.33V18.46c-2.85.06-4.35.57-5.47,1.85-.89,1-1.44,2.65-1.92,5.5l-1.15-.07.61-8.11h20.12l.61,8.11-1.16.07c-.51-3.1-1.15-4.76-2.2-5.75s-2.56-1.54-5.22-1.6Z"/><path class="cls-1" d="M209.22,41.43c-1.89.22-3.58.38-4.41.38-1,0-1.35-.47-1.51-2.42A7.09,7.09,0,0,1,197.84,42c-3,0-4.93-1.82-4.93-4.69s1.69-4.44,5.12-5.11a36.89,36.89,0,0,1,5.24-.61V29.48c0-3.39-.57-4.38-2.49-4.38a2.21,2.21,0,0,0-2.15,1.09,4.81,4.81,0,0,0-.51,2.27c-.06,1.15-.61,1.56-2,1.56s-2.24-.51-2.24-1.47a3.69,3.69,0,0,1,2-3,9.86,9.86,0,0,1,5.24-1.21c2.21,0,3.78.41,4.74,1.31s1.24,2,1.24,4v7.29c0,3.51.12,3.7,2.17,3.73Zm-5.95-9.14c-4.64.35-6.27,1.54-6.27,4.51,0,2.27,1,3.77,2.59,3.77a3.5,3.5,0,0,0,3.11-2.11,8.27,8.27,0,0,0,.57-3.71Z"/><path class="cls-1" d="M221.63,26.89a6.14,6.14,0,0,1,5.18-2.52c4.29,0,6.72,3,6.72,8.37a11.08,11.08,0,0,1-2,6.87A6.92,6.92,0,0,1,226.14,42a6,6,0,0,1-4.44-1.72v4.44c0,2.84.19,3.1,2.62,3.2v.76H215.4v-.76c2.23-.07,2.43-.36,2.43-3.2v-16c0-2.71-.29-3.06-2.43-3.09v-.77l6.23-.42ZM222.46,39a3.41,3.41,0,0,0,2.95,2c2.59,0,3.87-2.62,3.87-7.89,0-5.11-1.22-7.8-3.49-7.8-2.62,0-4.22,3.1-4.22,8.21A13.3,13.3,0,0,0,222.46,39Z"/><line class="cls-2" y1="61.5" x2="97" y2="61.5"/><polygon class="cls-2" points="264 61.5 126 61.5 140 0.5 278 0.5 264 61.5"/></svg>