<svg id="レイヤー_1" data-name="レイヤー 1" xmlns="http://www.w3.org/2000/svg" viewBox="0 0 278.63 62"><defs><style>.cls-1{fill:#004021;}.cls-2{fill:none;stroke:#004021;stroke-miterlimit:10;}</style></defs><title>howto-step2</title><path class="cls-1" d="M5.66,25.13h.92c.32,3.45,1.71,5.08,4.28,5.08a3,3,0,0,0,3.25-2.73,3.84,3.84,0,0,0,0-.48c0-1.56-.9-2.51-3.78-3.91a18.14,18.14,0,0,1-3-1.63A4.16,4.16,0,0,1,5.44,17.8a4.67,4.67,0,0,1,2.72-4.3,6.84,6.84,0,0,1,2.93-.5,12.12,12.12,0,0,1,2.81.39,3.74,3.74,0,0,0,.81.1,3.63,3.63,0,0,0,1.38-.33l-.19,5.16H15a5.74,5.74,0,0,0-.78-2.88A3.58,3.58,0,0,0,11,13.63a2.85,2.85,0,0,0-3,2.69,1.61,1.61,0,0,0,0,.31,2.7,2.7,0,0,0,.76,1.94,10.55,10.55,0,0,0,3,1.77,12.57,12.57,0,0,1,3.83,2.34,4.41,4.41,0,0,1,1.19,3.2,4.52,4.52,0,0,1-1.61,3.7A6.71,6.71,0,0,1,11,30.88a13.58,13.58,0,0,1-3.11-.39A5.26,5.26,0,0,0,7,30.42a7.83,7.83,0,0,0-1.52.21Z"/><path class="cls-1" d="M26.4,27a6.13,6.13,0,0,0,.24,2,1.23,1.23,0,0,0,1.12.85,2.69,2.69,0,0,0,1.61-.71l.33.57a4.75,4.75,0,0,1-3.16,1.15,2.78,2.78,0,0,1-2.6-1.26c-.27-.58-.34-1.13-.34-3.18V19.27H22.28v-.69a2.43,2.43,0,0,0,2.19-1.22,6,6,0,0,0,.85-2.46l1.15-.12c0,1-.07,1.66-.07,3.75h2.79v.74H26.4Z"/><path class="cls-1" d="M37.27,24.05a9.15,9.15,0,0,0,.6,3.66A3.31,3.31,0,0,0,41,30a4.26,4.26,0,0,0,3.8-2.62l.57.37a5.21,5.21,0,0,1-5.06,3.15c-3.66,0-6-2.46-6-6.3s2.28-6.39,5.78-6.39a4.7,4.7,0,0,1,4.77,3A8.74,8.74,0,0,1,45.27,24Zm5.11-.67A9,9,0,0,0,42,20.51c-.44-1.22-1.08-1.79-2-1.79s-1.75.69-2.23,2a10.26,10.26,0,0,0-.49,2.64Z"/><path class="cls-1" d="M54.47,20a4.44,4.44,0,0,1,3.73-1.81c3.08,0,4.83,2.18,4.83,6a8.08,8.08,0,0,1-1.42,4.95,5,5,0,0,1-3.89,1.7,4.3,4.3,0,0,1-3.2-1.24v3.19c0,2,.13,2.23,1.88,2.3v.55H50v-.55c1.61,0,1.75-.25,1.75-2.3V21.31c0-1.95-.21-2.2-1.75-2.23v-.55l4.49-.3Zm.6,8.74a2.41,2.41,0,0,0,2.12,1.47c1.86,0,2.78-1.88,2.78-5.68s-.87-5.61-2.51-5.61c-1.89,0-3,2.23-3,5.91A9.33,9.33,0,0,0,55.07,28.74Z"/><path class="cls-1" d="M70.18,40.36a21.79,21.79,0,0,1,3.37-9.81c1.92-2.91,4.23-5.28,10-10a14.91,14.91,0,0,0,4.17-4.63,10.29,10.29,0,0,0,1.06-4.62c0-4.43-2.39-7.3-6-7.3a4.56,4.56,0,0,0-4.68,3.36c-.4,1.26-.45,1.76-.55,4.58-.1,2-1,2.77-3.22,2.77-2.42,0-3.58-.86-3.58-2.67A8.68,8.68,0,0,1,75,5a14.59,14.59,0,0,1,8.32-2.3c7.6,0,12.13,3.47,12.13,9.3a9.33,9.33,0,0,1-2.27,6.34,21.33,21.33,0,0,1-5.54,4.12C81,26.18,79.49,27.18,77.18,29.3a13.41,13.41,0,0,0-4,5.68H87.8c4.12,0,5.58-1.31,6.49-5.84L96,29.5,94.24,40.36Z"/><line class="cls-2" y1="61.5" x2="97" y2="61.5"/><path class="cls-1" d="M189.87,37.37c0,2.94.32,3.26,3.33,3.33v.83H182.35V40.7c3-.07,3.3-.39,3.3-3.33V18.46c-2.85.06-4.35.57-5.47,1.85-.9,1-1.44,2.65-1.92,5.5l-1.15-.07.61-8.11h20.11l.61,8.11-1.15.07c-.51-3.1-1.15-4.76-2.21-5.75s-2.56-1.54-5.21-1.6Z"/><path class="cls-1" d="M207.53,26.64a8.21,8.21,0,0,1,6-2.27c5,0,8.28,3.45,8.28,8.75a9.68,9.68,0,0,1-2.11,6.33A8.54,8.54,0,0,1,213.35,42a8.18,8.18,0,0,1-6-2.43,9.5,9.5,0,0,1-2.2-6.29A9.79,9.79,0,0,1,207.53,26.64Zm5.95,14.66c2.78,0,4-2.49,4-8s-1.28-8.15-4.07-8.15a3.16,3.16,0,0,0-3,1.86,14.28,14.28,0,0,0-1,6.2C209.45,38.68,210.72,41.3,213.48,41.3Z"/><polygon class="cls-2" points="264 61.5 126 61.5 140 0.5 278 0.5 264 61.5"/></svg>