<svg id="レイヤー_1" data-name="レイヤー 1" xmlns="http://www.w3.org/2000/svg" viewBox="0 0 278.63 62"><defs><style>.cls-1{fill:#004021;}.cls-2{fill:none;stroke:#004021;stroke-miterlimit:10;}</style></defs><title>howto-step4</title><path class="cls-1" d="M5.66,25.33h.92c.32,3.45,1.71,5.08,4.28,5.08a3,3,0,0,0,3.25-3.17c0-1.56-.9-2.51-3.78-3.91a18.11,18.11,0,0,1-3-1.63A4.18,4.18,0,0,1,5.43,18a4.67,4.67,0,0,1,2.72-4.3,6.7,6.7,0,0,1,2.94-.53,12.23,12.23,0,0,1,2.81.39,3.78,3.78,0,0,0,.81.1,3.65,3.65,0,0,0,1.38-.33l-.19,5.15H15a5.76,5.76,0,0,0-.78-2.87A3.57,3.57,0,0,0,11,13.83a2.85,2.85,0,0,0-3,3,2.66,2.66,0,0,0,.76,1.93,10,10,0,0,0,3,1.77,12.7,12.7,0,0,1,3.83,2.35,4.39,4.39,0,0,1,1.19,3.2,4.56,4.56,0,0,1-1.61,3.7A6.71,6.71,0,0,1,11,31.08a14,14,0,0,1-3.11-.39A4.94,4.94,0,0,0,7,30.62a7.61,7.61,0,0,0-1.52.21Z"/><path class="cls-1" d="M26.4,27.15a6.06,6.06,0,0,0,.24,2.07,1.24,1.24,0,0,0,1.12.85,2.72,2.72,0,0,0,1.61-.72l.33.58a4.76,4.76,0,0,1-3.16,1.15,2.77,2.77,0,0,1-2.6-1.27c-.27-.57-.34-1.12-.34-3.17V19.47H22.28v-.69a2.45,2.45,0,0,0,2.19-1.22,6.07,6.07,0,0,0,.85-2.46L26.47,15c0,.95-.07,1.66-.07,3.75h2.79v.74H26.4Z"/><path class="cls-1" d="M37.27,24.25a9.05,9.05,0,0,0,.6,3.66A3.32,3.32,0,0,0,41,30.18a4.27,4.27,0,0,0,3.8-2.62l.57.37a5.21,5.21,0,0,1-5.06,3.15c-3.66,0-6-2.46-6-6.3s2.28-6.39,5.78-6.39a4.69,4.69,0,0,1,4.77,3,8.62,8.62,0,0,1,.41,2.83Zm5.11-.67A8.85,8.85,0,0,0,42,20.71c-.44-1.22-1.08-1.8-2-1.8s-1.75.69-2.23,2a10.11,10.11,0,0,0-.49,2.64Z"/><path class="cls-1" d="M54.47,20.2a4.4,4.4,0,0,1,3.73-1.81c3.08,0,4.83,2.18,4.83,6a8,8,0,0,1-1.42,4.94,5,5,0,0,1-3.89,1.71,4.3,4.3,0,0,1-3.2-1.25V33c0,2.05.13,2.23,1.88,2.3v.55H50v-.55c1.61-.05,1.75-.25,1.75-2.3V21.51c0-2-.21-2.2-1.75-2.23v-.55l4.49-.3Zm.6,8.74a2.44,2.44,0,0,0,2.12,1.47c1.86,0,2.78-1.88,2.78-5.68s-.87-5.61-2.51-5.61c-1.89,0-3,2.23-3,5.91A9.39,9.39,0,0,0,55.07,28.94Z"/><path class="cls-1" d="M90.66,34.22c0,4.17.66,4.88,4.53,4.93v1.41H80V39.2c2.37-.1,2.92-.2,3.53-.71s1.05-1.86,1.05-4.27V30.65H68.37V28.24L86,3.25h4.68V28.39h5.39v2.26H90.66Zm-6-25.74-14,19.91h14Z"/><line class="cls-2" y1="61.5" x2="97" y2="61.5"/><path class="cls-1" d="M199.24,34.4a65,65,0,0,0-1.82-14,9.58,9.58,0,0,1-.19-1.5c0-1.28.86-1.86,2.68-1.86s2.66.58,2.66,1.86c0,.67,0,.67-.67,3.86a65.1,65.1,0,0,0-1.35,11.63Zm3.3,4.92a2.66,2.66,0,1,1-2.66-2.65A2.61,2.61,0,0,1,202.54,39.32Z"/><polygon class="cls-2" points="264 61.5 126 61.5 140 0.5 278 0.5 264 61.5"/></svg>