<svg id="レイヤー_1" data-name="レイヤー 1" xmlns="http://www.w3.org/2000/svg" viewBox="0 0 278.63 62"><defs><style>.cls-1{fill:#004021;}.cls-2{fill:none;stroke:#004021;stroke-miterlimit:10;}</style></defs><title>howto-step3</title><path class="cls-1" d="M5.66,26.66h.92c.32,3.45,1.71,5.08,4.28,5.08a3,3,0,0,0,3.25-3.17c0-1.57-.9-2.51-3.78-3.91a18.62,18.62,0,0,1-3-1.64,4.16,4.16,0,0,1-1.89-3.65,4.66,4.66,0,0,1,2.72-4.3,6.7,6.7,0,0,1,2.94-.53,11.67,11.67,0,0,1,2.81.39,3.69,3.69,0,0,0,.81.09,3.79,3.79,0,0,0,1.38-.32l-.19,5.15H15A5.76,5.76,0,0,0,14.2,17,3.55,3.55,0,0,0,11,15.16a2.85,2.85,0,0,0-3,3,2.68,2.68,0,0,0,.76,1.93,10.26,10.26,0,0,0,3,1.77,12.31,12.31,0,0,1,3.83,2.35,4.38,4.38,0,0,1,1.19,3.19,4.56,4.56,0,0,1-1.61,3.71A6.71,6.71,0,0,1,11,32.41,13.51,13.51,0,0,1,7.87,32,6.15,6.15,0,0,0,7,32a7.37,7.37,0,0,0-1.52.2Z"/><path class="cls-1" d="M26.4,28.47a6,6,0,0,0,.24,2.07,1.23,1.23,0,0,0,1.12.85,2.7,2.7,0,0,0,1.61-.71l.33.58a4.76,4.76,0,0,1-3.16,1.15,2.77,2.77,0,0,1-2.6-1.27c-.27-.57-.34-1.13-.34-3.17V20.79H22.28V20.1a2.43,2.43,0,0,0,2.19-1.22,6,6,0,0,0,.85-2.46l1.15-.11c0,.94-.07,1.65-.07,3.75h2.79v.73H26.4Z"/><path class="cls-1" d="M37.27,25.58a9,9,0,0,0,.6,3.65A3.32,3.32,0,0,0,41,31.51a4.27,4.27,0,0,0,3.8-2.62l.57.37a5.21,5.21,0,0,1-5.06,3.15c-3.66,0-6-2.46-6-6.3s2.28-6.4,5.78-6.4a4.69,4.69,0,0,1,4.77,3,8.62,8.62,0,0,1,.41,2.83Zm5.11-.67A9,9,0,0,0,42,22c-.44-1.21-1.08-1.79-2-1.79s-1.75.69-2.23,2a10.2,10.2,0,0,0-.49,2.65Z"/><path class="cls-1" d="M54.47,21.53a4.41,4.41,0,0,1,3.73-1.82c3.08,0,4.83,2.19,4.83,6a8,8,0,0,1-1.42,4.94,5,5,0,0,1-3.89,1.7,4.29,4.29,0,0,1-3.2-1.24v3.2c0,2,.13,2.23,1.88,2.3v.55H50v-.55c1.61,0,1.75-.26,1.75-2.3V22.84c0-1.95-.21-2.21-1.75-2.23v-.55l4.49-.3Zm.6,8.74a2.44,2.44,0,0,0,2.12,1.47c1.86,0,2.78-1.89,2.78-5.68s-.87-5.61-2.51-5.61c-1.89,0-3,2.23-3,5.91A9.42,9.42,0,0,0,55.07,30.27Z"/><path class="cls-1" d="M84,22.63c7.65.6,11.58,3.92,11.58,9.7,0,6.43-5,10.36-13.14,10.36-7.15,0-12.33-3.27-12.33-7.8,0-1.91,1.41-3,3.77-3a3.06,3.06,0,0,1,2.57.95c.3.4.3.5.4,2.82a7.87,7.87,0,0,0,1.36,4,5.26,5.26,0,0,0,4.13,1.71c4.18,0,6.54-3.37,6.54-9.2,0-3.47-.95-6-2.77-7.29a11.94,11.94,0,0,0-6.54-1.61H78V21.72h1.41c5.69,0,8.66-3,8.66-8.7,0-4.87-1.86-7.49-5.44-7.49a4.15,4.15,0,0,0-4,2.11,9.31,9.31,0,0,0-1,4.08c-.05,1.65-.15,2-.6,2.51a3.73,3.73,0,0,1-2.62.75c-2.32,0-3.52-.85-3.52-2.46,0-4.68,5.18-8.3,11.87-8.3a14.19,14.19,0,0,1,9,2.77,8.21,8.21,0,0,1,2.77,6.18c0,4.93-3.83,8.2-10.57,9Z"/><line class="cls-2" y1="61.5" x2="97.09" y2="61.5"/><path class="cls-1" d="M199.58,30.38v.83c-1.15,0-1.67.16-2,.51s-.48,1-.48,2.84v2.72c0,1.66,0,2.17.1,3.19a16.4,16.4,0,0,0-3.78.71,17.93,17.93,0,0,1-5.27.86c-7,0-11.13-4.47-11.13-12,0-7.83,4.47-12.84,11.41-12.84a17.59,17.59,0,0,1,4.93.73,5.48,5.48,0,0,0,1.44.19,4.58,4.58,0,0,0,1.89-.41v7.41l-1.19,0a9.57,9.57,0,0,0-1.6-4.34A6.23,6.23,0,0,0,188.67,18a5.89,5.89,0,0,0-5.56,3.58,18,18,0,0,0-1.51,7.77c0,4.44,1.12,8.24,3,10.16a5.67,5.67,0,0,0,4.06,1.59,8.17,8.17,0,0,0,3.13-.67,3.08,3.08,0,0,0,1.31-.8V34.21c0-2.62-.28-2.91-2.94-3v-.83Z"/><path class="cls-1" d="M208.92,26.64a8.22,8.22,0,0,1,6-2.27c5,0,8.28,3.45,8.28,8.75a9.72,9.72,0,0,1-2.11,6.33A8.51,8.51,0,0,1,214.74,42a8.15,8.15,0,0,1-6-2.43,9.41,9.41,0,0,1-2.21-6.29A9.82,9.82,0,0,1,208.92,26.64Zm6,14.66c2.78,0,4-2.49,4-8s-1.28-8.15-4.06-8.15a3.16,3.16,0,0,0-3,1.86,14.16,14.16,0,0,0-1,6.2C210.84,38.68,212.12,41.3,214.87,41.3Z"/><polygon class="cls-2" points="264 61.5 126 61.5 140 0.5 278 0.5 264 61.5"/></svg>