<svg xmlns="http://www.w3.org/2000/svg" viewBox="0 0 180 34"><defs><style>.cls-1{isolation:isolate;}.cls-2{fill:#231815;}.cls-3{mix-blend-mode:multiply;}</style></defs><title>icon-shokai</title><g class="cls-1"><g id="レイヤー_1" data-name="レイヤー 1"><path class="cls-2" d="M39.76,17.25l.73.23a13.75,13.75,0,0,0,1.39-2.33,9.81,9.81,0,0,1,1.18.44c.1,0,.14.08.14.15a.12.12,0,0,1-.07.1,2.18,2.18,0,0,1-.61.16c-.49.48-1.23,1.12-1.78,1.56a5.34,5.34,0,0,1,1.31.63.72.72,0,0,1,.35.68c0,.36-.16.69-.31.69s-.18-.09-.28-.23l-.52-.59a6.76,6.76,0,0,0-1.53-1.19v2c0,.52,0,2.29.07,3.66,0,.09,0,.12-.1.15a2.82,2.82,0,0,1-.71.08c-.16,0-.2,0-.23-.15.06-.91.1-2.65.1-3.74V17.11a14.36,14.36,0,0,1-2.64,2.29l-.18-.17a20.8,20.8,0,0,0,2.51-2.75,19.93,19.93,0,0,0,1.92-3.05H37.7a8.7,8.7,0,0,0-1.07.1l-.1-.55a5.47,5.47,0,0,0,1.17.12h1.19V11.72c0-.73-.08-1.18-.1-1.35,1.32.17,1.52.21,1.52.34s-.17.2-.55.35v2h.74c.28-.29.37-.37.66-.64a6,6,0,0,1,.9.74c.07.07.1.1.1.15a.14.14,0,0,1-.07.1,2.51,2.51,0,0,1-.59.25,27.32,27.32,0,0,1-1.74,2.43Zm5.86-4.54a18.11,18.11,0,0,1-1,5.48,10.16,10.16,0,0,1-2.56,3.93,7.9,7.9,0,0,1-1.62,1.18l-.12-.19a11,11,0,0,0,2.37-2.72,15.85,15.85,0,0,0,1.93-7.68h-1a6,6,0,0,0-1.18.09l-.1-.53a5.68,5.68,0,0,0,1.28.12h4.15a3.4,3.4,0,0,1,.52-.6c.41.27.53.36.91.65.1.1.14.16.14.19s-.11.17-.56.47a44.13,44.13,0,0,1-.56,7.56c-.18,1.1-.46,1.77-.86,2a3.16,3.16,0,0,1-1.52.43c-.1-.47-.26-.65-.66-.75a9.26,9.26,0,0,0-1.39-.27v-.23c1.6.13,2.05.16,2.48.16s.58-.08.69-.36a16.1,16.1,0,0,0,.56-3.21,43.93,43.93,0,0,0,.27-4.68c0-.43,0-.52,0-1.06Z"/><path class="cls-2" d="M54.22,23.17c-.06.2-.17.23-.76.23-.24,0-.28,0-.28-.18.07-1.3.08-3.21.08-7.92,0-1.28,0-3.37-.08-4.56.52.3.67.38,1.19.71h8.87a9.46,9.46,0,0,1,.7-.71c.41.31.52.41.9.71.07.1.09.14.09.2s-.18.25-.54.45v1.21c0,7.24,0,7.72,0,9.73,0,.2-.16.26-.66.27h-.14c-.14,0-.22-.06-.23-.19V22.4H54.22Zm0-1.1h9.19V11.78H54.22ZM57,19.78c0,.17-.12.22-.51.22h-.25c-.13,0-.2-.06-.2-.18,0-1.18,0-1.78,0-3.15s0-2.1,0-3a5,5,0,0,1,1.06.66h3.16l.55-.57.71.58c.1.09.14.14.14.19s-.1.15-.36.3v.58c0,1.07,0,3.58,0,4.05,0,.2-.16.26-.61.27h-.12c-.14,0-.2,0-.21-.17v-.78H57Zm0-1.28h3.41V14.71H57Z"/><path class="cls-2" d="M69.67,18.16a5.84,5.84,0,0,0,0,.64c0,1.69,1.05,2.49,3.31,2.49a9.4,9.4,0,0,0,3.1-.51.57.57,0,0,1,.24-.06,1.64,1.64,0,0,1,.77.29.68.68,0,0,1,.31.49c0,.22-.16.37-.45.44a15.24,15.24,0,0,1-3.27.29,5.71,5.71,0,0,1-3.27-.68,2.74,2.74,0,0,1-1.16-2.24,4.1,4.1,0,0,1,.22-1.21Zm.43-5.62a3.24,3.24,0,0,0,2.15.63,10.67,10.67,0,0,0,2.92-.43l.25-.05a1,1,0,0,1,.84.74c0,.24-.08.29-1,.49a11.77,11.77,0,0,0-2,.7L72,15.1a5,5,0,0,1-.55.23l-.1-.21c.44-.26.66-.4,1-.6l1.18-.67c-.31,0-.8,0-1.06,0A3.72,3.72,0,0,1,71,13.51a3.32,3.32,0,0,1-1-.82Zm6.33-.95c1.36.56,2.12,1.18,2.12,1.76,0,.37-.17.72-.37.72S78,14,77.9,13.78a6.29,6.29,0,0,0-1.55-2Zm1.26-.85a5.6,5.6,0,0,1,1.73.81.84.84,0,0,1,.42.75c0,.43-.13.74-.31.74s-.2-.1-.32-.34a5.87,5.87,0,0,0-1.6-1.82Z"/><path class="cls-2" d="M90.38,16.91a13.91,13.91,0,0,0,1.71-3.58c1.34.54,1.36.55,1.36.65s-.09.16-.54.19a16.46,16.46,0,0,1-2.21,2.74h2.84c.32-.44.42-.58.78-1a17.7,17.7,0,0,1,1.41,1.21l0,.07c0,.06,0,.06-.17.06H89.86A7.37,7.37,0,0,0,92,19.71a12,12,0,0,0,2.65,1.51,7.15,7.15,0,0,0,1.3.41l0,.14c-.61.15-.79.3-1,1a10.33,10.33,0,0,1-2.81-2,11.34,11.34,0,0,1-2.34-3.16v2.18c0,.85,0,.95,0,2.17,0,.67,0,.67,0,1.28,0,.15-.09.18-.39.2-.07,0-.45,0-.48,0s-.23,0-.24-.17c0-.56,0-.56.11-3.18v-2a13.3,13.3,0,0,1-2.8,2.9A13.92,13.92,0,0,1,82.92,23l-.14-.2a15.93,15.93,0,0,0,3.66-3.06,11.67,11.67,0,0,0,1.84-2.47h-4a7.54,7.54,0,0,0-1.19.07L83,16.74a5.76,5.76,0,0,0,1.36.17h4.49v-4H85.18a11.67,11.67,0,0,0-1.32.07l-.13-.52a6.36,6.36,0,0,0,1.57.12h3.55v-.46a13.11,13.11,0,0,0-.11-1.75c1.23.14,1.63.22,1.63.39s-.16.22-.58.32v1.5h3.12c.31-.44.4-.56.74-1,.6.48.79.64,1.36,1.17a.18.18,0,0,1,.06.08s-.06.07-.13.07H89.79v4Zm-4.8-3.64c1.2,1,1.8,1.69,1.8,2.18s-.35,1-.62,1-.14,0-.24-.41a8.11,8.11,0,0,0-1.06-2.67Z"/><path class="cls-2" d="M102.37,14.75c.29-.36.38-.47.67-.8a12,12,0,0,1,1,.9c.06.07.09.1.09.14s-.06.09-.16.09h-2.23v3.59c.62-.25.89-.38,1.6-.72l.1.2c-.8.58-1.25.89-1.63,1.12L100,20.39c0,.53-.07.7-.21.7s-.11,0-.15-.14-.2-.48-.55-1.38a15,15,0,0,0,1.71-.56V15.08H100a3.81,3.81,0,0,0-.9.07l-.1-.52a3.3,3.3,0,0,0,1,.12h.81V12.23a11.77,11.77,0,0,0-.06-1.32c1.37.17,1.53.21,1.53.35s-.12.19-.56.3v3.19Zm4.82,3.84a8.44,8.44,0,0,1-1.53,1.9,9.39,9.39,0,0,1-3.47,2l-.12-.21a9.75,9.75,0,0,0,3-2.08,7.41,7.41,0,0,0,1.15-1.63H105a12.06,12.06,0,0,1-3.25,2.25l-.12-.22a9.49,9.49,0,0,0,2.39-2A7.59,7.59,0,0,0,105.15,17H104a5.53,5.53,0,0,0-1.16.08l-.1-.54a4.79,4.79,0,0,0,1.26.13h6c.35-.38.46-.5.81-.85a14.1,14.1,0,0,1,1.15.95c.06.06.08.1.08.14s0,.09-.16.09h-5.66c-.48.72-.62.91-.92,1.29h4.79a6.58,6.58,0,0,1,.52-.53,7.14,7.14,0,0,1,.82.63c.08.06.11.11.11.16s-.13.21-.45.35a14.72,14.72,0,0,1-.74,3.77,2,2,0,0,1-1.55.84c-.12-.72-.28-.82-1.67-1l0-.25c.85.09,1.44.13,1.81.13s.5-.07.63-.35a14.1,14.1,0,0,0,.56-3.4h-.73A7.79,7.79,0,0,1,107.84,21a11.23,11.23,0,0,1-2.48,1.86,14,14,0,0,1-1.41.67l-.14-.2a10.71,10.71,0,0,0,3.29-2.6,7,7,0,0,0,1.34-2.16Zm-1.76-2.86c0,.2-.16.26-.66.26-.2,0-.26-.05-.26-.19,0-1,0-1.52,0-2,0-1.69,0-2.56,0-3.07a10,10,0,0,1,1.07.62h3.27c.24-.25.31-.34.55-.58.36.26.47.34.8.6.09.08.14.14.14.2s0,.12-.45.34v.84c0,.58,0,1.33,0,2.86a.18.18,0,0,1-.14.21,3.18,3.18,0,0,1-.59.07c-.13,0-.19,0-.19-.16v-.35h-3.57Zm3.57-4h-3.57v1.47H109Zm-3.57,1.79v1.58H109V13.48Z"/><path class="cls-2" d="M121,22.09a6.41,6.41,0,0,0,3.28-2,5.09,5.09,0,0,0,1.25-3.43,3.54,3.54,0,0,0-1.59-3.14,4.6,4.6,0,0,0-2.42-.65,4.71,4.71,0,0,0-.5,0,1.87,1.87,0,0,1,.44,1.18A11.83,11.83,0,0,1,119.59,19c-.89,1.43-1.57,2.12-2.09,2.12a.81.81,0,0,1-.62-.29,2.94,2.94,0,0,1-.39-.91,8.76,8.76,0,0,0-.62-1.34,2.83,2.83,0,0,1-.32-1.3,4.45,4.45,0,0,1,1.26-2.81,6.74,6.74,0,0,1,4.83-2,5.3,5.3,0,0,1,3.62,1.31,4.38,4.38,0,0,1,1.34,3.34,4.91,4.91,0,0,1-2.79,4.31,8.18,8.18,0,0,1-2.74.88Zm-4.62-4.43a3.36,3.36,0,0,0,.56,1.88c.2.26.38.41.54.41s1-.76,1.66-1.87a11.13,11.13,0,0,0,1.79-4.4,1.71,1.71,0,0,0-.2-.71A5.13,5.13,0,0,0,116.36,17.66Z"/><path class="cls-2" d="M140.93,13.31l.84-1.09c.61.49.79.65,1.38,1.18a.23.23,0,0,1,.08.14c0,.06-.07.1-.17.1h-6.94A15.88,15.88,0,0,1,136,16h4c.23-.31.3-.4.54-.68.39.3.51.4.89.68.14.13.19.19.19.23s0,.08-.5.43a20.7,20.7,0,0,1-.87,5.39c-.35.79-.67,1-2.14,1.16-.09-.79-.24-.87-2.58-1.31v-.2c1.29.13,2.72.25,3.24.25.29,0,.39-.05.5-.19.37-.52.73-2.94.83-5.43H135.9a10.2,10.2,0,0,1-1.09,3.27,8.28,8.28,0,0,1-2.84,3,9.23,9.23,0,0,1-1.42.72l-.11-.25a8.05,8.05,0,0,0,3-2.73c1.14-1.73,1.63-3.71,1.69-6.68h-3.17a8.53,8.53,0,0,0-1.24.1l-.14-.57.38.06a7.15,7.15,0,0,0,1,.08h4.21V11.65a8.39,8.39,0,0,0-.09-1c1.29.13,1.66.22,1.66.39s-.1.14-.6.32v2Z"/><g class="cls-3"><path class="cls-2" d="M179.7.3V33.7H.3V.3H179.7M180,0H0V34H180V0Z"/></g></g></g></svg>