<svg id="レイヤー_1" data-name="レイヤー 1" xmlns="http://www.w3.org/2000/svg" viewBox="0 0 224 48"><defs><style>.cls-1{fill:#231815;}</style></defs><title>icon-osusume</title><path class="cls-1" d="M16.53,25.86c0,.45-.06.63-.06.92,0,2.43,1.53,3.57,4.82,3.57a13.71,13.71,0,0,0,4.51-.73.86.86,0,0,1,.35-.09,2.52,2.52,0,0,1,1.13.41,1,1,0,0,1,.45.72c0,.31-.23.53-.66.63a23.08,23.08,0,0,1-4.76.41c-2.29,0-3.74-.29-4.76-1a3.92,3.92,0,0,1-1.7-3.23,5.54,5.54,0,0,1,.33-1.71Zm.63-8.07a4.82,4.82,0,0,0,3.13.9,15.87,15.87,0,0,0,4.25-.62,1.92,1.92,0,0,1,.37-.08,1.39,1.39,0,0,1,1.22,1.06c0,.35-.12.41-1.49.72a15.88,15.88,0,0,0-3,1c-.49.18-.49.18-1.68.69-.41.17-.41.19-.8.33L19,21.48c.64-.36,1-.57,1.49-.85,1.39-.76,1.39-.76,1.72-1-.45,0-1.16.06-1.53.06a5.66,5.66,0,0,1-2.33-.55A5.23,5.23,0,0,1,17,18Z"/><path class="cls-1" d="M50.73,25.39a11.73,11.73,0,0,1-2,4.55,5.44,5.44,0,0,1-4.09,2.43,2.89,2.89,0,0,1-1.76-.59c-.57-.47-.75-1.08-.9-2.76a8.31,8.31,0,0,0-.36-2.2,1.36,1.36,0,0,0-1.39-1c-1.76,0-3.6,2-4.76,5.29-.37,1-.43,1.14-.74,1.14s-.41-.2-.55-.55a4.34,4.34,0,0,1-.27-1.12,1,1,0,0,1,.29-.7,61.39,61.39,0,0,0,4.08-7.31c1.29-2.51,1.88-4,1.88-4.6s-.32-1-1.38-1.51a1.14,1.14,0,0,1,.57-.18,4.35,4.35,0,0,1,2.08.91c.51.35.7.6.7.9s0,.37-.37.78a32.13,32.13,0,0,0-1.82,2.9c-.31.51-.8,1.37-1.51,2.58-.84,1.41-1,1.75-1.66,2.86h0c1.33-1.37,2.46-2,3.54-2a2.51,2.51,0,0,1,2.31,1.37,8.46,8.46,0,0,1,.65,2.76c.18,1.1.61,1.59,1.39,1.59,2,0,4.41-2.34,5.7-5.63Z"/><path class="cls-1" d="M56.28,19.52a3.28,3.28,0,0,0,2.58,1.19,8.61,8.61,0,0,0,1.86-.25,8.36,8.36,0,0,0,.73-2.9c0-.67-.33-1.08-1.31-1.57a.9.9,0,0,1,.49-.14,4.22,4.22,0,0,1,1.64.47c.69.34,1,.57,1,.85a.82.82,0,0,1-.21.53c-.08.17-.51,1-1.24,2.52a5.38,5.38,0,0,0,2.27-1.13.49.49,0,0,1,.42-.16c.8,0,1.39.27,1.39.61,0,.54-1.26,1.05-4.51,1.8-.19.41-.53,1.25-1.08,2.47-.62,1.41-2.19,4.85-2.37,5.19-.31.56-.49.74-.74.74s-.63-.63-.63-1.45a.89.89,0,0,1,.22-.74,8.57,8.57,0,0,0,1-1.22,27.34,27.34,0,0,0,2.56-4.8,6.25,6.25,0,0,1-1,.08,3.36,3.36,0,0,1-1.8-.43A4.09,4.09,0,0,1,56,19.69Zm10.81,1.15a7.21,7.21,0,0,1,3.49,1.12c.8.51,1.29,1.13,1.29,1.59a.54.54,0,0,1-.53.6.74.74,0,0,1-.47-.17,3.25,3.25,0,0,0-2-.43c-1.64,0-2.15.45-2.15,1.86a28.54,28.54,0,0,0,.41,3.52A9.18,9.18,0,0,1,70,30.09a2,2,0,0,1,.82,1.61c0,.41-.16.7-.41.7s-.29-.07-.71-.54a7.5,7.5,0,0,0-2.48-1.79v.38a2.29,2.29,0,0,1-.57,1.74,3.78,3.78,0,0,1-2.66.88c-1.83,0-3.1-.88-3.1-2.17s1.55-2.43,3.82-2.43a6.85,6.85,0,0,1,1.23.1c-.07-1.61-.07-1.77-.07-2,0-1.67.17-2.31.72-2.92a3.85,3.85,0,0,1,1.94-1c.31-.08.35-.1,1.1-.27A5.68,5.68,0,0,0,67,21Zm-1.1,9a5.59,5.59,0,0,0-1.76-.25c-1.74,0-2.8.59-2.8,1.55,0,.76.78,1.21,2,1.21,1.66,0,2.52-.67,2.52-2Z"/><path class="cls-1" d="M92.56,19.36c.53-.69.7-.9,1.23-1.57.88.71,1.14.94,2,1.69a.33.33,0,0,1,.12.21c0,.08-.1.14-.24.14H85.56a24.81,24.81,0,0,1-.25,3.35h5.78c.33-.45.43-.57.78-1l1.31,1c.2.18.26.27.26.33s0,.12-.71.61c-.31,3.9-.74,6.52-1.27,7.74s-1,1.39-3.13,1.68c-.12-1.14-.34-1.25-3.76-1.88v-.29c1.88.19,4,.35,4.72.35.43,0,.58-.06.74-.26.53-.76,1.06-4.23,1.21-7.81h-6a14.48,14.48,0,0,1-1.57,4.7,12.12,12.12,0,0,1-4.15,4.33,12.86,12.86,0,0,1-2.07,1l-.16-.34a11.79,11.79,0,0,0,4.33-3.93c1.66-2.49,2.37-5.33,2.45-9.6H79.45a14,14,0,0,0-1.8.14l-.21-.81.56.08a10.78,10.78,0,0,0,1.47.12H85.6V17a11.22,11.22,0,0,0-.13-1.47c1.88.18,2.41.3,2.41.55s-.14.2-.87.47v2.84Z"/><path class="cls-1" d="M105.29,24.86c0,.18-.35,1.47-.92,3.84a7.86,7.86,0,0,0-.35,2.16,3,3,0,0,1-.06.88.5.5,0,0,1-.49.35c-.35,0-.65-.29-.88-.84a12.1,12.1,0,0,1-.71-4.35,19,19,0,0,1,.16-2.19,30.93,30.93,0,0,1,.71-3.86A9.22,9.22,0,0,0,103,19a3.64,3.64,0,0,0-.57-1.92c.45,0,.82.29,1.37,1a2.78,2.78,0,0,1,.75,1.62c0,.32,0,.4-.43,1.22a18.55,18.55,0,0,0-1.1,3.25,11.48,11.48,0,0,0-.26,2.53,7.9,7.9,0,0,0,.38,2.7,15.82,15.82,0,0,0,.74-1.74L105,24.75Zm2.57,1a8.09,8.09,0,0,0-.06.86c0,2.24,1.29,3.16,4.46,3.16a9.78,9.78,0,0,0,1.73-.14,3,3,0,0,0,1.08-.33,1.1,1.1,0,0,1,.31-.06,1.58,1.58,0,0,1,1.29,1.21c0,.24-.16.41-.45.51a10.52,10.52,0,0,1-2.56.22c-2.55,0-4.37-.43-5.29-1.24a3.43,3.43,0,0,1-1.1-2.66,5.32,5.32,0,0,1,.25-1.61Zm0-6.5a3.21,3.21,0,0,0,1.9.55,10.86,10.86,0,0,0,4.11-.92c.26-.14.31-.16.45-.16a1.48,1.48,0,0,1,.71.29c.43.24.64.49.64.75s-.15.39-.58.47a11.93,11.93,0,0,0-2.9.72,20,20,0,0,0-2.63,1.45l-.21-.21c.92-.77,1.62-1.35,1.94-1.59l-.83,0a3.62,3.62,0,0,1-2.78-1.14Z"/><path class="cls-1" d="M122,30.58a23.9,23.9,0,0,0,3.88-3.11,31.69,31.69,0,0,0,5-6,22.86,22.86,0,0,0-5.05,1.19,1.79,1.79,0,0,1-.66.16,2.38,2.38,0,0,1-1.55-1.1,2.48,2.48,0,0,1-.59-1.14.43.43,0,0,1,.08-.25,2.59,2.59,0,0,0,2.11,1.08c.83,0,4.27-.43,6.43-.79a9,9,0,0,0-.31-3.07,2.26,2.26,0,0,0-1.55-.94c.17-.2.25-.22.68-.22a5.63,5.63,0,0,1,2.26.57c.45.22.6.39.6.73a.8.8,0,0,1-.13.45,6.14,6.14,0,0,0-.4,2.31,10.21,10.21,0,0,0,3.08-.73,1.1,1.1,0,0,1,.43-.1c.61,0,1.8.75,1.8,1.14s-.19.37-.7.37l-.71,0-1.13,0c-.65,0-1.28,0-2.79.18,0,.27,0,.51,0,.63,0,1.78.13,4.09.33,6.6.08,1,.12,1.76.12,2.21,0,1.1-.53,2.17-1.06,2.17a.63.63,0,0,1-.57-.43,1.94,1.94,0,0,0-.74-1,17,17,0,0,0-2.86-1.7l.11-.27c1.86.58,2.82.84,3.73,1.07,0-.41,0-1.41,0-2.54,0-.51,0-1.14,0-1.92,0-1.33-.06-2.25-.06-2.72,0-.18,0-.49,0-.87a19.14,19.14,0,0,1-3.18,3.78,22.87,22.87,0,0,1-6.46,4.55Z"/><path class="cls-1" d="M142.79,31.66a29.83,29.83,0,0,0,5.5-4.47,35.79,35.79,0,0,0,3.9-5.09,13.49,13.49,0,0,0,1.39-2.64,22,22,0,0,0-4.31.9,12.18,12.18,0,0,0-1.72.55.93.93,0,0,1-.34.06c-.45,0-.88-.36-1.33-1.16a2.49,2.49,0,0,1-.43-1.23.86.86,0,0,1,.14-.41c.59,1.07,1,1.37,1.92,1.37A31.64,31.64,0,0,0,151.8,19a5.21,5.21,0,0,0,1.92-.57.84.84,0,0,1,.47-.18c.43,0,1.6,1,1.6,1.43,0,.14-.08.26-.27.38-.43.29-.43.29-1.16,1.39-1,1.47-1,1.47-2.58,3.56,2.88,1.51,4.5,2.55,5.29,3.45a2.68,2.68,0,0,1,.78,2c0,.66-.2,1.07-.55,1.07a.66.66,0,0,1-.47-.33,6.11,6.11,0,0,1-.49-.82,17.59,17.59,0,0,0-4.86-5A22.2,22.2,0,0,1,146.53,30,18.53,18.53,0,0,1,143,32Z"/><path class="cls-1" d="M163.61,31.66a30.17,30.17,0,0,0,5.5-4.47A37.33,37.33,0,0,0,173,22.1a14.05,14.05,0,0,0,1.39-2.64,21.86,21.86,0,0,0-4.31.9,11.76,11.76,0,0,0-1.72.55A1,1,0,0,1,168,21c-.45,0-.88-.36-1.33-1.16a2.56,2.56,0,0,1-.42-1.23.86.86,0,0,1,.14-.41c.59,1.07,1,1.37,1.92,1.37a31.84,31.84,0,0,0,4.29-.57,5.36,5.36,0,0,0,1.92-.57.82.82,0,0,1,.47-.18c.43,0,1.59,1,1.59,1.43a.46.46,0,0,1-.26.38c-.43.29-.43.29-1.17,1.39-1,1.47-1,1.47-2.57,3.56,2.88,1.51,4.49,2.55,5.29,3.45a2.72,2.72,0,0,1,.78,2c0,.66-.21,1.07-.55,1.07-.15,0-.31-.11-.47-.33a4.15,4.15,0,0,1-.49-.82,17.63,17.63,0,0,0-4.87-5A21.94,21.94,0,0,1,167.35,30a18.61,18.61,0,0,1-3.58,2Z"/><path class="cls-1" d="M188.27,20.81a25.07,25.07,0,0,1,4.82,2.68,24,24,0,0,0,2.2-4.09,2.51,2.51,0,0,0,.29-1.1c0-.49-.33-.9-1.1-1.37a.54.54,0,0,1,.34-.12,3.54,3.54,0,0,1,1.54.57c.81.51,1.35,1.06,1.35,1.45,0,.2-.09.35-.35.63A7.66,7.66,0,0,0,196.23,21c-1,1.55-1,1.55-2.08,3.2,2.19,1.7,2.55,2.17,2.55,3.25,0,.64-.2,1.11-.49,1.11s-.24-.05-.75-.8a14.17,14.17,0,0,0-2.09-2.49,23.37,23.37,0,0,1-4.29,4.59,19.29,19.29,0,0,1-4.29,2.8l-.18-.3a29.07,29.07,0,0,0,3.88-3.29,36.31,36.31,0,0,0,4-4.72,27.89,27.89,0,0,0-4.39-3.31Z"/><path class="cls-1" d="M210.9,30.9a1.37,1.37,0,1,1-1.37-1.37A1.32,1.32,0,0,1,210.9,30.9Zm-1.74-3.08a86.8,86.8,0,0,0-.71-9.5,3.26,3.26,0,0,1-.08-.7c0-.47.41-.71,1.16-.71s1.19.22,1.19.73a4.94,4.94,0,0,1-.06.68c-.31,1.92-.68,6.76-.76,9.5Z"/><path class="cls-1" d="M223.7.3V47.7H.3V.3H223.7M224,0H0V48H224V0Z"/></svg>