<svg id="レイヤー_1" data-name="レイヤー 1" xmlns="http://www.w3.org/2000/svg" viewBox="0 0 320 42"><defs><style>.cls-1{fill:#004021;}</style></defs><title>title-form</title><path class="cls-1" d="M1.51,25c-.09,1-.13,1.42-.13,2.06,0,5.44,3.44,8,10.83,8A31.17,31.17,0,0,0,22.35,33.4a1.72,1.72,0,0,1,.78-.18,5.53,5.53,0,0,1,2.53.91,2.18,2.18,0,0,1,1,1.6c0,.69-.51,1.19-1.47,1.42a52.75,52.75,0,0,1-10.7.92c-5.14,0-8.4-.65-10.69-2.2A8.75,8.75,0,0,1,0,28.69,12.48,12.48,0,0,1,.73,24.8ZM2.94,6.91a10.8,10.8,0,0,0,7,2,36.11,36.11,0,0,0,9.55-1.37,4.63,4.63,0,0,1,.82-.18c1.2,0,2.76,1.37,2.76,2.37,0,.78-.28,1-3.35,1.61-1.79.36-2.21.55-6.71,2.24L9.27,15.14a17.05,17.05,0,0,1-1.79.74l-.32-.69c1.42-.82,2.16-1.28,3.35-1.92,3.12-1.69,3.12-1.69,3.86-2.15-1,.09-2.62.13-3.45.13A12.6,12.6,0,0,1,5.69,10,10.76,10.76,0,0,1,2.48,7.37Zm20.7-3.07c4.45,1.79,6.93,3.8,6.93,5.68,0,1.19-.55,2.28-1.2,2.28-.32,0-.59-.27-.91-.91a20.33,20.33,0,0,0-5.1-6.59ZM27.77,1.1a18.5,18.5,0,0,1,5.64,2.61,2.73,2.73,0,0,1,1.38,2.42c0,1.37-.41,2.38-1,2.38-.37,0-.64-.32-1.06-1.1a18.68,18.68,0,0,0-5.23-5.85Z"/><path class="cls-1" d="M74.48,3.16c.88-1,1.2-1.33,2.21-2.34,1.74,1.28,2.25,1.65,3.81,2.93.55.41.73.6.73.83s-.41.54-1,.54h-.19a13,13,0,0,0-1.56,0c-3.07,2.24-8,5.44-10.23,6.68a3.35,3.35,0,0,1,1.37,2.56,3.68,3.68,0,0,1-.87,2.47H79.67c.87-1,1.15-1.28,2.06-2.2,2,1.42,2.58,1.88,4.32,3.3a1,1,0,0,1,.5.64.42.42,0,0,0,0,.14,1.22,1.22,0,0,1-.32.5,2.63,2.63,0,0,1-1.15.27h-.92a6.51,6.51,0,0,1-1,0,56.16,56.16,0,0,1-10.92,6.82l-.46-.55a39.29,39.29,0,0,0,7.85-7.92h-12v7.87c0,1.74,0,5.45.14,11.21-.09,1.79-.5,2.61-1.65,3.34-.64.41-1.33.64-3.81,1.24-.46-1.74-1-2.34-2.48-2.84-.91-.32-2.15-.55-6.65-1.14l0-.74c6,.37,6.29.37,10.15.46.78,0,1-.18,1-.82V17.84H49.93a49.56,49.56,0,0,0-5,.23l-.36-1.74a24.17,24.17,0,0,0,5.55.46H67.92c-.18-.23-.92-1.19-2.16-2.88A39.34,39.34,0,0,0,58,6.73l.46-.6a47.87,47.87,0,0,1,8.9,4.9A57.42,57.42,0,0,0,74.3,4.21H54.7c-1.79,0-3.3,0-4.77.18l-.41-1.64a26.41,26.41,0,0,0,5.18.41Z"/><path class="cls-1" d="M97.2,39.9a46.19,46.19,0,0,0,3.07-14.65c4.09,1,4.22,1.06,4.22,1.47s-.41.64-1.42.87a52.48,52.48,0,0,1-5,12.63Zm.87-32.72a20.79,20.79,0,0,1,3.76,2A32.57,32.57,0,0,0,105.59,0l2.58.87c2.15.69,2.57.87,2.57,1.28s-.33.5-2.25.69A42.38,42.38,0,0,1,104,8.14c-.23.28-.23.28-1.37,1.56a16.76,16.76,0,0,1,1.79,1.37,3.05,3.05,0,0,1,.78,1.65,4.85,4.85,0,0,1-.64,2.1c-.23.32-.46.51-.74.51s-.5-.23-.87-1c-.18-.37-1.15-2-1.61-2.7a17.69,17.69,0,0,0-3.58-3.93Zm7.62,14.23c-1.61.32-1.93.41-5.37.92-.14,1.19-.46,1.74-.83,1.74s-.69-.51-1.47-4.4h1.29c.5,0,1.37,0,3.44-.09A36.27,36.27,0,0,0,106.6,14a43,43,0,0,0,4.32-8.51c.92.32,1.88.64,2.34.83,1.84.64,2.29.91,2.29,1.23s-.55.69-2.06.74a87.07,87.07,0,0,1-9.41,11.25c1.93-.09,3.26-.18,8-.69A19.22,19.22,0,0,0,110,15.24l.51-.46A30.91,30.91,0,0,1,114.77,19a3.61,3.61,0,0,1,1.11,2.24c0,1.19-.88,2.47-1.66,2.47-.41,0-.59-.28-1-1.69-.18-.6-.37-1.15-.78-2.2-.09.05-1.47.37-4,1v9.56L108.53,41v.27c0,.46-.69.69-2.25.69-.46,0-.64-.14-.69-.5.1-6.41.1-7.19.1-11.17Zm5.09,3.2c3.26,4,4.82,6.73,4.82,8.38s-1.06,3.47-2,3.47A.64.64,0,0,1,113,36a14.3,14.3,0,0,1-.36-2.47,33.53,33.53,0,0,0-2.44-8.61ZM134.19,9.42a18.43,18.43,0,0,1,2.2-2,29.66,29.66,0,0,1,2.53,2.05c.36.32.5.55.5.74,0,.36-.46.73-1.47,1.14-.5,13.09-.55,13.77-1,17.43a49.36,49.36,0,0,1-2,9c-1,2.61-2.71,3.62-6.56,3.89-.28-1.51-.64-2.06-1.84-2.6-.87-.42-2.06-.69-5.69-1.42l0-.69c5.37.5,7.66.69,9.27.69,1,0,1.28-.23,1.79-1.33,1.51-3.29,2.57-13.08,2.57-23.88V10.48H120.83a42.64,42.64,0,0,1-5.14,7.77l-.55-.41a47.73,47.73,0,0,0,4.54-11.21A40.29,40.29,0,0,0,121.11,0c4.31,1.1,5.09,1.37,5.09,1.83s-.5.59-1.83.78c-1.43,3.47-2,4.71-3,6.81Zm-14,7a39.42,39.42,0,0,1,6,5.31c1.46,1.64,1.88,2.38,1.88,3.47,0,1.51-1,3.43-1.84,3.43-.32,0-.55-.32-.78-1a34.44,34.44,0,0,0-5.74-10.66Z"/><path class="cls-1" d="M161.17,21.69c-.83,2.88-2.11,7.87-2.66,10.11a15.54,15.54,0,0,0-.6,3.89c0,1.46-.09,1.64-.32,2a1,1,0,0,1-.87.5c-.78,0-1.43-.64-2-2.06A27.2,27.2,0,0,1,153.28,27c0-4.21.5-8,2.06-15.24A19.71,19.71,0,0,0,156,7.59a7.1,7.1,0,0,0-1.33-4c1.05,0,1.93.64,3.21,2.29a6.41,6.41,0,0,1,1.65,3.47c0,.51,0,.51-.73,2a35.7,35.7,0,0,0-3.49,14.91,17.8,17.8,0,0,0,.74,5.67L158,27.36l2.48-5.9Zm4.59-8.28a9.59,9.59,0,0,0,5.92,1.87,24.75,24.75,0,0,0,5.23-.64v-2c0-5.13,0-5.72-.64-6.36a4.62,4.62,0,0,0-3-1,2.53,2.53,0,0,1,2.2-.74,13.43,13.43,0,0,1,3.12.42c1.34.41,2,1,2,1.64,0,.32,0,.37-.41,1.42a20.57,20.57,0,0,0-1,6.13,11.14,11.14,0,0,0,4.22-1.87c.46-.46.6-.51,1-.51a5.53,5.53,0,0,1,2.16.6,1,1,0,0,1,.59.82c0,1-3.35,2.38-8.12,3.29a89.69,89.69,0,0,0,.6,12.45c5.32,1.42,7.57,3.2,7.57,5.86,0,1-.41,1.69-.92,1.69s-.69-.23-1.61-1.15a14.27,14.27,0,0,0-5-3.66c0,.42,0,.78,0,1.1,0,3.3-2.75,5.26-7.34,5.26-4,0-6.79-1.92-6.79-4.66,0-3.16,3.39-5.17,8.63-5.17.87,0,1.51,0,2.8.13V27.5l-.1-4.9,0-5.85a20.78,20.78,0,0,1-4,.36,9.13,9.13,0,0,1-7.57-3.2Zm7,16.69c-3.62,0-5.87,1.19-5.87,3.21,0,1.6,1.79,2.7,4.49,2.7,2.53,0,4.32-.74,5-2.15a5.75,5.75,0,0,0,.6-3.21A15.11,15.11,0,0,0,172.78,30.1Z"/><path class="cls-1" d="M204.4,23.93c-.09,1-.14,1.42-.14,2.06,0,5.44,3.44,8,10.83,8a31.09,31.09,0,0,0,10.14-1.64,1.74,1.74,0,0,1,.78-.19,5.56,5.56,0,0,1,2.53.92,2.18,2.18,0,0,1,1,1.6c0,.69-.51,1.19-1.47,1.42a52.83,52.83,0,0,1-10.69.91c-5.14,0-8.4-.64-10.7-2.19a8.8,8.8,0,0,1-3.81-7.23,12.07,12.07,0,0,1,.74-3.85Zm1.42-18.07a10.82,10.82,0,0,0,7,2,36,36,0,0,0,9.55-1.37,4.19,4.19,0,0,1,.82-.19c1.2,0,2.76,1.38,2.76,2.38,0,.78-.28.92-3.35,1.6-1.79.37-2.2.55-6.7,2.25-1.1.41-1.1.41-3.77,1.55-.91.37-.91.41-1.79.73l-.32-.68c1.43-.83,2.16-1.28,3.35-1.92,3.12-1.7,3.12-1.7,3.86-2.15-1,.09-2.62.13-3.44.13A12.65,12.65,0,0,1,208.57,9a11.43,11.43,0,0,1-3.21-2.66Z"/><path class="cls-1" d="M244.6,9.84c2.06,2.06,3.16,2.51,6.15,2.51a20.86,20.86,0,0,0,3.26-.27c.13-.69.13-.69.69-3.3A32.27,32.27,0,0,0,255.29,5c0-1.47-1-2.2-3.44-2.38a3,3,0,0,1,2.29-.87,10.57,10.57,0,0,1,4.32,1c.87.41,1.38,1,1.38,1.6,0,.41-.1.59-.69,1.37s-1.61,2.84-2.8,6.08c3.58-.59,6.7-1.78,8.12-3a1,1,0,0,1,.87-.41,8.1,8.1,0,0,1,2.16.41c.69.28,1,.6,1,1.06,0,.73-.73,1.32-2.57,2a40.43,40.43,0,0,1-10.28,2.33,59.29,59.29,0,0,0-2,12.58c5-2.65,10-4.16,13.81-4.16,5.19,0,8.63,2.65,8.63,6.64,0,3.66-2.62,6.72-7.34,8.64A34.55,34.55,0,0,1,255.38,40l0-.64c4.82-.82,5.41-.91,7.16-1.46,6.51-2,10.05-5.31,10.05-9.52,0-2.79-1.84-4.39-5.05-4.39s-6.75,1.37-10.19,3.93a9.28,9.28,0,0,0-2.66,2.8,1.21,1.21,0,0,1-1,.59c-1.19,0-2.71-2-2.71-3.57,0-.78,1.52-8.83,2.57-13.54a17.58,17.58,0,0,1-1.93.14c-3.71,0-5.73-1.1-7.61-4.17Z"/><path class="cls-1" d="M300.22,1.56c1.56,2.19,2.71,3,5.83,4,.87.28,2.25.64,3.3.87a2.88,2.88,0,0,1,1.88,1.14,3.31,3.31,0,0,1,1,2,1,1,0,0,1-1.1,1c-.14,0-.37-.05-1-.14a15.79,15.79,0,0,0-2.25-.14,39.37,39.37,0,0,0-8.77,1.29,4.56,4.56,0,0,0-2.11.82,1.77,1.77,0,0,0-.5,1.23,4.57,4.57,0,0,0,.27,1.33,3.58,3.58,0,0,1,.32,1.46c0,.23,0,.65-.13,1.47-.33,2.42-.65,6.22-.74,9.29,5.56-3.71,10.79-5.68,15-5.68,5.14,0,8.77,3,8.77,7.14s-3.3,7.78-9,9.75a34,34,0,0,1-10.42,1.78l-.14-.73c5.33-.87,8.49-2,11.52-4.07,3.17-2.25,4.59-4.53,4.59-7.42s-2.2-5-5.55-5-7.39,1.87-11,5a10.71,10.71,0,0,0-2.53,2.89c-.45.68-.78.91-1.28.91-.69,0-1.29-.46-2-1.51a5.22,5.22,0,0,1-1-2.33c0-.05.09-.41.13-.73a18.26,18.26,0,0,0,.51-2.75c.09-.91.32-2.19.55-3.8a49.46,49.46,0,0,0,.87-6c0-1.6.14-2,.74-2.6s2-1.28,4.72-2.11a39.44,39.44,0,0,0,5.42-1.74A14.46,14.46,0,0,1,302,5.54a9.66,9.66,0,0,1-2.34-3.66Z"/></svg>