<svg id="レイヤー_1" data-name="レイヤー 1" xmlns="http://www.w3.org/2000/svg" viewBox="0 0 468 162"><defs><style>.cls-1{fill:#251e1c;}.cls-2{fill:#c52620;}.cls-3,.cls-4{fill:none;}.cls-4{stroke:#000;stroke-miterlimit:10;}</style></defs><path class="cls-1" d="M117.531,57.083h-13.1V53.727h13.1ZM97.25,45.277V48.27h20.281v2.714H100.7V65.8h13.918c-4.552,4.087-11.054,7.076-17.938,9.181l2.286,3.11c7.092-2.467,14.261-6.334,18.564-10.891V78.854H121.4V67.159a52.259,52.259,0,0,0,18.662,10.893l2.251-3.113c-5.36-1.475-13.108-4.7-17.991-9.141h14.118V50.984H121.4V48.27h20.338V45.277H121.4V41.853h-3.873v3.424ZM117.531,63.1h-13.1V59.674h13.1Zm17.231-6.018H121.4V53.727h13.36Zm0,6.018H121.4V59.674h13.36Z"/><path class="cls-1" d="M203.532,78.924h-3.881V58.155a23.617,23.617,0,0,1-4.008,4.2L193.632,58.6c4.305-3.663,8.22-10.326,9.805-16.826l3.927.561a37.052,37.052,0,0,1-3.832,9.884ZM225.54,49.311a49.436,49.436,0,0,0-9.421-5.067l2.388-2.629a38.537,38.537,0,0,1,9.475,4.861Zm12.244,3.667h-13v8.606h11.237v3.07H224.78V74.5h14.057v3.113H206.454V74.5h14.3V64.654H209.233v-3.07h11.526V52.978h-13.21V49.866h30.235Z"/><path class="cls-1" d="M280.255,55.958h-8.132V52.893h8.132Zm-8.131-14.065h-3.733V44.48h-9.852V47.2h9.852v3.017H255.383v2.674h13.008v3.065h-9.852V58.6h9.852v2.789H257.016v2.674h11.375v3.068H255.383v2.712h13.008v3.667h3.733V69.838h14.6V67.126h-14.6V64.058h12.825V61.384H272.124V58.6h11.724v-5.7h3.1V50.219h-3.1V44.48H272.124Zm-5.5,32.969a42.045,42.045,0,0,1-4.448-.241c-6.559-.919-10.144-3.861-10.432-4.146,1.627-3.511,2.727-8.65,3.007-14.517h-7.787c4.016-4.136,5.068-5.253,7.746-9.559V43.485H242.655v2.991H250.4a46.662,46.662,0,0,1-7.6,9.092v3.306h8.327a30,30,0,0,1-1.773,8.537,21.991,21.991,0,0,1-2.342-6.437l-3.345.7a22.351,22.351,0,0,0,4.106,8.842,20.116,20.116,0,0,1-5.5,5.5l2.353,2.9a20.3,20.3,0,0,0,5.643-5.814c4.069,3.391,10,4.783,15.788,4.783h20.514l.821-3.069Zm13.63-24.643h-8.132V47.2h8.132Z"/><path class="cls-2" d="M155.036,54.453a48.238,48.238,0,0,0-1.4-6.14h8.339a35.648,35.648,0,0,1-1.448,6.14Zm11.676,15.231a27.509,27.509,0,0,1-6.514-5.222h7.811V61.548h-8.281V57.365h9.133V54.453h-4.83a59.39,59.39,0,0,0,1.528-6.14H168.2V45.4h-8.47V41.849h-3.689V45.4h-9.422v2.911h3.492a38.737,38.737,0,0,1,1.435,6.14h-5.737v2.912h10.232v4.183h-9.808v2.914h9.1a35.213,35.213,0,0,1-10.435,8.376l2.053,2.9a43.188,43.188,0,0,0,9.092-7.812V79.005h3.689V67.772a34.107,34.107,0,0,0,4.873,4.7Zm3.974-22.173V59.592a31.242,31.242,0,0,1-1.491,9.816,18.484,18.484,0,0,1-4.877,7.376l3.534,2.11c2.106-2.239,6.654-7.135,6.654-19.264V57.606h6.215v21.4h3.968v-21.4h5.128V54.571H174.506V47.512Z"/><polygon class="cls-2" points="171.466 50.297 191.438 44.789 181.212 41.85 183.005 44.096 170.698 47.506 171.466 50.297"/><path class="cls-1" d="M307.338,52.51c-5.23,0-9.661,1.424-12.815,4.118a12.927,12.927,0,0,0-4.6,9.981,11.055,11.055,0,0,0,1.844,6.266,6.151,6.151,0,0,0,5.138,2.805c3.566,0,6.537-2.741,8.593-7.926a38.521,38.521,0,0,0,2.462-12.489c5.314.162,10.946,2.7,10.946,9.346a9.97,9.97,0,0,1-3.156,7.782c-2,1.7-4.926,2.5-10.809,2.94l-.152.012,1.153,2.839.079,0c4.132-.268,16.708-1.076,16.708-13.381,0-7.579-5.9-12.288-15.392-12.288M296.979,72.648c-2.9,0-3.671-3.788-3.671-5.79a10.958,10.958,0,0,1,5.2-9.427,14.373,14.373,0,0,1,5.959-1.995,32.937,32.937,0,0,1-3.688,14.423c-.8,1.3-1.963,2.789-3.8,2.789"/><path class="cls-1" d="M359.816,63.919a53.382,53.382,0,0,0,9.955-6.192l-3.157-2.1a42.8,42.8,0,0,1-8.351,5.572,31.914,31.914,0,0,1-2.623-6.934h8.935V51.536H333.4V54.26h12.77c-5.681,4.128-12.77,5.654-18.6,6.44l1.6,3.095a47.877,47.877,0,0,0,15.636-5.243,26.775,26.775,0,0,1,2.233,2.064c-3.593,2.353-9.566,5.243-19.276,6.893l1.7,3.055c9.275-1.981,15.49-5.036,19.181-7.843a14.013,14.013,0,0,1,1.263,2.807c-4.517,3.426-12.286,7.223-23.649,9.2l1.6,3.178c11.8-2.559,18.743-6.481,22.677-9.411a20.823,20.823,0,0,1,.339,3.261c0,5-2.282,4.953-3.642,4.953l-6.361-.041.777,3.384h6.8c5.826,0,6.167-5.7,6.167-8.09,0-9.328-5.051-13.5-6.992-15.106a16.645,16.645,0,0,0,3.058-2.6h1.6c1.312,6.15,5.341,15.726,16.219,23.817l2.961-2.848a35.541,35.541,0,0,1-11.654-11.31"/><polygon class="cls-1" points="331.798 48.358 366.323 48.358 366.323 53.971 370.159 53.971 370.159 45.385 351.075 45.385 351.075 42.042 346.997 42.042 346.997 45.385 327.914 45.385 327.914 53.971 331.798 53.971 331.798 48.358"/><path d="M151.546,119.348c0,.072.017.216.017.431a5.47,5.47,0,0,1,.577,2.539,5.776,5.776,0,0,1-2.683,4.862,12.577,12.577,0,0,1-3.259,1.476,5.907,5.907,0,0,0-1.278-2.034,8.474,8.474,0,0,0,3.06-1.045,3.787,3.787,0,0,0,2.089-2.629,2.964,2.964,0,0,1-2.647,1.279,3.317,3.317,0,0,1-2.088-.648,2.812,2.812,0,0,1-1.243-2.431,3.314,3.314,0,0,1,3.583-3.277,3.009,3.009,0,0,1,1.873.54.742.742,0,0,1-.018-.216c-.018-.036-.018-1.045-.018-1.53-2.574.071-4.267.126-5.059.18-2.719.2-2.719.2-3.2.27l-.072-2.142a8.061,8.061,0,0,0,.882.035c.45,0,.738,0,3.061-.09,1.17-.036,1.35-.036,2.826-.072.595-.018.595-.018,1.531-.054a9.786,9.786,0,0,0-.108-2.179l2.269-.017a13.853,13.853,0,0,0-.09,2.142c3.133-.018,4.537-.053,5.2-.126l.018,2.071c-.666-.054-1.53-.09-3.025-.09-.432,0-.756,0-2.179.036v1.17Zm-3.673.179a1.578,1.578,0,0,0-1.675,1.441,1.422,1.422,0,0,0,1.531,1.423,1.641,1.641,0,0,0,1.764-1.621C149.493,120.014,148.863,119.527,147.873,119.527Z"/><path d="M159.552,121.706c.757-.522,1.855-1.746,3.926-4.411a5.551,5.551,0,0,1,1.116-1.135,2.484,2.484,0,0,1,1.44-.54,2.555,2.555,0,0,1,1.621.685,12.017,12.017,0,0,1,1.206,1.3c2.233,2.683,6.3,6.572,7.346,7.022l-1.1,2.557a3.518,3.518,0,0,0-.522-.522,74.54,74.54,0,0,1-7-7.148c-1.117-1.279-1.225-1.368-1.567-1.368-.288,0-.468.161-1.08.971a52.755,52.755,0,0,1-3.547,4.358,2.822,2.822,0,0,0-.378.5Zm12.046-6.842a12.281,12.281,0,0,1,1.89,2.647l-1.26.666a12.75,12.75,0,0,0-1.891-2.683Zm2.791,2.179a13.273,13.273,0,0,0-1.837-2.611l1.207-.63a10.415,10.415,0,0,1,1.872,2.539Z"/><path d="M179.172,114.864c.4.018.595.018.684.018.325,0,.325,0,2.972-.18,1.008-.054,4-.216,8.984-.45a10.168,10.168,0,0,0,2.071-.18l.126,2.3a2.642,2.642,0,0,0-.378-.019,8.06,8.06,0,0,0-3.566.973c-2.286,1.189-3.636,2.989-3.636,4.808a3.022,3.022,0,0,0,2.394,2.934,10.891,10.891,0,0,0,2.683.468c.018,0,.18,0,.36-.018l-.324,2.449a3.824,3.824,0,0,0-.612-.108,10.829,10.829,0,0,1-4.213-1.188,4.818,4.818,0,0,1-2.575-4.34,6.346,6.346,0,0,1,1.711-4.249,7.933,7.933,0,0,1,2.5-1.8c-1.459.216-2.161.27-6.068.558a26.15,26.15,0,0,0-2.989.36Z"/><path d="M205.185,123.183c-1.026,2.323-2.179,3.384-3.655,3.384-2.053,0-3.529-2.087-3.529-4.987a7.735,7.735,0,0,1,1.98-5.239,8.087,8.087,0,0,1,6.194-2.521c4.322,0,7.13,2.628,7.13,6.68a6.936,6.936,0,0,1-4.375,6.716,11.764,11.764,0,0,1-2.827.756,5.754,5.754,0,0,0-1.1-2.107,9.572,9.572,0,0,0,3.583-.99,5.041,5.041,0,0,0,2.5-4.5,4.462,4.462,0,0,0-2.215-4,3.922,3.922,0,0,0-1.818-.54A26.1,26.1,0,0,1,205.185,123.183Zm-2.647-6.447a6.033,6.033,0,0,0-2.449,4.863c0,1.475.631,2.646,1.423,2.646.594,0,1.206-.757,1.854-2.305a23.689,23.689,0,0,0,1.495-6.085A4.593,4.593,0,0,0,202.538,116.736Z"/><path d="M231.053,114.864a9.533,9.533,0,0,0,1.494-.072,16.63,16.63,0,0,0-.108,2.269c-.126,6.122-.36,8.84-.846,10.083-.414,1.081-1.188,1.5-2.773,1.5-.4,0-.846-.036-1.728-.109a4.437,4.437,0,0,0-.468-2.034,10.852,10.852,0,0,0,2.232.288c.721,0,.991-.379,1.188-1.657a66.7,66.7,0,0,0,.523-8.517h-.216a22.207,22.207,0,0,1-1.927,6.519,15.1,15.1,0,0,1-4.681,5.527,4.254,4.254,0,0,0-1.513-1.476,12.583,12.583,0,0,0,4.682-5.114,19.413,19.413,0,0,0,1.728-5.456H227.9a13.643,13.643,0,0,1-4.825,7.887,4.213,4.213,0,0,0-1.333-1.566,7.579,7.579,0,0,0,2.125-1.819,11.36,11.36,0,0,0,2.3-4.5h-.846a11.522,11.522,0,0,1-2.142,3.169,5.528,5.528,0,0,0-1.5-1.368,9.5,9.5,0,0,0,.864-.864,8.94,8.94,0,0,0-1.008-.036h-.432v3.367a14.751,14.751,0,0,0,1.693-.666l.017,1.8c-.846.359-1.1.468-1.71.719v4.087a18.971,18.971,0,0,0,.108,2.072H219.1a14.374,14.374,0,0,0,.127-2.072v-3.4c-.739.27-1.279.45-1.621.558a7.436,7.436,0,0,0-.955.379l-.414-2.144a11.1,11.1,0,0,0,2.99-.7v-4h-.9a20.8,20.8,0,0,1-.684,2.917,5.628,5.628,0,0,0-1.639-.973,10.015,10.015,0,0,0,.685-2.5,16.841,16.841,0,0,0,.234-2.539,5.707,5.707,0,0,0-.036-.756l1.8.2c-.072,1.081-.09,1.17-.144,1.836h.685v-2.034a7.772,7.772,0,0,0-.127-1.476h2.125a8.986,8.986,0,0,0-.108,1.476v2.034h.432a4.851,4.851,0,0,0,1.17-.089v1.728a12.743,12.743,0,0,0,2.071-5.132l2.088.361c-.144.378-.144.378-.576,1.638-.053.162-.126.361-.234.666Z"/><path d="M237.062,121.6c0-.613.017-1.189.053-1.982a9.749,9.749,0,0,1-1.512,2.089,7.508,7.508,0,0,0-.811-2.215,15.49,15.49,0,0,0,3.1-5.113,11.112,11.112,0,0,0,.648-2.341l2.034.576c-.09.271-.126.361-.288.811a21.532,21.532,0,0,1-1.261,3.15v10.21c0,.81.037,1.4.091,2.088h-2.161a15.368,15.368,0,0,0,.109-2.106Zm7.921-7.311a11.271,11.271,0,0,0-.126-1.89h2.233a9.519,9.519,0,0,0-.126,1.908v1.657h2.251a13.009,13.009,0,0,0,1.944-.108v2.052c-.81-.072-1.35-.108-1.927-.108h-2.268v3.367h2.808a15.412,15.412,0,0,0,2.017-.108v2.071a16.622,16.622,0,0,0-1.98-.108h-2.845v3.745a11.116,11.116,0,0,0,.126,2.07h-2.233a13.383,13.383,0,0,0,.126-2.07v-3.745H241.9a15.406,15.406,0,0,0-2.016.108v-2.071a14.844,14.844,0,0,0,2.016.108h3.079V117.8H242.5a13.047,13.047,0,0,1-1.459,2.629,6.7,6.7,0,0,0-1.6-1.3,14.2,14.2,0,0,0,1.946-3.71,9.8,9.8,0,0,0,.557-2.286l1.981.5c-.126.414-.162.522-.324,1.08-.18.558-.252.793-.4,1.243h1.782Z"/><path d="M255.764,128.044a6.959,6.959,0,0,0-.091-.7,34.158,34.158,0,0,1-.486-5.726,32.187,32.187,0,0,1,.342-4.771c.09-.54.09-.54.487-2.575a9.683,9.683,0,0,0,.2-1.332v-.073l2.431.252c-.739,1.568-1.423,5.906-1.441,9.039-.018.649-.018.649-.018.937v.288a3.072,3.072,0,0,1-.018.378h.018c.089-.2.089-.2.215-.523.036-.126.126-.324.217-.611.162-.379.162-.379.342-.81a3.535,3.535,0,0,0,.216-.559l1.5.666a15.012,15.012,0,0,0-1.783,5.51,3.527,3.527,0,0,0,.036.486Zm4.068-11.793a12.99,12.99,0,0,0,3.26.288c.63,0,1.026,0,1.656-.036,0-1.063-.018-1.963-.018-2.7a5.035,5.035,0,0,0-.054-.864l2.251-.054a17.611,17.611,0,0,0-.126,2.646v.828a18.108,18.108,0,0,0,2.43-.431c.109-.036.109-.036.4-.145l.144-.036.073,2.035a3.117,3.117,0,0,0-.523.09c-.612.126-1.549.288-2.5.4v.395c0,1.009,0,1.045.181,4.069a14.4,14.4,0,0,1,2.826,1.639,3.427,3.427,0,0,0,.5.306l-.864,2.179a6.782,6.782,0,0,0-1.351-1.153c-.612-.395-1.026-.666-1.135-.738v.252a3.159,3.159,0,0,1-.143,1.009c-.414,1.062-1.675,1.692-3.421,1.692-2.359,0-3.8-1.116-3.8-2.953,0-1.746,1.53-2.971,3.709-2.971a4.284,4.284,0,0,1,1.6.252c-.054-.45-.072-1.332-.144-3.835-.721.019-1.152.036-1.621.036-.666,0-1.386-.017-2.232-.09-.252,0-.451-.018-.54-.018a2.68,2.68,0,0,0-.306-.018.839.839,0,0,0-.181-.018.315.315,0,0,0-.107.018Zm3.655,7.544c-1.152,0-1.872.45-1.872,1.188,0,.666.649,1.117,1.656,1.117a1.772,1.772,0,0,0,1.459-.559,1.509,1.509,0,0,0,.234-.972v-.486A3.773,3.773,0,0,0,263.487,123.8Z"/><path d="M278.984,121.2c-1.134.937-1.638,1.693-1.638,2.467,0,1.17,1.314,1.675,4.357,1.675a19.161,19.161,0,0,0,5.653-.757l.2,2.467a7.135,7.135,0,0,0-.792.072,30.832,30.832,0,0,1-4.863.4,12.886,12.886,0,0,1-4.5-.594,3.1,3.1,0,0,1-2.3-3.007c0-1.368.7-2.557,2.323-3.907Zm-2.737-7.4a23.623,23.623,0,0,0,5.4.45,22.332,22.332,0,0,0,4.754-.342l.073,2.017a33.04,33.04,0,0,0-4.808,2.988l-1.566-1.242c.936-.594,1.818-1.134,2.646-1.6a19.026,19.026,0,0,1-2.7.145,28.194,28.194,0,0,1-3.3-.217,5.591,5.591,0,0,0-.666-.054Z"/><path d="M293.023,115.152a16.572,16.572,0,0,0,3.889.306,15.438,15.438,0,0,0,.5-2.971l2.413.2a10.059,10.059,0,0,0-.288,1.044c-.324,1.35-.324,1.35-.433,1.692,1.37-.035,3.4-.18,4.592-.323a12.38,12.38,0,0,0,2.305-.414l.108,2.178c-.414.018-.576.035-1.045.09-2.61.288-4.195.414-6.445.468a23.941,23.941,0,0,1-1.423,3.655v.036a8.376,8.376,0,0,1,4.537-1.171c3.169,0,5.06,1.37,5.06,3.656,0,2.665-2.574,4.393-6.518,4.393a16.463,16.463,0,0,1-4.592-.63,10.261,10.261,0,0,0-.179-2.287,13.7,13.7,0,0,0,4.645.865c2.611,0,4.3-.918,4.3-2.359,0-1.116-1.08-1.728-3.024-1.728a9.116,9.116,0,0,0-3.871.881,3.065,3.065,0,0,0-1.315,1.045l-2.179-.756a12,12,0,0,0,.846-1.621,40.64,40.64,0,0,0,1.513-4c-.954-.018-1.765-.054-2.719-.126-.252-.018-.432-.018-.576-.018h-.144Z"/><path d="M316.027,116.215a38.1,38.1,0,0,0-.809,4.429c-.036.253-.036.253-.091.522l.036.036a8.531,8.531,0,0,1,5.456-1.711c3.061,0,5.077,1.513,5.077,3.818a4.386,4.386,0,0,1-1.854,3.475,7.779,7.779,0,0,1-4.753,1.224,16.564,16.564,0,0,1-4.592-.63,7.983,7.983,0,0,0-.27-2.322,14.559,14.559,0,0,0,4.843.9c2.539,0,4.3-1.061,4.3-2.593,0-1.206-1.135-1.925-3.043-1.925a8.187,8.187,0,0,0-4.483,1.314,3.886,3.886,0,0,0-.811.773l-2.268-.071c.053-.324.053-.4.144-1.081.144-1.116.432-3.114.756-5.239a7.36,7.36,0,0,0,.108-1.044Zm.235-3.529a27,27,0,0,0,6.716,2l-.739,2.07a32.568,32.568,0,0,1-7.021-2.251Z"/><rect class="cls-3" width="468" height="162"/><polyline class="cls-4" points="333.917 122.364 351.863 122.364 346.211 116.712"/></svg>