<svg id="レイヤー_1" data-name="レイヤー 1" xmlns="http://www.w3.org/2000/svg" viewBox="0 0 127 29"><defs><style>.cls-1{fill:#3fb266;}.cls-2{fill:#fff;}</style></defs><title>icon-chottoPR</title><rect class="cls-1" width="127" height="29"/><path class="cls-2" d="M14.91,10.15a14.69,14.69,0,0,0,3.35.3,2.61,2.61,0,0,0,.34,0,15.3,15.3,0,0,0,.58-3.2l1,.1a2.3,2.3,0,0,0-.16.59c-.22,1.06-.41,1.85-.6,2.49a27.29,27.29,0,0,0,6.77-.74l.08.85a4.33,4.33,0,0,0-.63.08,59.37,59.37,0,0,1-6.4.52A25.51,25.51,0,0,1,17.34,16l0,0a8.67,8.67,0,0,1,5.22-1.59c2.56,0,4.24,1.19,4.24,3A3.15,3.15,0,0,1,25.48,20a6.62,6.62,0,0,1-4.16,1.16,11.51,11.51,0,0,1-4.12-.69v-.3c0-.34,0-.38,0-.62a9.52,9.52,0,0,0,4.17.87c2.8,0,4.65-1.2,4.65-3A2,2,0,0,0,25.31,16a4.46,4.46,0,0,0-2.78-.81,9.42,9.42,0,0,0-4.24,1.07,3.76,3.76,0,0,0-1.35,1.08l-.83-.4a26.24,26.24,0,0,0,2.32-5.77c-1,0-2.25,0-3-.1l-.38,0h-.2Z"/><path class="cls-2" d="M38.67,10.4a15.6,15.6,0,0,0-.07,2.14c0,.12,0,.38,0,1.18a12.94,12.94,0,0,0,4-.55l.12.78a2.53,2.53,0,0,0-.38,0,23.59,23.59,0,0,1-3.69.38c0,.78,0,1.25.09,2,.05,1,.08,1.64.08,1.85A11.6,11.6,0,0,1,42.27,20a8.61,8.61,0,0,0,.75.52l-.44.73A11,11,0,0,0,39.06,19l-.22-.1a3.36,3.36,0,0,1,0,.62,2.62,2.62,0,0,1-.34,1.44,2.74,2.74,0,0,1-2.32.86,3.14,3.14,0,0,1-2.12-.6,1.67,1.67,0,0,1-.57-1.27c0-1.23,1.22-2.07,3-2.07a4.8,4.8,0,0,1,1.62.2,1.06,1.06,0,0,1,0-.2v-.09c-.14-2.1-.17-3.22-.21-6.82a2.41,2.41,0,0,0-.05-.54ZM36.6,18.47c-1.47,0-2.35.53-2.35,1.42s.66,1.21,1.92,1.21c1.49,0,2-.43,2-1.66a5.68,5.68,0,0,0,0-.77A5.67,5.67,0,0,0,36.6,18.47Z"/><path class="cls-2" d="M49.87,14.55a7.12,7.12,0,0,0,1.49-.31,19.58,19.58,0,0,1,5.17-.78,4.23,4.23,0,0,1,2.94.94,3.21,3.21,0,0,1,1,2.35,4.05,4.05,0,0,1-1.8,3.31,8.67,8.67,0,0,1-4.15,1.51l-1.21.13a2.2,2.2,0,0,0-.29-.79h.26a9.11,9.11,0,0,0,4.28-1,3.58,3.58,0,0,0,2.17-3.18c0-1.67-1.14-2.57-3.24-2.57a18.33,18.33,0,0,0-4.58.71,8.7,8.7,0,0,0-1.76.56Z"/><path class="cls-2" d="M70.49,7.47a29.72,29.72,0,0,0,1.38,5.87c1-.43,1-.43,4.23-1.65a4.61,4.61,0,0,0,1.06-.45l.41.89a42.89,42.89,0,0,0-6.15,2.28c-2.16,1.09-3.16,2.2-3.16,3.54,0,.9.6,1.57,1.73,1.92a13.3,13.3,0,0,0,3.23.31,16.84,16.84,0,0,0,4.64-.52l.12,1a8.15,8.15,0,0,0-1.21.1,33.23,33.23,0,0,1-3.71.21,11.69,11.69,0,0,1-3.57-.41,2.68,2.68,0,0,1-2-2.64A3.67,3.67,0,0,1,69,15.05a10.57,10.57,0,0,1,2.22-1.38,36.71,36.71,0,0,1-1.32-4.9,8.74,8.74,0,0,0-.25-1.11Z"/><path class="cls-2" d="M85.62,21a9.81,9.81,0,0,0,.13-1.8V10a11.92,11.92,0,0,0-.13-1.85c.58,0,1,.05,1.72.05h3.45c2.44,0,3.84,1.3,3.84,3.59s-1.43,3.81-3.91,3.81H86.64v3.67a9.39,9.39,0,0,0,.14,1.8Zm5.09-6.29a2.69,2.69,0,0,0,3-2.94c0-1.84-1.06-2.82-3-2.82H86.64v5.76Z"/><path class="cls-2" d="M110.79,21A11.48,11.48,0,0,0,109.73,18c-1.09-2.42-1.72-3.06-3.11-3.06h-3.46v4.31a9.47,9.47,0,0,0,.13,1.8h-1.14a9.6,9.6,0,0,0,.14-1.8V10a12,12,0,0,0-.14-1.85c.58,0,1,.05,1.72.05h3.61c2.44,0,3.72,1.11,3.72,3.21A3.13,3.13,0,0,1,110,14a3.93,3.93,0,0,1-1.76.71c.66.21,1.11.69,1.72,1.91.53,1,.93,1.9,1.35,2.87a13.22,13.22,0,0,0,.77,1.56Zm-3.3-6.93a2.57,2.57,0,0,0,2.8-2.67c0-1.59-1-2.45-2.68-2.45h-4.45V14.1Z"/></svg>