<svg id="レイヤー_1" data-name="レイヤー 1" xmlns="http://www.w3.org/2000/svg" viewBox="0 0 316 164"><defs><style>.cls-1{fill:#004021;}.cls-2{fill:#fff;}.cls-3{fill:none;}</style></defs><title>case2</title><rect class="cls-1" x="13" width="67" height="28" rx="11.46"/><path class="cls-2" d="M29.63,18.14a7.27,7.27,0,0,1-3.18.7,4.86,4.86,0,0,1-5.26-5,4.93,4.93,0,0,1,5.24-5,6,6,0,0,1,3.2.92l-.73,2a3.45,3.45,0,0,0-2.44-.91,2.81,2.81,0,0,0-3,3,2.85,2.85,0,0,0,3.14,3,5.44,5.44,0,0,0,3-1Z"/><path class="cls-2" d="M33.26,16.71l-.63,1.93H30.14L33.67,9h2.77L40,18.64H37.49l-.63-1.93Zm3-1.86-1.19-3.61-1.19,3.61Z"/><path class="cls-2" d="M46,11.51a3.86,3.86,0,0,0-2-.65c-.68,0-1.14.37-1.14.88s.28.67,1.75,1.17A2.93,2.93,0,0,1,47,15.7c0,1.72-1.35,3.14-3.62,3.14a6,6,0,0,1-3.12-.91l.66-2a4.21,4.21,0,0,0,2.39.87c.74,0,1.43-.31,1.43-.94s-.71-.95-1.53-1.23c-1-.36-2.55-.89-2.55-2.79a3.08,3.08,0,0,1,3.32-3,5.11,5.11,0,0,1,2.53.69Z"/><path class="cls-2" d="M54.11,12.69v2H50.24v2h4.38v2H48V9h6.48v2H50.24v1.64Z"/><path class="cls-2" d="M71,18v3.13H59c6.05-6.45,7.89-8.79,7.89-10.25A1.66,1.66,0,0,0,65.14,9.1c-2,0-3.2,1.88-3.61,2.54L60,8.45a6.23,6.23,0,0,1,5.2-2.51c2.86,0,5.19,1.72,5.19,4.82,0,2.38-1.3,4-4.14,7.23Z"/><path class="cls-1" d="M53.63,141.43h4.08v3.24a35.51,35.51,0,0,0,3.9-.68l.07,4c-1.89.28-2.6.37-4,.54v1.11a14.9,14.9,0,0,1,3.95-.57c5,0,7,3.36,7,6.61,0,2.6-1.42,6.17-6.46,6.17a8.15,8.15,0,0,1-2.11-.26L60,157.41a4.8,4.8,0,0,0,1.94.4,2.25,2.25,0,0,0,2.58-2.25c0-1.21-.73-2.65-3.43-2.65a9.9,9.9,0,0,0-3.33.59V157a9.24,9.24,0,0,1-.31,3A3.49,3.49,0,0,1,54,162.31c-2.25,0-5.7-1.64-5.7-4.88,0-3.05,2.79-5.16,5.32-6.29v-2.21c-2,.12-3.73.12-4.4.12l0-4.09c.68,0,1.56.07,2.55.07l1.89-.05Zm.12,13.8c-.38.24-1.87,1.18-1.87,2.15,0,.55.74,1.14,1.4,1.14.47,0,.47-.33.47-1.11Zm10.91-12.5a22.42,22.42,0,0,1,5.38,4.6l-2.84,2.74a19.08,19.08,0,0,0-5-4.59Z"/><path class="cls-1" d="M81.56,146.59c-3.1,2.23-4.81,5.4-4.81,7.93s1.83,3.67,3.89,3.67c4.07,0,4.71-3.88,4.71-7.1a18.91,18.91,0,0,0-1.45-7.31l3.67-1.31a22.88,22.88,0,0,0,6.13,7.79l-2.6,3.27c-.9-1.09-1.42-1.73-2.11-2.63a21.39,21.39,0,0,1,.14,2.32c0,5.77-3.48,9-8.35,9-3.91,0-8.07-2.25-8.07-7.52a11.68,11.68,0,0,1,2.74-7.22l-3.12.31L72,143.59a34.67,34.67,0,0,0,8.17-.62Z"/><path class="cls-1" d="M114.81,149.93a74.76,74.76,0,0,0-9.7,2.7c-1.28.47-4.1,1.58-4.1,3.33,0,1,.71,1.94,5,1.94a49.4,49.4,0,0,0,8.73-.87l.31,4.38a71.19,71.19,0,0,1-8.31.57c-2.86,0-10.12,0-10.12-5.76,0-3.64,3.28-5.6,5.25-6.5-.26-.86-.38-1.47-.57-2.35l-1.06-5.23,4.37-.83.93,5.14a16.54,16.54,0,0,0,.38,1.66c1.82-.62,3.07-1,7.66-2.3Z"/><path class="cls-1" d="M124.23,142.43a44.29,44.29,0,0,0-1,7.88c.12-.22.92-1.73,1.21-2.25l2.08,1.94a24.74,24.74,0,0,0-2.94,7l-3.38.33a23.05,23.05,0,0,1-1-7.52A42.37,42.37,0,0,1,120,142Zm10.55-.43c.12,1.4.43,4.64.43,7.86,0,6.2-1.52,10-7.39,12.92l-3.55-3c5.85-2.72,6.58-5.61,6.58-10.41,0-2.58-.19-4.74-.42-7.41Z"/><path class="cls-1" d="M154.94,155.47a21.31,21.31,0,0,0-6.08-1.54l-.45-3a7.83,7.83,0,0,1,1.85.24c-.69-.95-.9-1.26-1.45-2.09a65.6,65.6,0,0,1-9.75.55l-.38-4.07c1,0,1.95.09,3.2.09a40.63,40.63,0,0,0,4.71-.24c-.69-1.2-.76-1.34-1.66-3l4.1-1.31c.59,1.28,1,2.09,1.84,3.67a29.75,29.75,0,0,0,6.18-2l1.54,3.76a31.31,31.31,0,0,1-5.54,1.78,40.36,40.36,0,0,0,3.79,4.87Zm1.16,6.15a37.68,37.68,0,0,1-6.69.62c-4.15,0-5.85-.81-6.87-1.42a5.39,5.39,0,0,1-2.67-4.62,4.92,4.92,0,0,1,1.84-3.9l3,2.27A1.79,1.79,0,0,0,144,156c0,1.63,1.77,2.3,5.18,2.3a32.56,32.56,0,0,0,7-.81Z"/><path class="cls-1" d="M170.35,141.43h4.09v2.49c4.31-.07,4.45-.07,7.27-.19l-.05,3.76c-5.25.1-5.82.1-7.19.12l0,1.25c3.48-.14,3.86-.14,6.2-.28v3.69c-2.39.1-3.5.14-6.18.19l0,1.89a24,24,0,0,1,6.84,3.08l-1.92,3.93a22.27,22.27,0,0,0-5-2.89c-.28,3.34-3.33,3.88-5.3,3.88-3.71,0-5.87-1.8-5.87-4.33,0-1.28.62-4.59,7.17-4.3v-1.19c-3.41,0-3.76,0-6.84,0l0-3.72c3.29.09,3.83.09,6.77.09v-1.27c-3.6,0-4.41,0-7.6,0l0-3.81c3.57.09,4.23.09,7.52.09Zm-1.23,15.72c-.48,0-2.18,0-2.18.9,0,.66,1.18.8,1.75.8,1.68,0,1.71-.76,1.73-1.63A11.33,11.33,0,0,0,169.12,157.15Z"/><path class="cls-1" d="M187.31,160.65a39.83,39.83,0,0,0,2.83-7.73c-.64,0-1.07.05-2.34.05l0-2.62a28.9,28.9,0,0,0,2.94,0c.19-.9.28-1.36.4-2.18l2.73.23c-.23,1.18-.25,1.31-.36,1.73a21.62,21.62,0,0,0,2.65-.47l.11,2.51c-1.91.37-3.11.49-3.35.52a52.76,52.76,0,0,1-3,9Zm8-3.33c-.61.55-.67.93-.67,1.11,0,.48.46.69,2.32.69a21.63,21.63,0,0,0,3.51-.32v2.66a30.71,30.71,0,0,1-3.43.2c-1.24,0-5,0-5-2.63a3.41,3.41,0,0,1,1.22-2.46Zm4.7-2c-.72-.06-1.69-.17-3.08-.17a23.26,23.26,0,0,0-3.21.2l.29-2.42a22.07,22.07,0,0,1,3.37-.24,25.28,25.28,0,0,1,2.87.15Zm-2.3-7a11.72,11.72,0,0,1,1.67,2.89l-1.36.69a12.68,12.68,0,0,0-1.59-2.95Zm2.15-.64a13.5,13.5,0,0,1,1.69,2.88l-1.36.7a12.38,12.38,0,0,0-1.62-2.94Z"/><path class="cls-1" d="M207.42,152.43a11.87,11.87,0,0,1,2.72-.35c3.52,0,4.71,2.33,4.71,4.24a4.52,4.52,0,0,1-1.85,3.77c-1.56,1-3.67,1.27-6,1.25l-.5-2.45c.27,0,.56,0,1,0,1.64,0,4.76-.26,4.76-2.58,0-.43-.13-1.86-2.09-1.86-.65,0-1.61,0-6,1.26l-.72-2.46Z"/><path class="cls-1" d="M217.91,160.65a39.83,39.83,0,0,0,2.83-7.73c-.86.05-1.16.05-2.34.05l0-2.62a28.85,28.85,0,0,0,2.94,0c.19-.9.28-1.36.4-2.18l2.72.23c-.22,1.18-.24,1.31-.35,1.73a21.62,21.62,0,0,0,2.65-.47l.11,2.51c-1.92.37-3.11.49-3.35.52a52.76,52.76,0,0,1-3,9Zm8-3.33c-.66.61-.67,1-.67,1.11,0,.46.38.69,2.31.69a21.48,21.48,0,0,0,3.52-.32v2.66a28.21,28.21,0,0,1-3.51.2c-1.15,0-4.89,0-4.89-2.64a3.5,3.5,0,0,1,1.22-2.45Zm4.7-2c-.72-.06-1.69-.17-3.08-.17a23.26,23.26,0,0,0-3.21.2l.29-2.42a22.07,22.07,0,0,1,3.37-.24,25.28,25.28,0,0,1,2.87.15Z"/><path class="cls-1" d="M238,151.33c-.32,1.23-.55,2.31-.67,3a8.54,8.54,0,0,1,4-1c2.6,0,4.62,1.33,4.62,3.89,0,4.62-5.71,4.62-7.3,4.62a16.93,16.93,0,0,1-2.54-.17l-.51-2.72a18,18,0,0,0,3.2.3c.93,0,4.36,0,4.36-2.06,0-1.36-1.57-1.38-2-1.38a7.06,7.06,0,0,0-4.85,2l-2.14-.63c.43-3,.9-5,1.21-6.37Zm4.73.74a25.68,25.68,0,0,0-6.38-1.55l.85-2.26a28.67,28.67,0,0,1,6.45,1.37Z"/><path class="cls-1" d="M251.74,155.19a1.59,1.59,0,1,1-1.59-1.59A1.59,1.59,0,0,1,251.74,155.19Zm5.1,0a1.6,1.6,0,1,1-1.6-1.59A1.59,1.59,0,0,1,256.84,155.19Zm5.09,0a1.59,1.59,0,1,1-1.59-1.59A1.59,1.59,0,0,1,261.93,155.19Z"/><path d="M161.17,108.82a12.08,12.08,0,0,0-2.11-3.63,13.56,13.56,0,0,0-2.53-2.28,24,24,0,0,0-5.08-2.61c-1.29-.52-2.57-1-3.75-1.41-.89-.34-1.72-.67-2.46-1a11,11,0,0,1-1.49-.86,6.29,6.29,0,0,1-.88-.7,4.21,4.21,0,0,1-.89-1.19,4.38,4.38,0,0,1-.44-1.52,13.56,13.56,0,0,1-.07-1.43,20.31,20.31,0,0,1,.43-3.94,14.89,14.89,0,0,0,2-2.89,31,31,0,0,0,1.78-4.08,7.31,7.31,0,0,0,1.12-.62,7.92,7.92,0,0,0,2.3-2.4,12.33,12.33,0,0,0,1.56-4,5.92,5.92,0,0,0-.43-3.88,7,7,0,0,0-.94-1.49c.19-.7.42-1.64.63-2.74a29.81,29.81,0,0,0,.51-5.31,19,19,0,0,0-.35-3.81,14.22,14.22,0,0,0-.86-2.81,10.42,10.42,0,0,0-2.65-3.7,10.88,10.88,0,0,0-4.17-2.27,14.9,14.9,0,0,0-1.8-1.83A9.33,9.33,0,0,0,139,45.33a8.82,8.82,0,0,0-2.56-.95,12.84,12.84,0,0,0-2.71-.25c-1.28,0-2.63.12-4.12.27-.57.06-1,.13-1.45.2-.61.11-1.07.22-1.44.3l-.5.08a3.79,3.79,0,0,1-.49,0,6,6,0,0,1-.85-.07A21,21,0,0,1,122,44.3c-.39-.12-.73-.24-1-.34l-.34-.13-.2-.1h0a1.9,1.9,0,0,0-.34-.11l-.27,0a1.67,1.67,0,0,0-.38,0,1.23,1.23,0,0,0-.23.08,2.39,2.39,0,0,0-.32.16,4,4,0,0,0-.51.36,10.77,10.77,0,0,0-1,.89A16.84,16.84,0,0,0,115.72,47a11.35,11.35,0,0,0-.73,1.08,8.26,8.26,0,0,0-.58,1.15,31,31,0,0,0-1.57,5.49,24.88,24.88,0,0,0-.44,4.65,31.39,31.39,0,0,0,.64,6v.23c0,.15,0,.32,0,.48s0,.51.08.73,0,.2,0,.27a.38.38,0,0,1,0,.1v0h0v.14l.31,1.36a7.19,7.19,0,0,0-1.12,1.6,6,6,0,0,0-.5,4,13.13,13.13,0,0,0,.94,2.82A8.7,8.7,0,0,0,114.92,80a7.64,7.64,0,0,0,1.94,1.26,33.88,33.88,0,0,0,1.78,4.08,15.37,15.37,0,0,0,2,2.89,20.34,20.34,0,0,1,.42,3.94,13.56,13.56,0,0,1-.07,1.43,4.51,4.51,0,0,1-.3,1.24,4.11,4.11,0,0,1-.54.93,6.43,6.43,0,0,1-1.73,1.48,16,16,0,0,1-2.23,1.11c-1.46.62-3.16,1.18-4.88,1.86a29.45,29.45,0,0,0-3.88,1.8,16,16,0,0,0-2.7,1.91,12.19,12.19,0,0,0-3.11,4.26,15.65,15.65,0,0,0-1.18,6.29,2.57,2.57,0,0,0,.19,1,3.69,3.69,0,0,0,.43.78,6,6,0,0,0,1.3,1.26,15.44,15.44,0,0,0,3.77,1.93,46.37,46.37,0,0,0,9.76,2.31,110.34,110.34,0,0,0,15.39,1,114.83,114.83,0,0,0,13.67-.74,62.34,62.34,0,0,0,7.42-1.3,34.4,34.4,0,0,0,4.09-1.24,20.5,20.5,0,0,0,2.31-1,13.33,13.33,0,0,0,1.33-.82,6.11,6.11,0,0,0,1.41-1.36,3,3,0,0,0,.43-.79,2.6,2.6,0,0,0,.18-.92A16.07,16.07,0,0,0,161.17,108.82ZM120.91,84.11a31.53,31.53,0,0,1-1.82-4.26l-.2-.57-.57-.2a6.12,6.12,0,0,1-1.14-.58,5.49,5.49,0,0,1-1.56-1.64,9.87,9.87,0,0,1-1.23-3.15,3.33,3.33,0,0,1-.08-.76,3.49,3.49,0,0,1,.38-1.57,4.86,4.86,0,0,1,.85-1.16A18.54,18.54,0,0,0,116.79,72c.58.58.66-.78.39-2.31-.51-2.82,2.57-6.16,2.89-12.73,6.94,1.55,20.51-1.4,20.51-1.4A12.76,12.76,0,0,0,143,62c2.2,2.93,3.45,9.8,3.45,9.8s.3-.57.74-1.33a4.18,4.18,0,0,1,.65,1,3.44,3.44,0,0,1,.34,1.47,3.35,3.35,0,0,1-.09.76,11.05,11.05,0,0,1-.76,2.3,6.18,6.18,0,0,1-1.48,2.06,5,5,0,0,1-1.68,1l-.57.21-.2.57a31.53,31.53,0,0,1-1.82,4.26,12.23,12.23,0,0,1-1.83,2.62l-.25.26-.07.35a22.89,22.89,0,0,0-.56,4.82,16.28,16.28,0,0,0,.09,1.7,7.16,7.16,0,0,0,.47,1.94,6.45,6.45,0,0,0,.89,1.53l.27.33c-.1.17-.2.35-.32.52a7.63,7.63,0,0,1-1.74,1.76,12.5,12.5,0,0,1-3.64,1.8,15.4,15.4,0,0,1-1.9.46,10.6,10.6,0,0,1-1.7.14,11.9,11.9,0,0,1-2.68-.34,13.23,13.23,0,0,1-4.24-1.84,8.22,8.22,0,0,1-1.64-1.44,6.2,6.2,0,0,1-.78-1.16,6.4,6.4,0,0,0,.85-1.29,6.69,6.69,0,0,0,.7-2.41,16.25,16.25,0,0,0,.08-1.7,22.94,22.94,0,0,0-.55-4.82L123,87l-.25-.26A12.13,12.13,0,0,1,120.91,84.11Zm38.55,30.49a2.72,2.72,0,0,1-.63.66,8.19,8.19,0,0,1-1.19.78,20,20,0,0,1-3.58,1.45,51.54,51.54,0,0,1-9,1.84,110.16,110.16,0,0,1-13.76.77,111.59,111.59,0,0,1-13.37-.72,60.18,60.18,0,0,1-7.11-1.24A33.24,33.24,0,0,1,107,117a16.41,16.41,0,0,1-2-.9,8.31,8.31,0,0,1-1-.64,3.57,3.57,0,0,1-.83-.76.85.85,0,0,1-.11-.2.08.08,0,0,1,0,0,13.63,13.63,0,0,1,.76-4.74,9.41,9.41,0,0,1,1.67-2.86,10.63,10.63,0,0,1,2-1.85,21.64,21.64,0,0,1,4.55-2.33c1.22-.48,2.48-.92,3.71-1.39.92-.35,1.81-.71,2.67-1.12a14.49,14.49,0,0,0,1.59-.9q.12.2.24.36a9.94,9.94,0,0,0,2.33,2.38,15.14,15.14,0,0,0,4.39,2.18,16.29,16.29,0,0,0,2.25.54,13.34,13.34,0,0,0,2.12.19,14.65,14.65,0,0,0,3.29-.43,15.67,15.67,0,0,0,5.09-2.21,10.93,10.93,0,0,0,2.13-1.89,7.42,7.42,0,0,0,.78-1.06l.16.1a17.75,17.75,0,0,0,2.58,1.29c1.59.67,3.29,1.24,4.94,1.88a26.06,26.06,0,0,1,3.54,1.64,13.79,13.79,0,0,1,2.27,1.6,9.44,9.44,0,0,1,2.46,3.37,13.15,13.15,0,0,1,1,5.25A1.56,1.56,0,0,1,159.46,114.6Z"/><path d="M215.21,83.15a9.28,9.28,0,0,0-1.06-1.5,25.29,25.29,0,0,0-.35-2.55,9.77,9.77,0,0,0-.62-2.09,3.05,3.05,0,0,0-.56-.88,1.7,1.7,0,0,0-.47-.35,1.42,1.42,0,0,0-.65-.16,2.14,2.14,0,0,0-.94.23,4.82,4.82,0,0,0-1.26.94A14.79,14.79,0,0,0,207.55,79h-6.21c-.22-.33-.57-.83-1-1.34a8.4,8.4,0,0,0-1.26-1.27,3.72,3.72,0,0,0-.75-.49,2.17,2.17,0,0,0-.94-.23,1.42,1.42,0,0,0-.65.16,2,2,0,0,0-.76.71,6.26,6.26,0,0,0-.66,1.61,23.3,23.3,0,0,0-.59,3.55,9.38,9.38,0,0,0-1.05,1.5,9.22,9.22,0,0,0-1.27,4.58,8.73,8.73,0,0,0,.56,3.06,6.5,6.5,0,0,0,.25.61,18.7,18.7,0,0,1-2.76,2.4c-1.34,1-3,2.12-4.84,3.52h0a66.3,66.3,0,0,0-5.74,4.77,14.74,14.74,0,0,0-4.53,10.77c0,.41,0,.82.07,1.22a7.25,7.25,0,0,1-.5-2,8.26,8.26,0,0,1-.06-1c0-2.47,1.11-5.19,2.33-7.85.61-1.33,1.24-2.64,1.73-3.94a11.22,11.22,0,0,0,.86-3.89,5.43,5.43,0,0,0-1-3.21,5.92,5.92,0,0,0-2.08-1.83,5.49,5.49,0,0,0-2.48-.6,5.94,5.94,0,0,0-4.16,1.76,6.65,6.65,0,0,0-1.91,4.62,1.34,1.34,0,0,0,2.68.06A4,4,0,0,1,172,93.48a3.25,3.25,0,0,1,2.27-1,2.77,2.77,0,0,1,1.25.3,3.25,3.25,0,0,1,1.14,1,2.7,2.7,0,0,1,.49,1.64,9,9,0,0,1-.68,3c-.65,1.72-1.68,3.71-2.58,5.85a18.21,18.21,0,0,0-1.66,6.88,11.87,11.87,0,0,0,.08,1.33,9.78,9.78,0,0,0,.9,3.13,6.27,6.27,0,0,0,2.7,2.8,6.58,6.58,0,0,0,.82.36c.07.15.13.31.21.46a7.48,7.48,0,0,0,4.57,3.72l.11,0h28.06l.14-.73a8.8,8.8,0,0,0,.09-1.22,5.64,5.64,0,0,0-.71-2.93,3.6,3.6,0,0,0-1.35-1.3,4.22,4.22,0,0,0-1.21-.42c.17-1.86.63-6.41,1.28-10.82.33-2.23.71-4.42,1.12-6.19a23,23,0,0,1,.63-2.29,7.47,7.47,0,0,1,.36-.88,11,11,0,0,0,1.83-.74,8.41,8.41,0,0,0,4.1-4.66,8.73,8.73,0,0,0,.56-3.06A9.22,9.22,0,0,0,215.21,83.15Zm-1,7a6.59,6.59,0,0,1-3.26,3.7A11.65,11.65,0,0,1,206.52,95l.15,1.78c.39,0,.8-.07,1.22-.14l0,.14a46,46,0,0,0-1.27,5.63c0,.26-.09.53-.13.8-2.07,2-3,5-1.05,7.57-.41,3.55-.65,6.29-.65,6.29l-.09,1h1a2.87,2.87,0,0,1,1.32.29,2,2,0,0,1,.9,1.12,4.72,4.72,0,0,1,.24,1.55,1,1,0,0,1,0,.17h-4.32a3.64,3.64,0,0,0,.05-.56,3.5,3.5,0,0,0-.41-1.62,5,5,0,0,0-1.26-1.52,2.42,2.42,0,0,0-.28-.22l.28-6-1.79-.08h0l-.32,7.09.48.27a4.09,4.09,0,0,1,.82.66,2.78,2.78,0,0,1,.5.68,1.66,1.66,0,0,1,.09,1.34H191.39c5.34-8.58.3-18.91-4.28-22.74,1.66-1.23,3.14-2.25,4.43-3.22A22.12,22.12,0,0,0,194.17,93a8.45,8.45,0,0,0,3.05,2.52l.8-1.59a7.13,7.13,0,0,1-1.67-1.16c6.58-.59,7.94-7.52,8-12h4.17l.27-.43,0,0a15.08,15.08,0,0,1,1.23-1.68,6.16,6.16,0,0,1,.93-.92,1.63,1.63,0,0,1,.37-.23h0a3,3,0,0,1,.36.82,15.58,15.58,0,0,1,.51,2.48c.05.39.09.73.11,1s0,.21,0,.28v.1l0,.33.24.23a7.67,7.67,0,0,1,1.05,1.48,7.26,7.26,0,0,1,1,3.6A7,7,0,0,1,214.25,90.17Z"/><rect class="cls-3" width="316" height="164"/></svg>