<svg id="レイヤー_1" data-name="レイヤー 1" xmlns="http://www.w3.org/2000/svg" viewBox="0 0 316 164"><defs><style>.cls-1{fill:#004021;}.cls-2{fill:#fff;}.cls-3{fill:none;}</style></defs><title>case1</title><path class="cls-1" d="M57.4,141.43h4.07v3.24a35.73,35.73,0,0,0,3.91-.68l.07,4c-1.89.28-2.6.37-4,.54v1.11a15,15,0,0,1,4-.57c5,0,7,3.36,7,6.61,0,2.6-1.42,6.17-6.46,6.17a8.06,8.06,0,0,1-2.1-.26l-.17-4.23a4.8,4.8,0,0,0,1.94.4,2.25,2.25,0,0,0,2.58-2.25c0-1.21-.73-2.65-3.43-2.65a10,10,0,0,0-3.34.59V157a9.31,9.31,0,0,1-.3,3,3.49,3.49,0,0,1-3.39,2.28c-2.25,0-5.7-1.64-5.7-4.88,0-3.05,2.79-5.16,5.32-6.29v-2.21c-2,.12-3.74.12-4.4.12L53,145c.69,0,1.57.07,2.56.07L57.4,145Zm.12,13.8c-.38.24-1.87,1.18-1.87,2.15,0,.55.74,1.14,1.4,1.14.47,0,.47-.33.47-1.11Zm10.91-12.5a22.35,22.35,0,0,1,5.37,4.6L71,150.07a18.92,18.92,0,0,0-5-4.59Z"/><path class="cls-1" d="M82.91,154.88l-6.17,5.56-1.85-4.1A56.73,56.73,0,0,0,81.3,151Zm6.56-7.15a30.38,30.38,0,0,0-8.5-2.65l1.56-3.6A46.11,46.11,0,0,1,91,144Zm-2.18.21a2.86,2.86,0,0,0-.71,1.56c0,.45.17.64,1.63,2.42,1.71,2.1,2.87,3.5,2.87,5.61,0,1.18-.43,4.8-5.35,4.8a12.31,12.31,0,0,1-3.6-.57l-.47-4.52a10.35,10.35,0,0,0,3.67,1,1,1,0,0,0,1.11-1c0-.6-.4-1.14-1.56-2.61-2-2.44-2.61-3.19-2.61-4.87a5.27,5.27,0,0,1,1.35-3.46Zm6.32,10.89a31.32,31.32,0,0,0-4.26-7.1l3.29-2.11a36.49,36.49,0,0,1,4.57,7Z"/><path class="cls-1" d="M99.29,160.46a62.91,62.91,0,0,0,4.38-12c-1.33.07-1.8.07-3.62.07l0-4.05a44.46,44.46,0,0,0,4.55,0c.28-1.4.42-2.11.61-3.36l4.21.35c-.35,1.82-.37,2-.54,2.68a35.41,35.41,0,0,0,4.09-.74l.17,3.88c-3,.57-4.8.76-5.18.81-1,3.83-2.56,9.65-4.64,13.87Zm12.4-5.16c-1,.95-1,1.56-1,1.73,0,.71.59,1.06,3.57,1.06a32.71,32.71,0,0,0,5.45-.49v4.11a44.52,44.52,0,0,1-5.42.31c-1.78,0-7.58,0-7.58-4.09a5.44,5.44,0,0,1,1.9-3.79Zm7.27-3.15c-1.12-.09-2.61-.26-4.76-.26a36.74,36.74,0,0,0-5,.31l.45-3.74a32.22,32.22,0,0,1,5.2-.38,39.8,39.8,0,0,1,4.45.24Z"/><path class="cls-1" d="M130.36,142.43a45.27,45.27,0,0,0-1,7.88l1.21-2.25L132.7,150a24.48,24.48,0,0,0-2.93,7l-3.39.33a23.05,23.05,0,0,1-1-7.52,43.25,43.25,0,0,1,.76-7.81Zm10.56-.43c.11,1.4.42,4.64.42,7.86,0,6.2-1.51,10-7.38,12.92l-3.55-3c5.84-2.72,6.58-5.61,6.58-10.41,0-2.58-.19-4.74-.43-7.41Z"/><path class="cls-1" d="M163.44,155.47a21.31,21.31,0,0,0-6.08-1.54l-.45-3a7.83,7.83,0,0,1,1.85.24c-.69-.95-.9-1.26-1.45-2.09a65.6,65.6,0,0,1-9.75.55l-.37-4.07c1,0,1.94.09,3.19.09a40.63,40.63,0,0,0,4.71-.24c-.69-1.2-.76-1.34-1.66-3l4.1-1.31c.59,1.28,1,2.09,1.84,3.67a29.75,29.75,0,0,0,6.18-2l1.54,3.76a31.31,31.31,0,0,1-5.54,1.78,40.36,40.36,0,0,0,3.79,4.87Zm1.16,6.15a37.68,37.68,0,0,1-6.69.62c-4.15,0-5.85-.81-6.87-1.42a5.39,5.39,0,0,1-2.67-4.62,4.92,4.92,0,0,1,1.84-3.9l3,2.27a1.79,1.79,0,0,0-.68,1.44c0,1.63,1.77,2.3,5.18,2.3a32.48,32.48,0,0,0,7-.81Z"/><path class="cls-1" d="M178.85,141.43h4.09v2.49c4.31-.07,4.45-.07,7.27-.19l-.05,3.76c-5.25.1-5.82.1-7.19.12l0,1.25c3.48-.14,3.86-.14,6.2-.28v3.69c-2.39.1-3.5.14-6.18.19l0,1.89a24,24,0,0,1,6.84,3.08L188,161.36a22.27,22.27,0,0,0-5-2.89c-.28,3.34-3.33,3.88-5.3,3.88-3.71,0-5.87-1.8-5.87-4.33,0-1.28.62-4.59,7.17-4.3v-1.19c-3.4,0-3.76,0-6.84,0l0-3.72c3.29.09,3.83.09,6.77.09v-1.27c-3.6,0-4.41,0-7.6,0l0-3.81c3.57.09,4.23.09,7.52.09Zm-1.23,15.72c-.48,0-2.18,0-2.18.9,0,.66,1.18.8,1.75.8,1.68,0,1.71-.76,1.73-1.63A11.33,11.33,0,0,0,177.62,157.15Z"/><path class="cls-1" d="M193.44,160.65a40.85,40.85,0,0,0,2.84-7.73c-.65,0-1.08.05-2.35.05v-2.62a28.8,28.8,0,0,0,2.94,0c.18-.9.27-1.36.39-2.18l2.73.23c-.23,1.18-.25,1.31-.35,1.73a21.46,21.46,0,0,0,2.64-.47l.11,2.51c-1.91.37-3.1.49-3.35.52a51.89,51.89,0,0,1-3,9Zm8-3.33c-.61.55-.67.93-.67,1.11,0,.48.46.69,2.33.69a21.48,21.48,0,0,0,3.5-.32v2.66a30.38,30.38,0,0,1-3.43.2c-1.24,0-5,0-5-2.63a3.41,3.41,0,0,1,1.22-2.46Zm4.7-2c-.72-.06-1.68-.17-3.07-.17a23.31,23.31,0,0,0-3.22.2l.29-2.42a22.07,22.07,0,0,1,3.37-.24,25.48,25.48,0,0,1,2.88.15Zm-2.29-7a11.79,11.79,0,0,1,1.66,2.89l-1.36.69a12.32,12.32,0,0,0-1.59-2.95Zm2.14-.64a14,14,0,0,1,1.7,2.88l-1.36.7a12.06,12.06,0,0,0-1.63-2.94Z"/><path class="cls-1" d="M213.55,152.43a12,12,0,0,1,2.72-.35c3.52,0,4.72,2.33,4.72,4.24a4.54,4.54,0,0,1-1.85,3.77c-1.57,1-3.68,1.27-6,1.25l-.51-2.45c.28,0,.57,0,1,0,1.63,0,4.76-.26,4.76-2.58,0-.43-.14-1.86-2.1-1.86-.64,0-1.61,0-5.95,1.26l-.72-2.46Z"/><path class="cls-1" d="M224,160.65a39.83,39.83,0,0,0,2.83-7.73c-.85.05-1.16.05-2.34.05v-2.62a28.8,28.8,0,0,0,2.94,0c.18-.9.27-1.36.39-2.18l2.73.23c-.23,1.18-.25,1.31-.35,1.73a21.8,21.8,0,0,0,2.64-.47l.11,2.51c-1.91.37-3.11.49-3.35.52a51.89,51.89,0,0,1-3,9Zm8-3.33c-.66.61-.67,1-.67,1.11,0,.46.38.69,2.31.69a21.25,21.25,0,0,0,3.52-.32v2.66a28,28,0,0,1-3.5.2c-1.15,0-4.9,0-4.9-2.64a3.5,3.5,0,0,1,1.22-2.45Zm4.7-2c-.72-.06-1.68-.17-3.07-.17a23.31,23.31,0,0,0-3.22.2l.29-2.42a22.07,22.07,0,0,1,3.37-.24,25.48,25.48,0,0,1,2.88.15Z"/><path class="cls-1" d="M244.13,151.33c-.32,1.23-.55,2.31-.67,3a8.57,8.57,0,0,1,4-1c2.6,0,4.62,1.33,4.62,3.89,0,4.62-5.71,4.62-7.3,4.62a17,17,0,0,1-2.54-.17l-.5-2.72a17.72,17.72,0,0,0,3.19.3c.94,0,4.37,0,4.37-2.06,0-1.36-1.58-1.38-2-1.38a7.07,7.07,0,0,0-4.86,2l-2.14-.63c.43-3,.9-5,1.21-6.37Zm4.73.74a25.58,25.58,0,0,0-6.38-1.55l.86-2.26a28.59,28.59,0,0,1,6.44,1.37Z"/><path class="cls-1" d="M257.87,155.19a1.59,1.59,0,1,1-1.59-1.59A1.59,1.59,0,0,1,257.87,155.19Zm5.1,0a1.59,1.59,0,1,1-1.59-1.59A1.59,1.59,0,0,1,263,155.19Zm5.1,0a1.6,1.6,0,1,1-1.6-1.59A1.59,1.59,0,0,1,268.07,155.19Z"/><rect class="cls-1" x="13" width="67" height="28" rx="11.46"/><path class="cls-2" d="M29.63,18.14a7.27,7.27,0,0,1-3.18.7,4.86,4.86,0,0,1-5.26-5,4.93,4.93,0,0,1,5.24-5,6,6,0,0,1,3.2.92l-.73,2a3.45,3.45,0,0,0-2.44-.91,2.81,2.81,0,0,0-3,3,2.85,2.85,0,0,0,3.14,3,5.44,5.44,0,0,0,3-1Z"/><path class="cls-2" d="M33.26,16.71l-.63,1.93H30.14L33.67,9h2.77L40,18.64H37.49l-.63-1.93Zm3-1.86-1.19-3.61-1.19,3.61Z"/><path class="cls-2" d="M46,11.51a3.86,3.86,0,0,0-2-.65c-.68,0-1.14.37-1.14.88s.28.67,1.75,1.17A2.93,2.93,0,0,1,47,15.7c0,1.72-1.35,3.14-3.62,3.14a6,6,0,0,1-3.12-.91l.66-2a4.21,4.21,0,0,0,2.39.87c.74,0,1.43-.31,1.43-.94s-.71-.95-1.53-1.23c-1-.36-2.55-.89-2.55-2.79a3.08,3.08,0,0,1,3.32-3,5.18,5.18,0,0,1,2.54.69Z"/><path class="cls-2" d="M54.11,12.69v2H50.24v2h4.38v2H48V9h6.48v2H50.24v1.64Z"/><path class="cls-2" d="M64.4,6.24h3.1V21.12H64V9.87l-2.63,1.81L61,8.54Z"/><path d="M150.2,110.05a12.39,12.39,0,0,0-1.29-3.13,12.78,12.78,0,0,0-3.58-3.89,19.81,19.81,0,0,0-3.27-1.89c-1.69-.79-3.42-1.4-5-2a26.86,26.86,0,0,1-4.18-1.83,7.46,7.46,0,0,1-1.11-.77,4.59,4.59,0,0,1-1.13-1.31,4.1,4.1,0,0,1-.53-1.69,13.24,13.24,0,0,1-.07-1.37,16.37,16.37,0,0,1,.43-3.51,15.56,15.56,0,0,0,2-2.91,31.09,31.09,0,0,0,1.79-4.09,8.36,8.36,0,0,0,1.12-.63,7.87,7.87,0,0,0,2.31-2.41,12.56,12.56,0,0,0,1.57-4,6,6,0,0,0-.43-3.9,6.62,6.62,0,0,0-1-1.49c.19-.7.43-1.65.63-2.76a29.9,29.9,0,0,0,.52-5.33,20.07,20.07,0,0,0-.35-3.83,13.7,13.7,0,0,0-.87-2.82,10.52,10.52,0,0,0-2.66-3.72,10.89,10.89,0,0,0-4.19-2.27,14.61,14.61,0,0,0-2.21-2.18,11.76,11.76,0,0,0-4-2.12,14,14,0,0,0-4.15-.56c-.73,0-1.46,0-2.19.1s-1.26.13-1.77.22a12,12,0,0,0-2,.51c-.62.21-1.2.45-2,.76-.29.11-.68.28-1.14.51a20.24,20.24,0,0,0-3,1.84A19,19,0,0,0,103.61,53a16.69,16.69,0,0,0-1.77,4,18.13,18.13,0,0,0-.68,5,21.75,21.75,0,0,0,.31,3.58v.25c0,.16,0,.32,0,.49s0,.51.08.72,0,.21,0,.28a.34.34,0,0,1,0,.09v0h0v.14l.31,1.37a6.93,6.93,0,0,0-1.12,1.61,6,6,0,0,0-.51,4.06,13.31,13.31,0,0,0,1,2.84,8.83,8.83,0,0,0,2.1,2.9,7.57,7.57,0,0,0,2,1.27,31.09,31.09,0,0,0,1.79,4.09,15.89,15.89,0,0,0,2,2.91,16.21,16.21,0,0,1,.43,3.51,13.24,13.24,0,0,1-.07,1.37,4.36,4.36,0,0,1-.3,1.22,4.29,4.29,0,0,1-1,1.44,7.73,7.73,0,0,1-1.64,1.2,19.67,19.67,0,0,1-2.29,1.07c-1.47.6-3.15,1.16-4.85,1.84a27.58,27.58,0,0,0-3.81,1.82,15.5,15.5,0,0,0-2.63,1.92,12.15,12.15,0,0,0-3,4.25,15.83,15.83,0,0,0-1.14,6.21,2.57,2.57,0,0,0,.19,1,3.4,3.4,0,0,0,.44.79,6,6,0,0,0,1.3,1.26,16,16,0,0,0,3.79,1.94,47,47,0,0,0,9.81,2.32,111.17,111.17,0,0,0,15.45,1,116.22,116.22,0,0,0,13.74-.74,62.94,62.94,0,0,0,7.45-1.3,37.11,37.11,0,0,0,4.1-1.25,19,19,0,0,0,2.32-1,12.46,12.46,0,0,0,1.34-.82,6.39,6.39,0,0,0,1.42-1.36,3.26,3.26,0,0,0,.43-.8,2.6,2.6,0,0,0,.18-.92A17,17,0,0,0,150.2,110.05Zm-33.13,1.16L108,99.56a10.69,10.69,0,0,0,1.35-.92,7.54,7.54,0,0,0,1.24-1.22l6.63,3.07-1.41,2.36,2.19,2.33Zm-5.59-15.35a6.79,6.79,0,0,0,.52-2,13.24,13.24,0,0,0,.09-1.63,20,20,0,0,0-.56-4.4l-.08-.35-.24-.26a12.07,12.07,0,0,1-1.84-2.64,31.17,31.17,0,0,1-1.82-4.27l-.21-.57-.57-.21a5.33,5.33,0,0,1-1.14-.58,5.44,5.44,0,0,1-1.57-1.65,9.94,9.94,0,0,1-1.23-3.16,3.35,3.35,0,0,1-.09-.76,3.55,3.55,0,0,1,.39-1.58,4.43,4.43,0,0,1,.85-1.16,17.94,17.94,0,0,0,1.26,1.78c.58.58.4.41.59.12,0,0,.66-.93,4.15-7.71,7,1.55,19.15-8.92,19.15-8.92a12.9,12.9,0,0,0,2.47,6.48c2.2,2.94,3.46,9.84,3.46,9.84s.3-.57.75-1.33a4.51,4.51,0,0,1,.65,1,3.48,3.48,0,0,1,.34,1.48,3.35,3.35,0,0,1-.09.76,11.13,11.13,0,0,1-.77,2.31,6.34,6.34,0,0,1-1.48,2.07,5.23,5.23,0,0,1-1.69,1l-.57.21-.21.57a31.92,31.92,0,0,1-1.82,4.28,12.23,12.23,0,0,1-1.84,2.63l-.25.26-.07.35a20,20,0,0,0-.56,4.4,15.45,15.45,0,0,0,.08,1.63,7.09,7.09,0,0,0,.45,1.88l0,.08-7.85,4.12Zm11.62,15.78-.94-6.46,2.19-2.33-1.42-2.37,6-3.15a6.27,6.27,0,0,0,.53.61,9.91,9.91,0,0,0,2,1.56Z"/><path d="M221.72,107.9a14.64,14.64,0,0,0-7.34-5.33c-1.33-.5-2.63-.87-3.77-1.18l-1.82-.5c1.32-.69,4.24-2.48,4.24-4.9-4.8,1-6.65-2.8-6.91-6.66a16,16,0,0,0,1.74-4.57,6.18,6.18,0,0,0,.9-.5A6,6,0,0,0,210.64,82a21,21,0,0,0,1.5-4,8.73,8.73,0,0,0,.37-2.35,4.3,4.3,0,0,0-.46-2,3.11,3.11,0,0,0-1-1.07,16.9,16.9,0,0,0-3.08-17c-.4-6.45-4-13.55-11-13.78-7.53-.24-10.5,5.46-11.23,8.91-7.34,2.92-11.6,9.57-10.65,17.49a15.48,15.48,0,0,0,1.41,5.06,4.15,4.15,0,0,0-.24.34,4.3,4.3,0,0,0-.47,2,8.78,8.78,0,0,0,.38,2.35,16.36,16.36,0,0,0,2.05,4.94,5.56,5.56,0,0,0,1.32,1.33,6.27,6.27,0,0,0,.91.5,17.53,17.53,0,0,0,4.53,8.33v4.38a1.08,1.08,0,0,1-.27.62,6,6,0,0,1-1.74,1.38,15.88,15.88,0,0,1-2.44,1.09c-.91.32-2.38.66-4,1.13a20.48,20.48,0,0,0-7.78,3.79,11.29,11.29,0,0,0-3,3.9,13.52,13.52,0,0,0-1.16,5.7c0,.51,0,1,.07,1.59a2,2,0,0,0,.36,1,4.43,4.43,0,0,0,1.3,1.2,19.36,19.36,0,0,0,4,1.86c5.06,1.8,13.44,3.45,23.82,3.46a81.58,81.58,0,0,0,20.64-2.47,31.72,31.72,0,0,0,6-2.2,8.9,8.9,0,0,0,1.8-1.17,3.32,3.32,0,0,0,.62-.68,2,2,0,0,0,.35-1c.05-.55.07-1.08.07-1.59A12.64,12.64,0,0,0,221.72,107.9ZM182.64,83.73l-.11-.66-.63-.22a4.17,4.17,0,0,1-1-.48A3.69,3.69,0,0,1,179.77,81a18.68,18.68,0,0,1-1.32-3.59,6.32,6.32,0,0,1-.28-1.72h0a7.23,7.23,0,0,0,3.6,2.29C197.4,72.37,201.91,63,201.91,63s.59,13.59,5.56,16a25.27,25.27,0,0,0,2.64-4.1,2.38,2.38,0,0,1,.11.77,6.74,6.74,0,0,1-.28,1.72,14.53,14.53,0,0,1-1.72,4.24,3.09,3.09,0,0,1-.76.77,4.17,4.17,0,0,1-1,.48l-.63.22-.12.66a15.6,15.6,0,0,1-4.41,8.16l-.29.32v5.26a3.27,3.27,0,0,0,.69,2,5.9,5.9,0,0,0,1,1l-7.92,12.27L186.4,99.71c.07-.08.15-.15.21-.23a3.32,3.32,0,0,0,.74-2V92.21l-.29-.32A15.6,15.6,0,0,1,182.64,83.73Zm2.44,17.16a.88.88,0,0,0,.15-.12l9.6,14.87L204,101.36l.07,0a19,19,0,0,0,2.88,1.31l.28.09,2.67,8.24-5.68-1.34-9.43,7.91-9.44-7.91L179.71,111l2.86-8.8A13.54,13.54,0,0,0,185.08,100.89Zm36.28,15.49-.1.11a4.87,4.87,0,0,1-1,.7,34.58,34.58,0,0,1-9.5,3.09,83.54,83.54,0,0,1-16.58,1.57,78.62,78.62,0,0,1-20-2.39,28.87,28.87,0,0,1-5.59-2,7.54,7.54,0,0,1-1.34-.85l-.2-.21c0-.45-.05-.89-.05-1.3a10.39,10.39,0,0,1,1.6-5.93,12.46,12.46,0,0,1,6.23-4.47c1.21-.46,2.44-.8,3.57-1.11.85-.22,1.63-.42,2.33-.63l-3.33,10.25L185,111.4l9.84,8.25,9.84-8.25,7.61,1.79-3.19-9.84,2.07.58a18.37,18.37,0,0,1,6.93,3.32,8.9,8.9,0,0,1,2.38,3.1,11,11,0,0,1,.95,4.73C221.42,115.49,221.4,115.93,221.36,116.38Z"/><rect class="cls-3" width="316" height="164"/></svg>