<svg id="レイヤー_1" data-name="レイヤー 1" xmlns="http://www.w3.org/2000/svg" viewBox="0 0 316 164"><defs><style>.cls-1{fill:#004021;}.cls-2{fill:#fff;}.cls-3{fill:none;}</style></defs><title>case3</title><rect class="cls-1" x="13" width="67" height="28" rx="11.46"/><path class="cls-2" d="M29.63,18.14a7.27,7.27,0,0,1-3.18.7,4.86,4.86,0,0,1-5.26-5,4.93,4.93,0,0,1,5.24-5,6,6,0,0,1,3.2.92l-.73,2a3.45,3.45,0,0,0-2.44-.91,2.81,2.81,0,0,0-3,3,2.85,2.85,0,0,0,3.14,3,5.44,5.44,0,0,0,3-1Z"/><path class="cls-2" d="M33.26,16.71l-.63,1.93H30.14L33.67,9h2.77L40,18.64H37.49l-.63-1.93Zm3-1.86-1.19-3.61-1.19,3.61Z"/><path class="cls-2" d="M46,11.51a3.81,3.81,0,0,0-2-.65c-.68,0-1.14.37-1.14.88s.28.67,1.75,1.17A2.93,2.93,0,0,1,47,15.7c0,1.72-1.35,3.14-3.62,3.14a6,6,0,0,1-3.12-.91l.66-2a4.21,4.21,0,0,0,2.39.87c.74,0,1.43-.31,1.43-.94s-.71-.95-1.53-1.23c-1-.36-2.55-.89-2.55-2.79a3.08,3.08,0,0,1,3.32-3,5.18,5.18,0,0,1,2.54.69Z"/><path class="cls-2" d="M54.11,12.69v2H50.24v2h4.38v2H48V9h6.48v2H50.24v1.64Z"/><path class="cls-2" d="M60.48,17.1a6.77,6.77,0,0,0,4.06,1.18c1.2,0,2.85-.37,2.85-1.93,0-.69-.47-1.63-2.57-1.63H63v-2.8h1.57c1.45,0,2-.7,2-1.48,0-1.1-1.16-1.36-1.73-1.36a4.88,4.88,0,0,0-3.66,1.71L60,7.86a7.52,7.52,0,0,1,5-1.92c3.28,0,5.07,2,5.07,4.21A3.22,3.22,0,0,1,68.5,13a4,4,0,0,1,2.38,3.7c0,2.25-1.69,4.71-6.36,4.71a9.7,9.7,0,0,1-5-1.27Z"/><path class="cls-1" d="M29.13,153.36a52.91,52.91,0,0,0-7.24-2.89l1.58-3.67a52.77,52.77,0,0,1,7.24,2.84ZM43,149.15c-6.77,10.67-15.12,12.75-17.82,13.44l-1.73-4.26c10-1.73,15.13-10.08,16.81-12.85Zm-11.88-1.33A60.45,60.45,0,0,0,24,145l1.59-3.62a66.85,66.85,0,0,1,7,2.72Z"/><path class="cls-1" d="M53,150a30,30,0,0,0-7.22-3.62l2-3.67a32.83,32.83,0,0,1,7.53,3.58Zm12.4-.23A27.17,27.17,0,0,1,57.74,158a26.62,26.62,0,0,1-10.25,4.31L46,158c6.69-1.23,12.11-4.07,16.59-11.93Z"/><path class="cls-1" d="M81.64,143l3.74,5c-1.61,5.61-4.54,11.62-12.9,15l-2.91-3.48a18.68,18.68,0,0,0,7.48-4.76,16.77,16.77,0,0,0,4.21-7.81H75.35a24.36,24.36,0,0,1-5.38,6.2l-3.26-2.81A21.88,21.88,0,0,0,72.77,143Zm1.71-2.6a19.73,19.73,0,0,1,2.81,4.21l-1.7,1.14a18.1,18.1,0,0,0-2.68-4.24Zm3.57-.29a20.82,20.82,0,0,1,2.65,4.33l-1.73,1.14a19,19,0,0,0-2.53-4.43Z"/><path class="cls-1" d="M97.87,142.21v5.85c0,5.63-.73,10.13-5.06,14.46l-3.1-3.27c3.43-3.64,3.93-7,3.93-11.1v-5.94Zm5.94-.35v14.25a18.61,18.61,0,0,0,5.16-5.33l2.82,2.91a20.5,20.5,0,0,1-12.21,8.57v-20.4Z"/><path class="cls-1" d="M119.79,143.35H123v6.48h6.48v3.25H123v6.48h-3.24v-6.48H113.3v-3.25h6.49Z"/><path class="cls-1" d="M137.49,141.43h4.07v3.24a35.51,35.51,0,0,0,3.9-.68l.07,4c-1.89.28-2.6.37-4,.54v1.11a15,15,0,0,1,3.95-.57c5,0,7,3.36,7,6.61,0,2.6-1.42,6.17-6.46,6.17a8.22,8.22,0,0,1-2.11-.26l-.16-4.23a4.76,4.76,0,0,0,1.94.4,2.25,2.25,0,0,0,2.58-2.25c0-1.21-.74-2.65-3.43-2.65a10,10,0,0,0-3.34.59V157a9,9,0,0,1-.31,3,3.48,3.48,0,0,1-3.38,2.28c-2.25,0-5.71-1.64-5.71-4.88,0-3.05,2.8-5.16,5.33-6.29v-2.21c-2,.12-3.74.12-4.4.12L133,145c.69,0,1.56.07,2.55.07l1.9-.05Zm.12,13.8c-.38.24-1.87,1.18-1.87,2.15a1.43,1.43,0,0,0,1.39,1.14c.48,0,.48-.33.48-1.11Zm10.91-12.5a22.55,22.55,0,0,1,5.37,4.6l-2.84,2.74a19.08,19.08,0,0,0-5-4.59Z"/><path class="cls-1" d="M155.52,141.48h19.12v3.81a28.09,28.09,0,0,1-7.33,4.14v.64h9.08V154h-9.08v6.91a2.79,2.79,0,0,1-.64,1.78,2.59,2.59,0,0,1-2,.64h-5.73l-.64-4h3.9c.38,0,.86,0,.86-.74V154H154v-3.88h9.09v-3.22h1.61a12.14,12.14,0,0,0,3.1-1.56H155.52Z"/><path class="cls-1" d="M194.31,155.47a21.47,21.47,0,0,0-6.08-1.54l-.45-3a7.74,7.74,0,0,1,1.84.24c-.68-.95-.9-1.26-1.44-2.09a65.6,65.6,0,0,1-9.75.55l-.38-4.07c1,0,1.94.09,3.19.09a40.48,40.48,0,0,0,4.71-.24c-.68-1.2-.75-1.34-1.65-3l4.09-1.31c.59,1.28,1,2.09,1.85,3.67a29.86,29.86,0,0,0,6.17-2l1.54,3.76a31.06,31.06,0,0,1-5.54,1.78,41.4,41.4,0,0,0,3.79,4.87Zm1.16,6.15a37.7,37.7,0,0,1-6.7.62c-4.14,0-5.85-.81-6.86-1.42a5.4,5.4,0,0,1-2.68-4.62,4.9,4.9,0,0,1,1.85-3.9l3,2.27a1.77,1.77,0,0,0-.69,1.44c0,1.63,1.78,2.3,5.18,2.3a32.4,32.4,0,0,0,7-.81Z"/><path class="cls-1" d="M208.77,141.43h4.09v2.49c4.31-.07,4.45-.07,7.27-.19l0,3.76c-5.25.1-5.82.1-7.2.12l0,1.25c3.48-.14,3.86-.14,6.2-.28v3.69c-2.39.1-3.5.14-6.18.19l0,1.89a24,24,0,0,1,6.84,3.08l-1.92,3.93a22.27,22.27,0,0,0-5-2.89c-.28,3.34-3.34,3.88-5.3,3.88-3.72,0-5.87-1.8-5.87-4.33,0-1.28.62-4.59,7.17-4.3v-1.19c-3.41,0-3.76,0-6.84,0l0-3.72c3.29.09,3.83.09,6.76.09v-1.27c-3.59,0-4.4,0-7.59,0l0-3.81c3.58.09,4.24.09,7.53.09Zm-1.23,15.72c-.48,0-2.18,0-2.18.9,0,.66,1.18.8,1.75.8,1.68,0,1.7-.76,1.73-1.63A11.33,11.33,0,0,0,207.54,157.15Z"/><path class="cls-1" d="M222.42,160.65a39.83,39.83,0,0,0,2.83-7.73c-.65,0-1.07.05-2.34.05l0-2.62a28.8,28.8,0,0,0,2.94,0c.18-.9.27-1.36.4-2.18l2.72.23c-.23,1.18-.24,1.31-.35,1.73a22,22,0,0,0,2.65-.47l.1,2.51c-1.91.37-3.1.49-3.35.52a51.89,51.89,0,0,1-3,9Zm8-3.33c-.62.55-.68.93-.68,1.11,0,.48.46.69,2.33.69a21.48,21.48,0,0,0,3.5-.32v2.66a30.38,30.38,0,0,1-3.43.2c-1.24,0-5,0-5-2.63a3.41,3.41,0,0,1,1.22-2.46Zm4.69-2c-.72-.06-1.68-.17-3.07-.17a23.57,23.57,0,0,0-3.22.2l.29-2.42a22.2,22.2,0,0,1,3.37-.24,25.48,25.48,0,0,1,2.88.15Zm-2.29-7a11.72,11.72,0,0,1,1.67,2.89l-1.37.69a12.32,12.32,0,0,0-1.59-2.95Zm2.14-.64a13.56,13.56,0,0,1,1.7,2.88l-1.36.7a12.06,12.06,0,0,0-1.63-2.94Z"/><path class="cls-1" d="M242.52,152.43a12,12,0,0,1,2.73-.35c3.52,0,4.71,2.33,4.71,4.24a4.54,4.54,0,0,1-1.85,3.77c-1.56,1-3.68,1.27-6,1.25l-.51-2.45c.28,0,.57,0,1,0,1.64,0,4.76-.26,4.76-2.58,0-.43-.14-1.86-2.1-1.86-.64,0-1.61,0-5.95,1.26l-.72-2.46Z"/><path class="cls-1" d="M253,160.65a39.83,39.83,0,0,0,2.83-7.73c-.86.05-1.17.05-2.34.05l0-2.62a28.8,28.8,0,0,0,2.94,0c.18-.9.27-1.36.4-2.18l2.72.23c-.23,1.18-.24,1.31-.35,1.73a22,22,0,0,0,2.65-.47l.1,2.51c-1.91.37-3.1.49-3.35.52a51.89,51.89,0,0,1-3,9Zm8-3.33c-.65.61-.67,1-.67,1.11,0,.46.38.69,2.31.69a21.25,21.25,0,0,0,3.52-.32v2.66a28,28,0,0,1-3.5.2c-1.15,0-4.9,0-4.9-2.64a3.5,3.5,0,0,1,1.22-2.45Zm4.7-2c-.72-.06-1.68-.17-3.07-.17a23.44,23.44,0,0,0-3.22.2l.29-2.42a22.2,22.2,0,0,1,3.37-.24,25.48,25.48,0,0,1,2.88.15Z"/><path class="cls-1" d="M273.11,151.33c-.33,1.23-.56,2.31-.68,3a8.57,8.57,0,0,1,4-1c2.6,0,4.62,1.33,4.62,3.89,0,4.62-5.71,4.62-7.3,4.62a17,17,0,0,1-2.54-.17l-.5-2.72a17.86,17.86,0,0,0,3.2.3c.93,0,4.36,0,4.36-2.06,0-1.36-1.58-1.38-2-1.38a7,7,0,0,0-4.85,2l-2.15-.63c.43-3,.91-5,1.21-6.37Zm4.72.74a25.48,25.48,0,0,0-6.38-1.55l.86-2.26a28.59,28.59,0,0,1,6.44,1.37Z"/><path class="cls-1" d="M286.84,155.19a1.59,1.59,0,1,1-1.59-1.59A1.59,1.59,0,0,1,286.84,155.19Zm5.1,0a1.59,1.59,0,1,1-1.59-1.59A1.59,1.59,0,0,1,291.94,155.19Zm5.1,0a1.6,1.6,0,1,1-1.6-1.59A1.59,1.59,0,0,1,297,155.19Z"/><path d="M144.17,102.42h0a40.26,40.26,0,0,0-3.88-1.22c-.79-.22-1.5-.41-2.09-.59-.69-3.53-.09-9.31,2.76-17.85,1.86-5.59,10.86-34.86-17.57-34.86S104.55,77,105.79,82.75c1.52,7.13,3.77,14.5,2.84,17.75a25.12,25.12,0,0,0-4.62,2.08c-5.72-1.22-14.48,4.39-12.71,15,.19,1.27,2.87,2.35,6.68,3.22.3.11.58.22.9.32,5.33,1.81,14.1,3.46,24.47,3.46a83.56,83.56,0,0,0,21.25-2.54c1.31-.36,2.49-.73,3.53-1.11,4.13-.89,7.08-2,7.27-3.35C157,107.85,149.79,102.32,144.17,102.42Zm-5.4,12c-.8,0-7.91-2.49-15.42.46-7.51-2.95-14.61-.46-15.42-.46-.64,0-1.27-7-2.19-10.07a38.37,38.37,0,0,1,6.34-2.49,8.09,8.09,0,0,0,3-1.64,4,4,0,0,0,.93-1.36,4.68,4.68,0,0,0,.3-1.68V91.74L116,91.4a16,16,0,0,1-4.54-8.4l-.12-.67-.64-.23a4,4,0,0,1-1-.49,3.87,3.87,0,0,1-1.2-1.47,19.88,19.88,0,0,1-1.36-3.69,6.78,6.78,0,0,1-.29-1.77,2,2,0,0,1,.2-1,1,1,0,0,1,.56-.48,1.83,1.83,0,0,1,.43-.1l1.14.25a6.85,6.85,0,0,1,.63,1.33s-.81-2.41,1.34-5.63,11.06-.42,16.73-8.47c5.53,6.53,5.66,2.24,7.67,5.25,2.15,3.22,1.34,8.85,1.34,8.85a6.42,6.42,0,0,1,.73-1.47l1-.11a1.63,1.63,0,0,1,.7.2,1,1,0,0,1,.34.38,2,2,0,0,1,.2,1,6.78,6.78,0,0,1-.29,1.77,14.87,14.87,0,0,1-1.77,4.36,3.16,3.16,0,0,1-.79.8,4.15,4.15,0,0,1-1,.49l-.65.23-.12.67a15.93,15.93,0,0,1-4.54,8.4l-.31.34v5.41a3.48,3.48,0,0,0,.72,2,7.91,7.91,0,0,0,2.45,2,21.25,21.25,0,0,0,3,1.35c1.17.43,2.66.77,4.29,1.25l.27.08C140.11,106.72,139.44,114.39,138.77,114.39Z"/><path d="M196.58,101.52A18.37,18.37,0,0,0,199,98.76a13,13,0,0,0,.87-1.47,6.91,6.91,0,0,0,5.29,2.11c3.18,0,6.72-3.89,7.07-6.72-2.33,1.12-6,1.12-6-3.48,0-9.43.38-26.32-17.77-26.32S170.75,79.77,170.75,89.2c0,4.6-3.64,4.6-6,3.48.36,2.83,3.89,6.72,7.08,6.72a6.93,6.93,0,0,0,5.28-2.1,12.72,12.72,0,0,0,1.71,2.53c.57.66,1.13,1.22,1.62,1.69.31.29.58.54.79.75v3.12a2.43,2.43,0,0,1-.33.73,6.92,6.92,0,0,1-1.3,1.53,4.7,4.7,0,0,1-1.4.94c-.66.23-1.62.48-2.68.82a11.84,11.84,0,0,0-4.89,2.7,7.79,7.79,0,0,0-1.83,2.76,10.55,10.55,0,0,0-.68,3.91q0,.61.06,1.29h0a1.88,1.88,0,0,0,.32.89,3.72,3.72,0,0,0,1,1,13.5,13.5,0,0,0,2.78,1.3,50.76,50.76,0,0,0,16.2,2.36,55.69,55.69,0,0,0,14-1.68,21.59,21.59,0,0,0,4.16-1.52,6.69,6.69,0,0,0,1.32-.86,3.47,3.47,0,0,0,.51-.56,1.88,1.88,0,0,0,.32-.89q.06-.67.06-1.29a9.82,9.82,0,0,0-1.19-5,8.25,8.25,0,0,0-2.1-2.38,12.79,12.79,0,0,0-3.72-1.88c-1.21-.42-2.32-.7-3.06-1a4.54,4.54,0,0,1-1-.61,7.52,7.52,0,0,1-1.49-1.55,4.53,4.53,0,0,1-.42-.73,1.48,1.48,0,0,1-.1-.36v-3.08Zm.1,8.85a6.29,6.29,0,0,0,1.26.66c.85.31,1.8.56,2.76.87a9.76,9.76,0,0,1,3.88,2.08,5.49,5.49,0,0,1,1.23,1.85,7.83,7.83,0,0,1,.5,3c0,.26,0,.54,0,.82a7.6,7.6,0,0,1-1.94,1,33.49,33.49,0,0,1-6.35,1.63,57.74,57.74,0,0,1-9.45.75,52.57,52.57,0,0,1-13.34-1.59,19.18,19.18,0,0,1-3.65-1.32,4.39,4.39,0,0,1-.76-.47c0-.28,0-.56,0-.82a7.3,7.3,0,0,1,.85-3.67,5.61,5.61,0,0,1,1.42-1.63,10.28,10.28,0,0,1,3-1.49c1.07-.36,2.15-.62,3.11-1a5.37,5.37,0,0,0,1.27-.68,9.16,9.16,0,0,0,2.22,2.14,4.48,4.48,0,0,0,2.44.78,4,4,0,0,0,1.87-.47,5.77,5.77,0,0,0,1.63-1.33,3.39,3.39,0,0,0,.32.35,5.46,5.46,0,0,0,1.31,1,4,4,0,0,0,1.86.47,4.49,4.49,0,0,0,2.45-.78A9.4,9.4,0,0,0,196.68,110.37Zm-15-1.11a10.54,10.54,0,0,0,1.12-1.3l0-.06,4.4,2.4c-.1.11-.2.23-.32.34a3.48,3.48,0,0,1-.88.64,2.16,2.16,0,0,1-1,.26,2.78,2.78,0,0,1-1.51-.5A7.79,7.79,0,0,1,181.7,109.26Zm8.1,1,4.38-2.39a8.71,8.71,0,0,0,1.16,1.36,7.71,7.71,0,0,1-1.81,1.77,2.78,2.78,0,0,1-1.51.5,2.29,2.29,0,0,1-1.06-.27A4.11,4.11,0,0,1,189.8,110.3Zm5-10.66c-.47.45-.9.84-1.26,1.24l-.33.37v4.1a3.14,3.14,0,0,0,.18,1L188.53,109l-4.86-2.65a3.3,3.3,0,0,0,.19-1v-4.1l-.33-.37c-.37-.4-.8-.79-1.26-1.24a16.58,16.58,0,0,1-2.13-2.37,8.09,8.09,0,0,1-1.37-3.12,9.9,9.9,0,0,0,.28-2.44V82H198v9.7a10.41,10.41,0,0,0,.28,2.44,8.51,8.51,0,0,1-2.05,4A17.34,17.34,0,0,1,194.79,99.64Z"/><path d="M188.53,114.19a1.23,1.23,0,1,0,1.22,1.22A1.23,1.23,0,0,0,188.53,114.19Z"/><path d="M188.53,118.87a1.23,1.23,0,1,0,1.22,1.23A1.23,1.23,0,0,0,188.53,118.87Z"/><rect class="cls-3" width="316" height="164"/></svg>