<svg id="レイヤー_1" data-name="レイヤー 1" xmlns="http://www.w3.org/2000/svg" viewBox="0 0 360 646"><defs><style>.cls-1{fill:#f5efe5;}.cls-2{fill:#dcd031;}.cls-3{fill:#231815;}.cls-4{fill:#e60012;}.cls-5{fill:#fff;}.cls-6{fill:none;stroke:#231815;stroke-miterlimit:10;stroke-width:1.14px;}.cls-7{fill:#40220f;}</style></defs><title>t4-option-sp</title><rect class="cls-1" width="360" height="646"/><rect class="cls-2" width="360" height="122"/><path class="cls-3" d="M35.55,30.26c-1.42.28-3.19.52-5,.7a5,5,0,0,1-.32-1.79,3.88,3.88,0,0,1,0-.48c2.74-.2,5.93-.55,8.74-1a3.73,3.73,0,0,1,.7,1.83,44.25,44.25,0,0,1-6.21,5.06l0,.08,9.32-1.93a4.34,4.34,0,0,1,.42,1.91v.3a23.32,23.32,0,0,0-3.63,1c-3,1.17-4,2.58-4,3.77,0,1.39,1,2.13,4.74,2.2a4.44,4.44,0,0,1,.06.74A4.48,4.48,0,0,1,40,44.38c-4.75,0-6.78-1.79-6.78-4.39a4.65,4.65,0,0,1,2.4-3.79l0-.08-4.5,1-3.56.83a4.23,4.23,0,0,1-.42-1.78,1.06,1.06,0,0,1,0-.26,14.67,14.67,0,0,0,3.71-1.71,38.57,38.57,0,0,0,4.75-3.85Z"/><path class="cls-3" d="M57.82,42.11c3.78-1.13,5.41-3,5.41-6A4.93,4.93,0,0,0,58.47,31a20.86,20.86,0,0,1-2.08,8.93c-1,2-2.36,2.8-4,2.8-2.18,0-3.88-1.79-3.88-5.54,0-4.35,3.33-8.38,9-8.38,5,0,8.07,3.16,8.07,7.29s-2.42,6.77-6.57,8.1Zm-1.71-11a5.9,5.9,0,0,0-5.21,6.1c0,2.48.87,3.18,1.6,3.18s1.17-.26,1.75-1.33A19.59,19.59,0,0,0,56.11,31.07Z"/><path class="cls-3" d="M72.9,27.84a7.15,7.15,0,0,1,2.06.32A51.16,51.16,0,0,0,73.87,38a36.55,36.55,0,0,0,.54,5.76,6.28,6.28,0,0,1-1.93.3,3,3,0,0,1-.43,0,37,37,0,0,1-.52-6,56.78,56.78,0,0,1,1.09-10.16Zm10.8,3.85c0,.42,0,.83,0,1.25,1.21-.06,2.34-.18,3.41-.34A6.24,6.24,0,0,1,87.27,34a6.56,6.56,0,0,1,0,.68c-1,.16-2.22.28-3.45.36,0,1.09.12,2.16.22,3.23a14.87,14.87,0,0,1,4.24,2.36,3.69,3.69,0,0,1-1.25,2,12.9,12.9,0,0,0-2.83-2c0,2.15-1.41,3.22-3.87,3.22s-3.8-1.19-3.8-3,1.38-3.13,4-3.13a9.22,9.22,0,0,1,1.27.08c-.08-.86-.14-1.73-.18-2.58-1,0-1.94.05-2.87.05-.56,0-1.09,0-1.61,0a5.67,5.67,0,0,1-.08-1A6.91,6.91,0,0,1,77.12,33c.71,0,1.45,0,2.2,0s1.49,0,2.22,0c0-.44,0-.85,0-1.29V30.68c-.77,0-1.54,0-2.3,0-.53,0-1.07,0-1.6,0,0-.26,0-.56,0-.86a8,8,0,0,1,.08-1.23c.59,0,1.21,0,1.82,0a70.34,70.34,0,0,0,7.08-.33,6.44,6.44,0,0,1,.12,1.27c0,.25,0,.51,0,.75-.94.1-1.93.2-2.94.26Zm-3.19,7.9c-1.41,0-1.88.58-1.88,1.23s.55,1,1.58,1,1.73-.46,1.73-1.47a4.18,4.18,0,0,0,0-.5A3.57,3.57,0,0,0,80.51,39.59Z"/><path class="cls-3" d="M98.05,41.34a6.85,6.85,0,0,0,2.06.46,1.09,1.09,0,0,0,1.23-1,19.21,19.21,0,0,0,.58-5.22c0-1.39-.32-1.79-1.53-1.79-.38,0-.81,0-1.33.06a53.28,53.28,0,0,1-3.82,9.79,5.21,5.21,0,0,1-2.18-1,41.67,41.67,0,0,0,3.56-8.48c-1.07.14-2.2.32-3.29.54a6.49,6.49,0,0,1-.23-1.77,4.43,4.43,0,0,1,0-.51c1.36-.2,2.79-.38,4.12-.48a43.46,43.46,0,0,0,.93-4.65,8.9,8.9,0,0,1,2.42.42c-.28,1.35-.6,2.7-.93,4.07.35,0,.67,0,1,0,2.75,0,3.67,1.41,3.67,3.81a21.44,21.44,0,0,1-.66,5.9c-.59,2.16-1.6,2.72-3.41,2.72A5.65,5.65,0,0,1,98,43.76ZM106.77,30a16.56,16.56,0,0,1,4.11,6.89A4.29,4.29,0,0,1,108.66,38a19.35,19.35,0,0,0-3.77-7A5.23,5.23,0,0,1,106.77,30Z"/><path class="cls-3" d="M116.76,38.8a22.18,22.18,0,0,1,4.6,4.25,9.23,9.23,0,0,1-1.82,1.82,22,22,0,0,0-4.44-4.4A10.48,10.48,0,0,1,116.76,38.8Z"/><path class="cls-3" d="M135.24,35.48a12.53,12.53,0,0,1,3.59-.53c3.27,0,5.29,1.88,5.29,4.24,0,2.78-1.84,4.53-4.84,4.53a10.29,10.29,0,0,1-1.35-.08l-.45-2.32a8.49,8.49,0,0,0,1.62.16c1.59,0,2.6-.7,2.6-2.29,0-1.19-.81-2.16-2.91-2.16a10.42,10.42,0,0,0-3.55.6V42c0,1.81-.93,2.49-2.12,2.49a5.08,5.08,0,0,1-3-1,3.24,3.24,0,0,1-1.74-2.62c0-1.23.77-3,4.62-4.72V32.9c-1.33.12-2.68.18-3.87.18a5.39,5.39,0,0,1-.12-1.17,5.59,5.59,0,0,1,.08-1c1.21,0,2.56-.06,3.91-.16,0-1.11,0-2.23-.08-3.34a6.54,6.54,0,0,1,1.17-.1,6.87,6.87,0,0,1,1.19.1c0,1-.06,2.09-.08,3.14,1.09-.12,2.1-.28,3-.46a5.51,5.51,0,0,1,.28,1.79v.32c-1,.2-2.08.37-3.25.51ZM133,38.36c-2,1.07-2.32,1.77-2.32,2.34,0,.32.2.6.73.92a2.28,2.28,0,0,0,1.13.39c.32,0,.46-.12.46-.51Zm12.13-6.51a5.09,5.09,0,0,1-1.49,1.81,14.07,14.07,0,0,0-4-3,4.87,4.87,0,0,1,1.27-1.73A14.2,14.2,0,0,1,145.17,31.85Z"/><path class="cls-3" d="M155.83,33.26a37.35,37.35,0,0,1,7.85,3.49l-1.07,2.15a41.89,41.89,0,0,0-6.78-3.26v8.54h-2.47V27.62h2.47Z"/><path class="cls-3" d="M183,30.28l1.33,1.47A20,20,0,0,1,173.08,44.3l-1.59-2c4.94-2.12,8.43-5.72,9.88-10H176a21.3,21.3,0,0,1-4.24,4.38L170,35.2a20.29,20.29,0,0,0,6.16-7.94l2.38.7a25.35,25.35,0,0,1-1.19,2.32Z"/><path class="cls-3" d="M195.06,27a1.72,1.72,0,0,1,.32,0,4.91,4.91,0,0,1,2,.41c-.22,1-.47,2-.77,3,.87-.08,1.72-.18,2.56-.3a6.58,6.58,0,0,1,.15,1.39c0,.24,0,.48,0,.7-1.05.18-2.2.32-3.35.41a45.57,45.57,0,0,1-3.64,8.26,4.78,4.78,0,0,1-2-1.11,37.69,37.69,0,0,0,3.31-7c-1,.06-2,.08-2.93.08a6,6,0,0,1-.08-1.07,6.75,6.75,0,0,1,.08-1.11h.83c.9,0,1.85,0,2.8-.08A34.82,34.82,0,0,0,195.06,27Zm12,13.79a4.53,4.53,0,0,1-1.22,1.93,15.07,15.07,0,0,0-3.31-2.17,4.43,4.43,0,0,1,0,.7c0,2.16-1.44,3.26-3.88,3.26s-3.93-1.22-3.93-3.18c0-1.63,1.47-3.38,4.39-3.38.31,0,.63,0,.95,0-.12-1.27-.2-2.66-.22-4.46a6.74,6.74,0,0,1,1.11-.1,7.23,7.23,0,0,1,1.15.1,44.87,44.87,0,0,0,.24,4.88A15.2,15.2,0,0,1,207.05,40.76Zm-7.9-.83c-1.61,0-2.25.63-2.25,1.35s.46,1.11,1.77,1.11c1.07,0,1.72-.55,1.72-1.49a7,7,0,0,0-.06-.85A5.35,5.35,0,0,0,199.15,39.93Zm8.18-7.54a5.52,5.52,0,0,1-1.25,1.88,20.45,20.45,0,0,0-4.56-2.8,7.52,7.52,0,0,1,1-1.78A18.83,18.83,0,0,1,207.33,32.39Z"/><path class="cls-3" d="M213.18,33.36V31.19h8.54l-.12-3.81,2.36,0,.12,3.83h4.18v2.17h-4.12l.24,7.94v.16c0,1.9-1.07,2.66-2.88,2.66a15.74,15.74,0,0,1-2.47-.18l-.36-2.32a15.29,15.29,0,0,0,2.6.22c.53,0,.75-.16.75-.72V41l-.1-3.16,0-3.11a22.75,22.75,0,0,1-8.27,7.44l-1.48-1.82a22.46,22.46,0,0,0,8-7Z"/><path class="cls-3" d="M246.68,29.63a2.54,2.54,0,0,1-.1-.68,2.26,2.26,0,1,1,2.28,2.24,1.9,1.9,0,0,1-.6-.08C247,38,243.49,42,237.32,44.3L236,42.13c5.32-1.8,8.71-5.3,9.54-10.22H234.15V29.63Zm1-.68a1.19,1.19,0,1,0,1.19-1.19A1.17,1.17,0,0,0,247.65,29Z"/><path class="cls-3" d="M257,32.66A22.22,22.22,0,0,1,262,35.2l-1.21,2.15a28,28,0,0,0-5-2.66Zm-.65,8.7c6.21-.91,10.49-3.56,13.12-9.35l2.07,1.55c-2.88,6.13-7.83,9.13-14.52,10.26Zm2.32-13.3a20.4,20.4,0,0,1,4.92,2.5l-1.19,2.1A25.78,25.78,0,0,0,257.52,30Z"/><path class="cls-3" d="M279.26,38.22v-2h8.27V33.4h-8.94v-2h11.16v13h-2.22V43.2h-9.06v-2h9.06v-3Z"/><path class="cls-3" d="M299.46,28.85a18.93,18.93,0,0,1,4.7,3.81l-1.8,1.91a27.66,27.66,0,0,0-4.48-4Zm-1.29,12.41c6.31-1.49,10.49-4.8,12.55-10.15l2.12,1.32c-2.3,6-7.31,9.7-13.81,11.15Z"/><path class="cls-3" d="M323.63,34A5.15,5.15,0,0,1,326,33.3a2.54,2.54,0,0,1,2.85,2.06c1.73-.65,3.55-1.25,5.17-1.72a5.08,5.08,0,0,1,.6,2.2c-1.63.42-3.63,1-5.51,1.69.06,1,.08,2,.08,3.17a6.13,6.13,0,0,1-1.21.12,5,5,0,0,1-1-.08c0-.93,0-1.66,0-2.38-2.22,1-2.68,1.89-2.68,2.66s.66,1.21,2.93,1.21a25.68,25.68,0,0,0,5.56-.71,4.71,4.71,0,0,1,.35,1.86,4.18,4.18,0,0,1,0,.5,29.2,29.2,0,0,1-5.89.58c-3.62,0-5.29-1.16-5.29-3.26,0-1.57,1.27-3.41,4.88-5-.14-.82-.46-1.13-1.17-1.13-1.19,0-3.23,1.09-5.95,3.61a4.79,4.79,0,0,1-1.45-1.55,22.46,22.46,0,0,0,4.33-5.26c-1.23.06-2.4.08-3.53.1a6.11,6.11,0,0,1-.08-1.05,6,6,0,0,1,.08-1.06c1.48,0,3,0,4.6-.09a22.12,22.12,0,0,0,1-2.69h.12a4.57,4.57,0,0,1,2.18.56c-.28.68-.6,1.35-.91,2,1.62-.12,3.25-.26,4.85-.46a6,6,0,0,1,.18,1.51,4.43,4.43,0,0,1,0,.51c-2,.2-4,.38-6.06.52-.46.79-.9,1.55-1.35,2.18Z"/><path class="cls-3" d="M41.22,74.91v.16a20.33,20.33,0,0,1-7,1.09c-4.7,0-6.55-1.81-6.61-5.2a3.44,3.44,0,0,1,1.81-.5,2.42,2.42,0,0,1,.38,0c.15,2.38,1.22,3.31,4.38,3.31a17.37,17.37,0,0,0,6.36-1.15A4.15,4.15,0,0,1,41.22,74.91ZM33.63,64.05a18.62,18.62,0,0,1-4.44-.42,1.94,1.94,0,0,1,0-.34,4.38,4.38,0,0,1,.46-2,18.15,18.15,0,0,0,4,.35,31.36,31.36,0,0,0,5.49-.43,4.81,4.81,0,0,1,.4,1.94,3.1,3.1,0,0,1,0,.44A32.71,32.71,0,0,1,33.63,64.05Zm6.82-4.77a12,12,0,0,1,2.12,3.12l-1.31.73a14.2,14.2,0,0,0-2-3.19Zm2.18-1.07a11.67,11.67,0,0,1,2.14,3L43.5,62a12.64,12.64,0,0,0-2-3.09Z"/><path class="cls-3" d="M52.14,70.86a13,13,0,0,1-2,6.15,11.82,11.82,0,0,0-1.88-1.53,9,9,0,0,0,1.41-3.29,18.71,18.71,0,0,0,.41-3c.08-1.63.16-4.39.16-6.67a25.58,25.58,0,0,0-.1-2.82c.7.06,1.19.08,2.24.08H63.27a21.06,21.06,0,0,0,2.24-.08,21.12,21.12,0,0,0-.08,2.18V74.69c0,1.61-.58,2-2.8,2-.61,0-1.58,0-2.18-.08a7.76,7.76,0,0,0-.53-2c.95.1,1.82.16,2.43.16.82,0,1-.08,1-.5V70.86H58.67v3.21a16.66,16.66,0,0,0,.1,2.31h-2.3a16,16,0,0,0,.12-2.31V70.86Zm4.45-4.59H52.3c0,.56,0,1,0,1.23,0,.9,0,1,0,1.43h4.33Zm0-4.47H52.36v2l0,.53h4.25Zm6.74,2.56V61.8H58.67v2.56Zm0,4.57V66.27H58.67v2.66Z"/><path class="cls-3" d="M71.05,75.5a8.75,8.75,0,0,0,2.15-3.43l1.88.79a13.12,13.12,0,0,1-2.24,3.87Zm7.81-15.44a8.8,8.8,0,0,0-.09-1.23h2.37a9.48,9.48,0,0,0-.09,1.23v.18h4.58a13.77,13.77,0,0,0,2.06-.12V62a18.91,18.91,0,0,0-2.08-.08H84.53c-.19.44-.33.7-.57,1.15H86.6A17.42,17.42,0,0,0,88.84,63v1.88a15.68,15.68,0,0,0-2.26-.1h-13a15.38,15.38,0,0,0-2.22.1V63a18.51,18.51,0,0,0,2.3.09h2.42a8.5,8.5,0,0,0-.52-1.15h-1a16.88,16.88,0,0,0-2,.08V60.12a13.59,13.59,0,0,0,2.06.12h4.26Zm-3.5,11.61c-.84,0-1.35,0-1.89,0a13.1,13.1,0,0,0,.06-1.45v-3a13.71,13.71,0,0,0-.08-1.74c.54,0,1.07.06,2.1.06h9c1.17,0,1.57,0,2.13-.06a12.19,12.19,0,0,0-.08,1.74v2.86a13.9,13.9,0,0,0,.08,1.63l-.66,0h-.51c-.24,0-.42,0-.54,0H80.57a17.17,17.17,0,0,1,1.92,1.53l-1.58,1.27a13.51,13.51,0,0,0-2.2-2.08l1-.72Zm.19-3.79h9V67.1h-9Zm0,2.22h9v-.79h-9Zm2.3,4.45c0,.22.06.3.32.38a13.56,13.56,0,0,0,1.67.1c2.24,0,2.87-.08,3-.36a3.23,3.23,0,0,0,.22-1.59,6.08,6.08,0,0,0,2,.52c-.08,1.47-.22,2.08-.58,2.46-.53.59-1.34.71-4.69.71s-4-.22-4-1.37V73.72a7,7,0,0,0-.1-1.45h2.22a9.4,9.4,0,0,0-.08,1.45Zm3.91-11.48a11.19,11.19,0,0,0,.57-1.15H77.75c.18.38.28.64.5,1.15Zm5.57,13.42a20.78,20.78,0,0,0-2.66-3.65l1.71-1a21.1,21.1,0,0,1,2.69,3.41Z"/><path class="cls-3" d="M96.21,68.79c0-2.4.06-5.14.2-8.65a5,5,0,0,1,1-.08,6.11,6.11,0,0,1,1.56.22c-.23,3.39-.35,6.31-.35,8.61v1.27c0,2.5.93,3.73,2.89,3.73,2.2,0,4.11-1.11,6-5.1l1.78,1.69c-1.94,4.11-4.75,5.76-7.77,5.76-3.35,0-5.25-1.65-5.25-6Z"/><path class="cls-3" d="M122.55,63.55c-2.67.3-5.83.72-8.78,1.17a5.73,5.73,0,0,1-.36-2,2.55,2.55,0,0,1,0-.4c4.66-.56,9.82-1,15.15-1.43a5.3,5.3,0,0,1,.24,1.65,4.79,4.79,0,0,1,0,.55,11.52,11.52,0,0,0-4,1.35c-2.67,1.61-3.51,3.14-3.51,5.11,0,2.18,1.41,3.51,5.93,3.91a1.67,1.67,0,0,1,0,.31,5.05,5.05,0,0,1-.51,2.19c-5.34-.42-7.79-2.9-7.79-6.21a7.19,7.19,0,0,1,3.64-6.1Z"/><path class="cls-3" d="M143.5,70.54c-.89,3.89-2.14,4.94-3.7,4.94-1.09,0-2.18-.49-3.11-2.2-1.08-2-1.63-5.52-1.63-12.07a6.92,6.92,0,0,1,1.15-.08,8.94,8.94,0,0,1,1.31.1c0,.93,0,1.78,0,2.46,0,3.79.37,6.43,1.23,8.16.41.81.73,1,1.09,1s.91-.28,1.68-3.69Zm3.75-8.08a19.18,19.18,0,0,1,4.26,8.59,5.6,5.6,0,0,1-2.34.88,20.36,20.36,0,0,0-3.9-8.54A4.22,4.22,0,0,1,147.25,62.46Z"/><path class="cls-3" d="M163.31,62c0-.89,0-1.8-.08-2.72a7.64,7.64,0,0,1,1.19-.1,7.18,7.18,0,0,1,1.17.1c0,.9-.06,1.79-.08,2.68,1.7-.06,3.33-.18,5-.35a5.08,5.08,0,0,1,.18,1.41,4.54,4.54,0,0,1-.06.77c-1.66.14-3.35.26-5.07.32,0,.49,0,1.37,0,2.06,1.82-.06,3.63-.2,5.47-.44a5.55,5.55,0,0,1,.18,1.43,4,4,0,0,1-.06.74c-1.87.18-3.73.3-5.53.38,0,.81.08,1.62.14,2.44a17.17,17.17,0,0,1,6.12,2.9,4.6,4.6,0,0,1-1.43,2,17.41,17.41,0,0,0-4.52-2.8v.48c0,2.52-1.78,3.37-4.44,3.37s-4.12-1.11-4.12-3.11c0-1.75,1.61-3.3,4.78-3.3.47,0,.93,0,1.39.06-.06-.67-.1-1.35-.12-2h-.52c-2.32,0-4,0-5.43-.14a5,5,0,0,1-.06-.8,7.48,7.48,0,0,1,.14-1.37c1.7.14,3.21.2,5.29.2h.52c0-.69,0-1.37,0-2.06H163c-1.76,0-3.39,0-4.84-.12a4,4,0,0,1-.08-.88,6.66,6.66,0,0,1,.14-1.31c1.51.1,3.11.16,4.72.16Zm.29,10.44a7.38,7.38,0,0,0-1.56-.17c-1.77,0-2.4.61-2.4,1.29s.57,1.07,1.8,1.07c1.41,0,2.16-.44,2.16-1.63Z"/><path class="cls-3" d="M186.74,71.57a2.55,2.55,0,0,1-2.14.85,3.31,3.31,0,0,1-3.31-3.49,3.22,3.22,0,0,1,3.23-3.51,4.93,4.93,0,0,1,1.34.2c0-.54,0-1.14,0-1.53q-4.26.15-8.43.41a6.24,6.24,0,0,1-.14-1.39,5.49,5.49,0,0,1,.06-.83c2.8-.1,5.63-.2,8.49-.28,0-.93,0-1.84-.08-2.78a11.14,11.14,0,0,1,1.19-.06,11.37,11.37,0,0,1,1.18.06c0,.9,0,1.81-.07,2.7l6.52-.22a6.56,6.56,0,0,1,.12,1.26,7.23,7.23,0,0,1-.06.95c-2.16,0-4.36.06-6.56.12,0,1.13,0,2.24.15,3.37a5.52,5.52,0,0,1,.88,3c0,3.16-2.16,5.58-6.07,6.59l-1.43-2.08c3-.56,4.68-1.71,5.24-3.3Zm-2-1c1,0,1.53-.64,1.53-1.67a1.52,1.52,0,0,0-1.49-1.59c-.83,0-1.34.66-1.34,1.61S184.08,70.52,184.73,70.52Z"/><path class="cls-4" d="M96.62,213.3c-.21.6-.33,1-.88,2.23h11.85v3.87h-3.48a13.15,13.15,0,0,1-2.32,4.45,35.42,35.42,0,0,1,5.4,2.38l-2.6,3.72a35.33,35.33,0,0,0-6.14-3.1c-4.2,2.6-10.3,3.05-12.12,3.2L85,225.77a26,26,0,0,0,8.11-.82c-3.31-1-5.57-1.56-6.79-1.85.72-1,1.61-2.21,2.52-3.7H84.72v-3.87H91c.44-.91.75-1.66,1.2-2.84Zm-11.28-4.57h8.77v-1.64h4.17v1.64H107v6.1H103v-2.47H89.45v2.47H85.34Zm8.45,10.67c-.5.89-.79,1.32-1.08,1.76,2.35.62,3.22.88,4.78,1.32a10.49,10.49,0,0,0,2.16-3.08Z"/><path class="cls-4" d="M114.44,215c-.22,7-1.32,10.05-2.31,12.24l-3.67-3c.51-1.06,1.71-3.56,2-9.67Zm1.32-7.93A45.64,45.64,0,0,1,126,210l-1.8,4.07a33.06,33.06,0,0,0-10-3.2Zm-.41,6.61h4.13v11.39c0,.56.12.63.58.63h1.36a.69.69,0,0,0,.72-.48,26.2,26.2,0,0,0,.32-3.82l4,1.17c-.38,6.4-1.34,7.17-4,7.17H117.9c-2.29,0-2.55-1.52-2.55-2.72Zm13.15,0a47.09,47.09,0,0,1,3.32,12.55l-4.44,1A43.66,43.66,0,0,0,124.52,215Z"/><path class="cls-4" d="M139.07,207.89h4.27v5l9.51-.58,1.72,2.31a38.59,38.59,0,0,1-5.61,7.67l-3.34-2.4a27.42,27.42,0,0,0,2.88-3.3l-5.16.36v6c0,1.51.34,1.51,4,1.51a62.92,62.92,0,0,0,6.48-.36l-.26,4.25c-3.43.22-6,.25-7,.25-3.46,0-7.42,0-7.42-4.88v-6.52l-5.09.34-.29-4.11,5.38-.31Z"/><path class="cls-4" d="M164.42,208.58l4.13-.84.72,3.85,6.45-1,.72,4-6.43,1,.39,1.95,7.53-1.21.77,4-7.56,1.18,1.3,7-4.18.79-1.32-7.13-8.67,1.34-.72-4,8.67-1.37-.38-2-6.63,1-.62-4,6.53-1Z"/><path class="cls-4" d="M200.81,224v3.65H183.65V224h9.26l1-6.47h-8.28v-3.65h12.65L196.75,224Z"/><path class="cls-4" d="M212.79,208.66v13h-4.41v-13ZM224,208.3v8.14c0,4.47-.58,10.36-9,12.84l-2.52-3.77c6.53-1.64,7.17-5.32,7.17-9V208.3Z"/><path class="cls-4" d="M232.07,226.11c5.28-1.88,6.14-5,6.36-7.43h-8.62v-4.06h20.77v4.06h-7.76c-.28,4.21-1.51,8.22-7.56,10.77Zm15.79-17.31v4.09H232.45V208.8Z"/><path class="cls-4" d="M266.66,229.35h-3.74v-8.58a36.61,36.61,0,0,1-5.72,2.33l-1.84-3.29a35,35,0,0,0,14.23-8.17l2.88,2.35a38.44,38.44,0,0,1-5.81,4.64Z"/><path class="cls-4" d="M99.36,244.18c.77.62,2,1.63,3.36,2.95a17.88,17.88,0,0,0,.7-3.84H96.75v-3.87h3.91v-3h3.86v3h3.72v3.87h-1a31,31,0,0,1-1.7,6.85,28.45,28.45,0,0,1,3.19,4.3l-3.29,2.67a29.94,29.94,0,0,0-1.92-3.1,26,26,0,0,1-4.6,5l-2.62-3.39a21.28,21.28,0,0,0,4.68-4.83,30.87,30.87,0,0,0-4.3-3.92Zm11.36,1.37a25.54,25.54,0,0,1,2.73,6.08l-3.65,1.73a25.54,25.54,0,0,0-2.47-6.15Zm7.2-9.16v4h1.68v4h-1.68v12.09c0,2.62-1.66,2.69-2.91,2.69h-4.56l-.72-3.87h3.39c.79,0,.79-.38.79-.76V244.44h-5.14v-4h5.14v-4Z"/><path class="cls-4" d="M141.73,259a18,18,0,0,1-7.68-5.14v5.41h-3.86V254a20.16,20.16,0,0,1-7.64,5l-2.06-3.68a16,16,0,0,0,4.75-1.71h-3V247h7.92v-.75h-9.34V243.1h1.63l-2-2.6a12.07,12.07,0,0,0,3.53-4.18l4,.41c-.17.5-.24.69-.36,1h4.18V240a12.77,12.77,0,0,0,2.28-3.66l3.89.41a7.12,7.12,0,0,1-.32,1h5.93v3.42H140.2a9.14,9.14,0,0,1,.64,1.1l-4,.87h6.65v3.19h-9.48V247h8v4.71a2,2,0,0,1-2,2.28,23.36,23.36,0,0,0,3.81,1.13Zm-16.27-17.83a12.15,12.15,0,0,1-1.95,1.95h2.62A7.13,7.13,0,0,0,125.46,241.15Zm.67,8.8v3.15a16.14,16.14,0,0,0,3.53-3.15Zm5-8.82H129.3c.14.28.33.64.53,1.1l-3.65.87h4v-.92h2.18Zm4.82,0h-.26c-.53.67-1,1.22-1.66,2h2.79A12.64,12.64,0,0,0,136,241.13Zm2.19,8.82h-3.53a14.52,14.52,0,0,0,2.59,2.52l-.29-1.2h.75c.45,0,.48-.17.48-.7Z"/><path class="cls-4" d="M154.86,240c-.79,6.3-2.59,12.45-6.16,17.66l-4.13-2.26a35.46,35.46,0,0,0,5.85-16.12Zm7.4,16.82a49.12,49.12,0,0,0-5.4-16l3.72-2a48.37,48.37,0,0,1,6.19,16.66Zm6-17.83a3.24,3.24,0,1,1-3.24-3.25A3.24,3.24,0,0,1,168.28,238.94Zm-4.82,0a1.56,1.56,0,0,0,1.58,1.58,1.58,1.58,0,0,0,1.59-1.58,1.61,1.61,0,0,0-1.59-1.59A1.59,1.59,0,0,0,163.46,238.94Z"/><path class="cls-4" d="M174.57,242.47a35.59,35.59,0,0,1,3,5.29l-3.12,1.71a33.32,33.32,0,0,0-2.9-5.24Zm14.07.39c-.67,5.14-2.42,12.69-12,15.72l-2.71-3c7.25-2,10.11-6.13,10.92-13.44Zm-9.17-1.52a31,31,0,0,1,2.83,5.36l-3.16,1.64a29,29,0,0,0-2.79-5.36Z"/><path class="cls-4" d="M197.86,255.79c5.86-3.25,6.29-7.14,6.48-10.12h-4.2a24.81,24.81,0,0,1-3.48,4.64l-3.55-2.41a28.77,28.77,0,0,0,6.38-11l4.06,1.3a30.51,30.51,0,0,1-1.3,3.32h12.1v4.11h-5.62c-.16,3.39-.6,9.23-7.34,13.1Z"/><path class="cls-4" d="M238.55,245.79v4.11H217.86v-4.11Z"/><path class="cls-4" d="M249.09,249.18a53.63,53.63,0,0,0-7.35-2.93l1.61-3.73a54.51,54.51,0,0,1,7.35,2.88Zm13.58-3.61c-6.67,10.24-14.88,12.28-17.64,13l-1.75-4.32c9.84-1.71,14.88-9.69,16.59-12.36Zm-11.61-2a59.73,59.73,0,0,0-7.13-2.88l1.61-3.68a66.58,66.58,0,0,1,7.05,2.76Zm7.05-7.57a19.11,19.11,0,0,1,2.26,4.64l-2,1a20,20,0,0,0-2.16-4.69Zm3.77,0a21.39,21.39,0,0,1,2.14,4.69l-2.06.94a19.71,19.71,0,0,0-2-4.76Z"/><path class="cls-4" d="M38.77,277.06a2.5,2.5,0,1,1-2.5-2.5A2.49,2.49,0,0,1,38.77,277.06Zm8,0a2.5,2.5,0,1,1-2.5-2.5A2.49,2.49,0,0,1,46.76,277.06Zm8,0a2.5,2.5,0,1,1-2.49-2.5A2.48,2.48,0,0,1,54.75,277.06Z"/><path class="cls-4" d="M62.77,277.06a2.5,2.5,0,1,1-2.49-2.5A2.48,2.48,0,0,1,62.77,277.06Zm8,0a2.5,2.5,0,1,1-2.5-2.5A2.49,2.49,0,0,1,70.77,277.06Zm8,0a2.5,2.5,0,1,1-2.5-2.5A2.49,2.49,0,0,1,78.76,277.06Z"/><path class="cls-4" d="M87.09,266.79h4v19.4H86.59V271.53l-3.36,2.35-.55-4.08Z"/><path class="cls-4" d="M111.34,282.1v4.09H96.05c7.73-8.41,10.08-11.47,10.08-13.37a2.16,2.16,0,0,0-2.26-2.3c-2.57,0-4.08,2.45-4.61,3.31l-2-4.15a7.9,7.9,0,0,1,6.64-3.27c3.65,0,6.63,2.23,6.63,6.27,0,3.1-1.66,5.26-5.28,9.42Z"/><path class="cls-4" d="M114.32,283.54c-1.49-2.33-1.59-5.62-1.59-7.06,0-3.41.67-5.6,1.63-7.12a6.65,6.65,0,0,1,11.07,0c1.44,2.26,1.61,5.41,1.61,7.09a13.24,13.24,0,0,1-1.59,7.09,6.42,6.42,0,0,1-5.57,3A6.35,6.35,0,0,1,114.32,283.54Zm8.25-7.06c0-3.17-.55-6-2.69-6s-2.68,2.82-2.68,6c0,3.48.67,6,2.68,6S122.57,279.67,122.57,276.48Z"/><path class="cls-4" d="M133.71,281.72V286c0,2.55-1.63,3.25-4.46,3.3v-2.12c1.53,0,1.92-.36,2-1.15h-2v-4.28Z"/><path class="cls-4" d="M137.51,283.54c-1.49-2.33-1.59-5.62-1.59-7.06,0-3.41.67-5.6,1.63-7.12a6.65,6.65,0,0,1,11.07,0c1.44,2.26,1.61,5.41,1.61,7.09a13.33,13.33,0,0,1-1.59,7.09,6.42,6.42,0,0,1-5.57,3A6.35,6.35,0,0,1,137.51,283.54Zm8.25-7.06c0-3.17-.55-6-2.69-6s-2.68,2.82-2.68,6c0,3.48.67,6,2.68,6S145.76,279.67,145.76,276.48Z"/><path class="cls-4" d="M153.35,283.54c-1.49-2.33-1.58-5.62-1.58-7.06,0-3.41.67-5.6,1.63-7.12a6.64,6.64,0,0,1,11.06,0c1.44,2.26,1.61,5.41,1.61,7.09a13.33,13.33,0,0,1-1.58,7.09,6.43,6.43,0,0,1-5.57,3A6.36,6.36,0,0,1,153.35,283.54Zm8.26-7.06c0-3.17-.56-6-2.69-6s-2.69,2.82-2.69,6c0,3.48.67,6,2.69,6S161.61,279.67,161.61,276.48Z"/><path class="cls-4" d="M169.19,283.54c-1.48-2.33-1.58-5.62-1.58-7.06,0-3.41.67-5.6,1.63-7.12a6.65,6.65,0,0,1,11.07,0c1.44,2.26,1.6,5.41,1.6,7.09a13.33,13.33,0,0,1-1.58,7.09,6.43,6.43,0,0,1-5.57,3A6.36,6.36,0,0,1,169.19,283.54Zm8.26-7.06c0-3.17-.55-6-2.69-6s-2.69,2.82-2.69,6c0,3.48.68,6,2.69,6S177.45,279.67,177.45,276.48Z"/><path class="cls-4" d="M207.05,279.84h-12.7v8.63h-4.08V266.24H211.1v19.08c0,1.93-.28,3.15-3.26,3.15h-4l-.69-4.16h3.19c.72,0,.72-.36.72-.77ZM194.35,276h4.35v-5.86h-4.35Zm8.31,0h4.39v-5.86h-4.39Z"/><path class="cls-3" d="M222.75,287.22a8,8,0,0,1-2-5.22,8.15,8.15,0,0,1,2-5.21h.64a8.26,8.26,0,0,0-1.87,5.21,8.36,8.36,0,0,0,1.87,5.22Z"/><path class="cls-3" d="M226.63,279.86h1.3v.53h-1.3a9.9,9.9,0,0,0,1.37,2.25l-.37.47a10.13,10.13,0,0,1-1-1.7V287h-.57V281.8a9.57,9.57,0,0,1-1.68,2.78l-.31-.52a10.35,10.35,0,0,0,2-3.67h-1.91v-.53h1.91V278a10.52,10.52,0,0,1-1.64.22l-.23-.52a14.3,14.3,0,0,0,3.37-.63l.3.45a5.83,5.83,0,0,1-1.23.37Zm7.14-.54v3.57H232V286c0,.36,0,.39.4.39h.85c.33,0,.42,0,.53-1.46l.56.15c-.13,1.3-.18,1.46-.29,1.62s-.47.23-.73.23h-1.08c-.42,0-.83-.07-.83-.73v-3.34h-1.13c-.32,3-2,3.84-2.7,4.15l-.35-.44a4.13,4.13,0,0,0,2.47-3.71h-1.28v-3.57h3.35a12.75,12.75,0,0,0,1.28-2.4l.54.2a12.47,12.47,0,0,1-1.18,2.2Zm-4.15-.23a11.18,11.18,0,0,0-1-1.93l.49-.25a11.08,11.08,0,0,1,1,2Zm3.54.73H229v2.53h4.17Z"/><path class="cls-3" d="M237.34,281.27v2.88a2.19,2.19,0,0,0,.95,1.63,4.72,4.72,0,0,0,2.06.45h5l-.11.58h-4.86c-2.33,0-2.92-1-3.24-1.56a15.27,15.27,0,0,1-1.65,1.83l-.34-.53a10.43,10.43,0,0,0,1.64-1.72v-3h-1.63v-.56Zm.07-2.22a14.19,14.19,0,0,0-2-1.56l.35-.47a12.07,12.07,0,0,1,2.05,1.54Zm.66,5.66c.7-.54,2.88-2.22,3.53-6.86h-2.46v-.58h3a9.91,9.91,0,0,0,3.15,7.52l-.47.44a10.61,10.61,0,0,1-3-5.76,10.79,10.79,0,0,1-3.31,5.72Z"/><path class="cls-3" d="M252.08,282a.91.91,0,1,1-.91-.91A.93.93,0,0,1,252.08,282Z"/><path class="cls-3" d="M261.07,278.86v.52h-3.94v-.52Zm-.34-1.6v.53h-3.21v-.53Zm0,3.12v.55h-3.21v-.55Zm0,1.59v.54h-3.21V282Zm0,1.54v3.36h-3.21v-3.36Zm-.56.52h-2.1v2.31h2.1Zm5.41-6.77v2.55c0,.25.07.31.3.31h.32c.22,0,.35-.09.42-1.3l.58.19c-.1,1.29-.25,1.7-.83,1.7h-.69c-.53,0-.67-.22-.67-.7v-2.19H262.9c0,1.59-.18,2.48-1.23,3.35l-.42-.46c1.07-.82,1.07-1.72,1.07-3.25v-.2Zm1.31,9.79a10,10,0,0,1-2.75-1.47,7.66,7.66,0,0,1-2.59,1.39l-.27-.58a6.84,6.84,0,0,0,2.39-1.21,6.62,6.62,0,0,1-1.54-2.4l.52-.26a5.91,5.91,0,0,0,1.47,2.26,7,7,0,0,0,1.61-2.59h-4.29v-.57h4.93v.55a8,8,0,0,1-1.78,3,8.48,8.48,0,0,0,2.63,1.25Z"/><path class="cls-3" d="M277.69,279.31H273.4v.76h4.79v.49H273.4v.72h3.75v4.34h-6.58v-4.34h2.25v-.72h-4.7v-.49h4.7v-.76h-4.25v-2h9.12Zm.5,7.05v.49h-9.48v-5.38h.62v4.89Zm-6.79-8.55h-2.27v1h2.27Zm5.18,3.94h-5.41v.79h5.41Zm0,1.27h-5.41v.81h5.41Zm0,1.26h-5.41v.89h5.41Zm-2.34-6.47H272v1h2.28Zm2.87,0h-2.3v1h2.3Z"/><path class="cls-3" d="M287.87,285.34H280.5v-3.19a9.21,9.21,0,0,1-1.13.44l-.27-.51a5.31,5.31,0,0,0,2.83-1.68H279.6c.06-.27.25-1.33.31-1.65h2.61a3.19,3.19,0,0,0,.06-.69h-3.2v-.47h3.2V277h.58v.64h1.91V277h.58v.64h2.7v1.6h-2.7V280h3.46c-.09,2.2-.61,2.2-1.24,2.2Zm-8.68,1.08a10.9,10.9,0,0,0,3.26-.89l.42.43a11.54,11.54,0,0,1-3.38,1.05Zm3-6.47a3.73,3.73,0,0,0,.26-.76h-2c-.08.55-.09.6-.12.76Zm-.8,1.71a2.38,2.38,0,0,1-.3.18v.61h6.21v-.79Zm5.91,1.21h-6.21v.79h6.21Zm0,1.2h-6.21v.8h6.21Zm-2.21-2.81v-.86H282.6a3.06,3.06,0,0,1-.69.86Zm0-2.07h-2a6.64,6.64,0,0,1-.23.76h2.26Zm-1.91-1.13a3.88,3.88,0,0,1,0,.69h1.95v-.69Zm2.67,7.47a10.55,10.55,0,0,0,3.33.86l-.35.61a11,11,0,0,1-3.4-1Zm-.18-6.78h2.12v-.69h-2.12Zm2.22,2.84c.3,0,.51,0,.59-1.19h-2.81v.86h2.22Z"/><path class="cls-3" d="M292.31,281.27v2.88a2.14,2.14,0,0,0,.94,1.63,4.77,4.77,0,0,0,2.07.45h5l-.11.58h-4.86c-2.33,0-2.93-1-3.25-1.56a15.11,15.11,0,0,1-1.64,1.83l-.35-.53a10,10,0,0,0,1.64-1.72v-3h-1.62v-.56Zm.06-2.22a13.11,13.11,0,0,0-2-1.56l.36-.47a12.48,12.48,0,0,1,2.05,1.54Zm.66,5.66c.71-.54,2.88-2.22,3.53-6.86h-2.45v-.58h3a9.91,9.91,0,0,0,3.16,7.52l-.48.44a10.75,10.75,0,0,1-3-5.76,10.73,10.73,0,0,1-3.31,5.72Z"/><path class="cls-3" d="M306.13,286.36a8.43,8.43,0,0,0,2.37-3.1,8.37,8.37,0,0,0-2.78-1.37,19.68,19.68,0,0,1-1.32,2.39c-.64,1-1.06,1.4-1.59,1.4-.73,0-1.24-.7-1.24-1.62a3,3,0,0,1,3.17-2.88,4,4,0,0,1,.64.05c.51-1.15.73-1.64,1.17-2.8a24.9,24.9,0,0,1-3.46.17V278c.32,0,.63,0,1.06,0a15.51,15.51,0,0,0,2.81-.21l.41.36c-.59,1.4-.66,1.58-1.39,3.23a8.59,8.59,0,0,1,2.78,1.32,9.51,9.51,0,0,0,.6-2.56l.65.18a11.4,11.4,0,0,1-.72,2.75,17.22,17.22,0,0,1,1.56,1.3l-.36.58a16.58,16.58,0,0,0-1.46-1.28,9.05,9.05,0,0,1-2.37,3.12Zm-1.48-4.59a2.39,2.39,0,0,0-2.5,2.28c0,.61.29,1,.64,1,.67,0,1.61-1.86,2.31-3.27A3,3,0,0,0,304.65,281.77Z"/><path class="cls-3" d="M311.93,287.22a8.24,8.24,0,0,0,0-10.43h.64a8.3,8.3,0,0,1,2,5.21,8.15,8.15,0,0,1-2,5.22Z"/><path d="M47.06,320.63v6.08H44.32V310.14h6.61v1.57h2.83v-1.95h2.91v1.95h4.08v2.81H55.13V316h5.12c-.07,4-.12,7.8-.82,9.39a2.36,2.36,0,0,1-2.51,1.28H54.65L54,323.79h2c.64,0,.83-.14,1-.45a19.21,19.21,0,0,0,.41-4.68H55.05a11,11,0,0,1-4,8.27l-2.14-2.32a7.89,7.89,0,0,0,3.42-7.06v-3H50.91V313a29.58,29.58,0,0,1-1.21,3.49,6.54,6.54,0,0,1,1.42,4.08c0,2.78-2,2.78-2.77,2.78h-.72Zm0-7.64v3.63A25.54,25.54,0,0,0,48.19,313Zm0,7.56c.73,0,1.09,0,1.09-1a3.82,3.82,0,0,0-1.09-2.74Z"/><path d="M61.32,319.64a11.65,11.65,0,0,0,4.17-3,9.56,9.56,0,0,0-.3-.94,10.38,10.38,0,0,1-2.53,1.59l-1.3-2.84a9.31,9.31,0,0,0,2.45-1.35,11.77,11.77,0,0,0-1.61-1.89l2.2-1.59a12.23,12.23,0,0,1,1.44,1.54,7.32,7.32,0,0,0,1-1.54l2.52,1a11.25,11.25,0,0,1-1.94,3,19.57,19.57,0,0,1,1.29,7.11c0,5.85-2,6-3.14,6H62.76l-.56-2.92h2.54c.5,0,1.25,0,1.17-3.92a14.86,14.86,0,0,1-3.39,2.71Zm16.8-9.29v8.25a1.56,1.56,0,0,1-1.58,1.77h-3L73,317.59h1.65c.3,0,.52,0,.52-.45v-4H72.41V323c0,.36.09.56.5.56h2.21c.65,0,.73-.89.76-2.55l3,.66c-.24,3.21-.25,3.35-.61,4a1.91,1.91,0,0,1-1.64.86H71.13a1.6,1.6,0,0,1-1.64-1.57V310.35Z"/><path d="M89,310.35c0,2.18,0,3,0,3.07h5.94c0,1.37-.3,7.75-1.14,10.07a3.46,3.46,0,0,1-3.7,2.19c-.66,0-1.23,0-1.62-.07l-.61-3.16a19,19,0,0,0,2,.16c.88,0,1.13-.37,1.4-2a36.34,36.34,0,0,0,.41-4.19h-3a12.29,12.29,0,0,1-6,9.54l-2.33-2.28c4.11-2.5,4.77-5.28,5.14-7.26H80.65v-3h5.17c.05-1.29.07-1.8.07-3.07Z"/><path d="M110.24,323.45a32.27,32.27,0,0,0-3-3.08,21.5,21.5,0,0,1-6.88,5.75l-2.34-2.56a18.31,18.31,0,0,0,6.71-5.24,33,33,0,0,0-4.18-2.66l1.76-2.55a35.75,35.75,0,0,1,4.2,2.5,22.76,22.76,0,0,0,2-5.26l3.15.93a25.6,25.6,0,0,1-2.53,6.27,33.06,33.06,0,0,1,3.38,3.23Z"/><path d="M131,315.06c-.91,7.53-5.82,10.08-10.13,11.19l-1.74-2.75c6.09-1.24,7.39-4.31,7.88-5.5H116.15v-2.94ZM129.25,311v2.95H117.82V311Z"/><path d="M146.05,311.71h2.42v4.88h4.9V319h-4.9v4.88h-2.42V319h-4.89v-2.44h4.89Z"/><path d="M166.56,310.62V325h-3.33V310.62Z"/><path d="M173.47,314a5.66,5.66,0,1,1-5.29,5.64A5.31,5.31,0,0,1,173.47,314Zm0,8.47c.76,0,2.24-.45,2.24-2.83,0-1.63-.77-2.84-2.24-2.84-.73,0-2.25.41-2.25,2.84S172.79,322.47,173.47,322.47Z"/><path d="M187,325h-3.3V313.65h-4.25v-3h11.8v3H187Z"/><path d="M210.29,325.86A29.6,29.6,0,0,0,205.9,321a20.35,20.35,0,0,1-7.05,5.12l-2-2.71c4.68-1.93,7.87-5,9.49-8.89h-8.1V311.4h12.55a22.25,22.25,0,0,1-3,7.08,34.05,34.05,0,0,1,5,5.11Z"/><path d="M224.14,325.86a45.27,45.27,0,0,0-6.65-6.53l2.15-2.24c1.1.8,1.33,1,2.69,2.12,1.69-2.07,1.88-2.3,3.15-4h-10.4v-3.08h14.17l1.14,1.58a93.35,93.35,0,0,1-5.8,7.65s.83.83,2.06,2.3Z"/><path d="M248.05,316.73v3H232.71v-3Z"/><path d="M263.21,321.88a35.91,35.91,0,0,0-5.69-3.67v7.91H254.3V310.33h3.22v4.46a42.92,42.92,0,0,1,7.47,4.35Z"/><path d="M269.16,311.74h13.63v13.08H269.16Zm10.48,10.07v-7h-7.35v7Z"/><path d="M289.61,314.27a26.87,26.87,0,0,1,2.21,3.92l-2.31,1.27a25.3,25.3,0,0,0-2.16-3.89Zm10.43.29c-.5,3.81-1.8,9.41-8.88,11.65l-2-2.23c5.38-1.49,7.49-4.54,8.1-10Zm-6.8-1.13a22.49,22.49,0,0,1,2.1,4L293,318.62a22.05,22.05,0,0,0-2.07-4Z"/><path d="M306.12,323.74c2.88-1,7.67-3.6,8.82-9.49h-4.52a18.15,18.15,0,0,1-4.11,4.6l-2.38-2.05a16.48,16.48,0,0,0,4.55-5.52h10.34c-.69,7-3.86,12.42-10.55,15.06Z"/><path d="M51.12,338.11h2.42V343h4.9v2.44h-4.9v4.88H51.12v-4.88H46.23V343h4.89Z"/><path d="M73.36,344c-1,.13-1.91.2-3.32.31l-.6-2.19H68.12v-4.76h6.41v-1.18h3v1.18h6.49v4.76H81.61l.34.49c-1.62.43-4.32.84-5.62,1v1.25l8-.84.18,2.71-8.17.85v2.07c0,.52.19.52.48.52H80.4c.23,0,.39-.18.48-.52a14.28,14.28,0,0,0,.15-2l3,.66c-.13,2.9-.2,4.51-2.07,4.51H74.85a1.46,1.46,0,0,1-1.49-1.61v-3.35l-5.54.59-.21-2.71,5.75-.6Zm7.75-2.65v-1.43H71v1.68a51.66,51.66,0,0,0,9.28-1.44Z"/><path d="M94.38,336.61v2.57H91.67v1.05h2.48v12.45H85.67V340.23h2.55v-1.05H85.28v-2.57Zm-4.1,5.83h-.65v.87c0,2.05-.29,2.82-.82,3.4l-1-1.65v2.19h4.21v-.73H91c-.46,0-.73-.32-.73-.91Zm-1.78,0h-.65V345a2.09,2.09,0,0,0,.65-1.81Zm3.56,7H87.85v.92h4.21Zm-1.78-10.23h-.65v1.05h.65Zm1.78,3.26h-.71v1.73c0,.23,0,.35.25.35h.46Zm9.77,2.63H97.67v4.55c0,.16,0,.44.39.44h1.09c.41,0,.44-.32.48-.6.05-.46.05-1.41.05-2l2.85.74c-.2,3.54-.48,4.7-2.19,4.7H96.28a1.26,1.26,0,0,1-1.4-1.41v-9.09H99v-2.94H94.86v-2.83h7Z"/><path d="M103.33,349.1a19.62,19.62,0,0,0,3.6-5.68l2.74,1.33a22.48,22.48,0,0,1-3.7,6.15Zm15.82-9.25v2.94h-5.8v6.9c0,2.73-1.9,2.73-4.47,2.71l-.72-3.07,1.51,0c.39,0,.53-.13.53-.61v-6H104v-2.94h6.16v-3h3.15v3ZM117,350.78a36,36,0,0,0-3.19-5.79l2.59-1.59a37.17,37.17,0,0,1,3.34,5.7Zm-1.44-15.13a15.22,15.22,0,0,1,2.12,2.92l-1.39.94a13,13,0,0,0-2-2.95Zm3.1,0a16,16,0,0,1,2,3.07l-1.44.84a13.62,13.62,0,0,0-1.87-3.07Z"/><path d="M125.3,340.67a25.92,25.92,0,0,1,2.2,3.92l-2.31,1.27A24.42,24.42,0,0,0,123,342Zm10.43.29c-.5,3.81-1.8,9.41-8.88,11.65l-2-2.23c5.38-1.49,7.5-4.54,8.1-10Zm-6.8-1.13a23.88,23.88,0,0,1,2.1,4L128.68,345a21.43,21.43,0,0,0-2.07-4Z"/><path d="M141.8,350.14c2.88-1,7.67-3.6,8.83-9.49h-4.52a18.35,18.35,0,0,1-4.11,4.6l-2.39-2.05a16.39,16.39,0,0,0,4.56-5.52h10.34c-.7,7-3.87,12.42-10.56,15.06Z"/><path d="M170.58,352.26a29.82,29.82,0,0,0-4.4-4.89,20.2,20.2,0,0,1-7,5.12l-2-2.71c4.68-1.93,7.87-5,9.49-8.89h-8.1V337.8H171.1a22.25,22.25,0,0,1-3,7.08,34.05,34.05,0,0,1,5,5.11Z"/><rect class="cls-5" x="26" y="153" width="308" height="40" rx="9.1"/><rect class="cls-6" x="26" y="153" width="308" height="40" rx="9.1"/><path class="cls-7" d="M117.88,170.92h-2.19a13.53,13.53,0,0,1-1.88,4.71,25.69,25.69,0,0,1,3.89,2.19l-1.71,2.1a25.74,25.74,0,0,0-4-2.44c-1.67,1.26-3.92,1.93-7,2.39a7.39,7.39,0,0,0-1.15-2.23,15.35,15.35,0,0,0,5.59-1.38c-.63-.29-1.25-.55-1.86-.8l-.2.45-2.3-.81c.57-1.15,1.22-2.62,1.87-4.18h-3.26v-2.27h4.16c.45-1.14.87-2.29,1.22-3.35l2.85.49c0,.19-.18.28-.52.28-.29.81-.63,1.68-1,2.58h7.41Zm-9.37,2.52c.93.33,1.94.72,3,1.15a9.16,9.16,0,0,0,1.58-3.67h-3.51Z"/><path class="cls-7" d="M130.15,177.27h3.37v2.13h-9.31v-2.13h3.7v-2.45h-2.63v-2h2.63v-2.27H126.6a9.58,9.58,0,0,1-.68,1.84,11.83,11.83,0,0,0-1.82-1,4.51,4.51,0,0,0,.4-1.06l-.66.45a7.48,7.48,0,0,0-.66-1.12v10.25H121v-9h0a7.64,7.64,0,0,1-.58,2.1l-1.67-.89a9.31,9.31,0,0,0,.68-3.62l1.59.21V165.3l2.64.14c0,.17-.14.28-.45.32v2.31l.72-.44c.3.37.64.81.94,1.22a26.3,26.3,0,0,0,.34-2.86l2.5.49c0,.14-.17.23-.4.23-.06.57-.14,1.15-.23,1.73h.86V165.3l2.7.14c0,.19-.14.28-.46.34v2.66h3v2.08h-3v2.27h2.42v2h-2.42Z"/><path class="cls-7" d="M143.4,169.71a15.93,15.93,0,0,1-2.5.47c0,.6,0,1.17,0,1.7a11.23,11.23,0,0,1,2.7-.41c2.48,0,4.56,1.21,4.56,3.83,0,2.31-1.27,3.94-4,3.94a3.67,3.67,0,0,1-2.81-1.3,13.67,13.67,0,0,0,1.15-1.79,2.27,2.27,0,0,0,1.69.94,1.59,1.59,0,0,0,1.63-1.79c0-1.11-.81-1.84-2.25-1.84a10.05,10.05,0,0,0-2.63.41v2.86a2.69,2.69,0,0,1-3,2.74,2.73,2.73,0,0,1-3-2.72c0-1.27,1-2.85,3.76-4.06v-2.32c-1,0-2.06.06-3.26.06l-.05-2.22c1.23,0,2.33,0,3.31,0v-2.48l2.85.06a.4.4,0,0,1-.4.36c0,.6-.07,1.21-.1,1.84a11.46,11.46,0,0,0,2.15-.53Zm-4.77,5.1c-.69.44-1.63,1.05-1.63,1.89a.72.72,0,0,0,.79.81.77.77,0,0,0,.86-.88C138.65,176.27,138.65,175.54,138.63,174.81Zm8.65-3.78a11.68,11.68,0,0,0-3.45-2l1.14-1.91a11,11,0,0,1,3.61,1.88Z"/><path class="cls-7" d="M150,167.32a20.17,20.17,0,0,0,4.29-.53,2.25,2.25,0,0,0,.92-.51l1.74,1.59a9.29,9.29,0,0,0-3.56,6.6,2.42,2.42,0,0,0,2.67,2.57c2.94,0,2.94-2.1,2.94-3.17a12,12,0,0,0-.78-5l2.13-1.09a7.83,7.83,0,0,0,3.86,3.58l-.89,2.34a4.74,4.74,0,0,1-2.4-2.06h0a14.3,14.3,0,0,1,.31,3c0,2.66-1.56,4.62-5.16,4.62-3.44,0-4.94-2-4.94-4.77a9.33,9.33,0,0,1,2.08-5.48,11.24,11.24,0,0,1-2.6.47.32.32,0,0,1-.31.23Z"/><path class="cls-7" d="M177.59,171.73a.39.39,0,0,1-.16,0,.8.8,0,0,1-.38-.11c-4.67,1.21-7.8,2.68-7.77,4.13,0,1,1,1.42,3,1.42a35.11,35.11,0,0,0,5.45-.44l.21,2.36a54.37,54.37,0,0,1-5.7.3c-2.47,0-5.4-.5-5.4-3.55,0-1.59,1.36-2.91,3.58-4.11-.6-1.2-.76-2.87-.72-6.09l3.23.26c0,.23-.17.35-.52.39,0,.49,0,.95,0,1.4a10.83,10.83,0,0,0,.28,3c1.23-.53,2.64-1,4.15-1.57Z"/><path class="cls-7" d="M183.5,174.45a16.74,16.74,0,0,1-.4-3.53,28.22,28.22,0,0,1,.42-4.45l2.82.35a.45.45,0,0,1-.37.27,17.75,17.75,0,0,0-.57,3.88h0a13.4,13.4,0,0,1,1.13-1.93,12.34,12.34,0,0,0,1,1.48,14.5,14.5,0,0,0-1.68,2.8,1.68,1.68,0,0,0-.06.4c0,.12,0,.23,0,.38Zm9.16-8.38c0,.17-.14.29-.37.37.12,1.14.26,3.1.26,5.14,0,2.95-.91,5.78-5.94,7.85a12.63,12.63,0,0,0-1.69-1.85c4.24-1.64,5-4.09,5-6a45.62,45.62,0,0,0-.38-5.66Z"/><path class="cls-7" d="M199.89,170.45v.5c.42.57,1.52,2.25,1.76,2.63l-1.12,1.58c-.16-.4-.39-.92-.64-1.47v6.15h-2v-5a10.5,10.5,0,0,1-1.15,2.35,10.84,10.84,0,0,0-.95-2,13.89,13.89,0,0,0,1.94-4.77h-1.56v-2.06h1.72V165.3l2.46.14c0,.15-.14.25-.45.31v2.64h1.42v2.06Zm7.14,3.16a10.34,10.34,0,0,0,.46,1,11.06,11.06,0,0,0,1.3-1.41l1.85,1.41a.37.37,0,0,1-.31.11.55.55,0,0,1-.18,0,15,15,0,0,1-1.7,1.27,6.13,6.13,0,0,0,2.33,1.66,8.63,8.63,0,0,0-1.41,1.8,6.8,6.8,0,0,1-2.34-2.25v.54c0,1.64-.51,2.14-3,2.14a6.74,6.74,0,0,0-.47-1.71c-.55.36-1.08.69-1.49.93a.36.36,0,0,1-.19.35l-1.06-2.05c.86-.35,2.19-1,3.48-1.64l.5,1.58c-.3.22-.6.41-.91.61.32,0,.61,0,.74,0s.24-.08.24-.25v-4.57h-3.4v-1.79h3.4v-.42h-2.62v-1.69h2.62v-.42h-3V167h1.19a7.34,7.34,0,0,0-.54-1.13l1.76-.58a7.21,7.21,0,0,1,.85,1.65L205,167h1.83l-.09,0a10.73,10.73,0,0,0,.72-1.73l2.38.72c-.06.12-.22.19-.45.19-.14.24-.34.56-.54.85h1.33v1.79H207v.42h2.79v1.69H207v.42h3.47v1.79H207Zm-3.94-.35a11.31,11.31,0,0,1,1.51,1.81l-1.61,1.1a10.43,10.43,0,0,0-1.42-1.91Z"/><path class="cls-7" d="M216.06,166.56c0,.17-.16.29-.45.32a34.25,34.25,0,0,0-.82,7.33,6.72,6.72,0,0,0,.05,1.07c.14-.31.72-1.47.91-1.93l1,1.76a16.27,16.27,0,0,0-1.26,2.44,2.47,2.47,0,0,0-.12.73,2.69,2.69,0,0,0,.07.57l-2.34.33a18.81,18.81,0,0,1-.73-5.57,55.12,55.12,0,0,1,.68-7.43Zm9,11.55c-.57,0-1.17,0-1.75,0-2,0-5.68,0-5.68-2.94a4.86,4.86,0,0,1,1.27-3.09l2.26.72a2.84,2.84,0,0,0-1.06,2c0,.82.71,1,2.76,1a18.13,18.13,0,0,0,2.28-.14ZM218,168a54.14,54.14,0,0,0,6.44-.57l.2,2.3a57.75,57.75,0,0,1-6.56.5Z"/><path class="cls-7" d="M228.15,179a25.21,25.21,0,0,1-.6-6.06,37.4,37.4,0,0,1,.76-6.83l2.85.52c0,.17-.25.29-.43.33a23.92,23.92,0,0,0-1,7.69c0,.26,0,.48,0,.61.17-.42.59-1.59.81-2.09l1.15,1.56a27.32,27.32,0,0,0-1.2,2.66,2.47,2.47,0,0,0-.17.92,4.26,4.26,0,0,0,0,.58Zm4.19-9.66c.22,0,.44,0,.65,0,.57,0,1.82,0,2.51-.05-.06-1.13-.1-2.12-.12-3.26l2.88.09a.4.4,0,0,1-.38.34v2.65a23.34,23.34,0,0,0,2.51-.49l.17,2.26a16.43,16.43,0,0,1-2.62.37c.05,1.23.11,2.43.18,3.44a11.21,11.21,0,0,1,2.75,1.67l-1.2,2.2a8,8,0,0,0-1.47-1.31c-.37,1.87-2.06,2-3.1,2-1.94,0-3.06-1.11-3.06-2.57,0-1.63,1.46-2.6,3.09-2.6.22,0,.44,0,.67,0-.06-.74-.11-1.78-.17-2.71l-1.2,0h-2.05Zm3.66,6.8a2.42,2.42,0,0,0-.85-.16c-.66,0-1.19.22-1.19.72s.51.68,1.13.68a.86.86,0,0,0,.92-.88C236,176.38,236,176.24,236,176.11Z"/><path class="cls-7" d="M245.72,172.57a1.39,1.39,0,1,1-1.39-1.38A1.38,1.38,0,0,1,245.72,172.57Zm5.13,0a1.39,1.39,0,1,1-1.39-1.38A1.38,1.38,0,0,1,250.85,172.57Zm5.13,0a1.39,1.39,0,0,1-2.77,0,1.39,1.39,0,0,1,2.77,0Z"/><path class="cls-4" d="M71.32,465.88a24,24,0,0,1-4,3.29,17,17,0,0,0,4.37,4.91L68.54,477A22.39,22.39,0,0,1,62,463.38h-.46a6,6,0,0,1-1.41,1.25,11.46,11.46,0,0,1,3.28,8c0,4-2.06,4.95-3.48,4.95h-4L55.33,475a34.19,34.19,0,0,1-5.59,1.87l-1.34-3.39a32.67,32.67,0,0,0,11.14-3.77,8.78,8.78,0,0,0-.27-.87,30,30,0,0,1-8.9,3.37L49,469.13a27.37,27.37,0,0,0,9-2.41l-.56-.65a28.17,28.17,0,0,1-7.2,2L49,464.92c2.25-.12,5.54-.48,7.39-1.54H52v-1.3H49.48v-5.81h8.71v-1.49h3.94v1.49h8.71v5.81H68.27v1.3h-3a20.5,20.5,0,0,0,.57,2.53,17.17,17.17,0,0,0,3.08-2.74ZM67,460.5v-1H53.32v1ZM58.7,474.44c.72,0,1.2-.17,1.17-2a21.49,21.49,0,0,1-3.41,2Z"/><path class="cls-4" d="M95.42,458.5H86.09v.8h7.48v4.78H86.09v.7h8v2.69h1.47v3H94.1v3.12h-8v1.78c0,1.11-.44,2.24-1.92,2.24h-5.5l-.7-3h3.68c.6,0,.6-.22.6-1H74v-2.43h8.26v-.79H72.67v-2.64h9.58V467H74v-2.21h8.21v-.7H74.83V459.3h7.42v-.8H73v-2.71h9.29v-1.13h3.84v1.13h9.33Zm-13.17,2.74H78.6v.92h3.65Zm7.56,0H86.09v.92h3.72Zm.38,5.75h-4.1v.91h4.1Zm0,3.31h-4.1v.89h4.1Z"/><path class="cls-4" d="M118.23,461.89c-1.23,10.17-7.85,13.61-13.66,15.1l-2.35-3.7c8.21-1.69,10-5.82,10.63-7.43H98.21v-4Zm-2.35-5.5v4H100.47v-4Z"/><path class="cls-4" d="M124.81,473.6c3.89-1.35,10.34-4.86,11.9-12.79h-6.09a24.45,24.45,0,0,1-5.55,6.2l-3.21-2.76A22.26,22.26,0,0,0,128,456.8H142c-.94,9.47-5.21,16.75-14.24,20.31Z"/><path class="cls-4" d="M163.63,476.46a40.61,40.61,0,0,0-5.93-6.59,27.45,27.45,0,0,1-9.51,6.9l-2.66-3.65c6.31-2.6,10.61-6.73,12.79-12H147.4V457h16.92a29.86,29.86,0,0,1-4,9.55,45.4,45.4,0,0,1,6.72,6.9Z"/><path class="cls-4" d="M182.3,476.46a61.68,61.68,0,0,0-9-8.8l2.9-3c1.49,1.08,1.8,1.35,3.62,2.86,2.28-2.79,2.55-3.1,4.25-5.41h-14v-4.15h19.1l1.54,2.13a122.54,122.54,0,0,1-7.83,10.32s1.13,1.13,2.79,3.1Z"/><path class="cls-4" d="M214.54,464.15v4.11H193.85v-4.11Z"/><path class="cls-4" d="M235,471.1a48.11,48.11,0,0,0-7.68-5v10.67H223v-21.3h4.35v6a59,59,0,0,1,10.08,5.87Z"/><path class="cls-4" d="M262.27,461.89c-1.23,10.17-7.85,13.61-13.66,15.1l-2.35-3.7c8.21-1.69,10-5.82,10.63-7.43H242.25v-4Zm-2.36-5.5v4H244.5v-4Z"/><path class="cls-4" d="M279.17,476.7h-4.42V466.05a45.47,45.47,0,0,1-7.1,2.88l-2.12-3.77a42.65,42.65,0,0,0,17.38-10l3.31,2.79a50.13,50.13,0,0,1-7.05,5.58Z"/><path class="cls-4" d="M309.94,457.32c-.52,7.14-2.66,15-12.72,19.43l-2.83-3.59c8.5-3.26,10-9,10.56-11.7h-14.4v-4.14Z"/><path class="cls-4" d="M130.86,487.56c-.79,6.3-2.59,12.45-6.17,17.67L120.56,503a35.54,35.54,0,0,0,5.86-16.13Zm7.39,16.82a48.8,48.8,0,0,0-5.4-16l3.72-2A48.37,48.37,0,0,1,142.76,503Zm6-17.83A3.24,3.24,0,1,1,141,483.3,3.25,3.25,0,0,1,144.28,486.55Zm-4.83,0a1.59,1.59,0,1,0,3.17,0,1.59,1.59,0,1,0-3.17,0Z"/><path class="cls-4" d="M150.57,490.08a35.53,35.53,0,0,1,3,5.29l-3.12,1.71a31.78,31.78,0,0,0-2.9-5.24Zm14.06.39c-.67,5.14-2.42,12.69-12,15.72l-2.72-3c7.25-2,10.11-6.13,10.93-13.43ZM155.46,489a30.4,30.4,0,0,1,2.84,5.36L155.13,496a28.45,28.45,0,0,0-2.79-5.36Z"/><path class="cls-4" d="M173.85,503.4c5.86-3.25,6.29-7.14,6.49-10.12h-4.21a24.81,24.81,0,0,1-3.48,4.64l-3.55-2.41a28.78,28.78,0,0,0,6.39-11l4,1.3a33,33,0,0,1-1.29,3.32h12.09v4.11h-5.61c-.17,3.39-.6,9.23-7.35,13.1Z"/><path class="cls-4" d="M214.54,493.4v4.11H193.85V493.4Z"/><path class="cls-4" d="M225.08,496.79a53.1,53.1,0,0,0-7.34-2.93l1.61-3.73a55,55,0,0,1,7.34,2.88Zm13.59-3.61c-6.67,10.24-14.88,12.29-17.64,13l-1.76-4.32c9.85-1.71,14.89-9.69,16.59-12.36Zm-11.62-2a61.45,61.45,0,0,0-7.13-2.88l1.61-3.68a67.79,67.79,0,0,1,7.06,2.77Zm7.06-7.57a19.48,19.48,0,0,1,2.25,4.64l-2,1a19.7,19.7,0,0,0-2.16-4.68Zm3.77,0a20.92,20.92,0,0,1,2.13,4.69l-2.06.94a19.32,19.32,0,0,0-2-4.76Z"/><path class="cls-4" d="M38.77,524.67a2.5,2.5,0,1,1-5,0,2.47,2.47,0,0,1,2.49-2.5A2.51,2.51,0,0,1,38.77,524.67Zm8,0a2.5,2.5,0,1,1-2.5-2.5A2.5,2.5,0,0,1,46.76,524.67Zm8,0a2.5,2.5,0,1,1-2.49-2.5A2.49,2.49,0,0,1,54.75,524.67Z"/><path class="cls-4" d="M62.77,524.67a2.5,2.5,0,1,1-2.49-2.5A2.49,2.49,0,0,1,62.77,524.67Zm8,0a2.5,2.5,0,1,1-2.5-2.5A2.5,2.5,0,0,1,70.77,524.67Zm8,0a2.5,2.5,0,1,1-2.5-2.5A2.5,2.5,0,0,1,78.76,524.67Z"/><path class="cls-4" d="M87.09,514.4h4v19.4H86.59V519.14l-3.36,2.35-.55-4.08Z"/><path class="cls-4" d="M98.47,531.16c-1.49-2.34-1.58-5.63-1.58-7.07,0-3.41.67-5.6,1.63-7.12a6.65,6.65,0,0,1,11.07,0c1.44,2.26,1.6,5.41,1.6,7.09a13.33,13.33,0,0,1-1.58,7.09,6.43,6.43,0,0,1-5.57,3A6.37,6.37,0,0,1,98.47,531.16Zm8.26-7.07c0-3.17-.55-6-2.69-6s-2.69,2.82-2.69,6c0,3.48.67,6,2.69,6S106.73,527.29,106.73,524.09Z"/><path class="cls-4" d="M114.32,531.16c-1.49-2.34-1.59-5.63-1.59-7.07,0-3.41.67-5.6,1.63-7.12a6.65,6.65,0,0,1,11.07,0c1.44,2.26,1.61,5.41,1.61,7.09a13.24,13.24,0,0,1-1.59,7.09,6.42,6.42,0,0,1-5.57,3A6.35,6.35,0,0,1,114.32,531.16Zm8.25-7.07c0-3.17-.55-6-2.69-6s-2.68,2.82-2.68,6c0,3.48.67,6,2.68,6S122.57,527.29,122.57,524.09Z"/><path class="cls-4" d="M133.71,529.33v4.25c0,2.55-1.63,3.25-4.46,3.3v-2.12c1.53,0,1.92-.36,2-1.15h-2v-4.28Z"/><path class="cls-4" d="M137.51,531.16c-1.49-2.34-1.59-5.63-1.59-7.07,0-3.41.67-5.6,1.63-7.12a6.65,6.65,0,0,1,11.07,0c1.44,2.26,1.61,5.41,1.61,7.09a13.33,13.33,0,0,1-1.59,7.09,6.42,6.42,0,0,1-5.57,3A6.35,6.35,0,0,1,137.51,531.16Zm8.25-7.07c0-3.17-.55-6-2.69-6s-2.68,2.82-2.68,6c0,3.48.67,6,2.68,6S145.76,527.29,145.76,524.09Z"/><path class="cls-4" d="M153.35,531.16c-1.49-2.34-1.58-5.63-1.58-7.07,0-3.41.67-5.6,1.63-7.12a6.64,6.64,0,0,1,11.06,0c1.44,2.26,1.61,5.41,1.61,7.09a13.33,13.33,0,0,1-1.58,7.09,6.43,6.43,0,0,1-5.57,3A6.37,6.37,0,0,1,153.35,531.16Zm8.26-7.07c0-3.17-.56-6-2.69-6s-2.69,2.82-2.69,6c0,3.48.67,6,2.69,6S161.61,527.29,161.61,524.09Z"/><path class="cls-4" d="M169.19,531.16c-1.48-2.34-1.58-5.63-1.58-7.07,0-3.41.67-5.6,1.63-7.12a6.65,6.65,0,0,1,11.07,0c1.44,2.26,1.6,5.41,1.6,7.09a13.33,13.33,0,0,1-1.58,7.09,6.43,6.43,0,0,1-5.57,3A6.37,6.37,0,0,1,169.19,531.16Zm8.26-7.07c0-3.17-.55-6-2.69-6s-2.69,2.82-2.69,6c0,3.48.68,6,2.69,6S177.45,527.29,177.45,524.09Z"/><path class="cls-4" d="M207.05,527.45h-12.7v8.63h-4.08V513.85H211.1v19.08c0,1.93-.28,3.15-3.26,3.15h-4l-.69-4.16h3.19c.72,0,.72-.36.72-.76Zm-12.7-3.82h4.35v-5.86h-4.35Zm8.31,0h4.39v-5.86h-4.39Z"/><path class="cls-3" d="M222.75,534.83a8,8,0,0,1-2-5.21,8.15,8.15,0,0,1,2-5.22h.64a8.21,8.21,0,0,0,0,10.43Z"/><path class="cls-3" d="M226.63,527.47h1.3V528h-1.3a9.9,9.9,0,0,0,1.37,2.25l-.37.47a10.13,10.13,0,0,1-1-1.7v5.63h-.57v-5.24a9.57,9.57,0,0,1-1.68,2.78l-.31-.52a10.35,10.35,0,0,0,2-3.67h-1.91v-.53h1.91v-1.9a12.51,12.51,0,0,1-1.64.23l-.23-.53a14.3,14.3,0,0,0,3.37-.63l.3.45a6.32,6.32,0,0,1-1.23.38Zm7.14-.54v3.57H232v3.15c0,.35,0,.38.4.38h.85c.33,0,.42,0,.53-1.46l.56.15c-.13,1.3-.18,1.47-.29,1.62s-.47.23-.73.23h-1.08c-.42,0-.83-.07-.83-.73V530.5h-1.13c-.32,3-2,3.84-2.7,4.15l-.35-.44a4.13,4.13,0,0,0,2.47-3.71h-1.28v-3.57h3.35a12.75,12.75,0,0,0,1.28-2.4l.54.2a12.13,12.13,0,0,1-1.18,2.2Zm-4.15-.23a11.18,11.18,0,0,0-1-1.93l.49-.25a11.08,11.08,0,0,1,1,2Zm3.54.74H229V530h4.17Z"/><path class="cls-3" d="M237.34,528.88v2.88a2.17,2.17,0,0,0,.95,1.63,4.72,4.72,0,0,0,2.06.45h5l-.11.58h-4.86c-2.33,0-2.92-1-3.24-1.56a14.54,14.54,0,0,1-1.65,1.83l-.34-.53a11,11,0,0,0,1.64-1.71v-3h-1.63v-.56Zm.07-2.21a13.54,13.54,0,0,0-2-1.57l.35-.47a12.07,12.07,0,0,1,2.05,1.54Zm.66,5.65c.7-.53,2.88-2.22,3.53-6.85h-2.46v-.59h3a9.89,9.89,0,0,0,3.15,7.52l-.47.44a10.61,10.61,0,0,1-3-5.76,10.79,10.79,0,0,1-3.31,5.72Z"/><path class="cls-3" d="M252.08,529.62a.91.91,0,1,1-.91-.92A.93.93,0,0,1,252.08,529.62Z"/><path class="cls-3" d="M261.07,526.47V527h-3.94v-.53Zm-.34-1.6v.53h-3.21v-.53Zm0,3.12v.55h-3.21V528Zm0,1.59v.54h-3.21v-.54Zm0,1.54v3.36h-3.21v-3.36Zm-.56.52h-2.1V534h2.1Zm5.41-6.77v2.55c0,.25.07.31.3.31h.32c.22,0,.35-.08.42-1.3l.58.19c-.1,1.29-.25,1.7-.83,1.7h-.69c-.53,0-.67-.22-.67-.7v-2.19H262.9c0,1.59-.18,2.48-1.23,3.35l-.42-.46c1.07-.82,1.07-1.72,1.07-3.25v-.2Zm1.31,9.79a10,10,0,0,1-2.75-1.47,7.66,7.66,0,0,1-2.59,1.39l-.27-.58a6.67,6.67,0,0,0,2.39-1.21,6.54,6.54,0,0,1-1.54-2.4l.52-.26a5.91,5.91,0,0,0,1.47,2.26,7,7,0,0,0,1.61-2.59h-4.29v-.57h4.93v.55a8,8,0,0,1-1.78,3,8.48,8.48,0,0,0,2.63,1.25Z"/><path class="cls-3" d="M277.69,526.92H273.4v.76h4.79v.49H273.4v.72h3.75v4.34h-6.58v-4.34h2.25v-.72h-4.7v-.49h4.7v-.76h-4.25v-2h9.12Zm.5,7.06v.48h-9.48v-5.38h.62V534Zm-6.79-8.56h-2.27v1h2.27Zm5.18,3.94h-5.41v.8h5.41Zm0,1.27h-5.41v.81h5.41Zm0,1.27h-5.41v.88h5.41Zm-2.34-6.48H272v1h2.28Zm2.87,0h-2.3v1h2.3Z"/><path class="cls-3" d="M287.87,533H280.5v-3.19a9.21,9.21,0,0,1-1.13.44l-.27-.51a5.31,5.31,0,0,0,2.83-1.68H279.6c.06-.27.25-1.33.31-1.65h2.61a3.19,3.19,0,0,0,.06-.69h-3.2v-.47h3.2v-.64h.58v.64h1.91v-.64h.58v.64h2.7v1.6h-2.7v.76h3.46c-.09,2.2-.61,2.2-1.24,2.2ZM279.19,534a10.9,10.9,0,0,0,3.26-.89l.42.43a12,12,0,0,1-3.38,1.06Zm3-6.47a3.73,3.73,0,0,0,.26-.76h-2c-.08.55-.09.6-.12.76Zm-.8,1.71a1.59,1.59,0,0,1-.3.18v.61h6.21v-.79Zm5.91,1.22h-6.21v.78h6.21Zm0,1.2h-6.21v.79h6.21Zm-2.21-2.82V528H282.6a3.06,3.06,0,0,1-.69.86Zm0-2.07h-2a6.64,6.64,0,0,1-.23.76h2.26Zm-1.91-1.13a3.88,3.88,0,0,1,0,.69h1.95v-.69Zm2.67,7.47a10.55,10.55,0,0,0,3.33.86l-.35.61a11,11,0,0,1-3.4-1Zm-.18-6.78h2.12v-.69h-2.12Zm2.22,2.84c.3,0,.51,0,.59-1.19h-2.81v.86h2.22Z"/><path class="cls-3" d="M292.31,528.88v2.88a2.12,2.12,0,0,0,.94,1.63,4.77,4.77,0,0,0,2.07.45h5l-.11.58h-4.86c-2.33,0-2.93-1-3.25-1.56a14.39,14.39,0,0,1-1.64,1.83l-.35-.53a10.47,10.47,0,0,0,1.64-1.71v-3h-1.62v-.56Zm.06-2.21a12.55,12.55,0,0,0-2-1.57l.36-.47a12.48,12.48,0,0,1,2.05,1.54Zm.66,5.65c.71-.53,2.88-2.22,3.53-6.85h-2.45v-.59h3a9.9,9.9,0,0,0,3.16,7.52l-.48.44a10.75,10.75,0,0,1-3-5.76,10.73,10.73,0,0,1-3.31,5.72Z"/><path class="cls-3" d="M306.13,534a8.55,8.55,0,0,0,2.37-3.11,8.34,8.34,0,0,0-2.78-1.36,21.32,21.32,0,0,1-1.32,2.39c-.64,1-1.06,1.39-1.59,1.39-.73,0-1.24-.7-1.24-1.62a3,3,0,0,1,3.17-2.88,2.91,2.91,0,0,1,.64.06c.51-1.16.73-1.65,1.17-2.81a23.42,23.42,0,0,1-3.46.17v-.65c.32,0,.63,0,1.06,0a15.51,15.51,0,0,0,2.81-.21l.41.36c-.59,1.4-.66,1.59-1.39,3.23a8.59,8.59,0,0,1,2.78,1.32,9.39,9.39,0,0,0,.6-2.56l.65.18a11.27,11.27,0,0,1-.72,2.75,17.22,17.22,0,0,1,1.56,1.3l-.36.58a16.58,16.58,0,0,0-1.46-1.28,9.05,9.05,0,0,1-2.37,3.12Zm-1.48-4.6a2.39,2.39,0,0,0-2.5,2.28c0,.61.29,1,.64,1,.67,0,1.61-1.86,2.31-3.27C305,529.4,304.83,529.38,304.65,529.38Z"/><path class="cls-3" d="M311.93,534.83a8.24,8.24,0,0,0,0-10.43h.64a8.32,8.32,0,0,1,2,5.22,8.15,8.15,0,0,1-2,5.21Z"/><path d="M57.85,578.79a29.89,29.89,0,0,0-4.4-4.88,20.32,20.32,0,0,1-7,5.11l-2-2.71c4.68-1.92,7.87-5,9.49-8.89h-8.1v-3.08H58.36a22.19,22.19,0,0,1-3,7.07,34,34,0,0,1,5,5.12Z"/><path d="M71.7,578.79A46.24,46.24,0,0,0,65,572.27L67.2,570c1.1.81,1.33,1,2.68,2.12,1.69-2.06,1.89-2.29,3.15-4H62.64v-3.08H76.81l1.13,1.59a88.59,88.59,0,0,1-5.8,7.64s.84.84,2.07,2.3Z"/><path d="M95.6,569.67v3H80.26v-3Z"/><path d="M110.77,574.82a35.91,35.91,0,0,0-5.69-3.67v7.91h-3.23V563.27h3.23v4.45a44,44,0,0,1,7.47,4.35Z"/><path d="M116.72,564.68h13.63v13.08H116.72Zm10.48,10.07v-7h-7.35v7Z"/><path d="M137.17,567.21a26.87,26.87,0,0,1,2.21,3.92l-2.32,1.26a24.33,24.33,0,0,0-2.15-3.88Zm10.43.28c-.5,3.82-1.8,9.41-8.88,11.66l-2-2.23c5.37-1.5,7.49-4.54,8.1-10Zm-6.8-1.12a22.05,22.05,0,0,1,2.1,4l-2.35,1.22a21.76,21.76,0,0,0-2.06-4Z"/><path d="M153.67,576.67c2.88-1,7.67-3.6,8.83-9.48H158a18.52,18.52,0,0,1-4.11,4.6l-2.39-2a16.43,16.43,0,0,0,4.56-5.53h10.34c-.7,7-3.86,12.43-10.55,15.06Z"/><path d="M179.5,564.64h2.44v4.88h4.87V572h-4.87v4.88H179.5V572h-4.88v-2.45h4.88Z"/><path d="M207.82,578.79a29.89,29.89,0,0,0-4.4-4.88,20.32,20.32,0,0,1-7,5.11l-2-2.71c4.68-1.92,7.87-5,9.49-8.89h-8.1v-3.08h12.54a22,22,0,0,1-3,7.07,33.68,33.68,0,0,1,5,5.12Z"/><path d="M221.67,578.79a46.24,46.24,0,0,0-6.66-6.52l2.16-2.25c1.1.81,1.33,1,2.68,2.12,1.69-2.06,1.89-2.29,3.15-4H212.61v-3.08h14.17l1.13,1.59a88.59,88.59,0,0,1-5.8,7.64s.84.84,2.07,2.3Z"/><path d="M245.57,569.67v3H230.23v-3Z"/><path d="M260.74,574.82a35.5,35.5,0,0,0-5.7-3.67v7.91h-3.22V563.27H255v4.45a43.6,43.6,0,0,1,7.48,4.35Z"/><path d="M280.71,565.12h-6v.56h7v3.9h-2.88v-2.3h-4.09v2.8h-2.6v-2.8h-4v2.3h-2.74v-3.9h6.73v-.56h-5.84v-2h14.47ZM282.19,576c-.29,3.44-1.46,3.44-2.6,3.44h-5.82c-1.24,0-1.9-.48-1.9-1.46v-1h-5.81v-6.6h14.72v5.22Zm-10.63-8.27v.86h-3v-.86Zm0,1.37V570h-3v-.88Zm.31,5.31H269v.88h2.92Zm0-2.26H269V573h2.9Zm5.94,0H274.7V573h3.11Zm0,2.26H274.7v.88h3.11Zm.61,3.18a.73.73,0,0,0,.87-.57H274.7c0,.28,0,.57.33.57Zm-.15-9.86v.86h-3.08v-.86Zm0,1.37V570h-3.08v-.88Z"/><path d="M287.69,577a36.54,36.54,0,0,1-4.71,1.23l-.36-3.1c.48-.07,1-.12,2-.3v-3.5H283v-2.7h1.59v-2.48h-1.76v-2.71h6v1.73h3.91v-2.48h2.78v2.48h1.8a7.86,7.86,0,0,0-1.53-1.48l1.79-1.25a13.07,13.07,0,0,1,2,1.69l-1.46,1h1.71V568h-4.27v.75a10.15,10.15,0,0,0,.68,2.19,13.64,13.64,0,0,0,1.4-2.81l2.37,1.09a20.5,20.5,0,0,1-1.91,3.47l-1.47-.94A12.9,12.9,0,0,0,300.1,576l-1.5,3a15.8,15.8,0,0,1-3.13-4.4v3.23c0,1.74-1.25,1.81-2.19,1.81h-2.46l-.33-2.72a23.29,23.29,0,0,1-2,1.69Zm4.9-2.28a11.83,11.83,0,0,1-1.87,2h1.4c.31,0,.57,0,.57-.48V568h-3.93v-1.83h-1.41v2.48h1.27v.65l1.87-1.1a13.25,13.25,0,0,1,2.1,3.21l-2.35,1.35a10.28,10.28,0,0,0-1.62-2.88v1.47h-1.27v2.87l1.46-.42.07.8a14.85,14.85,0,0,0,2.21-2.05Z"/><path d="M311.67,564.64h2.44v4.88H319V572h-4.87v4.88h-2.44V572h-4.88v-2.45h4.88Z"/><path d="M47.9,590v14.39H44.57V590Z"/><path d="M54.81,593.34A5.65,5.65,0,1,1,49.52,599,5.31,5.31,0,0,1,54.81,593.34Zm0,8.47c.76,0,2.24-.45,2.24-2.84,0-1.62-.77-2.83-2.24-2.83-.73,0-2.25.41-2.25,2.83S54.13,601.81,54.81,601.81Z"/><path d="M68.32,604.34H65V593H60.77v-3h11.8v3H68.32Z"/><path d="M83.59,590.22v9.64H80.32v-9.64Zm8.29-.27v6c0,3.31-.42,7.68-6.71,9.51l-1.87-2.8c4.85-1.21,5.33-3.93,5.33-6.68V590Z"/><path d="M104.65,595.51h6.83v3h-6.83V601c0,1,.41,1,1.9,1,1.78,0,3.44-.08,4.16-.12l-.08,3c-1.41,0-2.69.1-3.83.1-2.83,0-5.29-.26-5.29-3.42v-3H96.25v-3h5.26v-1.72H97.44v-3h12.87v3h-5.66Z"/><path d="M114.72,600.84h10.43v-6.43H114.88v-3.08h13.51v12.61H114.72Z"/><path d="M138.08,596a22.45,22.45,0,0,0-5.43-2.72l1.48-2.76a24.2,24.2,0,0,1,5.66,2.69Zm9.32-.17a20.31,20.31,0,0,1-5.76,6.2,20.06,20.06,0,0,1-7.71,3.24l-1.1-3.24c5-.93,9.11-3.07,12.47-9Z"/><path d="M159.88,591h2.44v4.88h4.88v2.45h-4.88v4.88h-2.44v-4.88H155v-2.45h4.87Z"/><path d="M186.4,594a6.84,6.84,0,0,0-4.12-1.34c-3.39,0-4.7,2.26-4.7,4.49,0,1.68.8,4.4,4.66,4.4a4.9,4.9,0,0,0,2.08-.39v-2.37h-3V596h6.26v7.57a12.8,12.8,0,0,1-5.27,1.09c-5.48,0-8-3.74-8-7.48,0-4.44,3.36-7.47,8-7.47a10.4,10.4,0,0,1,5.23,1.39Z"/><path d="M194.06,593.34a5.65,5.65,0,1,1-5.29,5.63A5.31,5.31,0,0,1,194.06,593.34Zm0,8.47c.76,0,2.24-.45,2.24-2.84,0-1.62-.76-2.83-2.24-2.83-.73,0-2.24.41-2.24,2.83S193.38,601.81,194.06,601.81Z"/><path d="M205.59,593.34a5.65,5.65,0,1,1-5.28,5.63A5.31,5.31,0,0,1,205.59,593.34Zm0,8.47c.77,0,2.25-.45,2.25-2.84,0-1.62-.77-2.83-2.25-2.83-.73,0-2.24.41-2.24,2.83S204.92,601.81,205.59,601.81Z"/><path d="M222.06,596a1.93,1.93,0,0,0-.77-.16,1.57,1.57,0,0,0-.5.07,3.4,3.4,0,0,1,.24,1.33c0,2.77-2.57,3.84-5.09,3.64-.27.12-.34.27-.34.43,0,.51.76.55,1.6.59,1.83.07,5,.19,5,3.33,0,3.37-3.74,3.85-5.56,3.85-3.45,0-4.86-1.7-4.86-3.57a2.9,2.9,0,0,1,1.59-2.62,2,2,0,0,1-.86-1.57,1.8,1.8,0,0,1,.79-1.4,3.45,3.45,0,0,1-1.27-2.73c0-2.23,1.8-3.85,4.51-3.85a5.15,5.15,0,0,1,2.35.48,3.37,3.37,0,0,1,1.83-.48,2.92,2.92,0,0,1,1.37.27Zm-5.52,8.23c-.44,0-1.83,0-1.83,1.14s1.42,1.25,2.21,1.25c.55,0,2.29-.09,2.29-1.34C219.21,604.41,218,604.23,216.54,604.23Zm-1.69-7c0,.84.73,1.35,1.66,1.35a1.48,1.48,0,0,0,1.67-1.39c0-.76-.57-1.39-1.66-1.39A1.52,1.52,0,0,0,214.85,597.19Z"/><path d="M228.47,604.34h-1.32c-3,0-3.38-1-3.38-3.44V589.3h3.06v11.33c0,.69.21.89.94.89h.7Z"/><path d="M232.28,599.92c.07.62.26,2.05,2.67,2.05a7,7,0,0,0,3.36-.84v2.8a8.69,8.69,0,0,1-3.52.69c-4.79,0-5.57-3.71-5.57-5.56,0-3.37,2.06-5.72,5-5.72a4.59,4.59,0,0,1,4.39,2.94,9.57,9.57,0,0,1,.55,3.64Zm3.86-2.16a1.91,1.91,0,0,0-1.92-1.82,1.88,1.88,0,0,0-1.89,1.82Z"/><path d="M254.28,595.23V590h3.31v14.39h-3.31v-6.06h-4.5v6.06h-3.3V590h3.3v5.28Z"/><path d="M264.3,593.34A5.65,5.65,0,1,1,259,599,5.32,5.32,0,0,1,264.3,593.34Zm0,8.47c.77,0,2.24-.45,2.24-2.84,0-1.62-.76-2.83-2.24-2.83-.73,0-2.24.41-2.24,2.83S263.62,601.81,264.3,601.81Z"/><path d="M276.94,604.34v-6.17c0-.66,0-2-1.3-2-.36,0-1.62.16-1.62,2v6.19H271V593.63h2.9v1a3.24,3.24,0,0,1,2.62-1.27,3,3,0,0,1,2.58,1.41,4.07,4.07,0,0,1,3.2-1.39,3.52,3.52,0,0,1,3.29,1.78A6.55,6.55,0,0,1,286,598v6.33h-3.06v-6.17c0-.68,0-2-1.36-2s-1.56,1.55-1.56,2.08v6.12Z"/><path d="M290.43,599.92c.07.62.27,2.05,2.67,2.05a7,7,0,0,0,3.36-.84v2.8a8.65,8.65,0,0,1-3.52.69c-4.79,0-5.57-3.71-5.57-5.56,0-3.37,2.06-5.72,5-5.72a4.61,4.61,0,0,1,4.4,2.94,9.77,9.77,0,0,1,.55,3.64Zm3.86-2.16a1.91,1.91,0,0,0-1.92-1.82,1.88,1.88,0,0,0-1.89,1.82Z"/><rect class="cls-5" x="26" y="400" width="308" height="40" rx="9.1"/><rect class="cls-6" x="26" y="400" width="308" height="40" rx="9.1"/><path class="cls-7" d="M99.39,417.72H93.56v5.54c0,.83.12,1.09.77,1.09H97a9.13,9.13,0,0,0,1.68-.16c0,.57.14,1.56.23,2.1a7.9,7.9,0,0,1-2,.17H94.42c-2.4,0-3.13-.84-3.13-3.29v-5.45H90.23v-.35l-.51.34a7.48,7.48,0,0,0-.66-1.12v10.25H86.87v-9h0a7.64,7.64,0,0,1-.58,2.1l-1.67-.89a9.31,9.31,0,0,0,.68-3.62l1.59.21V412.3l2.64.14c0,.17-.14.28-.45.32v2.31l.72-.44.76,1h3.13V412.3l2.73.14c0,.19-.16.28-.48.34v2.81h3.47Z"/><path class="cls-7" d="M106.47,413.08c0,.19-.17.33-.46.37-.14,2.16-.3,5.51-.3,7.74,0,1.81.94,2.64,2.44,2.64s3-.71,4.72-2.33a16.39,16.39,0,0,0,1.32,2.11,8.62,8.62,0,0,1-6.06,2.63c-3.69,0-5-2-5-5,0-2.11.09-6.41.2-8.23Z"/><path class="cls-7" d="M119.63,414.49a.46.46,0,0,1-.39.28,24,24,0,0,0-.44,4.36c0,2.78.75,4,1.54,4,.47,0,1-1.52,1.28-2.59a11,11,0,0,0,1.91,1.5c-.71,2.59-1.79,3.63-3.27,3.63-2.62,0-3.72-3.25-3.84-5.54,0-.54,0-1.12,0-1.73a34.87,34.87,0,0,1,.3-4.48Zm7.86,7.52a7.14,7.14,0,0,0-3.53-5.39l1.49-1.73a8.61,8.61,0,0,1,4.5,6.3Z"/><path class="cls-7" d="M137.76,423.44a.42.42,0,0,1-.49.17,24.33,24.33,0,0,1-4.36,3.28,17.88,17.88,0,0,0-2-1.67,13.2,13.2,0,0,0,4.05-2.91Zm7.63-3.55v2.18H131.24v-2.18h3.18V417H131.8v-2.16h2.62V412.4l2.8.15c0,.17-.13.27-.46.34v2h3.07V412.4l2.84.15c0,.17-.16.27-.48.34v2H145V417h-2.8v2.86ZM136.76,417v2.86h3.07V417Zm6.49,9.79a41.15,41.15,0,0,0-4-3.35l2.16-1.17a43.94,43.94,0,0,1,4.13,3.18Z"/><path class="cls-7" d="M159.91,415.76l1,0c0,.16,0,.42,0,.65-.09,6.48-.18,8.79-.6,9.45s-.86.92-2.56.87a5.31,5.31,0,0,0-.37-1.62,7.09,7.09,0,0,1-1.14,1.76,7.31,7.31,0,0,0-1.14-.92c-1.55.2-3.08.39-4.14.49a.36.36,0,0,1-.28.25l-.66-2c.61,0,1.38-.07,2.22-.13v-.69h-1.84v-1.61h1.84v-.56H150.4v-4.63h1.83v-.45h-2v-1.61h2v-.37c-.54.05-1.06.08-1.57.09a8.22,8.22,0,0,0-.29-1c-.27.78-.54,1.56-.85,2.32l.6.19a.49.49,0,0,1-.45.29v10.33h-2v-7.12c-.23.37-.47.72-.72,1.06a22.92,22.92,0,0,0-.83-2.41,19.36,19.36,0,0,0,2.49-6.09l2.35.75a.3.3,0,0,1-.22.17v0a39.39,39.39,0,0,0,4.29-.63l1.2,1.58c-.06,0-.09,0-.37,0-.51.09-1.11.19-1.77.26v.54h2.06v.7h.54v-3.41l2.3.12c0,.16-.14.25-.42.29v3Zm-8.13,2.65v.44h.64v-.44Zm0,1.61v.44h.64V420Zm2.1-1.17h.66v-.44h-.66Zm0,1.61h.66V420h-.66Zm2.13,1.85v1a18.47,18.47,0,0,0,.69-5.66h-.6v-1h-2v.45H156v4.63h-1.91v.56Zm-1.93,1.61v.55l1.51-.12a3.36,3.36,0,0,0,.2-.43Zm4.5-6.26a19,19,0,0,1-1.11,7.22l.73,0c.18,0,.3-.06.43-.29.23-.4.32-2.09.4-7Z"/><path class="cls-7" d="M175.38,418.67a18.94,18.94,0,0,1-4.1.76,5.36,5.36,0,0,0,2.14,1.67l-1.3,1.81a3.57,3.57,0,0,0-2.26-.66,5.74,5.74,0,0,0-.93.08l-.58-1.69c.21,0,.49,0,.75,0a3.47,3.47,0,0,1,.47,0,6.16,6.16,0,0,1-.67-.95c-1.14.06-2.34.09-3.34.09-.68,0-1.7,0-2.65,0l0-1.93c.78,0,1.75.05,2.57.05s1.93,0,2.81-.06c-.1-.32-.27-.83-.36-1.23-.46,0-1.12,0-1.69,0-.87,0-1.59,0-2.35,0l0-1.94c.75.05,1.49.06,2.22.06.41,0,1,0,1.43,0-.11-.6-.21-1.41-.29-2.07l2.88.07c0,.18-.17.32-.43.38,0,.4.08,1,.14,1.45a19.09,19.09,0,0,0,3.77-.7l.42,2a22.77,22.77,0,0,1-3.79.65c.09.38.2.88.29,1.22a19.55,19.55,0,0,0,4.47-1Zm-2.75,7.59a23.64,23.64,0,0,1-2.49.11l-1.24,0c-2.72-.05-4.56-1-4.56-2.78a3.2,3.2,0,0,1,1.6-2.47l1.58,1.41a1.3,1.3,0,0,0-.79.93c0,.66.85.89,2.5.89a32.26,32.26,0,0,0,3.53-.18Z"/><path class="cls-7" d="M181.77,413.73a19.24,19.24,0,0,1,3.13-.25,6.53,6.53,0,0,1,4.27,1.17,5.57,5.57,0,0,1,1.81,4.6,6.14,6.14,0,0,1-1.86,4.91,7.2,7.2,0,0,1-4.75,1.33,20.88,20.88,0,0,1-2.6-.16Zm2.69,9.59a4.43,4.43,0,0,0,.65,0c1.77,0,3-1.16,3-4.08,0-2.47-1.14-3.69-2.85-3.69a4.08,4.08,0,0,0-.84.07Z"/><path class="cls-7" d="M192.6,413.56h2.71v11.83H192.6Z"/><path class="cls-7" d="M206.3,425.39h-2.7l-2.08-4.3a42.27,42.27,0,0,1-1.66-3.9h-.07c.08,1.37.14,3.18.14,5.29v2.91H197.5V413.56h2.9l2,4.24a38,38,0,0,1,1.63,3.76h0c-.13-1.38-.23-3.23-.23-5.19v-2.81h2.44Z"/><path class="cls-7" d="M217.3,425.39h-3.08L212,420.51l-.79,1.1v3.78h-2.7V413.56h2.7v5.2h0c.21-.47.44-.93.68-1.41l2.08-3.79h3.2l-3.34,5.09Z"/><path class="cls-7" d="M224.34,416.14a4.71,4.71,0,0,0-2.1-.49c-1,0-1.55.51-1.55,1.09s.49,1,1.94,1.64c1.9.84,2.68,2,2.68,3.47,0,2.16-1.65,3.69-4.53,3.69a7,7,0,0,1-2.94-.61l.46-2.27a6.14,6.14,0,0,0,2.59.62c1.14,0,1.69-.49,1.69-1.2s-.54-1.12-1.77-1.67c-1.88-.85-2.85-2-2.85-3.42,0-2,1.54-3.58,4.3-3.58a6,6,0,0,1,2.59.52Z"/><path class="cls-7" d="M234.77,413.56c0,.17-.15.29-.45.32a34.19,34.19,0,0,0-.81,7.33,8.38,8.38,0,0,0,0,1.07c.14-.31.73-1.47.91-1.93l1,1.76a15.86,15.86,0,0,0-1.27,2.43,2.92,2.92,0,0,0-.12.74,2.18,2.18,0,0,0,.08.57l-2.35.33a18.83,18.83,0,0,1-.72-5.57,55.12,55.12,0,0,1,.68-7.43Zm9,11.55c-.57,0-1.17.05-1.76.05-2,0-5.67,0-5.67-2.94a4.91,4.91,0,0,1,1.26-3.09l2.27.72a2.85,2.85,0,0,0-1.07,2c0,.82.71,1,2.76,1a18.41,18.41,0,0,0,2.29-.14Zm-7-10.16a54.49,54.49,0,0,0,6.45-.57l.2,2.3a60.54,60.54,0,0,1-6.57.51Z"/><path class="cls-7" d="M246.87,426a24.65,24.65,0,0,1-.61-6.06,37.4,37.4,0,0,1,.76-6.83l2.85.52c0,.17-.25.3-.43.33a23.92,23.92,0,0,0-1,7.69,5,5,0,0,0,0,.61c.17-.42.58-1.59.8-2.09l1.16,1.56a25,25,0,0,0-1.21,2.66,2.69,2.69,0,0,0-.17.92,4.26,4.26,0,0,0,0,.58Zm4.19-9.66c.21,0,.43,0,.65,0,.57,0,1.81,0,2.51-.05-.06-1.13-.11-2.12-.13-3.26l2.89.09a.41.41,0,0,1-.39.34v2.65a23.34,23.34,0,0,0,2.51-.49l.17,2.26a16.26,16.26,0,0,1-2.62.37c.05,1.22.11,2.43.19,3.44a11.14,11.14,0,0,1,2.74,1.67l-1.2,2.21a7.65,7.65,0,0,0-1.46-1.32c-.37,1.87-2.07,2-3.1,2-1.95,0-3.07-1.11-3.07-2.57,0-1.63,1.46-2.6,3.1-2.6.21,0,.43,0,.66,0-.06-.74-.11-1.78-.17-2.71l-1.2,0h-2Zm3.65,6.8a2.62,2.62,0,0,0-.85-.16c-.66,0-1.18.22-1.18.72s.51.68,1.12.68a.87.87,0,0,0,.93-.88A2.43,2.43,0,0,0,254.71,423.11Z"/><path class="cls-7" d="M264.43,419.57a1.39,1.39,0,1,1-1.39-1.38A1.38,1.38,0,0,1,264.43,419.57Zm5.13,0a1.39,1.39,0,0,1-2.77,0,1.39,1.39,0,0,1,2.77,0Zm5.14,0a1.39,1.39,0,1,1-1.39-1.38A1.38,1.38,0,0,1,274.7,419.57Z"/><path class="cls-3" d="M38.83,93.81l.42.43-4.61,4.65,4.61,4.62-.42.43-4.61-4.58-4.6,4.58-.43-.43,4.61-4.62-4.61-4.65.43-.43,4.6,4.62Zm-7.34,5.06a1,1,0,0,1-1,1,1,1,0,0,1-1-1,1,1,0,0,1,2,0Zm3.72,3.8a1,1,0,0,1-1,1,1,1,0,0,1-.09-2h.09A1,1,0,0,1,35.21,102.67Zm0-7.56a1,1,0,0,1-1,1,1,1,0,0,1-1-1,1,1,0,0,1,1-1A1,1,0,0,1,35.22,95.11Zm3.7,3.78a1,1,0,1,1-1-1A1,1,0,0,1,38.92,98.89Z"/><path class="cls-3" d="M42.59,95.56a5.39,5.39,0,0,0,1.14.13h1.83c.29-.34.37-.46.65-.81.48.36.64.49,1.13.9a.3.3,0,0,1,.07.11.11.11,0,0,1-.11.1H43.69c-.3,0-.55,0-1,.05Zm.4-1.77a5.23,5.23,0,0,0,1,.1h1.56c.28-.32.35-.43.63-.73.45.35.58.46,1,.82a.22.22,0,0,1,.06.13s-.06.08-.16.08H44a8.79,8.79,0,0,0-.89,0Zm0,5.14a7.16,7.16,0,0,0,1.08.1h1.43l.64-.72c.47.37.61.47,1,.86a.31.31,0,0,1,0,.09.08.08,0,0,1-.09.07H44.09a6.33,6.33,0,0,0-1,.08Zm0-1.75a6.54,6.54,0,0,0,1.06.09H45.4c.3-.32.4-.41.69-.73l1,.84a.39.39,0,0,1,.08.11.09.09,0,0,1-.09.08h-3a7.23,7.23,0,0,0-1,.08Zm1.06,7.25c0,.17-.13.22-.56.22-.23,0-.28,0-.29-.18,0-.74,0-1.06,0-2.15s0-1.3,0-2.13a6.2,6.2,0,0,1,.85.62h1.69c.22-.24.29-.32.48-.56l.68.56c.1.11.14.16.14.21s0,.1-.42.35c0,2.15,0,2.38,0,2.88,0,.11,0,.17-.1.2a2.14,2.14,0,0,1-.54.07.16.16,0,0,1-.19-.17v-.45H44.09Zm0-.83h1.77v-2.49H44.09ZM50.89,98h1.34c.28-.37.37-.49.67-.86.46.41.6.54,1,1a.59.59,0,0,1,.05.12c0,.07-.05.09-.17.09H50.89v2.31h1.74c.35-.41.47-.54.82-.93.49.43.63.56,1.09,1a.22.22,0,0,1,.06.13s-.05.07-.15.07H50.89v1.19s0,.51,0,1.17c0,.25,0,.61,0,1.12,0,.21-.13.25-.68.25-.21,0-.27,0-.27-.19v-.05c0-1.7,0-2.67,0-3.32v-.17H48.39a7.14,7.14,0,0,0-1.09.08l-.09-.49a6.06,6.06,0,0,0,1.18.12H50V98.26H48.6a4.77,4.77,0,0,0-.87.08l-.1-.48a7,7,0,0,0,1,.1H50V96H48.6a5.26,5.26,0,0,0-.92.07l-.11-.5a4.45,4.45,0,0,0,1.06.13h2.23a2.74,2.74,0,0,0,.16-.28,10.87,10.87,0,0,0,.86-1.83c.1-.29.13-.37.19-.6,1.45.51,1.45.51,1.45.61s-.15.18-.64.21a17.16,17.16,0,0,1-1.72,1.89h1.35c.31-.38.42-.48.72-.84a8.31,8.31,0,0,1,1,.94.29.29,0,0,1,.08.11s0,.09-.13.09h-3.3ZM48.21,93c1.35.83,1.68,1.15,1.68,1.64s-.28.83-.48.83-.15-.06-.21-.22-.25-.63-.39-1a4.68,4.68,0,0,0-.72-1.17Z"/><path class="cls-3" d="M66.43,101.49a6,6,0,0,1-4.56,2.69,2.36,2.36,0,0,1-2.16-1.1,4.49,4.49,0,0,1-.36-2.2c0-.72,0-1.95.1-3.14.08-1.4.09-1.77.09-2.24,0-1.12-.13-1.34-1-1.73a.53.53,0,0,1,.36-.13,3.26,3.26,0,0,1,1.17.3c.49.24.75.5.75.77a1.38,1.38,0,0,1-.11.47,39.73,39.73,0,0,0-.68,6.24A1.88,1.88,0,0,0,60.5,103a1.93,1.93,0,0,0,1.16.35,6.78,6.78,0,0,0,3-.84,8,8,0,0,0,1.65-1.15Z"/><path class="cls-3" d="M73.62,93.29a2.77,2.77,0,0,1,1.45.69c.2.21.28.34.28.52s-.06.25-.75.81a30.15,30.15,0,0,0-2.39,2.25c-.46.51-.62.81-.62,1a1.05,1.05,0,0,0,.38.68c.19.2.19.2.91.86a11.18,11.18,0,0,1,2.39,2.65,1.63,1.63,0,0,1,.2.86c0,.5-.17.78-.44.78s-.22-.06-.44-.53a12.49,12.49,0,0,0-1.1-1.84,24.08,24.08,0,0,0-1.89-2.35,1.71,1.71,0,0,1-.5-1.09c0-.42.21-.77,1-1.75,1.58-1.91,2-2.46,2-2.77s-.17-.41-.72-.77A.59.59,0,0,1,73.62,93.29Z"/><path class="cls-3" d="M83.39,99c-.23.82-.59,2.24-.75,2.88a4.44,4.44,0,0,0-.17,1.1c0,.42,0,.47-.09.58a.29.29,0,0,1-.25.14c-.22,0-.4-.18-.55-.59a7.67,7.67,0,0,1-.42-2.61,19.2,19.2,0,0,1,.58-4.33,5.88,5.88,0,0,0,.2-1.17,2,2,0,0,0-.38-1.15c.3,0,.55.18.91.65a1.85,1.85,0,0,1,.47,1c0,.14,0,.14-.21.57a10.24,10.24,0,0,0-1,4.24A5.39,5.39,0,0,0,82,102l.55-1.3L83.2,99Zm1.3-2.35a2.74,2.74,0,0,0,1.68.53A6.77,6.77,0,0,0,87.85,97v-.57c0-1.46,0-1.63-.18-1.81a1.33,1.33,0,0,0-.86-.3.73.73,0,0,1,.63-.21,3.59,3.59,0,0,1,.88.12c.38.11.57.27.57.47s0,.1-.12.4a6,6,0,0,0-.27,1.74,3.25,3.25,0,0,0,1.2-.53c.13-.13.16-.14.28-.14a1.37,1.37,0,0,1,.61.17.26.26,0,0,1,.17.23c0,.29-1,.68-2.3.94a25.73,25.73,0,0,0,.17,3.54c1.51.4,2.14.91,2.14,1.66,0,.27-.11.48-.26.48s-.19-.06-.45-.32a4,4,0,0,0-1.4-1c0,.11,0,.22,0,.31,0,.94-.78,1.49-2.08,1.49-1.13,0-1.92-.54-1.92-1.32s1-1.47,2.44-1.47c.25,0,.43,0,.79,0v-.22l0-1.4,0-1.66a5.55,5.55,0,0,1-1.14.1,2.56,2.56,0,0,1-2.14-.91Zm2,4.75c-1,0-1.66.34-1.66.91s.51.77,1.27.77a1.48,1.48,0,0,0,1.43-.62,1.63,1.63,0,0,0,.17-.91A4.35,4.35,0,0,0,86.68,101.44Z"/><path class="cls-3" d="M96.84,97.44h.46l.54-.73c.4.37.52.49.87.86a.14.14,0,0,1,.05.09c0,.06-.05.08-.13.08H96.84v3.31c.72-.29,1.09-.46,1.94-.84l.09.17A29.19,29.19,0,0,1,95,102.65c0,.45-.08.61-.2.61s-.18-.17-.65-1.35a13,13,0,0,0,1.81-.55V97.74h-.86a3.18,3.18,0,0,0-.79.07l-.08-.48a4.3,4.3,0,0,0,.87.11H96V94.23H95a4.19,4.19,0,0,0-.77.06l-.09-.48a3.75,3.75,0,0,0,.86.12h2.24c.25-.35.33-.46.57-.77.43.38.56.51,1,.91a.2.2,0,0,1,0,.09s0,.07-.1.07H96.84Zm6.42,6c0,.25,0,.25.83.25s.86,0,1-.28a16.58,16.58,0,0,0,.57-2.23h.19l-.06,2v0c0,.23,0,.27.26.34a.35.35,0,0,1,.28.32.44.44,0,0,1-.24.37,6.17,6.17,0,0,1-1.85.17c-1.06,0-1.42,0-1.58-.19s-.21-.31-.21-.67v-3.33h-.89a4.44,4.44,0,0,1-1.32,2.81,6.39,6.39,0,0,1-2.46,1.28,7.81,7.81,0,0,1-1.37.28l-.09-.21a6.24,6.24,0,0,0,2.15-.85,4.25,4.25,0,0,0,2.25-3.31H100v.43c0,.18-.13.22-.69.22-.18,0-.25,0-.25-.18v0c.05-1.38.07-2.69.07-5.37,0-.85,0-1.5-.07-2.25a10.62,10.62,0,0,1,1,.6H104c.22-.26.3-.34.54-.6.35.26.45.34.76.6.11.09.14.14.14.19s0,.11-.45.39c0,4.66,0,4.66,0,6.26a.15.15,0,0,1-.1.16,3.58,3.58,0,0,1-.59.06c-.18,0-.22,0-.23-.14v-.35h-.86Zm.86-9.52H100v1.79h4.08Zm0,2.09H100v1.74h4.08Zm0,2H100v1.84h4.08Z"/><path class="cls-3" d="M111.9,97.12c.26-.34.34-.46.6-.78l.93.88a.26.26,0,0,1,.07.12s0,.08-.12.08h-1.87v4.15c.61-.21,1-.35,1.94-.74l.09.16a15.74,15.74,0,0,1-1.84,1.08l-1.85,1c0,.13,0,.24-.06.3s-.1.31-.18.31-.11,0-.5-1.37a13,13,0,0,0,1.57-.46V97.42h-.74a4.5,4.5,0,0,0-.83.07L109,97a4.19,4.19,0,0,0,.93.09h.74V95c0-.41,0-.56-.08-1.7,1.26.15,1.46.2,1.46.34s-.15.17-.55.28v3.2Zm4.42-.12c0-3.12,0-3.12-.07-3.92,1.24.17,1.24.17,1.37.25a.17.17,0,0,1,.06.1c0,.1-.05.12-.56.32v3L119,96c.15-.31.2-.4.35-.67l1,.53c.12.11.13.13.13.18s-.15.24-.43.42a25.46,25.46,0,0,1-.31,4.16,1.09,1.09,0,0,1-.45.74,1.85,1.85,0,0,1-.83.27c-.06-.55-.28-.76-1-.89v-.21c.48,0,.83.08,1.08.08s.44-.09.53-.83a26.15,26.15,0,0,0,.16-3.52l-2,.75v2.2c0,1.21,0,1.69,0,3,0,.17-.16.22-.63.22-.18,0-.25,0-.26-.17,0-2.42,0-2.9,0-3.93v-1l-1.59.58v5.31c0,.18,0,.23.08.26a8.63,8.63,0,0,0,1.79.09c.74,0,2.13,0,2.39,0,.48,0,.54,0,.68-.38a23.06,23.06,0,0,0,.82-2.53l.19,0-.19,2.29c0,.21,0,.21,0,.22s0,.15.29.28a.29.29,0,0,1,.17.27c0,.27-.3.5-.77.56a16.63,16.63,0,0,1-2.13.08h-1.65c-2.21,0-2.44-.08-2.48-.87l0-2.89V98.21l-.48.18a2.75,2.75,0,0,0-.78.41l-.26-.41a4.13,4.13,0,0,0,.94-.28l.58-.21V96.19c0-.71,0-1,0-1.64,1.29.17,1.4.2,1.4.34s-.14.18-.53.3v2.4Z"/><path class="cls-3" d="M125.64,104.09a8.64,8.64,0,0,0,2.36-3.28,9.68,9.68,0,0,0,.78-2.83c0-.36-.25-.62-.77-.84a.37.37,0,0,1,.3-.13,3,3,0,0,1,1,.38,1.14,1.14,0,0,1,.56.46A16.3,16.3,0,0,0,132.19,96c.3-.29.41-.43.41-.53s-.16-.19-.77-.19a24.36,24.36,0,0,0-4.48.72,8.6,8.6,0,0,0-1.33.45.78.78,0,0,1-.3.07c-.28,0-.75-.39-1-.88a1.71,1.71,0,0,1-.24-.7.56.56,0,0,1,.09-.3,1.24,1.24,0,0,0,1.28.78,24,24,0,0,0,3.13-.34l.9-.1a7.73,7.73,0,0,0,2.39-.39.41.41,0,0,1,.17,0,1.44,1.44,0,0,1,.69.38c.56.43.93.87.93,1.09s-.07.25-.46.35a3.19,3.19,0,0,0-.64.28c-1.08.61-1.66.91-3.07,1.57-.07.22-.09.25-.19.59a10.43,10.43,0,0,1-1.87,3.72,8.11,8.11,0,0,1-2,1.74Z"/><path class="cls-3" d="M140.51,100.88c0,.74,0,2.26,0,2.6v.23c0,.39-.09.56-.29.56s-.28-.11-.46-.35a1.84,1.84,0,0,1-.34-.84,1.43,1.43,0,0,1,.1-.49,24.83,24.83,0,0,0,.22-4.47c0-2.68,0-3.38-.2-3.71a1.47,1.47,0,0,0-.84-.66.57.57,0,0,1,.34-.11,2.87,2.87,0,0,1,1.26.45c.37.2.5.35.5.54a.51.51,0,0,1-.08.24c-.17.35-.22.88-.22,2.83a9.58,9.58,0,0,1,3.31.89.87.87,0,0,1,.53.86c0,.32-.11.57-.28.57s-.18,0-.51-.33A8.2,8.2,0,0,0,140.51,98v2.85ZM143,94.05c1.67.7,2.24,1.15,2.24,1.75,0,.37-.16.68-.35.68s-.16,0-.48-.56a6.11,6.11,0,0,0-1.52-1.72Zm1.19-.93a6.33,6.33,0,0,1,1.79.86.83.83,0,0,1,.41.73c0,.34-.13.61-.29.61s-.19,0-.49-.48A5.94,5.94,0,0,0,144,93.28Z"/><path class="cls-3" d="M148.28,102.05a13.49,13.49,0,0,0,3.19-3.61,2.75,2.75,0,0,0,.54-1.28c0-.21-.17-.42-.65-.75a1.38,1.38,0,0,1,.28,0,2.5,2.5,0,0,1,1.07.44c.44.29.62.5.62.71a.35.35,0,0,1-.16.28,2.8,2.8,0,0,0-.54.6,12.51,12.51,0,0,1-2.73,2.85,7.34,7.34,0,0,1-1.52,1Zm7-5.71a11.62,11.62,0,0,1,3.42,3,2.15,2.15,0,0,1,.54,1.38c0,.54-.2,1-.49,1s-.25-.08-.43-.6a11.52,11.52,0,0,0-3.18-4.62Zm1.33-1.69a7.8,7.8,0,0,1,1.66.89,1,1,0,0,1,.45.82c0,.37-.11.6-.3.6s-.2-.08-.44-.45a5.87,5.87,0,0,0-1.48-1.7Zm1.27-.73a6.34,6.34,0,0,1,1.65.74c.35.23.48.41.48.7s-.12.66-.31.66-.17-.06-.29-.23a5.49,5.49,0,0,0-1.63-1.72Z"/><path class="cls-3" d="M163,100.77a21.75,21.75,0,0,0,4.89-3.69c1.28-1.26,2.12-2.32,2.12-2.7s-.21-.45-.73-.74a.58.58,0,0,1,.26,0,2,2,0,0,1,1.12.39c.44.3.67.6.67.85s0,.14-.52.57a14,14,0,0,0-1.05,1,20.12,20.12,0,0,1-1.55,1.4,2.77,2.77,0,0,1,.8.73,13,13,0,0,1,.09,1.92c0,.91,0,1.74.06,2.48,0,.29,0,.66,0,.74,0,.46-.09.65-.29.65s-.89-.71-.89-1.09a.86.86,0,0,1,.08-.34,17.51,17.51,0,0,0,.23-3.2,6.49,6.49,0,0,0-.07-1.24c0-.13-.1-.19-.29-.4a24.68,24.68,0,0,1-2.49,1.78,16.66,16.66,0,0,1-2.34,1.14Z"/><path class="cls-3" d="M178.8,104.38a6.74,6.74,0,0,0,2.48-2.66,7.37,7.37,0,0,0,.65-2.72c0-.61.06-.93.07-1.45a16.93,16.93,0,0,0-2.89.4v.43c0,.06,0,.56,0,1.5,0,0,0,.22,0,.48s0,.24,0,.34c0,.45-.11.71-.34.71s-.67-.65-.67-1a.63.63,0,0,1,.06-.27,2.25,2.25,0,0,0,.15-.61c0-.13,0-.6,0-1.4a6.28,6.28,0,0,0-1.68.5,1.3,1.3,0,0,1-.43.13c-.41,0-1.22-.89-1.22-1.36a1.28,1.28,0,0,1,0-.13,1.39,1.39,0,0,0,1.08.62,11.33,11.33,0,0,0,1.43-.2l.75-.12a8.39,8.39,0,0,0-.18-1.75,1.14,1.14,0,0,0-.43-.6,1.84,1.84,0,0,0-.36-.22.3.3,0,0,1,.28-.11,2.46,2.46,0,0,1,1.11.41c.31.19.45.37.45.6a.91.91,0,0,1,0,.28,5.6,5.6,0,0,0-.12,1.28l2.93-.35v-.84c0-1-.05-1.45-.21-1.66a1.47,1.47,0,0,0-.83-.48.66.66,0,0,1,.43-.13,2.88,2.88,0,0,1,1.22.32c.35.17.48.3.48.48a.55.55,0,0,1-.05.24,5.08,5.08,0,0,0-.26,2,4.81,4.81,0,0,0,1.57-.26.66.66,0,0,1,.34-.09c.41,0,1.19.49,1.19.76a.24.24,0,0,1-.27.22h-.23a13.88,13.88,0,0,0-1.82-.1h-.8a19.43,19.43,0,0,1-.19,2.46,5,5,0,0,1-1,2.6,6.83,6.83,0,0,1-2.65,2Zm4.54-11a5.13,5.13,0,0,1,1.61.91.86.86,0,0,1,.35.76c0,.35-.11.59-.27.59s-.18-.07-.3-.3a6,6,0,0,0-1.49-1.8Zm1.25-.62a4.73,4.73,0,0,1,1.79.83.7.7,0,0,1,.26.64c0,.33-.14.61-.3.61s-.15-.07-.27-.26a4.94,4.94,0,0,0-1.58-1.67Z"/><path class="cls-3" d="M190.67,98.2a1.77,1.77,0,0,0,1.26.31l1.6,0,5.07-.08a5.08,5.08,0,0,1,1.68.12.27.27,0,0,1,.19.26.38.38,0,0,1-.3.35,12.38,12.38,0,0,1-3.12.16c-1.21,0-4.18.09-4.64.11a1.92,1.92,0,0,0-.93.17.79.79,0,0,1-.2,0c-.19,0-.4-.14-.62-.43a2.29,2.29,0,0,1-.5-1.19c0-.19,0-.21.11-.3A1.13,1.13,0,0,0,190.67,98.2Z"/><path class="cls-3" d="M207.23,99c0,.12-.22.94-.58,2.45a5.17,5.17,0,0,0-.22,1.38,1.74,1.74,0,0,1,0,.56.32.32,0,0,1-.31.22c-.22,0-.42-.18-.56-.53a7.69,7.69,0,0,1-.46-2.78,10.84,10.84,0,0,1,.11-1.39,20.48,20.48,0,0,1,.45-2.46,6.2,6.2,0,0,0,.19-1.21,2.32,2.32,0,0,0-.37-1.22c.29,0,.52.18.87.64a1.71,1.71,0,0,1,.48,1c0,.21,0,.27-.27.79a10.86,10.86,0,0,0-.7,2.06,7.06,7.06,0,0,0-.17,1.62,4.8,4.8,0,0,0,.25,1.72,10.19,10.19,0,0,0,.46-1.11l.69-1.82Zm1.64.65c0,.26,0,.38,0,.55,0,1.43.82,2,2.84,2a6.62,6.62,0,0,0,1.1-.09,2.09,2.09,0,0,0,.69-.21.54.54,0,0,1,.19,0,1,1,0,0,1,.82.77c0,.15-.1.26-.28.32a6.7,6.7,0,0,1-1.63.14,5.29,5.29,0,0,1-3.36-.79,2.16,2.16,0,0,1-.7-1.69,3.41,3.41,0,0,1,.15-1Zm0-4.13a2,2,0,0,0,1.2.35,6.92,6.92,0,0,0,2.62-.59c.16-.09.19-.1.28-.1a1,1,0,0,1,.46.18c.27.16.4.31.4.48s-.09.25-.36.3a7.39,7.39,0,0,0-1.85.46,12.15,12.15,0,0,0-1.68.92l-.13-.13c.59-.49,1-.86,1.24-1l-.53,0a2.27,2.27,0,0,1-1.77-.73Z"/><path class="cls-3" d="M218.2,96.52a2.15,2.15,0,0,0,1.55.66,5.75,5.75,0,0,0,1.3-.17c0-.37,0-1,0-1.19,0-1.37-.16-1.64-1.05-1.8a.73.73,0,0,1,.56-.18,3.07,3.07,0,0,1,1.33.32.54.54,0,0,1,.29.42c0,.08,0,.08-.14.34a5,5,0,0,0-.41,1.94,3.87,3.87,0,0,0,1.42-.76.58.58,0,0,1,.31-.13,1.4,1.4,0,0,1,.49.12.34.34,0,0,1,.23.29c0,.18-.12.28-.59.5a8.65,8.65,0,0,1-1.9.64c0,.18,0,.18,0,.65s0,.92-.06,1.71a9.66,9.66,0,0,1,3.45-.72c1.78,0,2.89.85,2.89,2.22a2.21,2.21,0,0,1-2.22,2.27c-1.19,0-2-.79-2.51-2.3l.2-.07a3.85,3.85,0,0,0,.78,1.13,1.73,1.73,0,0,0,1.23.5,1.65,1.65,0,0,0,1.63-1.79c0-1-.68-1.54-1.93-1.54a8.41,8.41,0,0,0-3.52.93c0,1.38,0,1.38,0,1.77s0,.39,0,.5a1.45,1.45,0,0,1-.17.76.8.8,0,0,1-.62.49c-.18,0-.18,0-1-.71a5,5,0,0,0-.87-.58.63.63,0,0,1-.43-.55,1.12,1.12,0,0,1,.39-.73,6.6,6.6,0,0,1,2.07-1.34c0-.18,0-.37,0-.62,0-.59,0-.59.07-1.88a5.63,5.63,0,0,1-1,.1,2.16,2.16,0,0,1-1.94-1.07Zm1.43,5.27c-.26.27-.39.48-.39.62s.17.28.52.41a2.86,2.86,0,0,0,.81.2c.15,0,.22-.09.23-.32.06-1.17.09-1.81.09-1.89A5.46,5.46,0,0,0,219.63,101.79Zm5.79-6.59a4.36,4.36,0,0,1,1.91.47,1.47,1.47,0,0,1,.91,1.15.36.36,0,0,1-.39.38.65.65,0,0,1-.19,0,1.45,1.45,0,0,0-.27,0,8.81,8.81,0,0,0-1.6.35l-.08-.13a9.16,9.16,0,0,0,1.42-.83,2.06,2.06,0,0,0-.82-.81,3.5,3.5,0,0,0-.9-.33Z"/><path class="cls-3" d="M240.09,99.94h-1.18v.27a.22.22,0,0,1-.16.16,1.83,1.83,0,0,1-.45.07.19.19,0,0,1-.19-.12c0-.41,0-.7,0-1.19v-.57a5.08,5.08,0,0,1,0-.61v-.12a4.22,4.22,0,0,1,0-.47l.92.51h2.68a6.33,6.33,0,0,1,.47-.56c.35.22.45.29.82.56a.17.17,0,0,1,.06.11.15.15,0,0,1-.08.1,1.48,1.48,0,0,1-.18.09l-.14.07c0,.56,0,.79,0,1a7.08,7.08,0,0,0,0,.74v0a.14.14,0,0,1-.08.13,3.12,3.12,0,0,1-.65.13c-.06,0-.1,0-.11-.11v-.18h-.91v1.18h.91l.76-.89c.48.39.63.52,1.12,1,.05,0,.09.09.09.13a.1.1,0,0,1-.09.09h-2.79v.41c0,1.21.05,1.87.05,2a.46.46,0,0,1-.2.45,3.4,3.4,0,0,1-1.39.47c-.15-.38-.26-.51-.48-.61a2.86,2.86,0,0,0-.88-.22l-.36-.06-.28,0,0-.18c.79,0,.79,0,2.48.08.14,0,.19-.07.19-.17v-2.1h-5.56a9.07,9.07,0,0,1,1.29.63c.73.43.92.64.92,1s-.13.82-.32.82a.31.31,0,0,1-.22-.15,2.61,2.61,0,0,1-.19-.34,8.58,8.58,0,0,0-1-1.32,2.58,2.58,0,0,0-.58-.52l.13-.15h-1.18c-.39,0-.64,0-1.49.08l-.09-.48a11.66,11.66,0,0,0,1.58.1h6.75Zm-4.88-.52c.61,0,.91-.09,2.4-.31l0,.17a40.46,40.46,0,0,1-4.83,1.17c0,.1,0,.17-.06.22s-.07.22-.15.22-.18-.1-.44-1.25l.33,0a17.48,17.48,0,0,0,1.9-.17V98.17h-1a9.66,9.66,0,0,0-1.1.08l-.11-.47a10.15,10.15,0,0,0,1.21.09h2.74a7.91,7.91,0,0,1,.56-.77c.44.37.59.49,1,.88a.14.14,0,0,1,.06.1s0,.09-.13.09h-2.45Zm-.09-4.15-1.32,0-.06-.48a7.63,7.63,0,0,0,1.38.13h5.66V93.84H235l-1.25.06,0-.49a7.63,7.63,0,0,0,1.3.13h5.6a7.23,7.23,0,0,1,.53-.59c.38.28.49.37.85.68a.21.21,0,0,1,0,.09c0,.07-.07.12-.43.33,0,1.41,0,1.9.05,2.94,0,.14,0,.15-.35.22l-.45.06c-.07,0-.1,0-.11-.1v-.44H235c-.39,0-1.05,0-1.36.06l-.07-.47a8.84,8.84,0,0,0,1.43.11h5.82V95.27Zm3.79,4.37h2.94V98.17h-2.94Z"/><path class="cls-3" d="M247.77,97.12a6.72,6.72,0,0,0,1.83-.64c.08-1.07.09-1.28.09-1.65,0-.55-.14-.77-.74-1.17a.35.35,0,0,1,.22-.07,2.09,2.09,0,0,1,1,.51c.31.26.45.47.45.7a.92.92,0,0,1-.11.35,5.36,5.36,0,0,0-.31,1.21c.35.25.43.35.43.51a.64.64,0,0,1-.16.33,5.92,5.92,0,0,0-.47.74s0,.24,0,.58a14.09,14.09,0,0,1,2.67-2,3.71,3.71,0,0,1,1.83-.51,2.15,2.15,0,0,1,2,1.47,4.92,4.92,0,0,1,.37,2.14,7.19,7.19,0,0,1-.25,1.78c1.13.57,1.52,1,1.52,1.52,0,.34-.14.59-.35.59s-.15,0-.34-.29a5,5,0,0,0-1.14-1,2.23,2.23,0,0,1-.78.94,2.56,2.56,0,0,1-1.5.46c-1,0-1.65-.51-1.65-1.29s.85-1.42,2-1.42a4.72,4.72,0,0,1,1.37.22,7.39,7.39,0,0,0,.19-1.78c0-1.91-.6-2.94-1.71-2.94a3.4,3.4,0,0,0-2.15.95,12.7,12.7,0,0,0-2.15,2c0,1.13,0,1.57.13,2.87,0,.22,0,.44,0,.61a2.33,2.33,0,0,1-.24,1.08.36.36,0,0,1-.34.21.34.34,0,0,1-.3-.18l-.14-.37a5.63,5.63,0,0,0-1.23-1.62c-.07.15-.07.15-.27.52-.08.14-.15.21-.23.21s-.44-.52-.44-.89a.43.43,0,0,1,.14-.3,32.41,32.41,0,0,0,2.47-3.63c0-.35,0-.47,0-.9a12,12,0,0,0-1.33.77.83.83,0,0,1-.45.2c-.21,0-.47-.24-.71-.63a1.25,1.25,0,0,1-.2-.58.55.55,0,0,1,.05-.21C247.21,96.94,247.46,97.12,247.77,97.12Zm.23,4.63a7.25,7.25,0,0,0,1.39.92c0-1.87,0-2.56.08-3.71C249.12,99.62,248.63,100.54,248,101.75Zm6.15-.26c-.86,0-1.43.35-1.43.87s.4.78,1.1.78a1.81,1.81,0,0,0,1.2-.4,2.15,2.15,0,0,0,.56-.9A2.91,2.91,0,0,0,254.15,101.49Z"/><path class="cls-3" d="M265,93.29a2.77,2.77,0,0,1,1.44.69.7.7,0,0,1,.28.52c0,.17-.06.25-.75.81a32,32,0,0,0-2.39,2.25c-.45.51-.62.81-.62,1a1.08,1.08,0,0,0,.39.68,9.83,9.83,0,0,0,.91.86,11.68,11.68,0,0,1,2.39,2.65,1.73,1.73,0,0,1,.19.86c0,.5-.17.78-.44.78s-.22-.06-.44-.53a13.27,13.27,0,0,0-1.09-1.84,24.89,24.89,0,0,0-1.9-2.35,1.69,1.69,0,0,1-.49-1.09c0-.42.2-.77,1-1.75,1.57-1.91,2-2.46,2-2.77s-.17-.41-.72-.77A.61.61,0,0,1,265,93.29Z"/><path class="cls-3" d="M271.9,96.39a1.76,1.76,0,0,0,1.43.71,6,6,0,0,0,1.65-.24,9.4,9.4,0,0,0,.44-2.21c0-.4-.2-.56-.93-.81a.72.72,0,0,1,.41-.12A3.22,3.22,0,0,1,276,94c.38.14.58.32.58.52s0,.09-.16.31a12.42,12.42,0,0,0-.78,1.86,4.48,4.48,0,0,0,1.51-.79c.21-.2.26-.22.36-.22a2.29,2.29,0,0,1,.69.14c.15,0,.21.13.21.23s-.21.39-.75.63a14.77,14.77,0,0,1-2.28.77c-.15.44-.15.44-.54,1.65-.26.78-.26.78-1,2.9-.52,1.55-.68,1.87-1,1.87s-.22-.07-.3-.26a2,2,0,0,1-.18-.75c0-.21,0-.25.29-.64a18.88,18.88,0,0,0,2-4.66,6.8,6.8,0,0,1-1.25.13,1.89,1.89,0,0,1-1.78-1.17Zm5.18,4.49c0,.19,0,.35,0,.4a1.62,1.62,0,0,0,1,1.58,3.79,3.79,0,0,0,1.38.24,3.19,3.19,0,0,0,1.25-.19.55.55,0,0,1,.22,0,1.5,1.5,0,0,1,.67.31c.15.13.23.24.23.36,0,.29-.51.43-1.53.43a5.7,5.7,0,0,1-2.41-.42,2,2,0,0,1-1.1-1.88,2.67,2.67,0,0,1,.12-.82Zm.35-2.41a5.89,5.89,0,0,1,3-.88,1.56,1.56,0,0,1,.81.23.43.43,0,0,1,.21.36c0,.23-.12.29-.49.32a1.7,1.7,0,0,0-1,.26,6,6,0,0,0-.72.44,3.33,3.33,0,0,1-.45.27l-.08-.11.62-.59c.12-.1.24-.22.64-.61a6.69,6.69,0,0,0-2.48.48Zm1.85-4.29A6.09,6.09,0,0,1,281,95a.7.7,0,0,1,.38.65c0,.35-.16.65-.33.65s-.19-.08-.3-.25a5.45,5.45,0,0,0-1.58-1.72Zm1.11-.9a5.92,5.92,0,0,1,1.87.69.73.73,0,0,1,.36.68c0,.32-.12.57-.28.57s-.17-.07-.3-.26a5.18,5.18,0,0,0-1.72-1.51Z"/><path class="cls-3" d="M292.27,94.51a6,6,0,0,0,1.47.41h.2c.33,0,.51.14.51.4s-.22.39-.71.68a15.13,15.13,0,0,1-1.9.8,30.09,30.09,0,0,1,1.78,2.81,1.88,1.88,0,0,1,.29,1c0,.51-.09.69-.35.69s-.23,0-.41-.22a3.28,3.28,0,0,0-.87-.61,5.58,5.58,0,0,0-2.35-.5c-1.49,0-2.43.59-2.43,1.52a1.49,1.49,0,0,0,1,1.32,6.38,6.38,0,0,0,2.94.19l.16,0a1,1,0,0,1,.8.7c0,.32-.22.4-1.13.4a7.87,7.87,0,0,1-2.54-.35,2.35,2.35,0,0,1-1.86-2.12c0-1.3,1.28-2.08,3.41-2.08a9.59,9.59,0,0,1,2.55.34A10.74,10.74,0,0,0,291.28,97a9,9,0,0,1-2.64.43,2.9,2.9,0,0,1-2.39-1.15l.15-.13a3.13,3.13,0,0,0,2.07.72,8.81,8.81,0,0,0,2.41-.41,7.13,7.13,0,0,0-1.81-1.69c-.4-.22-.49-.32-.49-.5s.32-.49.88-.49A4.52,4.52,0,0,1,291,94l-.06.19a4.9,4.9,0,0,0-.59,0c-.27,0-.4,0-.4.14s.13.24.53.69c.15.17.48.59,1,1.25l.82-.34a7.06,7.06,0,0,0,1-.48,11.27,11.27,0,0,0-1.05-.75Z"/><path class="cls-3" d="M303,98.65c-1,2.19-1.22,3-1.22,3.48a1.54,1.54,0,0,0,.08.44,1.36,1.36,0,0,1,0,.21.3.3,0,0,1-.28.32,2.44,2.44,0,0,1-1.43-1.1,6,6,0,0,1-.89-2.61,15.85,15.85,0,0,1-.09-2.29,2.8,2.8,0,0,0-.66-2.23h.12a1.93,1.93,0,0,1,1,.63,1.59,1.59,0,0,1,.59,1c0,.08,0,.18,0,.34a10,10,0,0,0-.24,1.94,5.76,5.76,0,0,0,.3,1.89,1.9,1.9,0,0,0,.68,1c.14-.21.14-.21.43-.69.41-.7.41-.7,1.09-1.83.21-.34.21-.34.37-.63Zm2.77-2.35a4.05,4.05,0,0,1,2.93,3.89c0,.62-.26,1-.65,1a.64.64,0,0,1-.39-.15,1.77,1.77,0,0,0-1-.15c-.3,0-.55,0-1,0l0-.19c1.06-.29,1.64-.46,1.76-.5s.3-.14.3-.39a4.75,4.75,0,0,0-.41-1.7,3.61,3.61,0,0,0-1.61-1.71Z"/></svg>