<svg id="レイヤー_1" data-name="レイヤー 1" xmlns="http://www.w3.org/2000/svg" viewBox="0 0 253 58.38"><defs><style>.cls-1,.cls-3{fill:none;}.cls-2{fill:#006934;}.cls-3{stroke:#fff000;stroke-miterlimit:10;stroke-width:1.19px;}.cls-4{fill:#fff;}</style></defs><title>tokuten3</title><polygon class="cls-1" points="253 0 0 0 0 0 253 0 253 0"/><path class="cls-2" d="M94.8,24.51H79.47l2.62,1a16.62,16.62,0,0,1-2.62,5.33l-3.14-2.07a11.76,11.76,0,0,0,2.51-4.31H77.2V21.2h2.58V19.31H76.69V16h3.42V14.51a6.57,6.57,0,0,1-1.75,1.31l-2-2.82A9.22,9.22,0,0,0,80,9.29l3.71.31a6.15,6.15,0,0,1-.58,1.18H97.22v3.31H95.46V16h2.33v3.35H95.46V21.2h1.76v3.31h-2A29.09,29.09,0,0,1,98,29.31l-3.47,1.56a32.38,32.38,0,0,0-2.64-5.16Zm-8.91.65a43.37,43.37,0,0,1,.49,5.35l-3.69.09a33.3,33.3,0,0,0,.2-4.27c0-.44,0-.75,0-1.09Zm-3-11.07V16h1.22V14.09Zm0,5.22V21.2h1.22V19.31Zm4-5.22V16h1.23V14.09Zm0,5.22V21.2h1.23V19.31ZM90.46,25a33.22,33.22,0,0,1,1.74,5.31l-3.65.29a28.7,28.7,0,0,0-1.31-5.4Zm.45-10.95V16h1.31V14.09Zm0,5.22V21.2h1.31V19.31Z"/><path class="cls-2" d="M107.62,23.78,106.76,26A13.92,13.92,0,0,1,105.67,24v6.65h-3.51v-6.2a17.78,17.78,0,0,1-2.51,3.69l-1.23-4.42c.76-.54,1.83-1.34,3.34-4.2H98.89V16.18h3.27V9.54h3.51v4.71a21,21,0,0,0,1.15-4.09l2.76.69a19.86,19.86,0,0,1-1.65,4.75l-2.26-1.11v1.69h3v1.91l2-2.22a18.49,18.49,0,0,1,3.71,3l-2.58,2.69a14.19,14.19,0,0,0-3.09-2.91v.87h-2.73a12.59,12.59,0,0,0,2.24,2.89l-.09.24,6.4-1.2V14l-1.86,2.09a16,16,0,0,0-3.4-3.31l2.24-2.4a15.77,15.77,0,0,1,3,2.4V9.47h3.85V20.78l1.51-.29.29,3.64-1.8.34V30.6h-3.85V25.2L108,26.42Zm-6.73-13.6a22.67,22.67,0,0,1,1.16,4.31l-2.47,1.09A15.31,15.31,0,0,0,98.47,11Z"/><path class="cls-2" d="M140.84,11.34l.31,3.86a12,12,0,0,0-6.08,1.36c-1,.53-3.69,2.24-3.69,5.17,0,3.47,4.35,4.16,6.51,4.29L136,29.87c-6.06-.69-8.75-4-8.75-7.82a8,8,0,0,1,3.51-6.63l-8.64,1.16-.31-4c1.06,0,3.06,0,4.2-.14Zm-4,6.2a20.1,20.1,0,0,1,2.53,4.15l-2.07,1.18a18.14,18.14,0,0,0-2.42-4.25Zm3-1.6a22.17,22.17,0,0,1,2.6,4.08l-2.07,1.11A18.8,18.8,0,0,0,137.93,17Z"/><path class="cls-2" d="M152.16,13.29V16h-8.87V13.29Zm2.8,9.09h-2.69V19h1.82l-2.58-2.36c1.74-1.37,1.89-3.17,1.89-4.86,0-.4,0-1.36,0-1.69h7.73v4.09c0,.31.07.31.55.31.27,0,.29-.09.34-.56s.09-1.57.09-1.8l2.62.76c-.16,2.51-.2,3.44-.71,4.31a2,2,0,0,1-1.69.84h-2.67c-1.11,0-1.73-.48-1.73-1.57V13.38h-1.33a8.27,8.27,0,0,1-2.2,5.6h9.06v3.4a14.28,14.28,0,0,1-2.64,3.69,22.7,22.7,0,0,0,3.93.8l-1.58,3.75a29.38,29.38,0,0,1-5.48-2.13,19.35,19.35,0,0,1-5.07,2.06l-1.11-2.39v2h-7.64V23.36h7.64V27a11.58,11.58,0,0,0,2.95-.72A13.27,13.27,0,0,1,152.49,24Zm-3.49-12.31v2.49h-7.64V10.07Zm0,6.62v2.6h-7.64v-2.6Zm0,3.29v2.6h-7.64V20Zm-2.87,5.86h-1.46v1.72h1.46Zm6.76-3.46a8.33,8.33,0,0,0,2.17,2.18,6.91,6.91,0,0,0,2-2.18Z"/><path class="cls-2" d="M169.92,28.33V30.6h-3.34V21.36a6.63,6.63,0,0,1-.8.88l-.69-5.73a14.37,14.37,0,0,0,2.54-7.13l3.22.25a25.21,25.21,0,0,1-.93,4.86V27.11a12.34,12.34,0,0,0,1.13-5.8v-4.2h-.69V14.36h3.47v-.93h-2.89V10.56h2.89V9.47h3.53v1.09h2.42V9.47h3.51v1.09h2.91v2.87h-2.91v.93h3.31v2.75H174v4c0,1.8-.09,6.76-2,9.54Zm16-10.51V28.67c0,1,0,1.93-1.8,1.93h-2l-.63-2.76h.83c.35,0,.4-.09.4-.55v-.67h-1.34v3.82h-2.73V26.62h-1.31v4h-2.76V17.82Zm-8.62,2.45v.86h1.31v-.86Zm0,3.18v.93h1.31v-.93Zm.09-10v.93h2.42v-.93Zm3.95,6.84v.86h1.34v-.86Zm0,3.18v.93h1.34v-.93Z"/><path class="cls-2" d="M198.32,26.47c2.17-.67,5.82-2.09,5.82-6.47a5.61,5.61,0,0,0-1.49-4,4.65,4.65,0,0,0-2.42-1.26,36.75,36.75,0,0,1-2.6,10c-1,2.27-2.18,3.69-4.07,3.69-2.58,0-5.11-3.13-5.11-7.44,0-5.56,4.07-9.91,10.31-9.91,5.69,0,9.42,3.71,9.42,9,0,7.18-6.15,9.2-7.49,9.65Zm-6.07-5.38c0,1.87.64,3.09,1.16,3.09s1-1.6,1.28-2.29A41.11,41.11,0,0,0,196.34,15,6.22,6.22,0,0,0,192.25,21.09Z"/><path class="cls-2" d="M88.55,36.18c0,2.71-.06,3.77-.06,3.82h7.42c-.07,1.71-.38,9.66-1.43,12.55-1,2.73-3.48,2.73-4.62,2.73-.82,0-1.53,0-2-.09l-.75-3.93a24,24,0,0,0,2.51.2c1.11,0,1.42-.47,1.75-2.44a42.31,42.31,0,0,0,.51-5.22H88.13c-.55,3.84-1.8,8.28-7.46,11.88l-2.91-2.84c5.13-3.11,5.95-6.58,6.42-9H78.11V40h6.44c.07-1.6.09-2.25.09-3.82Z"/><path class="cls-2" d="M118.73,42c-1.13,9.4-7.26,12.58-12.64,14l-2.18-3.42c7.6-1.55,9.22-5.37,9.84-6.86H100.2V42ZM116.55,37v3.69H102.29V37Z"/><path class="cls-2" d="M141.22,44.13v3.8H122.07v-3.8Z"/><path class="cls-2" d="M150.25,51.59a7.43,7.43,0,0,0,1.57.23c1.29,0,1.52-.6,1.67-1.36a21.2,21.2,0,0,0,.33-4c0-2-.77-2.27-2.13-2.25A42.06,42.06,0,0,1,146.87,56l-3.4-2.16a35.8,35.8,0,0,0,4.13-9.13c-.53.09-2.86.47-3.35.53l-.45-3.75,4.74-.58c.42-2,.57-3.07.8-4.78l4,.65c-.2,1.13-.2,1.13-.75,3.86,4.69.23,5,3.67,5,6.25,0,6.71-1.37,8.71-5,8.71a14.57,14.57,0,0,1-2.31-.2Zm9.28-1.91c-.35-4.68-1.93-7.48-3.8-9.11l2.76-1.91a17.71,17.71,0,0,1,4.64,9.8ZM159.84,36a17.83,17.83,0,0,1,2.72,3.91L161,41.06a18.48,18.48,0,0,0-2.62-4Zm2.52-1.2a19.37,19.37,0,0,1,2.71,3.91l-1.54,1.15a18,18,0,0,0-2.64-4Z"/><path class="cls-2" d="M174.14,43.11H173c-.57,0-1.48-.09-1.48-1.56V39.26l-2.29,2.38a17.59,17.59,0,0,0-3.65-3.49l2.49-2.64a23.7,23.7,0,0,1,3.49,3h3.67v-.67h-3.8V35.91h6.79V40.2h-3.66v.64c0,.25,0,.45.33.45h.65c.46,0,.51-.54.53-.89l2.51.35c-.07.69-.2,1.89-1.09,2.27v.87h2.85v-.8a1.53,1.53,0,0,1-.94-.43,1.22,1.22,0,0,1-.35-.86V38.51H183v-.67h-4V35.91h7V40.2h-4v.64c0,.18,0,.45.52.45h1.15c.4,0,.44-.43.49-.89l2.62.35c-.07.67-.27,2.36-1.69,2.36h-1.46v.78h2.44v2.24h-2.44V47h3v2.51h-3.34a14.54,14.54,0,0,0,3.31,1l-1.31,2.18h1.76l-.78,3.44H176c-4.24,0-5.47-1.33-6.27-2.2a15.36,15.36,0,0,1-3.31,2.69l-1.2-3.8a10.9,10.9,0,0,0,2.14-1.29V47h-1.8V43.51h5.37v5.8c.2,2.08,1,2.66,2.43,3.06l-1.43-1.86a16.57,16.57,0,0,0,3.29-1h-3.71V47h2.67v-.91h-2.4V43.89h2.4Zm2.73,6.44,1.55,1.24a21.32,21.32,0,0,1-3.37,1.87c.46,0,1.09.05,1.66.05h7a16.46,16.46,0,0,1-3.86-1.92l1.42-1.24Zm.62-3.42V47h2.85v-.91Z"/><path class="cls-2" d="M206.4,54.93a59,59,0,0,1-9.15-10.56c-.38-.51-.87-1.2-1.05-1.2s-.33.16-1,1.09l-4.33,6.05-3.06-3.11a80.16,80.16,0,0,0,5-6.31c1-1.34,1.78-2.36,3.33-2.36s2.2.76,3.8,3a54.87,54.87,0,0,0,8.86,9.82ZM203,38.8a20.45,20.45,0,0,1,3.33,3.82l-1.78,1.55a19.89,19.89,0,0,0-3.24-3.91Zm2.75-2a20.17,20.17,0,0,1,3.42,3.74L207.4,42a18.85,18.85,0,0,0-3.33-3.84Z"/><path class="cls-2" d="M210.92,47.53l9.09-7.2c-2.83.33-4.51.38-6,.42l-.29-3.8c.85,0,1.73.07,3.16.07a57.39,57.39,0,0,0,8.55-.56l1.58,2.8c-2.54,1.63-4.69,3.2-5.22,3.58a8.61,8.61,0,0,1,1.55-.13c3.33,0,6.35,2.06,6.35,5.86,0,4.45-3.62,7.25-8.48,7.25-3.47,0-6.09-1.43-6.09-4.14,0-2.35,2.24-3.69,4.44-3.69A6.43,6.43,0,0,1,225,51.06a2.85,2.85,0,0,0,.87-2.15c0-1.76-1.35-3.16-4.06-3.16-3,0-4.74,1.22-8.56,4.82ZM219.38,51c-.77,0-.95.47-.95.64,0,.76,1.35,1.07,2.4,1.07a5.84,5.84,0,0,0,1.11-.09A3.15,3.15,0,0,0,219.38,51Z"/><path class="cls-2" d="M243,36.51l-.51,12.6h-3.34l-.51-12.6Zm-4.2,14.08h4v3.85h-4Z"/><circle class="cls-2" cx="29.19" cy="29.19" r="29.19" transform="translate(-5.07 6.16) rotate(-11.08)"/><circle class="cls-3" cx="29.19" cy="29.19" r="25.53" transform="translate(-6.13 7.82) rotate(-13.82)"/><path class="cls-4" d="M18.19,16.86c.55-.11,1.64-.42,2.1-.56V13.94h-.51a6.69,6.69,0,0,1-.47,2l-1.18-1.12a10.94,10.94,0,0,0,.48-3.91l1.33,0c0,.46,0,.94,0,1.38h.38V10.16h1.63v2.12h.71v1.66h-.71v1.84l.74-.24v1.7c-.16.07-.25.12-.74.3v3.4H20.29V18.09c-.52.17-1.42.46-1.86.56Zm5.7.51H22.84V15.78h3.6V15H22.76V13.41H25v-.83H23.12V11H25v-.87H26.7V11h2v1.55h-2v.83H29V15h-.9v.75h.8v1.59h-.8v2.19c0,.78,0,1.38-1.19,1.38H25l-.25-1.48-.63.37A8.82,8.82,0,0,0,22.8,18Zm1.17,1.89h1.05c.33,0,.33-.2.33-.42V17.37h-2a8.36,8.36,0,0,1,1.16,1.55Z"/><path class="cls-4" d="M29.53,19.46a11,11,0,0,0,2.95-1.35H29.59V16.54h.66V11.18h2.54v-1h1.64v1H35.5v-1h1.65v1h2.62v5.36h.65v1.57H37.49a8.79,8.79,0,0,0,3,1.3L39.55,21A12.58,12.58,0,0,1,36,19l1-.84H32.91l1,.81A11.56,11.56,0,0,1,30.46,21Zm2.32-6.71v1.13h1V12.75Zm0,2.56v1.23h1V15.31Zm2.58-2.56v1.13H35.5V12.75Zm0,2.56v1.23H35.5V15.31Zm2.63-2.56v1.13h1.06V12.75Zm0,2.56v1.23h1.06V15.31Z"/><path class="cls-4" d="M23.36,41.67a5.12,5.12,0,0,0,.59,1.6A3.73,3.73,0,0,0,25,44.47a2.57,2.57,0,0,0,1.58.47,3,3,0,0,0,1.69-.43,3.05,3.05,0,0,0,1-1.13,4.62,4.62,0,0,0,.49-1.55,12.47,12.47,0,0,0,.12-1.73,12.28,12.28,0,0,0-.1-1.6,4.5,4.5,0,0,0-.42-1.43,2.65,2.65,0,0,0-.89-1,2.57,2.57,0,0,0-1.51-.4l-.8,0c-.28,0-.55.06-.8.1a7.2,7.2,0,0,0,.14-1.39c0-.18,0-.36,0-.54s0-.35-.05-.54l.64.07a4.45,4.45,0,0,0,.61,0,2.65,2.65,0,0,0,1.46-.37,2.61,2.61,0,0,0,.87-.94,3.84,3.84,0,0,0,.42-1.34,11.23,11.23,0,0,0,.1-1.53,9.32,9.32,0,0,0-.14-1.71A4.54,4.54,0,0,0,29,26.14a2.53,2.53,0,0,0-.83-.94,2.3,2.3,0,0,0-1.29-.35,1.93,1.93,0,0,0-1.2.37,3.19,3.19,0,0,0-.84.88,4.17,4.17,0,0,0-.5,1.12,8.08,8.08,0,0,0-.25,1L23.84,30l-.52.07a7.28,7.28,0,0,0-.75-.94,13.46,13.46,0,0,0-1-1c-.35-.33-.69-.63-1-.92s-.62-.53-.85-.72c.3-.37.66-.78,1.06-1.23A7.18,7.18,0,0,1,22.28,24a8.9,8.9,0,0,1,2.19-1,10.42,10.42,0,0,1,3.1-.4,15.05,15.05,0,0,1,3,.31,10,10,0,0,1,2.87,1,6.59,6.59,0,0,1,2.18,1.88,4.74,4.74,0,0,1,.87,2.91A4.83,4.83,0,0,1,36,30.79a5.27,5.27,0,0,1-1.15,1.6,6.36,6.36,0,0,1-1.6,1.11,6.9,6.9,0,0,1-1.79.61,8.39,8.39,0,0,1,2.11.58,7.17,7.17,0,0,1,1.84,1.13,5,5,0,0,1,1.8,4,6.36,6.36,0,0,1-.91,3.45A7.4,7.4,0,0,1,34,45.57a9.61,9.61,0,0,1-3.19,1.27,17.42,17.42,0,0,1-3.5.37c-.83,0-1.61,0-2.31-.11a7.77,7.77,0,0,1-2-.47,8.87,8.87,0,0,1-1.92-1A15,15,0,0,1,19.07,44c.68-.72,1.29-1.38,1.83-2a14.33,14.33,0,0,0,1.59-2.11l.69.14A8.14,8.14,0,0,0,23.36,41.67Z"/></svg>