<svg id="レイヤー_1" data-name="レイヤー 1" xmlns="http://www.w3.org/2000/svg" viewBox="0 0 253 82.56"><defs><style>.cls-1,.cls-3{fill:none;}.cls-2{fill:#006934;}.cls-3{stroke:#fff000;stroke-miterlimit:10;stroke-width:1.19px;}.cls-4{fill:#fff;}</style></defs><title>tokuten2</title><polygon class="cls-1" points="253 0 0 0 0 0 253 0 253 0"/><path class="cls-2" d="M94.8,24.51H79.47l2.62,1a16.7,16.7,0,0,1-2.62,5.34l-3.14-2.07a11.86,11.86,0,0,0,2.51-4.31H77.2V21.2h2.58V19.31H76.69V16h3.42V14.51a6.57,6.57,0,0,1-1.75,1.31l-2-2.82A9.22,9.22,0,0,0,80,9.29l3.71.31a6.15,6.15,0,0,1-.58,1.18H97.22v3.31H95.46V16h2.33v3.35H95.46V21.2h1.76v3.31h-2A29.09,29.09,0,0,1,98,29.31l-3.47,1.55a32.22,32.22,0,0,0-2.64-5.15Zm-8.91.64a43.65,43.65,0,0,1,.49,5.36l-3.69.09a33.39,33.39,0,0,0,.2-4.27c0-.44,0-.75,0-1.09Zm-3-11.06V16h1.22V14.09Zm0,5.22V21.2h1.22V19.31Zm4-5.22V16h1.23V14.09Zm0,5.22V21.2h1.23V19.31ZM90.46,25a33.22,33.22,0,0,1,1.74,5.31l-3.65.29a28.7,28.7,0,0,0-1.31-5.4Zm.45-10.95V16h1.31V14.09Zm0,5.22V21.2h1.31V19.31Z"/><path class="cls-2" d="M107.62,23.78,106.76,26A13.1,13.1,0,0,1,105.67,24v6.65h-3.51v-6.2a17.78,17.78,0,0,1-2.51,3.69l-1.23-4.43c.76-.53,1.83-1.33,3.34-4.19H98.89V16.18h3.27V9.54h3.51v4.7a20.63,20.63,0,0,0,1.15-4.08l2.76.69a19.86,19.86,0,0,1-1.65,4.75l-2.26-1.11v1.69h3v1.91l2-2.22a18.49,18.49,0,0,1,3.71,3l-2.58,2.69a13.7,13.7,0,0,0-3.09-2.91v.87h-2.73a12.56,12.56,0,0,0,2.24,2.88l-.09.25,6.4-1.2V14L112.58,16a16.48,16.48,0,0,0-3.4-3.31l2.24-2.4a16.66,16.66,0,0,1,3,2.4V9.47h3.85V20.78l1.51-.29.29,3.64-1.8.34V30.6h-3.85V25.2L108,26.42Zm-6.73-13.6a22.46,22.46,0,0,1,1.16,4.31l-2.47,1.09A15.24,15.24,0,0,0,98.47,11Z"/><path class="cls-2" d="M140.84,11.33l.31,3.87a11.92,11.92,0,0,0-6.08,1.36c-1,.53-3.69,2.24-3.69,5.17,0,3.47,4.35,4.16,6.51,4.29L136,29.86c-6.06-.69-8.75-3.95-8.75-7.82a8,8,0,0,1,3.51-6.62l-8.64,1.16-.31-4c1.06,0,3.06,0,4.2-.13Zm-4,6.2a20.42,20.42,0,0,1,2.53,4.16l-2.07,1.18a17.94,17.94,0,0,0-2.42-4.25Zm3-1.6a22.56,22.56,0,0,1,2.6,4.09l-2.07,1.11A18.8,18.8,0,0,0,137.93,17Z"/><path class="cls-2" d="M156.6,29.8h-4.09V20a41.83,41.83,0,0,1-6.57,2.67l-2-3.49a39.49,39.49,0,0,0,16.09-9.24l3.06,2.58a46.38,46.38,0,0,1-6.53,5.15Z"/><path class="cls-2" d="M174.29,18.13a28.09,28.09,0,0,0-6.77-3.4l1.84-3.44a30.85,30.85,0,0,1,7.07,3.35Zm11.64-.22a25.41,25.41,0,0,1-7.19,7.73,25.19,25.19,0,0,1-9.62,4.05l-1.38-4.05c6.29-1.15,11.37-3.82,15.57-11.2Z"/><path class="cls-2" d="M190.78,27c4.89-1.73,5.69-4.6,5.89-6.86h-8V16.42h19.21v3.76h-7.17c-.27,3.88-1.4,7.59-7,10Zm14.62-16v3.77H191.14V11.05Z"/><path class="cls-2" d="M217.38,10.91v12H213.3v-12Zm10.36-.33v7.53c0,4.13-.54,9.58-8.38,11.87L217,26.49c6-1.51,6.64-4.91,6.64-8.34V10.58Z"/><path class="cls-2" d="M234.83,27.18c4.6-2.25,5.44-5.56,5.42-9.78h4.07c0,.73,0,1,0,1.49A17.49,17.49,0,0,0,247,15.67H233.37V11.8h17.79l1.58,2a32.62,32.62,0,0,1-5.67,7.84l-2.84-2.13c-.31,3-1.13,7.71-6.33,10.6Z"/><path class="cls-2" d="M83.68,56.52a16.42,16.42,0,0,1,0-21.06h3.14a16.62,16.62,0,0,0,0,21.06Z"/><path class="cls-2" d="M91.82,53.48a13.5,13.5,0,0,1-1.38,3.24l-3-2.84A11.86,11.86,0,0,0,89.16,47V37h7.68V35.42h3.76V37h8.26v3.44H92.76v6.93a21.87,21.87,0,0,1-.58,4.76,21.77,21.77,0,0,0,4.93-5.56H93.18V43.22h5.53V40.8h3.62v2.42h6.55v3.35H104a17.21,17.21,0,0,0,5.34,5.53l-2,3.58a19.73,19.73,0,0,1-5-5.87v6.8H98.71V49.88a20,20,0,0,1-5.13,5.85Z"/><path class="cls-2" d="M124.11,46a3.58,3.58,0,1,1-3.58-3.57A3.58,3.58,0,0,1,124.11,46Z"/><path class="cls-2" d="M143.87,52.75V51.33H139V48.79h4.89V48h-4.18V45.82h4.18V45.1h-4V43h4v-.73H139V39.55h4.89v-.73h-4V36.57h4V35.44h3.35v1.13h5.09v3h1v2.76h-1V45.1h-5.09v.72h5.18V48h-5.18v.75h6.09v2.54h-6.09v1.42h6.42l-.71,3.46h-9.28a13,13,0,0,1-7.34-1.82,9.84,9.84,0,0,1-2.31,2.4l-2.17-3.38a12.25,12.25,0,0,0,1.93-1.8A15.82,15.82,0,0,1,132,47.7l2.58-1.33a14,14,0,0,0,.82,2.07,24.64,24.64,0,0,0,.51-2.47h-3.71V42.79a25.46,25.46,0,0,0,2.56-3.26h-2.56V36.22h6.71v3.31a26.46,26.46,0,0,1-2.53,3.35H139a26.64,26.64,0,0,1-1.18,8.53,11.34,11.34,0,0,0,5.73,1.34Zm5.33-13.93h-2v.73h2Zm0,3.49h-2V43h2Z"/><path class="cls-2" d="M174.22,56.81A21,21,0,0,1,166.29,54l2.09-2h-6.8l2.11,2a23.74,23.74,0,0,1-7.91,2.82l-1.69-3.31A18.51,18.51,0,0,0,160.78,52h-6.31v-3h21v3h-5.93a17.26,17.26,0,0,0,6.33,1.42ZM173.4,36V48.24H156.58V36Zm-3.75,2.73h-9.4v.87h9.4Zm0,3h-9.4v.86h9.4Zm0,3.06h-9.4v.94h9.4Z"/><path class="cls-2" d="M176.47,56.52A15.92,15.92,0,0,0,180.23,46a15.92,15.92,0,0,0-3.76-10.53h3.14a16.42,16.42,0,0,1,0,21.06Z"/><path class="cls-2" d="M209.43,52.39c2.17-.66,5.82-2.09,5.82-6.46a5.58,5.58,0,0,0-1.49-4,4.68,4.68,0,0,0-2.42-1.27,36.72,36.72,0,0,1-2.6,10c-1,2.27-2.18,3.69-4.07,3.69-2.57,0-5.11-3.14-5.11-7.45,0-5.55,4.07-9.9,10.31-9.9,5.69,0,9.42,3.71,9.42,9,0,7.18-6.15,9.2-7.49,9.64ZM203.36,47c0,1.86.65,3.08,1.16,3.08s1-1.6,1.29-2.29a42,42,0,0,0,1.64-6.9A6.22,6.22,0,0,0,203.36,47Z"/><path class="cls-2" d="M88.55,62.1c0,2.71-.06,3.78-.06,3.82h7.42c-.07,1.71-.38,9.67-1.43,12.56-1,2.73-3.48,2.73-4.62,2.73-.82,0-1.53,0-2-.09l-.75-3.93a24,24,0,0,0,2.51.2c1.11,0,1.42-.47,1.75-2.45a42,42,0,0,0,.51-5.22H88.13c-.55,3.84-1.8,8.29-7.46,11.89l-2.91-2.85c5.13-3.11,5.95-6.57,6.42-9H78.11v-3.8h6.44c.07-1.6.09-2.24.09-3.82Z"/><path class="cls-2" d="M118.73,68c-1.13,9.39-7.26,12.57-12.64,14l-2.18-3.42c7.6-1.56,9.22-5.38,9.84-6.87H100.2V68Zm-2.18-5.09v3.69H102.29V62.88Z"/><path class="cls-2" d="M141.22,70.06v3.79H122.07V70.06Z"/><path class="cls-2" d="M150.25,77.52a7.54,7.54,0,0,0,1.57.22c1.29,0,1.52-.6,1.67-1.35a21.3,21.3,0,0,0,.33-4c0-2-.77-2.26-2.13-2.24a42.1,42.1,0,0,1-4.82,11.75l-3.4-2.15a35.75,35.75,0,0,0,4.13-9.14l-3.35.54-.45-3.76,4.74-.57c.42-2,.57-3.07.8-4.78l4,.64c-.2,1.14-.2,1.14-.75,3.87,4.69.22,5,3.67,5,6.24,0,6.71-1.37,8.71-5,8.71a13.43,13.43,0,0,1-2.31-.2Zm9.28-1.91c-.35-4.69-1.93-7.49-3.8-9.11l2.76-1.91a17.68,17.68,0,0,1,4.64,9.8Zm.31-13.69a18.32,18.32,0,0,1,2.72,3.91L161,67a18.55,18.55,0,0,0-2.62-4Zm2.52-1.2a19.37,19.37,0,0,1,2.71,3.91l-1.54,1.16a17.78,17.78,0,0,0-2.64-4Z"/><path class="cls-2" d="M174.14,69H173c-.57,0-1.48-.09-1.48-1.55V65.19l-2.29,2.38a17.34,17.34,0,0,0-3.65-3.49l2.49-2.65a25,25,0,0,1,3.49,3h3.67v-.66h-3.8V61.83h6.79v4.29h-3.66v.65c0,.24,0,.44.33.44h.65c.46,0,.51-.53.53-.89l2.51.36c-.07.69-.2,1.89-1.09,2.26v.87h2.85V69a1.52,1.52,0,0,1-.94-.42,1.22,1.22,0,0,1-.35-.87V64.43H183v-.66h-4V61.83h7v4.29h-4v.65c0,.17,0,.44.52.44h1.15c.4,0,.44-.42.49-.89l2.62.36c-.07.66-.27,2.35-1.69,2.35h-1.46v.78h2.44v2.25h-2.44V73h3v2.51h-3.34a14,14,0,0,0,3.31,1l-1.31,2.18h1.76l-.78,3.44H176c-4.24,0-5.47-1.33-6.27-2.19a15.65,15.65,0,0,1-3.31,2.68l-1.2-3.8a10.93,10.93,0,0,0,2.14-1.28v-4.6h-1.8V69.43h5.37v5.8c.2,2.09,1,2.67,2.43,3.07l-1.43-1.87a17,17,0,0,0,3.29-1h-3.71V73h2.67v-.91h-2.4V69.81h2.4Zm2.73,6.45,1.55,1.24a21.32,21.32,0,0,1-3.37,1.87c.46,0,1.09,0,1.66,0h7a16.48,16.48,0,0,1-3.86-1.91l1.42-1.24Zm.62-3.42V73h2.85v-.91Z"/><path class="cls-2" d="M206.4,80.85a59.37,59.37,0,0,1-9.15-10.55c-.38-.51-.87-1.2-1.05-1.2s-.33.16-1,1.09l-4.33,6-3.06-3.11a80.16,80.16,0,0,0,5-6.31c1-1.33,1.78-2.35,3.33-2.35s2.2.75,3.8,3a54.49,54.49,0,0,0,8.86,9.82ZM203,64.72a20.78,20.78,0,0,1,3.33,3.82l-1.78,1.56a19.61,19.61,0,0,0-3.24-3.91Zm2.75-2a20.41,20.41,0,0,1,3.42,3.73l-1.8,1.53a19.12,19.12,0,0,0-3.33-3.84Z"/><path class="cls-2" d="M210.92,73.45,220,66.26c-2.83.33-4.51.37-6,.42l-.29-3.8c.85,0,1.73.07,3.16.07a57.39,57.39,0,0,0,8.55-.56l1.58,2.8c-2.54,1.62-4.69,3.2-5.22,3.58a8.47,8.47,0,0,1,1.55-.14c3.33,0,6.35,2.07,6.35,5.87,0,4.44-3.62,7.24-8.48,7.24-3.47,0-6.09-1.42-6.09-4.13,0-2.36,2.24-3.69,4.44-3.69A6.43,6.43,0,0,1,225,77a2.87,2.87,0,0,0,.87-2.16c0-1.75-1.35-3.15-4.06-3.15-3,0-4.74,1.22-8.56,4.82Zm8.46,3.43c-.77,0-.95.46-.95.64,0,.76,1.35,1.07,2.4,1.07a6.81,6.81,0,0,0,1.11-.09A3.13,3.13,0,0,0,219.38,76.88Z"/><path class="cls-2" d="M243,62.43,242.48,75h-3.34l-.51-12.6Zm-4.2,14.09h4v3.84h-4Z"/><circle class="cls-2" cx="29.19" cy="29.19" r="29.19" transform="translate(-12.09 29.19) rotate(-45)"/><circle class="cls-3" cx="29.19" cy="29.19" r="25.53" transform="translate(-12.05 27.33) rotate(-42.42)"/><path class="cls-4" d="M18.19,16.86c.55-.11,1.64-.42,2.1-.56V13.94h-.51a6.69,6.69,0,0,1-.47,2l-1.18-1.12a10.94,10.94,0,0,0,.48-3.91l1.33,0c0,.46,0,.94,0,1.38h.38V10.16h1.63v2.12h.71v1.66h-.71v1.84l.74-.24v1.7c-.16.07-.25.12-.74.3v3.4H20.29V18.09c-.52.17-1.42.46-1.86.56Zm5.7.51H22.84V15.78h3.6V15H22.76V13.41H25v-.83H23.12V11H25v-.87H26.7V11h2v1.55h-2v.83H29V15h-.9v.75h.8v1.59h-.8v2.19c0,.78,0,1.38-1.19,1.38H25l-.25-1.48-.63.37A8.57,8.57,0,0,0,22.8,18Zm1.17,1.89h1.05c.33,0,.33-.2.33-.42V17.37h-2a8.36,8.36,0,0,1,1.16,1.55Z"/><path class="cls-4" d="M29.53,19.46a11,11,0,0,0,2.95-1.35H29.59V16.54h.66V11.18h2.54v-1h1.64v1H35.5v-1h1.65v1h2.62v5.36h.65v1.57H37.49a8.79,8.79,0,0,0,3,1.3L39.55,21A12.58,12.58,0,0,1,36,19l1-.84H32.91l1,.81A11.56,11.56,0,0,1,30.46,21Zm2.32-6.71v1.13h1V12.75Zm0,2.56v1.23h1V15.31Zm2.58-2.56v1.13H35.5V12.75Zm0,2.56v1.23H35.5V15.31Zm2.63-2.56v1.13h1.06V12.75Zm0,2.56v1.23h1.06V15.31Z"/><path class="cls-4" d="M37.11,29a6.88,6.88,0,0,1-.43,2.53,9,9,0,0,1-1.08,2,10,10,0,0,1-1.45,1.59l-1.53,1.32A26.44,26.44,0,0,1,30.48,38l-2.21,1.5-2.41,1.6,2.61,0c1,0,2,0,3-.07s2-.07,3-.12,1.9-.1,2.72-.17a15,15,0,0,0-.2,1.49c0,.47-.05.94-.05,1.43s0,1.11.07,1.73.11,1.17.18,1.68c-.61-.07-1.28-.12-2-.17s-1.47-.08-2.23-.09l-2.24,0-2,0c-3,0-6,.1-9.06.31a8.67,8.67,0,0,0,.14-1.77c0-.3,0-.59-.05-.87a6.76,6.76,0,0,0-.09-.87c.56-.42,1.21-1,2-1.64s1.49-1.38,2.24-2.12,1.46-1.49,2.11-2.23a21,21,0,0,0,1.53-2,10.68,10.68,0,0,0,1-1.87A14.79,14.79,0,0,0,29,31.87a12.38,12.38,0,0,0,.28-1.67c.05-.52.07-1,.07-1.34a8.53,8.53,0,0,0-.1-1.31,4.19,4.19,0,0,0-.4-1.24,2.81,2.81,0,0,0-.79-.92A2,2,0,0,0,26.84,25a2.23,2.23,0,0,0-1.67.62,4,4,0,0,0-.94,1.55,8.89,8.89,0,0,0-.42,1.92c-.07.66-.12,1.23-.14,1.72l-.59.25a19,19,0,0,0-1.69-1.85,21.41,21.41,0,0,0-2.39-2,14.67,14.67,0,0,1,1.9-2.32,9.12,9.12,0,0,1,2-1.48,8.31,8.31,0,0,1,2.33-.78,16.09,16.09,0,0,1,2.82-.23,13,13,0,0,1,3.61.49,9.42,9.42,0,0,1,2.85,1.36,6.48,6.48,0,0,1,1.88,2.07A5.29,5.29,0,0,1,37.11,29Z"/></svg>