<svg id="レイヤー_1" data-name="レイヤー 1" xmlns="http://www.w3.org/2000/svg" viewBox="0 0 253 58.38"><defs><style>.cls-1,.cls-3{fill:none;}.cls-2{fill:#006934;}.cls-3{stroke:#fff000;stroke-miterlimit:10;stroke-width:1.19px;}.cls-4{fill:#fff;}</style></defs><title>tokuten1</title><polygon class="cls-1" points="253 0 0 0 0 0 253 0 253 0"/><path class="cls-2" d="M77.16,10.16h9.33v8.75H80.6V30.64H77.16Zm3.44,2.42v.89h2.51v-.89Zm0,2.95v.91h2.51v-.91ZM92,27.13h.87c.71,0,.71-.35.71-.82v-7.4h-6V10.16h9.49v18A2.19,2.19,0,0,1,95,30.64H90.42l-.33-2H82.18V19.78H92Zm-6.58-4.89v.87h3.25v-.87Zm0,2.8v1h3.25V25ZM91,12.58v.89h2.6v-.89Zm0,2.95v.91h2.6v-.91Z"/><path class="cls-2" d="M118.2,30.6a14.65,14.65,0,0,1-3.62-3.36,24.48,24.48,0,0,1-3.87,3.45l-1.47-2.52v2.45h-3.51v-3.2c-1.31.33-4.15,1-6.73,1.38l-.35-3.69A7.94,7.94,0,0,0,99.73,25V13.38h-.91V10h11.51v.85h9.42v3.4c-.29,2.33-1,6.64-2.78,9.75a10.28,10.28,0,0,0,3.4,2.82Zm-15-17.22V15h2.51V13.38Zm0,4.69v1.66h2.51V18.07Zm2.51,4.71h-2.51v1.86c.38-.06,1-.15,2.51-.42Zm7.47-8.4a14.81,14.81,0,0,0,1.46,6.13,18.31,18.31,0,0,0,1.6-6.24H110v-.89h-.8V26.86A15.7,15.7,0,0,0,112.46,24a21.08,21.08,0,0,1-2.33-8.55Z"/><path class="cls-2" d="M128.82,11.07a42.26,42.26,0,0,0-.89,7.4c.12-.2.87-1.63,1.14-2.11l2,1.82a23.27,23.27,0,0,0-2.75,6.55l-3.18.31a21.39,21.39,0,0,1-1-7.06,40.73,40.73,0,0,1,.71-7.33Zm9.91-.4c.11,1.31.4,4.35.4,7.37,0,5.83-1.42,9.36-6.93,12.13l-3.33-2.77c5.49-2.56,6.17-5.27,6.17-9.78,0-2.42-.17-4.44-.4-7Z"/><path class="cls-2" d="M155.31,10.8c-.18.27-.24.38-.82,1.36a49.14,49.14,0,0,0,6-.82l-.09,3.55c-4,.53-5.95.64-8.06.75-.07.14-.38.65-.44.76a5.73,5.73,0,0,1,1.4-.18A3.91,3.91,0,0,1,156.87,18c2.44-1,2.71-1.11,4.91-1.93l1.38,3.33c-2.07.69-5,1.78-5.6,2,0,1.18,0,1.87,0,3.71l-3.62.11c.06-1,.06-1.37.08-2.22-1.37.78-2,1.33-2,2,0,.94,1,1.2,3.07,1.2a39.86,39.86,0,0,0,6.62-.66l-.36,3.75a47.31,47.31,0,0,1-5.37.36c-3.25,0-4.34-.4-4.91-.63a4,4,0,0,1-2.71-3.8c0-3.06,3.06-4.64,5.24-5.75a1.63,1.63,0,0,0-1.13-.4c-2.23,0-3.71,2.18-5.22,4.38l-2.94-2.09a41,41,0,0,0,4.07-5.62c-1.07,0-1.51,0-3,0l.09-3.58c1,0,2.31.11,3.93.11h1c.4-.71.6-1.13,1.2-2.37Z"/><path class="cls-2" d="M173.2,11.62c.2-.57.4-1.49.56-2.17l4.35.11a18.85,18.85,0,0,1-.77,2.06h7.86V30.33H167V11.62ZM181.45,15H170.76v1.93h10.69Zm0,5H170.76v1.95h10.69Zm0,5H170.76v2h10.69Z"/><path class="cls-2" d="M207.87,12.31V30H188.76V12.31h7.65V9.51h3.77v2.8Zm-11.46,3.42h-3.92v3.74h3.92Zm0,7h-3.92V26.6h3.92Zm7.7-7h-3.93v3.74h3.93Zm0,7h-3.93V26.6h3.93Z"/><path class="cls-2" d="M216.7,11.38a43.15,43.15,0,0,0-1.29,10.13,32.65,32.65,0,0,0,.82,7.46l-3.89.43a35.46,35.46,0,0,1-.73-7.69,56.09,56.09,0,0,1,1.09-10.78ZM229.8,28a39.77,39.77,0,0,1-5.13.4c-3.62,0-7.09-.58-7.09-4.34a6,6,0,0,1,.85-3l3.27.62a3.7,3.7,0,0,0-.61,1.66c0,1,.89,1.18,3.56,1.18a30.14,30.14,0,0,0,5.26-.53ZM218.56,12.71a56.26,56.26,0,0,1,6.36-.4c2,0,3.31.14,4.08.2l-.11,3.8a38.47,38.47,0,0,0-3.95-.18,44.88,44.88,0,0,0-6.47.47Z"/><path class="cls-2" d="M91,38.06l3.36,4c-.74,3.86-2.54,10.13-10.67,13.84l-2.62-3.29c7.58-3.06,8.78-8.68,9.15-10.71H78.07V38.06Zm7.35-.26a3,3,0,1,1-3-3A3,3,0,0,1,98.39,37.8Zm-4.46,0a1.47,1.47,0,0,0,2.93,0,1.47,1.47,0,1,0-2.93,0Z"/><path class="cls-2" d="M118.73,42c-1.13,9.4-7.26,12.57-12.64,14l-2.18-3.42c7.6-1.56,9.22-5.38,9.84-6.86H100.2V42ZM116.55,37v3.69H102.29V37Z"/><path class="cls-2" d="M129.85,44.06a28.34,28.34,0,0,0-6.78-3.4l1.84-3.44A30.44,30.44,0,0,1,132,40.57Zm11.64-.22a25.57,25.57,0,0,1-7.2,7.73,25,25,0,0,1-9.62,4l-1.38-4c6.29-1.15,11.38-3.82,15.58-11.2Z"/><path class="cls-2" d="M163.49,49.68v4H144.25v-4Zm-1.67-11.4v4H145.94v-4Z"/><path class="cls-2" d="M174.29,44.06a28.09,28.09,0,0,0-6.77-3.4l1.84-3.44a30.44,30.44,0,0,1,7.07,3.35Zm11.64-.22a25.41,25.41,0,0,1-7.19,7.73,25,25,0,0,1-9.62,4l-1.38-4c6.29-1.15,11.37-3.82,15.57-11.2Z"/><path class="cls-2" d="M202.07,37.51l3.51,4.73c-1.51,5.26-4.26,10.91-12.11,14L190.74,53a17.54,17.54,0,0,0,7-4.46,15.78,15.78,0,0,0,4-7.33h-5.55a22.88,22.88,0,0,1-5,5.82l-3.07-2.65a20.39,20.39,0,0,0,5.69-6.88Zm1.6-2.45a18.55,18.55,0,0,1,2.64,4l-1.6,1.06a16.88,16.88,0,0,0-2.51-4ZM207,34.8a19.29,19.29,0,0,1,2.49,4.06l-1.62,1.07a17.62,17.62,0,0,0-2.38-4.16Z"/><path class="cls-2" d="M220.76,36.51l-.51,12.59h-3.33l-.51-12.59Zm-4.2,14.08h4.05v3.85h-4.05Z"/><circle class="cls-2" cx="29.19" cy="29.19" r="29.19" transform="translate(-6.13 7.82) rotate(-13.83)"/><circle class="cls-3" cx="29.19" cy="29.19" r="25.53" transform="translate(-6.13 7.82) rotate(-13.82)"/><path class="cls-4" d="M18.19,16.86c.55-.1,1.64-.42,2.1-.56V13.94h-.51a6.69,6.69,0,0,1-.47,2l-1.18-1.12a10.94,10.94,0,0,0,.48-3.91l1.33,0c0,.46,0,.94,0,1.38h.38V10.16h1.63v2.12h.71v1.66h-.71v1.84l.74-.24v1.7c-.16.07-.25.12-.74.3v3.4H20.29V18.09c-.52.17-1.42.46-1.86.56Zm5.7.51H22.84V15.78h3.6V15H22.76V13.41H25v-.83H23.12V11H25v-.87H26.7V11h2v1.55h-2v.83H29V15h-.9v.75h.8v1.59h-.8v2.19c0,.78,0,1.38-1.19,1.38H25l-.25-1.48-.63.37A8.82,8.82,0,0,0,22.8,18Zm1.17,1.89h1.05c.33,0,.33-.2.33-.42V17.37h-2a8.36,8.36,0,0,1,1.16,1.55Z"/><path class="cls-4" d="M29.53,19.46a11,11,0,0,0,2.95-1.35H29.59V16.54h.66V11.18h2.54v-1h1.64v1H35.5v-1h1.65v1h2.62v5.36h.65v1.57H37.49a8.79,8.79,0,0,0,3,1.3L39.55,21A12.58,12.58,0,0,1,36,19l1-.84H32.91l1,.81A11.56,11.56,0,0,1,30.46,21Zm2.32-6.71v1.13h1V12.75Zm0,2.56v1.23h1V15.31Zm2.58-2.56v1.13H35.5V12.75Zm0,2.56v1.23H35.5V15.31Zm2.63-2.56v1.13h1.06V12.75Zm0,2.56v1.23h1.06V15.31Z"/><path class="cls-4" d="M33.4,25.53c0,1-.07,2-.1,3s-.06,2-.07,3,0,1.85,0,2.66c0,1.37,0,2.56,0,3.57s0,2,.05,2.89,0,1.88.09,2.88.07,2.17.12,3.51a24.27,24.27,0,0,0-3.94-.31q-.93,0-1.86.09c-.61.06-1.22.13-1.83.22.05-.55.09-1.33.13-2.33s.06-2.08.1-3.26.06-2.36.07-3.56,0-2.29,0-3.24c0-1.93,0-3.84-.11-5.75-.67.35-1.34.69-2,1s-1.31.69-1.93,1.08l-1-1.36c-.34-.44-.7-.88-1.1-1.32.61-.21,1.2-.44,1.8-.7l1.79-.76c.53-.23,1.22-.55,2-1s1.69-.84,2.56-1.29,1.71-.9,2.51-1.36a19.66,19.66,0,0,0,1.86-1.16l.94.59C33.48,23.56,33.44,24.52,33.4,25.53Z"/></svg>