<?xml version="1.0" encoding="UTF-8"?>
<svg id="_レイヤー_2" data-name="レイヤー 2" xmlns="http://www.w3.org/2000/svg" viewBox="0 0 457.28 155.85">
  <defs>
    <style>
      .cls-1 {
        fill: #ebebeb;
      }

      .cls-2 {
        fill: #9e9e9f;
      }

      .cls-3 {
        fill: #231815;
      }

      .cls-4 {
        fill: #fff;
      }

      .cls-5 {
        fill: #5b8470;
      }

      .cls-6 {
        fill: #004021;
      }

      .cls-7 {
        fill: #98b57b;
      }
    </style>
  </defs>
  <g id="_枠" data-name="枠">
    <g>
      <rect class="cls-1" y="40.83" width="457.28" height="115.02"/>
      <rect class="cls-5" y="0" width="457.28" height="41.22"/>
      <polygon class="cls-7" points="242.63 102.63 221.35 70.64 221.35 84.43 168.13 84.43 168.13 120.83 221.35 120.83 221.35 134.63 242.63 102.63"/>
      <path class="cls-2" d="M155.61,133.1h-63.35v-63.36h63.35v63.36ZM145.29,80.07h-42.71v42.71h42.71v-42.71Z"/>
      <path class="cls-6" d="M318.64,133.1h-63.35v-63.36h63.35v63.36ZM305.11,83.27h-36.29v36.29h36.29v-36.29Z"/>
      <g>
        <path d="M50.39,81.69c.19.02.33.05.33.19,0,.18-.22.23-.37.24v.67h4.43v1.2h-4.43v1.13h5.81v1.26h-13.2v-1.26h5.86v-1.13h-4.49v-1.2h4.49v-1.15h-2.58v.54h-1.29v-3.76c-.25,1.36-.56,2.32-1.29,3.41-.44-.38-.69-.54-1.14-.74.59-.87,1.33-2.04,1.33-4.75v-2.4h5.25v3.17h-3.99c-.03.29-.04.44-.08.81h4.07v3.7l1.29.08ZM45.11,75v1.11h2.73v-1.11h-2.73ZM46.24,79.01v1.56h1.57v-1.56h-1.57ZM53.44,79.3h2.13v1.08h-2.13v1.77h-1.42v-1.77h-2.2v-1.08h2.2v-1.06h-2.59v-1.13h1.49c-.13-.37-.28-.77-.45-1.13l.87-.21h-1.62v-1.15h2.31v-1.23l1.49.08c.07,0,.23,0,.23.14,0,.14-.11.2-.3.29v.72h2.26v1.15h-.92c.32.04.5.11.5.25s-.29.18-.43.2c-.23.57-.25.62-.39.9h1.66v1.13h-2.69v1.06ZM51.76,75.77c.16.37.33.81.45,1.2-.46.06-.59.09-.81.14h1.75c.17-.32.32-.68.57-1.34h-1.96Z"/>
        <path d="M61.41,76.73c.22.07.24.13.24.2,0,.14-.18.23-.37.35v9.45h-1.51v-7.59c-.38.53-.58.83-1,1.25-.38-.52-.65-.79-1.12-1.11,1.75-1.8,2.68-4.09,3.18-5.91l1.5.46c.17.05.27.07.27.21,0,.13-.11.16-.43.22-.33.96-.61,1.65-.99,2.41l.23.07ZM71.09,75.23v1.3h-2.13l1.03.44c.07.03.2.09.2.17,0,.15-.11.18-.39.22-.54,1.14-.61,1.26-.98,1.92h2.58v1.34h-9.39v-1.34h2.62c-.33-.98-.86-1.92-1.06-2.28l1.33-.47h-2.4v-1.3h3.46v-1.76l1.5.03c.21,0,.36.06.36.19,0,.16-.14.21-.36.32v1.22h3.65ZM64.7,86.07v.66h-1.45v-5.17h7.15v5.17h-1.47v-.66h-4.23ZM68.93,84.76v-1.92h-4.23v1.92h4.23ZM64.95,76.53c.42.62,1,2.03,1.12,2.31l-1.14.44h2.37c.23-.44.85-1.7,1.21-2.75h-3.56Z"/>
        <path d="M73.13,80.81c1.11-.32,2.54-.98,3.3-1.41-.06.53-.01.68.12,1.25-.67.4-2.18,1.08-2.54,1.24-.07.2-.1.3-.24.3-.11,0-.15-.04-.23-.26l-.41-1.11ZM81.68,77.52c.1.05.16.09.16.18,0,.14-.08.16-.41.2-.55.69-1.43,1.76-2.01,2.34.59-.03.94-.05,2.08-.16-.16-.3-.32-.55-.53-.9l1.12-.49c.52.76,1.16,1.92,1.48,2.68-.49.25-.84.45-1.18.67-.1-.26-.19-.47-.39-.94-1.36.14-1.52.16-2.27.23l1.01.05c.12,0,.54.05.54.26,0,.09-.1.25-.46.32v.79h5.93v1.33h-5.93v2.68h-1.56v-2.68h-5.99v-1.33h5.99v-1.38c-.33.03-1.74.16-2.02.19-.1.15-.14.25-.25.25-.07,0-.13-.03-.18-.33l-.19-1.1c.44-.02.74-.04,1.22-.06.27-.27.3-.31.82-.87-.72-.62-1.1-.91-2.08-1.61l.81-.94c.17.1.38.24.78.53.31-.35.72-.92.98-1.41h-5.64v-1.25h5.74v-1.39l1.61.04c.13,0,.31.04.31.21,0,.08-.06.15-.11.18-.06.04-.14.07-.23.11v.85h5.68v1.25h-6.16c.26.12.33.18.33.28,0,.12-.13.14-.38.16-.52.75-.78,1.07-1.26,1.65.14.11.24.21.43.39.87-1.06.97-1.17,1.18-1.56l1.04.57ZM74.51,76.43c.69.49,1.38,1.12,2.06,1.8-.53.48-.59.53-.98.96-.67-.83-1.23-1.29-1.96-1.87l.87-.89ZM85.95,76.94c.07.04.17.14.17.23,0,.21-.23.21-.38.19-.47.68-.88,1.14-1.57,1.84-.37-.31-.68-.47-1.13-.75.91-.92,1.19-1.26,1.84-2.25l1.07.74ZM84.24,79.3c.74.27,2.07,1.22,2.52,1.61-.52.65-.58.72-.77,1.07-1.24-.98-1.87-1.35-2.56-1.69l.82-.99Z"/>
        <path d="M47.1,98.49c.07.04.22.11.22.24,0,.19-.21.19-.25.19-.05,0-.07,0-.21-.03-.3.55-.62,1.06-.86,1.41.25.11.33.16.33.26,0,.03-.01.09-.05.11-.12.09-.13.1-.18.13v6.59h-1.51v-5.28c-.56.69-.76.87-1.05,1.12-.11-.14-.49-.69-1.06-1.05,2.18-1.97,3.13-3.91,3.38-4.41l1.25.69ZM46.88,95.01c.07.05.18.13.18.25,0,.12-.18.15-.28.15-.05,0-.1,0-.19-.03-.65.96-1.89,2.09-2.83,2.78-.2-.26-.47-.59-1.15-1.05,1.13-.69,2.27-1.75,3.04-2.98l1.24.88ZM49.86,100.12c.16,0,.33.07.33.25,0,.15-.09.16-.29.23-.04,1.2-.23,2.13-.28,2.29.28.67.72,1.51,1.53,2.07v-6.5h-3.85v-1.35h2.61c-.09-.21-.76-1.55-1.45-2.35l1.24-.7c.54.68.94,1.3,1.49,2.34-.47.23-.81.43-1.19.71h2.05c.35-.48,1.21-1.89,1.65-3.09l1.36.46c.07.03.21.08.21.21,0,.1-.09.13-.35.22-.22.52-.47,1.1-1.19,2.2h2.45v1.35h-3.48v2.43h2.9v1.41h-2.9v3.27c.68.13,1.25.17,1.76.17.59,0,1.13-.04,2.1-.12-.34.64-.45.91-.56,1.55-3.33,0-5.19,0-6.75-2.77-.22.68-.69,1.91-1.69,3.18-.46-.45-.67-.6-1.31-.76.68-.75,2.25-2.55,2.2-6.83l1.41.13Z"/>
        <path d="M65.53,107.45h-1.42v-4.74c-1.68,2.18-3.49,3.63-4.98,4.45-.32-.51-.65-.82-1.15-1.14,3.02-1.48,4.52-3.11,5.39-4.18h-5.19v-1.32h3.33c-.11-.26-.59-1.53-1.37-2.57l1.25-.66h-2.56v-1.35h5.28v-1.71l1.46.1c.12.03.28.06.28.19,0,.11-.18.22-.32.26v1.16h5.26v1.35h-2.61l1.23.54c.12.06.19.09.19.2,0,.15-.1.17-.35.2-.24.64-.87,1.83-1.18,2.28h3.36v1.32h-5.26c.36.46,1.26,1.46,2.5,2.37,1.23.91,2.25,1.41,2.83,1.7-.5.36-.7.61-1.03,1.12-1.51-.72-3.62-2.32-4.95-4.2v4.62ZM64.11,100.51v-3.23h-2.64c.64.8,1.09,1.72,1.47,2.66-.48.22-.64.32-1.05.57h2.22ZM65.53,97.28v3.23h2.27c-.17-.11-.71-.39-1.13-.55.54-.83,1.1-1.88,1.32-2.69h-2.46Z"/>
        <path d="M45.25,122.28c.06.9.22,2.85,2.48,2.85.35,0,2.62,0,2.62-2.36,0-1.88-1.4-2.33-2.34-2.33h-1v-1.89h.85c1.07,0,2.23-.65,2.23-2.03,0-1.86-1.72-1.86-2.16-1.86-1.49,0-2.23.56-2.32,2.32h-2.26c.05-.62.14-1.59.75-2.62,1.03-1.72,2.84-2,3.88-2,2.41,0,4.32,1.31,4.32,3.86,0,2.23-1.34,2.83-1.96,3.1.57.24,2.21.89,2.21,3.46,0,2.83-1.79,4.66-4.79,4.66-2.5,0-4.55-1.34-4.77-5.15h2.25Z"/>
        <path d="M57.46,124.19v2.84h-2.2v-2.84h2.2Z"/>
        <path d="M69.69,119.89c0,2.55-.54,7.54-4.81,7.54s-4.81-4.97-4.81-7.54.49-7.54,4.81-7.54,4.81,4.99,4.81,7.54ZM62.3,119.89c0,.78,0,5.26,2.58,5.26s2.57-4.48,2.57-5.26,0-5.25-2.57-5.25-2.58,4.4-2.58,5.25Z"/>
        <path d="M74.93,118.13c.22.08.23.14.23.21,0,.13-.17.24-.36.34v9.45h-1.51v-7.59c-.37.52-.58.83-1,1.25-.37-.53-.65-.79-1.13-1.11,1.75-1.81,2.68-4.09,3.19-5.91l1.49.45c.17.05.28.07.28.22,0,.13-.12.16-.43.22-.34.96-.61,1.65-.99,2.41l.23.06ZM84.61,116.63v1.31h-2.13l1.03.44c.07.03.21.08.21.17,0,.14-.12.18-.39.22-.54,1.13-.62,1.26-.99,1.92h2.58v1.33h-9.38v-1.33h2.61c-.32-.98-.86-1.92-1.06-2.28l1.33-.47h-2.41v-1.31h3.46v-1.77l1.49.05c.22,0,.37.06.37.19,0,.16-.14.21-.37.32v1.21h3.65ZM78.23,127.47v.67h-1.46v-5.17h7.14v5.17h-1.46v-.67h-4.23ZM82.46,126.17v-1.93h-4.23v1.93h4.23ZM78.47,117.94c.42.62,1,2.03,1.11,2.31l-1.12.44h2.37c.22-.44.84-1.7,1.21-2.75h-3.56Z"/>
      </g>
      <g>
        <path d="M332.02,85.66v-7.22h-.75v7.22h-1.05v-7.22h-.72v8.3h-1.26v-9.66h1.89c.18-.42.5-1.22.71-1.96h-3.09v-1.26h7.75v1.26h-3.13c-.28.81-.39,1.07-.75,1.96h3.47v8.07c0,.75,0,1.69-2.12,1.6-.03-.35-.09-.57-.39-1.09h-.56ZM333.09,85.34c.66.03.75.05.75-.43v-6.46h-.75v6.89ZM336.62,79.28c.54.86,1.19,2.28,1.5,3.26-.33.1-.83.27-1.45.6-.24-.92-.89-2.48-1.36-3.28l1.31-.57ZM338.48,73.41l1.43.07c.13,0,.31.04.31.18,0,.11-.07.17-.26.26v2.86h1.18v1.37h-1.18v6.62c0,.9,0,2-2.4,2-.19,0-.33,0-.5-.03-.03-.55-.13-.9-.52-1.63.14.03.51.06.94.06.91,0,1-.16,1-.75v-6.28h-3.09v-1.37h3.09v-3.37Z"/>
        <path d="M349.9,73.58c.14,0,.36.07.36.19s-.16.19-.4.32c0,.72-.04,1.71-.05,2.26h5.71c0,2.16-.04,8.06-1.18,9.4-.8.95-2.44.97-3.26.9-.1-.41-.28-1.13-.71-1.79.76.16,1.31.19,1.63.19.82,0,1.23-.17,1.53-1.74.23-1.33.4-3.31.36-5.49h-4.16c-.17,2.05-.34,4.28-2.48,6.67-.66.74-1.59,1.61-3.08,2.27-.43-.56-.58-.7-1.17-1.2,4.94-2.03,5.12-6.42,5.18-7.74h-4.7v-1.47h4.77v-2.87l1.67.1Z"/>
        <path d="M369.14,74.97c.24,0,.57-.04.8-.13l1.06.96c-.17.2-.24.28-.51.69-1.73,2.52-3.64,4.1-4.34,4.67-.3-.41-.65-.77-1.08-1.09,2.02-1.48,2.78-2.31,3.63-3.66h-10.33v-1.44h10.77ZM365.04,77.53c.07,0,.28.03.28.15,0,.15-.18.23-.28.27-.09,2.07-.25,6.07-4.52,8.47-.53-.47-.69-.61-1.32-1.01,3.07-1.66,4.42-3.67,4.22-8.02l1.62.13Z"/>
        <path d="M374.52,77.27c.57.87,1.07,1.95,1.42,2.89-.41.13-.83.31-1.23.56-.47-1.26-.75-1.8-1.41-2.93l1.22-.52ZM383.18,77.16c.14.05.26.09.26.21,0,.16-.21.2-.28.21-1.07,4.25-2.83,6.82-7.17,8.57-.31-.46-.53-.72-.89-1.1,2.13-.77,5.89-2.41,6.72-8.31l1.35.42ZM377.66,76.53c.6.98,1,1.87,1.32,2.94-.19.06-.75.23-1.23.49-.32-.97-.69-1.86-1.33-2.93l1.25-.5Z"/>
        <path d="M395.36,75.4c.6,0,.85-.06,1-.13l1.1.96c-.23.39-.28.47-.41.83-1.75,4.62-3.59,7.08-8.29,9.37-.36-.59-.95-1.04-1.14-1.19,2.11-.9,5.88-2.52,7.83-8.43h-9.48v-1.41h9.39ZM399.18,74.26c0,.72-.58,1.32-1.32,1.32s-1.32-.58-1.32-1.32.6-1.31,1.32-1.31,1.32.58,1.32,1.31ZM397.15,74.26c0,.4.32.72.71.72s.73-.32.73-.72-.34-.71-.73-.71-.71.32-.71.71Z"/>
        <path d="M413.07,75.68c-3.56-.03-6.98,3.18-6.98,5.91,0,.89.4,3,4.39,3.36-.4.77-.55,1.26-.68,1.67-2.27-.47-5.24-1.77-5.24-5.01,0-3.06,2.79-4.91,3.64-5.47-1.7.12-6.55.78-7.4,1l-.23-1.84c.27,0,.5.02.83.02.76,0,7.19-.33,11.36-1.3l.32,1.67ZM410.62,78.24c.3.3.97,1.07,1.32,1.55-.34.21-.68.56-.79.69-.6-.84-.97-1.26-1.32-1.58l.79-.67ZM412.06,77.14c.45.39,1.07,1.12,1.37,1.54-.33.19-.63.53-.79.68-.5-.71-.77-1.05-1.33-1.62l.76-.6Z"/>
        <path d="M335.15,100.1c.18.02.33.06.33.2,0,.18-.23.23-.37.24v.66h4.43v1.19h-4.43v1.13h5.81v1.26h-13.2v-1.26h5.86v-1.13h-4.5v-1.19h4.5v-1.14h-2.59v.54h-1.29v-3.76c-.25,1.36-.56,2.31-1.29,3.41-.45-.39-.7-.54-1.14-.75.6-.87,1.33-2.04,1.33-4.73v-2.4h5.25v3.16h-3.99c-.02.3-.04.44-.08.82h4.07v3.69l1.29.07ZM329.87,93.41v1.12h2.73v-1.12h-2.73ZM331,97.42v1.56h1.57v-1.56h-1.57ZM338.21,97.71h2.13v1.09h-2.13v1.76h-1.42v-1.76h-2.2v-1.09h2.2v-1.05h-2.59v-1.14h1.48c-.13-.36-.27-.76-.45-1.12l.88-.22h-1.62v-1.15h2.3v-1.23l1.49.07c.07,0,.24.02.24.14,0,.15-.12.21-.31.29v.73h2.26v1.15h-.92c.32.04.49.11.49.25,0,.14-.28.18-.42.2-.23.57-.26.62-.39.89h1.67v1.14h-2.69v1.05ZM336.53,94.18c.15.37.33.81.45,1.19-.47.08-.59.09-.82.14h1.76c.18-.32.32-.68.56-1.33h-1.95Z"/>
        <path d="M346.18,95.14c.21.09.23.14.23.22,0,.12-.18.23-.36.34v9.45h-1.51v-7.59c-.38.53-.57.82-1,1.25-.38-.52-.65-.8-1.12-1.11,1.75-1.81,2.68-4.1,3.19-5.91l1.49.45c.18.06.28.07.28.22,0,.13-.12.16-.44.22-.33.96-.61,1.64-.98,2.41l.23.06ZM355.85,93.64v1.31h-2.12l1.03.43c.08.04.21.09.21.18,0,.15-.12.18-.39.22-.54,1.13-.61,1.26-.99,1.92h2.58v1.33h-9.39v-1.33h2.62c-.33-.98-.86-1.92-1.06-2.28l1.34-.47h-2.41v-1.31h3.46v-1.76l1.49.04c.23,0,.37.05.37.18,0,.16-.13.22-.37.33v1.21h3.65ZM349.46,104.48v.67h-1.44v-5.17h7.15v5.17h-1.48v-.67h-4.23ZM353.69,103.18v-1.93h-4.23v1.93h4.23ZM349.71,94.95c.42.62.99,2.03,1.11,2.3l-1.12.45h2.36c.24-.45.85-1.7,1.21-2.75h-3.56Z"/>
        <path d="M357.9,99.22c1.11-.32,2.54-.99,3.31-1.4-.06.52-.02.68.11,1.25-.67.4-2.18,1.09-2.54,1.24-.07.21-.1.29-.25.29-.11,0-.14-.04-.23-.25l-.41-1.12ZM366.45,95.93c.1.06.15.09.15.18,0,.15-.07.17-.4.2-.55.7-1.44,1.77-2.01,2.35.6-.03.94-.05,2.07-.16-.16-.31-.32-.55-.52-.9l1.11-.49c.52.76,1.16,1.93,1.48,2.68-.5.25-.84.45-1.18.66-.1-.25-.18-.47-.39-.94-1.36.15-1.53.17-2.28.24l1.02.06c.11,0,.54.04.54.26,0,.08-.1.24-.47.3v.8h5.94v1.33h-5.94v2.68h-1.55v-2.68h-6v-1.33h6v-1.38c-.33.04-1.75.16-2.03.18-.1.17-.14.25-.25.25-.07,0-.12,0-.19-.32l-.19-1.1c.44-.02.75-.04,1.22-.05.28-.28.31-.33.83-.88-.73-.61-1.11-.91-2.09-1.61l.81-.95c.17.1.38.26.78.54.31-.36.72-.92.99-1.41h-5.65v-1.25h5.74v-1.4l1.61.04c.13,0,.31.04.31.21,0,.08-.05.15-.1.17-.06.04-.15.07-.24.12v.85h5.68v1.25h-6.16c.26.12.33.17.33.27,0,.13-.12.14-.39.17-.53.75-.78,1.06-1.26,1.64.13.12.25.22.43.39.88-1.06.98-1.18,1.18-1.56l1.05.56ZM359.27,94.84c.69.48,1.38,1.11,2.06,1.8-.53.48-.58.52-.97.96-.66-.83-1.23-1.29-1.96-1.87l.87-.89ZM370.7,95.36c.08.04.18.12.18.23,0,.2-.23.2-.38.18-.47.67-.89,1.14-1.57,1.84-.37-.31-.68-.48-1.13-.76.9-.93,1.19-1.26,1.83-2.25l1.07.75ZM368.99,97.71c.75.27,2.08,1.22,2.53,1.61-.52.66-.58.73-.77,1.08-1.24-.98-1.87-1.34-2.56-1.69l.81-1Z"/>
        <path class="cls-6" d="M340.76,124.99h3.1v3.17h-3.1v4.8h-3.59v-4.8h-9.43v-3.17l9.43-13.45h3.59v13.45ZM337.17,124.99v-8.91l-6.26,8.91h6.26Z"/>
        <path class="cls-6" d="M351.71,128.7v4.26h-3.64v-4.26h3.64Z"/>
        <path class="cls-6" d="M359.67,125.84c.1,1.33.36,4.26,4.11,4.26.57,0,4.34,0,4.34-3.52,0-2.83-2.33-3.52-3.89-3.52h-1.65v-2.82h1.42c1.77,0,3.69-.99,3.69-3.05,0-2.8-2.85-2.8-3.57-2.8-2.47,0-3.7.84-3.85,3.48h-3.73c.09-.91.24-2.39,1.25-3.94,1.69-2.59,4.7-2.99,6.42-2.99,3.98,0,7.15,1.96,7.15,5.78,0,3.36-2.23,4.25-3.24,4.66.94.35,3.67,1.33,3.67,5.19,0,4.23-2.97,6.98-7.94,6.98-4.14,0-7.53-2.01-7.89-7.72h3.71Z"/>
        <path class="cls-6" d="M380.64,119.61c.36.12.39.2.39.3,0,.2-.29.35-.6.52v14.18h-2.49v-11.39c-.63.78-.96,1.23-1.65,1.88-.62-.79-1.09-1.2-1.88-1.66,2.9-2.71,4.44-6.15,5.28-8.86l2.47.67c.29.09.46.1.46.33,0,.21-.18.24-.72.32-.55,1.43-1.01,2.48-1.63,3.61l.39.1ZM396.67,117.35v1.96h-3.53l1.7.65c.13.06.34.13.34.26,0,.21-.19.26-.66.33-.88,1.7-1,1.89-1.62,2.89h4.27v2h-15.54v-2h4.31c-.52-1.47-1.4-2.89-1.74-3.42l2.2-.71h-3.97v-1.96h5.72v-2.66l2.48.07c.36,0,.6.09.6.28,0,.25-.22.33-.6.49v1.82h6.05ZM386.08,133.61v1h-2.4v-7.76h11.83v7.76h-2.42v-1h-7ZM393.09,131.66v-2.9h-7v2.9h7ZM386.49,119.31c.7.93,1.66,3.04,1.86,3.46l-1.88.67h3.91c.39-.67,1.42-2.56,2.02-4.13h-5.91Z"/>
        <path class="cls-3" d="M403.18,124.1c.2.07.32.11.32.23,0,.13-.18.14-.36.15-.66,1.85-.97,3.75-.97,5.68,0,.87.05,1.26.16,1.78.16-.43.58-1.41.84-1.82.12.16.31.45.81.75-.18.37-1.07,2.09-1,3.51l-1.36.35c-.4-.95-.9-2.35-.9-4.87,0-2.29.34-3.81.9-6.28l1.55.52ZM406.96,130.18c-.18.31-.46.8-.46,1.34,0,.82,1.04.97,2.58.97.48,0,2.04,0,3.58-.36-.06.26-.15.73-.13,1.46-.96.13-2.41.2-3.41.2-1.76,0-4.04-.17-4.04-1.87,0-.69.25-1.34.56-1.97l1.31.24ZM405.65,125.06c.4.02.82.06,1.56.06,1.7,0,3.1-.09,4.5-.42.04.27.14,1.16.18,1.34-1.54.27-3.12.38-4.7.38-.71,0-1.17-.04-1.54-.06v-1.31Z"/>
      </g>
      <g>
        <path class="cls-4" d="M187.78,101.67h-1.96v-8.66h-2.18v-1.8c1.08-.06,2.12-.22,2.59-2.37h1.54v12.83Z"/>
        <path class="cls-4" d="M194.3,99.11v2.56h-1.97v-2.56h1.97Z"/>
        <path class="cls-4" d="M203,96.9h1.68v1.89h-1.68v2.89h-1.95v-2.89h-5.12v-1.89l5.12-8.06h1.95v8.06ZM201.05,96.9v-5.34l-3.41,5.34h3.41Z"/>
        <path class="cls-4" d="M208.7,93.68c.2.05.21.11.21.18,0,.1-.15.2-.32.31v8.49h-1.35v-6.82c-.34.47-.52.74-.9,1.12-.33-.47-.59-.71-1.01-.99,1.57-1.62,2.41-3.68,2.86-5.31l1.34.4c.15.05.25.07.25.2,0,.11-.11.14-.39.19-.3.85-.54,1.47-.88,2.16l.2.07ZM217.4,92.32v1.17h-1.92l.93.39c.07.03.18.08.18.16,0,.13-.1.16-.35.19-.48,1.02-.55,1.13-.89,1.73h2.32v1.2h-8.44v-1.2h2.34c-.28-.88-.76-1.73-.96-2.05l1.2-.42h-2.16v-1.17h3.11v-1.59l1.34.04c.19,0,.33.05.33.17,0,.14-.12.19-.33.28v1.1h3.28ZM211.65,102.07v.6h-1.29v-4.65h6.41v4.65h-1.32v-.6h-3.81ZM215.46,100.89v-1.74h-3.81v1.74h3.81ZM211.88,93.49c.38.57.89,1.83,1,2.07l-1.02.4h2.13c.21-.4.76-1.54,1.09-2.48h-3.2Z"/>
        <path class="cls-4" d="M180.67,113.81c.39-.1,1.12-.32,1.44-.41v-8.57l1.5.13c.08,0,.27,0,.27.18,0,.15-.17.2-.32.26v7.54c1.24-.39,2.45-.83,3.64-1.3-.03.18-.06.41-.06.89,0,.22,0,.31.02.45-1.68.68-3.04,1.19-5.48,1.99-.07.2-.15.34-.27.34-.11,0-.16-.14-.19-.21l-.55-1.3ZM191.8,104.92c.11.02.26.03.26.18,0,.18-.15.24-.33.29,0,3.38-.38,5.78-1.18,7.28.38.34,1.67,1.58,2.38,2.81-.47.36-.71.6-1.09,1.02-.68-1.15-1.18-1.84-2.04-2.71-1.1,1.42-2.6,2.4-4.34,2.89-.25-.54-.46-.84-.83-1.22,1.1-.28,3.08-.85,4.43-2.98,1.12-1.75,1.15-3.84,1.2-7.65l1.54.1ZM186.31,105.35c.83.83,1.9,2.23,2.39,3.15-.25.15-.79.46-1.2.82-.56-1.11-1.6-2.41-2.32-3.13l1.13-.84Z"/>
        <path class="cls-4" d="M205.08,108.88v1.37h-4.92v4.48h5.63v1.34h-11.9v-1.34h4.8v-9.96l1.55.11c.12,0,.25.07.25.15,0,.12-.08.15-.33.22v3.63h4.92Z"/>
        <path class="cls-4" d="M209.72,105.57c.18.06.28.11.28.23,0,.13-.16.14-.31.16-.6,1.83-.88,3.72-.88,5.62,0,.86.06,1.25.14,1.77.16-.43.53-1.39.76-1.81.1.16.27.46.72.76-.16.37-.96,2.07-.9,3.47l-1.22.36c-.35-.96-.81-2.35-.81-4.83,0-2.28.32-3.77.82-6.24l1.38.52ZM213.11,111.6c-.15.31-.39.78-.39,1.33,0,.82.94.97,2.32.97.43,0,1.82,0,3.21-.36-.05.25-.13.71-.11,1.44-.86.13-2.18.18-3.06.18-1.59,0-3.63-.15-3.63-1.84,0-.68.21-1.33.5-1.95l1.17.23ZM211.93,106.53c.35.02.74.06,1.4.06,1.54,0,2.78-.09,4.05-.41.04.25.13,1.14.16,1.33-1.38.26-2.8.37-4.22.37-.63,0-1.05-.04-1.39-.05v-1.3Z"/>
      </g>
      <g>
        <path class="cls-4" d="M72.54,28.71c-1.66,0-2,.02-2.75.11.13-1.21.28-1.96.55-2.73.58-1.55,1.53-2.92,2.92-4.17.75-.66,1.38-1.15,3.51-2.58,1.96-1.34,2.56-2.04,2.56-3.13,0-1.45-1.13-2.34-2.94-2.34-1.24,0-2.17.43-2.71,1.26-.36.51-.51.98-.66,1.96l-3.05-.36c.3-1.62.68-2.49,1.47-3.41,1.07-1.24,2.75-1.9,4.88-1.9,3.73,0,6.03,1.79,6.03,4.71,0,1.41-.47,2.43-1.51,3.41-.6.55-.81.72-3.58,2.62-.94.66-2,1.55-2.53,2.13-.64.68-.9,1.11-1.21,1.92h5.96c1.34,0,2.41-.06,3.11-.17v2.81c-1-.08-1.85-.13-3.22-.13h-6.84Z"/>
        <path class="cls-4" d="M87.13,28.28l-1.7-1.7,3.98-3.98-4-3.98,1.7-1.7,4,3.98,3.98-3.98,1.7,1.7-3.98,3.98,3.98,3.98-1.7,1.7-3.98-3.98-3.98,3.98Z"/>
        <path class="cls-4" d="M113.05,24.92c-.79-.11-1.24-.13-2.13-.15h-.77v1.51c0,1.09.04,1.64.17,2.43h-3.02c.13-.75.17-1.41.17-2.47v-1.47h-5.9c-1.26,0-1.94.02-2.66.08v-2.62c.72-.79.96-1.06,1.7-1.96l5.05-6.18c.94-1.13,1.28-1.58,1.77-2.34h2.88c-.13,1.24-.15,1.98-.15,3.6v6.99h.75c.85,0,1.36-.04,2.15-.15v2.73ZM107.49,17.95c0-1,.02-1.68.11-2.56-.43.62-.68.96-1.45,1.9l-4.09,5.07h5.43v-4.41Z"/>
        <path class="cls-4" d="M122.36,13.03c-.08.26-.13.49-.28,1.64-.43,2.9-.96,5.26-1.68,7.29-.96,2.62-2.04,4.54-3.77,6.58-1.02-.98-1.36-1.24-2.43-1.83,1.28-1.28,2.15-2.58,3.05-4.54.92-1.98,1.66-4.62,2-7.31.13-.87.19-1.6.19-2.07v-.3l2.92.53ZM128.41,12.5c.06,1.19.4,3.02.89,4.9,1.02,3.9,2.43,6.62,4.75,9.2-1.13.72-1.49,1.02-2.34,1.96-1.51-1.83-2.62-3.75-3.62-6.26-.92-2.24-1.66-5.09-2.02-7.75-.13-.81-.19-1.21-.3-1.53l2.64-.51ZM134.08,14.27c0,1.3-1.04,2.34-2.34,2.34s-2.34-1.06-2.34-2.34,1.04-2.34,2.34-2.34,2.34,1.04,2.34,2.34ZM130.52,14.27c0,.66.55,1.21,1.21,1.21s1.21-.55,1.21-1.21-.53-1.21-1.21-1.21-1.21.55-1.21,1.21Z"/>
        <path class="cls-4" d="M143.85,29.82c.08-.58.13-1.19.13-1.9v-5.56c-.21.17-.36.26-.64.4-1.6.85-3.41,1.58-6.01,2.39-.4-1.02-.6-1.38-1.26-2.32,2.11-.45,3.77-1,5.92-1.98,2.47-1.13,4.77-2.68,6.6-4.52h-.45q-.13.02-7.8.06c-1.24,0-1.47.02-2.26.11v-2.58c.55.13,1.36.19,2.28.19h3.56v-1.75c-.02-.79-.02-1.09-.11-1.53h2.85c-.09.4-.11.79-.11,1.49v1.77h3.6c.64,0,1.04-.06,1.45-.19l1.24,1.45c-.36.28-.38.3-.94.92-1.19,1.38-2.3,2.39-4.35,3.98,2.58.81,4.9,1.85,7.43,3.34l-1.41,2.24c-2.17-1.41-3.83-2.28-6.5-3.41-.28-.13-.32-.13-.53-.23.02.26.04.85.04,1.04v4.69c0,.94,0,1.28.11,1.9h-2.88Z"/>
        <path class="cls-4" d="M164.03,11.94q-.09.6-.21,4.77c-.15,4.15-.62,6.56-1.73,8.75-.72,1.47-1.53,2.56-2.94,3.94-.83-1.06-1.15-1.38-2.15-2.07,1.04-.85,1.56-1.43,2.19-2.45,1.53-2.45,2.02-5.2,2.02-11.16,0-1.17,0-1.36-.08-1.94l2.9.15ZM169.67,11.69c-.11.62-.13.98-.15,2.02l-.11,12.12c1.49-.7,2.34-1.34,3.26-2.43.98-1.15,1.6-2.32,2.09-3.9.75.96,1.02,1.24,2,2-.87,2.11-1.98,3.71-3.39,4.96-1.21,1.04-2.32,1.68-4.54,2.56-.47.17-.64.26-.92.38l-1.36-1.45c.15-.62.17-1.09.19-2.26l.11-12.01v-.64c0-.53-.02-1-.09-1.41l2.9.04Z"/>
        <path class="cls-4" d="M187.56,23.49c-1.21,2.75-2.58,4-4.32,4-2.43,0-4.17-2.47-4.17-5.9,0-2.34.83-4.54,2.34-6.2,1.79-1.96,4.3-2.98,7.33-2.98,5.11,0,8.44,3.11,8.44,7.9,0,3.69-1.92,6.62-5.18,7.95-1.02.43-1.85.64-3.34.89-.36-1.13-.62-1.6-1.3-2.49,1.96-.26,3.24-.6,4.24-1.17,1.85-1.02,2.96-3.05,2.96-5.33,0-2.04-.92-3.71-2.62-4.73-.66-.38-1.21-.55-2.15-.64-.4,3.34-1.15,6.28-2.22,8.69ZM184.43,15.86c-1.79,1.28-2.9,3.47-2.9,5.75,0,1.75.75,3.13,1.68,3.13.7,0,1.43-.89,2.19-2.73.81-1.92,1.51-4.79,1.77-7.2-1.11.13-1.87.43-2.75,1.04Z"/>
        <path class="cls-4" d="M208.33,23.77c0-.47-.02-.85-.09-1.19q-.64-.02-1.11-.02h-2.56c-.83,0-1.26.02-1.85.06.04-.53.06-.87.06-1.79v-2.56c-.38,1.77-.89,2.96-1.85,4.3-.45-.79-.89-1.32-1.53-1.83,1.28-1.6,1.79-3.92,1.79-8.03,0-.81-.02-1.15-.08-1.64.45.04,1.02.06,1.9.06h3.98c.81,0,1.43-.02,1.85-.06-.06.36-.09.89-.09,1.64v1.96c0,.87,0,1.24.04,1.62-.26-.02-.87-.04-1.62-.04h-4.11q-.08.75-.13,1.17c.34.04.66.04,1.24.04h2.79c1.09,0,1.41-.02,1.81-.08-.04.45-.04.72-.04,1.7v1.9c0,.85,0,1.17.04,1.49h1.92c-.11.4-.13.72-.13,1.3v.23h4.41c1.15,0,1.58-.02,2.19-.13v2.11c-.7-.08-1.19-.11-2.19-.11h-4.41v1.7h5.84c1.15,0,1.83-.02,2.45-.11v2.22c-.75-.08-1.58-.13-2.62-.13h-13.72c-1.02,0-1.83.04-2.6.13v-2.22c.64.06,1.36.11,2.47.11h5.94v-1.7h-4.39c-1,0-1.49.02-2.19.11v-2.11c.62.11,1.04.13,2.19.13h4.39v-.23ZM206.67,14.52v-1.6h-3.37v.51c0,.43,0,.53-.06,1.09h3.43ZM204.56,20.85h2.28v-1.75h-2.28v1.75ZM212.81,11.75c0-.53-.04-.87-.11-1.26h2.36c-.08.32-.11.64-.11,1.28v.21h1.64c.81,0,1.43-.04,1.96-.11v2.04c-.38-.06-.62-.06-1.26-.09-.36,1.09-.51,1.51-.83,2.13h.83c.77,0,1.28-.02,1.75-.11v2.04c-.53-.06-1-.08-1.83-.08h-2.24v1.47h1.85c.83,0,1.09-.02,1.6-.08v2.02c-.55-.09-.83-.11-1.64-.11h-1.81v.21c0,.85.04,1.36.13,1.85h-2.39c.09-.57.11-1.02.11-1.85v-.21h-1.55c-.66,0-1.06.02-1.64.11v-2.02c.55.06.83.08,1.68.08h1.51v-1.47h-1.92c-.72,0-1.24.02-1.77.08v-2.02c.47.06.83.09,1.66.09h.58c-.21-.72-.38-1.15-.87-2.13-.47.02-.7.02-1.04.09v-2.04c.51.06,1.13.11,1.94.11h1.41v-.23ZM214.53,15.97c.32-.75.51-1.28.68-2.13h-2.64c.36.83.53,1.34.75,2.13h1.21Z"/>
        <path class="cls-4" d="M221.07,17.16c.66.08,1.17.11,2.24.11h14.87c1.07,0,1.64-.02,2.22-.11v1.87c-.6-.09-1.06-.11-2.13-.11h-14.98c-1.06,0-1.6.02-2.22.11v-1.87ZM225.38,24.94c-.85,0-1.38.02-1.96.06.04-.49.06-.83.06-1.7v-2.11c0-.68-.02-1.07-.06-1.58.47.06,1.02.09,2.02.09h10.63c.92,0,1.41-.02,1.98-.09-.04.49-.06.83-.06,1.53v2.17c0,.79.02,1.3.06,1.68-.6-.04-1.21-.06-1.96-.06h-4.32v.77h5.35c.89,0,1.34-.02,1.77-.08v1.68c-.49-.06-1.06-.08-1.9-.08h-5.22v.77h6.2c1.17,0,1.68-.02,2.43-.11v1.9c-.72-.09-1.41-.13-2.43-.13h-14.46c-1.02,0-1.66.02-2.43.13v-1.9c.72.08,1.26.11,2.43.11h6.03v-.77h-4.96c-.87,0-1.38.02-1.9.08v-1.68c.43.06.87.08,1.77.08h5.09v-.77h-4.15ZM225.12,16.48c-1.13,0-1.62.02-2.15.06.06-.49.08-.94.08-1.75v-2.04c0-.75-.02-1.19-.08-1.7.66.06,1.21.09,2.26.09h11.01c1.07,0,1.58-.02,2.24-.09-.06.51-.09.87-.09,1.7v2.04c0,.77.02,1.26.09,1.75-.55-.04-1-.06-2.15-.06h-11.2ZM225.23,15.14h10.93v-.7h-10.93v.7ZM225.25,13.22h10.93v-.7h-10.93v.7ZM225.63,21.04v.75h3.9v-.75h-3.9ZM225.63,22.96v.7h3.9v-.7h-3.9ZM231.77,21.79h4.07v-.75h-4.07v.75ZM231.77,23.66h4.07v-.7h-4.07v.7Z"/>
        <path class="cls-4" d="M243.76,13.14c.87.19,2.24.28,4.94.28.58-1.28.77-1.92.85-2.64l2.79.3q-.13.21-.85,1.92c-.11.23-.15.3-.19.38q.17-.02,1.34-.08c2.47-.15,4.41-.38,5.58-.72l.15,2.43q-.6.04-1.68.17c-1.55.19-4.26.36-6.41.43-.62,1.21-1.21,2.07-1.96,2.83l.02.04q.15-.11.43-.32c.79-.6,1.92-.96,3-.96,1.66,0,2.71.79,3.05,2.26,1.64-.6,2.73-.98,3.26-1.15,1.15-.4,1.24-.43,1.58-.64l1,2.45c-.6.08-1.24.26-2.36.58-.3.08-1.36.45-3.19,1.09v.23q.02.55.02.85v.85c-.02.36-.02.55-.02.7,0,.47.02.77.06,1.13l-2.47.06c.08-.38.13-1.47.13-2.47v-.51c-1.04.49-1.6.79-2.04,1.11-.75.55-1.11,1.13-1.11,1.75,0,1.11,1.02,1.56,3.6,1.56s4.75-.32,6.26-.89l.21,2.75c-.36,0-.47.02-.98.09-1.53.23-3.58.38-5.45.38-2.26,0-3.66-.26-4.75-.89-.98-.55-1.56-1.58-1.56-2.75,0-.87.26-1.55.94-2.36.96-1.19,2.17-2,4.58-3-.11-.79-.53-1.15-1.3-1.15-1.24,0-2.73.75-4.37,2.19-.9.75-1.38,1.28-1.85,1.94l-1.94-1.92c.55-.43,1.17-1.02,1.92-1.9.83-.98,2.13-2.83,2.56-3.64q.08-.17.17-.28c-.09,0-.36.02-.36.02-.34,0-2.22-.04-2.68-.04q-.4-.02-.6-.02c-.06,0-.19,0-.34.02l.04-2.43Z"/>
        <path class="cls-4" d="M277.33,24.92c-.79-.11-1.24-.13-2.13-.15h-.77v1.51c0,1.09.04,1.64.17,2.43h-3.02c.13-.75.17-1.41.17-2.47v-1.47h-5.9c-1.26,0-1.94.02-2.66.08v-2.62c.72-.79.96-1.06,1.7-1.96l5.05-6.18c.94-1.13,1.28-1.58,1.77-2.34h2.88c-.13,1.24-.15,1.98-.15,3.6v6.99h.75c.85,0,1.36-.04,2.15-.15v2.73ZM271.77,17.95c0-1,.02-1.68.11-2.56-.43.62-.68.96-1.45,1.9l-4.09,5.07h5.43v-4.41Z"/>
        <path class="cls-4" d="M279.16,28.71v-3.11h3.11v3.11h-3.11Z"/>
        <path class="cls-4" d="M287.51,24.09c.28.98.47,1.32,1,1.75.7.55,1.56.83,2.58.83,2.11,0,3.45-1.09,3.45-2.77,0-.98-.43-1.79-1.19-2.24-.51-.3-1.51-.51-2.45-.51s-1.55.02-2.28.11v-2.64c.68.09,1.15.11,2.07.11,2.13,0,3.39-.98,3.39-2.62,0-1.47-1-2.3-2.81-2.3-1.04,0-1.81.23-2.32.66-.43.4-.64.77-.89,1.64l-3.05-.51c.53-1.58,1.02-2.32,2.02-3.05,1.09-.79,2.47-1.17,4.17-1.17,3.56,0,5.86,1.79,5.86,4.56,0,1.28-.55,2.45-1.47,3.13-.47.36-.94.53-2.07.83,1.51.23,2.3.6,3.05,1.43.7.79,1.02,1.68,1.02,2.94,0,1.15-.49,2.32-1.28,3.11-1.17,1.13-2.96,1.73-5.24,1.73-2.49,0-4.2-.64-5.41-2.02-.53-.6-.81-1.15-1.19-2.39l3.05-.6Z"/>
        <path class="cls-4" d="M301.66,21.76c0-1.02,0-1.49.04-2.36-.55.94-.87,1.36-1.55,2.11-.34-1.26-.51-1.68-.98-2.53,1.47-1.49,2.71-3.54,3.6-5.96.36-.98.64-1.96.75-2.71l2.34.68c-.13.34-.19.53-.34,1.04-.36,1.17-.89,2.49-1.58,3.92v11.78c0,1.02.02,1.68.11,2.47h-2.51c.09-.72.13-1.41.13-2.53v-5.9ZM316.29,12.73c1.09,0,1.73-.02,2.34-.11v2.32c-.55-.09-.98-.11-2.15-.11h-1.6l1.81.49c-.68,1.55-.89,1.98-1.55,3.09h1.92c.92,0,1.6-.04,2.17-.11v2.32c-.58-.08-1.02-.11-2.17-.11h-10.44c-.81,0-1.34.02-1.83.11v-2.3c.4.06.87.08,1.77.08h1.85c-.28-.96-.75-2.11-1.19-2.98l1.7-.6h-1.21c-1.19,0-1.6.02-2.13.11v-2.32c.6.09,1.15.11,2.3.11h2.79v-.64c0-.53-.04-1.09-.11-1.51h2.6c-.09.53-.11.96-.11,1.49v.66h3.24ZM308.6,30.05h-2.39c.06-.58.11-1.17.11-2.09v-4.22c0-.7-.02-1.17-.09-1.77.53.06,1,.08,1.7.08h7.9c.85,0,1.13-.02,1.58-.08-.06.53-.08.94-.08,1.83v4.26c0,.89.02,1.38.11,1.98h-2.47v-1.11h-6.37v1.11ZM308.6,26.86h6.39v-2.73h-6.39v2.73ZM312.78,18.42c.75-1.3,1.02-1.96,1.56-3.58h-4.9c.6,1.28.68,1.49,1.17,2.98l-1.62.6h3.79Z"/>
        <path class="cls-4" d="M323.11,29.11c-.02-.38-.04-.51-.11-1-.4-2.58-.55-4.22-.55-6.37,0-2.75.26-5.18.87-8.33.23-1.19.28-1.41.32-1.98l2.81.3c-.51,1.26-1,3.64-1.34,6.37-.21,1.6-.3,2.85-.32,4.71,0,.47-.02.64-.04,1.17.23-.75.28-.9,1.11-2.81l1.7.77c-1.17,2.47-1.9,4.94-1.9,6.45,0,.13,0,.3.02.58l-2.58.15ZM332.18,20.7c-1.07,1.24-1.51,2.15-1.51,3.07,0,1.21,1.17,1.85,3.39,1.85,1.87,0,3.73-.3,5.07-.81l.21,2.71c-.3.02-.38.04-.87.13-1.7.28-3,.4-4.41.4-2.64,0-4.35-.6-5.28-1.85-.4-.53-.64-1.32-.64-2.09,0-1.38.64-2.81,1.96-4.39l2.09.98ZM328.67,13.65c.96.26,2.09.34,3.94.34,2.36,0,4.39-.19,5.79-.57l.13,2.58c-.17.02-.49.06-1.51.19-1.36.17-2.98.26-4.56.26s-1.58,0-3.83-.23l.04-2.56Z"/>
        <path class="cls-4" d="M347.33,20.7c.7,0,1.11-.02,1.49-.06-.04.43-.04.58-.06,1.02-.13,3.2-.21,4.09-.53,5.65-.28,1.3-.68,1.96-1.43,2.32-.43.19-.96.28-1.85.28-.66,0-1.21-.02-1.85-.04-.09-.98-.17-1.43-.45-2.36.79.13,1.58.19,2.09.19.79,0,1.04-.11,1.19-.53.36-.9.53-2.32.6-4.45h-2.45c-.58,0-.98.02-1.47.04.36-1.81.6-4.32.64-6.77.47.06.72.08,1.77.08h1.62v-2.6h-2.09c-.87,0-1.41.02-1.85.08v-2.28c.47.11,1,.13,1.98.13h2.58c.7,0,1.15-.02,1.64-.06-.06.55-.06.98-.06,1.62v3.2c0,.64.02,1.3.06,1.98-.43-.04-.83-.06-1.51-.06h-2.02q-.15,1.81-.26,2.64h2.24ZM354.21,16.57c-2.83.15-4.39.26-4.64.3l-.23-2.24c.34.04.66.06,1.11.06q.15,0,.62-.02c.98-1.62,1.49-2.73,1.96-4.11l2.45.45q-.23.47-.79,1.49c-.4.77-.66,1.21-1.26,2.11,1.58-.09,3.09-.17,4.52-.28-.49-.64-.81-1-1.66-1.96l1.77-.94c1.47,1.51,2.62,2.96,3.88,4.84l-1.85,1.28c-.4-.72-.58-.96-.85-1.41-1.17.13-1.87.19-2.9.28v1.79h2.88c.77,0,1.15-.02,1.7-.08-.08.49-.08.83-.08,1.49v3.17c0,.72,0,1.11.08,1.66-.55-.06-1.13-.08-1.77-.08h-2.81v2.51q1.15-.13,2.24-.28c-.21-.38-.38-.66-.75-1.26l1.83-.75c1.3,2.02,1.66,2.75,2.54,4.84l-2,.83c-.36-.98-.49-1.34-.75-1.87-2.6.43-6.24.92-8.8,1.17-1,.11-1.04.11-1.43.17l-.36-2.43c.28.04.43.04.64.04.87,0,2.83-.11,4.73-.26v-2.73h-2.56c-.79,0-1.26.02-1.83.08.04-.51.09-1.04.09-1.68v-3.05c0-.55-.04-1.09-.09-1.58.53.04.98.06,1.79.06h2.6v-1.64ZM351.93,20.08v2.39h2.28v-2.39h-2.28ZM356.32,22.47h2.43v-2.39h-2.43v2.39Z"/>
        <path class="cls-4" d="M366.67,21.61c0-.75,0-.96.04-2.39-.49.77-1.36,1.87-2.19,2.77-.43-1.26-.49-1.36-1.13-2.51,1.36-1.38,2.07-2.3,2.98-3.79,1.13-1.87,1.92-3.83,2.15-5.28l2.49.72c-.19.43-.28.66-.47,1.17-.49,1.36-.58,1.56-1.53,3.71v11.44c0,.87.04,1.83.13,2.73h-2.62c.11-.94.15-1.75.15-2.77v-5.79ZM375.11,26.75c0,.58.38.7,2.09.7,1.92,0,2.68-.13,2.96-.47.36-.49.49-1.32.6-3.9.83.4,1.55.66,2.3.83-.17,2.64-.47,4.05-.98,4.69-.66.81-1.83,1.04-5.28,1.04s-4.09-.36-4.09-2.3v-14.04c0-1.06-.04-1.94-.13-2.56h2.66c-.09.64-.13,1.45-.13,2.56v4.75c2.45-1.3,4.64-3.02,5.82-4.58l1.85,1.87c-.17.13-.26.21-.47.38-2.32,2.09-4.32,3.47-7.2,4.98v6.03Z"/>
      </g>
    </g>
  </g>
</svg>