<svg xmlns="http://www.w3.org/2000/svg" viewBox="0 0 118.38 118.38"><defs><style>.cls-1{fill:#fff100;}.cls-2{fill:#e60012;}</style></defs><g id="レイヤー_2" data-name="レイヤー 2"><g id="レイヤー_1-2" data-name="レイヤー 1"><polygon class="cls-1" points="113.75 73.81 117.36 70.4 115.28 65.89 118.38 62.01 115.67 57.84 118.18 53.55 114.9 49.82 116.77 45.22 112.99 41.99 114.19 37.17 109.99 34.51 110.49 29.57 105.96 27.53 105.76 22.56 100.98 21.19 100.08 16.3 95.16 15.62 93.56 10.92 88.59 10.95 86.34 6.52 81.43 7.26 78.56 3.2 73.81 4.63 70.4 1.01 65.89 3.1 62.01 0 57.84 2.71 53.55 0.2 49.82 3.48 45.22 1.6 41.99 5.38 37.17 4.19 34.51 8.38 29.57 7.88 27.53 12.41 22.56 12.62 21.19 17.39 16.3 18.3 15.62 23.22 10.92 24.81 10.95 29.78 6.52 32.04 7.26 36.95 3.2 39.81 4.63 44.57 1.01 47.98 3.1 52.48 0 56.37 2.71 60.53 0.2 64.82 3.48 68.56 1.6 73.16 5.38 76.39 4.19 81.21 8.38 83.87 7.88 88.81 12.41 90.85 12.62 95.81 17.39 97.19 18.3 102.07 23.22 102.75 24.81 107.46 29.78 107.43 32.04 111.86 36.95 111.11 39.81 115.17 44.57 113.75 47.98 117.36 52.48 115.28 56.37 118.38 60.53 115.67 64.82 118.18 68.56 114.9 73.16 116.77 76.39 112.99 81.21 114.19 83.87 109.99 88.81 110.49 90.85 105.96 95.81 105.76 97.19 100.98 102.07 100.08 102.75 95.16 107.46 93.56 107.43 88.59 111.86 86.34 111.11 81.43 115.17 78.56 113.75 73.81"/><path class="cls-2" d="M46.61,30.06c-.93.42-1.87.92-2,1.48-.27,1,2.18,1.77,3.34,2.08a24.31,24.31,0,0,0,6.49.75A28.36,28.36,0,0,0,54,37.69a28,28,0,0,1-6.33-.95C45,36,40.27,34.48,41.15,31.22a4.71,4.71,0,0,1,2.16-2.5c.26-.15,1.44-.74,1.67-.88Zm8.68-3.53A20.76,20.76,0,0,0,50,28.41a14.21,14.21,0,0,0-1.34-2.2c.27-.11,1.44-.56,1.68-.64a47.91,47.91,0,0,1-5.72-1.33l.67-3a44.86,44.86,0,0,0,4.34,1.38,26.39,26.39,0,0,0,5.13.9Zm1.46-2.2a11,11,0,0,1,1,2.26,15.41,15.41,0,0,0-1.33.83,14.8,14.8,0,0,0-1-2.33Zm1.64-1.21a17.55,17.55,0,0,1,1,2.19,6.78,6.78,0,0,0-1.35.8,16.11,16.11,0,0,0-1-2.19Z"/><path class="cls-2" d="M73.72,34.85a.3.3,0,0,1,.1.35c0,.23-.35.18-.64.11a27,27,0,0,1-3.24,3.53c.06.18.43,1.19.66,1.25s.86-1.15,1-1.41a6.43,6.43,0,0,0,1.64,2.19,7.39,7.39,0,0,1-1.75,2.38,1.4,1.4,0,0,1-1.47.39c-.48-.12-1.38-.48-2.47-3a15.8,15.8,0,0,1-3.5,1.6,5.3,5.3,0,0,0-1.76-2.41,12.9,12.9,0,0,0,4.45-2.06,19.36,19.36,0,0,1,.1-6.42l-3.94-1.05-.36,1.32,3.79,1a32.49,32.49,0,0,1-1.9,5.73c-.24.48-.94,1.75-3.18,1.15a6.49,6.49,0,0,1-.69-.24,6.89,6.89,0,0,0,0-2.14,12.12,12.12,0,0,1-2.17,3.29,9.94,9.94,0,0,0-2.35-1.83,13.28,13.28,0,0,0,2.75-4.68c.4-1.1.79-2.65,1.15-4l.78-2.9L67.3,28.8c.32-1.41.44-1.87.58-2.45l2.93.89c.13,0,.38.13.32.38s-.34.24-.53.26a14.74,14.74,0,0,0-.48,1.67l1.49.4a10.77,10.77,0,0,0-.78-1.5l2.22-.82a14.7,14.7,0,0,1,1.33,2.46c-.58.19-.77.27-1,.35l2,.52-.67,2.5L69.63,32.1a25.63,25.63,0,0,0-.2,3.35A13.49,13.49,0,0,0,71.29,33ZM61.8,34a23.12,23.12,0,0,1-.94,2.55c.17.06.34.14.6.21.44.12.89.15,1.55-2.44Z"/><path class="cls-2" d="M84.19,33.63a.33.33,0,0,1,.1.3c-.05.19-.35.16-.62.13-.74.53-1.88,1.4-2.6,1.92l1.5,0L82.46,36a15.37,15.37,0,0,0,4-4.76l2.67,1.48a.3.3,0,0,1,.17.34c0,.15-.33.2-.59.17-.18.24-.3.43-.73,1l4.51,1.21c-1.4,5.23-2.41,9-3.64,11-.73,1.2-2,1.84-5,.85A6.21,6.21,0,0,0,83.57,44a8.89,8.89,0,0,0,1.73.68,1,1,0,0,0,1.28-.51,25.59,25.59,0,0,0,1.81-5c.23-.83.37-1.49.49-2l-2.76-.75a11.63,11.63,0,0,1-1.57,1.51,9.38,9.38,0,0,0-1.35-1.41,21.52,21.52,0,0,1,0,3.48,10.59,10.59,0,0,0-2.32,0l.1-.77-.62-.09L78.52,46l-2.66-.72,1.37-5.13a1.35,1.35,0,0,1-.24.08A17.76,17.76,0,0,1,75.22,44a8.87,8.87,0,0,0-2-1.06,12.41,12.41,0,0,0,1.92-4.16l2.07.81.17.06.25-.93-1.91-.33c-.19.22-.29.34-.46.29a.31.31,0,0,1-.18-.37l.39-2.46c.28,0,1.12.24,1.47.3l1-.68A18.5,18.5,0,0,0,76,32.87l2-1.82c.18.21.29.35.41.51a21.27,21.27,0,0,0,1.92-2.14L82.46,31a.26.26,0,0,1,.11.26c0,.19-.19.22-.56.12a21.7,21.7,0,0,1-2.17,2c0,.07.22.35.26.4a15.91,15.91,0,0,0,2.14-2Zm-4.35,3.19c.24.06.93.19,1.21.25,0-.51,0-1,0-1.08Zm2.6,3.66a18.34,18.34,0,0,0-.09,3.89,11.57,11.57,0,0,0-2.38.18,20.48,20.48,0,0,1,.24-4.16Zm4.1-2.39a18.56,18.56,0,0,1,.38,4.17,13.33,13.33,0,0,0-2.82.21,20.26,20.26,0,0,0-.31-4.29Z"/><path class="cls-2" d="M35.42,41.08a2,2,0,0,0,.89.07l1.41,2.11a5.55,5.55,0,0,0-1.14,1.42c-2,3.2-4.57,7-11.72,8.36a15.08,15.08,0,0,0-1.64-3.18,15.17,15.17,0,0,0,6.28-1.92,11.41,11.41,0,0,0,3.91-4.27l-9.52-2.55.78-2.92Zm3,1.85a1.73,1.73,0,1,1,2.11-1.24A1.74,1.74,0,0,1,38.38,42.93ZM39,40.48a.8.8,0,1,0,.58,1A.8.8,0,0,0,39,40.48Z"/><path class="cls-2" d="M46,43c.17,0,.39.12.33.34s-.34.26-.5.29L43.32,53A21.22,21.22,0,0,0,53.6,49.1c.12.9.29,2.06.62,3.53a28.3,28.3,0,0,1-10.16,3.7c-.52.1-2.73.45-3.17.54l-1.51-2.59a3.89,3.89,0,0,0,.35-.89L42.78,42Z"/><path class="cls-2" d="M61,46.45l3.11,1c.23.08.36.15.31.32s-.28.23-.49.28L63,51.45l5.41.8a3.86,3.86,0,0,0,1.29-.06l1.53,2.1c-.41.31-.64.51-.81.66-3,2.83-3.19,3-4.6,4.14a16.46,16.46,0,0,0-2.33-2.18A15.12,15.12,0,0,0,66.08,55l-3.88-.53-1,3.57c-.22.8-.06,1.16,1.43,1.56a36.54,36.54,0,0,0,5.9,1.2,20.5,20.5,0,0,0-1.17,3c-1.14-.18-3.87-.91-5.09-1.24-3.64-1-5.21-1.69-4.29-5.12L59,54l-3.51-.49L56,50.43l3.78.54Zm7.91,2.12a17,17,0,0,1,1.25,2.19c-.59.24-.86.36-1.67.74a14.54,14.54,0,0,0-1.26-2.29Zm2.6,0a18.15,18.15,0,0,1,1.28,2.36,10.72,10.72,0,0,0-1.69.64,15.58,15.58,0,0,0-1.2-2.42Z"/><path class="cls-2" d="M71.49,61.9A21,21,0,0,0,86.57,56a20.09,20.09,0,0,0,1.13,3.22A25.33,25.33,0,0,1,73,65.41c-.07.18-.17.43-.42.36s-.2-.2-.23-.36Zm4.58-11.13a21.19,21.19,0,0,1,3.59,3.93,19.26,19.26,0,0,0-2.53,2.1,17.63,17.63,0,0,0-3.54-4Z"/><path class="cls-2" d="M95.14,60a28,28,0,0,1,5.12,5.49c-.63.54-2,1.73-2.53,2.25a23.38,23.38,0,0,0-4.26-5l-2.14,8-3.27-.88,4.06-15.16,3.2,1c.22.06.39.11.33.31s-.28.24-.43.27l-1.31,4.89Z"/><path class="cls-2" d="M32.81,70.27a4.28,4.28,0,0,0-3.51-4.71c-4.49-1.21-6.57,2.67-7.56,6.37-.75,2.79-1,7.4,3.39,8.58a6.07,6.07,0,0,0,3.53-.12,4.44,4.44,0,0,0,2.76-2.69L27.2,76.57l1.12-4.2L38.24,75l-3.4,12.68-4-1.08.39-2.51a9,9,0,0,1-7.93,1.18c-6.78-1.81-9.53-8-7.61-15.12C16.88,65.66,21,58,30.63,60.6c4.84,1.3,8.91,4.78,8.2,11.29Z"/><path class="cls-2" d="M59.25,89.22,58,93.91,38.92,88.8l6.32-23.59,18.7,5-1.26,4.69L49.85,71.48l-1.23,4.6,11.15,3-1.21,4.52-11.15-3-1.36,5.08Z"/><path class="cls-2" d="M73.14,98,67.27,96.4l5.06-18.9-7.8-2.09,1.25-4.7,21.48,5.76L86,81.16,78.2,79.07Z"/><path class="cls-2" d="M84.7,95.31l5.37,1.44-1.44,5.37-5.37-1.44ZM95,78.54,93.2,85.32l-3.53,8.37-3.12-.84,1.16-9,1.81-6.78Z"/></g></g></svg>