<svg xmlns="http://www.w3.org/2000/svg" viewBox="0 0 85.72 85.72"><defs><style>.cls-1{fill:#fff100;}.cls-2{fill:#e60012;}</style></defs><g id="レイヤー_2" data-name="レイヤー 2"><g id="レイヤー_1-2" data-name="レイヤー 1"><polygon class="cls-1" points="82.37 53.45 84.99 50.98 83.48 47.71 85.72 44.9 83.76 41.88 85.58 38.78 83.2 36.08 84.56 32.74 81.82 30.41 82.69 26.91 79.65 24.99 80.01 21.41 76.73 19.93 76.58 16.34 73.13 15.34 72.47 11.81 68.91 11.31 67.75 7.91 64.15 7.93 62.52 4.72 58.97 5.26 56.89 2.32 53.45 3.35 50.98 0.73 47.71 2.24 44.9 0 41.88 1.96 38.78 0.14 36.08 2.52 32.74 1.16 30.41 3.9 26.91 3.03 24.99 6.07 21.41 5.71 19.93 8.99 16.34 9.14 15.34 12.59 11.81 13.25 11.31 16.81 7.91 17.97 7.93 21.57 4.72 23.2 5.26 26.76 2.32 28.83 3.35 32.27 0.73 34.74 2.24 38.01 0 40.82 1.96 43.84 0.14 46.94 2.52 49.65 1.16 52.98 3.9 55.31 3.03 58.81 6.07 60.73 5.71 64.31 8.99 65.79 9.14 69.38 12.59 70.38 13.25 73.92 16.81 74.41 17.97 77.81 21.57 77.79 23.2 81 26.76 80.46 28.83 83.4 32.27 82.37 34.74 84.99 38.01 83.48 40.82 85.72 43.84 83.76 46.94 85.58 49.65 83.2 52.98 84.56 55.31 81.82 58.81 82.69 60.73 79.65 64.31 80.01 65.79 76.73 69.38 76.58 70.38 73.13 73.92 72.47 74.41 68.91 77.81 67.75 77.79 64.15 81 62.52 80.46 58.97 83.4 56.89 82.37 53.45"/><path class="cls-2" d="M18.56,32.07a4.79,4.79,0,0,1-2.48,0c-2.7-.72-4.23-3.37-3.4-6.49s3.49-4.65,6.19-3.93,4.23,3.41,3.4,6.5a5.8,5.8,0,0,1-2.12,3.22L21,32.92l-1.51.9Zm.37-3a5,5,0,0,0,.79-1.65c.24-.92.5-3.22-1.4-3.73s-2.85,1.71-3.07,2.54-.6,3.21,1.4,3.74a1.84,1.84,0,0,0,.81.06l-.93-1.7,1.51-.9Z"/><path class="cls-2" d="M34,26l-1.62,6c-.82,3-3.08,3.58-5.68,2.88-1.89-.51-4.32-1.84-3.39-5.31l1.62-6,2.45.66-1.65,6.17a2,2,0,0,0,1.58,2.47,2,2,0,0,0,2.58-1.35l1.65-6.18Z"/><path class="cls-2" d="M37.48,37.77c-2.7-.73-4.23-3.38-3.4-6.5s3.49-4.65,6.19-3.93,4.23,3.42,3.4,6.5S40.21,38.5,37.48,37.77Zm2.24-8.35c-1.94-.52-2.85,1.72-3.07,2.54S36.1,35.19,38,35.7s2.87-1.76,3.09-2.54S41.7,30,39.72,29.42Z"/><path class="cls-2" d="M52.45,30.76c.17.06.31.11.27.27s-.29.18-.4.19c-.11.42-.23.83-.4,1.39L56,33.71a39.74,39.74,0,0,1-2.27,6.54c-1,1.73-2.62,1.66-4.5,1.1a12.41,12.41,0,0,0,.1-2.5,3,3,0,0,0,.89.37c1,.27,1.29.12,1.69-.68a23.17,23.17,0,0,0,1.16-3.3l-1.87-.5a8.87,8.87,0,0,1-6.47,5.51,11.34,11.34,0,0,0-1.28-2.17c3.45-.61,4.59-2.22,5.38-4l-3.47-.93L46,31l3.68,1a15.49,15.49,0,0,0,.44-2Z"/><path class="cls-2" d="M67.76,39.41l-.59,2.22L56.48,38.76l.59-2.21Z"/><path class="cls-2" d="M74.1,39.64a22,22,0,0,1,3.68,4c-.45.34-1.49,1.3-1.85,1.65a16.44,16.44,0,0,0-3.09-3.67l-1.56,5.83-2.39-.64,3-11,2.36.7c.07,0,.26.08.21.26s-.23.18-.33.2l-.94,3.53Zm3.34-1.23a12.54,12.54,0,0,1,.92,1.7c-.43.16-1,.41-1.25.53a10,10,0,0,0-.9-1.7ZM79,37.83a10.64,10.64,0,0,1,.9,1.65L78.76,40a9.73,9.73,0,0,0-.92-1.7Z"/><path class="cls-2" d="M25.07,46a3.11,3.11,0,0,0-2.55-3.41c-3.25-.87-4.75,1.94-5.47,4.61-.54,2-.73,5.37,2.46,6.22a4.35,4.35,0,0,0,2.55-.09,3.18,3.18,0,0,0,2-2L21,50.59l.82-3L29,49.48l-2.46,9.18-2.91-.78.28-1.81a6.51,6.51,0,0,1-5.74.85c-4.91-1.32-6.91-5.77-5.52-11,.88-3.27,3.89-8.8,10.84-6.93,3.5.94,6.45,3.46,5.94,8.17Z"/><path class="cls-2" d="M44.22,59.75l-.92,3.4-13.81-3.7,4.58-17.09L47.61,46l-.91,3.4L37.41,46.9l-.9,3.34,8.08,2.16-.88,3.28-8.07-2.17-1,3.68Z"/><path class="cls-2" d="M54.27,66.09,50,65l3.67-13.69L48,49.75l.91-3.4L64.5,50.52l-.91,3.4L57.94,52.4Z"/><path class="cls-2" d="M62.64,64.17l3.89,1-1,3.89-3.89-1ZM70.11,52l-1.32,4.91L66.24,63,64,62.38l.84-6.51L66.14,51Z"/></g></g></svg>