<svg id="レイヤー_1" data-name="レイヤー 1" xmlns="http://www.w3.org/2000/svg" viewBox="0 0 514 45"><defs><style>.cls-1{fill:#fff;}.cls-2{fill:#004021;}</style></defs><title>btn-vs</title><rect class="cls-1" width="514" height="45" rx="5"/><path class="cls-2" d="M41.39,15.7a13.71,13.71,0,0,0-.11-2.13h2.45a14,14,0,0,0-.12,2V16.9h5.32a13.44,13.44,0,0,0,1.77-.08,14.08,14.08,0,0,0-.08,1.72v6a13.11,13.11,0,0,0,.1,1.95H48.43V25.29H43.61v4a16.5,16.5,0,0,0,.13,2.42H41.26a17.64,17.64,0,0,0,.13-2.42v-4H36.81v1.17H34.52a16.18,16.18,0,0,0,.09-1.95v-6c0-.72,0-1.08-.07-1.7a14.43,14.43,0,0,0,1.74.08h5.11ZM36.81,19v4.24h4.58V19Zm11.62,4.24V19H43.61v4.24Z"/><path class="cls-2" d="M63.52,15.31a8.56,8.56,0,0,0-.12-1.78H66a10.55,10.55,0,0,0-.12,1.78v1.47h5.38a19.16,19.16,0,0,0,2.32-.12V19a21.68,21.68,0,0,0-2.32-.12H65.83v3.37h4a12.46,12.46,0,0,0,1.74-.08A13.56,13.56,0,0,0,71.47,24v5.38a17.15,17.15,0,0,0,.11,2.17H69.25v-1H60.47v1H58.1a16.49,16.49,0,0,0,.12-2.17V24a12.25,12.25,0,0,0-.1-1.84,13.44,13.44,0,0,0,1.77.08h3.63V18.87h-5a19.58,19.58,0,0,0-2.33.12V16.66a19.34,19.34,0,0,0,2.33.12h5ZM60.47,28.5h8.74V24.29H60.47Z"/><path class="cls-2" d="M82.33,20.65c1,.86,1.61,1.39,2.4,2.17,1.07,1.1,1.07,1.1,1.21,1.22a23.16,23.16,0,0,0,2.54-2.47,25,25,0,0,0,2.37-3.19l.12-.17a.51.51,0,0,1,0-.1,8.72,8.72,0,0,1-.89,0H80.85a20.6,20.6,0,0,0-2.49.1V15.76a13.85,13.85,0,0,0,2.53.14l10.8,0a4.9,4.9,0,0,0,1.61-.16l1.36,1.55a5.88,5.88,0,0,0-.85,1.15,30.49,30.49,0,0,1-6.28,7.42c.82.93,1.56,1.87,2.57,3.26l-2,1.65a31.55,31.55,0,0,0-3.75-4.93A30.87,30.87,0,0,0,80.42,22Z"/><path class="cls-2" d="M99.64,27.69a18.26,18.26,0,0,0,5.75-1.44,13.12,13.12,0,0,0,5.77-4.8,16.29,16.29,0,0,0,2-3.91,8.57,8.57,0,0,0,2.06,1.92A17.15,17.15,0,0,1,109,27.13a21,21,0,0,1-7.4,2.93,7.94,7.94,0,0,0-1.29.33Zm1.65-12.14a27.28,27.28,0,0,1,5,3.77l-1.67,2.13a20.62,20.62,0,0,0-5-4Z"/><path class="cls-2" d="M121.51,19.24a28.24,28.24,0,0,1,5.17,2.66l-1.21,2.21a22.63,22.63,0,0,0-5.26-2.87ZM120.64,28a17.76,17.76,0,0,0,5.61-1.27,11.9,11.9,0,0,0,5.62-4.31,14.67,14.67,0,0,0,2.25-4.32,10.4,10.4,0,0,0,2,1.74,17,17,0,0,1-2.92,4.95c-2.46,2.85-5.77,4.6-10.54,5.55a11.75,11.75,0,0,0-1.36.32ZM123,14.51A31.35,31.35,0,0,1,128.17,17l-1.24,2.15a22.62,22.62,0,0,0-5.19-2.69Z"/><path class="cls-2" d="M144,30.35a11.9,11.9,0,0,0-1.75.08V28.26a8.58,8.58,0,0,0,1.75.14h7.46v-3h-6.76a11.82,11.82,0,0,0-1.75.08V23.39a8.46,8.46,0,0,0,1.75.14h6.76V20.81h-7.27a12.35,12.35,0,0,0-1.75.08V18.72a9.55,9.55,0,0,0,1.75.13h7.66a16.32,16.32,0,0,0,1.8-.08c0,.71-.06,1.2-.06,2.06v9a9.5,9.5,0,0,0,.08,1.48h-2.23v-.92Z"/><path class="cls-2" d="M161,27.69a18.25,18.25,0,0,0,5.76-1.44,13.12,13.12,0,0,0,5.77-4.8,16.66,16.66,0,0,0,2-3.91,8.57,8.57,0,0,0,2.06,1.92,17.15,17.15,0,0,1-6.16,7.67,21,21,0,0,1-7.4,2.93,7.94,7.94,0,0,0-1.29.33Zm1.66-12.14a27.28,27.28,0,0,1,5,3.77L166,21.45a20.62,20.62,0,0,0-5-4Z"/><path class="cls-2" d="M195.58,30.28a13.53,13.53,0,0,0-.62-2L190.8,17a19,19,0,0,0-1-2.33H193a13.52,13.52,0,0,0,.52,2.06l3.23,9.66c.1.24.33,1,.46,1.49.18-.59.33-1.14.45-1.49l3.23-9.66a11.62,11.62,0,0,0,.52-2.06h3.21a15.17,15.17,0,0,0-1,2.33l-4.16,11.29a11.07,11.07,0,0,0-.6,2Z"/><path class="cls-2" d="M211.44,25.42a2.8,2.8,0,0,0,.54,1.73,3.44,3.44,0,0,0,2.84,1.15c1.94,0,3.1-.88,3.1-2.35a2,2,0,0,0-1-1.8c-.58-.31-.7-.33-3.38-1A6.81,6.81,0,0,1,210.64,22a3.87,3.87,0,0,1-1.5-3.17c0-2.72,2.18-4.48,5.52-4.48,2.22,0,3.89.69,4.84,2a5.28,5.28,0,0,1,.95,2.27l-2.78.33a2.5,2.5,0,0,0-.58-1.39,3.09,3.09,0,0,0-2.43-.94c-1.69,0-2.84.86-2.84,2.13a1.85,1.85,0,0,0,1.33,1.78,15.37,15.37,0,0,0,2.73.71,8.45,8.45,0,0,1,3.17,1.19,3.87,3.87,0,0,1,1.61,3.37,4.53,4.53,0,0,1-1.22,3.32,6.39,6.39,0,0,1-4.64,1.49,7.71,7.71,0,0,1-4.08-1A4.59,4.59,0,0,1,209,27.34a6.19,6.19,0,0,1-.37-1.62Z"/><path class="cls-2" d="M235.49,17.19a16,16,0,0,0-.16-2.54c.78,0,1.24,0,2.47,0h3.51c2.43,0,4,.51,5.25,1.73a7.89,7.89,0,0,1,2.16,5.92,8.24,8.24,0,0,1-2.3,6.22,6.83,6.83,0,0,1-5.09,1.71H237.8c-1.19,0-1.67,0-2.47,0a15.39,15.39,0,0,0,.16-2.58ZM241.16,28a4.27,4.27,0,0,0,3.44-1.25A6.27,6.27,0,0,0,246,22.37a5.85,5.85,0,0,0-1.34-4.18,4.36,4.36,0,0,0-3.5-1.18h-3.11V28Z"/><path class="cls-2" d="M267.27,14.7a15.58,15.58,0,0,0-.16,2.67v6.94c0,4.05-2.39,6.32-6.62,6.32a6.66,6.66,0,0,1-5-1.84,6.29,6.29,0,0,1-1.46-4.5v-6.9a15.84,15.84,0,0,0-.16-2.69h2.9a15.11,15.11,0,0,0-.16,2.69v6.9c0,2.64,1.36,4,4,4s3.94-1.39,3.94-4.05V17.39a15.69,15.69,0,0,0-.16-2.69Z"/><path class="cls-2" d="M272.92,30.28a15.59,15.59,0,0,0,.16-2.53V17.17a17.22,17.22,0,0,0-.16-2.52c.84,0,1.44,0,2.47,0h4.06a5.51,5.51,0,0,1,4.14,1.39,4.64,4.64,0,0,1,1.2,3.37,5.08,5.08,0,0,1-1.3,3.6,5.47,5.47,0,0,1-4.14,1.41h-3.71v3.26a15.54,15.54,0,0,0,.16,2.55Zm6.43-8.06a2.45,2.45,0,0,0,2.76-2.68,2.63,2.63,0,0,0-.64-1.88,2.65,2.65,0,0,0-2.12-.71h-3.71v5.27Z"/><path class="cls-2" d="M293.73,14.67a14.59,14.59,0,0,0-.12,2l-.1,11.17a13.91,13.91,0,0,0,5.31-2.15,11.54,11.54,0,0,0,4-4.48,9.22,9.22,0,0,0,1.85,2,14.5,14.5,0,0,1-4.34,4.55,17.51,17.51,0,0,1-7.07,2.68,5.33,5.33,0,0,0-1.16.34l-1.25-1.51a6.78,6.78,0,0,0,.18-2l.08-10.56a9.22,9.22,0,0,0-.1-2Z"/><path class="cls-2" d="M310.92,19.4a30.22,30.22,0,0,1,5.17,2.66l-1.21,2.21a22.67,22.67,0,0,0-5.26-2.86ZM310,28.16a17.22,17.22,0,0,0,5.62-1.27,13.41,13.41,0,0,0,7.87-8.62,9.76,9.76,0,0,0,2,1.74c-2.41,5.92-6.51,9.13-13.47,10.5-.83.18-1,.22-1.36.33Zm2.37-13.49a31.5,31.5,0,0,1,5.17,2.52l-1.24,2.15a23.61,23.61,0,0,0-5.19-2.68Zm10.11-.4a12.92,12.92,0,0,1,2,2.88l-1.36.72a13.4,13.4,0,0,0-2-2.91Zm3,2.37a14.28,14.28,0,0,0-2-2.83l1.3-.69a11.28,11.28,0,0,1,2,2.76Z"/><path class="cls-2" d="M340.45,22.14c-.21,4.83-2,7.41-6.43,9.11a6.48,6.48,0,0,0-1.59-2.17c3.8-1.21,5.32-3.15,5.45-6.94h-4.72a16.5,16.5,0,0,0-2.46.1V19.91a12.26,12.26,0,0,0,2.5.14h11.37a12.26,12.26,0,0,0,2.5-.14v2.33a16.5,16.5,0,0,0-2.46-.1Zm2.93-4.79a15.33,15.33,0,0,0-2.46-.1h-5.79a15.57,15.57,0,0,0-2.47.1V15a12.08,12.08,0,0,0,2.5.14h5.72a11.85,11.85,0,0,0,2.5-.14Zm1.13-3.66a13.47,13.47,0,0,1,1.73,3.09l-1.46.55a14.09,14.09,0,0,0-1.71-3.13Zm2.78,2.78a14.35,14.35,0,0,0-1.67-3l1.4-.51a12.36,12.36,0,0,1,1.71,3Z"/><path class="cls-2" d="M353,27.69a18.26,18.26,0,0,0,5.75-1.44,13,13,0,0,0,5.77-4.8,16.29,16.29,0,0,0,2-3.91,8.57,8.57,0,0,0,2.06,1.92,17.15,17.15,0,0,1-6.16,7.67,21,21,0,0,1-7.4,2.93,7.49,7.49,0,0,0-1.28.33Zm1.65-12.14a26.94,26.94,0,0,1,5,3.77L358,21.45a20.58,20.58,0,0,0-5-4Z"/><path class="cls-2" d="M387.27,30.69a37,37,0,0,0-6-5.81,23.16,23.16,0,0,1-7.4,5.65,7.82,7.82,0,0,0-1.57-2.17,16.29,16.29,0,0,0,3.88-2.15,18.81,18.81,0,0,0,6.53-8l.22-.51c-.32,0-.32,0-6.44.11a14.79,14.79,0,0,0-2.11.16l-.08-2.5a9.1,9.1,0,0,0,1.71.11h.46l6.84-.09a4.08,4.08,0,0,0,1.73-.22l1.29,1.33a3.85,3.85,0,0,0-.63,1.06,25.81,25.81,0,0,1-3,5.4,29.68,29.68,0,0,1,3.6,2.83c.48.43.48.43,2.83,2.72Z"/><path class="cls-2" d="M401.53,25.48c-1.11,2.53-2.35,3.68-3.95,3.68-2.21,0-3.81-2.27-3.81-5.42a8.44,8.44,0,0,1,2.14-5.69,8.7,8.7,0,0,1,6.69-2.74c4.66,0,7.69,2.86,7.69,7.26a7.56,7.56,0,0,1-4.72,7.3,12.91,12.91,0,0,1-3.05.82,6.25,6.25,0,0,0-1.19-2.29,10.32,10.32,0,0,0,3.87-1.08,5.48,5.48,0,0,0,2.7-4.89,4.86,4.86,0,0,0-2.39-4.34,4.27,4.27,0,0,0-2-.59A28.53,28.53,0,0,1,401.53,25.48Zm-2.86-7A6.56,6.56,0,0,0,396,23.76c0,1.61.68,2.88,1.53,2.88.64,0,1.31-.82,2-2.51a26.13,26.13,0,0,0,1.62-6.61A5,5,0,0,0,398.67,18.48Z"/><path class="cls-2" d="M419,28.16c1.83-.53,2.78-.84,4.51-1.44l0,2.07c-1.52.59-2.51.94-4.86,1.68-.64.2-.64.2-2.06.59l-.41.12a7.53,7.53,0,0,0-1.07.37l-.46-2.43a12.73,12.73,0,0,0,2.13-.37V16.17a16,16,0,0,0-.11-2.19h2.43a12.82,12.82,0,0,0-.12,2.19v3.27h2.68a9.13,9.13,0,0,0,1.87-.12v2.31a9.13,9.13,0,0,0-1.87-.12H419Zm7.42.59c0,.43.25.51,1.65.51s1.83-.08,2-.35.39-1.51.41-3.93a9,9,0,0,0,2.06.86c-.13,2.91-.35,4-.91,4.65s-1.38.78-3.69.78c-1.83,0-2.47-.07-3-.35s-.71-.74-.71-1.62V16.21a14.85,14.85,0,0,0-.12-2.21h2.39a13.15,13.15,0,0,0-.12,2.21v4.27A15.6,15.6,0,0,0,431,16.9l1.51,1.8c-.29.21-.29.21-.7.54a33.4,33.4,0,0,1-5.38,3.52Z"/><path class="cls-2" d="M452.13,17.66a11.29,11.29,0,0,0,3.19,3.91,10.75,10.75,0,0,0-1.32,1.7c-.51-.47-.68-.66-1-1a19,19,0,0,1-1.87,4.44,10.7,10.7,0,0,0,4.22,2.95,9.22,9.22,0,0,0-1.13,2.05,14.25,14.25,0,0,1-4.29-3.38,13.52,13.52,0,0,1-4.35,3.38,6.27,6.27,0,0,0-1.3-1.8,11.48,11.48,0,0,0,4.45-3.16,21.56,21.56,0,0,1-1.93-4c-.23.25-.33.35-.64.66a8,8,0,0,0-1-1.06v1.37c0,1,0,1.57.06,2.12a15.91,15.91,0,0,0-1.71-.06h-1V27H444a9.29,9.29,0,0,0,1.6-.1v2a9.58,9.58,0,0,0-1.6-.1H442.5V30a13.56,13.56,0,0,0,.11,1.72h-2.13a11.46,11.46,0,0,0,.13-1.8V28.83H439a10.94,10.94,0,0,0-1.79.1v-2A10.22,10.22,0,0,0,439,27h1.59V25.74h-.87c-.88,0-1.26,0-2,.06.05-.61.07-1.29.07-2.19V20.24c0-.9,0-1.47-.07-2,.64,0,1,.06,1.92.06h.91v-1h-1.49a14.38,14.38,0,0,0-1.79.08v-2a10.5,10.5,0,0,0,1.79.1h1.49v-.24a9.18,9.18,0,0,0-.13-1.6h2.13a10.86,10.86,0,0,0-.11,1.6v.24h1.05a10.18,10.18,0,0,0,1.76-.1v2a12.79,12.79,0,0,0-1.76-.08H442.5v1h1.09a14.17,14.17,0,0,0,1.63-.06,18.79,18.79,0,0,0-.06,1.89v1.41a10.1,10.1,0,0,0,2.56-3.83l1.75.82a15.84,15.84,0,0,1-2.21,3.62l1.26-.53A10,10,0,0,0,449.9,25a11.75,11.75,0,0,0,1.18-3.56l1.79.71a14.58,14.58,0,0,1-2.39-3.66Zm-12.64,2.19v1.37h1.18V19.85Zm0,2.91v1.39h1.18V22.76Zm4.11-1.54V19.85h-1.18v1.37Zm0,2.93V22.76h-1.18v1.39ZM448.93,15a7.82,7.82,0,0,0-.1-1.47h2.29A8,8,0,0,0,451,15v.66h2a15.44,15.44,0,0,0,2-.09v2.11c-.6-.06-1.26-.1-2-.1h-5.34a13.48,13.48,0,0,0-1.93.1V15.55a11.31,11.31,0,0,0,1.93.11h1.28Z"/><path class="cls-2" d="M460,31.61a19,19,0,0,0,.12-2.55V16.64a20.55,20.55,0,0,0-.12-2.35,18.57,18.57,0,0,0,2.29.1H474.4a18.22,18.22,0,0,0,2.27-.1,20.68,20.68,0,0,0-.1,2.35V29.06a19.19,19.19,0,0,0,.12,2.55h-2.2V30.53H462.2v1.08Zm2.22-3h12.27V16.29H462.2Zm2.93-6.92-.27-.61a11.76,11.76,0,0,0-1.58-2.76l1.67-.86a14.46,14.46,0,0,1,1.91,3.37l-1.67.9a32.83,32.83,0,0,1,3.18,1.5,16.62,16.62,0,0,0,3.31-5c.15-.41.17-.45.33-1l2,.92c-.23.39-.29.51-.55,1a20.15,20.15,0,0,1-3.28,5c1.07.61,2.35,1.41,3.56,2.23l-1.25,1.88a37.05,37.05,0,0,0-3.8-2.64,17.07,17.07,0,0,1-4.43,2.89,8,8,0,0,0-1.38-1.66,15.34,15.34,0,0,0,4-2.29,29.14,29.14,0,0,0-4.12-1.78l1.11-1.68Zm3.42-.84a14.53,14.53,0,0,0-1.63-3.47l1.67-.78A15,15,0,0,1,470.28,20Z"/></svg>