<svg id="レイヤー_1" data-name="レイヤー 1" xmlns="http://www.w3.org/2000/svg" viewBox="0 0 414.8 118.61"><defs><style>.cls-1{fill:#004021;}.cls-2,.cls-3{fill:#fff;}.cls-3{stroke:#004021;stroke-miterlimit:10;stroke-width:3.61px;}.cls-4{fill:#231815;}</style></defs><rect class="cls-1" x="74.8" y="27.3" width="340" height="64" rx="28.32"/><path class="cls-2" d="M152.09,54.54a19.5,19.5,0,0,1-1.17,4,5.67,5.67,0,0,0-1.38-.77,17.37,17.37,0,0,0,1.58-7.21,4.94,4.94,0,0,0,0-.65l1.6.25c-.05.43-.07.63-.15,1.33s-.12,1.09-.2,1.64h1.8V50a10.65,10.65,0,0,0-.17-2.06h1.87a10.39,10.39,0,0,0-.15,2.06v3.12h1.15a6.16,6.16,0,0,0,1.55-.12v1.62a9.24,9.24,0,0,0-1.55-.1h-1.15v5.56c1.13-.45,1.55-.63,2.83-1.22v1.49c-1.28.6-1.68.77-2.83,1.25v6.46a22.2,22.2,0,0,0,.15,2.61H154a16.89,16.89,0,0,0,.17-2.61V62.2c-2.27.82-3.52,1.29-3.75,1.39l-.5-1.77a20.31,20.31,0,0,0,4.25-1.17V54.54Zm13-1A20.63,20.63,0,0,1,163,59a17.31,17.31,0,0,1-4.58,5.16,4.55,4.55,0,0,0-1.17-1.23,13.92,13.92,0,0,0,4.55-4.81,16.31,16.31,0,0,0,1.84-4.63h-2.24a20.62,20.62,0,0,1-2.7,4.06,4.53,4.53,0,0,0-1.28-1,15,15,0,0,0,3.08-4.64A15,15,0,0,0,161.69,48l1.75.38c-.17.4-.17.4-.67,1.79-.23.63-.43,1.15-.75,1.92h7.69a13.43,13.43,0,0,0,2.13-.1,26.28,26.28,0,0,0-.18,3.52c-.1,3.76-.3,7.26-.57,9.6-.48,4.11-1.1,5-3.55,5a19.77,19.77,0,0,1-2.82-.28,5.71,5.71,0,0,0-.45-1.74,13.67,13.67,0,0,0,3.27.49c1.07,0,1.45-.47,1.75-2.24a92.34,92.34,0,0,0,.82-12.86H169a32.08,32.08,0,0,1-1.27,4.91,24.48,24.48,0,0,1-3.9,7.15A21.79,21.79,0,0,1,159,70.05a4.23,4.23,0,0,0-1.27-1.22,20.18,20.18,0,0,0,7.17-7.63,24.65,24.65,0,0,0,2.65-7.7Z"/><path class="cls-2" d="M180.42,59.43c0-1,0-1.87.1-3a19.06,19.06,0,0,1-2.65,3.86,4.57,4.57,0,0,0-1-1.44A24.06,24.06,0,0,0,181.69,51a14.81,14.81,0,0,0,.88-3.22l1.75.52c-.13.35-.2.58-.4,1.13a36.47,36.47,0,0,1-1.9,4.66V67.71c0,1.14,0,2.07.12,2.91h-1.87a21.79,21.79,0,0,0,.15-3Zm10.82-8.6a15.16,15.16,0,0,0-.18-2.52h2a14.76,14.76,0,0,0-.18,2.52v2.79h3.65a15.81,15.81,0,0,0,2.55-.15v1.75a23,23,0,0,0-2.52-.15h-3.68V60.5h4.7a18.38,18.38,0,0,0,2.6-.15v1.77a20.68,20.68,0,0,0-2.57-.15h-4.73v6a15.47,15.47,0,0,0,.18,2.59h-2a16.12,16.12,0,0,0,.18-2.59V62h-5a18.19,18.19,0,0,0-2.6.15V60.35a17.52,17.52,0,0,0,2.6.15h5V55.07h-4.17A22.71,22.71,0,0,1,184.82,59a5,5,0,0,0-1.43-1,18.21,18.21,0,0,0,3-5.49,13.1,13.1,0,0,0,.85-3.31l1.72.5c-.15.42-.22.67-.45,1.34-.37,1.22-.55,1.7-.87,2.57h3.57Z"/><path class="cls-2" d="M227.19,60.05a23.27,23.27,0,0,0-3.3-.17h-15.4a24.35,24.35,0,0,0-3.32.17V58a21.9,21.9,0,0,0,3.32.18h15.4a21,21,0,0,0,3.3-.18Z"/><path class="cls-2" d="M238.79,66.59c-1.17,0-2.15,0-2.8.09a19.41,19.41,0,0,0,.1-2.54V60.43c0-1,0-1.65-.07-2.4.62,0,1.37.08,2.6.08h10.44a23.76,23.76,0,0,0,2.58-.1c0,.67-.08,1.24-.08,2.42v3.66a20,20,0,0,0,.1,2.59c-.67-.07-1.57-.09-2.77-.09h-2.17v1.64c0,.75.27.82,2.59.82,2.85,0,3.53-.1,3.83-.52a5.78,5.78,0,0,0,.52-2.37,4.23,4.23,0,0,0,1.48.62c-.3,1.72-.58,2.52-1,3s-1.58.65-4.5.65c-3.72,0-4.4-.27-4.4-1.75V66.59h-3.32c-1.08,2.66-3.85,4-8.25,4.13a5.83,5.83,0,0,0-.83-1.49l1.1,0c3.2,0,5.48-.94,6.38-2.66ZM240,56h2.12a13.83,13.83,0,0,0,2.13-.1v1.28a19.32,19.32,0,0,0-2.13-.1h-6.07c-.88,0-1.45,0-2.2.07,0-.6.07-1.22.07-2.24V51.08a19.13,19.13,0,0,0-.1-2.4,18.67,18.67,0,0,0,2.45.1H242a13.23,13.23,0,0,0,2.28-.12V50a18.21,18.21,0,0,0-2.13-.1H240v1.35h1.58a18.36,18.36,0,0,0,2.05-.07,9,9,0,0,0-.08,1.22v1.07a8.29,8.29,0,0,0,.08,1.22c-.5,0-1.2-.07-2.2-.07H240Zm-1.38-4.76V49.9h-3.3v1.35Zm3.58,2.34V52.27h-6.88v1.32Zm-6.88,1V56h3.33V54.62Zm2.23,5.93h12.52V59.28H237.57Zm0,2.39h12.52V61.65H237.57Zm0,2.5h12.52V64H237.57Zm9.15-13.76a14.9,14.9,0,0,1-2.05,2.46,3.89,3.89,0,0,0-1.08-1,9.44,9.44,0,0,0,3.27-5l1.5.4c-.4,1-.57,1.32-.84,1.87h5a12.24,12.24,0,0,0,2.12-.13V51.8a12.4,12.4,0,0,0-2.12-.12Zm-.8,2.54a11.77,11.77,0,0,0,2.07.12h3.65a11.86,11.86,0,0,0,2.12-.12v1.57a12.46,12.46,0,0,0-2.12-.13H248a12,12,0,0,0-2.12.13Z"/><path class="cls-2" d="M266.79,52a10.35,10.35,0,0,0,1.2-3.42l2,.35a6,6,0,0,0-.65,1.35,18.48,18.48,0,0,1-.77,1.69l.52,0A35.08,35.08,0,0,0,277,51l.15,1.7a7.73,7.73,0,0,0-1,.12,80.4,80.4,0,0,1-8.24.65A18.58,18.58,0,0,1,265.62,57c-.25.3-.75.87-.85,1a2.74,2.74,0,0,0-.33.25,0,0,0,0,1,0,0v0c0,.05,0,.05.05.07.9-.7.9-.7,1.15-.87a6.63,6.63,0,0,1,3.77-1.22,3,3,0,0,1,3.3,2.77c1.83-.73,3.25-1.25,4.35-1.65a5.61,5.61,0,0,0,1.7-.72l.8,1.74a41.34,41.34,0,0,0-6.67,2.2c.05.64.05.89.05,1.52,0,.32,0,.87,0,1.37s0,.9,0,1.12a5.43,5.43,0,0,0,.05.9l-1.7,0c.07-.55.15-2.07.15-3.59a5.48,5.48,0,0,0,0-.75c-3.4,1.6-4.7,2.77-4.7,4.27s1.55,2.37,5.08,2.37a20.8,20.8,0,0,0,6.67-1l.22,1.92c-.37,0-.5,0-1,.13a39.23,39.23,0,0,1-6.07.5c-4.47,0-6.65-1.27-6.65-3.84,0-1.37.85-2.67,2.55-3.94a19.89,19.89,0,0,1,3.73-2c-.2-1.37-.8-2-2-2-1.57,0-3.55.93-5.57,2.65a8,8,0,0,0-1.93,2.07l-1.4-1.4a24.73,24.73,0,0,0,5.6-7.13l.23-.37a3.37,3.37,0,0,1-.48,0L262,53.42h-.4a3.63,3.63,0,0,0-.55,0l0-1.72a35.88,35.88,0,0,0,5.35.27Z"/><path class="cls-2" d="M291.27,63.37c-1.4,0-2,0-2.83.07a19.06,19.06,0,0,0,.13-2.61V52.37a30.58,30.58,0,0,0-.13-3.31,21.52,21.52,0,0,0,2.68.12h10.44c1,0,1.95,0,2.68-.12a30.85,30.85,0,0,0-.13,3.31v8.46a18.52,18.52,0,0,0,.13,2.61c-.7,0-1.45-.07-2.8-.07h-2.17v4.51c0,.77.25.85,2.79.85,2.38,0,2.95-.1,3.3-.62a8.29,8.29,0,0,0,.6-3.27,7.8,7.8,0,0,0,1.58.67c-.58,4.47-.85,4.69-5.6,4.69-2.05,0-3.17-.12-3.67-.42s-.6-.6-.6-1.4v-5h-3.05a7.33,7.33,0,0,1-2.2,4.54c-1.48,1.42-3.3,2.27-6.4,2.94a5.06,5.06,0,0,0-.88-1.5,15.23,15.23,0,0,0,3.83-1,6.25,6.25,0,0,0,3.47-3.22,5.52,5.52,0,0,0,.45-1.72Zm-1.15-10h12.44V50.65H290.12Zm0,4.26h12.44V54.77H290.12Zm0,4.37h12.44V59H290.12Z"/><path class="cls-2" d="M315.89,50.2a11.19,11.19,0,0,0,2.35.15c2.08,0,5.4-.15,7.65-.32a2.61,2.61,0,0,0,1.2-.27l1.05,1.37a4.48,4.48,0,0,0-1.28,1,63,63,0,0,1-8.22,7.08l.05.08a12.74,12.74,0,0,1,6.13-1.55c4.17,0,6.84,2,6.84,5.24,0,3.89-3.62,6.46-9.17,6.46-3.52,0-5.55-1.3-5.55-3.59,0-1.67,1.55-2.92,3.63-2.92a5,5,0,0,1,4.12,2,7.06,7.06,0,0,1,1.15,2.4c2.62-.73,4-2.25,4-4.37,0-2.39-2-3.81-5.37-3.81a16.1,16.1,0,0,0-10.53,4.26l-1.12-1.59a27.85,27.85,0,0,0,3.5-2.55c2.67-2.11,6.62-5.58,8.35-7.28l.35-.34.1-.1.1-.1-.05-.05-.23,0c-.8.15-3.8.32-7.6.45a12.3,12.3,0,0,0-1.35.12Zm4.7,14.19c-1.25,0-2,.6-2,1.55a1.69,1.69,0,0,0,1,1.52,6.38,6.38,0,0,0,2.8.57,8.93,8.93,0,0,0,1.82-.17C323.64,65.59,322.39,64.39,320.59,64.39Z"/><path class="cls-2" d="M354.67,53l8.63,6.34-8.63,6.37Z"/><rect class="cls-2" x="340.01" y="58.03" width="16.85" height="2.21"/><circle class="cls-3" cx="59.3" cy="59.3" r="57.5"/><path class="cls-4" d="M19.67,59a17.82,17.82,0,0,0-2.22.11V57.62a17.72,17.72,0,0,1-2.22,1.16,13.06,13.06,0,0,0-1.34-2.16,19.8,19.8,0,0,0,4.93-2.69,17.74,17.74,0,0,0,2.24-2.13,8.76,8.76,0,0,0,1.1-1.47h2.58a14.6,14.6,0,0,0,3.63,3.6,18.09,18.09,0,0,0,5,2.59,9.69,9.69,0,0,0-1.31,2.34c-.91-.43-1.5-.75-2.42-1.28v1.49A17.54,17.54,0,0,0,27.47,59H24.6v2.3h3.3a19.45,19.45,0,0,0,2.24-.1v2.28a20.49,20.49,0,0,0-2.24-.1H24.6v2.75h5.3A21.82,21.82,0,0,0,32.48,66v2.38a18.16,18.16,0,0,0-2.56-.14H17.21a18,18,0,0,0-2.55.14V66a21.12,21.12,0,0,0,2.61.12h5.05V63.34h-3a20.64,20.64,0,0,0-2.26.1V61.16a17.29,17.29,0,0,0,2.26.1h3V59Zm7.9-2.05c.43,0,.57,0,1,0a18.31,18.31,0,0,1-5-4.63,16.3,16.3,0,0,1-4.91,4.63c.41,0,.6,0,.9,0Z"/><path class="cls-4" d="M39.75,57a6,6,0,0,1-1.54-4.14c0-4,3.38-6.55,8.74-6.55,3.79,0,6.58,1.23,7.93,3.42a6.18,6.18,0,0,1,.84,3.13,5.81,5.81,0,0,1-4.51,5.86,6.29,6.29,0,0,1,5.58,6.36c0,4.67-3.51,7.24-9.93,7.24-3.64,0-6.14-.79-7.93-2.51a6.5,6.5,0,0,1-1.82-4.7A6,6,0,0,1,39.68,60a6.83,6.83,0,0,1,3.1-1.25A6,6,0,0,1,39.75,57Zm12.62,7.77c0-2.6-2-4.17-5.42-4.17s-5.45,1.6-5.45,4.2,2,4.07,5.39,4.07S52.37,67.39,52.37,64.76Zm-10-11.47c0,2.29,1.75,3.73,4.6,3.73s4.48-1.41,4.48-3.7S49.74,49.69,47,49.69,42.41,51.1,42.41,53.29Z"/><path class="cls-4" d="M63.27,69.74a8.82,8.82,0,0,1-2.07-3.17A21.06,21.06,0,0,1,60,59.37c0-3.32.75-6.77,1.91-8.68a8.9,8.9,0,0,1,8-4.35,9.1,9.1,0,0,1,6.61,2.53A8.82,8.82,0,0,1,78.56,52a21.15,21.15,0,0,1,1.22,7.26c0,3.86-.85,7.24-2.32,9.28a8.88,8.88,0,0,1-7.61,3.69A9,9,0,0,1,63.27,69.74Zm10-2.42c1.41-1.47,2.19-4.38,2.19-8s-.78-6.48-2.19-8a4.53,4.53,0,0,0-3.41-1.31,4.2,4.2,0,0,0-3.51,1.6c-1.38,1.62-2.07,4.19-2.07,7.61s.6,6,1.6,7.45a4.59,4.59,0,0,0,4,2A4.52,4.52,0,0,0,73.26,67.32Z"/><path class="cls-4" d="M95.32,52a8.94,8.94,0,0,0-.9.27c-.77.26-1.34.4-2,.57,0,2,0,2,.08,3.38l1,0a11.69,11.69,0,0,0,2-.19l0,2.16-1.08,0c-.26,0-.61,0-.91,0l-.88,0A10.73,10.73,0,0,0,94,63a6.52,6.52,0,0,0,.3-2.55A5.78,5.78,0,0,0,96,61.81a10.53,10.53,0,0,1-.47,2.69c-.28.8-.69,1.16-1.28,1.16-.92,0-1.83-.89-2.55-2.5a16.79,16.79,0,0,1-1.14-4.87l-2.34.08v4.46A28.94,28.94,0,0,0,91,61.9l0,2a42.55,42.55,0,0,1-4.37,1.43,15.06,15.06,0,0,0-1.61.49l-.33-2.26a4,4,0,0,0,1.28-.19V53.53c0-1,0-1.37-.06-1.86a23.78,23.78,0,0,0,6.76-1.12,4.4,4.4,0,0,0,1-.48ZM85.83,66.09a10.75,10.75,0,0,0,1.57.08h5a11.92,11.92,0,0,0,1.69-.08v2.16a13.93,13.93,0,0,0-2-.1H87.74a13.61,13.61,0,0,0-1.91.1Zm4.58-9.77c0-.41,0-.74,0-.92,0-.43,0-1.14-.06-2.14-.57.1-1,.17-2.12.29V56.4Zm13.42-4.22a4.77,4.77,0,0,0-.28.71,42.92,42.92,0,0,1-2.26,5.09,8.7,8.7,0,0,1,1.89,2.84,6.77,6.77,0,0,1,.53,2.54,2.65,2.65,0,0,1-1.12,2.4,4.55,4.55,0,0,1-2.18.43c-.24,0-.33,0-1.24-.06a4.91,4.91,0,0,0-.47-2.22,7.59,7.59,0,0,0,1.42.12c1.14,0,1.45-.22,1.45-1a5.74,5.74,0,0,0-.65-2.4A9.39,9.39,0,0,0,99,58.07a28.16,28.16,0,0,0,2.1-5.26H98.35V66.36a18.21,18.21,0,0,0,.13,2.54H96.09a15,15,0,0,0,.13-2.46v-14a15.5,15.5,0,0,0-.09-1.71,14,14,0,0,0,1.65.08h3.4a8.09,8.09,0,0,0,1.61-.1Z"/></svg>