<svg id="レイヤー_1" data-name="レイヤー 1" xmlns="http://www.w3.org/2000/svg" viewBox="0 0 419 102.5"><defs><style>.cls-1,.cls-4{fill:none;stroke:#004021;}.cls-1{stroke-miterlimit:10;}.cls-2{fill:#231815;}.cls-3{fill:#fff;}.cls-4{stroke-linejoin:round;stroke-width:3px;}.cls-5{fill:#004021;}</style></defs><line class="cls-1" x1="123.68" y1="37" x2="98.5" y2="6.87"/><line class="cls-1" x1="295.32" y1="37" x2="320.5" y2="6.87"/><path class="cls-2" d="M145.89,26.85a27.8,27.8,0,0,0,.27-4.35V4.05h-1.63a31.55,31.55,0,0,0-3.49.2V0a18.85,18.85,0,0,0,3.39.2h3.12A23.94,23.94,0,0,0,151,0a50.82,50.82,0,0,0-.27,5.53V22.5a28.05,28.05,0,0,0,.27,4.35Z"/><path class="cls-2" d="M171,16.7a16.27,16.27,0,0,0-2.12.13V15.08a23.3,23.3,0,0,1-3.11,2.73,8.46,8.46,0,0,0-1.92-2.41,19,19,0,0,0,6.55-7.07,7.63,7.63,0,0,0,1-2.48l3,1.06a7,7,0,0,0-.68,1.25,27.28,27.28,0,0,1-4,6,12.69,12.69,0,0,0,1.29,0h9.16c.6,0,.95,0,1.55,0A24.75,24.75,0,0,1,177.63,8a10,10,0,0,0-.52-1l2.76-1.06a9,9,0,0,0,1,2.14,19.3,19.3,0,0,0,6.9,7.14,11.11,11.11,0,0,0-1.89,2.66,25.6,25.6,0,0,1-3.09-2.59v.84c0,5.09-.42,9-1,10.29-.54,1.08-1.44,1.43-3.66,1.43-.5,0-.89,0-2.56-.1a10.5,10.5,0,0,0-.75-2.88,21.79,21.79,0,0,0,3,.32c.93,0,1.2-.1,1.42-.47a23.61,23.61,0,0,0,.78-6.55V16.7h-4.79A13,13,0,0,1,173.22,23a14.41,14.41,0,0,1-6.32,5.41A9,9,0,0,0,165.08,26a11.83,11.83,0,0,0,3.86-2.27,9.47,9.47,0,0,0,3.26-5.61,11,11,0,0,0,.15-1.43Z"/><path class="cls-2" d="M191.68,9.27l.95,0c.45,0,.45,0,4.11-.24,1.82-.1,6.07-.32,12.72-.64a13.38,13.38,0,0,0,2.57-.2l.17,3.13a3.14,3.14,0,0,0-.52,0,11.33,11.33,0,0,0-4.93,1.33c-3.16,1.63-5,4.09-5,6.58a4.15,4.15,0,0,0,3.31,4,15.2,15.2,0,0,0,3.71.64,4.44,4.44,0,0,0,.5,0l-.45,3.35c-.32-.07-.37-.07-.85-.15a15.12,15.12,0,0,1-5.82-1.62,6.57,6.57,0,0,1-3.56-5.93,8.52,8.52,0,0,1,2.36-5.79,11.14,11.14,0,0,1,3.46-2.49c-2,.3-3.56.45-8.39.79a31.51,31.51,0,0,0-4.13.49ZM208.84,14a15.87,15.87,0,0,1,2.62,3.61l-1.75.92a16.51,16.51,0,0,0-2.61-3.67Zm3.86,3a18.48,18.48,0,0,0-2.54-3.57l1.67-.86A14.42,14.42,0,0,1,214.42,16Z"/><path class="cls-2" d="M221,19.14a18.12,18.12,0,0,0-2.67.15V16.6a14.21,14.21,0,0,0,2.67.15h16.31A14.23,14.23,0,0,0,240,16.6v2.69a18.61,18.61,0,0,0-2.64-.15h-4.58v5.61c0,.59.32.69,2.39.69,1.84,0,2.41-.15,2.59-.66a8.29,8.29,0,0,0,.22-2.09v-.42a8.83,8.83,0,0,0,2.57.76c-.1,2.46-.4,3.55-1.15,4.16s-1.74.74-4.93.74c-3.74,0-4.46-.35-4.46-2.12V19.14h-2.74A9.63,9.63,0,0,1,226,23.82c-1.22,2.11-2.81,3.2-6.82,4.72A12,12,0,0,0,217.64,26a16.7,16.7,0,0,0,3.78-1.43,5.59,5.59,0,0,0,2.94-4.11c.08-.39.1-.64.18-1.33Zm6.5-11.62a9.39,9.39,0,0,0-.15-1.8h3.06a9.13,9.13,0,0,0-.12,1.8v.59h6.89A26.6,26.6,0,0,0,240,8a12,12,0,0,0-.1,1.88v2a12.87,12.87,0,0,0,.1,1.9h-2.69V10.53H221.08V13.8h-2.72a12.77,12.77,0,0,0,.13-1.92v-2a14.08,14.08,0,0,0-.1-1.88,25.25,25.25,0,0,0,2.71.1h6.43Zm-5.61,4.78a15.1,15.1,0,0,0,2.37.12h9.76a15.54,15.54,0,0,0,2.39-.12v2.63a15.7,15.7,0,0,0-2.39-.12h-9.76a15.26,15.26,0,0,0-2.37.12Z"/><path class="cls-2" d="M248.73,9.49a29.26,29.26,0,0,0-3.42.17V6.73a31.23,31.23,0,0,0,3.39.15h12.73a22.8,22.8,0,0,0,2.71-.12l1.69,1.89c-.47.47-.54.55-1,.94a37.94,37.94,0,0,1-7.92,6.06v10c0,1.8-.92,2.41-3.69,2.41-.94,0-1.27,0-3.51-.15A11.73,11.73,0,0,0,249,25a23.18,23.18,0,0,0,3.91.37c.87,0,1.12-.12,1.12-.59V15.57a23.44,23.44,0,0,0-.12-2.46h2.21a21.59,21.59,0,0,0,5-3.62Z"/><path class="cls-2" d="M275.9,21.5c0-.51.05-.76.05-1.05s0-.27-.07-1.75l-.35-8.37c0-1.08-.13-2.32-.23-3h4.09c-.08.66-.18,1.94-.23,3l-.35,8.37c-.05,1.43-.05,1.43-.05,1.77a8.54,8.54,0,0,0,.05,1Zm-.35,5.4V23.52h3.61V26.9Z"/><path class="cls-3" d="M94.33,37H29.82A28.4,28.4,0,0,0,1.5,65.32v7.36A28.4,28.4,0,0,0,29.82,101H389.18A28.4,28.4,0,0,0,417.5,72.68V65.32A28.4,28.4,0,0,0,389.18,37h-58"/><path class="cls-4" d="M94.33,37H29.82A28.4,28.4,0,0,0,1.5,65.32v7.36A28.4,28.4,0,0,0,29.82,101H389.18A28.4,28.4,0,0,0,417.5,72.68V65.32A28.4,28.4,0,0,0,389.18,37h-58"/><path class="cls-5" d="M97.94,69a25.33,25.33,0,0,0-2.92.15V66.29a18.77,18.77,0,0,0,2.9.15h2.15a19.87,19.87,0,0,0-1.92-4.16l2.35-1.05a24.44,24.44,0,0,1,2.07,4.34l-2,.87h4V61H99a22,22,0,0,0-2.77.15V58.36a19.76,19.76,0,0,0,2.92.17h5.5v-.69a16.07,16.07,0,0,0-.12-1.92h3a10.68,10.68,0,0,0-.13,1.94v.67h5.95a17.67,17.67,0,0,0,3-.17v2.79a17.45,17.45,0,0,0-2.8-.15h-6.13v5.44h1.7a22.64,22.64,0,0,0,2.45-5l2.63.85A25.22,25.22,0,0,1,112,66.44h2.63a16.13,16.13,0,0,0,2.87-.15v2.82a24.53,24.53,0,0,0-3-.15H109a19.53,19.53,0,0,0,9,6.58,11.07,11.07,0,0,0-1.68,2.62,24.39,24.39,0,0,1-5.67-3.77,19.3,19.3,0,0,1-3.33-3.84c.08,1.35.1,1.85.1,2.37v3.52a15.49,15.49,0,0,0,.18,2.54h-3.1a15.86,15.86,0,0,0,.17-2.54V73c0-.78,0-1.25.08-2.32a18.34,18.34,0,0,1-4.15,4.68,23.31,23.31,0,0,1-4.23,2.8,12.92,12.92,0,0,0-1.7-2.5,21.93,21.93,0,0,0,6.13-4A17.92,17.92,0,0,0,103,69Z"/><path class="cls-5" d="M132.36,71.28a14.28,14.28,0,0,1-3.08,2.11,5.8,5.8,0,0,0-.95-1.32,46.12,46.12,0,0,1-5,2.62,2.5,2.5,0,0,1-.33.2,1.21,1.21,0,0,0-.25.13l-.62-2.92a18.75,18.75,0,0,0,2.82-1V64.49h-.72a12.12,12.12,0,0,0-2,.13V62a11.1,11.1,0,0,0,2,.13h.7V59a19.43,19.43,0,0,0-.15-2.76h2.9a17.23,17.23,0,0,0-.15,2.79v3.07H128a11.34,11.34,0,0,0,1.78-.1v2.61a13.87,13.87,0,0,0-1.75-.1h-.48v5.36c.68-.34.88-.47,1.68-.92v1.72a9.77,9.77,0,0,0,3-2.52h-.55a16.8,16.8,0,0,0-2.32.13v-2.5a13.71,13.71,0,0,0,2.35.13h10.93a16.62,16.62,0,0,0,2.6-.15v2.49c-.7-.07-1.5-.1-2.58-.1H135a9.06,9.06,0,0,1-.68,1h8c1.22,0,1.7,0,2.42-.08-.05.4-.07.72-.1,1.47a21.64,21.64,0,0,1-1,6.78c-.5,1.15-1.3,1.47-3.5,1.47-.68,0-1.13,0-2.11-.07a6.07,6.07,0,0,0-.67-2.29,17.87,17.87,0,0,1-4.13,2.74,6.88,6.88,0,0,0-1.8-1.9,15.17,15.17,0,0,0,4.55-2.69,10.93,10.93,0,0,0,2.6-3.31H137a15.08,15.08,0,0,1-6.92,5.46,6.19,6.19,0,0,0-1.6-1.9,13.06,13.06,0,0,0,5.8-3.56Zm.75-6.44a19,19,0,0,0-2.3.1,23.57,23.57,0,0,0,.1-2.42V58.88a20.32,20.32,0,0,0-.1-2.26,19.23,19.23,0,0,0,2.52.12h7.28a20.78,20.78,0,0,0,2.68-.12,18.94,18.94,0,0,0-.1,2.46v3.44a18.46,18.46,0,0,0,.1,2.4c-.53,0-1.28-.08-2.28-.08Zm.37-4.86h7.08v-1h-7.08Zm0,2.84h7.08v-1h-7.08Zm7.63,8.46a13.92,13.92,0,0,1-3.5,4.88,17.42,17.42,0,0,0,2.57.2c.93,0,1.21-.25,1.43-1.32a30,30,0,0,0,.43-3.76Z"/><path class="cls-5" d="M170.4,58.66A30.52,30.52,0,0,1,167.5,61c-1.53,1-2.58,1.72-3.88,2.52l1.18.77-.75.75h4.47a19.76,19.76,0,0,0,2.78-.13l1.57,1.67s-.57.73-1.62,2.12a23.37,23.37,0,0,1-4,4.12,7.81,7.81,0,0,0-2.2-1.87,16.48,16.48,0,0,0,3.63-3.39h-5.8v8.57c0,2-.83,2.6-3.91,2.6-.82,0-2.07,0-2.85-.08a10.27,10.27,0,0,0-.72-2.77,24.16,24.16,0,0,0,3.65.25c.83,0,1-.12,1-.67v-7.9h-6.63a28.91,28.91,0,0,0-3.15.14V64.92a25.18,25.18,0,0,0,3.28.15h7.73a49.9,49.9,0,0,0-5.51-3.54l1.83-1.7c1.65.9,2.2,1.25,3.68,2.17a27,27,0,0,0,4-2.57h-9.75a22.46,22.46,0,0,0-3,.13V56.79a21.1,21.1,0,0,0,3.08.15H166.7a16.1,16.1,0,0,0,2.15-.1Z"/><path class="cls-5" d="M180.78,70.28a27.51,27.51,0,0,1-1.22,7.38l-2.23-1a23.43,23.43,0,0,0,1.18-6.71Zm-3.32-3.77a6.41,6.41,0,0,0,1.07.08c.18,0,.43,0,1,0,.85-1,.95-1.17,1.45-1.82a23.57,23.57,0,0,0-3.42-3.69L179,59c.35.43.5.58.75.88a18.53,18.53,0,0,0,2.08-4l2.37,1a9.49,9.49,0,0,0-.52.9,34.27,34.27,0,0,1-2.33,3.81c.43.5.7.8,1,1.25a28.49,28.49,0,0,0,2.7-4.36l2.3,1.32a9.5,9.5,0,0,0-.82,1.14,63.71,63.71,0,0,1-4.23,5.61,28.33,28.33,0,0,0,2.85-.22,13.41,13.41,0,0,0-.72-1.7l1.87-.74a37.2,37.2,0,0,1,2,4.86l-2.1.87c-.13-.57-.18-.77-.28-1.17-.75.07-1.32.15-1.77.17v7.86a18.15,18.15,0,0,0,.15,2.66h-2.75a18.15,18.15,0,0,0,.15-2.66V68.76c-1.08.07-1.85.12-2.35.17-1.08.08-1.15.08-1.63.15Zm9.67,3.27a58.5,58.5,0,0,1,1.2,6.36l-2.27.55a60.87,60.87,0,0,0-.95-6.41Zm4.18-7.58a17.54,17.54,0,0,1-2.5,3.94,7.35,7.35,0,0,0-2-2,16.11,16.11,0,0,0,2.95-5,16.88,16.88,0,0,0,.9-3.14l2.8.49a7.88,7.88,0,0,0-.33,1c-.32,1-.42,1.32-.72,2.09h5.45a13,13,0,0,0,2-.1,32.15,32.15,0,0,0-.13,4.34c0,2.84-.3,7.18-.57,9.23-.4,2.86-.85,4.23-1.68,4.88a5.33,5.33,0,0,1-3.2.65c-.65,0-1.42,0-2.32-.1a10.3,10.3,0,0,0-.7-2.79,19.84,19.84,0,0,0,3.27.32c1.13,0,1.4-.3,1.7-1.84a68.93,68.93,0,0,0,.8-12Zm1.15,10.42a27.41,27.41,0,0,0-2.85-6.33l2.17-1.2a28.44,28.44,0,0,1,3.08,6.26Z"/><path class="cls-5" d="M213,67.44a3,3,0,1,1-3-3A3,3,0,0,1,213,67.44Z"/><path class="cls-5" d="M228.63,74.19a7.43,7.43,0,0,1-.2,2.12,2.22,2.22,0,0,1-2.31,1.45A7.81,7.81,0,0,1,221.4,76,3.68,3.68,0,0,1,220,73.17a5.35,5.35,0,0,1,2.15-3.69,13.51,13.51,0,0,1,3.65-2.12l0-3.84-1,0c-.37,0-.72,0-1.35,0l-1.37,0-.63,0c-.1,0-.3,0-.52,0l0-2.79a15.43,15.43,0,0,0,3,.22c.25,0,.52,0,.87,0,.61,0,.73,0,1,0V59.31a17.9,17.9,0,0,0-.14-2.87h3.12a15.78,15.78,0,0,0-.15,2.72v1.59a27.56,27.56,0,0,0,4.83-.94l.1,2.79-2.65.45c-.83.15-1.33.22-2.28.32v3.24a17.36,17.36,0,0,1,5.1-.7c4.18,0,7.15,2.55,7.15,6.09a5.54,5.54,0,0,1-5.67,5.68,4,4,0,0,1-4.1-2.76,8.22,8.22,0,0,1-.43-3.2,10.74,10.74,0,0,0,2.78-1.09,8.56,8.56,0,0,0-.05,1.09,4.83,4.83,0,0,0,.35,2.2,1.72,1.72,0,0,0,1.57.85A2.57,2.57,0,0,0,237.83,72c0-2.15-1.75-3.54-4.43-3.54a16,16,0,0,0-4.8.82Zm-2.83-4c-1.88,1-3,2.09-3,3,0,.42.25.8.83,1.15a3,3,0,0,0,1.6.55c.43,0,.55-.23.55-1.05Zm13.85-5a21.1,21.1,0,0,0-5-5.38L237,58.19A20.88,20.88,0,0,1,242,63.3Z"/><path class="cls-5" d="M250.09,75.79a21.2,21.2,0,0,0,.15,3.06h-2.93a22.08,22.08,0,0,0,.15-3.09V59.43a26.17,26.17,0,0,0-.1-2.81,25.23,25.23,0,0,0,2.55.09h4.43a22.87,22.87,0,0,0,2.55-.09c-.05.79-.08,1.37-.08,2.34v4.11c0,1.12,0,1.7.08,2.25-.6,0-1.48-.08-2.3-.08h-4.5Zm0-15.73h4.27v-1.3h-4.27Zm0,3.24h4.27V62h-4.27Zm12.65,9.87a16,16,0,0,0,.07,1.7,17.63,17.63,0,0,0-1.77-.08h-5.58v1.67h-2.65a20.88,20.88,0,0,0,.13-2.42V68.71c0-.68,0-1.22-.08-1.75.55.05,1.13.08,1.85.08h6.18c.77,0,1.4,0,1.92-.08a16.63,16.63,0,0,0-.07,1.72Zm-7.28-.65h4.75V69.26h-4.75Zm12.9,3.27c0,1.37-.22,2-.87,2.42a5.12,5.12,0,0,1-2.63.4c-.4,0-.67,0-2.32-.1a8.92,8.92,0,0,0-.7-2.65,28,28,0,0,0,3.07.23c.7,0,.83-.1.83-.65V65.24h-4.83c-.82,0-1.72,0-2.27.08,0-.68.05-1.18.05-2.25V59c0-1,0-1.62-.08-2.34a24.26,24.26,0,0,0,2.55.09h4.75c1.2,0,1.8,0,2.58-.09a21.72,21.72,0,0,0-.13,2.79Zm-7.2-15.73h4.58v-1.3h-4.58Zm0,3.24h4.58V62h-4.58Z"/><path class="cls-5" d="M279,64.22a25,25,0,0,1-4,2.09,10,10,0,0,0-1.45-2.54,24.92,24.92,0,0,0,6.37-3.59A17.53,17.53,0,0,0,283.8,56h3A16.59,16.59,0,0,0,291,60.23a23.6,23.6,0,0,0,6.37,3.42A13,13,0,0,0,296,66.39a24.35,24.35,0,0,1-4.08-2.2v1.75a17.21,17.21,0,0,0-2.25-.1H281.1a17.74,17.74,0,0,0-2.15.1Zm-2,14.58a19.72,19.72,0,0,0,.15-2.64V70.35a24.1,24.1,0,0,0-.12-2.47,15,15,0,0,0,2.15.1h12.5a15.7,15.7,0,0,0,2.18-.1,16.91,16.91,0,0,0-.13,2.47v5.84a16,16,0,0,0,.15,2.61h-3V77.53H279.9V78.8Zm3-3.71h10.93V70.4H279.9Zm9.73-11.84h.85a23,23,0,0,1-5.16-4.86,17.58,17.58,0,0,1-4.9,4.86h9.21Z"/><path class="cls-5" d="M321.56,77l-1.12.12c-1.83.2-5.13.37-6.78.37-4.67,0-6.7-.89-7.45-3.29-.35-1.12-.45-2.52-.45-6.8,0-.38,0-.48,0-2.42a33.93,33.93,0,0,0-4.63.45L301,62.5c.35,0,.6,0,.72,0s1.6-.07,4.08-.22c0-.4,0-.62,0-.77a24.3,24.3,0,0,0-.18-4.24H309a28.64,28.64,0,0,0-.22,4.86L316,61.8c0-4,0-4-.15-4.94h3.13a11.45,11.45,0,0,0-.13,1.72V61.7a47.28,47.28,0,0,0,4.85-.22l0,3a9.32,9.32,0,0,0-1.42-.07l-3.48,0a15.8,15.8,0,0,1-.65,5.29,3,3,0,0,1-3.05,1.87,8.19,8.19,0,0,1-3.57-.85c0-.5,0-.65,0-1a13.81,13.81,0,0,0-.17-2,7.78,7.78,0,0,0,3.27,1.22c.65,0,.93-.32,1.08-1.29a21.79,21.79,0,0,0,.22-3.12c-3.8.15-3.8.15-7.27.35v.67c0,.13,0,.13,0,1.45v.52c0,1.3.08,4,.13,4.51.2,2.1,1.27,2.62,5.35,2.62a20.28,20.28,0,0,0,7.22-1Z"/></svg>