<svg id="レイヤー_1" data-name="レイヤー 1" xmlns="http://www.w3.org/2000/svg" viewBox="0 0 496.77 32.32"><defs><style>.cls-1{fill:none;stroke:#004021;stroke-miterlimit:10;}.cls-2{fill:#231815;}</style></defs><line class="cls-1" x1="25.61" y1="32" x2="0.38" y2="2"/><line class="cls-1" x1="471.15" y1="32" x2="496.38" y2="2"/><path class="cls-2" d="M54.76,21.77a16.91,16.91,0,0,0-4.62-3.36,10.16,10.16,0,0,0-1.34-.61v.27a3.78,3.78,0,0,1-1.4,3.3,6.69,6.69,0,0,1-4.12,1.06c-3.64,0-5.74-1.4-5.74-3.83,0-2.67,2.47-4.24,6.66-4.24a14.12,14.12,0,0,1,1.68.1,4,4,0,0,0,0-.59v-.54c0-.34,0-.34-.05-1.32-1.2,0-2,.05-2.49.05-1.53,0-2.45,0-4.52-.17-.33,0-.58,0-.95,0l0-2.64a33.31,33.31,0,0,0,5.81.41c.5,0,1.35,0,2-.05,0-.22,0-1.05,0-2.45-.79,0-1.19,0-1.57,0-1.22,0-4.44-.13-6.11-.25-.27,0-.47,0-.55,0h-.4l0-2.72a34.08,34.08,0,0,0,6.71.51c.4,0,1.25,0,1.87,0a17,17,0,0,0-.12-3.09h3.16a16.05,16.05,0,0,0-.17,3,33.81,33.81,0,0,0,7.19-.93l.12,2.72a18.65,18.65,0,0,0-2,.22c-2.2.3-3.17.37-5.36.49,0,.62,0,.91.05,2.43,1.24-.07,1.24-.07,3.54-.32a17.5,17.5,0,0,0,3.09-.54l.08,2.7c-.43,0-1.05.1-1.62.17-.38,0-1.5.17-3.37.34l-1.7.1c.07,2.38.07,2.38.1,3a22.59,22.59,0,0,1,6.84,3.45c.42.27.55.37.9.57Zm-10.91-5c-2,0-3.24.64-3.24,1.69S41.68,20,43.45,20a2.63,2.63,0,0,0,2.18-.78,3.09,3.09,0,0,0,.29-1.57V17A9,9,0,0,0,43.85,16.79Z"/><path class="cls-2" d="M75.85,1.94a18.7,18.7,0,0,0-.12,2.89c1.09,0,2.24,0,3.44,0A15,15,0,0,0,76.9,1.27L78.7.49A15.89,15.89,0,0,1,81,4.09l-1.57.71c.52,0,.57,0,1.12,0a21,21,0,0,0,2.4-.1L83,7.5c-.9-.07-2.24-.12-4.17-.12l-3,0v4.29a7.34,7.34,0,0,1,.8,3.46,7.85,7.85,0,0,1-3.72,6.64,18.6,18.6,0,0,1-4.52,2A8.43,8.43,0,0,0,66.54,21c4.07-.69,6.74-2.55,7.14-5A4.15,4.15,0,0,1,70,17.75a4.54,4.54,0,0,1-2.87-.89,3.81,3.81,0,0,1-1.72-3.31c0-2.59,2.07-4.46,4.94-4.46a4.17,4.17,0,0,1,2.6.74.35.35,0,0,1,0-.15V9.54c0-.67,0-1.35,0-2.09-3,.07-5.14.15-6.37.22a46.66,46.66,0,0,0-5.09.42l-.1-2.94a11,11,0,0,0,1.23,0c.62,0,1,0,4.24-.13l6-.14,0-1.55a6.84,6.84,0,0,0-.12-1.44ZM68.34,13.33a2,2,0,0,0,2.12,1.92A2.26,2.26,0,0,0,72.88,13a1.35,1.35,0,0,0-.47-1.1,2.54,2.54,0,0,0-1.62-.59C69.36,11.35,68.34,12.18,68.34,13.33ZM82.81,4.26A16.59,16.59,0,0,0,80.59.76L82.26,0a15.76,15.76,0,0,1,2.3,3.38Z"/><path class="cls-2" d="M90.21,22.4c0-.24,0-.39-.13-.95a46.11,46.11,0,0,1-.67-7.8,43.59,43.59,0,0,1,.47-6.49c.13-.74.13-.74.67-3.51a12.55,12.55,0,0,0,.28-1.81v-.1l3.37.34c-1,2.14-2,8-2,12.31,0,.88,0,.88,0,1.27v.4a3.4,3.4,0,0,1,0,.51h0c.12-.27.12-.27.3-.71,0-.17.17-.44.3-.83l.47-1.11a4.65,4.65,0,0,0,.3-.76l2.07.91c-1.47,2.84-2.47,5.88-2.47,7.5a4.66,4.66,0,0,0,0,.66Zm5.63-16a18.62,18.62,0,0,0,4.52.39c.87,0,1.42,0,2.3,0,0-1.44,0-2.67,0-3.68a6.82,6.82,0,0,0-.07-1.17l3.12-.07a22.6,22.6,0,0,0-.18,3.6V6.5a26.71,26.71,0,0,0,3.37-.59l.55-.2.2,0,.1,2.77a6.52,6.52,0,0,0-.73.12c-.84.18-2.14.4-3.46.54v.54c0,1.38,0,1.42.25,5.54a20.45,20.45,0,0,1,3.91,2.23,4.93,4.93,0,0,0,.7.42l-1.2,3a9.11,9.11,0,0,0-1.87-1.57l-1.57-1v.35a4.13,4.13,0,0,1-.2,1.37c-.57,1.44-2.32,2.3-4.74,2.3-3.27,0-5.26-1.52-5.26-4s2.12-4,5.14-4a6.17,6.17,0,0,1,2.22.34c-.08-.61-.1-1.81-.2-5.22-1,0-1.6.05-2.25.05-.92,0-1.92,0-3.09-.12-.35,0-.63,0-.75,0l-.43,0a.94.94,0,0,0-.25,0,.4.4,0,0,0-.15,0Zm5.07,10.27c-1.6,0-2.59.61-2.59,1.62s.89,1.52,2.29,1.52a2.47,2.47,0,0,0,2-.76,2,2,0,0,0,.33-1.33V17A5.42,5.42,0,0,0,100.91,16.62Z"/><path class="cls-2" d="M123.72,18.83a7.16,7.16,0,0,1-.2,2.08,2.18,2.18,0,0,1-2.29,1.42,7.9,7.9,0,0,1-4.72-1.74,3.58,3.58,0,0,1-1.37-2.77,5.2,5.2,0,0,1,2.15-3.63,13.3,13.3,0,0,1,3.64-2.08l0-3.78-1,.05c-.37,0-.72,0-1.35,0l-1.37,0-.62,0c-.1,0-.3,0-.53,0l0-2.74a16.13,16.13,0,0,0,3,.22c.25,0,.52,0,.87,0l1,0V4.19a17,17,0,0,0-.15-2.82h3.12A14.34,14.34,0,0,0,123.7,4V5.61a28.34,28.34,0,0,0,4.81-.93l.1,2.75c-.45.07-.92.14-2.64.44-.82.15-1.32.22-2.27.32v3.18a17.62,17.62,0,0,1,5.09-.68c4.17,0,7.14,2.5,7.14,6a5.5,5.5,0,0,1-5.67,5.59,4,4,0,0,1-4.09-2.72,8,8,0,0,1-.43-3.14,10.52,10.52,0,0,0,2.77-1.08,8.41,8.41,0,0,0,0,1.08,4.67,4.67,0,0,0,.35,2.16,1.76,1.76,0,0,0,1.58.83,2.54,2.54,0,0,0,2.52-2.72c0-2.11-1.75-3.48-4.42-3.48a16.18,16.18,0,0,0-4.79.81Zm-2.82-3.95c-1.87,1-3,2.06-3,2.94,0,.42.25.78.83,1.13a3.06,3.06,0,0,0,1.6.54c.42,0,.54-.22.54-1Zm13.83-5a21.08,21.08,0,0,0-5-5.3l2.34-1.54a20.9,20.9,0,0,1,4.94,5Z"/><path class="cls-2" d="M147,5.22a22.89,22.89,0,0,1-3.72,4.27,10.36,10.36,0,0,0-1.94-1.92A17.72,17.72,0,0,0,145.81,2a4.23,4.23,0,0,0,.55-1.54l3,.44c-.23.42-.23.42-.88,1.72H160a21,21,0,0,0,3.12-.17V5.37A26,26,0,0,0,160,5.22Zm8.36,17.65A56,56,0,0,0,151,19.09a30.55,30.55,0,0,1-7.21,4.42,9.6,9.6,0,0,0-1.87-2.31,28.23,28.23,0,0,0,6.91-3.72,42.17,42.17,0,0,0-4.34-2.8L146.29,13c1.82,1,2.64,1.54,4.41,2.72a8.65,8.65,0,0,0,2.17-3.14l2.68,1.25c-.25.27-.53.64-1.08,1.38a21.84,21.84,0,0,1-1.62,2c1.52,1.18,2.77,2.18,4.34,3.56Zm-9.68-10.52a21,21,0,0,0-2.87.15V9.93a13.46,13.46,0,0,0,2.15.12h12.67a26.76,26.76,0,0,0,2.92-.1,16.49,16.49,0,0,0-.12,2.23,24.15,24.15,0,0,0,.69,6.3,3.1,3.1,0,0,0,.88,1.67c.35-.47.52-1.62.6-3.63A7.4,7.4,0,0,0,164.7,18c-.4,3.85-1.17,5.42-2.69,5.42-1.12,0-2.4-1.28-3.1-3.14a22.44,22.44,0,0,1-1.14-7.92Zm.6-6a15.58,15.58,0,0,0,1.87.1h10.45a22.21,22.21,0,0,0,2.65-.12V8.73a18.52,18.52,0,0,0-2.65-.13h-9.95a21.77,21.77,0,0,0-2.37.1Z"/><path class="cls-2" d="M175.84,21.15a15,15,0,0,0,.15,2.36h-2.7a17,17,0,0,0,.15-2.48V19.76h-2a12.7,12.7,0,0,0-2.34.14V17.43a14.61,14.61,0,0,0,2.34.12h2V16.1h-1.1c-1.09,0-1.67,0-2.54.08.08-.84.1-1.64.1-2.82V9.49a24.15,24.15,0,0,0-.1-2.65c.7,0,1.27.07,2.54.07h1.1V5.37H171.6a19.94,19.94,0,0,0-2.35.1V3a12.17,12.17,0,0,0,2.35.15h1.84a11.09,11.09,0,0,0-.15-2.33H176a10.23,10.23,0,0,0-.15,2.33h1.07A12.43,12.43,0,0,0,179.26,3V5.47a17.79,17.79,0,0,0-2.35-.1h-1.07V6.91h1.37c1.22,0,1.67,0,2.27-.07,0,.64-.07,1.1-.07,2.5v1.37a17.65,17.65,0,0,0,4.39-2.18,15,15,0,0,1-2.87-4.19,8.88,8.88,0,0,0-1.1.07V1.81a15.81,15.81,0,0,0,2.52.15h5.54a8.68,8.68,0,0,0,1.85-.12l1.49,1.54c-.2.32-.35.52-.62,1a18.93,18.93,0,0,1-3.24,4.21,14.83,14.83,0,0,0,4.94,2,7.77,7.77,0,0,0-1.4,2.33,19.54,19.54,0,0,1-5.34-2.77A22.43,22.43,0,0,1,180.63,13a6.06,6.06,0,0,0-1.22-1.87v2.36c0,1.2,0,2,.07,2.72-.62-.05-1.1-.08-2.32-.08h-1.32v1.45h2.09a11.88,11.88,0,0,0,2-.1V19.9a11,11,0,0,0-2.1-.14h-2ZM172,9v1.56h1.5V9Zm0,3.35v1.75h1.5V12.3Zm5.32-1.79V9h-1.58v1.56Zm0,3.54V12.3h-1.58v1.75Zm11.67.61a12.58,12.58,0,0,0,2.17-.12v2.59A15.49,15.49,0,0,0,189,17h-2.32v3.31h2.8a22.5,22.5,0,0,0,2.49-.12v2.67a14.39,14.39,0,0,0-2.49-.15H181.3a15,15,0,0,0-2.54.15V20.2a15.77,15.77,0,0,0,2.39.12h2.9V17h-1.6a16.75,16.75,0,0,0-2.32.12V14.54a15.92,15.92,0,0,0,2.37.12h1.55v-.61a13.91,13.91,0,0,0-.13-2.36h2.85a13.77,13.77,0,0,0-.13,2.36v.61ZM183.45,4.31a11.11,11.11,0,0,0,2.09,2.82,8.87,8.87,0,0,0,2.15-2.82Z"/><path class="cls-2" d="M198.38,22.26c0-.44,0-.59-.13-1.16a42.33,42.33,0,0,1-.65-7.32,45.87,45.87,0,0,1,1-9.59A16.23,16.23,0,0,0,199,1.91l3.29.35a33.79,33.79,0,0,0-1.57,7.32,39.47,39.47,0,0,0-.37,5.42c0,.54,0,.74,0,1.35a23.28,23.28,0,0,1,1.3-3.24l2,.89a19.85,19.85,0,0,0-2.22,7.42,6.46,6.46,0,0,0,0,.67ZM209,12.57c-1.25,1.43-1.77,2.48-1.77,3.53,0,1.4,1.37,2.14,4,2.14a18,18,0,0,0,5.94-.93l.25,3.11a7.32,7.32,0,0,0-1,.15,32.29,32.29,0,0,1-5.17.46c-3.09,0-5.09-.68-6.19-2.13a4.07,4.07,0,0,1-.74-2.4,7.89,7.89,0,0,1,2.29-5.05Zm-4.12-8.11a18,18,0,0,0,4.62.39,28,28,0,0,0,6.78-.66l.15,3-1.77.22a46.88,46.88,0,0,1-5.34.29,30.13,30.13,0,0,1-4.49-.27Z"/><path class="cls-2" d="M231.2,18.83a7.16,7.16,0,0,1-.2,2.08,2.2,2.2,0,0,1-2.3,1.42A7.85,7.85,0,0,1,224,20.59a3.59,3.59,0,0,1-1.38-2.77,5.24,5.24,0,0,1,2.15-3.63,13.61,13.61,0,0,1,3.64-2.08l0-3.78-1,.05c-.37,0-.72,0-1.34,0l-1.38,0-.62,0c-.1,0-.3,0-.52,0l0-2.74a16.21,16.21,0,0,0,3,.22c.25,0,.52,0,.87,0l1,0V4.19a16,16,0,0,0-.15-2.82h3.12A15.27,15.27,0,0,0,231.17,4V5.61A28.47,28.47,0,0,0,236,4.68l.1,2.75c-.45.07-.93.14-2.65.44-.82.15-1.32.22-2.27.32v3.18a17.62,17.62,0,0,1,5.09-.68c4.17,0,7.14,2.5,7.14,6a5.5,5.5,0,0,1-5.67,5.59,4,4,0,0,1-4.09-2.72,8.2,8.2,0,0,1-.42-3.14A10.8,10.8,0,0,0,236,15.32a8.41,8.41,0,0,0-.05,1.08,4.67,4.67,0,0,0,.35,2.16,1.73,1.73,0,0,0,1.57.83,2.54,2.54,0,0,0,2.52-2.72c0-2.11-1.75-3.48-4.42-3.48a16.23,16.23,0,0,0-4.79.81Zm-2.82-3.95c-1.87,1-3,2.06-3,2.94,0,.42.25.78.82,1.13a3.06,3.06,0,0,0,1.6.54c.42,0,.55-.22.55-1Zm13.82-5a21.08,21.08,0,0,0-5-5.3l2.35-1.54a21.09,21.09,0,0,1,4.94,5Z"/><path class="cls-2" d="M252.61,20.39a20.73,20.73,0,0,0,.15,3h-2.92a21.54,21.54,0,0,0,.15-3V4.31a25.57,25.57,0,0,0-.1-2.77,22.2,22.2,0,0,0,2.55.1h4.41a20.07,20.07,0,0,0,2.55-.1c0,.79-.07,1.35-.07,2.31v4c0,1.11,0,1.67.07,2.21-.6,0-1.47-.08-2.3-.08h-4.49Zm0-15.46h4.27V3.65h-4.27Zm0,3.18h4.27V6.81h-4.27Zm12.63,9.71a15.35,15.35,0,0,0,.07,1.67,17.48,17.48,0,0,0-1.77-.08H258v1.65h-2.65a20.28,20.28,0,0,0,.13-2.38V13.43a17.09,17.09,0,0,0-.08-1.71c.55,0,1.13.07,1.85.07h6.16c.78,0,1.4,0,1.92-.07a16,16,0,0,0-.07,1.69ZM258,17.18h4.74V14H258Zm12.87,3.21c0,1.35-.22,2-.87,2.38a5.22,5.22,0,0,1-2.62.39c-.4,0-.67,0-2.32-.1a8.23,8.23,0,0,0-.7-2.59,30.5,30.5,0,0,0,3.07.22c.7,0,.82-.1.82-.64V10h-4.81c-.83,0-1.72,0-2.27.08,0-.66.05-1.15.05-2.21v-4c0-.93,0-1.59-.08-2.31a21.37,21.37,0,0,0,2.55.1h4.74a22.48,22.48,0,0,0,2.57-.1,21.14,21.14,0,0,0-.13,2.75ZM263.67,4.93h4.56V3.65h-4.56Zm0,3.18h4.56V6.81h-4.56Z"/><path class="cls-2" d="M280.79,3.48a28.91,28.91,0,0,0-.2,3.73,44.33,44.33,0,0,0,.48,6.57c.42,2.54,1.22,4.11,2,4.11.37,0,.72-.36,1-1.05a17.48,17.48,0,0,0,1.32-4.44,12.47,12.47,0,0,0,2.5,2.23c-1.3,4.78-2.75,6.77-4.87,6.77-1.67,0-3-1.2-4-3.56s-1.48-6-1.58-12.79a10.07,10.07,0,0,0-.1-1.57Zm11.8,1.1a24.2,24.2,0,0,1,5.62,13.19l-3.09,1.15a24.6,24.6,0,0,0-1.6-7.08,21.25,21.25,0,0,0-3.55-6Z"/><path class="cls-2" d="M307.7,9a25.64,25.64,0,0,1-4,2.06,9.46,9.46,0,0,0-1.44-2.5,25,25,0,0,0,6.36-3.53A17.25,17.25,0,0,0,312.54,1h3A16.16,16.16,0,0,0,319.7,5.1a24.14,24.14,0,0,0,6.36,3.36,12.83,12.83,0,0,0-1.37,2.69A24.49,24.49,0,0,1,320.62,9v1.71a19,19,0,0,0-2.24-.1h-8.54a19.85,19.85,0,0,0-2.14.1Zm-2,14.34a19.29,19.29,0,0,0,.15-2.6V15.05a20.55,20.55,0,0,0-.13-2.43,15,15,0,0,0,2.15.1h12.47a15.45,15.45,0,0,0,2.17-.1,16.6,16.6,0,0,0-.12,2.43v5.74a14.53,14.53,0,0,0,.15,2.57h-3V22.11h-10.9v1.25Zm3-3.65h10.9V15.1h-10.9Zm9.7-11.65h.85a22.21,22.21,0,0,1-5.14-4.78,17.16,17.16,0,0,1-4.89,4.78h9.18Z"/><path class="cls-2" d="M350.22,21.57l-1.12.12c-1.82.2-5.12.37-6.76.37-4.67,0-6.69-.88-7.44-3.23-.35-1.11-.45-2.48-.45-6.7,0-.36,0-.46,0-2.37a33,33,0,0,0-4.62.44l-.2-2.87c.35,0,.6,0,.73,0s1.59-.07,4.06-.22c0-.39,0-.61,0-.76a23.38,23.38,0,0,0-.18-4.16h3.35A28.1,28.1,0,0,0,337.42,7c3.5-.18,3.5-.18,7.21-.35,0-3.9,0-3.9-.15-4.85h3.12a10.86,10.86,0,0,0-.12,1.69V6.54a47.18,47.18,0,0,0,4.84-.22l.05,2.92A9.32,9.32,0,0,0,351,9.17l-3.47,0a15.51,15.51,0,0,1-.65,5.2,3.05,3.05,0,0,1-3,1.84,8.25,8.25,0,0,1-3.57-.84c0-.49,0-.63,0-1a13.35,13.35,0,0,0-.17-2,7.83,7.83,0,0,0,3.27,1.2c.64,0,.92-.32,1.07-1.27a20.86,20.86,0,0,0,.22-3.07c-3.79.15-3.79.15-7.26.35v.66c0,.12,0,.12,0,1.42v.52c0,1.27.07,3.94.12,4.43.2,2.06,1.27,2.58,5.34,2.58a20.77,20.77,0,0,0,7.21-.93Z"/><path class="cls-2" d="M371.69,3.31A35.84,35.84,0,0,0,368.62,6c-1.27,1.16-3,2.53-5.94,4.71-.77.57-.95.76-.95,1s0,.42,2.25,2a84.68,84.68,0,0,1,7.86,6.39,6.59,6.59,0,0,0,.72.62L370,23.34A23.58,23.58,0,0,0,366.75,20a78.44,78.44,0,0,0-6.44-5.22c-1.65-1.25-2.1-1.92-2.1-3a2.85,2.85,0,0,1,.83-2A15,15,0,0,1,361.23,8,55.52,55.52,0,0,0,367,3.19a12.08,12.08,0,0,0,1.82-2Z"/><path class="cls-2" d="M379.53,5.44a19.92,19.92,0,0,0,3.34.22c.3,0,.58,0,1.15,0a28.65,28.65,0,0,0,.48-3.75,2.66,2.66,0,0,0,0-.44l3.3.29a15.27,15.27,0,0,0-.4,1.91c-.05.3-.1.64-.18,1.08,0,.12-.07.32-.15.76a23.7,23.7,0,0,0,4.27-.73l.12,2.81a.89.89,0,0,1-.22,0l-.58.1a35,35,0,0,1-4.09.51,80.19,80.19,0,0,1-4.34,14.44l-3.14-1.2a52.44,52.44,0,0,0,4.46-13.14h-.25l-.54,0H381c-.35,0-.8,0-1,0a3.18,3.18,0,0,0-.48,0Zm12.38,9.49c-1,1.25-1.3,1.84-1.3,2.72,0,1.25,1.25,1.89,3.74,1.89a19.63,19.63,0,0,0,5.67-.91l.22,3c-.45.05-.57.07-1.22.17a27.12,27.12,0,0,1-4.64.42,10.33,10.33,0,0,1-5-1,3.55,3.55,0,0,1-1.77-3c0-1.3.47-2.4,1.85-4.26Zm7.41-3.21a25.06,25.06,0,0,0-3.15-.17,26.35,26.35,0,0,0-6.58.73l-.23-2.72a32.6,32.6,0,0,1,7.44-.79c.75,0,1.32,0,2.47,0ZM395.2,2.11a15.81,15.81,0,0,1,2.62,3.6l-1.75.91A16.1,16.1,0,0,0,393.45,3Zm3.87,3a18,18,0,0,0-2.55-3.55L398.2.66a14.17,14.17,0,0,1,2.59,3.46Z"/><path class="cls-2" d="M406.29,6a18.64,18.64,0,0,0,2.42.12c1.87,0,5.19-.22,6.73-.42C415,4.58,414,2,413.82,1.79L417,1.37a20.13,20.13,0,0,0,1.37,3.92,38.87,38.87,0,0,0,6.12-1.44l.35,2.92c-.65.09-.93.17-1.78.34-.37.1-1.59.34-3.66.73.89,1.65,1.47,2.67,1.72,3.12.67,1.12,1.77,2.72,2.64,3.87l-2.89,1.3a4.58,4.58,0,0,0-1.72-1.06,13,13,0,0,0-3.95-.56c-3.39,0-5.39,1-5.39,2.75,0,1.59,1.85,2.47,5.24,2.47a17.63,17.63,0,0,0,7.51-1.64l.4,3.14a26.17,26.17,0,0,1-7.91,1.32c-3.19,0-5.66-.66-6.93-1.86a4.55,4.55,0,0,1-1.47-3.31,4.71,4.71,0,0,1,1.79-3.65c1.45-1.2,3.52-1.77,6.36-1.77a11.78,11.78,0,0,1,4.32.74,27.37,27.37,0,0,1-2.69-4.46c-2.2.29-5.89.53-8.86.58a10.13,10.13,0,0,0-1.1.08Z"/><path class="cls-2" d="M434.66,3.48a28.91,28.91,0,0,0-.2,3.73,44.33,44.33,0,0,0,.48,6.57c.42,2.54,1.22,4.11,2,4.11.37,0,.72-.36,1-1.05a17.48,17.48,0,0,0,1.32-4.44,12.47,12.47,0,0,0,2.5,2.23c-1.3,4.78-2.74,6.77-4.87,6.77-1.67,0-3-1.2-4-3.56s-1.48-6-1.57-12.79a13.39,13.39,0,0,0-.1-1.57Zm11.81,1.1a24.26,24.26,0,0,1,5.61,13.19L449,18.92a24.6,24.6,0,0,0-1.6-7.08,21.46,21.46,0,0,0-3.54-6Z"/><path class="cls-2" d="M458.28,16.42c0-.51.05-.76.05-1.05s0-.27-.08-1.77l-.35-8.33c0-1.08-.12-2.3-.22-3h4.09c-.08.66-.17,1.94-.22,3l-.35,8.33c-.05,1.45-.05,1.45-.05,1.79a8.54,8.54,0,0,0,.05,1Zm-.35,5.37V18.43h3.62v3.36Z"/></svg>