<svg id="レイヤー_1" data-name="レイヤー 1" xmlns="http://www.w3.org/2000/svg" viewBox="0 0 123.22 123.22"><defs><style>.cls-1{fill:#d2a547;}.cls-2{fill:#fff;}</style></defs><title>icon-kokogachigau</title><polygon class="cls-1" points="117.94 61.61 123.22 58.92 117.73 56.69 122.75 53.56 117.09 51.82 121.83 48.26 116.04 47.02 120.44 43.06 114.56 42.33 118.59 38 112.68 37.8 116.32 33.13 110.4 33.44 113.62 28.47 107.76 29.29 110.53 24.06 104.76 25.4 107.07 19.95 101.44 21.77 103.27 16.14 97.82 18.45 99.15 12.68 93.92 15.46 94.75 9.59 89.78 12.81 90.09 6.9 85.42 10.54 85.21 4.62 80.88 8.66 80.16 2.78 76.19 7.18 74.96 1.39 71.4 6.12 69.66 0.46 66.52 5.49 64.3 0 61.61 5.27 58.92 0 56.69 5.49 53.56 0.46 51.82 6.12 48.26 1.39 47.02 7.18 43.06 2.78 42.33 8.66 38 4.62 37.8 10.54 33.13 6.9 33.44 12.81 28.47 9.6 29.29 15.46 24.06 12.69 25.4 18.45 19.95 16.14 21.77 21.78 16.14 19.95 18.45 25.4 12.68 24.07 15.46 29.3 9.59 28.47 12.81 33.44 6.9 33.13 10.54 37.8 4.62 38 8.66 42.34 2.78 43.06 7.18 47.02 1.39 48.26 6.12 51.82 0.46 53.56 5.49 56.69 0 58.92 5.27 61.61 0 64.3 5.49 66.52 0.46 69.66 6.12 71.4 1.39 74.96 7.18 76.2 2.78 80.16 8.66 80.88 4.62 85.22 10.54 85.42 6.9 90.09 12.81 89.78 9.6 94.75 15.46 93.92 12.69 99.15 18.45 97.82 16.14 103.27 21.78 101.44 19.95 107.08 25.4 104.77 24.07 110.53 29.3 107.76 28.47 113.62 33.44 110.41 33.13 116.32 37.8 112.68 38 118.59 42.34 114.56 43.06 120.44 47.02 116.04 48.26 121.83 51.82 117.09 53.56 122.75 56.69 117.73 58.92 123.22 61.61 117.94 64.3 123.22 66.52 117.73 69.66 122.75 71.4 117.09 74.96 121.83 76.2 116.04 80.16 120.44 80.88 114.56 85.22 118.59 85.42 112.68 90.09 116.32 89.78 110.4 94.75 113.62 93.92 107.76 99.15 110.53 97.82 104.76 103.27 107.07 101.44 101.44 107.08 103.27 104.77 97.82 110.53 99.15 107.76 93.92 113.62 94.75 110.41 89.78 116.32 90.09 112.68 85.42 118.59 85.21 114.56 80.88 120.44 80.16 116.04 76.19 121.83 74.96 117.09 71.4 122.75 69.66 117.73 66.52 123.22 64.3 117.94 61.61"/><path class="cls-2" d="M46.3,56.48a55,55,0,0,1-7.07.41,31.32,31.32,0,0,1-5.13-.31c-3.17-.72-4.5-2.86-4.5-5.06a7.2,7.2,0,0,1,2.17-5l3.12,1.33a4.34,4.34,0,0,0-1.57,2.91c0,2.55,2.85,2.6,5.45,2.6A41.91,41.91,0,0,0,46,52.74ZM34.22,43.9a21.47,21.47,0,0,1,2.48-1.77v0a43,43,0,0,1-5.65.19c0-.86,0-2.74-.09-3.53.45,0,1.12,0,1.85,0,2.34,0,5.63-.07,7.23-.14a45.51,45.51,0,0,0,4.83-.55l.24,3.74a16.81,16.81,0,0,0-7.7,3.57Z"/><path class="cls-2" d="M70.13,56.48a55.18,55.18,0,0,1-7.08.41,31.27,31.27,0,0,1-5.12-.31c-3.17-.72-4.51-2.86-4.51-5.06a7.24,7.24,0,0,1,2.17-5l3.12,1.33a4.39,4.39,0,0,0-1.57,2.91c0,2.55,2.86,2.6,5.46,2.6a41.7,41.7,0,0,0,7.24-.67ZM58.05,43.9a21.47,21.47,0,0,1,2.48-1.77v0a43,43,0,0,1-5.65.19c0-.86,0-2.74-.1-3.53.46,0,1.12,0,1.86,0,2.34,0,5.63-.07,7.22-.14a45.4,45.4,0,0,0,4.84-.55l.24,3.74a16.81,16.81,0,0,0-7.7,3.57Z"/><path class="cls-2" d="M85,37.2c-.07.34-.38.45-.79.53-.21,1.07-.52,3-.78,4.36.4-.05,1.19-.1,1.62-.1,4.09,0,5.29,2.91,5.29,6.72v0c-.08,4-1,9-5.32,9a7.79,7.79,0,0,1-4.26-1.91,18.35,18.35,0,0,0,1.19-3.12A5.77,5.77,0,0,0,84.85,54c.84,0,1.17-.81,1.48-2.08a19.24,19.24,0,0,0,.38-3.43c0-2.19-.67-3.19-2-3.19a12.84,12.84,0,0,0-2,.14A61.52,61.52,0,0,1,78.54,57.7l-3.36-1.65A44.35,44.35,0,0,0,79,45.88c-.67.12-2.39.38-3.34.54l-.29-3.57c1-.1,2.91-.31,4.27-.48.31-1.74.57-3.67.76-5.62Zm4.24-.81a12.16,12.16,0,0,1,2.67,3.27L90.12,40.8a11.74,11.74,0,0,0-2.57-3.31Zm4.1,13.8c-.48-2.86-1.84-6.12-3.5-7.7l3-1.88a16.1,16.1,0,0,1,4.26,8.27ZM93,35.41a12,12,0,0,1,2.67,3.27l-1.74,1.14a11.88,11.88,0,0,0-2.57-3.31Z"/><path class="cls-2" d="M32.81,83.43c.79,1.48,2.24,2.1,4.48,2.19,1,0,2.27.07,3.65.07,2.86,0,6.24-.09,8.63-.31a16.32,16.32,0,0,0-1.08,3.36c-1.85.1-4.38.17-6.79.17-1.64,0-3.21,0-4.45-.09-2.7-.12-4.48-.74-5.89-2.55-.9.88-1.83,1.71-2.64,2.38a.51.51,0,0,1-.36.55l-1.65-3.65a31.8,31.8,0,0,0,2.79-1.88V79H27V75.8h5.79ZM30.17,73.09A18.73,18.73,0,0,0,27,69.16l2.71-1.86A18.76,18.76,0,0,1,33.1,71ZM46.52,70.9H49l0,2.26H33.27V70.9h4.1l.19-.65H34.84V68.06H38.2c.12-.52.26-1,.36-1.5l3.86.43c-.05.26-.26.4-.72.45l-.16.62h5ZM40.94,85.24V84.12H33.46V81.83h2.26v-.71H34.13V78.85h6.81v-.54H35.27v-4.6H46.71v4.6h-2.1a1.78,1.78,0,0,1-.43.12v.42h4v2.27h-4v.71H48.8v2.29H44.18v1.12ZM38.41,76.4h5v-.81h-5Zm2.53,5.43v-.71h-2.1v.71ZM40.68,70.9h2.64v-.65H40.89Zm8.36,0h0v0h0Z"/><path class="cls-2" d="M53.33,75.14c3.76-1,8.29-2,10.27-2,3.07,0,6.22,1.47,6.22,6,0,4.77-3.43,7.77-9.91,9.82a18.28,18.28,0,0,0-2.48-3.17c5.79-1.43,8.34-3.93,8.34-6.34,0-1.74-.88-2.76-2.41-2.76a23.24,23.24,0,0,0-8.12,2c0,.24-.27.52-.53.62Zm4.15-8.06a39,39,0,0,1,9.36,1.46l-1,3.64a40.44,40.44,0,0,0-9.34-1.64Z"/><path class="cls-2" d="M81,84.74a2.38,2.38,0,0,1,2.4-2.5,2.35,2.35,0,0,1,2.41,2.5,2.32,2.32,0,0,1-2.41,2.48A2.36,2.36,0,0,1,81,84.74Zm4-3.93H81.73l-.57-12.27h4.41Z"/></svg>