<svg id="レイヤー_1" data-name="レイヤー 1" xmlns="http://www.w3.org/2000/svg" viewBox="0 0 23 36"><defs><style>.cls-1{fill:#004021;}</style></defs><title>icon-mameden</title><path class="cls-1" d="M15.48,26.81a1.81,1.81,0,0,1,.14-.69,6.06,6.06,0,0,1,1-1.51,34.28,34.28,0,0,0,2.54-3.09,9.24,9.24,0,0,0,1-2.11,8,8,0,0,0,.44-2.61,9.46,9.46,0,0,0-18.92,0,8.15,8.15,0,0,0,.93,3.78,19.62,19.62,0,0,0,2.88,3.78,9.72,9.72,0,0,1,1,1.37,2.21,2.21,0,0,1,.33,1.08H9.16a3.77,3.77,0,0,0-.3-1.51,7.72,7.72,0,0,0-1.37-2.12A31.86,31.86,0,0,1,5.11,20.3a6.51,6.51,0,0,1-.81-1.6A5.69,5.69,0,0,1,4,16.8,7.09,7.09,0,0,1,6.1,11.74a7.27,7.27,0,0,1,10.2,0,7.13,7.13,0,0,1,2.11,5.06,5.78,5.78,0,0,1-.69,2.76,17.24,17.24,0,0,1-2.58,3.35,11,11,0,0,0-1.29,1.73,4.36,4.36,0,0,0-.62,2.17Z"/><line class="cls-1" x1="7.78" y1="29.53" x2="14.21" y2="29.53"/><path class="cls-1" d="M7.78,30.42h6.43a.89.89,0,1,0,0-1.78H7.78a.89.89,0,1,0,0,1.78"/><line class="cls-1" x1="7.78" y1="32.47" x2="14.21" y2="32.47"/><path class="cls-1" d="M7.78,33.36h6.43a.9.9,0,1,0,0-1.79H7.78a.9.9,0,1,0,0,1.79"/><path class="cls-1" d="M9,34.8a2.31,2.31,0,0,0,4,0Z"/><path class="cls-1" d="M3.6,8.23a1.1,1.1,0,0,1-.83-.38l-2.51-3A1.06,1.06,0,0,1,.39,3.37a1.08,1.08,0,0,1,1.53.13l2.51,3A1.07,1.07,0,0,1,3.6,8.23Z"/><path class="cls-1" d="M8.23,5.77a1.09,1.09,0,0,1-1-.69L5.81,1.47A1.08,1.08,0,0,1,6.42.07,1.09,1.09,0,0,1,7.83.69L9.25,4.3a1.08,1.08,0,0,1-.62,1.39A1.1,1.1,0,0,1,8.23,5.77Z"/><path class="cls-1" d="M14.21,5.77a1.14,1.14,0,0,1-.4-.08,1.08,1.08,0,0,1-.62-1.39L14.61.69A1.1,1.1,0,0,1,16,.07a1.09,1.09,0,0,1,.62,1.4L15.22,5.08A1.09,1.09,0,0,1,14.21,5.77Z"/><path class="cls-1" d="M19.4,8.23a1.07,1.07,0,0,1-.83-1.77l2.51-3a1.08,1.08,0,0,1,1.53-.13,1.06,1.06,0,0,1,.13,1.51l-2.51,3A1.1,1.1,0,0,1,19.4,8.23Z"/></svg>