<svg id="レイヤー_1" data-name="レイヤー 1" xmlns="http://www.w3.org/2000/svg" viewBox="0 0 260 52.54"><defs><style>.cls-1{fill:#fff;stroke:#231815;stroke-miterlimit:10;}.cls-2{fill:#231815;}</style></defs><polygon class="cls-1" points="152.91 41.5 259.5 41.5 259.5 0.5 0.5 0.5 0.5 41.5 125.5 41.5 120.5 51.5 142.62 41.5 152.91 41.5"/><path class="cls-2" d="M32.38,15.58a7,7,0,0,0-.09-1.35h1a8.28,8.28,0,0,0-.09,1.32v1.14H37a6.9,6.9,0,0,0,1-.05,6.37,6.37,0,0,0-.07,1V21.2A8.42,8.42,0,0,0,38,22.35h-.93v-.88H33.24v3A7.11,7.11,0,0,0,33.33,26h-1a8.3,8.3,0,0,0,.09-1.47v-3H28.72v.88h-.93a8.53,8.53,0,0,0,.08-1.15V17.66a7.91,7.91,0,0,0-.07-1,6.94,6.94,0,0,0,1,.05h3.61Zm-3.66,1.89v3.22h3.66V17.47Zm8.39,3.22V17.47H33.24v3.22Z"/><path class="cls-2" d="M47,15.33a5.22,5.22,0,0,0-.08-1.12H48a5.61,5.61,0,0,0-.09,1.12v1.4h4a8.33,8.33,0,0,0,1.35-.08v.94c-.44,0-.86-.07-1.35-.07h-4v2.71h2.91a8.06,8.06,0,0,0,1-.05,6.38,6.38,0,0,0-.07,1v3.49a8.36,8.36,0,0,0,.08,1.19h-1v-.81H44.33v.81h-.95a9.26,9.26,0,0,0,.08-1.19V21.22a8,8,0,0,0-.07-1,8.06,8.06,0,0,0,1,.05H47V17.52h-3.7a8.85,8.85,0,0,0-1.37.07v-.94a8.69,8.69,0,0,0,1.37.08H47Zm-2.66,9H50.8V21H44.33Z"/><path class="cls-2" d="M59,19a26.11,26.11,0,0,1,2.64,2.45,22,22,0,0,0,1.72-1.6,18.92,18.92,0,0,0,2.15-2.8l.1-.16-7.41,0c-.7,0-1.07,0-1.51.05V16a8.91,8.91,0,0,0,1.52.08h7.57a1.59,1.59,0,0,0,.73-.09l.54.65a3.68,3.68,0,0,0-.52.68,19.72,19.72,0,0,1-4.28,4.86c.49.53,1,1.2,1.89,2.36l-.79.66a24.38,24.38,0,0,0-5.06-5.57Z"/><path class="cls-2" d="M70.61,23.9a11.54,11.54,0,0,0,3.78-1,9.87,9.87,0,0,0,5.3-5.76,2.48,2.48,0,0,0,.79.76,11.44,11.44,0,0,1-4,4.95,13.25,13.25,0,0,1-4.84,1.92,8,8,0,0,0-.78.21Zm.83-8a16.68,16.68,0,0,1,3.13,2.43l-.67.8a14.22,14.22,0,0,0-3.09-2.53Z"/><path class="cls-2" d="M84.68,18.17A19.37,19.37,0,0,1,88,19.86l-.51.87A14.51,14.51,0,0,0,84.16,19Zm-.33,5.92a11.38,11.38,0,0,0,3.49-.81,8.59,8.59,0,0,0,3.89-2.88,9.69,9.69,0,0,0,1.56-2.9,3.86,3.86,0,0,0,.8.68,10.15,10.15,0,0,1-5,5.58,15,15,0,0,1-3.29,1.11l-.7.15a2.64,2.64,0,0,0-.51.14Zm1.35-9a19,19,0,0,1,3.21,1.64l-.53.86a13.73,13.73,0,0,0-3.19-1.71Z"/><path class="cls-2" d="M99.55,25.08a5.94,5.94,0,0,0-1.13.05v-.9a6.84,6.84,0,0,0,1.13.08h5V21.87H100a6,6,0,0,0-1.12.05V21a6.75,6.75,0,0,0,1.13.08h4.56V18.87H99.68a6.06,6.06,0,0,0-1.13.05V18a6.76,6.76,0,0,0,1.13.07h4.83l.88,0c0,.33,0,.54,0,1v5.86a3.86,3.86,0,0,0,.06.8h-.9v-.65Z"/><path class="cls-2" d="M110.53,23.9a11.54,11.54,0,0,0,3.78-1,9.82,9.82,0,0,0,5.29-5.76,2.7,2.7,0,0,0,.79.76,11.3,11.3,0,0,1-4,4.95,13.11,13.11,0,0,1-4.84,1.92c-.35.08-.45.11-.78.21Zm.83-8a17,17,0,0,1,3.13,2.43l-.68.8a14,14,0,0,0-3.09-2.53Z"/><path class="cls-2" d="M128.49,21.59c-.75,1.71-1.52,2.48-2.45,2.48-1.23,0-2.15-1.34-2.15-3.16a5.36,5.36,0,0,1,1.36-3.57,5.42,5.42,0,0,1,4.19-1.72A5,5,0,0,1,133,16.9a4.33,4.33,0,0,1,1.26,3.16,4.72,4.72,0,0,1-3,4.47,10.34,10.34,0,0,1-2,.59,2,2,0,0,0-.45-.87,7.44,7.44,0,0,0,2.17-.61,3.89,3.89,0,0,0,2.3-3.62,3.41,3.41,0,0,0-2.07-3.25,3.57,3.57,0,0,0-1.5-.32A19.34,19.34,0,0,1,128.49,21.59Zm-1.59-4.52a4.48,4.48,0,0,0-2.12,3.86c0,1.24.55,2.2,1.25,2.2.54,0,1.06-.61,1.62-1.88a17.87,17.87,0,0,0,1.18-4.79A4,4,0,0,0,126.9,17.07Z"/><path class="cls-2" d="M137.79,25.24a5.67,5.67,0,0,0,1.56-2.36l.74.34a7.86,7.86,0,0,1-1.6,2.52ZM143.08,15a5.57,5.57,0,0,0-.07-.88h1a4.3,4.3,0,0,0-.08.88v.25h3.19a8.54,8.54,0,0,0,1.34-.08V16c-.42,0-.77,0-1.35,0h-.77a9.31,9.31,0,0,1-.65,1.27h2.13a8.06,8.06,0,0,0,1.52-.08v.83a11.2,11.2,0,0,0-1.53-.06h-8.39a11.38,11.38,0,0,0-1.53.06v-.83a9.93,9.93,0,0,0,1.56.08h2a13.13,13.13,0,0,0-.54-1.27h-.79c-.56,0-.88,0-1.27,0v-.8a7.73,7.73,0,0,0,1.29.08h3Zm-2.18,7.41c-.62,0-1,0-1.43,0a7.11,7.11,0,0,0,.06-1.06V19.74a8.27,8.27,0,0,0-.06-1.14c.39,0,.76,0,1.43,0h5.31c.73,0,1.12,0,1.47,0a7.81,7.81,0,0,0-.05,1.12v1.62a8.12,8.12,0,0,0,.05,1.09c-.33,0-.92,0-1.39,0Zm-.61-2.21h6.57v-.89h-6.57Zm0,1.56h6.57V20.8h-6.57Zm1.47,3c0,.17.05.23.26.28a6.84,6.84,0,0,0,1.41.08c1.78,0,2.21,0,2.42-.24a2.33,2.33,0,0,0,.18-1.22,1.62,1.62,0,0,0,0-.21,1.9,1.9,0,0,0,.8.3c-.08,2-.18,2.08-3.13,2.08-2.38,0-2.73-.1-2.73-.82V23.89a5.63,5.63,0,0,0-.08-1h1a3.86,3.86,0,0,0-.08,1Zm3.08-7.55a8.83,8.83,0,0,0,.63-1.27h-3.76a13.2,13.2,0,0,1,.53,1.27Zm-.59,7.36A6.94,6.94,0,0,0,142.69,23l.56-.4a8.55,8.55,0,0,1,1.65,1.47Zm4.51,1a12.58,12.58,0,0,0-1.9-2.36l.66-.38A15.87,15.87,0,0,1,149.43,25Z"/><path class="cls-2" d="M155.45,18.89a10.92,10.92,0,0,1,1.77,1.58,14.42,14.42,0,0,0,1.06-3.57h-2.44a12.8,12.8,0,0,1-2.53,4,2.07,2.07,0,0,0-.57-.68,11.26,11.26,0,0,0,2.65-4.39,9.73,9.73,0,0,0,.42-1.62l.93.18a4.51,4.51,0,0,0-.26.74c-.1.34-.17.53-.35,1h2a9.43,9.43,0,0,0,1,0,2.71,2.71,0,0,0-.05.37,7.87,7.87,0,0,0,1.58,2.82V15.67a8.27,8.27,0,0,0-.09-1.35h1a9.46,9.46,0,0,0-.09,1.35v4.41a11.12,11.12,0,0,0,3.22,2,3.19,3.19,0,0,0-.55.81,10.1,10.1,0,0,1-2.67-1.81v3.26a11.52,11.52,0,0,0,.09,1.58h-1a10.36,10.36,0,0,0,.09-1.58v-4a8.51,8.51,0,0,1-1.79-2.73A13.82,13.82,0,0,1,157.38,22a12.75,12.75,0,0,1-3.64,3.89,2.66,2.66,0,0,0-.63-.71,11,11,0,0,0,3.75-4A9.38,9.38,0,0,0,155,19.5Z"/><path class="cls-2" d="M171.91,14.67a4.11,4.11,0,0,0-.2.83c-.09.44-.17.75-.35,1.41a11.27,11.27,0,0,0,2.32-.42l0,.89-.46.08a16.37,16.37,0,0,1-2.12.27,25.14,25.14,0,0,1-1.44,3.78c-.32.62-.43.84-.93,1.69-.11.19-.19.34-.26.44l-.88-.51a11.29,11.29,0,0,0,1.25-2,20.31,20.31,0,0,0,1.35-3.34l-1,0H168v-.9a7.91,7.91,0,0,0,1.54.11l.94,0a13.2,13.2,0,0,0,.44-2.43Zm6.17,10A7.42,7.42,0,0,0,175.81,23a3.42,3.42,0,0,1,0,.41c0,1.34-.88,2.07-2.46,2.07s-2.53-.72-2.53-1.87a1.85,1.85,0,0,1,1.2-1.65,3.92,3.92,0,0,1,1.54-.28,4.37,4.37,0,0,1,1.31.19c-.07-.84-.09-1.45-.09-1.77a5,5,0,0,1,.13-1.26l.88.09a4,4,0,0,0-.17,1.21,17.22,17.22,0,0,0,.14,2,9.28,9.28,0,0,1,2.55,1.56,1.73,1.73,0,0,0,.23.21Zm-4.57-2.32c-1.1,0-1.8.46-1.8,1.17s.62,1.06,1.65,1.06,1.62-.44,1.62-1.41c0-.16,0-.56,0-.56A3.92,3.92,0,0,0,173.51,22.4Zm4.56-3.52a14.1,14.1,0,0,0-3.44-1.76l.48-.73a18.86,18.86,0,0,1,3.43,1.71Z"/><path class="cls-2" d="M184,21.35A8.56,8.56,0,0,0,182,19.89l.48-.6a11.85,11.85,0,0,1,2.12,1.42Zm.74,1.3a17.33,17.33,0,0,1-1.16,1.91c-.19.28-.19.28-1,1.26l-.71-.65a9.08,9.08,0,0,0,2.23-3.12Zm.49-7.6a5.06,5.06,0,0,0-.05-.83h.88a5.17,5.17,0,0,0,0,.83v.26h3.05v-.26a5.13,5.13,0,0,0-.05-.83h.9a4.91,4.91,0,0,0-.05.83v.26h2.19a9.09,9.09,0,0,0,1.32-.08v.87a9.24,9.24,0,0,0-1.29-.08h-2.22v.15A4.46,4.46,0,0,0,190,17h-.9a4.49,4.49,0,0,0,.05-.79V16h-3.05v.19c0,.35,0,.59,0,.81h-.88a4.81,4.81,0,0,0,.05-.81V16h-2a9.67,9.67,0,0,0-1.31.08v-.87a9.61,9.61,0,0,0,1.34.08h2Zm-.78,3.88a8.42,8.42,0,0,0-2-1.49l.48-.57a11.54,11.54,0,0,1,2,1.45Zm6.29-1.32a5.86,5.86,0,0,0,.94-.05l.46.45c-.13.15-.16.17-.39.46a12.2,12.2,0,0,1-1.94,1.86,12.22,12.22,0,0,0,3.72,1.33,3.41,3.41,0,0,0-.39.79,13.73,13.73,0,0,1-4-1.67,13,13,0,0,1-2.75,1.39h4.82l.78,0a4.63,4.63,0,0,0,0,.77v2c0,.48,0,.76,0,1h-.85v-.58h-4.13V26h-.83a6.22,6.22,0,0,0,.05-1V23a4.54,4.54,0,0,0,0-.73,8.58,8.58,0,0,1-1,.33,2.17,2.17,0,0,0-.42-.65,13.12,13.12,0,0,0,3.74-1.57,9,9,0,0,1-1.4-1.36,8.43,8.43,0,0,1-1.61,1.25,2.2,2.2,0,0,0-.55-.55,7.38,7.38,0,0,0,1.73-1.27,5.77,5.77,0,0,0,1.27-1.85l.79.26c-.24.4-.31.49-.5.79Zm.45,7.07V22.86h-4.14v1.82Zm-3.35-6.42-.18.22a8.58,8.58,0,0,0,1.53,1.45A9.51,9.51,0,0,0,191,18.26Z"/><path class="cls-2" d="M200,14.67A23.38,23.38,0,0,0,201,19c.76-.31,1.13-.45,3.14-1.15a7.47,7.47,0,0,0,.83-.34l.39,1a30.61,30.61,0,0,0-3.91,1.26c-2.22.88-3.18,1.73-3.18,2.81s1,1.63,3.55,1.63a13,13,0,0,0,3.71-.44l.1,1.07a6.66,6.66,0,0,0-1,.08,26,26,0,0,1-2.87.17,8.93,8.93,0,0,1-2.88-.35,2.16,2.16,0,0,1-1.61-2.12,2.79,2.79,0,0,1,1.16-2.2,7.86,7.86,0,0,1,1.7-1.05,25.63,25.63,0,0,1-1-3.63,4.23,4.23,0,0,0-.22-.81Z"/><path class="cls-2" d="M212,14.93a19.61,19.61,0,0,0-.17,2.73c-.06,1.56-.09,3.32-.09,3.9,0,.16,0,.48,0,.78a2,2,0,0,0,.61,1.55,2.49,2.49,0,0,0,1.62.51,3.73,3.73,0,0,0,3.48-2.26,7.47,7.47,0,0,0,.64-2,3.77,3.77,0,0,0,.93.62,7.8,7.8,0,0,1-1.44,2.94A4.54,4.54,0,0,1,214,25.29a3.07,3.07,0,0,1-2.44-.91,3.6,3.6,0,0,1-.71-2.65c0-.87,0-1.19.11-5.27,0-.39,0-.63,0-.84a5.21,5.21,0,0,0,0-.69Z"/><path class="cls-2" d="M227.4,18.87c-.07.17-.1.28-.21.64a12.75,12.75,0,0,1-3.82,6.13,3.71,3.71,0,0,0-.74-.64A10.53,10.53,0,0,0,225,22.39a10.29,10.29,0,0,0,1.48-3.78Zm.51-3.42a5.07,5.07,0,0,0-.09-1h1a6.79,6.79,0,0,0-.08,1v1h3.71a13.34,13.34,0,0,0,1.39-.07,7.57,7.57,0,0,0-.06,1v.85a6.31,6.31,0,0,0,.08,1.08H233v-2.1h-9.11v2.08H223a7.23,7.23,0,0,0,.08-1.06v-.86a5.37,5.37,0,0,0-.07-1,13.28,13.28,0,0,0,1.35.07h3.57Zm2.33,3.13a10.82,10.82,0,0,0,1,2.71,11.66,11.66,0,0,0,1.4,2.13,10.39,10.39,0,0,0,1.6,1.55,4.21,4.21,0,0,0-.68.72A13.2,13.2,0,0,1,231,22.75a16.64,16.64,0,0,1-1.48-3.33c-.08-.22-.13-.33-.22-.55Z"/></svg>