<svg id="レイヤー_1" data-name="レイヤー 1" xmlns="http://www.w3.org/2000/svg" viewBox="0 0 472 195"><defs><style>.cls-1{fill:#221714;}.cls-2{fill:#6faa82;}.cls-3{fill:#fff;}</style></defs><title>名称未設定-1</title><path class="cls-1" d="M35.22,10.87c.78-1,1-1.35,1.84-2.32,1.13,1.07,1.48,1.39,2.58,2.49a1,1,0,0,1,.22.38.24.24,0,0,1-.22.2H31.23V24.07c1.9-.45,6-1.71,7.89-2.42l.2.52c-2.32,1.29-4,2.09-5.77,2.87-5.32,2.19-5.32,2.19-6.22,2.58v1c0,.39-.13.58-.39.58-.45,0-.68-.48-1.81-3.81A36.87,36.87,0,0,0,29,24.62V4.19c0-.93-.09-2.06-.22-3.51,3.28.42,3.83.51,3.83.87s0,.26-1.38.81v8.51Zm7.71,3a43,43,0,0,0,3.7-3.09,21.82,21.82,0,0,0,4.06-4.42c3.19,1.77,3.39,1.9,3.39,2.29,0,.19-.26.35-.58.35-.16,0-.71,0-1.2-.09a90.57,90.57,0,0,1-9.37,5.74V25.49c0,.36.06.55.19.65a15.93,15.93,0,0,0,3.22.16c1.16,0,3.16-.07,3.45-.13.45-.07.61-.29.84-1.16s.9-3.91,1.55-7h.41v6.61c0,1,0,1,.94,1.32a.87.87,0,0,1,.71.91c0,.45-.45.9-1.13,1.06a39.41,39.41,0,0,1-7.12.36A18.35,18.35,0,0,1,41.83,28c-.81-.29-1.1-.74-1.16-1.9V24.85L40.73,18V6.36c0-2.36-.09-4.42-.22-5.78,3.8.52,3.8.52,3.8.84s-.39.48-1.38.87Z"/><path class="cls-1" d="M68.78,18.88v3.55h2.13c.67-.78.9-1,1.54-1.75,1.07.87,1.36,1.16,2.32,2,.1.13.17.19.17.25s-.13.2-.39.2H68.78c0,4.39,0,4.39.06,6,0,.38-.25.45-1.58.45-.38,0-.48-.07-.48-.32,0-1.75,0-1.75.07-6.1H63.24a9.58,9.58,0,0,0-2.16.26l-.2-1.26a10.06,10.06,0,0,0,2.52.26h3.48c0-.26,0-.46,0-.59v-3H64.33v1.19c0,.36-.26.42-1.35.42-.58,0-.65,0-.65-.32.07-2.49.1-4.58.1-8.46,0-2.42,0-3.35-.13-4.61,1,.58,1.29.74,2.19,1.35h2.39V5.29H63.24a6.36,6.36,0,0,0-1.91.23l-.19-1.23a9.15,9.15,0,0,0,2.1.26h3.64A28,28,0,0,0,66.72.23C70,.58,70.1.61,70.1.9s-.26.42-1.32.75v2.9h1.48c.71-.81,1-1.07,1.71-1.87,1,.93,1.29,1.22,2.16,2.16.1.13.16.19.16.29s-.13.16-.29.16H68.78V8.45h2.38c.49-.54.65-.74,1.16-1.29.71.52.91.68,1.55,1.2.26.19.36.32.36.45s-.29.42-1,.68v6.22c0,.71,0,1.59.09,3.88,0,.25-.06.35-.32.42a9.16,9.16,0,0,1-1.09.09c-.49,0-.55,0-.55-.35v-.87ZM66.88,9.2H64.33v3.93h2.55Zm0,4.67H64.33v4.26h2.55ZM71.36,9.2H68.78v3.93h2.58Zm0,4.67H68.78v4.26h2.58Zm6.77-.93a1.71,1.71,0,0,0-.07.52c0,1.51,1.36,4.61,3,6.71a22.11,22.11,0,0,0,3.09-7.71l1.55.64c1.58.65,1.67.71,1.67.94s-.35.38-1,.38h-.26a24.17,24.17,0,0,1-3.84,7.2,16,16,0,0,0,3.45,2.68,16.4,16.4,0,0,0,5.87,2.19v.39c-1.23.48-1.45.71-2.35,2.22-4.13-2.32-5.84-3.71-7.9-6.35a23.31,23.31,0,0,1-10.28,6.68L70.84,29a25.18,25.18,0,0,0,9.48-7.75,24.88,24.88,0,0,1-2.68-6.1,4.35,4.35,0,0,0-.84-1.8Zm-4.61,1.81a26,26,0,0,0,4.19-7.39c2.45.87,3,1.09,3,1.32s-.22.32-1.25.45a25.58,25.58,0,0,1-5.52,5.94ZM86.63,5.39c.78-.9,1-1.16,1.81-2,1.19,1,1.55,1.26,2.64,2.26.16.13.23.22.23.29s-.16.19-.32.19H76.55a8.48,8.48,0,0,0-1.94.19L74.42,5.1a7.43,7.43,0,0,0,2.06.29h4V3a20.46,20.46,0,0,0-.1-2.77c.68.09,1.16.16,1.52.19,1.35.16,1.83.32,1.83.61s-.16.33-1.19.65V5.39Zm-3,2.23c.48.22.87.38,1.13.48,2.77,1.19,3.61,1.68,4.38,2.52A1.82,1.82,0,0,1,89.73,12c0,1.06-.29,1.9-.65,1.9s-.45-.16-1.06-1.07A27,27,0,0,0,83.35,8Z"/><path class="cls-1" d="M105.66,7.42c.74-1,.74-1,1.41-1.93,1,.93,1.36,1.22,2.39,2.22.06.1.16.2.16.26s-.13.19-.35.19h-4.58v3.23a25.35,25.35,0,0,1,2.13,1.42c1.06.81,1.32,1.23,1.32,2S107.53,17,107,17c-.19,0-.32-.19-.45-.61a10.18,10.18,0,0,0-1.9-4.32c0,11.9,0,12.42.06,17.16a.54.54,0,0,1-.32.42,13.15,13.15,0,0,1-1.42.13.39.39,0,0,1-.45-.39c.1-2.42.1-2.42.16-6.29,0-1.45.07-3.68.13-6.68V12.46c-1.48,5-2.45,7.06-4.64,10l-.32-.23a42.9,42.9,0,0,0,3.19-8.65,33.2,33.2,0,0,0,1.19-5.39H100.6a5.73,5.73,0,0,0-1.94.26L98.4,7.1a5.26,5.26,0,0,0,2.2.32h2V3.29A30.41,30.41,0,0,0,102.43,0c3.16.29,3.71.42,3.71.74s-.23.36-1.45.74V7.42ZM122.51,13c.58-.61.78-.77,1.32-1.32.78.55,1,.74,1.78,1.32.25.23.35.32.35.42s-.32.42-1,.71v2.39c0,1.52,0,2.22.07,3.84,0,.22-.1.32-.26.39a5.73,5.73,0,0,1-1.45.19c-.29,0-.39-.13-.42-.42V19.36h-5.16a9.75,9.75,0,0,0,2.9,3.68,16.92,16.92,0,0,0,7.74,3.13v.48A3.26,3.26,0,0,0,126.15,29a14.75,14.75,0,0,1-5.64-4,15.79,15.79,0,0,1-3.28-5.1c-.81,3.1-1.81,4.65-4.1,6.3a24.24,24.24,0,0,1-6.57,3.16l-.23-.45c3.52-1.58,5.8-3.29,7.38-5.55a8.9,8.9,0,0,0,1.58-3.94h-4.06v1.32c-.06.42-.26.49-1.13.55a3.39,3.39,0,0,0-.58,0h-.06c-.23,0-.36-.13-.39-.38.07-1.29.13-4.13.13-4.84,0-1.29,0-2.52-.13-4.46A21.26,21.26,0,0,1,111.43,13h4.35V9.55h-2a6,6,0,0,0-1.94.23l-.22-1.26a7.3,7.3,0,0,0,2.16.29h5c.67-.74.9-1,1.57-1.74,1,.87,1.26,1.16,2.23,2,.13.13.19.23.19.29s-.13.16-.32.16h-4.54c0,1.07,0,1.78,0,2.2V13ZM106.4,11.36a25.82,25.82,0,0,0,6.09-6.07A16.8,16.8,0,0,0,115.39,0c.64.16,1.13.26,1.45.32,1.84.36,2,.42,2,.68s-.13.29-1.35.58A12.81,12.81,0,0,0,123,6a22.79,22.79,0,0,0,6,1.78l0,.45c-1.23.29-1.71.8-2.16,2.26A22.22,22.22,0,0,1,121.22,7a21.07,21.07,0,0,1-4.15-4.93,27.18,27.18,0,0,1-10.45,9.64Zm4.83,2.35v4.91h4.19a31.12,31.12,0,0,0,.36-4.91Zm6.71,0a33,33,0,0,1-.46,4.91h5.42V13.71Z"/><path class="cls-1" d="M135.73,6.16a16.47,16.47,0,0,0,2.68.26h6.51c.71-.9.93-1.19,1.71-2.06a23.51,23.51,0,0,1,2.48,2.32.54.54,0,0,1,.09.26c0,.16-.16.22-.41.22H138.41a13.67,13.67,0,0,0-2.45.2Zm1-4.39a14.22,14.22,0,0,0,2.84.26h3.93c.71-.9.93-1.16,1.68-2a27.64,27.64,0,0,1,2.7,2.39.36.36,0,0,1,0,.16c0,.13-.12.2-.35.2h-8a23.51,23.51,0,0,0-2.61.16Zm.23,8.72a12.18,12.18,0,0,0,2.61.32h4.22a19.2,19.2,0,0,1,1.55-1.87c1.09.9,1.41,1.19,2.45,2.19a.34.34,0,0,1,.12.23c0,.13-.12.19-.35.19h-8a15.14,15.14,0,0,0-2.42.16Zm0,4.42a11.29,11.29,0,0,0,2.58.26h4.15c.71-.88.91-1.13,1.62-2a22.3,22.3,0,0,1,2.38,2.29.32.32,0,0,1,.1.22c0,.1-.16.2-.42.2h-7.83c-.42,0-.65,0-2.42.13Zm2.29,13.87v.1a.35.35,0,0,1-.29.39,3.74,3.74,0,0,1-1.29.19c-.61,0-.68,0-.68-.36.19-4.32.19-4.74.19-6.61s0-2.65-.09-4.29a24.1,24.1,0,0,1,2.51,1.35h4.55c.45-.58.61-.77,1.12-1.35.84.64,1.1.84,1.84,1.48.19.2.26.29.26.42s-.1.23-1,.81V23.3c0,1.55,0,2.19.1,5.06v.1a.39.39,0,0,1-.2.35,5.2,5.2,0,0,1-1.51.23c-.32,0-.42-.1-.45-.39v-1h-5.06Zm0-1.84h5.06V20.3h-5.06ZM161,8.13a25.52,25.52,0,0,1,1.71-2.23,30.43,30.43,0,0,1,2.68,2.55c0,.07,0,.17,0,.2s-.13.22-.39.22h-4.58V18.2c0,4.42,0,4.42,0,8.45,0,1.52-.81,2-3.87,2.68-.16-1.06-.32-1.39-.87-1.71s-1.52-.58-4.26-1l.07-.45c3.93.32,4,.32,6.15.38.39,0,.42-.06.42-.58V8.87h-6.41a29.21,29.21,0,0,0-3.06.16l-.23-1.22a14.74,14.74,0,0,0,3.29.32h6.41V3.68c0-1.68,0-2.32-.09-3.55.71.1,1.25.16,1.64.19,1.48.2,2.13.39,2.13.65s-.32.45-1.36.87V8.13Zm-10.76,3.39a36.61,36.61,0,0,1,4.28,4.65,2.48,2.48,0,0,1,.62,1.74c0,1.19-.68,2.61-1.26,2.61-.35,0-.61-.39-.87-1.39A23.69,23.69,0,0,0,149.91,12Z"/><path class="cls-1" d="M174.54,5.81a5.32,5.32,0,0,0,4,1.51A17,17,0,0,0,182,6.91a8.76,8.76,0,0,0,1.13-3.3c0-.87-.61-1.38-2.29-1.8a2.57,2.57,0,0,1,1.45-.36,6.87,6.87,0,0,1,2.51.55c.81.32,1.16.68,1.16,1.07,0,.22-.13.45-.51.93s-.68,1-.94,1.32c-.58.94-.58.94-.8,1.26,2.71-.77,3.58-1.16,4.64-2.06a.91.91,0,0,1,.61-.23c1.26,0,2.16.45,2.16,1.07,0,.38-.42.71-1.39,1a52.68,52.68,0,0,1-7,1.84c-.58.8-1,1.39-1.71,2.51-.87,1.36-1.13,1.72-1.74,2.59A8.67,8.67,0,0,1,183.44,12a3.58,3.58,0,0,1,3.61,3.22c.55-.26.55-.26,3.16-1.58,3.19-1.61,4-2.13,4-2.71s-.55-1.13-1.48-1.52a1.54,1.54,0,0,1,.74-.19c1.42,0,3.64,2,3.64,3.26,0,.58-.26.81-1.16,1a53.22,53.22,0,0,0-8.64,3.32c0,1,0,1.23,0,2.62a8.93,8.93,0,0,1-.26,2.77,1,1,0,0,1-.9.62,1,1,0,0,1-1-1,2.84,2.84,0,0,1,0-.55,30.27,30.27,0,0,0,.22-3.45,16,16,0,0,0-3.77,2.55,4.33,4.33,0,0,0-1.58,3c0,1.74,1.77,2.58,5.38,2.58a23.27,23.27,0,0,0,6.48-.91,2.57,2.57,0,0,1,.61-.09c1,0,2.26.9,2.26,1.61,0,.42-.35.74-1,.87a35.58,35.58,0,0,1-5.77.45,16.71,16.71,0,0,1-6.54-.93,3.55,3.55,0,0,1-2.39-3.42c0-1.52.75-2.91,2.33-4.42a22.84,22.84,0,0,1,4-2.88,5.39,5.39,0,0,0-.45-2.54,1.81,1.81,0,0,0-1.64-1c-2.13,0-4.68,1.71-7,4.68-.61.84-.87,1-1.19,1-.52,0-.87-.68-.87-1.71,0-.68,0-.71.94-1.45a26.26,26.26,0,0,0,6-6.94,12.23,12.23,0,0,1-2.16.19c-2.19,0-3.32-.58-4.8-2.48Z"/><path class="cls-1" d="M206.78,8.94a5.39,5.39,0,0,0,3.83,1.64,13.77,13.77,0,0,0,3.23-.42c0-.93,0-2.38,0-3,0-3.39-.39-4.07-2.61-4.46a1.82,1.82,0,0,1,1.38-.45A7.43,7.43,0,0,1,216,3.1a1.32,1.32,0,0,1,.71,1c0,.19,0,.19-.35.84a12.12,12.12,0,0,0-1,4.81,9.2,9.2,0,0,0,3.51-1.87,1.5,1.5,0,0,1,.78-.33,4,4,0,0,1,1.22.29.83.83,0,0,1,.55.71c0,.45-.29.71-1.45,1.26a21.9,21.9,0,0,1-4.71,1.58c0,.45,0,.45-.09,1.62,0,.87-.1,2.29-.13,4.22a23.85,23.85,0,0,1,8.54-1.77c4.41,0,7.19,2.1,7.19,5.52a5.49,5.49,0,0,1-5.52,5.61c-3,0-5.09-2-6.22-5.71l.49-.16a9.4,9.4,0,0,0,1.93,2.8,4.3,4.3,0,0,0,3.06,1.23c2.36,0,4-1.84,4-4.42s-1.67-3.84-4.77-3.84A20.88,20.88,0,0,0,215,18.84c0,3.42,0,3.42,0,4.39,0,.62,0,1,0,1.23a3.76,3.76,0,0,1-.42,1.9,2,2,0,0,1-1.54,1.2c-.46,0-.46,0-2.42-1.75a14,14,0,0,0-2.16-1.45A1.53,1.53,0,0,1,207.46,23a2.79,2.79,0,0,1,1-1.81c1.19-1.23,2.29-1.94,5.13-3.32,0-.46,0-.94.06-1.55.07-1.45.07-1.45.16-4.65a15.25,15.25,0,0,1-2.51.23,5.36,5.36,0,0,1-4.8-2.65ZM210.32,22a2.83,2.83,0,0,0-1,1.54c0,.33.42.68,1.29,1a6.66,6.66,0,0,0,2,.51c.39,0,.55-.22.58-.81.17-2.9.23-4.48.23-4.67A13.34,13.34,0,0,0,210.32,22ZM224.7,5.68a10.78,10.78,0,0,1,4.74,1.16c1.41.78,2.25,1.84,2.25,2.84a.89.89,0,0,1-1,.94,1.76,1.76,0,0,1-.49-.07,4.55,4.55,0,0,0-.68-.06,20.81,20.81,0,0,0-4,.87l-.19-.32A22.42,22.42,0,0,0,228.92,9a4.89,4.89,0,0,0-2-2,8.69,8.69,0,0,0-2.22-.84Z"/><path class="cls-1" d="M248.52,28.49c3.74-2.55,5.32-4.61,6.12-8.06a3.68,3.68,0,0,1-2.06.64c-2.25,0-4-2-4-4.65,0-2.84,1.77-4.93,4.15-4.93a3.19,3.19,0,0,1,1.81.55c0-.55,0-2.33,0-3.36,0-.06,0-.36,0-.65a44,44,0,0,0-8.12,1.62,11.75,11.75,0,0,0-2.1.87,3.16,3.16,0,0,1-.74.16,3.29,3.29,0,0,1-2.06-1.23,4.75,4.75,0,0,1-1.29-2.35,1,1,0,0,1,.16-.39,3.75,3.75,0,0,0,3.13,1.65,18,18,0,0,0,2.77-.29c3.8-.62,5-.78,8.25-1.13a11.05,11.05,0,0,0-.35-3.58c-.36-.91-1.13-1.36-2.78-1.59.39-.48.62-.58,1.49-.58a10.74,10.74,0,0,1,3.12.46c.78.25,1.23.67,1.23,1.13,0,.25,0,.32-.33.87a8,8,0,0,0-.7,3.13c.83-.1.83-.1,2.09-.2,3.09-.22,3.45-.29,4.29-.58a2.91,2.91,0,0,1,1.19-.35,5.77,5.77,0,0,1,2.74,1.19,1,1,0,0,1,.52.87c0,.36-.23.55-.71.55a13.06,13.06,0,0,1-1.74-.19,33.9,33.9,0,0,0-5-.33c-1.19,0-2.13,0-3.45.13-.13,1.23-.22,3.2-.22,4.39,0,.23,0,.61,0,1.1a8.35,8.35,0,0,1,1,4.29,11.22,11.22,0,0,1-3.48,8.2,16.33,16.33,0,0,1-4.8,3.06Zm4.09-16.23c-1.45,0-2.57,1.52-2.57,3.49s1.09,3.51,2.61,3.51,2.06-1,2.06-3C254.71,13.55,254,12.26,252.61,12.26Z"/><path class="cls-1" d="M282.92,28.49c3.73-2.55,5.31-4.61,6.12-8.06a3.68,3.68,0,0,1-2.06.64c-2.26,0-4-2-4-4.65,0-2.84,1.77-4.93,4.16-4.93A3.16,3.16,0,0,1,289,12c0-.55,0-2.33,0-3.36A5.09,5.09,0,0,0,289,8a44,44,0,0,0-8.12,1.62,12,12,0,0,0-2.09.87,3.39,3.39,0,0,1-.74.16A3.33,3.33,0,0,1,276,9.45a4.8,4.8,0,0,1-1.28-2.35,1,1,0,0,1,.16-.39A3.72,3.72,0,0,0,278,8.36a17.73,17.73,0,0,0,2.77-.29c3.81-.62,5-.78,8.25-1.13a10.76,10.76,0,0,0-.35-3.58c-.35-.91-1.13-1.36-2.77-1.59.39-.48.61-.58,1.48-.58a10.81,10.81,0,0,1,3.13.46c.77.25,1.22.67,1.22,1.13,0,.25,0,.32-.32.87a8.17,8.17,0,0,0-.71,3.13c.84-.1.84-.1,2.1-.2,3.09-.22,3.44-.29,4.28-.58a3,3,0,0,1,1.19-.35A5.69,5.69,0,0,1,301,6.84a1,1,0,0,1,.52.87c0,.36-.23.55-.71.55A13.06,13.06,0,0,1,299,8.07a33.76,33.76,0,0,0-5-.33c-1.2,0-2.13,0-3.45.13-.13,1.23-.23,3.2-.23,4.39,0,.23,0,.61,0,1.1a8.45,8.45,0,0,1,1,4.29,11.22,11.22,0,0,1-3.48,8.2,16.52,16.52,0,0,1-4.81,3.06ZM287,12.26c-1.45,0-2.58,1.52-2.58,3.49s1.1,3.51,2.61,3.51,2.06-1,2.06-3C289.1,13.55,288.43,12.26,287,12.26Z"/><path class="cls-1" d="M312.09,4.36A8,8,0,0,1,314.57,7a17,17,0,0,1,1,3.39,16.81,16.81,0,0,1,6.74-2,15.9,15.9,0,0,0,.61-3.78c0-.8-.36-1.06-1.52-1.06h-.61l-.1-.36a5.44,5.44,0,0,1,2.07-.55c1.22,0,2.54,1,2.54,2a17.28,17.28,0,0,1-1,3.74c5.35.23,9,3.68,9,8.52,0,3.59-2.06,6.65-5.87,8.65a17.21,17.21,0,0,1-6.31,1.87l-.13-.45a16,16,0,0,0,6.25-3.23,9.67,9.67,0,0,0,3.55-7.39,6.86,6.86,0,0,0-2.78-5.8,7.09,7.09,0,0,0-4-1.26,40.84,40.84,0,0,1-5.42,10.07c.45.67.61.9,1.16,1.61.94,1.16,1,1.29,1,1.68a.75.75,0,0,1-.77.71c-.74,0-1.74-.87-2.77-2.36a12.82,12.82,0,0,1-2.49,2.39,4.3,4.3,0,0,1-2.57,1.16c-.75,0-1.1-.42-1.42-1.64a5.16,5.16,0,0,0-1-2.1,3.06,3.06,0,0,1-.74-2c0-2.55,1.84-5.29,5.06-7.52-.58-3.68-.94-4.71-2.45-6.58ZM312,15.46a7.68,7.68,0,0,0-1.1,3.8c0,1.46.91,3.1,1.68,3.1s2.35-1.13,3.9-2.77a30.7,30.7,0,0,1-2-7A10,10,0,0,0,312,15.46Zm5.83,2.45A30.39,30.39,0,0,0,322,9.33a12.68,12.68,0,0,0-6.22,2.32A30.17,30.17,0,0,0,317.79,17.91Z"/><path class="cls-1" d="M364.05,21.26c-3.1,4.2-7.32,6.68-11.31,6.68a5.84,5.84,0,0,1-5.35-2.74c-.65-1.13-.91-2.71-.91-5.45,0-1.78.1-4.84.26-7.78.19-3.48.23-4.39.23-5.55,0-2.77-.33-3.32-2.61-4.29a1.27,1.27,0,0,1,.9-.32,8,8,0,0,1,2.9.74c1.22.58,1.87,1.23,1.87,1.9a3.28,3.28,0,0,1-.29,1.16c-.61,1.94-1.68,11.72-1.68,15.49,0,2,.39,3.13,1.29,3.87a4.73,4.73,0,0,0,2.87.88,16.76,16.76,0,0,0,7.35-2.07,19.63,19.63,0,0,0,4.09-2.87Z"/><path class="cls-1" d="M374.79,6.39c1.7,1.42,2.74,1.74,5.19,1.74a29.37,29.37,0,0,0,4.6-.39c-.12-4.93-.35-5.38-2.8-5.74.45-.45.71-.52,1.61-.52a9.27,9.27,0,0,1,2.71.42c.77.26,1.09.58,1.09,1.07,0,.19,0,.19-.41,1.1a10.22,10.22,0,0,0-.58,3.42c3.19-.62,4.93-1.17,6-1.91a1,1,0,0,1,.39-.13,4.07,4.07,0,0,1,1.67.55,1,1,0,0,1,.55.78c0,.45-.51.71-2.51,1.19a54.42,54.42,0,0,1-6.16,1.13c0,.84,0,1.32,0,2.06s0,1.52,0,2.94a28.47,28.47,0,0,0,3.68-.87,5.17,5.17,0,0,0,1.61-.81.82.82,0,0,1,.48-.13,3.68,3.68,0,0,1,1.64.49.66.66,0,0,1,.39.61c0,.58-.45.84-2.48,1.39a33.5,33.5,0,0,1-5.25.93c.06,1.26.06,1.78.09,2.91s.1,1.71.2,2.51c3,.55,5.8,1.65,7.09,2.78a2.79,2.79,0,0,1,.93,2.13c0,.68-.29,1.13-.71,1.13s-.45-.1-1.29-.9a18.56,18.56,0,0,0-2.7-2,11.65,11.65,0,0,0-3.23-1.35,13.86,13.86,0,0,1,.1,1.42,3.22,3.22,0,0,1-1.1,2.71,7.23,7.23,0,0,1-4.32,1.19c-3.22,0-5.44-1.42-5.44-3.45,0-2.29,3-3.9,7.28-3.9.52,0,.84,0,1.61,0,0-1.55,0-1.78,0-2.23v-2.8c-1.29.06-1.9.09-2.38.09-2.1,0-3.52-.22-4.29-.71a2.8,2.8,0,0,1-1.45-2.45c0-.23,0-.55.06-.9l.49,0c0,1,.19,1.45.67,1.84s1.91.71,3.77.71a26.91,26.91,0,0,0,3.13-.23V12l-.06-2.35V9.26c-1.78.16-3.07.23-4.16.23-3.06,0-4.38-.62-6-2.78Zm7.15,15.87a9.93,9.93,0,0,0-3.51.62c-1.16.45-1.74,1.09-1.74,1.93,0,1.16,1.32,1.84,3.51,1.84a5.37,5.37,0,0,0,3.68-1.16,2.48,2.48,0,0,0,.7-1.68,11.79,11.79,0,0,0,.07-1.22v-.1A19.28,19.28,0,0,0,381.94,22.26Z"/><path class="cls-1" d="M412.92,28.49c3.74-2.55,5.32-4.61,6.12-8.06a3.68,3.68,0,0,1-2.06.64c-2.26,0-4-2-4-4.65,0-2.84,1.77-4.93,4.15-4.93A3.19,3.19,0,0,1,419,12c0-.55,0-2.33,0-3.36,0-.06,0-.36,0-.65a43.88,43.88,0,0,0-8.12,1.62,11.75,11.75,0,0,0-2.1.87A2.2,2.2,0,0,1,406,9.45a4.75,4.75,0,0,1-1.29-2.35,1,1,0,0,1,.16-.39A3.75,3.75,0,0,0,408,8.36a18,18,0,0,0,2.77-.29c3.8-.62,5-.78,8.25-1.13a10.68,10.68,0,0,0-.36-3.58c-.35-.91-1.12-1.36-2.77-1.59.39-.48.61-.58,1.49-.58a10.74,10.74,0,0,1,3.12.46c.77.25,1.23.67,1.23,1.13,0,.25,0,.32-.33.87a8.17,8.17,0,0,0-.71,3.13c.84-.1.84-.1,2.1-.2,3.09-.22,3.45-.29,4.29-.58a2.91,2.91,0,0,1,1.19-.35A5.77,5.77,0,0,1,431,6.84a1,1,0,0,1,.51.87c0,.36-.22.55-.7.55A13.09,13.09,0,0,1,429,8.07a33.66,33.66,0,0,0-5-.33c-1.19,0-2.13,0-3.45.13-.13,1.23-.22,3.2-.22,4.39,0,.23,0,.61,0,1.1a8.45,8.45,0,0,1,1,4.29,11.22,11.22,0,0,1-3.48,8.2,16.46,16.46,0,0,1-4.8,3.06ZM417,12.26c-1.45,0-2.58,1.52-2.58,3.49s1.1,3.51,2.62,3.51,2.06-1,2.06-3C419.11,13.55,418.43,12.26,417,12.26Z"/><path class="cls-1" d="M443.61,25.91a4.16,4.16,0,1,1-4.16-4.16A4.17,4.17,0,0,1,443.61,25.91Zm-7.29,0A3.15,3.15,0,0,0,439.45,29a3.13,3.13,0,1,0-3.13-3.13Z"/><rect class="cls-2" y="150.41" width="81.66" height="44.59" rx="7.8"/><path class="cls-3" d="M12.75,173.32c0-1.82,0-2.29-.14-3.57,2.69.24,3.3.37,3.3.74s-.27.37-1.15.61v2.22h3.13c.7-.84.91-1.11,1.61-1.92A30.91,30.91,0,0,1,22,173.59a.45.45,0,0,1,.13.27c0,.13-.13.23-.3.23h-7v1.42A17.56,17.56,0,0,1,18.93,177a1.4,1.4,0,0,1,.77,1.34,3.14,3.14,0,0,1-.47,1.65c0,.07-.13.1-.23.1s-.3-.06-.64-.6a8.25,8.25,0,0,0-3.6-3.37c0,2.12,0,4.71.1,9.93,0,.3-.06.4-.3.47a6.73,6.73,0,0,1-1.34.13c-.41,0-.54-.1-.54-.4.07-1.45.07-1.45.1-5.05,0-2.45,0-2.45.07-3.77A25.12,25.12,0,0,1,6,184l-.31-.37a27.25,27.25,0,0,0,6.59-9.56H9.79c-.91,0-1.71,0-3.43.17l-.2-1.11c.61.07.61.07,3.6.17Zm5.48-5c.73-.84,1-1.07,1.64-1.91,1.08.94,1.41,1.21,2.42,2.18a.93.93,0,0,1,.07.24.3.3,0,0,1-.27.27H9l-3,.17-.16-1.15a32.14,32.14,0,0,0,3.22.2h5.34a25.11,25.11,0,0,0,2.09-6.46c2.48.61,3.19.88,3.19,1.18s-.3.34-1.18.47a31.8,31.8,0,0,1-3.39,4.81Zm-.61-7.6c.71-.87.94-1.14,1.68-1.95,1.08.91,1.38,1.18,2.45,2.19a.42.42,0,0,1,.14.26.3.3,0,0,1-.3.27H10.06c-1.24,0-1.92,0-3.23.14l-.23-1.15a30.84,30.84,0,0,0,3.46.24h2.69v-.4a24,24,0,0,0-.24-3.84c2.89.27,3.67.4,3.67.71s-.24.33-1.32.74v2.79Zm-8.5,1.21c2.28,2.19,3.06,3.16,3.06,3.87a4.61,4.61,0,0,1-.34,1.31c-.23.51-.74,1-1.07,1s-.37-.3-.51-1.31a16.8,16.8,0,0,0-1.41-4.61Zm16.23,6.19a25.32,25.32,0,0,1-1.92,10.57,16.54,16.54,0,0,1-6.62,7.43l-.37-.5c3-2.59,4.37-4.48,5.38-7.57s1.35-5.86,1.35-12c0-2.89,0-4.88-.17-7.17,1.24.68,1.61.88,2.72,1.58a29.11,29.11,0,0,0,5.14-2.28,9.76,9.76,0,0,0,2-1.35c2.46,1.38,3.06,1.82,3.06,2.22,0,.14-.27.24-.57.24L34,159.19a57.07,57.07,0,0,1-8.64,2.05v6.06h7.09c1-1.15,1-1.15,2-2.19A31.62,31.62,0,0,1,37,167.7c.06.1.1.14.1.2s-.1.17-.24.17h-4.6v5.25c0,1.18,0,5.45.13,12.82,0,.23-.1.3-.37.37a10.62,10.62,0,0,1-1.58.13c-.33,0-.47-.06-.53-.33l.13-13v-5.25Z"/><path class="cls-3" d="M55.72,159.73l1.61-1.89c1.11.95,1.42,1.25,2.46,2.22a.46.46,0,0,1,.13.24c0,.13-.13.2-.37.2H52.6c1.88,1.11,2.58,1.79,2.58,2.53s-.67,1.64-1.14,1.64c-.3,0-.44-.23-.6-1A10.8,10.8,0,0,0,52,160.5H50a23.68,23.68,0,0,1-5.65,5.65l-.33-.3a22,22,0,0,0,4.16-6.09,12.78,12.78,0,0,0,1.28-3.67c3.13.61,3.83.81,3.83,1.15s-.23.37-1.58.57a18.75,18.75,0,0,1-1.17,1.92Zm13.81,17.32c.78-.94,1-1.21,1.72-2.08,1.34,1,1.74,1.31,3,2.39a.47.47,0,0,1,.14.3c0,.1-.14.17-.27.17H61a17.25,17.25,0,0,0,4.43,3c3,1.45,5.11,2,9.85,2.32v.51a2.26,2.26,0,0,0-1.55.81,2.5,2.5,0,0,0-.84,1.38,21,21,0,0,1-7.19-3.13,19.52,19.52,0,0,1-5.21-4.61v2.79c0,1.18.07,3.87.14,5.52,0,.23-.07.33-.24.44a5.27,5.27,0,0,1-1.51.2.49.49,0,0,1-.54-.41c.14-4,.14-4.07.14-5.75V178.7a26.43,26.43,0,0,1-7.66,5.22,34.59,34.59,0,0,1-6.42,2.42l-.2-.47a53.79,53.79,0,0,0,8.13-4.41,25.26,25.26,0,0,0,4.33-3.63h-8a16.94,16.94,0,0,0-2.93.3l-.23-1.41a12.07,12.07,0,0,0,3.16.33h9.78v-.7a20.35,20.35,0,0,0-.14-2.29c1.25.14,2.76.34,3.13.4s.37.17.37.34-.37.44-1.35.67v1.58ZM49,166.42a11.85,11.85,0,0,0-2.15.24l-.24-1.35a9.32,9.32,0,0,0,2.39.34h5.91c.54-.67.71-.88,1.28-1.51.88.8,1.14,1,1.92,1.85a.48.48,0,0,1,.1.23.3.3,0,0,1-.24.2H53v4.68c1.48-.27,1.71-.34,4.7-1l.1.44a55.15,55.15,0,0,1-5.88,2l-4.83,1.34c-.14,1-.27,1.28-.54,1.28s-.27,0-1.21-3.13a38.7,38.7,0,0,0,5.71-.64v-5Zm20.13,5.45v.31c0,.27.44.4,1.28.4,1.24,0,1.68-.13,2-.61a31.12,31.12,0,0,0,1.27-5l.47,0-.16,4.17a2.24,2.24,0,0,1,0,.37v.14c0,.33.1.43.47.5s.71.37.71.74c0,.54-.44.91-1.28,1a18.79,18.79,0,0,1-2.89.21,14.1,14.1,0,0,1-3-.17,1.43,1.43,0,0,1-.81-1.38v-6.56H61.47a14.27,14.27,0,0,1-.41,3.8,8.08,8.08,0,0,1-3.86,4.54,12.68,12.68,0,0,1-3.63,1.62l-.27-.41a11.84,11.84,0,0,0,5-4c.91-1.38,1.21-2.86,1.21-5.92a11.86,11.86,0,0,0-.14-1.78c1.08.57,1.42.74,2.39,1.34h5.28c.47-.54.6-.7,1.07-1.21l1.72,1.28c.26.2.37.34.37.44s-.34.44-1.08.77Zm.77-12.14c.81-1,1-1.31,1.82-2.26,1.27,1.08,1.64,1.42,2.85,2.56.1.1.17.17.17.24s-.17.23-.27.23H65.1c1.71,1,2.35,1.68,2.35,2.36s-.77,1.91-1.24,1.91c-.24,0-.37-.16-.44-.57a9.1,9.1,0,0,0-1.28-3.7H62.34A21.2,21.2,0,0,1,58,164.81l-.33-.34a17.62,17.62,0,0,0,3.19-4.84A11.62,11.62,0,0,0,62,156.16l3,.64c.41.1.64.24.64.4,0,.31-.37.44-1.58.58a16.25,16.25,0,0,1-1.21,1.95Zm-7.79,8.07c2.38,1.28,3.86,2.69,3.86,3.7,0,.78-.64,1.79-1.11,1.79-.27,0-.33-.1-.6-.88A12.62,12.62,0,0,0,61.94,168Z"/><path class="cls-1" d="M136.69,146.82a8.84,8.84,0,0,0,1.82-3,8.62,8.62,0,0,0,.6-2.56.63.63,0,0,0-.33-.62,10.28,10.28,0,0,0-2.78.79.79.79,0,0,1-.39.13,1.15,1.15,0,0,1-.79-.48,1.23,1.23,0,0,1-.43-.75.93.93,0,0,1,.05-.24,1.2,1.2,0,0,0,1,.58,12.79,12.79,0,0,0,2.15-.33c.76-.13,2.36-.33,3.86-.47a5.22,5.22,0,0,0,1-.21.73.73,0,0,1,.31-.06,1.53,1.53,0,0,1,.67.19c.35.16.59.4.59.57s-.14.26-.35.26a1.16,1.16,0,0,1-.32,0,11.82,11.82,0,0,0-2-.17,14.93,14.93,0,0,0-2.05.13c.57.31.82.58.82.87a7.68,7.68,0,0,1-.8,2.46,7.38,7.38,0,0,1-2.48,3.05Zm-.24-9.69a2,2,0,0,0,1.51.67,6.85,6.85,0,0,0,2.63-.61.7.7,0,0,1,.38-.1c.32,0,.85.4.85.65s-.15.23-.65.34a17.32,17.32,0,0,1-2.87.33,2.16,2.16,0,0,1-2-1.16Zm5.81-.49a5.58,5.58,0,0,1,1.48.88.88.88,0,0,1,.39.75c0,.38-.14.67-.31.67s-.18-.09-.28-.31a5.79,5.79,0,0,0-1.39-1.86Zm1.1-.71a5.45,5.45,0,0,1,1.51.72c.35.25.45.43.45.74s-.11.6-.27.6-.18-.06-.28-.25a4.68,4.68,0,0,0-1.51-1.66Z"/><path class="cls-1" d="M150.21,140.89a10.8,10.8,0,0,0,1.79-.23,1.69,1.69,0,0,0,.53-.17,1.29,1.29,0,0,1,.16-.09.49.49,0,0,1,.19-.05,1.32,1.32,0,0,1,.62.43c.21.22.26.3.26.43a.29.29,0,0,1-.09.2,2.45,2.45,0,0,0-.29.87c-.19.71-.45,1.82-.54,2.21a3.16,3.16,0,0,1,.51,0,3.45,3.45,0,0,0,1.32-.18.55.55,0,0,1,.22-.06,1.51,1.51,0,0,1,.52.21c.3.18.49.41.49.58a.27.27,0,0,1-.29.25,2.93,2.93,0,0,1-.67-.13,6.81,6.81,0,0,0-1.51-.12,13.05,13.05,0,0,0-3.26.39,5,5,0,0,0-1.09.35.57.57,0,0,1-.33.1,1,1,0,0,1-.72-.41,1.77,1.77,0,0,1-.41-.83.55.55,0,0,1,0-.21,1.14,1.14,0,0,0,1,.59c.13,0,.46,0,.86-.09.8-.13,1.43-.21,1.9-.26l.77-.11a34.07,34.07,0,0,0,.49-3.44s0-.05,0-.05a11.89,11.89,0,0,0-1.5.33,4.37,4.37,0,0,0-.72.26.82.82,0,0,1-.3.07c-.23,0-.44-.18-.63-.51a1.51,1.51,0,0,1-.24-.67.51.51,0,0,1,.08-.26A1,1,0,0,0,150.21,140.89Z"/><path class="cls-1" d="M160.09,140.84a1.69,1.69,0,0,0,1.22.31l1.55,0,4.89-.08a4.8,4.8,0,0,1,1.63.12.24.24,0,0,1,.17.25.37.37,0,0,1-.28.34,12.55,12.55,0,0,1-3,.15c-1.17,0-4,.08-4.48.11-.59,0-.71.05-.91.16a.58.58,0,0,1-.19,0c-.18,0-.38-.14-.6-.41a2.3,2.3,0,0,1-.47-1.16c0-.18,0-.2.1-.29A1.11,1.11,0,0,0,160.09,140.84Z"/><path class="cls-1" d="M174,146.58a17.34,17.34,0,0,0,4.16-4.81,12.42,12.42,0,0,0,1.49-3.35c0-.13-.06-.16-.25-.16a19.83,19.83,0,0,0-2.32.42,14.15,14.15,0,0,0-2.3.72,1.16,1.16,0,0,1-.46.13c-.27,0-.59-.26-.91-.68a1.48,1.48,0,0,1-.32-.79.45.45,0,0,1,.08-.26,1.21,1.21,0,0,0,1.17.73,32.49,32.49,0,0,0,3.58-.51,4.45,4.45,0,0,0,1.45-.35c.15-.09.15-.09.25-.09a1.87,1.87,0,0,1,.92.58c.26.25.39.45.39.61s0,.18-.18.33a2.3,2.3,0,0,0-.44.69,17.9,17.9,0,0,1-3.61,5.07,12.52,12.52,0,0,1-2.58,1.88Zm9.26-9.48a1.26,1.26,0,1,1-1.25-1.25A1.26,1.26,0,0,1,183.27,137.1Zm-2.13,0a.88.88,0,1,0,.88-.88A.88.88,0,0,0,181.14,137.1Z"/><path class="cls-1" d="M229.83,120.34a7.83,7.83,0,0,0,.49-2.13c0-1-.93-1.53-3.1-1.61v-.88h8.24v.88c-2.13.08-3.1,1-4.22,4l-5.79,15.57h-2.29l-6.34-16.69c-.85-2.33-1.45-2.86-3.18-2.9v-.88h9v.88c-1.85,0-2.65.48-2.65,1.37a8,8,0,0,0,.56,2.13l4.7,12.87Z"/><path class="cls-1" d="M244.1,129.67h1.25a6.51,6.51,0,0,0,1.12,3.75,5.14,5.14,0,0,0,4.38,2.17c2.73,0,4.38-1.41,4.38-3.78a3.11,3.11,0,0,0-1-2.34c-.72-.6-.84-.64-4.5-2.25-4.33-1.89-5.66-3.34-5.66-6.07a6.4,6.4,0,0,1,1.08-3.7,6.23,6.23,0,0,1,5-2.3,17.25,17.25,0,0,1,3.73.49,7.48,7.48,0,0,0,.85.08,8.15,8.15,0,0,0,1.92-.28l-.2,6.35h-1.32c-.08-3.58-1.85-5.71-4.78-5.71-2.49,0-4.1,1.41-4.1,3.58a2.53,2.53,0,0,0,1.08,2.17,19.44,19.44,0,0,0,4.18,2.09c2.69,1.13,3.7,1.73,4.62,2.74a5.54,5.54,0,0,1,1.33,3.82c0,3.7-2.45,6.07-6.23,6.07a20.75,20.75,0,0,1-4-.48,10.46,10.46,0,0,0-1.48-.12,12.26,12.26,0,0,0-1.81.16Z"/><path class="cls-1" d="M82,82.45c0,7.44,0,7.49.15,17.8a.45.45,0,0,1-.35.5,11.34,11.34,0,0,1-2.71.31c-.51,0-.66-.1-.66-.56.1-7.24.1-7.24.1-13.27V82.45H65.4v2.76c0,.36-.1.46-.4.56a15.07,15.07,0,0,1-2.51.25c-.6,0-.8-.15-.8-.65.1-7.55.15-11.57.15-12,0-2.67,0-4.63-.1-8.7a23,23,0,0,1,4.37,2.16h12.4c-.05-9.25-.05-9.25-.3-11.47,1.16.1,2.06.2,2.61.2,2.77.26,3.37.41,3.37.91s-.3.6-2.26,1.31v9.05h14c.81-1,1.06-1.26,1.81-2.21,1.51,1,1.91,1.25,3.27,2.21.35.3.55.5.55.75v0c0,.36-.35.61-1.61,1.31,0,2.31,0,4,0,5.23,0,3.87,0,6.49.2,10.76,0,.36-.1.46-.4.61a11.35,11.35,0,0,1-2.61.3c-.5,0-.65-.15-.65-.61V82.45ZM78.51,70.53V68H65.4V81.29H78.51ZM96.4,68H81.93c0,1.71,0,6.13,0,13.32H96.4Z"/><path class="cls-1" d="M152.25,67.61c1.31-1.76,1.76-2.31,3.06-3.87,2.31,1.76,3,2.31,5.08,4.18.15.25.25.35.25.5s-.25.35-.55.35h-21.3V80.54h9.29c1-1.16,1.31-1.51,2.21-2.57,1.46,1.06,1.91,1.36,3.27,2.37.35.25.45.45.45.65,0,.35-.3.6-1.81,1.46,0,3.37,0,5.88,0,7.74,0,4.43,0,6.84.15,9.66-.05.55-.75.75-2.66.75-.91,0-1.11,0-1.16-.45V97H125.33v3.17c0,.6-.76.81-2.62.81-.9,0-1.1-.1-1.1-.56.15-3.57.15-5.13.15-13.68,0-3.82,0-4.22-.15-8.8a29.24,29.24,0,0,1,4.32,2.62h9.29V68.77H120a17.15,17.15,0,0,0-4.47.35l-.3-2a15.8,15.8,0,0,0,4.77.5h15.27V61.33a56.44,56.44,0,0,0-.25-6.14l2.66.2c2.82.25,3.47.41,3.47,1s-.5.7-2.31,1.36v9.9ZM125.33,95.83h23.15V81.69H125.33Z"/><path class="cls-1" d="M183.74,79.08a44,44,0,0,1,8.39,5.08c6.08-5.83,8.79-8.7,11.5-12.17,1.21-1.56,1.61-2.11,1.61-2.37s-.3-.4-.8-.4a119.11,119.11,0,0,0-15.58,2.27c-5.72,1.1-7.83,1.71-9.89,2.71a3.2,3.2,0,0,1-1.41.4c-.9,0-2.16-.95-3.36-2.61a7.72,7.72,0,0,1-1.76-3.82,2.48,2.48,0,0,1,.3-1.16,6.08,6.08,0,0,0,2.41,2.51,5.43,5.43,0,0,0,3.07.61c2.41,0,6.73-.45,16.62-1.81,4.72-.61,7.29-1,7.74-1.06a3.14,3.14,0,0,0,1.6-.6,2.31,2.31,0,0,1,1.26-.35c.85,0,1.86.7,3.52,2.41,1.45,1.51,2.11,2.46,2.11,3.12a1,1,0,0,1-.61,1l-1.25.46a10.11,10.11,0,0,0-2.81,1.86c-.46.35-1.76,1.35-3.72,2.76-1.06.81-2.51,1.91-4.27,3.27A64.38,64.38,0,0,1,193.13,85c3.37,2.87,4.32,4.23,4.32,6.34s-.7,3.32-1.7,3.32c-.71,0-1.11-.4-1.76-1.81a42.06,42.06,0,0,0-4.87-7.39,46.16,46.16,0,0,0-5.83-5.74Z"/><path class="cls-1" d="M225.58,63.74c4.82,1.21,7.74,2.36,9.7,3.77a3.87,3.87,0,0,1,1.7,3.42c0,1.66-.55,2.82-1.4,2.82-.56,0-.81-.25-2.16-2a26.09,26.09,0,0,0-8.19-7.4Zm35.72,2.87a52.73,52.73,0,0,1-10.55,13.53A99.28,99.28,0,0,1,236.63,91.6c-2.36,1.66-2.61,1.86-3,2.32-.81,1-1.11,1.2-1.76,1.2-2.06,0-5.88-4.83-5.88-7.39a2.46,2.46,0,0,1,.25-1,7.94,7.94,0,0,0,1.81,2.22,3.29,3.29,0,0,0,2,1c.86,0,2.41-.65,4.87-2.11a72.86,72.86,0,0,0,12-8.3,79.14,79.14,0,0,0,13.51-13.43Z"/><path class="cls-1" d="M275.46,71.13c4.07.81,7.13,1.86,8.79,3a3.6,3.6,0,0,1,1.91,3.32c0,1.31-.66,2.41-1.41,2.41-.5,0-.8-.2-1.56-1.15a24.82,24.82,0,0,0-8-6.89Zm38.88-1.2c-2.72,3.87-5.28,6.74-10.65,11.76-4.17,3.93-9.65,7.8-17.43,12.43a10.66,10.66,0,0,0-2.41,1.71,1.72,1.72,0,0,1-1.16.5c-1,0-2.11-1-3.57-3a8.38,8.38,0,0,1-1.55-4,1.77,1.77,0,0,1,.4-1.21c1.1,2.16,2.31,3.17,3.82,3.17,1.35,0,5.07-1.71,9.84-4.58a106.84,106.84,0,0,0,22-17.35ZM281,62.18c8,1.91,10.6,3.47,10.6,6.44,0,1.41-.6,2.51-1.35,2.51-.56,0-.56,0-2.72-2.66a23.15,23.15,0,0,0-6.88-5.58Z"/><path class="cls-1" d="M337.09,73.3c2.16,0,6.48-.36,12-.91,2.11-.25,2.11-.25,2.87-.65a1.51,1.51,0,0,1,.8-.25c.6,0,1.41.55,2.46,1.71a3.33,3.33,0,0,1,1.11,1.91.9.9,0,0,1-.25.65,2.16,2.16,0,0,0-.61,1.56c-.2,1.26-.2,1.26-.6,3.82-.3,1.76-.8,5.33-1.61,10.61,1.31.76,2,1.46,2,2.11a.87.87,0,0,1-.9.91,7.92,7.92,0,0,1-1,0,22.17,22.17,0,0,0-3.06-.15c-4.62,0-10.35.7-12.66,1.61a3.37,3.37,0,0,1-1.16.25c-1.1,0-2.41-1-3.51-2.77a3.87,3.87,0,0,1-.75-1.91,1.67,1.67,0,0,1,.2-.7c1.4,1.71,2.56,2.41,4,2.41a16,16,0,0,0,2.52-.25c2.16-.3,7.23-.8,11.5-1.21.25-1.5.55-4.42,1-8.44-5,.3-11.5,1.3-13.46,2.06a3.23,3.23,0,0,1-1,.2c-1.16,0-3.37-2.72-3.37-4.13a1.54,1.54,0,0,1,.2-.75,3.5,3.5,0,0,0,3.32,2,36.84,36.84,0,0,0,4.42-.4c4.52-.55,4.87-.55,10-1,.26-2.21.56-6,.61-7.24-7.29.5-12.71,1.21-14.42,1.81a2.7,2.7,0,0,1-1.15.25c-.76,0-1.36-.35-2.16-1.3A5.42,5.42,0,0,1,333,72a5.51,5.51,0,0,1,.15-1C334.12,72.84,334.83,73.3,337.09,73.3Z"/><path class="cls-1" d="M377.12,63.74c4.82,1.21,7.73,2.36,9.69,3.77a3.86,3.86,0,0,1,1.71,3.42c0,1.66-.55,2.82-1.41,2.82-.55,0-.8-.25-2.16-2a26.16,26.16,0,0,0-8.18-7.4Zm35.71,2.87a52.29,52.29,0,0,1-10.55,13.53A99.16,99.16,0,0,1,388.17,91.6c-2.36,1.66-2.61,1.86-3,2.32-.81,1-1.11,1.2-1.76,1.2-2.06,0-5.88-4.83-5.88-7.39a2.46,2.46,0,0,1,.25-1,7.94,7.94,0,0,0,1.81,2.22,3.26,3.26,0,0,0,2,1c.85,0,2.41-.65,4.87-2.11a72.86,72.86,0,0,0,12-8.3A79.14,79.14,0,0,0,412,66.15Z"/><path class="cls-1" d="M95.24,189.4c1.71,0,2.71-.25,3.16-.75s.56-.65.66-4.43V160.54c-.1-3.22-.1-3.27-.26-3.72-.35-1.06-1.25-1.46-3.56-1.46v-1.21H109.4c5.18,0,8.79.65,11.26,2.06,5.12,2.92,7.78,8.4,7.78,15.94,0,7.2-2.46,12.68-7,15.64-3.07,2-7.18,2.82-13.26,2.82H95.24Zm13.51-.3c4.92,0,8.79-1.41,11-4s3.57-6.84,3.57-12.07a24.27,24.27,0,0,0-2.71-12c-2.11-3.52-6.23-5.33-12.26-5.33h-4.77V189.1Z"/><path class="cls-1" d="M153,154.15v1.21c-3.67.2-3.92.5-3.92,5.18v14.38c0,5.33.5,8.15,1.81,10.46,1.56,2.72,4.27,4.07,8,4.07,4.42,0,7.73-1.71,9.39-4.77,1.11-2.17,1.61-5.23,1.61-10.11v-11c0-4.52-.15-6-.71-6.78-.65-1-1.7-1.36-3.81-1.41v-1.21h11.2v1.21c-2,0-3,.45-3.67,1.41s-.95,2.61-.95,6.78v11.17c0,5.93-.71,9.2-2.56,11.77-2.16,3.06-6.18,4.77-11.11,4.77s-9.14-1.76-11.4-4.67c-1.76-2.27-2.41-5.13-2.41-10.36V160.54c0-4.68-.25-5-3.87-5.18v-1.21Z"/><path class="cls-1" d="M195.44,184.22c0,4.63.3,5,4.22,5.13v1.26H187.1v-1.26c3.57-.1,3.87-.45,3.87-5.13V160.54c0-4.68-.25-5-3.87-5.18v-1.21h13.82a21.68,21.68,0,0,1,8.49,1.36q5,2.34,5,8.75c0,4.83-2,7.89-6.08,9.35a31.4,31.4,0,0,1-9.59,1.21h-3.27ZM199,173.31c3.92,0,6.63-.7,8.19-2.11s2.31-3.77,2.31-6.74c0-5.88-3.17-8.8-9.55-8.8h-4.52v17.65Z"/><path class="cls-1" d="M263.15,169.14a45.17,45.17,0,0,1-7.48,8.55,63.38,63.38,0,0,1-15.17,10.25c-2.82,1.46-2.87,1.46-3.77,2.42a1.54,1.54,0,0,1-1.15.65c-1,0-3.32-3-3.32-4.32,0-.25,0-.25.25-.91.35-1.1.4-2.26.4-7.69,0-11.12-.25-16-.9-17.85-.45-1.26-1.26-1.87-3.47-2.62a2.43,2.43,0,0,1,1.56-.5,9.55,9.55,0,0,1,4,1.2c2,1.06,3,2.07,3,3.07a2.56,2.56,0,0,1-.25,1.06,27.06,27.06,0,0,0-.65,5c-.25,3.06-.55,12.22-.55,15.94v2.51a63.82,63.82,0,0,0,17.12-8.9,67.33,67.33,0,0,0,9.75-8.45Z"/><path class="cls-1" d="M277.52,167c4.16.86,7.13,1.86,8.79,3a3.59,3.59,0,0,1,1.9,3.32c0,1.31-.65,2.41-1.4,2.41-.5,0-.81-.2-1.56-1.15a24.75,24.75,0,0,0-8-6.89Zm38.77-1.25a58.64,58.64,0,0,1-7.48,8.6,114.33,114.33,0,0,1-19,14.63,31.58,31.58,0,0,0-3.87,2.77,1.68,1.68,0,0,1-1.15.5c-1,0-2.16-1-3.57-3a8.47,8.47,0,0,1-1.56-3.87,1.72,1.72,0,0,1,.46-1.16c.95,1.91,2.36,3.12,3.76,3.12,1.11,0,4.42-1.66,9.65-4.93a116.19,116.19,0,0,0,22.2-17.1ZM283,158.07c8,1.91,10.6,3.47,10.6,6.39,0,1.41-.6,2.51-1.36,2.51-.55,0-.55,0-2.71-2.66a23,23,0,0,0-6.88-5.53Zm20.6-4c5.37,2.36,7.78,4.37,7.78,6.49a4,4,0,0,1-.7,2.41.75.75,0,0,1-.6.25c-.56,0-.71-.15-1.41-1.51a25.18,25.18,0,0,0-5.48-7.14Zm4.67-3.22c5.62,1.86,8.13,3.72,8.13,6,0,1.45-.5,2.56-1.2,2.56-.45,0-.75-.3-1.31-1.26a22.48,22.48,0,0,0-6-6.74Z"/><path class="cls-1" d="M338.64,194.43a36,36,0,0,0,7.29-11.87,34.51,34.51,0,0,0,2.41-10.26,2.51,2.51,0,0,0-1.31-2.46A40.09,40.09,0,0,0,335.88,173a3.15,3.15,0,0,1-1.56.5c-.95,0-2-.6-3.16-1.91s-1.71-2.21-1.71-3a2.91,2.91,0,0,1,.2-1,4.74,4.74,0,0,0,4.12,2.31c1.11,0,1.11,0,8.59-1.31,3.06-.5,9.44-1.3,15.47-1.86a23.83,23.83,0,0,0,3.92-.85,2.84,2.84,0,0,1,1.26-.25,6.4,6.4,0,0,1,2.66.75c1.4.65,2.36,1.61,2.36,2.31s-.55,1-1.41,1a4.72,4.72,0,0,1-1.25-.15,47.74,47.74,0,0,0-8.09-.65,61.84,61.84,0,0,0-8.24.5c2.31,1.26,3.32,2.31,3.32,3.47,0,1.81-1.46,6.33-3.22,9.85-2.76,5.64-5.32,8.81-9.94,12.23Zm-.95-38.82c2.11,2,3.77,2.71,6,2.71a27.51,27.51,0,0,0,10.55-2.46,2.94,2.94,0,0,1,1.5-.4c1.31,0,3.42,1.61,3.42,2.61,0,.66-.61.91-2.61,1.36a71.25,71.25,0,0,1-11.51,1.31c-3.71,0-5.72-1.11-8.13-4.63Zm23.26-2a23.55,23.55,0,0,1,5.92,3.52c1.21,1.1,1.56,1.76,1.56,3,0,1.51-.55,2.67-1.26,2.67-.4,0-.7-.35-1.1-1.21a22.65,22.65,0,0,0-5.58-7.44Zm4.42-2.82a21,21,0,0,1,6,2.87c1.41,1,1.81,1.71,1.81,3,0,1.41-.45,2.42-1.1,2.42-.4,0-.71-.25-1.11-1a18.59,18.59,0,0,0-6-6.64Z"/><path class="cls-1" d="M386.51,158.73c4.82,1.2,7.74,2.36,9.69,3.77a3.85,3.85,0,0,1,1.71,3.42c0,1.66-.55,2.81-1.4,2.81-.56,0-.81-.25-2.16-2a26.05,26.05,0,0,0-8.19-7.39Zm35.71,2.86a52.28,52.28,0,0,1-10.54,13.53,99.87,99.87,0,0,1-14.12,11.47c-2.36,1.66-2.61,1.86-3,2.31-.81,1-1.11,1.21-1.76,1.21-2.06,0-5.88-4.83-5.88-7.4a2.39,2.39,0,0,1,.25-1,7.7,7.7,0,0,0,1.81,2.21,3.23,3.23,0,0,0,2,1.06c.85,0,2.41-.66,4.87-2.11a72.86,72.86,0,0,0,12-8.3,79.5,79.5,0,0,0,13.51-13.43Z"/><path class="cls-1" d="M435,190.51a73,73,0,0,0,13.51-11,89.45,89.45,0,0,0,9.6-12.53,33.85,33.85,0,0,0,3.41-6.48c-2.41.15-5.07.7-10.6,2.21a25.33,25.33,0,0,0-4.22,1.36,2.34,2.34,0,0,1-.85.15c-1.11,0-2.16-.91-3.27-2.87a6.24,6.24,0,0,1-1.05-3,2,2,0,0,1,.35-1c1.46,2.61,2.51,3.37,4.72,3.37a80.62,80.62,0,0,0,10.55-1.41c2.91-.55,3.82-.86,4.72-1.41a2,2,0,0,1,1.16-.45c1.05,0,3.92,2.56,3.92,3.52,0,.35-.2.65-.66.95-1,.71-1,.71-2.86,3.42-2.41,3.63-2.41,3.63-6.33,8.75,7.08,3.73,11.05,6.29,13,8.5a6.66,6.66,0,0,1,1.91,5c0,1.61-.5,2.62-1.36,2.62-.35,0-.75-.25-1.15-.81a15.19,15.19,0,0,1-1.21-2A43.13,43.13,0,0,0,456.33,175a54.74,54.74,0,0,1-12.16,11.32,44,44,0,0,1-8.79,4.92Z"/></svg>