<svg id="レイヤー_1" data-name="レイヤー 1" xmlns="http://www.w3.org/2000/svg" viewBox="0 0 596.97 273.16"><defs><style>.cls-1,.cls-11,.cls-12{fill:#fff;}.cls-1,.cls-10,.cls-11,.cls-13,.cls-16,.cls-17,.cls-18,.cls-19,.cls-2,.cls-3,.cls-4,.cls-5,.cls-6,.cls-7,.cls-8,.cls-9{stroke:#231815;}.cls-1,.cls-10,.cls-11,.cls-13,.cls-16,.cls-17,.cls-19,.cls-2,.cls-3,.cls-4,.cls-5,.cls-6,.cls-7,.cls-8{stroke-linecap:round;}.cls-1,.cls-10,.cls-11,.cls-13,.cls-16,.cls-17,.cls-18,.cls-19,.cls-2,.cls-3,.cls-4,.cls-5,.cls-6,.cls-7,.cls-8{stroke-linejoin:round;}.cls-1,.cls-2,.cls-3,.cls-4,.cls-5,.cls-6,.cls-7,.cls-8{stroke-width:0.97px;}.cls-2{fill:#98bfa0;}.cls-17,.cls-3{fill:#dfeae0;}.cls-13,.cls-16,.cls-18,.cls-4{fill:none;}.cls-5{fill:#95a899;}.cls-6{fill:#5d7865;}.cls-7{fill:#c1cac3;}.cls-8{fill:#bed4c0;}.cls-10,.cls-15,.cls-9{fill:#6faa82;}.cls-9{stroke-miterlimit:10;stroke-width:1.11px;}.cls-10,.cls-11,.cls-13,.cls-17,.cls-18,.cls-19{stroke-width:1.21px;}.cls-14,.cls-19{fill:#231815;}.cls-16{stroke-width:1.45px;}</style></defs><title>main-pic-sp</title><rect class="cls-1" x="419.79" y="119.91" width="145.57" height="80.41"/><polyline class="cls-2" points="531.95 168.36 531.95 200.37 557.96 200.37 557.96 168.36"/><polyline class="cls-2" points="453.97 168.37 453.97 200.38 427.96 200.38 427.96 168.37"/><rect class="cls-2" x="428.19" y="128.36" width="26.01" height="25.06"/><polygon class="cls-3" points="574.83 103.74 581.82 103.74 594.74 143.67 587.75 143.67 574.83 103.74"/><rect class="cls-2" x="429.8" y="129.96" width="22.56" height="25.06"/><rect class="cls-2" x="466.18" y="128.36" width="14.66" height="25.06"/><rect class="cls-2" x="505.16" y="128.36" width="14.66" height="25.06"/><rect class="cls-2" x="531.95" y="128.36" width="26.01" height="25.06"/><rect class="cls-2" x="467.9" y="129.96" width="11.28" height="25.06"/><line class="cls-4" x1="441.08" y1="129.96" x2="441.08" y2="155.02"/><rect class="cls-2" x="533.68" y="129.96" width="22.56" height="25.06" transform="translate(1089.91 284.97) rotate(-180)"/><rect class="cls-2" x="506.85" y="129.96" width="11.28" height="25.06" transform="translate(1024.98 284.97) rotate(-180)"/><line class="cls-4" x1="544.95" y1="129.96" x2="544.95" y2="155.02"/><rect class="cls-1" x="409.16" y="142.82" width="65.8" height="25.53"/><polygon class="cls-3" points="487.46 168.35 474.96 168.35 474.96 142.82 487.46 144.78 487.46 168.35"/><rect class="cls-1" x="491.11" y="142.82" width="65.8" height="25.53"/><rect class="cls-3" x="419.79" y="200.37" width="145.57" height="5.77"/><polygon class="cls-3" points="590.34 193.99 565.36 206.15 565.36 200.37 590.34 189.87 590.34 193.99"/><polygon class="cls-3" points="578.39 107.72 565.36 119.92 565.36 145.39 556.91 142.82 556.91 168.35 565.36 168.44 565.36 200.32 590.34 189.87 590.34 142.1 578.39 107.72"/><polygon class="cls-5" points="582.62 101.26 428.88 101.26 408.6 121.24 562.34 121.24 582.62 101.26"/><polygon class="cls-3" points="521.35 199.86 508.39 203.12 508.39 199.51 521.35 196.97 521.35 199.86"/><polygon class="cls-3" points="524.98 202.64 512.39 206.48 512.35 203.58 524.93 200.21 524.98 202.64"/><polygon class="cls-3" points="527.8 206.18 515.61 210.22 515.61 206.62 527.8 202.71 527.8 206.18"/><rect class="cls-2" x="429.8" y="173.01" width="22.56" height="25.06"/><line class="cls-1" x1="441.08" y1="173.01" x2="441.08" y2="198.07"/><rect class="cls-2" x="533.68" y="173.01" width="22.56" height="25.06" transform="translate(1089.91 371.08) rotate(-180)"/><line class="cls-1" x1="544.95" y1="173.01" x2="544.95" y2="198.07"/><polygon class="cls-2" points="572.88 147.09 569.18 145.82 569.18 130.18 572.88 132.39 572.88 147.09"/><polygon class="cls-2" points="581 149.54 577.95 148.49 577.95 134.97 581 136.68 581 149.54"/><polygon class="cls-2" points="587.75 151.95 585.59 151.13 585.59 139.29 587.75 140.47 587.75 151.95"/><polygon class="cls-2" points="572.88 186.24 569.18 187.19 569.18 172.2 572.88 172.07 572.88 186.24"/><polygon class="cls-2" points="587.75 182.51 585.59 182.93 585.59 171.56 587.75 171.5 587.75 182.51"/><rect class="cls-6" x="408.64" y="121.24" width="153.46" height="3.55"/><polygon class="cls-6" points="582.62 101.26 596.48 141.02 594.74 143.67 581.62 105.48 562.1 124.79 562.1 121.24 582.62 101.26"/><polygon class="cls-7" points="499.46 168.35 499.46 152.05 492.55 151.16 492.55 200.32 505.38 200.32 515.34 198.01 515.34 168.35 499.46 168.35"/><rect class="cls-8" x="408.64" y="142.24" width="66.33" height="2"/><polygon class="cls-8" points="488 145.9 474.94 144.25 474.94 142.25 488 143.9 488 145.9"/><rect class="cls-8" x="490.55" y="142.24" width="66.33" height="2"/><polygon class="cls-8" points="565.69 146.98 556.85 144.25 556.85 142.25 565.69 144.98 565.69 146.98"/><polygon class="cls-3" points="508.19 203.41 508.19 199.51 493.36 199.51 493.36 210.22 515.61 210.22 515.61 206.42 512.5 206.42 512.5 203.46 508.19 203.41"/><polygon class="cls-3" points="527.88 202.54 524.98 202.54 512.54 206.4 515.9 206.4 527.88 202.54"/><polygon class="cls-3" points="524.73 200.12 521.82 200.12 509.17 203.38 512.53 203.38 524.73 200.12"/><polygon class="cls-3" points="521.35 196.97 508.09 196.97 494.3 200.12 508.01 200.12 521.35 196.97"/><rect class="cls-3" x="499.81" y="171.4" width="12.79" height="25.56"/><rect class="cls-3" x="531.02" y="168.35" width="23.6" height="4.66"/><rect class="cls-3" x="427.03" y="168.36" width="23.6" height="4.66"/><polygon class="cls-3" points="447.68 203.41 447.68 199.51 462.51 199.51 462.51 210.22 440.26 210.22 440.26 206.42 443.37 206.42 443.37 203.46 447.68 203.41"/><polygon class="cls-7" points="492.55 176.65 492.55 151.16 463.06 151.16 463.06 176.65 451.38 176.65 451.38 211.48 504.23 211.48 504.23 176.65 492.55 176.65"/><rect class="cls-8" x="461.64" y="150.79" width="30.93" height="2"/><polygon class="cls-8" points="500.47 153.85 492.55 152.79 492.55 150.79 500.47 151.85 500.47 153.85"/><polygon class="cls-7" points="508.19 176.68 504.23 176.68 504.23 211.48 508.19 210.22 508.19 176.68"/><rect class="cls-8" x="491.5" y="176.68" width="12.98" height="2"/><rect class="cls-8" x="450.13" y="176.68" width="12.98" height="2"/><polygon class="cls-8" points="509.68 178.54 504.45 178.68 504.45 176.68 509.68 176.54 509.68 178.54"/><polyline class="cls-4" points="565.36 168.44 565.36 166.48 590.07 167.4"/><polyline class="cls-4" points="569.18 132.42 571.54 133.75 571.54 146.63"/><polyline class="cls-4" points="578.06 137.08 580.08 138.22 580.08 149.11"/><polyline class="cls-4" points="585.62 141.11 587.45 141.97 587.45 151.84"/><polyline class="cls-4" points="569.18 173.83 571.54 173.69 571.54 186.26"/><polyline class="cls-4" points="574.94 172.01 577.31 171.88 577.31 193.55"/><polyline class="cls-4" points="581.1 171.64 583.46 171.5 583.46 190.94"/><polyline class="cls-4" points="585.62 172.87 587.45 172.71 587.45 182.58"/><polyline class="cls-4" points="451.38 201.75 503.95 201.75 508.07 200.84"/><polygon class="cls-3" points="508.19 210.22 504.23 211.48 504.23 201.75 508.19 200.84 508.19 210.22"/><rect class="cls-3" x="451.38" y="201.75" width="52.85" height="9.73"/><rect class="cls-1" x="58.8" y="104.69" width="97.67" height="34.5"/><polygon class="cls-3" points="97.6 119.86 94.05 119.86 94.05 107.28 97.6 105.5 97.6 119.86"/><polygon class="cls-8" points="58.8 139.19 39.84 133.79 39.84 116.94 58.8 104.34 58.8 139.19"/><rect class="cls-2" x="65.64" y="110.41" width="25.29" height="9.08"/><line class="cls-4" x1="78.28" y1="110.41" x2="78.28" y2="119.39"/><line class="cls-4" x1="84.5" y1="110.41" x2="84.5" y2="119.39"/><line class="cls-4" x1="71.59" y1="110.41" x2="71.59" y2="119.39"/><rect class="cls-2" x="124.69" y="110.41" width="25.29" height="9.08"/><line class="cls-4" x1="137.33" y1="110.41" x2="137.33" y2="119.39"/><line class="cls-4" x1="143.55" y1="110.41" x2="143.55" y2="119.39"/><line class="cls-4" x1="130.64" y1="110.41" x2="130.64" y2="119.39"/><polygon class="cls-3" points="62.39 121.13 58.8 123.22 58.8 117.11 62.39 115.03 62.39 121.13"/><polygon class="cls-1" points="163.63 121.13 62.39 121.13 62.35 115.06 163.6 115.06 163.63 121.13"/><polygon class="cls-8" points="62.39 104.7 58.8 107.05 58.8 104.38 62.39 102.05 62.39 104.7"/><rect class="cls-8" x="62.39" y="102.03" width="101.23" height="2.71"/><polygon class="cls-3" points="94.02 107.05 58.8 107.05 62.39 104.75 98.92 104.75 94.02 107.05"/><polygon class="cls-3" points="156.47 107.05 117.85 107.05 121.44 104.75 163.62 104.75 156.47 107.05"/><rect class="cls-3" x="97.6" y="102.05" width="28.89" height="20.36"/><rect class="cls-2" x="102.95" y="108.31" width="3.3" height="4.89"/><rect class="cls-2" x="117.85" y="108.31" width="3.3" height="4.89"/><polygon class="cls-8" points="7.99 201.44 0.48 198.79 0.48 139.55 7.99 134.25 7.99 201.44"/><rect class="cls-1" x="7.99" y="134.25" width="5.6" height="67.22"/><rect class="cls-1" x="25.42" y="122.61" width="159.14" height="85.35"/><polygon class="cls-3" points="122.21 141.6 86.98 141.6 90.58 140 125.76 140 122.21 141.6"/><polygon class="cls-1" points="122.21 158.92 86.98 158.92 90.58 158.22 125.76 158.22 122.21 158.92"/><polygon class="cls-3" points="122.21 124.44 86.98 124.44 90.58 121.84 126.28 121.84 122.21 124.44"/><polygon class="cls-3" points="180.69 141.6 145.47 141.6 149.06 140 191.43 140 180.69 141.6"/><polygon class="cls-1" points="180.69 158.92 145.47 158.92 149.06 158.22 191.43 158.22 180.69 158.92"/><polygon class="cls-1" points="180.69 124.44 145.47 124.44 149.06 121.84 191.43 121.84 180.69 124.44"/><polygon class="cls-8" points="17.77 204.64 10.26 202 10.26 136.14 17.77 130.96 17.77 204.64"/><polygon class="cls-3" points="29.01 137.28 25.42 139.38 25.42 133.27 29.01 131.19 29.01 137.28"/><polygon class="cls-8" points="29.01 121.8 25.42 124.44 25.42 121.77 29.01 119.15 29.01 121.8"/><polygon class="cls-8" points="29.01 139.81 25.42 141.6 25.42 139.39 29.01 137.31 29.01 139.81"/><polygon class="cls-3" points="64.19 136.14 60.65 136.14 60.65 123.57 64.19 121.79 64.19 136.14"/><rect class="cls-8" x="29.01" y="119.13" width="162.41" height="2.71"/><rect class="cls-2" x="32.26" y="196.65" width="25.29" height="9.08"/><line class="cls-4" x1="44.91" y1="196.65" x2="44.91" y2="205.63"/><line class="cls-4" x1="51.12" y1="196.65" x2="51.12" y2="205.63"/><line class="cls-4" x1="38.22" y1="196.65" x2="38.22" y2="205.63"/><rect class="cls-2" x="32.26" y="143.54" width="25.29" height="9.08"/><line class="cls-4" x1="44.91" y1="143.54" x2="44.91" y2="152.52"/><line class="cls-4" x1="51.12" y1="143.54" x2="51.12" y2="152.52"/><line class="cls-4" x1="38.22" y1="143.54" x2="38.22" y2="152.52"/><rect class="cls-2" x="32.26" y="160.72" width="25.29" height="9.08"/><line class="cls-4" x1="44.91" y1="160.72" x2="44.91" y2="169.7"/><line class="cls-4" x1="51.12" y1="160.72" x2="51.12" y2="169.7"/><line class="cls-4" x1="38.22" y1="160.72" x2="38.22" y2="169.7"/><rect class="cls-2" x="32.26" y="126.3" width="25.29" height="9.08"/><line class="cls-4" x1="44.91" y1="126.3" x2="44.91" y2="135.28"/><line class="cls-4" x1="51.12" y1="126.3" x2="51.12" y2="135.28"/><line class="cls-4" x1="38.22" y1="126.3" x2="38.22" y2="135.28"/><rect class="cls-2" x="32.26" y="178.01" width="25.29" height="9.08"/><line class="cls-4" x1="44.91" y1="178.01" x2="44.91" y2="186.99"/><line class="cls-4" x1="51.12" y1="178.01" x2="51.12" y2="186.99"/><line class="cls-4" x1="38.22" y1="178.01" x2="38.22" y2="186.99"/><rect class="cls-8" x="29.01" y="173.45" width="162.41" height="2.71"/><polygon class="cls-3" points="64.19 154.35 60.65 154.35 60.65 141.6 64.19 140 64.19 154.35"/><polygon class="cls-3" points="64.19 172.44 60.65 172.44 60.65 158.87 64.19 158.09 64.19 172.44"/><polygon class="cls-3" points="64.19 190.52 60.65 190.16 60.65 176.58 64.19 176.17 64.19 190.52"/><polygon class="cls-3" points="64.19 194.26 60.65 194.26 60.65 207.83 64.19 208.61 64.19 194.26"/><polygon class="cls-3" points="125.53 136.96 121.98 136.96 121.98 124.39 125.53 122.61 125.53 136.96"/><rect class="cls-2" x="91.64" y="196.65" width="25.29" height="9.08"/><line class="cls-4" x1="104.29" y1="196.65" x2="104.29" y2="205.63"/><line class="cls-4" x1="110.5" y1="196.65" x2="110.5" y2="205.63"/><line class="cls-4" x1="97.59" y1="196.65" x2="97.59" y2="205.63"/><rect class="cls-2" x="91.64" y="143.54" width="25.29" height="9.08"/><line class="cls-4" x1="104.29" y1="143.54" x2="104.29" y2="152.52"/><line class="cls-4" x1="110.5" y1="143.54" x2="110.5" y2="152.52"/><line class="cls-4" x1="97.59" y1="143.54" x2="97.59" y2="152.52"/><rect class="cls-2" x="91.64" y="160.72" width="25.29" height="9.08"/><line class="cls-4" x1="104.29" y1="160.72" x2="104.29" y2="169.7"/><line class="cls-4" x1="110.5" y1="160.72" x2="110.5" y2="169.7"/><line class="cls-4" x1="97.59" y1="160.72" x2="97.59" y2="169.7"/><rect class="cls-2" x="91.64" y="126.3" width="25.29" height="9.08"/><line class="cls-4" x1="104.29" y1="126.3" x2="104.29" y2="135.28"/><line class="cls-4" x1="110.5" y1="126.3" x2="110.5" y2="135.28"/><line class="cls-4" x1="97.59" y1="126.3" x2="97.59" y2="135.28"/><rect class="cls-2" x="91.64" y="178.01" width="25.29" height="9.08"/><line class="cls-4" x1="104.29" y1="178.01" x2="104.29" y2="186.99"/><line class="cls-4" x1="110.5" y1="178.01" x2="110.5" y2="186.99"/><line class="cls-4" x1="97.59" y1="178.01" x2="97.59" y2="186.99"/><rect class="cls-2" x="152.65" y="196.65" width="25.29" height="9.08"/><line class="cls-4" x1="165.3" y1="196.65" x2="165.3" y2="205.63"/><line class="cls-4" x1="171.51" y1="196.65" x2="171.51" y2="205.63"/><line class="cls-4" x1="158.6" y1="196.65" x2="158.6" y2="205.63"/><rect class="cls-2" x="152.65" y="143.54" width="25.29" height="9.08"/><line class="cls-4" x1="165.3" y1="143.54" x2="165.3" y2="152.52"/><line class="cls-4" x1="171.51" y1="143.54" x2="171.51" y2="152.52"/><line class="cls-4" x1="158.6" y1="143.54" x2="158.6" y2="152.52"/><rect class="cls-2" x="152.65" y="160.72" width="25.29" height="9.08"/><line class="cls-4" x1="165.3" y1="160.72" x2="165.3" y2="169.7"/><line class="cls-4" x1="171.51" y1="160.72" x2="171.51" y2="169.7"/><line class="cls-4" x1="158.6" y1="160.72" x2="158.6" y2="169.7"/><rect class="cls-2" x="152.65" y="126.3" width="25.29" height="9.08"/><line class="cls-4" x1="165.3" y1="126.3" x2="165.3" y2="135.28"/><line class="cls-4" x1="171.51" y1="126.3" x2="171.51" y2="135.28"/><line class="cls-4" x1="158.6" y1="126.3" x2="158.6" y2="135.28"/><rect class="cls-2" x="152.65" y="178.01" width="25.29" height="9.08"/><line class="cls-4" x1="165.3" y1="178.01" x2="165.3" y2="186.99"/><line class="cls-4" x1="171.51" y1="178.01" x2="171.51" y2="186.99"/><line class="cls-4" x1="158.6" y1="178.01" x2="158.6" y2="186.99"/><polygon class="cls-3" points="125.53 154.35 121.98 154.35 121.98 141.6 125.53 140 125.53 154.35"/><polygon class="cls-3" points="125.53 172.44 121.98 172.44 121.98 158.87 125.53 158.09 125.53 172.44"/><polygon class="cls-3" points="125.53 190.52 121.98 190.16 121.98 176.58 125.53 176.17 125.53 190.52"/><polygon class="cls-3" points="125.53 194.26 121.98 194.26 121.98 207.83 125.53 208.61 125.53 194.26"/><polygon class="cls-3" points="60.65 141.6 25.42 141.6 29.01 140 64.19 140 60.65 141.6"/><polygon class="cls-3" points="29.01 155.5 25.42 156.77 25.42 150.58 29.01 149.33 29.01 155.5"/><polygon class="cls-8" points="29.01 158.03 25.42 158.88 25.42 156.51 29.01 155.37 29.01 158.03"/><polygon class="cls-1" points="60.65 158.92 25.42 158.92 29.01 158.22 64.19 158.22 60.65 158.92"/><polygon class="cls-3" points="29.01 173.56 25.42 174.14 25.42 167.95 29.01 167.39 29.01 173.56"/><polygon class="cls-8" points="29.01 176.1 25.42 176.16 25.42 173.78 29.01 173.43 29.01 176.1"/><polygon class="cls-3" points="29.01 191.66 25.42 191.43 25.42 185.24 29.01 185.48 29.01 191.66"/><polygon class="cls-8" points="29.01 194.19 25.42 193.45 25.42 191.07 29.01 191.52 29.01 194.19"/><polygon class="cls-3" points="60.65 124.44 25.42 124.44 29.01 121.84 64.71 121.84 60.65 124.44"/><rect class="cls-8" x="29.01" y="137.28" width="162.41" height="2.71"/><polygon class="cls-1" points="191.43 137.28 29.01 137.28 28.98 131.22 191.39 131.22 191.43 137.28"/><polygon class="cls-1" points="191.43 173.45 29.01 173.45 28.94 167.39 191.35 167.39 191.43 173.45"/><rect class="cls-8" x="29.01" y="191.54" width="162.41" height="2.71"/><polygon class="cls-1" points="191.43 191.54 29.01 191.54 29.12 185.48 191.54 185.48 191.43 191.54"/><rect class="cls-8" x="29.01" y="155.37" width="162.41" height="2.71"/><polygon class="cls-1" points="191.43 155.37 29.01 155.37 28.94 149.31 191.35 149.31 191.43 155.37"/><line class="cls-1" x1="25.42" y1="176.28" x2="64.19" y2="176.28"/><rect class="cls-3" x="64.19" y="119.13" width="28.89" height="89.56"/><rect class="cls-2" x="69.54" y="125.38" width="3.3" height="4.89"/><rect class="cls-2" x="84.44" y="125.38" width="3.3" height="4.89"/><rect class="cls-2" x="69.54" y="143.66" width="3.3" height="4.89"/><rect class="cls-2" x="84.44" y="143.66" width="3.3" height="4.89"/><rect class="cls-2" x="69.54" y="160.29" width="3.3" height="4.89"/><rect class="cls-2" x="84.44" y="160.29" width="3.3" height="4.89"/><rect class="cls-2" x="69.54" y="176.49" width="3.3" height="4.89"/><rect class="cls-2" x="84.44" y="176.49" width="3.3" height="4.89"/><rect class="cls-2" x="69.54" y="192.6" width="3.3" height="4.89"/><rect class="cls-2" x="84.44" y="192.6" width="3.3" height="4.89"/><rect class="cls-3" x="125.53" y="119.13" width="28.89" height="89.56"/><rect class="cls-2" x="130.87" y="125.38" width="3.3" height="4.89"/><rect class="cls-2" x="145.78" y="125.38" width="3.3" height="4.89"/><rect class="cls-2" x="130.87" y="143.66" width="3.3" height="4.89"/><rect class="cls-2" x="145.78" y="143.66" width="3.3" height="4.89"/><rect class="cls-2" x="130.87" y="160.29" width="3.3" height="4.89"/><rect class="cls-2" x="145.78" y="160.29" width="3.3" height="4.89"/><rect class="cls-2" x="130.87" y="176.49" width="3.3" height="4.89"/><rect class="cls-2" x="145.78" y="176.49" width="3.3" height="4.89"/><rect class="cls-2" x="130.87" y="192.6" width="3.3" height="4.89"/><rect class="cls-2" x="145.78" y="192.6" width="3.3" height="4.89"/><polygon class="cls-8" points="25.42 207.88 13.15 203.46 13.15 130.69 25.42 121.56 25.42 207.88"/><polygon class="cls-2" points="20.04 136.25 21.96 135.16 21.96 130.27 20.04 131.36 20.04 136.25"/><polygon class="cls-2" points="2.24 146.55 3.67 145.65 3.67 142 2.24 142.9 2.24 146.55"/><polygon class="cls-2" points="20.04 152.65 21.96 151.56 21.96 146.67 20.04 147.76 20.04 152.65"/><polygon class="cls-2" points="2.24 158.53 3.67 157.63 3.67 153.98 2.24 154.88 2.24 158.53"/><polygon class="cls-2" points="20.04 168.6 21.96 168.31 21.96 163.42 20.04 163.71 20.04 168.6"/><polygon class="cls-2" points="2.24 171 3.67 170.86 3.67 167.21 2.24 167.51 2.24 171"/><polygon class="cls-2" points="20.04 184.74 21.96 184.94 21.96 180.04 20.04 180.01 20.04 184.74"/><polygon class="cls-2" points="2.24 183.39 3.67 183.49 3.67 179.84 2.24 179.81 2.24 183.39"/><polygon class="cls-2" points="20.04 200.53 21.96 201.11 21.96 196.21 20.04 195.8 20.04 200.53"/><polygon class="cls-2" points="2.24 195.39 3.67 195.8 3.67 192.15 2.24 191.81 2.24 195.39"/><ellipse class="cls-9" cx="298.87" cy="39.41" rx="42.44" ry="38.85"/><ellipse class="cls-9" cx="277.45" cy="87.64" rx="7.09" ry="7.1"/><ellipse class="cls-9" cx="271.62" cy="102.06" rx="3.91" ry="3.91"/><ellipse class="cls-9" cx="324.77" cy="87.64" rx="7.09" ry="7.1"/><ellipse class="cls-9" cx="330.6" cy="102.06" rx="3.91" ry="3.91"/><path class="cls-10" d="M230.67,162.38l-.58,2.91-5-3-7.5,2.35a21.35,21.35,0,0,1-.35-6.29c-1.5,2.55-5.75,2.87-5.75,2.87a10.51,10.51,0,0,0-1.2-5.09,5.54,5.54,0,0,1-2,4.62c.87-1.49,1.27-3.49-.56-6.61-2.33-4-5.31-8.35-5.31-8.35-4.08-6.47-5.54-10.24-4.51-18.69,1.58-12.92,7.11-20.72,16.07-27,7.5-5.28,14.62-5.37,18.11-4.71A18.78,18.78,0,0,1,238.55,98s4.77-.57,10,6.23a41.08,41.08,0,0,1,7.74,29.41c-1,8.4-6.53,13.38-8.19,15.13-2.82,3-6.07,5.1-8.78,8.19-2.37,2.72-3.42,5.51-2.94,7.16a5.34,5.34,0,0,1-.82-4.89,20.08,20.08,0,0,0-2,6.09Z"/><path class="cls-11" d="M251.22,193.7H194.73c-.73-7.4,2.32-11.51,2.32-11.51a54.42,54.42,0,0,0,12.69-8.91c5-11.86,2.76-19.58,2.76-19.58s-2.55-2.26-1.34-3.54h23.15c1.58.83.83,3.87.83,3.87a25.21,25.21,0,0,0,1.56,19.25,74.13,74.13,0,0,0,12.7,8.91S252.66,185.79,251.22,193.7Z"/><path class="cls-11" d="M247.17,183.62a54.13,54.13,0,0,1-23.95,5.44c-14.05,0-22.13-5.44-22.13-5.44l-6.36,34,3.6,42.75h50.74L258,205.68Z"/><path class="cls-10" d="M239.63,255.64c-1-2.27-1.81-8.93-2-11.94s-1.55-10.59-1.81-12.83.78-2.35.78-2.35l8.12-5.6A69.25,69.25,0,0,0,244.9,206c-2-20.31-.48-26.65-.48-26.65s.25-1.27,2-.2c0,0,14.68,8.77,16.81,10.36s4.36,4.55,4.33,11.79c0,3.8-1.68,25-3.94,40.74-.48,3.29-1.31,10.87-1.31,10.87s.25,12.77-7.89,15.26S239.63,255.64,239.63,255.64Z"/><path class="cls-11" d="M206,129.16a1.93,1.93,0,0,0-2.42-1.21c-1.81.54-2.21,5.43-1,8.47s2.67,5,4.79,5.53"/><path class="cls-11" d="M246.09,134.06a1.94,1.94,0,0,1,2.65-.59c1.62,1,.83,5.81-1,8.47s-3.8,4.26-6,4.22"/><path class="cls-12" d="M205.82,126s0,17.45,3,23.1c2.13,4,8.38,9.54,11.19,11.41a4.91,4.91,0,0,0,4.64.57c3.1-1.35,10.58-5,13.61-8.38,4.27-4.75,8.5-21.68,8.5-21.68s3.58-12.53,3.73-14.54-3.93-11.65-18-13.37S205.9,119.3,205.9,119.3Z"/><path class="cls-11" d="M206,126s0,17.45,3,23.09c2.13,4,8.37,9.55,11.18,11.42a4.93,4.93,0,0,0,4.65.56c3.09-1.34,10.57-5,13.6-8.37,4.27-4.75,8.5-21.68,8.5-21.68"/><path class="cls-13" d="M247.54,224.61a1.11,1.11,0,0,1,1.25.26c.83,1,7.45,17.3,8.65,19.45"/><path class="cls-11" d="M248.59,256.23a33.24,33.24,0,0,0,6.52-1.66c1.2-.6,2-2,.8-3.09a75.72,75.72,0,0,1-10,.73c-6.83.14-13.35,5.91-13.35,5.91l-24.85-3.31s-1.12,9.25-.69,12.78l24.91-1.2s16.92,4.78,19.28,5a12.6,12.6,0,0,0,6.74-1.3,11.56,11.56,0,0,0,4.53-4.21,1.65,1.65,0,0,0,0-2.07s1.43-1.9.86-3.44c0,0,1.29-3-.51-3.7a7.68,7.68,0,0,0,1.08-2.1,18,18,0,0,0,.75-2.8c-.17-1-1.32-1.15-2.18-.58l-2.58,2.72c-1.18.66-4.13,2-4.54,2.25Z"/><path class="cls-13" d="M249.07,256.22s-1.72.13-4.51.22"/><path class="cls-13" d="M262.84,256.66a31.07,31.07,0,0,1-5.4,3.7"/><path class="cls-13" d="M263.35,260.36a30.4,30.4,0,0,1-5.39,4"/><path class="cls-13" d="M253.15,263.8a25.23,25.23,0,0,1-4.18,3.64"/><ellipse class="cls-14" cx="215.17" cy="131.33" rx="2.07" ry="1.66" transform="translate(58.82 329.06) rotate(-83.06)"/><path class="cls-14" d="M224.22,143.12a6.58,6.58,0,0,1-3.4-1.55.6.6,0,0,1,.1-1c2.68-1.59,3.52-5.27,3.53-5.31a.6.6,0,1,1,1.18.26,10.7,10.7,0,0,1-3.36,5.59,4.84,4.84,0,0,0,3.4.73.61.61,0,0,1,.22,1.19A5.57,5.57,0,0,1,224.22,143.12Z"/><path class="cls-14" d="M241.23,128.83a.68.68,0,0,1-.35-.17,6.71,6.71,0,0,0-3.23-1.68,5.55,5.55,0,0,0-3.2.68.6.6,0,0,1-.83-.2.61.61,0,0,1,.2-.83,6.76,6.76,0,0,1,4-.85,7.83,7.83,0,0,1,3.92,2,.61.61,0,0,1,0,.86A.59.59,0,0,1,241.23,128.83Z"/><ellipse class="cls-14" cx="233.88" cy="133.62" rx="2.07" ry="1.66" transform="translate(73 349.65) rotate(-83.06)"/><path class="cls-14" d="M212,125.25a.62.62,0,0,1-.45-.29.61.61,0,0,1,.22-.83,7.86,7.86,0,0,1,4.29-1,6.71,6.71,0,0,1,3.65,1.79.6.6,0,0,1,0,.85.61.61,0,0,1-.86,0,5.54,5.54,0,0,0-2.94-1.43,6.65,6.65,0,0,0-3.54.85A.55.55,0,0,1,212,125.25Z"/><path class="cls-11" d="M238.71,197c.08-13.08.26-20.91-.34-23.15s-5.26-5.8-5.26-5.8-8.7-7.95-9.39-8.86-2.31.26-1.55,2.28c.62,1.66,5.19,7.23,6.85,9.13s-1.17,3.27-1.17,3.27a46.23,46.23,0,0,0-2.09-6.47c-.76-1.48-2.1-1-2.15-.34,0,0,.77,6.78.77,8.33a48.7,48.7,0,0,0,1.52,7.36s-.19,5,1.31,8.28c1.42,3.12,5.38,7.36,5.38,7.36l4,30.12,10.92-3.91Z"/><path class="cls-12" d="M235.86,181.2l-4.61-.54-1.86,2.44a11.32,11.32,0,0,1,1.42,3.24c.21,2-1.24,2.6-2.28,1.66a25.38,25.38,0,0,1-2.66-3.45c-.52,1.9-1.71,1.54-2.5.6-1.2-1.43-1.2-4.49-1.2-4.49-1.21,1.37-3.53,1.77-2.89,0a45.16,45.16,0,0,0,1.07-5.22l3.94-3.37,7-2.13,5,3.69Z"/><path class="cls-13" d="M231.25,169.94l-7,2.13-3.94,3.37s-.55,3.12-1.07,5.22c-.46,1.83,1.68,1.37,2.89,0,0,0,0,3.06,1.2,4.49.79.94,2,1.3,2.5-.6a25.38,25.38,0,0,0,2.66,3.45c1,.94,2.49.38,2.28-1.66a11.32,11.32,0,0,0-1.42-3.24l1.86-2.44,3.72.43"/><path class="cls-13" d="M235.49,175.72s-6.25,1.14-7,1.59-3.1,3.11-3.1,4.26a14.13,14.13,0,0,0,.44,3"/><path class="cls-13" d="M233.53,172.48l-7.66,2c-1.16.64-3.12,3.54-3.7,6.17"/><path class="cls-15" d="M239,100.72s-5.87-3-18,2.06-16.92,17.77-16.92,17.77a17.83,17.83,0,0,0-.35,13.32l1.43-5.36a79.76,79.76,0,0,0,.08,9.14,23.65,23.65,0,0,1,12-13.14c13.28-5.45,19.56-12.72,19.56-12.72s7.33,6.62,8.56,14.53-.76,10.45-1.95,15.86c0,0,7.56-6.31,7.64-13.83C251,128.35,256.23,107.7,239,100.72Z"/><path class="cls-13" d="M204.09,120.55a18.84,18.84,0,0,0-.26,12.82l1.34-4.85a83,83,0,0,0,0,9.13,23.61,23.61,0,0,1,12-13.13c13.28-5.45,19.56-12.72,19.56-12.72s7.32,6.61,8.56,14.52-.76,10.46-2,15.86c0,0,7.56-6.31,7.64-13.83"/><path class="cls-10" d="M209.4,254.21l-4.19-1.1a67.26,67.26,0,0,0-.14-7.56c-.08-2.25-.61-7.79-.61-7.79l-2.76-14.84a69.79,69.79,0,0,1-.15-16.88c2-20.31.47-26.65.47-26.65s-.24-1.27-2-.2c0,0-14.69,8.77-16.81,10.36s-4.37,4.55-4.33,11.79c0,3.8,1.67,25,3.94,40.74.47,3.29.86,8.78.86,8.78s.3,10.55,4.17,15.13a10.41,10.41,0,0,0,4.73,2.71c2.37.72,11.21.51,16.34,0Z"/><path class="cls-13" d="M252.77,232.58a70.83,70.83,0,0,0,1.37-15.89c0-2.48,0-6.8,0-9.35,0-6,1.37-8.71,1.37-8.71"/><path class="cls-13" d="M205.21,253.11,200,251.43c-.54-4.41-1.42-6.57-3.5-12.74A47,47,0,0,1,193.7,224c-.14-3.35-.54-7.27-.68-12-.19-6-3.29-13.79-3.29-13.79"/><path class="cls-13" d="M200,251.43s-5.91-1.27-9.83-.57"/><path class="cls-13" d="M196.84,247.68s-5.35-2.65-9.2-3"/><path class="cls-16" d="M219.92,149.73a7.45,7.45,0,0,1,7.17.91"/><path class="cls-11" d="M365.1,139.53s-.15,11.05-1.24,14.2l13.81,27.88,13.67-27.88c-1.08-3.15-1.23-14.2-1.23-14.2Z"/><path class="cls-17" d="M376.5,264.24c-14.51,3.29-36.22,7.87-41.11,8.28s-9.14-2.89-11.72-6.32-2.62-13.78-2.35-15.95.56-8.94.56-8.94c-1.49-2.14-.37-8.16-.1-11.56s4.62-38.5,4.55-43.49a45,45,0,0,1,.85-9.54c1.69-5.22,7.55-7.11,7.55-7.11,8.45-3.05,23.13-9.07,23.13-9.07,1.66-4.15,3.17-9.81,3.17-9.81s1-4.07,3.31-1.37c0,0,2.76,3.61,5.9,7.23,1.5,1.72,2.19,4.68,2.64,5.88a28.64,28.64,0,0,0,4.84,8.63c1.08-.76,3.6-5,4.91-8.74.71-2,1-4.05,2.48-5.77,3.15-3.62,5.9-7.23,5.9-7.23,2.31-2.7,3.32,1.37,3.32,1.37s1.51,5.66,3.17,9.81c0,0,14.68,6,23.13,9.07a11.15,11.15,0,0,1,7,8.28s1,14.85,1.71,21.94,1.19,20.32,2.54,28c.57,3.28,1.44,14.44.38,17.91,0,0-.05,3.89-.53,8.74a19.34,19.34,0,0,1-3.63,10c-3.35,5.62-9.88,8-17.86,8-3.88,0-16.45-3.91-28.76-9.19Z"/><path class="cls-13" d="M357.86,160.54a77.33,77.33,0,0,1,2.74,13.62s5-10.37,5.93-13.39,3.16-1.11,3.16-1.11"/><path class="cls-18" d="M421.52,248.12c-3.37-3-12.67-6.3-12.67-6.3a32.67,32.67,0,0,0-14.88-2c-1.63-.28-8.52-2.3-10.51-3.57s-9.22-2.35-10.76-2.8-8.55-3.43-8.55-3.43-2.06-1-2.87.64-6.34,9.24-7,18.31c0,0,0,1.43,2.17,2.26,3.31,1.27,9.14,4.06,9.14,4.06.91.92,11.21,6,15.9,8"/><path class="cls-13" d="M418.15,181.61s-4.64,26.44-7.69,47.45"/><path class="cls-13" d="M397.5,160.54a77.33,77.33,0,0,0-2.74,13.62s-5-10.37-5.94-13.39-3.15-1.11-3.15-1.11"/><path class="cls-13" d="M341,243.38s1.3-4.67-1.55-13.38c-1.63-5,1.19-18,.37-26.69a152,152,0,0,0-2.17-15.23"/><path class="cls-18" d="M325.8,238.28s7.66.09,12.27,1.24"/><path class="cls-18" d="M324.42,248.19s8.79-4.81,16.6-4.81"/><path class="cls-11" d="M354.31,247.91a21.13,21.13,0,0,1-6.71,0c-3.09-.64-6.58-4.53-6.58-4.53,1.56-4.9-1.55-13.38-1.55-13.38s2.76-2.13,4.75-2.13,17.06,2.82,17.06,2.82-3.69,5.34-5,9.83S354.31,247.91,354.31,247.91Z"/><path class="cls-18" d="M418.15,241.81a35.69,35.69,0,0,1,11.25,1.57"/><path class="cls-11" d="M402.48,115.14c-.3-3.12-2.34-2.25-2.34-2.25l-1.73.1.41-13.53S394.7,91.1,389.29,89s-23.66-1.92-23.66-1.92-7.14,4.73-8.74,9.47c-1.21,3.58-.59,12.95-.21,17.28l-1.53-.93s-2-.87-2.34,2.25,1.67,9.66,2.82,11.39a8.88,8.88,0,0,0,3.62,3.35c.4,2.21.77,4.12,1,5.19.91,3.93,6.89,11.35,13.09,14.33,3.76,1.81,8.51,0,8.51,0,6-3.32,12.18-10.4,13.08-14.33.25-1.07.62-3,1-5.2a11.14,11.14,0,0,0,3.7-3.34C400.9,124.86,402.78,118.26,402.48,115.14Z"/><ellipse class="cls-14" cx="389.29" cy="117" rx="1.85" ry="2.3"/><path class="cls-14" d="M380.3,130.09A5.12,5.12,0,0,0,383,129a.91.91,0,0,0,.28-1.06,30.83,30.83,0,0,1-1.91-10,.91.91,0,0,0-.92-.9.87.87,0,0,0-.89.91,32.76,32.76,0,0,0,1.78,10,3.17,3.17,0,0,1-3,0,.89.89,0,0,0-1.24.29.9.9,0,0,0,.29,1.25A5,5,0,0,0,380.3,130.09Z"/><path class="cls-14" d="M384.14,113.16a1.21,1.21,0,0,0,.44-.15c4.4-2.65,7.06-1,7.17-1a1.09,1.09,0,0,0,1.2-1.81c-.16-.1-3.84-2.49-9.49.91a1.09,1.09,0,0,0-.37,1.49A1.11,1.11,0,0,0,384.14,113.16Z"/><ellipse class="cls-14" cx="368.91" cy="117" rx="1.85" ry="2.3"/><path class="cls-14" d="M371.36,112.83a1.19,1.19,0,0,1-.45-.11c-4.6-2.29-7.12-.45-7.22-.37a1.1,1.1,0,0,1-1.52-.2,1.08,1.08,0,0,1,.17-1.51c.15-.12,3.63-2.8,9.53.13a1.09,1.09,0,0,1-.51,2.06Z"/><path class="cls-19" d="M367.23,92.41s5.15,0,8,1.36c2.38,1.14,6.19.47,8.63.26a2.68,2.68,0,0,1,1.27,1.62c.27,1.1,3.46,1.89,6.45,1.69,0,0,3.79,2.5,3.89,4a21.55,21.55,0,0,0,0,4.22,29.52,29.52,0,0,1,2.38,4.61l-.66,11.38c.12,4.17,1.41-.12,1.41-.12a124,124,0,0,0,4.23-15.12c.68-3.7-.2-8.18.08-9.17.8-2.89,1.82-5.61.72-5.1-1.53.69-3.85-.62-3.85-.62s1-2.41,1.52-3.51.26-2.49-1.52-2a25.65,25.65,0,0,1-4.77.72s.07-2.25.17-3.16-.46-1.21-1.81-1.11a21.61,21.61,0,0,1-6.91-.38c-3-.7-8.92-3.33-14.78-2-2.43.54-5.65,3.32-5.65,3.32a7.66,7.66,0,0,0-5.61,1.11c-2.63,1.81-5.08,7-6,10.16s-2.37,9.27-1.91,11.79,1.91,7.05,1.91,7.05,2.07,6.3,2.61,7.82,1.15,3.23,1.41.12l-.33-10.59a31.61,31.61,0,0,1,3-4.86c.38-.7-.77-3.21-.88-4.24-.28-2.72,2.15-3.63,3.05-4.33A19.28,19.28,0,0,0,367.23,92.41Z"/><path class="cls-14" d="M381.37,137.76a.8.8,0,0,1-.26,0,15.09,15.09,0,0,0-8.23,0,.85.85,0,0,1-.52-1.62,16.72,16.72,0,0,1,9.27,0,.85.85,0,0,1,.54,1.07A.83.83,0,0,1,381.37,137.76Z"/><path class="cls-11" d="M407.71,241.67l4.26,1.42,5.32-1.19s5.65.87,7.55.5a1.68,1.68,0,0,0,1.06-2.73,17.31,17.31,0,0,0-3.47-1.34s4.22.09,5-.82c1.27-1.42-.58-2.84-.58-2.84,3.27-1.2,1.49-3.23,0-3.91s-8.33-2.77-8.33-2.77l2.93-1.26s3.54.15,5.08-.76,1.68-3.14-.31-3.14a63.5,63.5,0,0,0-8,.32c-5.88.71-13.09,3.93-13.09,3.93-4,2.72-11.21,12.77-11.21,12.77S401.85,239.67,407.71,241.67Z"/><path class="cls-18" d="M427.61,235.06s-5.13-1.44-6.94-1.74-5.6-.66-5.6-.66a45.25,45.25,0,0,0-6.68,1"/><path class="cls-18" d="M407.71,238s6.57-.9,7.93-1,6.79,1.28,6.79,1.28"/><path class="cls-18" d="M418.59,228s-7.45-.09-9.89.64"/><path class="cls-12" d="M295.44,47.11c-.24-7.68,1.69-11.3,5.18-15.3,2.62-3,3.43-4,3.43-6.61a5,5,0,0,0-5.3-5.12c-4.36,0-5.61,3.74-6.17,5.55l-5.8-2.12A12.43,12.43,0,0,1,293,16.77,11.63,11.63,0,0,1,299,15.52c2.93,0,11.1,1.5,11.1,10,0,3.81-1.69,5.68-3.49,7.87-4.06,4.74-4.49,5.3-4.93,6.18-1.06,2.24-1.06,5.36-1,7.55Zm2.62,7.18a4.47,4.47,0,0,1,4.37,4.37,4.21,4.21,0,0,1-4.3,4.18,4.28,4.28,0,0,1-4.49-4.12A4.38,4.38,0,0,1,298.06,54.29Z"/><path d="M65.37,76.18V74.37h1.81v1.81h4.26v6.24H67.18v3.09H65.37V82.42h-4.2V76.18Zm0,1.71H63V80.7h2.41Zm4.28,0H67.18V80.7h2.47Z"/><path d="M78.83,75.77v-1.4h1.88v1.4h4.67v1.82H80.71v1.63h3.64v6H75.24v-6h3.59V77.59H74.24V75.77ZM77.08,81v2.45h5.43V81Z"/><path d="M90.93,79.08c.39.27,1.06.74,1.85,1.4a8.14,8.14,0,0,0,2.81-2.85H88.23V75.84H98.35c-.59,2.79-2.21,4.37-4.24,5.84a24.41,24.41,0,0,1,1.72,1.85l-1.65,1.36a20.89,20.89,0,0,0-4.69-4.55Z"/><path d="M105.35,78.83a15.06,15.06,0,0,0-3.67-1.78l.84-1.6a15.2,15.2,0,0,1,3.82,1.68Zm-3.44,4c3.94-.34,6.75-1.7,8.1-6.88l1.65,1.14c-1.58,5.17-4.45,7.15-9.33,7.76Z"/><path d="M118,80.81a14.31,14.31,0,0,0-3.42-1.45l.66-1.54a12.92,12.92,0,0,1,3.49,1.33Zm-2.72,2.07c4-.38,6.19-1.42,7.63-6.4l1.63,1.18c-1.74,5.23-4.5,6.68-8.86,7.24ZM119,78a15.58,15.58,0,0,0-3.53-1.35l.68-1.52a14.31,14.31,0,0,1,3.6,1.22Z"/><path d="M128,81.64V80.1h5V78.78h-5.17V77.19h6.94v7.49h-7V83.06H133V81.64Z"/><path d="M142.16,78.83a15.17,15.17,0,0,0-3.66-1.78l.83-1.6a15,15,0,0,1,3.82,1.68Zm-3.44,4c3.94-.34,6.75-1.7,8.1-6.88l1.65,1.14c-1.58,5.17-4.45,7.15-9.33,7.76Z"/><path d="M443.08,75H447c3.4,0,4.72,2.23,4.72,4.72s-1.33,4.73-4.78,4.73h-3.81Zm2,7.63h1.28c1.38,0,3.33,0,3.33-2.91s-2-2.9-3.27-2.9h-1.34Z"/><path d="M462.62,75v5.46c0,1,0,4.18-4.05,4.18s-4.06-3.24-4.06-4.16V75h2v5.38c0,.86,0,2.44,2.07,2.44s2.06-1.58,2.06-2.44V75Z"/><path d="M468.77,75a2.9,2.9,0,0,1,3.14,3c0,1.9-1.26,2.94-3.32,2.94h-.87v3.48h-2V75Zm-.4,4.15c.7,0,1.56,0,1.56-1.14s-.6-1.19-1.56-1.19h-.65v2.33Z"/><path d="M477.48,82.79c1.21-.15,4.14-.5,5.53-5l1.69,1c-1.76,4.68-4.76,6-9.22,6.06V75.13h2Z"/><path d="M491,80.81a14.7,14.7,0,0,0-3.42-1.43l.66-1.55a12.82,12.82,0,0,1,3.48,1.32Zm-2.73,2.08c3.77-.34,6.05-1.3,7.47-5.91l1.62,1.17c-1.68,4.58-4.18,6.19-8.68,6.76ZM492,78a17.06,17.06,0,0,0-3.53-1.34l.67-1.52a15.14,15.14,0,0,1,3.61,1.21Zm3.27-3.79a10.12,10.12,0,0,1,1.1,2.26l-1,.47a9.72,9.72,0,0,0-1.05-2.31Zm1.86,0a10.1,10.1,0,0,1,1,2.29l-1,.45a9.67,9.67,0,0,0-1-2.33Z"/><path d="M501.3,83.43c2.94-.46,3.67-1.44,3.76-3.49h-4.13V78.2h9.65v1.74H507c-.21,3-1.38,4.49-4.95,5.17Zm7.14-8.12V77h-6.6V75.31Zm1-.84a10.65,10.65,0,0,1,.72,2.42l-1,.32a11,11,0,0,0-.65-2.44Zm1.58-.32a10.22,10.22,0,0,1,.72,2.41l-.95.32a9,9,0,0,0-.67-2.43Z"/><path d="M518,78.83a15.17,15.17,0,0,0-3.66-1.78l.83-1.6A15,15,0,0,1,519,77.13Zm-3.44,4c4-.34,6.75-1.7,8.1-6.88l1.65,1.14c-1.58,5.17-4.45,7.15-9.33,7.76Z"/><path d="M535.73,75.42a11.71,11.71,0,0,1-2,4.92,30.51,30.51,0,0,1,3.72,3.17l-1.58,1.54a37.72,37.72,0,0,0-3.29-3.31A13.94,13.94,0,0,1,528.1,85L527,83.42a11.94,11.94,0,0,0,4-2.75,9.74,9.74,0,0,0,2.18-3.47h-5.52V75.42Z"/></svg>