<svg id="レイヤー_1" data-name="レイヤー 1" xmlns="http://www.w3.org/2000/svg" viewBox="0 0 795.29 362.55"><defs><style>.cls-1,.cls-11,.cls-12{fill:#fff;}.cls-1,.cls-10,.cls-11,.cls-13,.cls-16,.cls-17,.cls-18,.cls-19,.cls-2,.cls-3,.cls-4,.cls-5,.cls-6,.cls-7,.cls-8,.cls-9{stroke:#231815;}.cls-1,.cls-10,.cls-11,.cls-13,.cls-16,.cls-17,.cls-19,.cls-2,.cls-3,.cls-4,.cls-5,.cls-6,.cls-7,.cls-8{stroke-linecap:round;}.cls-1,.cls-10,.cls-11,.cls-13,.cls-16,.cls-17,.cls-18,.cls-19,.cls-2,.cls-3,.cls-4,.cls-5,.cls-6,.cls-7,.cls-8{stroke-linejoin:round;}.cls-1,.cls-2,.cls-3,.cls-4,.cls-5,.cls-6,.cls-7,.cls-8{stroke-width:1.29px;}.cls-2{fill:#98bfa0;}.cls-17,.cls-3{fill:#dfeae0;}.cls-13,.cls-16,.cls-18,.cls-4{fill:none;}.cls-5{fill:#95a899;}.cls-6{fill:#5d7865;}.cls-7{fill:#c1cac3;}.cls-8{fill:#bed4c0;}.cls-10,.cls-15,.cls-9{fill:#6faa82;}.cls-9{stroke-miterlimit:10;stroke-width:1.48px;}.cls-10,.cls-11,.cls-13,.cls-17,.cls-18,.cls-19{stroke-width:1.61px;}.cls-14,.cls-19{fill:#231815;}.cls-16{stroke-width:1.93px;}</style></defs><title>main-pic</title><rect class="cls-1" x="559.25" y="158.66" width="193.93" height="106.98"/><polyline class="cls-2" points="708.67 223.12 708.67 265.7 743.32 265.7 743.32 223.12"/><polyline class="cls-2" points="604.79 223.13 604.79 265.72 570.14 265.72 570.14 223.13"/><rect class="cls-2" x="570.44" y="169.89" width="34.65" height="33.34"/><polygon class="cls-3" points="765.8 137.13 775.11 137.13 792.32 190.26 783 190.26 765.8 137.13"/><rect class="cls-2" x="572.59" y="172.02" width="30.05" height="33.34"/><rect class="cls-2" x="621.05" y="169.89" width="19.53" height="33.34"/><rect class="cls-2" x="672.99" y="169.89" width="19.53" height="33.34"/><rect class="cls-2" x="708.67" y="169.89" width="34.65" height="33.34"/><rect class="cls-2" x="623.35" y="172.02" width="15.03" height="33.34"/><line class="cls-4" x1="587.61" y1="172.02" x2="587.61" y2="205.36"/><rect class="cls-2" x="710.97" y="172.02" width="30.05" height="33.34" transform="translate(1451.99 377.38) rotate(-180)"/><rect class="cls-2" x="675.24" y="172.02" width="15.03" height="33.34" transform="translate(1365.5 377.38) rotate(-180)"/><line class="cls-4" x1="726" y1="172.02" x2="726" y2="205.36"/><rect class="cls-1" x="545.09" y="189.13" width="87.66" height="33.97"/><polygon class="cls-3" points="649.4 223.1 632.75 223.1 632.75 189.13 649.4 191.75 649.4 223.1"/><rect class="cls-1" x="654.27" y="189.13" width="87.66" height="33.97"/><rect class="cls-3" x="559.25" y="265.7" width="193.93" height="7.68"/><polygon class="cls-3" points="786.46 257.21 753.18 273.39 753.18 265.7 786.46 251.73 786.46 257.21"/><polygon class="cls-3" points="770.54 142.44 753.18 158.66 753.18 192.56 741.92 189.13 741.92 223.1 753.18 223.22 753.18 265.63 786.46 251.73 786.46 188.18 770.54 142.44"/><polygon class="cls-5" points="776.17 133.84 571.36 133.84 544.35 160.42 749.16 160.42 776.17 133.84"/><polygon class="cls-3" points="694.55 265.02 677.28 269.36 677.28 264.56 694.55 261.17 694.55 265.02"/><polygon class="cls-3" points="699.38 268.73 682.62 273.83 682.56 269.97 699.32 265.48 699.38 268.73"/><polygon class="cls-3" points="703.15 273.43 686.9 278.81 686.9 274.01 703.15 268.82 703.15 273.43"/><rect class="cls-2" x="572.59" y="229.3" width="30.05" height="33.34"/><line class="cls-1" x1="587.61" y1="229.3" x2="587.61" y2="262.64"/><rect class="cls-2" x="710.97" y="229.3" width="30.05" height="33.34" transform="translate(1451.99 491.94) rotate(-180)"/><line class="cls-1" x1="726" y1="229.3" x2="726" y2="262.64"/><polygon class="cls-2" points="763.2 194.81 758.27 193.12 758.27 172.32 763.2 175.26 763.2 194.81"/><polygon class="cls-2" points="774.02 198.07 769.95 196.68 769.95 178.69 774.02 180.97 774.02 198.07"/><polygon class="cls-2" points="783 201.28 780.13 200.19 780.13 184.43 783 186.01 783 201.28"/><polygon class="cls-2" points="763.2 246.9 758.27 248.16 758.27 228.22 763.2 228.05 763.2 246.9"/><polygon class="cls-2" points="783 241.94 780.13 242.5 780.13 227.38 783 227.29 783 241.94"/><rect class="cls-6" x="544.39" y="160.42" width="204.45" height="4.72"/><polygon class="cls-6" points="776.17 133.84 794.64 186.74 792.32 190.26 774.84 139.45 748.84 165.15 748.84 160.42 776.17 133.84"/><polygon class="cls-7" points="665.39 223.1 665.39 201.41 656.18 200.22 656.18 265.63 673.27 265.63 686.55 262.56 686.55 223.1 665.39 223.1"/><rect class="cls-8" x="544.39" y="188.37" width="88.37" height="2.66"/><polygon class="cls-8" points="650.12 193.24 632.73 191.03 632.73 188.37 650.12 190.57 650.12 193.24"/><rect class="cls-8" x="653.51" y="188.37" width="88.37" height="2.66"/><polygon class="cls-8" points="753.63 194.66 741.85 191.03 741.85 188.37 753.63 192 753.63 194.66"/><polygon class="cls-3" points="677.02 269.75 677.02 264.56 657.27 264.56 657.27 278.81 686.9 278.81 686.9 273.75 682.76 273.75 682.76 269.81 677.02 269.75"/><polygon class="cls-3" points="703.26 268.58 699.38 268.58 682.81 273.73 687.28 273.73 703.26 268.58"/><polygon class="cls-3" points="699.05 265.37 695.17 265.37 678.32 269.71 682.8 269.71 699.05 265.37"/><polygon class="cls-3" points="694.55 261.17 676.88 261.17 658.52 265.37 676.78 265.37 694.55 261.17"/><rect class="cls-3" x="665.86" y="227.16" width="17.04" height="34.01"/><rect class="cls-3" x="707.44" y="223.1" width="31.43" height="6.2"/><rect class="cls-3" x="568.9" y="223.11" width="31.43" height="6.2"/><polygon class="cls-3" points="596.4 269.75 596.4 264.56 616.16 264.56 616.16 278.81 586.52 278.81 586.52 273.75 590.66 273.75 590.66 269.81 596.4 269.75"/><polygon class="cls-7" points="656.18 234.14 656.18 200.22 616.9 200.22 616.9 234.14 601.34 234.14 601.34 280.48 671.74 280.48 671.74 234.14 656.18 234.14"/><rect class="cls-8" x="615.01" y="199.74" width="41.2" height="2.66"/><polygon class="cls-8" points="666.73 203.81 656.18 202.4 656.18 199.74 666.73 201.14 666.73 203.81"/><polygon class="cls-7" points="677.02 234.18 671.74 234.18 671.74 280.48 677.02 278.81 677.02 234.18"/><rect class="cls-8" x="654.78" y="234.18" width="17.29" height="2.66"/><rect class="cls-8" x="599.67" y="234.18" width="17.29" height="2.66"/><polygon class="cls-8" points="679 236.66 672.03 236.84 672.03 234.18 679 234 679 236.66"/><polyline class="cls-4" points="753.18 223.22 753.18 220.61 786.1 221.84"/><polyline class="cls-4" points="758.27 175.29 761.42 177.06 761.42 194.2"/><polyline class="cls-4" points="770.11 181.5 772.8 183.01 772.8 197.5"/><polyline class="cls-4" points="780.17 186.86 782.61 188 782.61 201.13"/><polyline class="cls-4" points="758.27 230.39 761.42 230.21 761.42 246.93"/><polyline class="cls-4" points="765.95 227.97 769.1 227.79 769.1 256.63"/><polyline class="cls-4" points="774.14 227.48 777.3 227.29 777.3 253.15"/><polyline class="cls-4" points="780.17 229.12 782.61 228.9 782.61 242.03"/><polyline class="cls-4" points="601.34 267.54 671.37 267.54 676.86 266.33"/><polygon class="cls-3" points="677.02 278.81 671.74 280.48 671.74 267.54 677.02 266.33 677.02 278.81"/><rect class="cls-3" x="601.34" y="267.54" width="70.4" height="12.94"/><rect class="cls-1" x="78.33" y="138.4" width="130.12" height="45.9"/><polygon class="cls-3" points="130.03 158.58 125.3 158.58 125.3 141.85 130.03 139.48 130.03 158.58"/><polygon class="cls-8" points="78.33 184.3 53.07 177.12 53.07 154.7 78.33 137.94 78.33 184.3"/><rect class="cls-2" x="87.44" y="146.01" width="33.69" height="12.08"/><line class="cls-4" x1="104.29" y1="146.01" x2="104.29" y2="157.96"/><line class="cls-4" x1="112.57" y1="146.01" x2="112.57" y2="157.96"/><line class="cls-4" x1="95.38" y1="146.01" x2="95.38" y2="157.96"/><rect class="cls-2" x="166.12" y="146.01" width="33.69" height="12.08"/><line class="cls-4" x1="182.96" y1="146.01" x2="182.96" y2="157.96"/><line class="cls-4" x1="191.24" y1="146.01" x2="191.24" y2="157.96"/><line class="cls-4" x1="174.05" y1="146.01" x2="174.05" y2="157.96"/><polygon class="cls-3" points="83.12 160.27 78.33 163.06 78.33 154.93 83.12 152.16 83.12 160.27"/><polygon class="cls-1" points="218 160.27 83.12 160.27 83.07 152.21 217.95 152.21 218 160.27"/><polygon class="cls-8" points="83.12 138.42 78.33 141.54 78.33 137.99 83.12 134.89 83.12 138.42"/><rect class="cls-8" x="83.12" y="134.87" width="134.86" height="3.61"/><polygon class="cls-3" points="125.25 141.54 78.33 141.54 83.12 138.48 131.78 138.48 125.25 141.54"/><polygon class="cls-3" points="208.46 141.54 157 141.54 161.79 138.48 217.97 138.48 208.46 141.54"/><rect class="cls-3" x="130.03" y="134.89" width="38.49" height="27.08"/><rect class="cls-2" x="137.15" y="143.22" width="4.4" height="6.51"/><rect class="cls-2" x="157" y="143.22" width="4.4" height="6.51"/><polygon class="cls-8" points="10.64 267.12 0.64 263.6 0.64 184.78 10.64 177.73 10.64 267.12"/><rect class="cls-1" x="10.64" y="177.73" width="7.46" height="89.43"/><rect class="cls-1" x="33.87" y="162.24" width="212.01" height="113.56"/><polygon class="cls-3" points="162.81 187.52 115.88 187.52 120.67 185.38 167.53 185.38 162.81 187.52"/><polygon class="cls-1" points="162.81 210.56 115.88 210.56 120.67 209.62 167.53 209.62 162.81 210.56"/><polygon class="cls-3" points="162.81 164.68 115.88 164.68 120.67 161.22 168.22 161.22 162.81 164.68"/><polygon class="cls-3" points="240.72 187.52 193.8 187.52 198.58 185.38 255.02 185.38 240.72 187.52"/><polygon class="cls-1" points="240.72 210.56 193.8 210.56 198.58 209.62 255.02 209.62 240.72 210.56"/><polygon class="cls-1" points="240.72 164.68 193.8 164.68 198.58 161.22 255.02 161.22 240.72 164.68"/><polygon class="cls-8" points="23.67 271.39 13.67 267.87 13.67 180.25 23.67 173.35 23.67 271.39"/><polygon class="cls-3" points="38.65 181.76 33.87 184.56 33.87 176.42 38.65 173.66 38.65 181.76"/><polygon class="cls-8" points="38.65 161.17 33.87 164.68 33.87 161.13 38.65 157.64 38.65 161.17"/><polygon class="cls-8" points="38.65 185.13 33.87 187.52 33.87 184.57 38.65 181.8 38.65 185.13"/><polygon class="cls-3" points="85.52 180.25 80.79 180.25 80.79 163.52 85.52 161.15 85.52 180.25"/><rect class="cls-8" x="38.65" y="157.61" width="216.37" height="3.61"/><rect class="cls-2" x="42.98" y="260.76" width="33.69" height="12.08"/><line class="cls-4" x1="59.83" y1="260.76" x2="59.83" y2="272.7"/><line class="cls-4" x1="68.1" y1="260.76" x2="68.1" y2="272.7"/><line class="cls-4" x1="50.91" y1="260.76" x2="50.91" y2="272.7"/><rect class="cls-2" x="42.98" y="190.09" width="33.69" height="12.08"/><line class="cls-4" x1="59.83" y1="190.09" x2="59.83" y2="202.04"/><line class="cls-4" x1="68.1" y1="190.09" x2="68.1" y2="202.04"/><line class="cls-4" x1="50.91" y1="190.09" x2="50.91" y2="202.04"/><rect class="cls-2" x="42.98" y="212.95" width="33.69" height="12.08"/><line class="cls-4" x1="59.83" y1="212.95" x2="59.83" y2="224.9"/><line class="cls-4" x1="68.1" y1="212.95" x2="68.1" y2="224.9"/><line class="cls-4" x1="50.91" y1="212.95" x2="50.91" y2="224.9"/><rect class="cls-2" x="42.98" y="167.15" width="33.69" height="12.08"/><line class="cls-4" x1="59.83" y1="167.15" x2="59.83" y2="179.1"/><line class="cls-4" x1="68.1" y1="167.15" x2="68.1" y2="179.1"/><line class="cls-4" x1="50.91" y1="167.15" x2="50.91" y2="179.1"/><rect class="cls-2" x="42.98" y="235.95" width="33.69" height="12.08"/><line class="cls-4" x1="59.83" y1="235.95" x2="59.83" y2="247.89"/><line class="cls-4" x1="68.1" y1="235.95" x2="68.1" y2="247.89"/><line class="cls-4" x1="50.91" y1="235.95" x2="50.91" y2="247.89"/><rect class="cls-8" x="38.65" y="229.89" width="216.37" height="3.61"/><polygon class="cls-3" points="85.52 204.47 80.79 204.47 80.79 187.52 85.52 185.38 85.52 204.47"/><polygon class="cls-3" points="85.52 228.54 80.79 228.54 80.79 210.48 85.52 209.44 85.52 228.54"/><polygon class="cls-3" points="85.52 252.6 80.79 252.12 80.79 234.06 85.52 233.5 85.52 252.6"/><polygon class="cls-3" points="85.52 257.57 80.79 257.57 80.79 275.63 85.52 276.67 85.52 257.57"/><polygon class="cls-3" points="167.23 181.34 162.5 181.34 162.5 164.61 167.23 162.24 167.23 181.34"/><rect class="cls-2" x="122.09" y="260.76" width="33.69" height="12.08"/><line class="cls-4" x1="138.93" y1="260.76" x2="138.93" y2="272.7"/><line class="cls-4" x1="147.21" y1="260.76" x2="147.21" y2="272.7"/><line class="cls-4" x1="130.02" y1="260.76" x2="130.02" y2="272.7"/><rect class="cls-2" x="122.09" y="190.09" width="33.69" height="12.08"/><line class="cls-4" x1="138.93" y1="190.09" x2="138.93" y2="202.04"/><line class="cls-4" x1="147.21" y1="190.09" x2="147.21" y2="202.04"/><line class="cls-4" x1="130.02" y1="190.09" x2="130.02" y2="202.04"/><rect class="cls-2" x="122.09" y="212.95" width="33.69" height="12.08"/><line class="cls-4" x1="138.93" y1="212.95" x2="138.93" y2="224.9"/><line class="cls-4" x1="147.21" y1="212.95" x2="147.21" y2="224.9"/><line class="cls-4" x1="130.02" y1="212.95" x2="130.02" y2="224.9"/><rect class="cls-2" x="122.09" y="167.15" width="33.69" height="12.08"/><line class="cls-4" x1="138.93" y1="167.15" x2="138.93" y2="179.1"/><line class="cls-4" x1="147.21" y1="167.15" x2="147.21" y2="179.1"/><line class="cls-4" x1="130.02" y1="167.15" x2="130.02" y2="179.1"/><rect class="cls-2" x="122.09" y="235.95" width="33.69" height="12.08"/><line class="cls-4" x1="138.93" y1="235.95" x2="138.93" y2="247.89"/><line class="cls-4" x1="147.21" y1="235.95" x2="147.21" y2="247.89"/><line class="cls-4" x1="130.02" y1="235.95" x2="130.02" y2="247.89"/><rect class="cls-2" x="203.37" y="260.76" width="33.69" height="12.08"/><line class="cls-4" x1="220.21" y1="260.76" x2="220.21" y2="272.7"/><line class="cls-4" x1="228.49" y1="260.76" x2="228.49" y2="272.7"/><line class="cls-4" x1="211.3" y1="260.76" x2="211.3" y2="272.7"/><rect class="cls-2" x="203.37" y="190.09" width="33.69" height="12.08"/><line class="cls-4" x1="220.21" y1="190.09" x2="220.21" y2="202.04"/><line class="cls-4" x1="228.49" y1="190.09" x2="228.49" y2="202.04"/><line class="cls-4" x1="211.3" y1="190.09" x2="211.3" y2="202.04"/><rect class="cls-2" x="203.37" y="212.95" width="33.69" height="12.08"/><line class="cls-4" x1="220.21" y1="212.95" x2="220.21" y2="224.9"/><line class="cls-4" x1="228.49" y1="212.95" x2="228.49" y2="224.9"/><line class="cls-4" x1="211.3" y1="212.95" x2="211.3" y2="224.9"/><rect class="cls-2" x="203.37" y="167.15" width="33.69" height="12.08"/><line class="cls-4" x1="220.21" y1="167.15" x2="220.21" y2="179.1"/><line class="cls-4" x1="228.49" y1="167.15" x2="228.49" y2="179.1"/><line class="cls-4" x1="211.3" y1="167.15" x2="211.3" y2="179.1"/><rect class="cls-2" x="203.37" y="235.95" width="33.69" height="12.08"/><line class="cls-4" x1="220.21" y1="235.95" x2="220.21" y2="247.89"/><line class="cls-4" x1="228.49" y1="235.95" x2="228.49" y2="247.89"/><line class="cls-4" x1="211.3" y1="235.95" x2="211.3" y2="247.89"/><polygon class="cls-3" points="167.23 204.47 162.5 204.47 162.5 187.52 167.23 185.38 167.23 204.47"/><polygon class="cls-3" points="167.23 228.54 162.5 228.54 162.5 210.48 167.23 209.44 167.23 228.54"/><polygon class="cls-3" points="167.23 252.6 162.5 252.12 162.5 234.06 167.23 233.5 167.23 252.6"/><polygon class="cls-3" points="167.23 257.57 162.5 257.57 162.5 275.63 167.23 276.67 167.23 257.57"/><polygon class="cls-3" points="80.79 187.52 33.87 187.52 38.65 185.38 85.52 185.38 80.79 187.52"/><polygon class="cls-3" points="38.65 206.01 33.87 207.69 33.87 199.45 38.65 197.79 38.65 206.01"/><polygon class="cls-8" points="38.65 209.38 33.87 210.5 33.87 207.34 38.65 205.83 38.65 209.38"/><polygon class="cls-1" points="80.79 210.56 33.87 210.56 38.65 209.62 85.52 209.62 80.79 210.56"/><polygon class="cls-3" points="38.65 230.04 33.87 230.8 33.87 222.57 38.65 221.82 38.65 230.04"/><polygon class="cls-8" points="38.65 233.41 33.87 233.49 33.87 230.33 38.65 229.86 38.65 233.41"/><polygon class="cls-3" points="38.65 254.11 33.87 253.81 33.87 245.58 38.65 245.89 38.65 254.11"/><polygon class="cls-8" points="38.65 257.48 33.87 256.49 33.87 253.33 38.65 253.93 38.65 257.48"/><polygon class="cls-3" points="80.79 164.68 33.87 164.68 38.65 161.22 86.21 161.22 80.79 164.68"/><rect class="cls-8" x="38.65" y="181.77" width="216.37" height="3.61"/><polygon class="cls-1" points="255.02 181.76 38.65 181.76 38.6 173.7 254.97 173.7 255.02 181.76"/><polygon class="cls-1" points="255.02 229.89 38.65 229.89 38.56 221.82 254.93 221.82 255.02 229.89"/><rect class="cls-8" x="38.65" y="253.96" width="216.37" height="3.61"/><polygon class="cls-1" points="255.02 253.96 38.65 253.96 38.8 245.89 255.17 245.89 255.02 253.96"/><rect class="cls-8" x="38.65" y="205.84" width="216.37" height="3.61"/><polygon class="cls-1" points="255.02 205.84 38.65 205.84 38.56 197.77 254.93 197.77 255.02 205.84"/><line class="cls-1" x1="33.87" y1="233.65" x2="85.52" y2="233.65"/><rect class="cls-3" x="85.52" y="157.61" width="38.49" height="119.16"/><rect class="cls-2" x="92.64" y="165.94" width="4.4" height="6.51"/><rect class="cls-2" x="112.5" y="165.94" width="4.4" height="6.51"/><rect class="cls-2" x="92.64" y="190.25" width="4.4" height="6.51"/><rect class="cls-2" x="112.5" y="190.25" width="4.4" height="6.51"/><rect class="cls-2" x="92.64" y="212.37" width="4.4" height="6.51"/><rect class="cls-2" x="112.5" y="212.37" width="4.4" height="6.51"/><rect class="cls-2" x="92.64" y="233.93" width="4.4" height="6.51"/><rect class="cls-2" x="112.5" y="233.93" width="4.4" height="6.51"/><rect class="cls-2" x="92.64" y="255.36" width="4.4" height="6.51"/><rect class="cls-2" x="112.5" y="255.36" width="4.4" height="6.51"/><rect class="cls-3" x="167.23" y="157.61" width="38.49" height="119.16"/><rect class="cls-2" x="174.35" y="165.94" width="4.4" height="6.51"/><rect class="cls-2" x="194.2" y="165.94" width="4.4" height="6.51"/><rect class="cls-2" x="174.35" y="190.25" width="4.4" height="6.51"/><rect class="cls-2" x="194.2" y="190.25" width="4.4" height="6.51"/><rect class="cls-2" x="174.35" y="212.37" width="4.4" height="6.51"/><rect class="cls-2" x="194.2" y="212.37" width="4.4" height="6.51"/><rect class="cls-2" x="174.35" y="233.93" width="4.4" height="6.51"/><rect class="cls-2" x="194.2" y="233.93" width="4.4" height="6.51"/><rect class="cls-2" x="174.35" y="255.36" width="4.4" height="6.51"/><rect class="cls-2" x="194.2" y="255.36" width="4.4" height="6.51"/><polygon class="cls-8" points="33.87 275.7 17.52 269.81 17.52 172.99 33.87 160.84 33.87 275.7"/><polygon class="cls-2" points="26.69 180.39 29.26 178.94 29.26 172.43 26.69 173.88 26.69 180.39"/><polygon class="cls-2" points="2.99 194.1 4.88 192.89 4.88 188.04 2.99 189.25 2.99 194.1"/><polygon class="cls-2" points="26.69 202.21 29.26 200.77 29.26 194.25 26.69 195.7 26.69 202.21"/><polygon class="cls-2" points="2.99 210.04 4.88 208.83 4.88 203.98 2.99 205.18 2.99 210.04"/><polygon class="cls-2" points="26.69 223.43 29.26 223.05 29.26 216.53 26.69 216.92 26.69 223.43"/><polygon class="cls-2" points="2.99 226.63 4.88 226.44 4.88 221.58 2.99 221.99 2.99 226.63"/><polygon class="cls-2" points="26.69 244.9 29.26 245.16 29.26 238.65 26.69 238.61 26.69 244.9"/><polygon class="cls-2" points="2.99 243.11 4.88 243.24 4.88 238.39 2.99 238.34 2.99 243.11"/><polygon class="cls-2" points="26.69 265.91 29.26 266.68 29.26 260.17 26.69 259.62 26.69 265.91"/><polygon class="cls-2" points="2.99 259.07 4.88 259.62 4.88 254.76 2.99 254.31 2.99 259.07"/><ellipse class="cls-9" cx="400.81" cy="52.43" rx="56.54" ry="51.69"/><circle class="cls-9" cx="372.27" cy="116.6" r="9.45"/><circle class="cls-9" cx="364.51" cy="135.79" r="5.21"/><circle class="cls-9" cx="435.32" cy="116.6" r="9.45"/><circle class="cls-9" cx="443.09" cy="135.79" r="5.21"/><path class="cls-10" d="M307.3,215.16l-.77,3.87L299.84,215l-10,3.13a28.48,28.48,0,0,1-.46-8.37c-2,3.4-7.66,3.81-7.66,3.81a14,14,0,0,0-1.6-6.77,7.42,7.42,0,0,1-2.61,6.16c1.16-2,1.69-4.66-.74-8.8-3.11-5.28-7.08-11.11-7.08-11.11-5.43-8.61-7.38-13.62-6-24.86,2.11-17.2,9.47-27.57,21.41-36,10-7,19.48-7.15,24.13-6.27a25.29,25.29,0,0,1,8.6,3.61s6.35-.74,13.32,8.29c7.46,9.68,12.11,24.09,10.3,39.14-1.34,11.17-8.7,17.8-10.91,20.13-3.75,3.94-8.09,6.78-11.69,10.89-3.16,3.62-4.56,7.33-3.92,9.53a7.1,7.1,0,0,1-1.1-6.51,26.74,26.74,0,0,0-2.65,8.11Z"/><path class="cls-11" d="M334.68,256.83H259.43c-1-9.85,3.08-15.31,3.08-15.31a72.9,72.9,0,0,0,16.91-11.86c6.63-15.78,3.67-26,3.67-26s-3.39-3-1.78-4.71h30.84c2.11,1.1,1.1,5.15,1.1,5.15a33.49,33.49,0,0,0,2.09,25.61,99.4,99.4,0,0,0,16.91,11.86S336.6,246.31,334.68,256.83Z"/><path class="cls-11" d="M329.29,243.42a72.26,72.26,0,0,1-31.91,7.23c-18.72,0-29.48-7.23-29.48-7.23l-8.47,45.22,4.79,56.87h67.6l11.84-72.75Z"/><path class="cls-10" d="M319.24,339.23c-1.38-3-2.41-11.88-2.64-15.88s-2.06-14.09-2.41-17.07,1-3.13,1-3.13l10.82-7.45a92.64,92.64,0,0,0,.21-22.46c-2.72-27-.64-35.46-.64-35.46s.33-1.68,2.72-.25c0,0,19.56,11.66,22.39,13.78s5.81,6.06,5.77,15.68c0,5.06-2.24,33.3-5.25,54.2-.63,4.38-1.74,14.47-1.74,14.47s.33,17-10.52,20.3S319.24,339.23,319.24,339.23Z"/><path class="cls-11" d="M274.49,171a2.58,2.58,0,0,0-3.23-1.61c-2.4.72-2.94,7.23-1.38,11.27s3.55,6.71,6.39,7.36"/><path class="cls-11" d="M327.85,177.48a2.58,2.58,0,0,1,3.52-.78c2.16,1.27,1.11,7.73-1.38,11.27s-5.06,5.66-8,5.6"/><path class="cls-12" d="M274.2,166.7s0,23.22,4,30.73c2.83,5.33,11.15,12.7,14.9,15.18a6.54,6.54,0,0,0,6.19.76c4.12-1.79,14.08-6.65,18.12-11.14,5.69-6.33,11.32-28.85,11.32-28.85s4.78-16.67,5-19.35-5.23-15.49-24-17.78-35.45,21.59-35.45,21.59Z"/><path class="cls-11" d="M274.39,166.73s0,23.22,4,30.72c2.83,5.33,11.15,12.7,14.9,15.19a6.55,6.55,0,0,0,6.19.75c4.12-1.79,14.08-6.65,18.12-11.14C323.33,195.93,329,173.4,329,173.4"/><path class="cls-13" d="M329.77,298a1.48,1.48,0,0,1,1.67.35c1.11,1.28,9.93,23,11.53,25.87"/><path class="cls-11" d="M331.18,340s6.26-1,8.68-2.21c1.6-.8,2.64-2.64,1.07-4.12a101.42,101.42,0,0,1-13.32,1c-9.1.19-17.78,7.87-17.78,7.87l-33.11-4.41s-1.49,12.31-.91,17l33.19-1.6s22.54,6.37,25.68,6.65a16.76,16.76,0,0,0,9-1.74,15.44,15.44,0,0,0,6-5.6,2.2,2.2,0,0,0,0-2.75s1.9-2.53,1.15-4.58c0,0,1.71-4-.69-4.92a10.13,10.13,0,0,0,1.44-2.79,24.7,24.7,0,0,0,1-3.73c-.22-1.27-1.75-1.53-2.9-.77l-3.44,3.62c-1.58.88-5.51,2.69-6.05,3Z"/><path class="cls-13" d="M331.82,340s-2.29.17-6,.29"/><path class="cls-13" d="M350.16,340.59a41.55,41.55,0,0,1-7.19,4.92"/><path class="cls-13" d="M350.85,345.51a41,41,0,0,1-7.19,5.36"/><path class="cls-13" d="M337.24,350.09a33.61,33.61,0,0,1-5.56,4.85"/><ellipse class="cls-14" cx="286.65" cy="173.84" rx="2.75" ry="2.21" transform="translate(79.27 437.24) rotate(-83.02)"/><path class="cls-14" d="M298.71,189.53a8.67,8.67,0,0,1-4.53-2.06.77.77,0,0,1-.25-.67.79.79,0,0,1,.39-.61c3.57-2.11,4.69-7,4.7-7.06a.8.8,0,0,1,1.57.35c0,.21-1.08,4.77-4.47,7.43a6.44,6.44,0,0,0,4.52,1,.81.81,0,0,1,.94.65.8.8,0,0,1-.65.93A7.28,7.28,0,0,1,298.71,189.53Z"/><path class="cls-14" d="M321.37,170.51a.79.79,0,0,1-.47-.22,8.91,8.91,0,0,0-4.3-2.23,7.29,7.29,0,0,0-4.26.91.81.81,0,0,1-1.1-.27.79.79,0,0,1,.26-1.1,8.92,8.92,0,0,1,5.3-1.14,10.44,10.44,0,0,1,5.22,2.68.8.8,0,0,1-.65,1.37Z"/><ellipse class="cls-14" cx="311.58" cy="176.89" rx="2.75" ry="2.21" transform="translate(98.14 464.67) rotate(-83.02)"/><path class="cls-14" d="M282.47,165.76a.82.82,0,0,1-.6-.39.8.8,0,0,1,.29-1.1,10.33,10.33,0,0,1,5.71-1.34,9,9,0,0,1,4.88,2.37.81.81,0,0,1-1.15,1.13,7.38,7.38,0,0,0-3.92-1.91,8.94,8.94,0,0,0-4.71,1.13A.77.77,0,0,1,282.47,165.76Z"/><path class="cls-11" d="M318,261.24c.11-17.41.36-27.82-.45-30.8s-7-7.73-7-7.73S299,212.14,298,210.93s-3.07.34-2.07,3c.83,2.21,6.93,9.62,9.14,12.14s-1.57,4.35-1.57,4.35-1.58-6.28-2.78-8.6c-1-2-2.8-1.28-2.86-.45,0,0,1,9,1,11.07a64.38,64.38,0,0,0,2,9.8s-.25,6.62,1.74,11c1.89,4.16,7.17,9.8,7.17,9.8l5.37,40.07,14.54-5.2Z"/><path class="cls-12" d="M314.22,240.19l-6.14-.72-2.48,3.25a15.07,15.07,0,0,1,1.89,4.31c.27,2.72-1.66,3.47-3,2.21a33.18,33.18,0,0,1-3.55-4.58c-.69,2.52-2.28,2-3.33.8-1.61-1.91-1.61-6-1.61-6-1.6,1.84-4.69,2.37-3.85,0a58.29,58.29,0,0,0,1.43-6.93l5.25-4.49,9.28-2.83,6.62,4.9Z"/><path class="cls-13" d="M308.08,225.22l-9.28,2.83-5.25,4.49s-.73,4.15-1.43,6.93c-.61,2.44,2.25,1.84,3.85,0,0,0,0,4.08,1.61,6,1.05,1.24,2.64,1.72,3.33-.8a33.18,33.18,0,0,0,3.55,4.58c1.37,1.26,3.3.51,3-2.21a15.07,15.07,0,0,0-1.89-4.31l2.48-3.25,4.95.58"/><path class="cls-13" d="M313.73,232.91s-8.33,1.51-9.28,2.11-4.13,4.14-4.13,5.66a18.59,18.59,0,0,0,.59,4"/><path class="cls-13" d="M311.11,228.59l-10.21,2.67c-1.54.86-4.15,4.71-4.93,8.21"/><path class="cls-15" d="M318.4,133.13s-7.81-4-24,2.73-22.53,23.64-22.53,23.64a23.7,23.7,0,0,0-.47,17.73l1.91-7.13a105.67,105.67,0,0,0,.11,12.16,31.48,31.48,0,0,1,15.93-17.49c17.69-7.25,26.06-16.92,26.06-16.92s9.76,8.8,11.41,19.33-1,13.91-2.61,21.1c0,0,10.08-8.39,10.18-18.4C334.36,169.88,341.36,142.41,318.4,133.13Z"/><path class="cls-13" d="M271.89,159.5a25,25,0,0,0-.34,17.06l1.78-6.45a109.69,109.69,0,0,0,.06,12.15,31.43,31.43,0,0,1,16-17.48c17.69-7.25,26.06-16.92,26.06-16.92s9.76,8.8,11.41,19.33-1,13.9-2.61,21.1c0,0,10.08-8.4,10.18-18.41"/><path class="cls-10" d="M279,337.34l-5.58-1.47a87.83,87.83,0,0,0-.18-10.06c-.11-3-.81-10.36-.81-10.36l-3.68-19.75a92.64,92.64,0,0,1-.21-22.46c2.73-27,.64-35.46.64-35.46s-.32-1.68-2.72-.25c0,0-19.56,11.66-22.39,13.78s-5.81,6.06-5.76,15.68c0,5.06,2.23,33.3,5.24,54.2.63,4.38,1.15,11.69,1.15,11.69s.4,14,5.56,20.13a13.8,13.8,0,0,0,6.29,3.6c3.16,1,14.95.69,21.78,0Z"/><path class="cls-13" d="M336.75,308.56a95,95,0,0,0,1.82-21.15c0-3.29,0-9,0-12.43,0-8,1.82-11.6,1.82-11.6"/><path class="cls-13" d="M273.38,335.87l-7-2.24c-.71-5.86-1.89-8.73-4.66-16.94a62.36,62.36,0,0,1-3.68-19.6c-.19-4.45-.71-9.66-.91-16-.24-8-4.38-18.35-4.38-18.35"/><path class="cls-13" d="M266.39,333.63s-7.87-1.69-13.1-.75"/><path class="cls-13" d="M262.24,328.64s-7.14-3.51-12.26-3.92"/><path class="cls-16" d="M293,198.33a10,10,0,0,1,9.56,1.2"/><path class="cls-11" d="M486.39,184.76s-.2,14.7-1.64,18.89l18.39,37.09,18.21-37.09c-1.44-4.19-1.64-18.89-1.64-18.89Z"/><path class="cls-17" d="M501.59,350.68c-19.34,4.38-48.26,10.47-54.77,11s-12.19-3.85-15.63-8.41-3.48-18.34-3.12-21.23.74-11.89.74-11.89c-2-2.85-.49-10.86-.13-15.38s6.16-51.22,6.07-57.86a59,59,0,0,1,1.12-12.69c2.26-7,10.06-9.46,10.06-9.46,11.26-4.06,30.81-12.07,30.81-12.07,2.21-5.53,4.23-13.05,4.23-13.05s1.34-5.42,4.42-1.82c0,0,3.66,4.79,7.85,9.61,2,2.29,2.91,6.23,3.51,7.82a38.07,38.07,0,0,0,6.46,11.49c1.44-1,4.79-6.63,6.53-11.63.95-2.71,1.33-5.39,3.32-7.68,4.19-4.82,7.85-9.61,7.85-9.61,3.08-3.6,4.42,1.82,4.42,1.82s2,7.52,4.23,13.05c0,0,19.55,8,30.81,12.07a14.81,14.81,0,0,1,9.38,11S571.06,255.55,572,265s1.59,27,3.38,37.31c.76,4.36,1.92,19.21.51,23.83,0,0-.07,5.18-.71,11.63-.85,8.57-4.84,13.29-4.84,13.29-4.46,7.47-13.16,10.66-23.79,10.66-5.17,0-21.92-5.21-38.31-12.23Z"/><path class="cls-13" d="M476.74,212.71a102.74,102.74,0,0,1,3.65,18.12s6.7-13.8,7.91-17.82,4.21-1.48,4.21-1.48"/><path class="cls-18" d="M561.55,329.23c-4.49-3.94-16.88-8.38-16.88-8.38a43.73,43.73,0,0,0-19.82-2.63c-2.17-.36-11.35-3.05-14-4.74s-12.29-3.13-14.34-3.73-11.39-4.56-11.39-4.56-2.73-1.32-3.82.85-8.44,12.3-9.28,24.35c0,0,0,1.91,2.89,3,4.41,1.68,12.18,5.41,12.18,5.41,1.21,1.22,14.93,8,21.18,10.65"/><path class="cls-13" d="M557.06,240.74s-6.17,35.17-10.23,63.13"/><path class="cls-13" d="M529.56,212.71a102.18,102.18,0,0,0-3.66,18.12S519.2,217,518,213s-4.21-1.48-4.21-1.48"/><path class="cls-13" d="M454.31,322.92s1.74-6.2-2.06-17.8c-2.18-6.64,1.58-23.94.49-35.51a202.07,202.07,0,0,0-2.89-20.26"/><path class="cls-18" d="M434,316.14s10.21.12,16.36,1.65"/><path class="cls-18" d="M432.2,329.32s11.71-6.4,22.11-6.4"/><path class="cls-11" d="M472,329a28.13,28.13,0,0,1-8.94,0c-4.11-.85-8.76-6-8.76-6,2.08-6.51-2.06-17.8-2.06-17.8s3.68-2.83,6.33-2.83S481.3,306,481.3,306s-4.92,7.11-6.71,13.08S472,329,472,329Z"/><path class="cls-18" d="M557.06,320.84a47.59,47.59,0,0,1,15,2.08"/><path class="cls-11" d="M536.19,152.31c-.41-4.16-3.12-3-3.12-3l-2.3.12.55-18s-5.5-11.12-12.7-13.93S487.1,115,487.1,115s-9.51,6.3-11.64,12.6c-1.61,4.76-.79,17.22-.29,23l-2-1.23s-2.71-1.17-3.12,3,2.23,12.84,3.76,15.15a11.89,11.89,0,0,0,4.82,4.46c.53,2.93,1,5.48,1.35,6.91,1.2,5.22,9.18,15.09,17.43,19.06,5,2.41,11.34,0,11.34,0,8-4.42,16.22-13.84,17.43-19.06.33-1.43.82-4,1.35-6.93a14.78,14.78,0,0,0,4.93-4.44C534.08,165.24,536.59,156.46,536.19,152.31Z"/><ellipse class="cls-14" cx="518.62" cy="154.78" rx="2.46" ry="3.06"/><path class="cls-14" d="M506.64,172.19a6.77,6.77,0,0,0,3.57-1.47,1.2,1.2,0,0,0,.38-1.4A40.92,40.92,0,0,1,508,156a1.19,1.19,0,0,0-1.21-1.19,1.18,1.18,0,0,0-1.2,1.21A43.53,43.53,0,0,0,508,169.29a4.21,4.21,0,0,1-4,0,1.2,1.2,0,0,0-1.66.39,1.21,1.21,0,0,0,.39,1.66A6.78,6.78,0,0,0,506.64,172.19Z"/><path class="cls-14" d="M511.76,149.67a1.39,1.39,0,0,0,.58-.2c5.87-3.52,9.41-1.36,9.55-1.27a1.46,1.46,0,0,0,2-.42,1.44,1.44,0,0,0-.4-2c-.21-.14-5.11-3.32-12.64,1.2a1.45,1.45,0,0,0,.91,2.68Z"/><ellipse class="cls-14" cx="491.46" cy="154.78" rx="2.46" ry="3.06"/><path class="cls-14" d="M494.73,149.23a1.3,1.3,0,0,1-.6-.15c-6.13-3-9.48-.6-9.62-.49a1.45,1.45,0,0,1-1.79-2.28c.2-.15,4.83-3.72,12.69.18a1.44,1.44,0,0,1-.68,2.74Z"/><path class="cls-19" d="M489.23,122.06s6.86,0,10.61,1.82c3.18,1.51,8.25.61,11.51.35a3.54,3.54,0,0,1,1.68,2.14c.37,1.47,4.62,2.52,8.6,2.26,0,0,5,3.33,5.18,5.33a28.38,28.38,0,0,0,0,5.62,38.94,38.94,0,0,1,3.17,6.13l-.88,15.14c.17,5.54,1.88-.16,1.88-.16a165.11,165.11,0,0,0,5.63-20.12c.91-4.92-.25-10.88.11-12.2,1.07-3.84,2.43-7.46,1-6.79-2,.93-5.13-.81-5.13-.81s1.3-3.21,2-4.68.35-3.31-2-2.68a35.49,35.49,0,0,1-6.35,1s.1-3,.22-4.21-.6-1.61-2.41-1.47a29.05,29.05,0,0,1-9.2-.51c-4-.94-11.89-4.44-19.7-2.71-3.23.72-7.52,4.42-7.52,4.42a10.17,10.17,0,0,0-7.48,1.48c-3.5,2.41-6.76,9.36-8,13.52s-3.15,12.34-2.55,15.68,2.55,9.38,2.55,9.38,2.76,8.39,3.48,10.4,1.53,4.31,1.88.16l-.44-14.08c1.12-2.81,3.47-5.53,4-6.47s-1-4.27-1.17-5.64c-.37-3.62,2.85-4.83,4.06-5.76A25.68,25.68,0,0,0,489.23,122.06Z"/><path class="cls-14" d="M508.07,182.4a1.07,1.07,0,0,1-.35-.06,20.31,20.31,0,0,0-11,0,1.12,1.12,0,1,1-.68-2.14,22.22,22.22,0,0,1,12.34,0,1.12,1.12,0,0,1,.73,1.41A1.14,1.14,0,0,1,508.07,182.4Z"/><path class="cls-11" d="M543.16,320.65l5.67,1.88,7.09-1.58s7.52,1.16,10.05.67a2.23,2.23,0,0,0,1.41-3.64c-.6-.6-4.62-1.78-4.62-1.78s5.63.12,6.71-1.09c1.69-1.89-.77-3.77-.77-3.77,4.36-1.6,2-4.3,0-5.21s-11.1-3.68-11.1-3.68l3.91-1.67s4.71.19,6.76-1,2.24-4.18-.42-4.18a85.64,85.64,0,0,0-10.68.42c-7.83.95-17.44,5.23-17.44,5.23-5.3,3.62-14.93,17-14.93,17S535.35,318,543.16,320.65Z"/><path class="cls-18" d="M569.67,311.86s-6.84-1.92-9.25-2.32-7.46-.87-7.46-.87a60.15,60.15,0,0,0-8.89,1.36"/><path class="cls-18" d="M543.16,315.82s8.75-1.19,10.56-1.32,9,1.7,9,1.7"/><path class="cls-18" d="M557.65,302.45s-9.92-.12-13.18.85"/><path class="cls-12" d="M396.25,62.68c-.33-10.22,2.24-15,6.89-20.35,3.49-4,4.57-5.32,4.57-8.8a6.7,6.7,0,0,0-7.06-6.81c-5.81,0-7.47,5-8.22,7.39l-7.73-2.83a16.5,16.5,0,0,1,8.23-9c1.66-.83,3.49-1.66,8.05-1.66,3.91,0,14.79,2,14.79,13.29,0,5.07-2.24,7.56-4.65,10.47-5.4,6.31-6,7.05-6.56,8.22-1.42,3-1.42,7.14-1.33,10Zm3.49,9.55A5.94,5.94,0,0,1,405.55,78a5.59,5.59,0,0,1-5.73,5.57,5.72,5.72,0,0,1-6-5.49A5.84,5.84,0,0,1,399.74,72.23Z"/><path d="M87.08,100.47V98.06h2.41v2.41h5.68v8.31H89.49v4.11H87.08v-4.11h-5.6v-8.31Zm0,2.28h-3.2v3.74h3.2Zm5.7,0H89.49v3.74h3.29Z"/><path d="M105,99.92V98.06h2.5v1.86h6.21v2.43h-6.21v2.17h4.85v7.92H100.23v-7.92H105v-2.17H98.91V99.92Zm-2.33,6.92v3.25h7.23v-3.25Z"/><path d="M121.14,104.33c.52.36,1.41,1,2.46,1.87a10.84,10.84,0,0,0,3.74-3.79h-9.79V100H131c-.78,3.72-2.94,5.82-5.64,7.77,1.23,1.25,1.37,1.38,2.3,2.46l-2.21,1.81a28.07,28.07,0,0,0-6.24-6Z"/><path d="M140.35,104a19.76,19.76,0,0,0-4.88-2.38l1.11-2.13a19.94,19.94,0,0,1,5.08,2.24Zm-4.59,5.31c5.26-.45,9-2.26,10.8-9.15l2.19,1.52c-2.1,6.87-5.93,9.51-12.42,10.32Z"/><path d="M157.16,106.63a19.36,19.36,0,0,0-4.56-1.92l.88-2a16.67,16.67,0,0,1,4.65,1.77Zm-3.62,2.76c5.35-.5,8.25-1.9,10.16-8.51l2.17,1.56c-2.32,7-6,8.89-11.79,9.64Zm5-6.51a21.22,21.22,0,0,0-4.71-1.8l.91-2a19.32,19.32,0,0,1,4.8,1.63Z"/><path d="M170.48,107.74v-2h6.63v-1.77h-6.88v-2.11h9.24v10h-9.38v-2.16h7v-1.88Z"/><path d="M189.39,104a19.76,19.76,0,0,0-4.88-2.38l1.11-2.13a19.94,19.94,0,0,1,5.08,2.24Zm-4.59,5.31c5.26-.45,9-2.26,10.8-9.15l2.19,1.52c-2.1,6.87-5.93,9.51-12.42,10.32Z"/><path d="M590.28,98.86h5.15c4.53,0,6.28,3,6.28,6.29s-1.76,6.28-6.36,6.28h-5.07ZM592.92,109h1.71c1.84,0,4.44,0,4.44-3.86s-2.61-3.87-4.36-3.87h-1.79Z"/><path d="M616.3,98.86v7.27c0,1.27,0,5.55-5.39,5.55s-5.4-4.3-5.4-5.53V98.86h2.64V106c0,1.15,0,3.24,2.76,3.24s2.75-2.09,2.75-3.24V98.86Z"/><path d="M624.5,98.86a3.87,3.87,0,0,1,4.19,4c0,2.53-1.69,3.91-4.43,3.91H623.1v4.62h-2.64V98.86Zm-.54,5.52c.94,0,2.08,0,2.08-1.52,0-1.34-.79-1.58-2.08-1.58h-.86v3.1Z"/><path d="M636.1,109.26c1.61-.19,5.52-.66,7.37-6.61l2.25,1.34c-2.35,6.22-6.34,7.91-12.28,8.05v-13h2.66Z"/><path d="M654.1,106.63a20,20,0,0,0-4.55-1.9l.87-2a16.66,16.66,0,0,1,4.65,1.75Zm-3.63,2.77c5-.45,8-1.73,9.95-7.87l2.16,1.57c-2.24,6.08-5.57,8.23-11.56,9Zm5-6.54a23.54,23.54,0,0,0-4.71-1.78l.89-2a20.61,20.61,0,0,1,4.82,1.61Zm4.35-5a13.1,13.1,0,0,1,1.47,3l-1.28.63a13.22,13.22,0,0,0-1.4-3.07Zm2.49,0a14.11,14.11,0,0,1,1.39,3l-1.3.59a12.73,12.73,0,0,0-1.31-3.1Z"/><path d="M667.84,110.12c3.91-.61,4.88-1.92,5-4.64h-5.51v-2.32H680.2v2.32h-4.77c-.28,3.94-1.83,6-6.59,6.88Zm9.51-10.81v2.3h-8.79v-2.3Zm1.33-1.11a14.57,14.57,0,0,1,1,3.23l-1.27.42a14.09,14.09,0,0,0-.86-3.26Zm2.1-.42a13.35,13.35,0,0,1,1,3.21l-1.27.42a12.75,12.75,0,0,0-.89-3.24Z"/><path d="M690,104a19.76,19.76,0,0,0-4.88-2.38l1.11-2.13a20.11,20.11,0,0,1,5.09,2.24Zm-4.58,5.31c5.26-.45,9-2.26,10.79-9.15l2.19,1.52c-2.09,6.87-5.93,9.51-12.42,10.32Z"/><path d="M713.71,99.47A15.81,15.81,0,0,1,711,106a41.51,41.51,0,0,1,4.94,4.22l-2.09,2a48.29,48.29,0,0,0-4.38-4.41,18.8,18.8,0,0,1-6,4.32l-1.4-2.08a16.12,16.12,0,0,0,5.38-3.66,13,13,0,0,0,2.89-4.62h-7.35V99.47Z"/></svg>