<svg id="レイヤー_1" data-name="レイヤー 1" xmlns="http://www.w3.org/2000/svg" viewBox="0 0 806 112"><defs><style>.cls-1{fill:#221714;}.cls-2{fill:#6faa82;}.cls-3{fill:#fff;}</style></defs><title>main-title</title><path class="cls-1" d="M121.33,15.1c1.08-1.43,1.44-1.88,2.57-3.23,1.57,1.48,2.07,1.93,3.59,3.45a1.49,1.49,0,0,1,.32.54c0,.14-.18.27-.32.27H115.76v17.3c2.65-.63,8.32-2.38,11-3.36l.26.71a88.24,88.24,0,0,1-8.05,4c-7.42,3-7.42,3-8.67,3.58v1.39q0,.81-.54.81c-.63,0-1-.67-2.52-5.29a54.48,54.48,0,0,0,5.39-1.07V5.82c0-1.29-.13-2.86-.31-4.88,4.59.58,5.35.72,5.35,1.21s0,.36-1.93,1.12V15.1Zm10.75,4.17a61.89,61.89,0,0,0,5.17-4.3,30.49,30.49,0,0,0,5.67-6.14c4.45,2.46,4.72,2.64,4.72,3.18,0,.27-.36.49-.81.49a16.23,16.23,0,0,1-1.66-.13,126.18,126.18,0,0,1-13.09,8V35.4c0,.49.09.76.27.89a20.88,20.88,0,0,0,4.5.23c1.62,0,4.41-.09,4.81-.18.63-.09.85-.4,1.17-1.61S144.09,29.3,145,25h.58v9.19c0,1.43,0,1.43,1.31,1.83a1.22,1.22,0,0,1,1,1.26c0,.63-.63,1.25-1.58,1.48-1.12.31-4.49.49-9.94.49-3.64,0-5-.09-5.8-.31-1.12-.41-1.53-1-1.62-2.65V34.5L129,25V8.83c0-3.27-.13-6.14-.31-8C134,1.52,134,1.52,134,2s-.54.67-1.94,1.21Z"/><path class="cls-1" d="M168.15,26.21v4.93h3c.94-1.07,1.26-1.43,2.16-2.42,1.48,1.21,1.89,1.61,3.24,2.82.13.18.22.27.22.36s-.18.27-.54.27h-8c0,6.1,0,6.1.09,8.29,0,.54-.36.63-2.2.63-.54,0-.68-.09-.68-.45,0-2.42,0-2.42.09-8.47h-5a14.46,14.46,0,0,0-3,.36l-.27-1.75a13.83,13.83,0,0,0,3.51.36h4.86c0-.36,0-.63,0-.81V26.21h-3.6v1.66c0,.49-.36.58-1.88.58-.81,0-.9,0-.9-.45.09-3.45.13-6.36.13-11.74,0-3.36,0-4.65-.18-6.4,1.4.8,1.8,1,3.06,1.88h3.33V7.35h-5.08a9.16,9.16,0,0,0-2.66.31L157.49,6a13,13,0,0,0,2.93.36h5.08a37.78,37.78,0,0,0-.23-6c4.54.5,4.72.54,4.72.94s-.36.59-1.84,1v4h2.07c1-1.12,1.35-1.48,2.38-2.6,1.35,1.3,1.8,1.7,3,3,.13.18.22.27.22.4s-.18.23-.4.23h-7.29v4.39h3.33c.67-.76.9-1,1.62-1.79,1,.71,1.26.94,2.16,1.66.36.26.49.44.49.62s-.4.58-1.39.94v8.65c0,1,0,2.2.13,5.38,0,.36-.09.49-.45.58a11.22,11.22,0,0,1-1.53.13c-.67,0-.76,0-.76-.49V26.21ZM165.5,12.77h-3.56v5.47h3.56Zm0,6.5h-3.56v5.91h3.56Zm6.25-6.5h-3.6v5.47h3.6Zm0,6.5h-3.6v5.91h3.6Zm9.44-1.3a2.51,2.51,0,0,0-.09.71c0,2.11,1.89,6.41,4.14,9.32a30.46,30.46,0,0,0,4.32-10.7c.94.4,1.71.71,2.16.89,2.2.9,2.33,1,2.33,1.3s-.49.54-1.35.54h-.35c-1.8,4.66-3.11,7.17-5.36,10a22.13,22.13,0,0,0,4.82,3.72,22.85,22.85,0,0,0,8.18,3v.53c-1.71.68-2,1-3.28,3.1-5.76-3.23-8.14-5.16-11-8.83a32.47,32.47,0,0,1-14.35,9.27l-.31-.62a35.14,35.14,0,0,0,13.22-10.76A34.62,34.62,0,0,1,180.52,21a6.22,6.22,0,0,0-1.17-2.5Zm-6.43,2.51c3.06-4.08,4.86-7.22,5.85-10.26,3.42,1.21,4.14,1.52,4.14,1.83s-.32.45-1.76.63a35.29,35.29,0,0,1-7.69,8.24Zm18.3-13c1.08-1.25,1.44-1.61,2.52-2.78,1.67,1.35,2.16,1.75,3.69,3.14.22.18.32.31.32.4s-.23.27-.45.27H179a11.93,11.93,0,0,0-2.7.27L176,7.08a10.19,10.19,0,0,0,2.88.4h5.57V4.21a30.37,30.37,0,0,0-.13-3.85c.94.13,1.62.22,2.11.27,1.89.22,2.57.45,2.57.85s-.23.45-1.67.89V7.48Zm-4.18,3.09c.68.32,1.22.54,1.58.68,3.86,1.65,5,2.33,6.11,3.49a2.52,2.52,0,0,1,.81,2c0,1.48-.4,2.65-.9,2.65s-.63-.23-1.48-1.48a37.87,37.87,0,0,0-6.52-6.77Z"/><path class="cls-1" d="M219.6,10.31c1-1.44,1-1.44,2-2.69,1.44,1.3,1.89,1.7,3.33,3.09.09.13.22.27.22.36s-.18.27-.49.27h-6.39v4.48c1.12.67,1.71,1.07,3,2,1.48,1.12,1.84,1.7,1.84,2.82,0,1.3-.85,3-1.53,3-.27,0-.45-.27-.63-.85a14.3,14.3,0,0,0-2.65-6c0,16.54,0,17.25.09,23.84a.76.76,0,0,1-.45.58,16.51,16.51,0,0,1-2,.18.55.55,0,0,1-.63-.54c.14-3.36.14-3.36.23-8.73,0-2,.09-5.11.18-9.28V17.3c-2.07,7-3.42,9.81-6.48,13.84l-.45-.31a58.41,58.41,0,0,0,4.45-12,46.61,46.61,0,0,0,1.67-7.48h-2.34a8.12,8.12,0,0,0-2.7.35l-.36-1.83a7.39,7.39,0,0,0,3.06.45h2.74V4.57A42,42,0,0,0,215.1,0c4.41.4,5.17.58,5.17,1s-.31.49-2,1v8.25ZM243.12,18c.81-.85,1.08-1.07,1.84-1.83,1.08.76,1.4,1,2.48,1.83.36.32.49.45.49.58s-.45.59-1.39,1V22.9c0,2.1,0,3.09.09,5.33,0,.31-.14.45-.36.54a7.9,7.9,0,0,1-2,.26c-.4,0-.54-.17-.58-.58V26.88h-7.2c1.53,2.78,2.34,3.81,4,5.11,2.83,2.2,6.25,3.54,10.79,4.35V37a4.52,4.52,0,0,0-3.1,3.23,20.48,20.48,0,0,1-7.87-5.6,22.25,22.25,0,0,1-4.59-7.08c-1.12,4.3-2.51,6.45-5.71,8.73a33.1,33.1,0,0,1-9.17,4.39l-.32-.62c4.91-2.2,8.1-4.57,10.3-7.71a12.35,12.35,0,0,0,2.21-5.47h-5.67v1.84c-.09.58-.36.67-1.57.76a3.9,3.9,0,0,0-.81.05h-.09q-.48,0-.54-.54c.09-1.79.18-5.74.18-6.72,0-1.79-.05-3.5-.18-6.18A28.58,28.58,0,0,1,227.65,18h6.07V13.26h-2.79a8.56,8.56,0,0,0-2.7.32l-.31-1.75a10.06,10.06,0,0,0,3,.4h7c.94-1,1.26-1.34,2.2-2.42,1.35,1.21,1.75,1.62,3.1,2.83.18.17.27.31.27.4s-.18.22-.45.22h-6.34c.05,1.48.05,2.47.05,3V18Zm-22.49-2.24c4.55-3.58,6-5,8.5-8.42A23.06,23.06,0,0,0,233.18,0c.9.23,1.57.36,2,.45,2.57.5,2.84.59,2.84.94s-.18.41-1.89.81a17.93,17.93,0,0,0,7.6,6.09,31.28,31.28,0,0,0,8.36,2.47l0,.63c-1.71.4-2.38,1.12-3,3.13a30.76,30.76,0,0,1-7.74-4.84,29.31,29.31,0,0,1-5.8-6.85A37.9,37.9,0,0,1,221,16.26ZM227.38,19v6.81h5.85a42.47,42.47,0,0,0,.49-6.81Zm9.35,0a45,45,0,0,1-.63,6.81h7.56V19Z"/><path class="cls-1" d="M261.56,8.56a23.21,23.21,0,0,0,3.73.36h9.09c1-1.26,1.3-1.66,2.38-2.87a35,35,0,0,1,3.46,3.22.75.75,0,0,1,.14.36c0,.23-.23.32-.59.32H265.29a18.56,18.56,0,0,0-3.42.27ZM263,2.46a20.6,20.6,0,0,0,4,.36h5.49c1-1.25,1.3-1.61,2.34-2.78a39.44,39.44,0,0,1,3.77,3.32.44.44,0,0,1,.05.22c0,.18-.18.27-.5.27H266.91a33.54,33.54,0,0,0-3.64.23Zm.32,12.1a16.78,16.78,0,0,0,3.64.45h5.89a30.35,30.35,0,0,1,2.16-2.6,44.63,44.63,0,0,1,3.42,3.05c.13.13.18.22.18.31s-.18.27-.5.27H266.91a22.44,22.44,0,0,0-3.37.22Zm0,6.14a15.54,15.54,0,0,0,3.6.36h5.8c1-1.21,1.26-1.57,2.25-2.73a32.17,32.17,0,0,1,3.33,3.18.47.47,0,0,1,.13.31c0,.14-.22.27-.58.27H266.91c-.58,0-.9,0-3.37.18ZM266.51,40v.13a.46.46,0,0,1-.41.54,5.21,5.21,0,0,1-1.8.27c-.85,0-.94,0-.94-.49.27-6,.27-6.59.27-9.19s-.05-3.67-.14-6A32.69,32.69,0,0,1,267,27.15h6.34c.63-.8.86-1.07,1.58-1.88,1.17.9,1.52,1.17,2.56,2.06.27.27.36.41.36.58s-.14.32-1.4,1.12v3.32c0,2.15,0,3,.14,7v.13a.56.56,0,0,1-.27.49,7.25,7.25,0,0,1-2.11.32c-.45,0-.59-.14-.63-.54V38.44h-7.06Zm0-2.56h7.06V28.18h-7.06Zm30.35-26.12a35.74,35.74,0,0,1,2.39-3.09A39.76,39.76,0,0,1,303,11.74c0,.09,0,.22,0,.27,0,.22-.18.31-.54.31H296.1v13c0,6.14,0,6.14,0,11.74,0,2.11-1.12,2.82-5.39,3.72-.23-1.48-.45-1.93-1.22-2.38s-2.11-.8-5.93-1.43l.09-.63c5.48.45,5.57.45,8.58.54.54,0,.59-.09.59-.81V12.32h-8.95a37,37,0,0,0-4.27.23l-.32-1.71a19.83,19.83,0,0,0,4.59.45h8.95V5.11c0-2.33-.05-3.23-.14-4.93,1,.13,1.76.22,2.3.27,2.07.27,3,.54,3,.89s-.45.63-1.89,1.21v8.74Zm-15,4.71a51.39,51.39,0,0,1,6,6.45,3.46,3.46,0,0,1,.86,2.42c0,1.66-.95,3.63-1.76,3.63-.49,0-.85-.54-1.21-1.93a32.81,32.81,0,0,0-4.36-9.95Z"/><path class="cls-1" d="M315.71,8.07c2.16,1.7,3.19,2.1,5.62,2.1a24.12,24.12,0,0,0,4.81-.58A12.08,12.08,0,0,0,327.71,5c0-1.21-.85-1.93-3.19-2.51a3.62,3.62,0,0,1,2-.49,9.58,9.58,0,0,1,3.5.76c1.13.45,1.62.94,1.62,1.48,0,.31-.18.62-.72,1.3s-.94,1.34-1.3,1.83c-.81,1.3-.81,1.3-1.13,1.75,3.78-1.07,5-1.61,6.48-2.87a1.28,1.28,0,0,1,.85-.31c1.76,0,3,.63,3,1.48,0,.54-.59,1-1.94,1.43a72.72,72.72,0,0,1-9.8,2.56c-.81,1.12-1.35,1.92-2.38,3.49-1.22,1.88-1.58,2.38-2.43,3.59,2.52-1.3,4.09-1.8,5.8-1.8a5,5,0,0,1,5,4.48c.76-.35.76-.35,4.4-2.19,4.46-2.24,5.53-3,5.53-3.77s-.76-1.56-2.06-2.1a2.11,2.11,0,0,1,1-.27c2,0,5.08,2.73,5.08,4.53,0,.8-.36,1.12-1.62,1.38a73.26,73.26,0,0,0-12,4.62c0,1.43,0,1.7,0,3.63a12.55,12.55,0,0,1-.36,3.85,1.44,1.44,0,0,1-1.26.85,1.34,1.34,0,0,1-1.44-1.34,5.37,5.37,0,0,1,0-.76,43.83,43.83,0,0,0,.32-4.8,22.8,22.8,0,0,0-5.26,3.54,6,6,0,0,0-2.21,4.17c0,2.42,2.48,3.58,7.51,3.58a32.48,32.48,0,0,0,9-1.25,3.33,3.33,0,0,1,.86-.13c1.39,0,3.14,1.25,3.14,2.24,0,.58-.49,1-1.39,1.21a51.2,51.2,0,0,1-8.05.62c-4.23,0-7.33-.45-9.13-1.3C323,36.43,322,35,322,32.75s1-4,3.24-6.13a32.1,32.1,0,0,1,5.58-4,7.58,7.58,0,0,0-.63-3.54,2.57,2.57,0,0,0-2.3-1.35c-3,0-6.52,2.38-9.75,6.5-.86,1.17-1.22,1.43-1.67,1.43-.72,0-1.21-.94-1.21-2.37,0-.94,0-1,1.3-2,3.19-2.51,5.17-4.84,8.37-9.63a17.61,17.61,0,0,1-3,.27c-3.05,0-4.63-.81-6.7-3.45Z"/><path class="cls-1" d="M360.68,12.41A7.55,7.55,0,0,0,366,14.7a19.8,19.8,0,0,0,4.5-.59c0-1.3,0-3.31,0-4.12,0-4.7-.54-5.64-3.64-6.18a2.55,2.55,0,0,1,1.94-.63A10.61,10.61,0,0,1,373.5,4.3a1.85,1.85,0,0,1,1,1.44c0,.26,0,.26-.5,1.16-.72,1.3-1.17,3.41-1.39,6.68a13,13,0,0,0,4.9-2.6,2.14,2.14,0,0,1,1.08-.45,5.64,5.64,0,0,1,1.71.4,1.15,1.15,0,0,1,.76,1c0,.63-.4,1-2,1.75a31.67,31.67,0,0,1-6.57,2.19c0,.63,0,.63-.13,2.24-.05,1.21-.14,3.18-.18,5.87,5-1.79,8.27-2.46,11.91-2.46,6.17,0,10,2.91,10,7.66A7.65,7.65,0,0,1,386.4,37c-4.13,0-7.1-2.74-8.68-7.94l.68-.22a13.3,13.3,0,0,0,2.7,3.9,6,6,0,0,0,4.27,1.7c3.28,0,5.62-2.55,5.62-6.14s-2.34-5.33-6.65-5.33a29.06,29.06,0,0,0-12.19,3.23c0,4.75,0,4.75,0,6.09.05.85.05,1.35.05,1.7a5.2,5.2,0,0,1-.59,2.65,2.73,2.73,0,0,1-2.16,1.66c-.62,0-.62,0-3.37-2.42a18.17,18.17,0,0,0-3-2A2.14,2.14,0,0,1,361.62,32,3.85,3.85,0,0,1,363,29.44c1.67-1.7,3.2-2.69,7.15-4.62.05-.62.05-1.3.09-2.15.09-2,.09-2,.23-6.45a21.59,21.59,0,0,1-3.51.31c-2.88,0-4.81-1-6.7-3.67Zm4.95,18.15c-.9.94-1.35,1.66-1.35,2.15s.58.94,1.8,1.39a9.46,9.46,0,0,0,2.79.71c.53,0,.76-.31.8-1.12.23-4,.32-6.22.32-6.49A18.8,18.8,0,0,0,365.63,30.56ZM385.68,7.89a14.8,14.8,0,0,1,6.61,1.61c2,1.07,3.15,2.55,3.15,3.94a1.24,1.24,0,0,1-1.35,1.3,2.6,2.6,0,0,1-.67-.09,5.94,5.94,0,0,0-.95-.09c-.67,0-1.75.23-5.53,1.21l-.27-.45a33,33,0,0,0,4.91-2.86,6.69,6.69,0,0,0-2.84-2.78,13,13,0,0,0-3.1-1.17Z"/><path class="cls-1" d="M418.92,39.56c5.22-3.54,7.42-6.4,8.54-11.2a5.12,5.12,0,0,1-2.87.9c-3.15,0-5.54-2.78-5.54-6.45,0-3.95,2.48-6.86,5.81-6.86a4.57,4.57,0,0,1,2.51.76c0-.76.05-3.22.05-4.66a7.59,7.59,0,0,0-.05-.89A61.17,61.17,0,0,0,416,13.4a16.63,16.63,0,0,0-2.92,1.21,4.29,4.29,0,0,1-1,.22,4.65,4.65,0,0,1-2.87-1.7,6.7,6.7,0,0,1-1.8-3.27,1.53,1.53,0,0,1,.22-.54A5.25,5.25,0,0,0,412,11.61a23.61,23.61,0,0,0,3.87-.41c5.31-.85,6.93-1.07,11.51-1.57a15,15,0,0,0-.49-5c-.49-1.25-1.57-1.88-3.87-2.2.54-.67.86-.8,2.07-.8a14.82,14.82,0,0,1,4.36.63c1.08.35,1.71.94,1.71,1.56,0,.36,0,.45-.45,1.21a11.33,11.33,0,0,0-1,4.35c1.17-.14,1.17-.14,2.93-.27,4.31-.31,4.81-.4,6-.81a4.22,4.22,0,0,1,1.66-.49A7.9,7.9,0,0,1,444.1,9.5a1.38,1.38,0,0,1,.72,1.21c0,.49-.31.76-1,.76a18,18,0,0,1-2.42-.27,48.81,48.81,0,0,0-6.93-.45c-1.66,0-3,.05-4.81.18-.18,1.71-.32,4.44-.32,6.1,0,.31,0,.85,0,1.52a11.7,11.7,0,0,1,1.44,6A15.51,15.51,0,0,1,426,35.89a23,23,0,0,1-6.7,4.26ZM424.63,17c-2,0-3.6,2.1-3.6,4.84s1.53,4.88,3.65,4.88c1.93,0,2.87-1.43,2.87-4.21C427.55,18.82,426.61,17,424.63,17Z"/><path class="cls-1" d="M466.91,39.56c5.21-3.54,7.42-6.4,8.54-11.2a5.13,5.13,0,0,1-2.88.9c-3.15,0-5.53-2.78-5.53-6.45,0-3.95,2.47-6.86,5.8-6.86a4.6,4.6,0,0,1,2.52.76c0-.76.05-3.22.05-4.66a7.59,7.59,0,0,0-.05-.89A61,61,0,0,0,464,13.4a16.32,16.32,0,0,0-2.92,1.21,4.4,4.4,0,0,1-1,.22,4.66,4.66,0,0,1-2.88-1.7,6.7,6.7,0,0,1-1.8-3.27,1.42,1.42,0,0,1,.23-.54A5.24,5.24,0,0,0,460,11.61a23.61,23.61,0,0,0,3.87-.41c5.31-.85,6.92-1.07,11.51-1.57a15,15,0,0,0-.49-5c-.5-1.25-1.58-1.88-3.87-2.2.54-.67.85-.8,2.07-.8a14.82,14.82,0,0,1,4.36.63c1.08.35,1.71.94,1.71,1.56,0,.36-.05.45-.45,1.21a11.15,11.15,0,0,0-1,4.35c1.17-.14,1.17-.14,2.92-.27,4.32-.31,4.81-.4,6-.81a4.29,4.29,0,0,1,1.67-.49,7.9,7.9,0,0,1,3.82,1.66,1.38,1.38,0,0,1,.72,1.21c0,.49-.32.76-1,.76a18,18,0,0,1-2.43-.27,48.67,48.67,0,0,0-6.92-.45c-1.67,0-3,.05-4.82.18-.18,1.71-.31,4.44-.31,6.1,0,.31,0,.85,0,1.52a11.6,11.6,0,0,1,1.44,6A15.5,15.5,0,0,1,474,35.89a23.12,23.12,0,0,1-6.7,4.26ZM472.62,17c-2,0-3.6,2.1-3.6,4.84s1.53,4.88,3.64,4.88c1.94,0,2.88-1.43,2.88-4.21C475.54,18.82,474.6,17,472.62,17Z"/><path class="cls-1" d="M507.61,6.05a11.23,11.23,0,0,1,3.46,3.67,24.16,24.16,0,0,1,1.39,4.71,23.55,23.55,0,0,1,9.4-2.82,21.27,21.27,0,0,0,.86-5.25c0-1.12-.5-1.48-2.12-1.48h-.85l-.14-.49a7.39,7.39,0,0,1,2.88-.76c1.71,0,3.55,1.43,3.55,2.73a24,24,0,0,1-1.34,5.2c7.46.31,12.59,5.11,12.59,11.83,0,5-2.88,9.23-8.19,12a24.24,24.24,0,0,1-8.81,2.6l-.18-.63a22.59,22.59,0,0,0,8.72-4.48,13.4,13.4,0,0,0,4.95-10.26,9.53,9.53,0,0,0-3.87-8.07,10,10,0,0,0-5.62-1.75,55.68,55.68,0,0,1-7.55,14c.63.95.85,1.26,1.61,2.24,1.31,1.62,1.4,1.8,1.4,2.33a1.05,1.05,0,0,1-1.08,1c-1,0-2.43-1.21-3.87-3.27a17.67,17.67,0,0,1-3.46,3.32,6.06,6.06,0,0,1-3.6,1.61c-1,0-1.53-.58-2-2.29a7.18,7.18,0,0,0-1.35-2.91,4.27,4.27,0,0,1-1-2.73c0-3.54,2.56-7.35,7.06-10.44-.81-5.11-1.3-6.54-3.42-9.14Zm-.18,15.41a10.68,10.68,0,0,0-1.53,5.29c0,2,1.26,4.3,2.34,4.3s3.28-1.57,5.44-3.85a41.65,41.65,0,0,1-2.79-9.68A14.11,14.11,0,0,0,507.43,21.46Zm8.14,3.41A42.12,42.12,0,0,0,521.46,13a17.89,17.89,0,0,0-8.68,3.23C514.13,21.42,514.49,22.54,515.57,24.87Z"/><path class="cls-1" d="M580.1,29.53c-4.32,5.82-10.21,9.27-15.78,9.27-3.42,0-6.07-1.39-7.47-3.81-.9-1.56-1.26-3.76-1.26-7.57,0-2.46.14-6.72.36-10.8.27-4.84.32-6.09.32-7.7,0-3.86-.45-4.62-3.64-6a1.79,1.79,0,0,1,1.25-.45,11.12,11.12,0,0,1,4,1c1.71.81,2.61,1.7,2.61,2.64a4.59,4.59,0,0,1-.4,1.62c-.86,2.68-2.34,16.26-2.34,21.5,0,2.74.54,4.35,1.8,5.38a6.63,6.63,0,0,0,4,1.21A23.45,23.45,0,0,0,573.85,33a27.29,27.29,0,0,0,5.71-4Z"/><path class="cls-1" d="M595.08,8.87c2.38,2,3.82,2.42,7.24,2.42a40.4,40.4,0,0,0,6.43-.54c-.18-6.85-.49-7.48-3.91-8,.63-.63,1-.72,2.25-.72a12.91,12.91,0,0,1,3.78.58c1.07.36,1.52.81,1.52,1.48,0,.27,0,.27-.58,1.53A14.41,14.41,0,0,0,611,10.4c4.45-.86,6.88-1.62,8.36-2.65a1.33,1.33,0,0,1,.54-.18,5.86,5.86,0,0,1,2.34.76A1.36,1.36,0,0,1,623,9.41c0,.63-.72,1-3.51,1.66a79.65,79.65,0,0,1-8.59,1.57c0,1.16,0,1.83,0,2.86,0,1.21,0,2.11,0,4.08A37.58,37.58,0,0,0,616,18.37a7.07,7.07,0,0,0,2.25-1.12,1.1,1.1,0,0,1,.67-.18,5.32,5.32,0,0,1,2.29.67.93.93,0,0,1,.54.85c0,.81-.63,1.17-3.46,1.93a48.91,48.91,0,0,1-7.33,1.3c.09,1.75.09,2.47.14,4s.13,2.38.26,3.5c4.14.76,8.1,2.28,9.9,3.85a3.87,3.87,0,0,1,1.3,3c0,.94-.4,1.57-1,1.57s-.63-.14-1.8-1.26A26.77,26.77,0,0,0,616,33.69a16.62,16.62,0,0,0-4.5-1.88c.09,1,.13,1.44.13,2a4.48,4.48,0,0,1-1.52,3.77,10.15,10.15,0,0,1-6,1.66c-4.5,0-7.6-2-7.6-4.8,0-3.18,4.18-5.42,10.16-5.42.72,0,1.17,0,2.25,0,0-2.15,0-2.46,0-3.09V22c-1.8.09-2.66.14-3.33.14-2.92,0-4.9-.31-6-1a3.88,3.88,0,0,1-2-3.4c0-.32.05-.76.09-1.26l.68,0c0,1.39.27,2,.94,2.55s2.66,1,5.26,1a36.33,36.33,0,0,0,4.37-.32V16.67l-.09-3.27v-.54c-2.48.22-4.28.31-5.81.31-4.27,0-6.11-.85-8.36-3.85Zm10,22.05a14,14,0,0,0-4.9.85c-1.62.63-2.43,1.52-2.43,2.69,0,1.61,1.85,2.55,4.91,2.55a7.45,7.45,0,0,0,5.12-1.61,3.37,3.37,0,0,0,1-2.33c0-.32.09-1.35.09-1.71v-.13A27,27,0,0,0,605.06,30.92Z"/><path class="cls-1" d="M648.28,39.56c5.22-3.54,7.42-6.4,8.55-11.2a5.17,5.17,0,0,1-2.88.9c-3.15,0-5.53-2.78-5.53-6.45,0-3.95,2.47-6.86,5.8-6.86a4.62,4.62,0,0,1,2.52.76c0-.76,0-3.22,0-4.66,0-.09,0-.49,0-.89A61.27,61.27,0,0,0,645.4,13.4a17,17,0,0,0-2.92,1.21,4.22,4.22,0,0,1-1,.22,4.64,4.64,0,0,1-2.88-1.7,6.7,6.7,0,0,1-1.8-3.27,1.42,1.42,0,0,1,.23-.54,5.24,5.24,0,0,0,4.36,2.29,23.61,23.61,0,0,0,3.87-.41c5.3-.85,6.92-1.07,11.51-1.57a14.88,14.88,0,0,0-.5-5c-.49-1.25-1.57-1.88-3.86-2.2.53-.67.85-.8,2.06-.8a14.93,14.93,0,0,1,4.37.63c1.08.35,1.71.94,1.71,1.56,0,.36,0,.45-.45,1.21a11.15,11.15,0,0,0-1,4.35c1.17-.14,1.17-.14,2.92-.27,4.32-.31,4.81-.4,6-.81a4.22,4.22,0,0,1,1.66-.49,8,8,0,0,1,3.83,1.66,1.38,1.38,0,0,1,.72,1.21c0,.49-.32.76-1,.76a17.87,17.87,0,0,1-2.43-.27,48.71,48.71,0,0,0-6.93-.45c-1.66,0-3,.05-4.81.18-.18,1.71-.31,4.44-.31,6.1,0,.31,0,.85,0,1.52a11.6,11.6,0,0,1,1.44,6,15.48,15.48,0,0,1-4.86,11.38,23,23,0,0,1-6.7,4.26ZM654,17c-2,0-3.59,2.1-3.59,4.84s1.53,4.88,3.64,4.88c1.93,0,2.88-1.43,2.88-4.21C656.92,18.82,656,17,654,17Z"/><path class="cls-1" d="M691.1,36a5.8,5.8,0,1,1-5.8-5.78A5.81,5.81,0,0,1,691.1,36Zm-10.17,0a4.4,4.4,0,0,0,4.37,4.35A4.35,4.35,0,1,0,680.93,36Z"/><path class="cls-1" d="M18.17,94.08c0,6.63,0,6.67.13,15.86a.4.4,0,0,1-.31.45,11,11,0,0,1-2.43.27c-.45,0-.58-.09-.58-.5.09-6.45.09-6.45.09-11.83V94.08H3.33v2.46c0,.32-.09.41-.36.49a13.48,13.48,0,0,1-2.25.23c-.54,0-.72-.14-.72-.58C.09,90,.14,86.37.14,86c0-2.38,0-4.12-.09-7.75A21.75,21.75,0,0,1,4,80.14H15.07C15,71.9,15,71.9,14.8,69.93c1,.09,1.84.18,2.33.18,2.48.22,3,.35,3,.8s-.27.54-2,1.17v8.06H30.63c.71-.85.94-1.12,1.61-2,1.35.85,1.71,1.12,2.93,2,.31.27.49.45.49.67v0c0,.31-.31.54-1.44,1.16,0,2.07,0,3.54,0,4.66,0,3.45,0,5.78.18,9.59,0,.32-.09.41-.36.54a9.89,9.89,0,0,1-2.34.27c-.45,0-.59-.13-.59-.54V94.08Zm-3.1-10.62V81.17H3.33V93.05H15.07Zm16-2.29H18.12c0,1.53,0,5.47.05,11.88h12.9Z"/><path class="cls-1" d="M81.08,80.86c1.17-1.57,1.58-2.06,2.75-3.45,2.07,1.57,2.65,2.06,4.54,3.72.13.22.22.31.22.45s-.22.31-.49.31H69V92.37h8.32l2-2.28c1.3.94,1.71,1.21,2.92,2.11.32.22.41.4.41.58s-.27.54-1.62,1.3c-.05,3-.05,5.24-.05,6.9,0,3.94.05,6.09.14,8.6,0,.49-.68.67-2.38.67-.81,0-1,0-1-.4V107H57v2.82c0,.54-.67.72-2.34.72-.81,0-1-.09-1-.5.14-3.18.14-4.57.14-12.18,0-3.41,0-3.77-.14-7.85a26.14,26.14,0,0,1,3.87,2.33h8.32V81.89H52.17a15.26,15.26,0,0,0-4,.31l-.27-1.79a14.06,14.06,0,0,0,4.27.45H65.84v-5.6a49.56,49.56,0,0,0-.23-5.47L68,70c2.52.23,3.1.36,3.1.85S70.65,71.45,69,72v8.83ZM57,106H77.71V93.41H57Z"/><path class="cls-1" d="M109.28,91.08a38.88,38.88,0,0,1,7.51,4.52,98.11,98.11,0,0,0,10.3-10.84c1.08-1.39,1.44-1.88,1.44-2.11s-.27-.36-.72-.36a107.42,107.42,0,0,0-13.94,2c-5.13,1-7,1.52-8.86,2.42a2.84,2.84,0,0,1-1.26.36c-.81,0-1.93-.85-3-2.33a6.88,6.88,0,0,1-1.57-3.41,2.19,2.19,0,0,1,.26-1,5.49,5.49,0,0,0,2.16,2.24,4.89,4.89,0,0,0,2.75.54c2.16,0,6-.4,14.88-1.61,4.23-.54,6.52-.85,6.93-.94a3,3,0,0,0,1.44-.54,2,2,0,0,1,1.12-.32c.77,0,1.66.63,3.15,2.16,1.3,1.34,1.89,2.19,1.89,2.77a.94.94,0,0,1-.54.9l-1.13.4a9.26,9.26,0,0,0-2.51,1.66c-.41.31-1.58,1.21-3.33,2.46L122.42,93c-2.3,1.74-3.11,2.37-4.73,3.4,3,2.56,3.87,3.77,3.87,5.65s-.63,3-1.53,3c-.63,0-1-.36-1.57-1.62a36.71,36.71,0,0,0-4.36-6.58,39.91,39.91,0,0,0-5.22-5.11Z"/><path class="cls-1" d="M146.75,77.41c4.31,1.07,6.92,2.11,8.68,3.36a3.45,3.45,0,0,1,1.53,3c0,1.48-.5,2.51-1.26,2.51-.5,0-.72-.23-1.94-1.8A23.16,23.16,0,0,0,146.43,78Zm32,2.55A46.71,46.71,0,0,1,169.28,92a89.81,89.81,0,0,1-12.64,10.21c-2.11,1.48-2.34,1.66-2.65,2.06-.72.85-1,1.08-1.58,1.08-1.84,0-5.26-4.3-5.26-6.59a2.1,2.1,0,0,1,.23-.89,6.91,6.91,0,0,0,1.62,2,2.94,2.94,0,0,0,1.79.94c.77,0,2.16-.58,4.37-1.88a65.38,65.38,0,0,0,10.74-7.4,70.75,70.75,0,0,0,12.1-12Z"/><path class="cls-1" d="M191.41,84a23.48,23.48,0,0,1,7.86,2.64,3.18,3.18,0,0,1,1.71,3c0,1.16-.58,2.15-1.26,2.15-.45,0-.71-.18-1.39-1a22,22,0,0,0-7.2-6.14Zm34.8-1.08a62.24,62.24,0,0,1-9.53,10.49c-3.73,3.49-8.64,6.94-15.61,11.06a9.63,9.63,0,0,0-2.15,1.53,1.53,1.53,0,0,1-1,.44c-.9,0-1.89-.85-3.19-2.64a7.37,7.37,0,0,1-1.4-3.58,1.57,1.57,0,0,1,.36-1.08c1,1.93,2.07,2.82,3.42,2.82s4.54-1.52,8.82-4.07a96.13,96.13,0,0,0,19.69-15.46ZM196.35,76c7.2,1.7,9.49,3.09,9.49,5.74,0,1.25-.54,2.24-1.21,2.24-.5,0-.5,0-2.43-2.38a20.66,20.66,0,0,0-6.16-5Z"/><path class="cls-1" d="M246.59,85.92c1.93,0,5.8-.31,10.7-.8,1.89-.23,1.89-.23,2.56-.59a1.41,1.41,0,0,1,.72-.22c.54,0,1.26.49,2.21,1.52a3,3,0,0,1,1,1.71.82.82,0,0,1-.23.58,2,2,0,0,0-.54,1.39c-.18,1.12-.18,1.12-.54,3.4-.27,1.57-.72,4.75-1.44,9.46,1.17.67,1.76,1.3,1.76,1.88a.78.78,0,0,1-.81.81,6.27,6.27,0,0,1-.9,0,20.13,20.13,0,0,0-2.75-.13c-4.13,0-9.26.62-11.33,1.43a3,3,0,0,1-1,.22c-1,0-2.16-.89-3.15-2.46a3.48,3.48,0,0,1-.68-1.7,1.57,1.57,0,0,1,.18-.63c1.26,1.52,2.3,2.15,3.6,2.15a14.45,14.45,0,0,0,2.25-.22c1.93-.27,6.48-.72,10.3-1.08.22-1.34.49-3.94.9-7.53-4.45.27-10.3,1.17-12.05,1.84a2.94,2.94,0,0,1-.9.18c-1,0-3-2.42-3-3.67a1.44,1.44,0,0,1,.18-.68,3.14,3.14,0,0,0,3,1.75,32.73,32.73,0,0,0,4-.36c4.05-.49,4.36-.49,8.95-.85.22-2,.49-5.38.54-6.45-6.52.45-11.38,1.07-12.91,1.61a2.37,2.37,0,0,1-1,.23c-.68,0-1.22-.32-1.94-1.17a4.83,4.83,0,0,1-1.21-2.73,4.62,4.62,0,0,1,.13-.9C243.93,85.52,244.56,85.92,246.59,85.92Z"/><path class="cls-1" d="M282.43,77.41c4.32,1.07,6.93,2.11,8.68,3.36a3.45,3.45,0,0,1,1.53,3c0,1.48-.5,2.51-1.26,2.51-.5,0-.72-.23-1.93-1.8A23.37,23.37,0,0,0,282.12,78Zm32,2.55A46.5,46.5,0,0,1,305,92a89.24,89.24,0,0,1-12.64,10.21c-2.11,1.48-2.33,1.66-2.65,2.06-.72.85-1,1.08-1.57,1.08-1.85,0-5.26-4.3-5.26-6.59a2.06,2.06,0,0,1,.22-.89,6.91,6.91,0,0,0,1.62,2,2.94,2.94,0,0,0,1.8.94c.76,0,2.16-.58,4.36-1.88a65.48,65.48,0,0,0,10.75-7.4,71.12,71.12,0,0,0,12.1-12Z"/><path class="cls-1" d="M342.11,88.34a8.75,8.75,0,0,0,.54-2.37c0-1.17-1-1.71-3.46-1.79v-1h9.21v1c-2.38.08-3.46,1.12-4.72,4.48L337.21,106h-2.57l-7.1-18.6c-1-2.6-1.62-3.18-3.55-3.22v-1H334.1v1c-2.07,0-3,.53-3,1.52a8.8,8.8,0,0,0,.63,2.37L337,102.41Z"/><path class="cls-1" d="M358.07,98.74h1.4c.18,2.1.49,3.18,1.26,4.16a5.72,5.72,0,0,0,4.9,2.42c3.06,0,4.9-1.56,4.9-4.21a3.46,3.46,0,0,0-1.08-2.6c-.81-.67-.94-.71-5-2.51-4.86-2.1-6.35-3.71-6.35-6.76a7.05,7.05,0,0,1,1.22-4.12,6.94,6.94,0,0,1,5.58-2.56,19.79,19.79,0,0,1,4.18.54c.36,0,.67.09.94.09a9.39,9.39,0,0,0,2.16-.31L371.93,90h-1.49c-.09-4-2.07-6.37-5.35-6.37-2.79,0-4.59,1.57-4.59,4A2.82,2.82,0,0,0,361.72,90a21.27,21.27,0,0,0,4.67,2.33c3,1.25,4.14,1.93,5.18,3a6.21,6.21,0,0,1,1.48,4.25c0,4.13-2.74,6.77-7,6.77a23.12,23.12,0,0,1-4.5-.54,11.69,11.69,0,0,0-1.66-.13,13,13,0,0,0-2,.18Z"/><path class="cls-1" d="M468.66,104.74c1.53,0,2.43-.22,2.83-.67s.5-.58.59-3.94V79c-.09-2.87-.09-2.91-.23-3.31-.31-.94-1.12-1.3-3.19-1.3V73.33h12.68c4.63,0,7.87.58,10.08,1.84,4.58,2.6,7,7.48,7,14.2,0,6.41-2.21,11.29-6.3,13.94-2.74,1.75-6.43,2.51-11.87,2.51H468.66Zm12.1-.27c4.4,0,7.87-1.25,9.89-3.58s3.19-6.1,3.19-10.76a21.45,21.45,0,0,0-2.42-10.7c-1.89-3.14-5.58-4.75-11-4.75h-4.27v29.79Z"/><path class="cls-1" d="M520.33,73.33v1.08c-3.28.18-3.5.45-3.5,4.61V91.84c0,4.75.45,7.26,1.61,9.32,1.4,2.42,3.83,3.63,7.2,3.63,4,0,6.93-1.53,8.41-4.26,1-1.93,1.44-4.66,1.44-9V81.71c0-4-.14-5.33-.63-6s-1.53-1.21-3.42-1.25V73.33h10v1.08c-1.75,0-2.65.4-3.28,1.25s-.86,2.33-.86,6v10c0,5.29-.63,8.2-2.29,10.48-1.93,2.74-5.53,4.26-9.94,4.26s-8.18-1.57-10.21-4.17c-1.57-2-2.16-4.57-2.16-9.23V79c0-4.16-.22-4.43-3.46-4.61V73.33Z"/><path class="cls-1" d="M558.38,100.13c0,4.12.27,4.48,3.78,4.57v1.12H550.92V104.7c3.19-.09,3.46-.41,3.46-4.57V79c0-4.16-.23-4.48-3.46-4.61V73.33h12.36a19.57,19.57,0,0,1,7.6,1.21q4.46,2.08,4.45,7.8c0,4.3-1.75,7-5.44,8.33a28.44,28.44,0,0,1-8.59,1.08h-2.92Zm3.19-9.73c3.51,0,5.94-.62,7.33-1.88s2.07-3.36,2.07-6c0-5.25-2.83-7.84-8.54-7.84h-4V90.4Z"/><path class="cls-1" d="M619,86.68a40,40,0,0,1-6.7,7.62,56.43,56.43,0,0,1-13.58,9.14c-2.52,1.3-2.56,1.3-3.37,2.15a1.38,1.38,0,0,1-1,.59c-.9,0-3-2.65-3-3.86,0-.22,0-.22.22-.8.31-1,.36-2,.36-6.86,0-9.9-.23-14.25-.81-15.91-.4-1.12-1.12-1.65-3.1-2.33a2.12,2.12,0,0,1,1.39-.44,8.51,8.51,0,0,1,3.6,1.07c1.75.94,2.65,1.84,2.65,2.73a2.26,2.26,0,0,1-.22.94,24,24,0,0,0-.59,4.44c-.22,2.73-.49,10.89-.49,14.2v2.24a57,57,0,0,0,15.33-7.93,61.22,61.22,0,0,0,8.73-7.52Z"/><path class="cls-1" d="M631.87,84.76c3.73.76,6.38,1.66,7.87,2.64a3.2,3.2,0,0,1,1.71,3c0,1.16-.59,2.15-1.26,2.15-.45,0-.72-.18-1.4-1a22.23,22.23,0,0,0-7.19-6.14Zm34.71-1.12a52.43,52.43,0,0,1-6.7,7.66,102.1,102.1,0,0,1-17,13,27.45,27.45,0,0,0-3.46,2.46,1.5,1.5,0,0,1-1,.45c-.9,0-1.93-.85-3.19-2.69a7.47,7.47,0,0,1-1.39-3.45,1.5,1.5,0,0,1,.4-1c.85,1.7,2.11,2.78,3.37,2.78,1,0,4-1.48,8.64-4.39A104.14,104.14,0,0,0,666,83.23Zm-29.77-6.81c7.2,1.7,9.49,3.09,9.49,5.69,0,1.25-.54,2.24-1.21,2.24-.5,0-.5,0-2.43-2.38a20.85,20.85,0,0,0-6.16-4.93Zm18.44-3.59c4.81,2.11,7,3.9,7,5.78a3.5,3.5,0,0,1-.63,2.15.65.65,0,0,1-.54.23c-.49,0-.63-.14-1.26-1.35a22.26,22.26,0,0,0-4.9-6.36Zm4.18-2.87c5,1.66,7.29,3.32,7.29,5.34,0,1.3-.45,2.28-1.08,2.28-.4,0-.67-.27-1.17-1.12a19.9,19.9,0,0,0-5.35-6Z"/><path class="cls-1" d="M686.6,109.22a32.11,32.11,0,0,0,6.52-10.57,30.5,30.5,0,0,0,2.16-9.14,2.25,2.25,0,0,0-1.17-2.2,36.51,36.51,0,0,0-10,2.82,2.81,2.81,0,0,1-1.39.45c-.85,0-1.75-.54-2.83-1.7a4.37,4.37,0,0,1-1.53-2.69,2.47,2.47,0,0,1,.18-.85,4.24,4.24,0,0,0,3.69,2.06c1,0,1,0,7.69-1.16,2.74-.45,8.45-1.17,13.85-1.66a21.85,21.85,0,0,0,3.5-.76,2.51,2.51,0,0,1,1.13-.23,5.81,5.81,0,0,1,2.38.67c1.26.59,2.12,1.44,2.12,2.07s-.5.89-1.26.89a4.41,4.41,0,0,1-1.13-.13,42.45,42.45,0,0,0-7.24-.58,55.84,55.84,0,0,0-7.37.44c2.07,1.12,3,2.06,3,3.09,0,1.62-1.31,5.65-2.88,8.79a26.52,26.52,0,0,1-8.91,10.89Zm-.86-34.59c1.89,1.75,3.38,2.42,5.4,2.42a24.83,24.83,0,0,0,9.44-2.19,2.66,2.66,0,0,1,1.35-.36c1.17,0,3.06,1.43,3.06,2.33,0,.58-.54.8-2.34,1.21a64.43,64.43,0,0,1-10.3,1.16c-3.32,0-5.12-1-7.28-4.12Zm20.83-1.75a21.13,21.13,0,0,1,5.3,3.14,3.18,3.18,0,0,1,1.4,2.69c0,1.34-.5,2.37-1.13,2.37-.36,0-.63-.31-1-1.07a20.06,20.06,0,0,0-5-6.63Zm3.95-2.51a19.18,19.18,0,0,1,5.4,2.56c1.26.89,1.62,1.52,1.62,2.64s-.41,2.15-1,2.15c-.36,0-.63-.22-1-.89a16.45,16.45,0,0,0-5.4-5.92Z"/><path class="cls-1" d="M729.46,77.41c4.31,1.07,6.92,2.11,8.68,3.36a3.45,3.45,0,0,1,1.53,3c0,1.48-.5,2.51-1.26,2.51-.5,0-.72-.23-1.94-1.8A23.16,23.16,0,0,0,729.14,78Zm32,2.55A46.71,46.71,0,0,1,752,92a89.81,89.81,0,0,1-12.64,10.21c-2.11,1.48-2.34,1.66-2.65,2.06-.72.85-1,1.08-1.58,1.08-1.84,0-5.26-4.3-5.26-6.59a2.1,2.1,0,0,1,.23-.89,6.91,6.91,0,0,0,1.62,2,2.94,2.94,0,0,0,1.79.94c.77,0,2.16-.58,4.37-1.88a65.38,65.38,0,0,0,10.74-7.4,70.75,70.75,0,0,0,12.1-12Z"/><path class="cls-1" d="M772.86,105.73A64.77,64.77,0,0,0,785,95.91a79.21,79.21,0,0,0,8.59-11.15A30.07,30.07,0,0,0,796.6,79c-2.16.13-4.54.62-9.49,2a23.56,23.56,0,0,0-3.78,1.21,2.06,2.06,0,0,1-.76.13c-1,0-1.93-.8-2.92-2.55a5.53,5.53,0,0,1-.95-2.69,1.78,1.78,0,0,1,.32-.9c1.3,2.33,2.25,3,4.22,3a72.31,72.31,0,0,0,9.45-1.26c2.61-.49,3.42-.76,4.23-1.25a1.73,1.73,0,0,1,1-.41c.94,0,3.51,2.29,3.51,3.14,0,.31-.18.58-.59.85-.94.63-.94.63-2.56,3-2.16,3.23-2.16,3.23-5.67,7.8,6.34,3.31,9.9,5.6,11.65,7.57a5.9,5.9,0,0,1,1.71,4.43c0,1.44-.45,2.33-1.21,2.33a1.41,1.41,0,0,1-1-.71,14.41,14.41,0,0,1-1.08-1.8,38.39,38.39,0,0,0-10.7-11A49,49,0,0,1,781.09,102a40.12,40.12,0,0,1-7.87,4.39Z"/><rect class="cls-2" x="387.31" y="72.26" width="73.11" height="39.74" rx="7"/><path class="cls-3" d="M398.73,92.68c0-1.62,0-2-.12-3.18,2.4.21,2.94.33,2.94.66s-.24.33-1,.54v2h2.8c.63-.75.81-1,1.44-1.71a24.78,24.78,0,0,1,2.2,2c.09.12.12.18.12.24a.24.24,0,0,1-.27.21h-6.29v1.26A16.06,16.06,0,0,1,404.26,96a1.26,1.26,0,0,1,.69,1.2,2.85,2.85,0,0,1-.42,1.47.23.23,0,0,1-.21.09c-.21,0-.27-.06-.57-.54a7.35,7.35,0,0,0-3.22-3c0,1.89,0,4.2.09,8.84,0,.27-.06.36-.27.42a6.19,6.19,0,0,1-1.2.12c-.36,0-.48-.09-.48-.36.06-1.29.06-1.29.09-4.49,0-2.19,0-2.19.06-3.36a22.43,22.43,0,0,1-6.11,5.88l-.27-.33a24.27,24.27,0,0,0,5.89-8.52h-2.25c-.81,0-1.54,0-3.07.15l-.18-1c.54.06.54.06,3.22.15Zm4.9-4.49c.66-.75.87-1,1.47-1.71,1,.84,1.27,1.08,2.17,2a1.22,1.22,0,0,1,.06.21.26.26,0,0,1-.24.24h-11.7l-2.71.15-.15-1c1.11.12,2.25.18,2.89.18h4.78a22.77,22.77,0,0,0,1.87-5.76c2.22.54,2.85.78,2.85,1s-.27.3-1.05.42a28.84,28.84,0,0,1-3,4.29Zm-.54-6.78c.63-.78.84-1,1.5-1.74,1,.81,1.24,1,2.2,2a.36.36,0,0,1,.12.24.26.26,0,0,1-.27.24H396.32c-1.11,0-1.72,0-2.89.12l-.21-1a28.83,28.83,0,0,0,3.1.21h2.41v-.36a21.65,21.65,0,0,0-.21-3.42c2.58.24,3.27.36,3.27.63s-.21.3-1.17.66v2.49Zm-7.61,1.08c2,2,2.73,2.82,2.73,3.45a4.19,4.19,0,0,1-.3,1.17c-.21.45-.66.87-1,.87s-.33-.27-.45-1.17a15,15,0,0,0-1.26-4.11ZM410,88a22.32,22.32,0,0,1-1.72,9.41,14.75,14.75,0,0,1-5.92,6.62l-.33-.45c2.67-2.3,3.91-4,4.81-6.74s1.2-5.22,1.2-10.67c0-2.58,0-4.35-.15-6.39,1.12.6,1.45.78,2.44,1.41a26.67,26.67,0,0,0,4.6-2,8.83,8.83,0,0,0,1.78-1.2c2.19,1.23,2.74,1.62,2.74,2,0,.12-.24.21-.52.21l-1.2-.06A51.1,51.1,0,0,1,410,81.92v5.4h6.35c.9-1,.9-1,1.74-1.95a28,28,0,0,1,2.32,2.31c.06.09.09.12.09.18s-.09.15-.21.15h-4.12v4.67c0,1,0,4.86.12,11.42,0,.21-.09.27-.33.33a10,10,0,0,1-1.42.12c-.3,0-.42-.06-.48-.3l.12-11.57V88Z"/><path class="cls-3" d="M437.2,80.57c.51-.6,1-1.17,1.45-1.68,1,.84,1.26,1.11,2.19,2a.38.38,0,0,1,.12.21c0,.12-.12.18-.33.18h-6.22c1.68,1,2.31,1.59,2.31,2.25s-.6,1.47-1,1.47c-.27,0-.39-.21-.54-.87a9.25,9.25,0,0,0-1.27-2.85h-1.8a21.24,21.24,0,0,1-5.06,5l-.3-.27a19.59,19.59,0,0,0,3.73-5.43,11.29,11.29,0,0,0,1.15-3.27c2.8.54,3.43.72,3.43,1s-.21.33-1.42.51a17.9,17.9,0,0,1-1.05,1.71ZM449.57,96c.69-.84.87-1.08,1.53-1.86,1.21.9,1.57,1.17,2.71,2.13a.42.42,0,0,1,.12.27c0,.09-.12.15-.24.15H441.93a15.19,15.19,0,0,0,4,2.67c2.65,1.29,4.57,1.74,8.81,2.07v.45a2,2,0,0,0-1.38.72,2.14,2.14,0,0,0-.75,1.22,18.74,18.74,0,0,1-6.44-2.78,17.2,17.2,0,0,1-4.66-4.11v2.49c0,1,.06,3.44.12,4.91,0,.21-.06.3-.21.39a4.84,4.84,0,0,1-1.36.18.43.43,0,0,1-.48-.36c.12-3.56.12-3.62.12-5.12v-2a23.56,23.56,0,0,1-6.86,4.65,31.88,31.88,0,0,1-5.75,2.15l-.18-.42a47.11,47.11,0,0,0,7.28-3.92,22.54,22.54,0,0,0,3.89-3.24h-7.14a14.62,14.62,0,0,0-2.61.27l-.21-1.26a10.85,10.85,0,0,0,2.82.3h8.76v-.63a17.86,17.86,0,0,0-.12-2c1.11.12,2.47.3,2.8.36s.33.15.33.3-.33.39-1.2.6V96Zm-18.38-9.47a10.34,10.34,0,0,0-1.93.21l-.21-1.2a8.44,8.44,0,0,0,2.14.3h5.29c.48-.6.63-.78,1.14-1.35.79.72,1,.93,1.72,1.65a.4.4,0,0,1,.09.21.26.26,0,0,1-.21.18h-4.45V90.7c1.32-.24,1.53-.3,4.21-.87l.09.39A49.05,49.05,0,0,1,433.8,92l-4.33,1.2c-.12.87-.24,1.14-.48,1.14s-.24,0-1.08-2.79A35.87,35.87,0,0,0,433,91V86.54Zm18,4.85v.27c0,.24.39.36,1.14.36,1.11,0,1.51-.12,1.75-.54a26.48,26.48,0,0,0,1.14-4.43l.42,0-.15,3.71a2.39,2.39,0,0,1,0,.33v.12c0,.3.09.39.42.45a.7.7,0,0,1,.63.66c0,.48-.39.81-1.14.93a17.46,17.46,0,0,1-2.59.18,12.82,12.82,0,0,1-2.68-.15,1.27,1.27,0,0,1-.72-1.23V86.24h-5a12.59,12.59,0,0,1-.36,3.38,7.24,7.24,0,0,1-3.46,4,11.32,11.32,0,0,1-3.25,1.44l-.24-.36a10.65,10.65,0,0,0,4.48-3.54c.81-1.23,1.08-2.54,1.08-5.27a11.68,11.68,0,0,0-.12-1.59c1,.51,1.27.66,2.14,1.2h4.72c.42-.48.54-.63,1-1.08l1.53,1.14c.24.18.33.3.33.39s-.3.39-1,.69Zm.69-10.82c.72-.9.93-1.17,1.62-2,1.15,1,1.48,1.26,2.56,2.28.09.09.15.15.15.21s-.15.21-.24.21H445.6c1.53.9,2.1,1.5,2.1,2.1s-.69,1.71-1.11,1.71c-.21,0-.33-.15-.39-.51a8.08,8.08,0,0,0-1.14-3.3h-1.93a18.92,18.92,0,0,1-3.91,3.84l-.3-.3a15.92,15.92,0,0,0,2.86-4.32,10.31,10.31,0,0,0,1.08-3.09l2.71.57c.36.09.57.21.57.36s-.33.39-1.42.51a15.17,15.17,0,0,1-1.08,1.74Zm-7,7.2c2.14,1.14,3.46,2.39,3.46,3.29,0,.69-.57,1.59-1,1.59-.24,0-.3-.09-.54-.78A11.36,11.36,0,0,0,442.77,88Z"/><path class="cls-1" d="M506.64,67.57a8.21,8.21,0,0,0,1.63-2.65,7.67,7.67,0,0,0,.54-2.28.57.57,0,0,0-.29-.55,9.15,9.15,0,0,0-2.5.71.68.68,0,0,1-.35.11,1.07,1.07,0,0,1-.71-.43,1.13,1.13,0,0,1-.38-.67.52.52,0,0,1,.05-.21,1.07,1.07,0,0,0,.92.51,11.6,11.6,0,0,0,1.92-.29c.69-.11,2.11-.29,3.46-.41a6.05,6.05,0,0,0,.88-.19.6.6,0,0,1,.28-.06,1.49,1.49,0,0,1,.6.17c.31.14.52.36.52.51s-.12.23-.31.23a.9.9,0,0,1-.28,0,10.65,10.65,0,0,0-1.81-.14A13.48,13.48,0,0,0,509,62c.51.28.74.52.74.77A7,7,0,0,1,509,65a6.6,6.6,0,0,1-2.23,2.72Zm-.21-8.65a1.82,1.82,0,0,0,1.34.61,6.19,6.19,0,0,0,2.36-.55.67.67,0,0,1,.34-.09c.29,0,.77.36.77.58s-.14.2-.59.3a15.55,15.55,0,0,1-2.57.29,1.91,1.91,0,0,1-1.82-1Zm5.2-.44a5.5,5.5,0,0,1,1.33.79.77.77,0,0,1,.34.67c0,.34-.12.59-.28.59s-.15-.07-.24-.27a5,5,0,0,0-1.25-1.65Zm1-.62a4.6,4.6,0,0,1,1.35.64.72.72,0,0,1,.4.66c0,.31-.1.53-.25.53s-.15,0-.24-.22A4.23,4.23,0,0,0,512.53,58Z"/><path class="cls-1" d="M518.74,62.28a9.36,9.36,0,0,0,1.61-.21,1.49,1.49,0,0,0,.47-.15l.15-.08a.37.37,0,0,1,.16,0,1.22,1.22,0,0,1,.57.38c.18.19.22.27.22.38a.22.22,0,0,1-.08.18,2.24,2.24,0,0,0-.26.77c-.16.64-.4,1.63-.48,2l.46,0a3.42,3.42,0,0,0,1.18-.16.57.57,0,0,1,.19-.05,1.37,1.37,0,0,1,.48.19c.26.15.43.36.43.51a.24.24,0,0,1-.26.23A2.56,2.56,0,0,1,523,66a7,7,0,0,0-1.35-.1,11.28,11.28,0,0,0-2.92.35,4.55,4.55,0,0,0-1,.31.5.5,0,0,1-.29.09.9.9,0,0,1-.64-.37,1.55,1.55,0,0,1-.37-.74.63.63,0,0,1,0-.19,1,1,0,0,0,.86.53c.11,0,.4,0,.76-.08.72-.11,1.28-.19,1.71-.23l.68-.09a30.6,30.6,0,0,0,.44-3.07s0-.05,0-.05a11.31,11.31,0,0,0-1.35.29,4.68,4.68,0,0,0-.64.24.88.88,0,0,1-.27.06c-.2,0-.39-.16-.56-.45a1.33,1.33,0,0,1-.22-.61.37.37,0,0,1,.07-.22A.88.88,0,0,0,518.74,62.28Z"/><path class="cls-1" d="M527.59,62.24a1.56,1.56,0,0,0,1.1.26l1.38,0,4.38-.07a4.77,4.77,0,0,1,1.46.1.25.25,0,0,1,.16.23.32.32,0,0,1-.26.3,11.06,11.06,0,0,1-2.7.14c-1,0-3.62.07-4,.1s-.63,0-.81.14a.85.85,0,0,1-.17,0c-.17,0-.35-.13-.54-.37a2.11,2.11,0,0,1-.42-1c0-.16,0-.18.09-.26A1.06,1.06,0,0,0,527.59,62.24Z"/><path class="cls-1" d="M540.06,67.35a15.43,15.43,0,0,0,3.72-4.29,10.81,10.81,0,0,0,1.33-3c0-.11-.05-.14-.22-.14a17.94,17.94,0,0,0-2.08.38,13.17,13.17,0,0,0-2.06.64,1,1,0,0,1-.41.11c-.24,0-.53-.22-.81-.6a1.32,1.32,0,0,1-.29-.71.37.37,0,0,1,.07-.22,1.1,1.1,0,0,0,1.05.65,29.82,29.82,0,0,0,3.2-.46,3.66,3.66,0,0,0,1.31-.32c.13-.08.13-.08.22-.08a1.72,1.72,0,0,1,.82.52c.24.22.35.4.35.55s0,.15-.16.29a1.92,1.92,0,0,0-.39.62,16.3,16.3,0,0,1-3.24,4.52,11.42,11.42,0,0,1-2.31,1.67Zm8.29-8.45a1.13,1.13,0,1,1-1.12-1.12A1.12,1.12,0,0,1,548.35,58.9Zm-1.91,0a.79.79,0,0,0,.79.79.79.79,0,0,0,0-1.58A.79.79,0,0,0,546.44,58.9Z"/></svg>