<svg id="レイヤー_1" data-name="レイヤー 1" xmlns="http://www.w3.org/2000/svg" viewBox="0 0 48 70"><defs><style>.cls-1{fill:#004021;}</style></defs><title>num2</title><path class="cls-1" d="M0,70c.94-7.48,2.81-12.9,6.27-18.22S14.13,42,24.8,33.08c4.3-3.55,6.36-5.88,7.76-8.59a19.34,19.34,0,0,0,2-8.6c0-8.13-4.4-13.46-11-13.46-4.4,0-7.3,2.15-8.71,6.26C14,11,13.94,12,13.75,17.2c-.18,3.64-1.87,5.14-6,5.14-4.5,0-6.65-1.59-6.65-5,0-5,2.81-9.81,7.77-13.17C13.1,1.4,18.15,0,24.42,0,38.55,0,47,6.45,47,17.29a17.33,17.33,0,0,1-4.21,11.78c-2,2.33-5.52,5-10.29,7.66C20.12,43.65,17.31,45.51,13,49.44A24.87,24.87,0,0,0,5.61,60H32.75c7.67,0,10.38-2.43,12.07-10.84l3.18.65L44.73,70Z"/></svg>