<svg id="レイヤー_1" data-name="レイヤー 1" xmlns="http://www.w3.org/2000/svg" viewBox="0 0 48 72"><defs><style>.cls-1{fill:#004021;}</style></defs><title>num3</title><path class="cls-1" d="M26.18,34.45C40.6,35.58,48,41.79,48,52.61,48,64.66,38.61,72,23.24,72,9.77,72,0,65.88,0,57.41c0-3.57,2.66-5.65,7.11-5.65,2.28,0,4.08.66,4.84,1.79.57.76.57.94.76,5.27a14.58,14.58,0,0,0,2.56,7.53c1.52,2,4.56,3.2,7.78,3.2,7.88,0,12.33-6.3,12.33-17.22,0-6.49-1.8-11.2-5.21-13.65-2.47-1.79-7.21-3-12.34-3H15V32.75h2.65C28.36,32.66,34,27.11,34,16.47c0-9.13-3.51-14-10.24-14-3.51,0-6.08,1.31-7.5,4A17.46,17.46,0,0,0,14.32,14c-.09,3.11-.28,3.77-1.13,4.71s-2.66,1.41-4.94,1.41c-4.36,0-6.64-1.6-6.64-4.61C1.61,6.78,11.38,0,24,0c6.74,0,12.9,1.88,16.89,5.18A15.32,15.32,0,0,1,46.1,16.75c0,9.23-7.21,15.34-19.92,16.94Z"/></svg>