<svg id="レイヤー_1" data-name="レイヤー 1" xmlns="http://www.w3.org/2000/svg" viewBox="0 0 47 70"><defs><style>.cls-1{fill:#004021;}</style></defs><title>num5</title><path class="cls-1" d="M6.9,33.74c5.78-5.42,10.91-7.57,18-7.57,13.61,0,22.1,8,22.1,21C47,61.12,37.21,70,21.73,70,9.51,70,0,64.11,0,56.45,0,52.9,2.33,51,6.62,51c2.15,0,3.82.56,4.66,1.59.66.74.84,1.49.94,4.2.09,3.46.93,5.89,2.61,7.67a9.83,9.83,0,0,0,7.27,3.08,10.73,10.73,0,0,0,9.14-4.77c2.24-3.45,3.54-8.59,3.54-14.39,0-11.77-4.85-18.6-13.24-18.6C15.39,29.81,9.6,33.64,5.87,40L2.8,39.25,5.87,0H44L42.34,10.47H8.77Z"/></svg>