<svg id="レイヤー_1" data-name="レイヤー 1" xmlns="http://www.w3.org/2000/svg" viewBox="0 0 49 72"><defs><style>.cls-1{fill:#004021;}</style></defs><title>num6</title><path class="cls-1" d="M27.85,26.26C40.5,26.26,49,35,49,48c0,14.4-9.72,24-24.26,24C8.69,72,0,60.24,0,38.4,0,25.69,2.64,15.34,7.46,8.94,12,2.92,18.22,0,26.62,0c11.43,0,20,5.08,20,11.86,0,3.39-2.55,5.46-6.8,5.46-2.36,0-4.34-.66-5.19-1.79-.57-.75-.57-1-.85-4.89-.28-5.37-3-8.29-7.46-8.29-5.76,0-9.82,4.33-11.8,12.43a81.51,81.51,0,0,0-2,17.88C17.56,28,21.62,26.26,27.85,26.26ZM14.26,36c-1.33,2.26-1.89,5.09-1.89,9.41a44.87,44.87,0,0,0,3,17.13c1.89,4.43,5.48,7.16,9.53,7.16,7.18,0,11.52-8,11.52-21.37,0-11.67-4.43-18.91-11.7-18.91A12.26,12.26,0,0,0,14.26,36Z"/></svg>