<svg id="レイヤー_1" data-name="レイヤー 1" xmlns="http://www.w3.org/2000/svg" viewBox="0 0 756.31 162.65"><defs><style>.cls-1{fill:none;stroke:#004021;stroke-miterlimit:10;stroke-width:1.31px;}.cls-2{fill:#004021;}</style></defs><rect class="cls-1" x="0.65" y="32.7" width="156.48" height="129.3"/><line class="cls-1" x1="156.84" y1="96.4" x2="194.91" y2="96.4"/><polygon class="cls-2" points="189.48 103.09 188.36 101.89 194.28 96.4 188.36 90.9 189.48 89.7 196.68 96.4 189.48 103.09"/><path class="cls-2" d="M34,92.18c-.52-1.47-.84-2.06-1.36-2.4-.25-.18-.39-.23-1.16-.34v-.55h5.95v.55a3.29,3.29,0,0,0-1.16.18.75.75,0,0,0-.54.77,6.76,6.76,0,0,0,.47,1.86l3.82,11,3.81-10.75a5.59,5.59,0,0,0,.46-1.86c0-.8-.5-1.09-2-1.18v-.55h5.39v.55a2.23,2.23,0,0,0-1.53.61,6.57,6.57,0,0,0-1.4,2.5l-4.71,12.89H38.73Z"/><path class="cls-2" d="M56,102.46c0,2.09.14,2.27,1.77,2.32v.57H52.2v-.57c1.61,0,1.75-.23,1.75-2.32V91.77c0-2.11-.12-2.26-1.75-2.33v-.55h6.29c4.16,0,6.09,1.3,6.09,4.06a4.47,4.47,0,0,1-.77,2.57A5.65,5.65,0,0,1,60,97.2v.2a3.87,3.87,0,0,1,1.82.82,7.57,7.57,0,0,1,1.88,3c1.12,2.52,1.3,2.84,1.75,3.22a1.75,1.75,0,0,0,1.21.44v.5H63.1a44.08,44.08,0,0,0-2.47-5.88c-.55-1-1-1.43-1.66-1.66a4.69,4.69,0,0,0-1.61-.27H56Zm1.89-5.6A5.7,5.7,0,0,0,61,96.15a3.43,3.43,0,0,0,1.39-3c0-2.38-1.41-3.54-4.32-3.54H56v7.29Z"/><path class="cls-2" d="M84.11,105.28c0,.43,0,.47.09.54a7.55,7.55,0,0,0,2.41.16h.32c.61,0,1.07,0,1.32,0h.16c.84,0,1.13-.14,1.31-.59s.37-1.27,1.09-4.11l.3,0L91,105v.22c0,.32.07.46.34.55s.52.25.52.56-.34.64-.88.75a23.4,23.4,0,0,1-3.66.18h-.39c-1,0-1.9,0-2.11,0-1.77,0-2.27-.32-2.27-1.52v-1c0-.55,0-1,0-1.07v-3.34H80.34a8,8,0,0,1-2,4.45,9.39,9.39,0,0,1-4.66,2.59,24.62,24.62,0,0,1-2.43.45l-.09-.41a12,12,0,0,0,3.8-1.45,7.38,7.38,0,0,0,3.79-5.63H76.91v.73c0,.38-.18.45-1.2.45-.48,0-.55,0-.55-.34.12-3.13.16-5,.16-8,0-3.31,0-4.49-.13-5.83a10.84,10.84,0,0,1,1.9,1.2h9a8.25,8.25,0,0,1,1-1c.55.4.73.56,1.27,1,.21.18.28.29.28.38s-.12.25-.73.62V92c0,4.09,0,7.4.09,9.06,0,.34-.23.41-1.18.41-.41,0-.5,0-.52-.3v-.84H84.11Zm2.14-16.23H76.91v3.18h9.34Zm-9.34,3.7v3.18h9.34V92.75Zm0,3.7v3.38h9.34V96.45Z"/><path class="cls-2" d="M114.59,99.92c.59-.75.8-1,1.46-1.75.91.8,1.18,1,2.06,1.89a.45.45,0,0,1,.09.22c0,.1-.11.16-.27.16H108.6v2.66c0,1,0,1.63,0,3.06a1.31,1.31,0,0,1-.82,1.3,5.2,5.2,0,0,1-2,.5c-.25-1.23-.39-1.3-3.57-1.8v-.34c1.73.14,1.88.14,4.29.25.3,0,.37-.07.37-.32v-5.31H99.31c-.82,0-1.09,0-1.87.09l-.13-.79a9.08,9.08,0,0,0,2,.18h7.66v-.38c0-.46,0-.59,0-1.86.45.06,1,.15,1.73.29a14.08,14.08,0,0,0,2.4-2.72h-8a10.07,10.07,0,0,0-1.63.11l-.14-.79a10,10,0,0,0,1.75.16h8.15c.43-.46.57-.6,1-1,.71.53.93.68,1.59,1.21.21.16.3.27.3.38s-.27.3-1.16.37a26.38,26.38,0,0,1-3.7,2.45c.2.06.29.13.29.25s-.22.27-.88.4v1.16Zm.34-8c.48-.52.62-.68,1.12-1.16.81.55,1.06.71,1.86,1.32.23.16.32.27.32.39,0,.27-.39.4-1.41.43-.45.47-.45.47-1.14,1.24-.43.48-.43.48-.91,1l-.22-.09a13.81,13.81,0,0,0,.63-2.57H100.35a5.15,5.15,0,0,1-1,3,1.57,1.57,0,0,1-1,.7c-.16,0-.32-.11-.41-.36a2.82,2.82,0,0,1-.25-.93c0-.32.12-.48.69-.91A4.52,4.52,0,0,0,100,90.62h.43c0,.68,0,.81,0,1.29h10.27a19.8,19.8,0,0,0,2.45-4.51c2.16.83,2.39.95,2.39,1.15s-.27.34-.64.34l-.5,0a25.47,25.47,0,0,1-3.13,3Zm-13.31-4.27a14.44,14.44,0,0,1,2.16,1.62,1.31,1.31,0,0,1,.55.95,2.43,2.43,0,0,1-.48,1.29.42.42,0,0,1-.34.18c-.23,0-.32-.13-.55-.77a10.77,10.77,0,0,0-1.56-3.08Zm4.64-.52C108.21,88.55,109,89.39,109,90a3,3,0,0,1-.43,1.25.59.59,0,0,1-.48.3c-.27,0-.34-.12-.57-.94A8.64,8.64,0,0,0,106,87.33Z"/><rect class="cls-1" x="199.66" y="32.7" width="156.48" height="129.3"/><line class="cls-1" x1="355.85" y1="96.4" x2="393.92" y2="96.4"/><polygon class="cls-2" points="388.49 103.09 387.37 101.89 393.29 96.4 387.37 90.9 388.49 89.7 395.69 96.4 388.49 103.09"/><path class="cls-2" d="M233.55,77.1a5,5,0,0,1,2.14.7c.38.25.59.53.59.8,0,.07-.05.29-.07.5A29.39,29.39,0,0,0,236,83c0,.3,0,.82,0,1.73v.77a6,6,0,0,1-.07,1.22c0,.32-.23.5-.45.5s-.59-.27-.87-.77a3.13,3.13,0,0,1-.41-1.27,1.79,1.79,0,0,1,.1-.5,14.94,14.94,0,0,0,.29-3.7c0-1.66-.09-2.2-.43-2.72s-.48-.59-1.34-1A1,1,0,0,1,233.55,77.1Zm2.39,17.18a14.13,14.13,0,0,0,4.59-4.52c1.27-2.15,1.61-4.1,1.61-9.46,0-2.27-.09-3-.43-3.43a2.85,2.85,0,0,0-1.64-.81,1.14,1.14,0,0,1,.93-.34,6.69,6.69,0,0,1,2.32.63c.57.27.82.57.82.91,0,.16,0,.16-.14.54a26.3,26.3,0,0,0-.38,4.86c-.12,3.29-.25,4.33-.73,5.67-1,2.61-3.39,4.88-6.77,6.24Z"/><path class="cls-2" d="M254.63,78.23a3.64,3.64,0,0,0,2.5,1.09,20.39,20.39,0,0,0,5.13-.86,7.93,7.93,0,0,0,2.41-1,.91.91,0,0,1,.45-.14c.71,0,1.78.66,1.78,1.09s-.46.52-1.59.77a49.34,49.34,0,0,1-5.93,1c1.11.54,1.47.9,1.47,1.47a2.4,2.4,0,0,1-.11.66,11.58,11.58,0,0,0-.25,2c1.2-.18,5-.72,5.34-.79a7.07,7.07,0,0,0,1.5-.39,1.37,1.37,0,0,1,.47-.11,3.56,3.56,0,0,1,1.48.52c.45.27.73.61.73.88s-.25.44-.71.44H269c-.39,0-1.43,0-2.09,0a45.75,45.75,0,0,0-6.52.5c0,1.36-.07,2-.07,2.54a5.76,5.76,0,0,0,.3,2.63c.27.53.84.73,1.86.73a12.29,12.29,0,0,0,4-.59.85.85,0,0,1,.25,0,2.3,2.3,0,0,1,1.09.46c.38.27.56.52.56.79s-.22.5-.68.59a20.63,20.63,0,0,1-3.15.23c-2.91,0-4.18-.41-4.82-1.52a6,6,0,0,1-.61-3.13,17.08,17.08,0,0,1,0-1.82v-.72a20.36,20.36,0,0,0-4.2,1,1,1,0,0,1-.54.16,1.65,1.65,0,0,1-1.05-.5,3.38,3.38,0,0,1-1.13-1.86.8.8,0,0,1,.13-.43A2.33,2.33,0,0,0,254.38,85a39.66,39.66,0,0,0,4.7-.55c0-.38,0-.41,0-.72,0-2.64-.06-3-.56-3.45-.21,0-.39,0-.5,0a4.37,4.37,0,0,1-2.77-.79,5.57,5.57,0,0,1-1-1Z"/><path class="cls-2" d="M278.18,83.68a3,3,0,0,0,2.21.55l2.79-.07c.89,0,8.11-.14,8.86-.14a8.89,8.89,0,0,1,2.95.21.47.47,0,0,1,.32.45.66.66,0,0,1-.52.61c-.62.21-1.16.23-5.45.27-2.12,0-7.32.16-8.11.21a3.42,3.42,0,0,0-1.64.29,1.37,1.37,0,0,1-.34.07c-.34,0-.7-.25-1.09-.75a4,4,0,0,1-.86-2.08c0-.32,0-.37.18-.53A2,2,0,0,0,278.18,83.68Z"/><path class="cls-2" d="M305.12,75.6a4.62,4.62,0,0,1,1.68.39c1,.36,1.5.82,1.5,1.25,0,.16,0,.16-.13.5a16.8,16.8,0,0,0-.41,4.94A20.92,20.92,0,0,1,313.05,84c1,.48,1.41.93,1.41,1.75,0,.66-.21,1-.55,1s-.25,0-.84-.54a13.11,13.11,0,0,0-5.34-3c0,1.43,0,2.13,0,2.81v3.32c0,.68,0,.68,0,2.58,0,.48,0,.87,0,1.21a1.47,1.47,0,0,1-.11.77.53.53,0,0,1-.41.2c-.54,0-1.45-1.22-1.45-2a1.76,1.76,0,0,1,.11-.64c.34-1.09.48-4,.48-9.82a37.34,37.34,0,0,0-.16-3.91,2.34,2.34,0,0,0-1.73-2A1,1,0,0,1,305.12,75.6Z"/><path class="cls-2" d="M250.26,120.22c0,.43,0,.47.09.54a7.55,7.55,0,0,0,2.41.16h.32c.61,0,1.06,0,1.31,0h.16c.84,0,1.14-.14,1.32-.59s.36-1.27,1.09-4.11l.29,0-.15,3.7v.22c0,.32.06.46.34.55s.52.25.52.56-.34.64-.89.75a23.16,23.16,0,0,1-3.65.18H253c-1,0-1.91,0-2.11,0-1.77,0-2.27-.32-2.27-1.52v-1c0-.55,0-1,0-1.07v-3.34h-2.18a8,8,0,0,1-2,4.45,9.48,9.48,0,0,1-4.66,2.59,24.62,24.62,0,0,1-2.43.45l-.09-.41a12,12,0,0,0,3.79-1.45,7.39,7.39,0,0,0,3.8-5.63h-1.82V116c0,.39-.18.45-1.21.45-.47,0-.54,0-.54-.34.11-3.13.16-5,.16-8,0-3.31,0-4.49-.14-5.83a10.92,10.92,0,0,1,1.91,1.2h8.95a7.6,7.6,0,0,1,1-1c.54.4.73.56,1.27,1,.21.18.27.29.27.38s-.11.25-.72.62V107c0,4.09,0,7.4.09,9.06,0,.34-.23.41-1.18.41-.41,0-.5-.05-.53-.3v-.84h-2.13ZM252.39,104h-9.33v3.18h9.33Zm-9.33,3.7v3.18h9.33v-3.18Zm0,3.7v3.38h9.33v-3.38Z"/><path class="cls-2" d="M280.74,114.86c.59-.75.79-1,1.45-1.75.91.8,1.18,1,2.07,1.89a.44.44,0,0,1,.09.23c0,.09-.11.15-.27.15h-9.34V118c0,1,0,1.63,0,3.06a1.31,1.31,0,0,1-.82,1.3,5.21,5.21,0,0,1-2,.5c-.25-1.23-.38-1.3-3.56-1.8v-.34c1.72.14,1.88.14,4.29.25.29,0,.36-.07.36-.32v-5.31h-7.61a18.55,18.55,0,0,0-1.86.09l-.14-.79a9.17,9.17,0,0,0,2,.18h7.65v-.38c0-.46,0-.59,0-1.86.45.06,1,.15,1.72.29a14.09,14.09,0,0,0,2.41-2.72h-8a10.27,10.27,0,0,0-1.64.11l-.13-.79a9.88,9.88,0,0,0,1.74.16h8.16c.43-.46.57-.59,1-1,.7.53.93.69,1.59,1.21.2.16.29.27.29.38s-.27.3-1.15.37a25.73,25.73,0,0,1-3.71,2.45c.21.06.3.13.3.25s-.23.27-.89.4v1.16Zm.34-8c.48-.52.61-.68,1.11-1.16.82.55,1.07.71,1.87,1.32.22.16.31.27.31.39s-.38.4-1.4.43c-.46.47-.46.47-1.14,1.25-.43.47-.43.47-.91,1l-.23-.09a12.92,12.92,0,0,0,.64-2.57H266.5a5.15,5.15,0,0,1-1,3,1.62,1.62,0,0,1-1,.71c-.16,0-.32-.12-.41-.37a2.59,2.59,0,0,1-.25-.93c0-.32.11-.47.68-.91a4.48,4.48,0,0,0,1.59-3.33h.43c0,.68,0,.81,0,1.29h10.27a20.19,20.19,0,0,0,2.45-4.51c2.16.84,2.39,1,2.39,1.15s-.28.34-.64.34l-.5,0a26.15,26.15,0,0,1-3.14,3Zm-13.31-4.27a15,15,0,0,1,2.16,1.62,1.3,1.3,0,0,1,.54,1,2.39,2.39,0,0,1-.47,1.29.42.42,0,0,1-.35.18c-.22,0-.31-.13-.54-.77a10.8,10.8,0,0,0-1.57-3.08Zm4.63-.52c2,1.43,2.77,2.27,2.77,2.86a2.83,2.83,0,0,1-.43,1.25.56.56,0,0,1-.47.3c-.28,0-.34-.12-.57-.93a8.48,8.48,0,0,0-1.55-3.27Z"/><path class="cls-2" d="M289.39,112.34a19.12,19.12,0,0,0,3.34-2.7,32.41,32.41,0,0,0,5-6.12,6.81,6.81,0,0,0,.75-1.66c2.5.57,2.68.63,2.68.82s-.37.38-.86.4a14.9,14.9,0,0,0,4.92,4.91,16.06,16.06,0,0,0,5.48,2.27v.22c-.93.25-1.21.57-1.64,1.86a19.3,19.3,0,0,1-5.06-3.63,26.49,26.49,0,0,1-3.14-3.72,7.73,7.73,0,0,1-.95-1.7A26.69,26.69,0,0,1,295,109a23.46,23.46,0,0,1-5.38,3.68Zm9.81,2.43a40,40,0,0,1-3.88,5.27c3.54-.05,7-.23,9.24-.48a22.26,22.26,0,0,0-2.95-3.52l.18-.22a25.37,25.37,0,0,1,4.55,3.4,2.2,2.2,0,0,1,.86,1.59,3.44,3.44,0,0,1-.36,1.4.49.49,0,0,1-.39.23c-.16,0-.25-.09-.39-.34a17.3,17.3,0,0,0-1.18-2.06,111.07,111.07,0,0,1-12.19,1.74c-.23.68-.3.8-.48.8s-.18,0-.27-.43c-.14-.62-.34-1.55-.46-2.18l1.84.07c.39,0,.68,0,1,0a3.63,3.63,0,0,0,.4,0,30.76,30.76,0,0,0,2.43-5.27H292.5a6.85,6.85,0,0,0-1.61.14l-.18-.84a7.59,7.59,0,0,0,1.79.18h13.11c.55-.73.7-.93,1.25-1.59,1,.73,1.27,1,2.2,1.75.05.09.12.18.12.2s-.09.16-.21.16Zm-5.15-4.47a10.43,10.43,0,0,0,1.84.18h5.72c.55-.68.71-.88,1.27-1.52.91.73,1.21,1,2.09,1.7a.29.29,0,0,1,.14.21c0,.09-.09.13-.3.13h-9c-.38,0-.72,0-1.56.1Z"/><rect class="cls-1" x="398.67" y="32.7" width="156.48" height="129.3"/><line class="cls-1" x1="556.34" y1="96.4" x2="594.41" y2="96.4"/><polygon class="cls-2" points="588.99 103.09 587.87 101.89 593.79 96.4 587.87 90.9 588.99 89.7 596.19 96.4 588.99 103.09"/><path class="cls-2" d="M433,96.25h-1.82a15.54,15.54,0,0,0-2,.11l-.11-.82a9.35,9.35,0,0,0,2.09.18H433V91.48a19.81,19.81,0,0,1-3.39,3l-.27-.25A29.88,29.88,0,0,0,433,89.39a10.62,10.62,0,0,0,1.22-2.59c2.59.91,2.59.91,2.59,1.12s-.38.29-1.36.31a20.3,20.3,0,0,1-1.57,2.14h11.93c.5-.66.66-.86,1.22-1.5.84.68,1.12.91,1.93,1.66a.91.91,0,0,1,.09.18c0,.11-.11.18-.29.18h-3.07v4.83h1c.54-.65.72-.84,1.29-1.47.84.7,1.09.93,1.89,1.68a.57.57,0,0,1,.07.13.24.24,0,0,1-.23.19h-4v4.85h.64a18.44,18.44,0,0,1,1.32-1.47c.84.7,1.09.93,1.88,1.65a.37.37,0,0,1,.12.18c0,.1-.1.16-.21.16H431.7a16.19,16.19,0,0,0-1.64.12l-.11-.8a7.9,7.9,0,0,0,1.75.16H433Zm.47,6.3a5.91,5.91,0,0,1-1.52,3.7,2.69,2.69,0,0,1-1.54,1c-.34,0-.62-.45-.62-1s.1-.59.75-.87a4.34,4.34,0,0,0,1.3-.93,4,4,0,0,0,1.29-1.93Zm3.32-6.83V90.89H434.4v4.83Zm0,5.38V96.25H434.4v4.85Zm-.41,1.3a8.09,8.09,0,0,1,1.75,3.2c0,.63-.66,1.42-1.18,1.42-.27,0-.36-.22-.36-.93a15.8,15.8,0,0,0-.46-3.58Zm4.16-6.68V90.89h-2.39v4.83Zm0,5.38V96.25h-2.39v4.85Zm0,1.25a13.75,13.75,0,0,1,2.18,2.22,1.7,1.7,0,0,1,.43.93c0,.69-.54,1.5-1,1.5-.2,0-.25-.11-.4-.79a15.93,15.93,0,0,0-1.5-3.72Zm1.36-6.63h2.41V90.89h-2.41Zm0,5.38h2.41V96.25h-2.41Zm3,1.3a14.89,14.89,0,0,1,3.16,2c.66.54.86.84.86,1.2a3,3,0,0,1-.38,1.23.67.67,0,0,1-.41.29c-.16,0-.37-.2-.55-.59a17.87,17.87,0,0,0-2.9-3.92Z"/><path class="cls-2" d="M455.38,107a17.44,17.44,0,0,0,4.34-4,21.7,21.7,0,0,0,4.11-9.22,25.71,25.71,0,0,0,.53-4.85c0-.46,0-.71-.07-1.32,2.47.32,2.75.39,2.75.61s-.09.23-1,.59c0,.32,0,.5,0,.71a18.67,18.67,0,0,0,3.2,10,16.29,16.29,0,0,0,4.61,4.38,11.39,11.39,0,0,0,2.59,1.24l0,.28h-.16a1.39,1.39,0,0,0-1.16.45,3.9,3.9,0,0,0-.66,1.13,16.66,16.66,0,0,1-5.43-5.49,25.51,25.51,0,0,1-2.63-6.33,17.77,17.77,0,0,1-.55-3.29,21.89,21.89,0,0,1-3.63,9.83,16.64,16.64,0,0,1-6.63,5.58Z"/><path class="cls-2" d="M494.32,105.28c0,.43,0,.47.09.54a7.51,7.51,0,0,0,2.4.16h.32c.62,0,1.07,0,1.32,0h.16c.84,0,1.13-.14,1.32-.59s.36-1.27,1.09-4.11l.29,0-.16,3.7v.22c0,.32.07.46.34.55s.53.25.53.56-.35.64-.89.75a23.4,23.4,0,0,1-3.66.18h-.38c-1,0-1.91,0-2.12,0-1.77,0-2.27-.32-2.27-1.52v-1c0-.55,0-1,0-1.07v-3.34h-2.19a8,8,0,0,1-2,4.45,9.4,9.4,0,0,1-4.65,2.59c-.68.16-1.21.27-2.43.45l-.09-.41a12,12,0,0,0,3.79-1.45,7.38,7.38,0,0,0,3.79-5.63h-1.81v.73c0,.38-.19.45-1.21.45-.48,0-.54,0-.54-.34.11-3.13.16-5,.16-8,0-3.31,0-4.49-.14-5.83a11.3,11.3,0,0,1,1.91,1.2h8.95a7.6,7.6,0,0,1,1-1c.54.4.72.56,1.27,1,.2.18.27.29.27.38s-.11.25-.73.62V92c0,4.09,0,7.4.09,9.06,0,.34-.22.41-1.18.41-.41,0-.5,0-.52-.3v-.84h-2.13Zm2.13-16.23h-9.33v3.18h9.33Zm-9.33,3.7v3.18h9.33V92.75Zm0,3.7v3.38h9.33V96.45Z"/><path class="cls-2" d="M524.8,99.92c.59-.75.79-1,1.45-1.75.91.8,1.18,1,2.07,1.89a.57.57,0,0,1,.09.22c0,.1-.12.16-.28.16H518.8v2.66c0,1,0,1.63,0,3.06a1.3,1.3,0,0,1-.82,1.3,5.15,5.15,0,0,1-2,.5c-.25-1.23-.39-1.3-3.57-1.8v-.34c1.73.14,1.89.14,4.3.25.29,0,.36-.07.36-.32v-5.31h-7.61a18.55,18.55,0,0,0-1.86.09l-.14-.79a9.08,9.08,0,0,0,1.95.18h7.66v-.38c0-.46,0-.59,0-1.86.46.06,1,.15,1.73.29a14.09,14.09,0,0,0,2.41-2.72h-8a10.07,10.07,0,0,0-1.63.11l-.14-.79a10,10,0,0,0,1.75.16h8.16c.43-.46.56-.6,1-1,.7.53.93.68,1.59,1.21.2.16.29.27.29.38s-.27.3-1.16.37a25.8,25.8,0,0,1-3.7,2.45c.2.06.3.13.3.25s-.23.27-.89.4v1.16Zm.34-8c.47-.52.61-.68,1.11-1.16.82.55,1.07.71,1.86,1.32.23.16.32.27.32.39,0,.27-.39.4-1.41.43-.45.47-.45.47-1.13,1.24-.44.48-.44.48-.91,1l-.23-.09a13.66,13.66,0,0,0,.64-2.57H510.55a5,5,0,0,1-1,3,1.58,1.58,0,0,1-1,.7c-.16,0-.32-.11-.41-.36a2.59,2.59,0,0,1-.25-.93c0-.32.11-.48.68-.91a4.48,4.48,0,0,0,1.59-3.33h.43c0,.68,0,.81,0,1.29h10.26a19.82,19.82,0,0,0,2.46-4.51c2.15.83,2.38.95,2.38,1.15s-.27.34-.63.34l-.5,0a26.15,26.15,0,0,1-3.14,3Zm-13.31-4.27A14.84,14.84,0,0,1,514,89.26a1.28,1.28,0,0,1,.55.95,2.43,2.43,0,0,1-.48,1.29.41.41,0,0,1-.34.18c-.23,0-.32-.13-.54-.77a11.06,11.06,0,0,0-1.57-3.08Zm4.63-.52c1.95,1.43,2.77,2.27,2.77,2.86a3,3,0,0,1-.43,1.25.59.59,0,0,1-.48.3c-.27,0-.34-.12-.57-.94a8.35,8.35,0,0,0-1.54-3.26Z"/><rect class="cls-1" x="599.17" y="32.7" width="156.48" height="129.3"/><path class="cls-2" d="M613,94a15.21,15.21,0,0,0,3.42-5.72,18.84,18.84,0,0,0,1.14-4.94c0-.62-.36-1.07-1.12-1.46a.5.5,0,0,1,.44-.22,4.07,4.07,0,0,1,1.46.65c.49.32.68.5.81.8a25,25,0,0,0,3.39-3.25c.43-.5.59-.75.59-.9s-.23-.34-1.12-.34a31,31,0,0,0-6.53,1.24,11.21,11.21,0,0,0-1.93.8,1,1,0,0,1-.44.11c-.42,0-1.1-.68-1.51-1.52A3.43,3.43,0,0,1,611.2,78a1.17,1.17,0,0,1,.13-.53,1.83,1.83,0,0,0,1.87,1.36,30.54,30.54,0,0,0,4.57-.59l1.3-.18c2.94-.41,3.09-.45,3.49-.68a.64.64,0,0,1,.24-.07c.21,0,.55.23,1,.66a3.92,3.92,0,0,1,1.36,1.91c0,.34-.12.43-.68.61a3.94,3.94,0,0,0-.93.48c-1.57,1.06-2.42,1.59-4.47,2.74-.11.39-.13.43-.28,1a19.46,19.46,0,0,1-2.73,6.49,12.74,12.74,0,0,1-2.93,3Z"/><path class="cls-2" d="M634.62,88.36c0,1.29,0,3.94,0,4.53v.41c0,.68-.13,1-.41,1s-.42-.21-.68-.61a3.68,3.68,0,0,1-.5-1.48,2.78,2.78,0,0,1,.16-.84,54.75,54.75,0,0,0,.32-7.8c0-4.68-.06-5.91-.31-6.47A2.26,2.26,0,0,0,632,75.92a.74.74,0,0,1,.5-.18,3.78,3.78,0,0,1,1.83.77c.53.36.72.61.72.95a.92.92,0,0,1-.11.41c-.25.61-.32,1.54-.32,4.95a12.09,12.09,0,0,1,4.82,1.54,1.59,1.59,0,0,1,.78,1.5c0,.57-.17,1-.42,1s-.26-.07-.74-.57a11.39,11.39,0,0,0-4.44-2.9v5Zm3.57-11.92c2.43,1.23,3.26,2,3.26,3.07,0,.63-.23,1.18-.51,1.18s-.23,0-.7-1a9.91,9.91,0,0,0-2.22-3Zm1.73-1.61a8.41,8.41,0,0,1,2.61,1.5,1.56,1.56,0,0,1,.61,1.27c0,.59-.19,1.07-.44,1.07s-.27-.07-.7-.84a9.89,9.89,0,0,0-2.24-2.73Z"/><path class="cls-2" d="M645.94,90.4a22.79,22.79,0,0,0,4.65-6.29,5.43,5.43,0,0,0,.78-2.24c0-.37-.24-.73-1-1.3a1.25,1.25,0,0,1,.42-.09,3.32,3.32,0,0,1,1.55.77c.65.5.91.87.91,1.23a.66.66,0,0,1-.22.5,4.25,4.25,0,0,0-.8,1,20.49,20.49,0,0,1-4,5,11.2,11.2,0,0,1-2.21,1.66Zm10.15-10a18.58,18.58,0,0,1,5,5.28,4.23,4.23,0,0,1,.8,2.41c0,1-.3,1.68-.72,1.68-.26,0-.36-.14-.62-1a20.62,20.62,0,0,0-4.64-8.05Zm1.93-3a10.78,10.78,0,0,1,2.42,1.56,1.77,1.77,0,0,1,.66,1.43c0,.64-.17,1-.43,1s-.31-.14-.65-.8a10.09,10.09,0,0,0-2.16-3Zm1.85-1.28a8.87,8.87,0,0,1,2.41,1.3,1.43,1.43,0,0,1,.7,1.22c0,.73-.17,1.16-.46,1.16-.13,0-.24-.11-.41-.41a9.13,9.13,0,0,0-2.39-3Z"/><path class="cls-2" d="M667.43,88.17a33.59,33.59,0,0,0,7.12-6.44c1.87-2.2,3.08-4,3.08-4.7,0-.43-.3-.79-1.06-1.29a.72.72,0,0,1,.38-.09,2.53,2.53,0,0,1,1.63.68,2.18,2.18,0,0,1,1,1.47c0,.21,0,.25-.76,1-.18.18-.18.18-1.53,1.73S675.83,82.16,675,83c.74.66,1.06,1,1.15,1.27a22.77,22.77,0,0,1,.14,3.33c0,1.59.05,3,.09,4.34,0,.5,0,1.16,0,1.29,0,.8-.13,1.14-.44,1.14s-1.28-1.25-1.28-1.91a1.8,1.8,0,0,1,.11-.59,37,37,0,0,0,.34-5.58,13.58,13.58,0,0,0-.11-2.16,1.84,1.84,0,0,0-.42-.7A37.54,37.54,0,0,1,671,86.52a21.81,21.81,0,0,1-3.41,2Z"/><path class="cls-2" d="M690.41,94.46A11.07,11.07,0,0,0,694,89.83a14.84,14.84,0,0,0,.94-4.74c.08-1.07.1-1.64.12-2.54a21.74,21.74,0,0,0-4.22.7V84c0,.11,0,1,0,2.61,0,0,0,.38,0,.84,0,.23,0,.43,0,.59,0,.79-.17,1.25-.49,1.25s-1-1.14-1-1.82a1.24,1.24,0,0,1,.1-.48,5.29,5.29,0,0,0,.21-1.06c0-.23.05-1.05.07-2.43a8.07,8.07,0,0,0-2.44.86,1.71,1.71,0,0,1-.62.23c-.61,0-1.78-1.54-1.78-2.36a1.21,1.21,0,0,1,.05-.23c.57.77,1,1.07,1.57,1.07a14.31,14.31,0,0,0,2.09-.34c.66-.14.75-.16,1.09-.21a17.68,17.68,0,0,0-.26-3.06,2,2,0,0,0-.63-1,2.62,2.62,0,0,0-.53-.39.42.42,0,0,1,.42-.18,3.26,3.26,0,0,1,1.61.7,1.32,1.32,0,0,1,.66,1,2.5,2.5,0,0,1-.07.5,10.65,10.65,0,0,0-.17,2.22l4.26-.61V80.25c0-1.79-.08-2.54-.31-2.9a2.16,2.16,0,0,0-1.21-.84.94.94,0,0,1,.63-.23,3.76,3.76,0,0,1,1.78.57c.51.3.7.52.7.84a1.06,1.06,0,0,1-.08.41,10.72,10.72,0,0,0-.38,3.47,5.87,5.87,0,0,0,2.29-.45A.86.86,0,0,1,699,81c.6,0,1.74.86,1.74,1.34a.39.39,0,0,1-.4.38l-.34,0a16.7,16.7,0,0,0-2.65-.18c-.36,0-.68,0-1.16,0a39.28,39.28,0,0,1-.28,4.29,9.64,9.64,0,0,1-1.52,4.54,10.3,10.3,0,0,1-3.86,3.45ZM697,75.26a7.3,7.3,0,0,1,2.34,1.59,1.66,1.66,0,0,1,.52,1.32c0,.61-.17,1-.4,1s-.27-.14-.44-.52a10.22,10.22,0,0,0-2.17-3.16Zm1.81-1.09a6.68,6.68,0,0,1,2.62,1.46,1.37,1.37,0,0,1,.38,1.11c0,.59-.21,1.06-.44,1.06s-.23-.11-.4-.45a8,8,0,0,0-2.31-2.9Z"/><path class="cls-2" d="M707.72,83.68a2.22,2.22,0,0,0,1.83.55l2.33-.07c.74,0,6.76-.14,7.38-.14a6.19,6.19,0,0,1,2.46.21.48.48,0,0,1,.27.45.64.64,0,0,1-.44.61c-.51.21-1,.23-4.54.27-1.76,0-6.1.16-6.76.21-.89.07-1.06.09-1.36.29a1,1,0,0,1-.29.07q-.42,0-.9-.75A4.52,4.52,0,0,1,707,83.3c0-.32,0-.37.15-.53A2,2,0,0,0,707.72,83.68Z"/><path class="cls-2" d="M729.22,85.16c.4,0,.4,0,2.29-2.32,1.46-1.79,2.24-2.4,3-2.4s1.4.47,3.27,2.49c2.56,2.75,4.26,4.25,5.55,4.88a1.27,1.27,0,0,1,.77.86,3.9,3.9,0,0,1,.33,1.37.43.43,0,0,1-.38.47,4.68,4.68,0,0,1-1.71-1,38.4,38.4,0,0,1-5-5.54c-1.72-2.18-2.27-2.7-2.9-2.7s-1.08.57-2,2.09a12.43,12.43,0,0,0-1.08,2,3.76,3.76,0,0,0-.34.81c-.19.5-.19.53-.33.66a.59.59,0,0,1-.41.18c-.84,0-2.31-1.68-2.31-2.61a2.17,2.17,0,0,1,.07-.31C728.33,84.7,728.86,85.16,729.22,85.16Z"/><path class="cls-2" d="M663.26,107.17c.44-.66.57-.86,1-1.45.66.72.85,1,1.49,1.74a.41.41,0,0,1,0,.12c0,.07-.08.11-.19.11h-3.1v2.22c.64.44.92.64,1.51,1.12,1,.84,1.23,1.2,1.23,1.86s-.3,1.5-.57,1.5-.26-.12-.57-1a11.63,11.63,0,0,0-1.6-3c0,8.81,0,8.81,0,11.87v0c0,.14,0,.16-.17.23a3.07,3.07,0,0,1-.89.14c-.19,0-.22-.05-.24-.25.07-3.79.07-3.79.09-5,0-.61,0-1.06,0-1.58,0-1.59,0-2.68,0-3.18l.11-2.59a22.5,22.5,0,0,1-1.53,4.11,16.5,16.5,0,0,1-2.12,3.47l-.19-.2a35.25,35.25,0,0,0,2.4-5.79,23.11,23.11,0,0,0,1-4h-1.7a9.2,9.2,0,0,0-1.27.11l-.12-.81a5.58,5.58,0,0,0,1.39.18h1.93v-2.41c0-1.29,0-1.58-.08-2.65,1.87.25,2.12.32,2.12.57s-.19.31-.81.59v3.9Zm9.34-3.45c.34-.48.43-.61.75-1,.51.43.66.56,1.16,1,.15.16.22.27.22.39s-.15.31-.7.59c0,12.75,0,12.75.06,17.08a.3.3,0,0,1-.15.3,2.7,2.7,0,0,1-.91.13c-.21,0-.28-.06-.28-.27v-1.52h-5.36v1.52c0,.3-.23.39-1.06.39-.21,0-.27-.07-.27-.32.08-3.06.08-3.06.08-10.39,0-4.5,0-6.08-.06-9.1a15.23,15.23,0,0,1,1.42,1.2Zm.15.52h-5.36v4.61h5.36Zm-5.36,5.13v4.86h5.36v-4.86Zm0,5.38v5.15h5.36v-5.15Z"/><path class="cls-2" d="M679.53,106.35a5.6,5.6,0,0,0,1.43.18h3c.43-.63.57-.84,1-1.45a18.31,18.31,0,0,1,1.53,1.52.63.63,0,0,1,.14.27.19.19,0,0,1-.17.19h-5.59a5.43,5.43,0,0,0-1.19.13Zm.68-3a4,4,0,0,0,1.25.16h2.21l1.06-1.4c.65.63.83.84,1.42,1.49a.4.4,0,0,1,.08.21.23.23,0,0,1-.21.22h-4.7a5.87,5.87,0,0,0-1,.1Zm0,6.11a4.31,4.31,0,0,0,1.25.16h2.1c.36-.57.47-.73.87-1.3.62.62.81.8,1.42,1.48a.34.34,0,0,1,0,.16.18.18,0,0,1-.15.18h-4.43a2.66,2.66,0,0,0-1,.14Zm0,3.13a4,4,0,0,0,1.25.16h2.19c.36-.57.47-.75.85-1.32a18.12,18.12,0,0,1,1.4,1.5.62.62,0,0,1,0,.16.18.18,0,0,1-.15.18h-4.47a4.29,4.29,0,0,0-1,.09Zm1.3,9.76c0,.27-.19.36-.87.36-.24,0-.32-.07-.32-.29,0-2.52,0-2.77,0-3.5,0-1.45,0-3,0-4a8.65,8.65,0,0,1,1.34.89H684l.72-1c.48.46.61.59,1,1,.13.15.18.22.18.29s-.18.3-.6.48c0,2.15,0,3.61.09,4.94,0,.19-.09.23-.21.28a3,3,0,0,1-.79.11c-.17,0-.25-.07-.25-.25V121h-2.63Zm0-1.82h2.63v-4.17h-2.63Zm3.43,2c2.38-1.21,3.52-2.18,4.32-3.7a11.82,11.82,0,0,0,1.11-4.61c.06-.61.1-1.38.1-1.81a5.77,5.77,0,0,0,0-.8,11.26,11.26,0,0,1,1.82.3c.05,0,.2.18.19.2l-.08.16c0,.09-.21.2-.68.45a12.6,12.6,0,0,0,.13,2.36,5.43,5.43,0,0,0,.46,1.59,1.16,1.16,0,0,1,.18-.2,11.15,11.15,0,0,0,2.18-3.2c.66.41,1.52.93,1.67,1a.31.31,0,0,1,.11.21c0,.13-.19.25-.4.25l-.51-.07a17,17,0,0,1-3.08,2.27,6.34,6.34,0,0,0,1.7,2.08,6.55,6.55,0,0,0,3.26,1.32l0,.32c-.68.27-1,.7-1.16,1.68a9.05,9.05,0,0,1-3.2-3,8.61,8.61,0,0,1-1.25-2.88,13.22,13.22,0,0,1-.26-2,12,12,0,0,1-.72,3.5,7.49,7.49,0,0,1-3,3.56,11.52,11.52,0,0,1-2.77,1.18ZM691.68,104a16.36,16.36,0,0,1-.63,4.29,24.92,24.92,0,0,1,4.76,2.38c.47.34.66.84.66,1.77,0,.41-.11.68-.27.68s-.22-.11-.9-.88a17.76,17.76,0,0,0-4.34-3.66,6.82,6.82,0,0,1-1.29,2.32,7.93,7.93,0,0,1-3.35,2.4l-.17-.34a7.42,7.42,0,0,0,2.31-1.86,8.58,8.58,0,0,0,1.93-5.56c.06-1,.12-2.2.12-2.49a8,8,0,0,0-.06-.84c.38,0,.68.09.87.13.83.12,1.17.25,1.17.48s-.22.32-.75.52Zm-2.63,9.37a9.08,9.08,0,0,1-.85,3.47c-.33.66-.82,1.16-1.1,1.16s-.53-.57-.53-1.25a.65.65,0,0,1,.15-.5s0,0,.34-.18a3.87,3.87,0,0,0,1.69-2.81Zm0-8.8a9.06,9.06,0,0,1-.74,3.36c-.34.74-.83,1.31-1.16,1.31s-.53-.57-.53-1.13c0-.37,0-.43.42-.62a4.34,4.34,0,0,0,1.71-2.92Zm2.86,3a12.72,12.72,0,0,0,2-2.38,4.89,4.89,0,0,0,.72-1.16c.38.23.66.41.85.5.72.43,1,.61,1,.8s-.19.25-.4.25a1.91,1.91,0,0,1-.43-.07,42.53,42.53,0,0,1-3.6,2.31Z"/><path class="cls-2" d="M53.85,10.83a1.34,1.34,0,0,0-1.32-.95c-.62,0-.91.28-.91.71,0,1.3,3.73.93,3.73,3.68a2.66,2.66,0,0,1-2.91,2.55,3,3,0,0,1-3-1.94l1.41-.64a1.69,1.69,0,0,0,1.52,1c.61,0,.9-.25.9-.78,0-1.37-3.73-.95-3.73-3.72,0-1.38,1-2.45,2.91-2.45a2.82,2.82,0,0,1,2.86,2Z"/><path class="cls-2" d="M63.13,10.11H61.44v4.08a.86.86,0,0,0,.93,1,2,2,0,0,0,.63-.1l.16,1.37a3.61,3.61,0,0,1-1.61.37c-1.67,0-2.32-.95-2.32-2.72V10.22l-.93-.29V8.5l1.06-.08.57-2.23h1.51V8.47h1.69Z"/><path class="cls-2" d="M68.7,13v.74c0,1,.44,1.48,1.3,1.48.66,0,1-.31,1.35-1.06l1.56.58a2.9,2.9,0,0,1-3.15,2.13,3,3,0,0,1-3.28-3.05V11.35a3.21,3.21,0,0,1,6.42.09V13Zm0-1.25H71v-.5c0-.85-.4-1.25-1.12-1.25s-1.13.43-1.13,1.27Z"/><path class="cls-2" d="M78.86,16.2h0v3.21H76.61V8.47h2l.05.72h0a2.92,2.92,0,0,1,2.19-.86c1.62,0,2.54,1.19,2.54,3.19v2.11c0,2-.94,3.16-2.7,3.16A2.7,2.7,0,0,1,78.86,16.2Zm0-1.7a1.36,1.36,0,0,0,1.2.57c.76,0,1.14-.4,1.14-1.44V11.57c0-1-.35-1.43-1.09-1.43a1.49,1.49,0,0,0-1.25.61Z"/><path class="cls-2" d="M87,14.3h2.24v2.38H87Z"/><path class="cls-2" d="M99.51.14V16.68H96.1V5.42H92.83V3.11h1.41c1.82,0,2.29-.48,2.59-3Z"/><path class="cls-2" d="M253,10.83a1.36,1.36,0,0,0-1.32-.95c-.63,0-.91.28-.91.71,0,1.3,3.72.93,3.72,3.68a2.65,2.65,0,0,1-2.9,2.55,3,3,0,0,1-3-1.94l1.41-.64a1.69,1.69,0,0,0,1.51,1c.62,0,.9-.25.9-.78,0-1.37-3.73-.95-3.73-3.72,0-1.38,1.05-2.45,2.92-2.45a2.82,2.82,0,0,1,2.86,2Z"/><path class="cls-2" d="M262.26,10.11h-1.68v4.08a.86.86,0,0,0,.93,1,2,2,0,0,0,.63-.1l.16,1.37a3.61,3.61,0,0,1-1.61.37c-1.67,0-2.32-.95-2.32-2.72V10.22l-.93-.29V8.5l1.06-.08.56-2.23h1.52V8.47h1.68Z"/><path class="cls-2" d="M267.84,13v.74c0,1,.43,1.48,1.3,1.48.66,0,1.05-.31,1.35-1.06l1.56.58a2.9,2.9,0,0,1-3.15,2.13,3,3,0,0,1-3.28-3.05V11.35a3.21,3.21,0,0,1,6.42.09V13Zm0-1.25h2.25v-.5c0-.85-.4-1.25-1.12-1.25s-1.13.43-1.13,1.27Z"/><path class="cls-2" d="M278,16.2h0v3.21h-2.22V8.47h2l.05.72h0A2.92,2.92,0,0,1,280,8.33c1.62,0,2.54,1.19,2.54,3.19v2.11c0,2-.94,3.16-2.71,3.16A2.69,2.69,0,0,1,278,16.2Zm0-1.7a1.36,1.36,0,0,0,1.2.57c.76,0,1.14-.4,1.14-1.44V11.57c0-1-.35-1.43-1.09-1.43a1.49,1.49,0,0,0-1.25.61Z"/><path class="cls-2" d="M286.11,14.3h2.24v2.38h-2.24Z"/><path class="cls-2" d="M302.67,4.49c0,5.59-5.86,6-6.68,9.49h6.7v2.7H292.4l0-1.45c.19-5.29,7-7.22,7-10.58,0-1.18-.59-1.84-2-1.84-1.22,0-2.2.89-2.58,2.52l-2.55-.86C292.92,2,294.69,0,297.67,0,301.17,0,302.67,2.11,302.67,4.49Z"/><path class="cls-2" d="M451.48,10.83a1.34,1.34,0,0,0-1.31-.95c-.63,0-.92.28-.92.71,0,1.3,3.73.93,3.73,3.68a2.66,2.66,0,0,1-2.91,2.55,3,3,0,0,1-3-1.94l1.42-.64a1.67,1.67,0,0,0,1.51,1c.61,0,.9-.25.9-.78,0-1.37-3.73-.95-3.73-3.72,0-1.38,1-2.45,2.91-2.45a2.81,2.81,0,0,1,2.86,2Z"/><path class="cls-2" d="M460.76,10.11h-1.69v4.08a.86.86,0,0,0,.93,1,2,2,0,0,0,.63-.1l.16,1.37a3.61,3.61,0,0,1-1.61.37c-1.67,0-2.31-.95-2.31-2.72V10.22l-.93-.29V8.5L457,8.42l.56-2.23h1.51V8.47h1.69Z"/><path class="cls-2" d="M466.34,13v.74c0,1,.43,1.48,1.3,1.48.66,0,1-.31,1.35-1.06l1.56.58a2.91,2.91,0,0,1-3.15,2.13,3,3,0,0,1-3.28-3.05V11.35a3.21,3.21,0,0,1,6.41.09V13Zm0-1.25h2.25v-.5c0-.85-.41-1.25-1.13-1.25s-1.12.43-1.12,1.27Z"/><path class="cls-2" d="M476.49,16.2h0v3.21h-2.22V8.47h2l.05.72h0a2.92,2.92,0,0,1,2.19-.86c1.62,0,2.54,1.19,2.54,3.19v2.11c0,2-.93,3.16-2.7,3.16A2.73,2.73,0,0,1,476.49,16.2Zm0-1.7a1.39,1.39,0,0,0,1.21.57c.75,0,1.14-.4,1.14-1.44V11.57c0-1-.36-1.43-1.1-1.43a1.51,1.51,0,0,0-1.25.61Z"/><path class="cls-2" d="M484.61,14.3h2.23v2.38h-2.23Z"/><path class="cls-2" d="M494.1,7h1.25c1.43,0,2.18-.61,2.18-2.15s-.66-2.11-1.91-2.11A2.55,2.55,0,0,0,493,4.88L490.6,4a5.24,5.24,0,0,1,5.32-4c3.43,0,4.95,2.07,4.95,4.45a3.56,3.56,0,0,1-2.14,3.67v.05c1.61.45,2.43,1.7,2.43,3.7,0,3.38-2,5-5.34,5-2.74,0-4.58-1.23-5.33-3.79l2.4-.91a2.74,2.74,0,0,0,2.71,2c1.52,0,2.16-.89,2.16-2.57s-.82-2.15-2.34-2.15H494.1Z"/><path class="cls-2" d="M652.65,10.83a1.34,1.34,0,0,0-1.31-.95c-.63,0-.92.28-.92.71,0,1.3,3.73.93,3.73,3.68a2.66,2.66,0,0,1-2.91,2.55,3,3,0,0,1-3-1.94l1.42-.64a1.67,1.67,0,0,0,1.51,1c.61,0,.9-.25.9-.78,0-1.37-3.73-.95-3.73-3.72,0-1.38,1-2.45,2.91-2.45a2.81,2.81,0,0,1,2.86,2Z"/><path class="cls-2" d="M661.93,10.11h-1.69v4.08a.86.86,0,0,0,.93,1,2,2,0,0,0,.63-.1l.16,1.37a3.61,3.61,0,0,1-1.61.37c-1.67,0-2.31-.95-2.31-2.72V10.22l-.93-.29V8.5l1.06-.08.56-2.23h1.51V8.47h1.69Z"/><path class="cls-2" d="M667.51,13v.74c0,1,.43,1.48,1.3,1.48.66,0,1-.31,1.35-1.06l1.56.58a2.91,2.91,0,0,1-3.15,2.13,3,3,0,0,1-3.28-3.05V11.35a3.21,3.21,0,0,1,6.41.09V13Zm0-1.25h2.25v-.5c0-.85-.41-1.25-1.13-1.25s-1.12.43-1.12,1.27Z"/><path class="cls-2" d="M677.66,16.2h0v3.21h-2.22V8.47h2l0,.72h0a2.92,2.92,0,0,1,2.19-.86c1.62,0,2.54,1.19,2.54,3.19v2.11c0,2-.93,3.16-2.7,3.16A2.71,2.71,0,0,1,677.66,16.2Zm0-1.7a1.39,1.39,0,0,0,1.21.57c.75,0,1.14-.4,1.14-1.44V11.57c0-1-.36-1.43-1.1-1.43a1.51,1.51,0,0,0-1.25.61Z"/><path class="cls-2" d="M685.78,14.3H688v2.38h-2.23Z"/><path class="cls-2" d="M698.49,16.68v-3h-7.13v-2.2L698.27.23h3.22V11.07h1.75L703,13.68h-1.52v3Zm0-5.61.16-7h0l-3.88,7Z"/></svg>