<svg id="レイヤー_1" data-name="レイヤー 1" xmlns="http://www.w3.org/2000/svg" viewBox="0 0 502.87 108.44"><defs><style>.cls-1{fill:none;stroke:#004021;stroke-miterlimit:10;stroke-width:0.87px;}.cls-2{fill:#004021;}</style></defs><rect class="cls-1" x="0.44" y="21.8" width="104.05" height="86.2"/><line class="cls-1" x1="104.28" y1="64.27" x2="129.59" y2="64.27"/><polygon class="cls-2" points="125.98 68.72 125.24 67.92 129.18 64.27 125.24 60.61 125.98 59.81 130.78 64.27 125.98 68.72"/><path class="cls-2" d="M22.63,61.45c-.35-1-.56-1.37-.91-1.6-.17-.12-.26-.15-.77-.23v-.36h4v.36a2.3,2.3,0,0,0-.77.12.52.52,0,0,0-.37.52,4.91,4.91,0,0,0,.32,1.24l2.54,7.32,2.54-7.17a4,4,0,0,0,.3-1.24c0-.53-.33-.73-1.31-.79v-.36h3.58v.36a1.5,1.5,0,0,0-1,.41,4.47,4.47,0,0,0-.93,1.67l-3.13,8.59h-.91Z"/><path class="cls-2" d="M37.22,68.31c0,1.39.09,1.51,1.17,1.54v.38H34.71v-.38c1.07,0,1.16-.15,1.16-1.54V61.18c0-1.41-.07-1.51-1.16-1.56v-.36h4.18c2.77,0,4,.86,4,2.71a3,3,0,0,1-.51,1.71,3.75,3.75,0,0,1-2.54,1.12v.13a2.6,2.6,0,0,1,1.21.55,5,5,0,0,1,1.25,2c.74,1.68.86,1.89,1.17,2.15a1.13,1.13,0,0,0,.8.29v.33H42a28.63,28.63,0,0,0-1.65-3.92c-.36-.65-.65-1-1.1-1.1A3.12,3.12,0,0,0,38.14,65h-.92Zm1.25-3.74a3.72,3.72,0,0,0,2.08-.47,2.29,2.29,0,0,0,.93-2c0-1.58-.94-2.36-2.87-2.36H37.22v4.86Z"/><path class="cls-2" d="M55.93,70.19c0,.28,0,.31.06.36a5,5,0,0,0,1.6.11h.21c.41,0,.71,0,.88,0h.1c.56,0,.76-.09.88-.39s.24-.85.73-2.74l.19,0L60.48,70v.16c0,.21,0,.3.22.36s.35.17.35.38-.23.42-.59.5a16.77,16.77,0,0,1-2.43.12h-.26c-.68,0-1.27,0-1.4,0-1.18,0-1.51-.21-1.51-1v-.65c0-.37,0-.64,0-.71V66.9H53.42a5.4,5.4,0,0,1-1.34,3A6.21,6.21,0,0,1,49,71.59c-.45.11-.8.18-1.62.31l-.06-.28a8.11,8.11,0,0,0,2.53-1,4.94,4.94,0,0,0,2.52-3.76H51.14v.49c0,.25-.12.3-.8.3-.32,0-.36,0-.36-.23.07-2.09.1-3.33.1-5.35,0-2.21,0-3-.09-3.89a7.32,7.32,0,0,1,1.27.8h6a4.94,4.94,0,0,1,.67-.7c.36.27.48.38.84.68.14.12.18.2.18.26s-.07.17-.48.41v1.68c0,2.72,0,4.93.06,6,0,.22-.15.27-.78.27-.28,0-.34,0-.35-.2V66.9H55.93Zm1.42-10.82H51.14v2.11h6.21Zm-6.21,2.46V64h6.21V61.83Zm0,2.47v2.25h6.21V64.3Z"/><path class="cls-2" d="M76.2,66.61c.39-.5.52-.66,1-1.16.61.53.79.7,1.38,1.26a.28.28,0,0,1,.06.15c0,.06-.08.1-.18.1H72.21v1.77c0,.65,0,1.09,0,2a.87.87,0,0,1-.54.86,3.3,3.3,0,0,1-1.32.33c-.16-.82-.25-.86-2.37-1.19v-.23c1.15.09,1.26.09,2.86.17.19,0,.24,0,.24-.22V67H66a12.41,12.41,0,0,0-1.24.06l-.09-.53a6.23,6.23,0,0,0,1.3.12h5.09v-.25c0-.31,0-.4,0-1.24.3,0,.68.1,1.15.19a9.7,9.7,0,0,0,1.6-1.81h-5.3a6.72,6.72,0,0,0-1.09.07L67.33,63a6,6,0,0,0,1.16.11h5.43c.28-.3.37-.39.66-.68.47.35.62.45,1.06.8.13.11.19.18.19.26s-.18.19-.77.24A15.61,15.61,0,0,1,72.6,65.4c.14,0,.2.09.2.17s-.15.18-.59.27v.77Zm.22-5.34c.32-.35.41-.45.74-.77a14.73,14.73,0,0,1,1.24.88c.15.1.21.18.21.26s-.25.27-.93.28c-.31.32-.31.32-.76.84l-.6.63-.15-.06a9.36,9.36,0,0,0,.42-1.71H66.72a3.43,3.43,0,0,1-.66,2,1,1,0,0,1-.67.47c-.1,0-.21-.07-.27-.24a1.83,1.83,0,0,1-.16-.62c0-.21.07-.32.45-.61a3,3,0,0,0,1.06-2.22h.28c0,.45,0,.54,0,.86h6.83a13.47,13.47,0,0,0,1.63-3c1.43.56,1.59.64,1.59.77s-.19.23-.43.23l-.33,0a17.07,17.07,0,0,1-2.08,2Zm-8.85-2.84A10.57,10.57,0,0,1,69,59.5a.89.89,0,0,1,.36.64,1.62,1.62,0,0,1-.32.86.27.27,0,0,1-.23.12c-.15,0-.21-.09-.36-.51a7.26,7.26,0,0,0-1-2.06Zm3.08-.35c1.3,1,1.84,1.51,1.84,1.91a2,2,0,0,1-.28.83.4.4,0,0,1-.32.2c-.18,0-.23-.08-.38-.63a5.66,5.66,0,0,0-1-2.17Z"/><rect class="cls-1" x="132.76" y="21.8" width="104.05" height="86.2"/><line class="cls-1" x1="236.6" y1="64.27" x2="261.91" y2="64.27"/><polygon class="cls-2" points="258.3 68.72 257.56 67.92 261.5 64.27 257.56 60.61 258.3 59.81 263.1 64.27 258.3 68.72"/><path class="cls-2" d="M146.62,54a2.79,2.79,0,0,0,1.56.5,9.61,9.61,0,0,0,2.6-.56,8.12,8.12,0,0,0-.77-2.35c-.25-.33-.52-.45-1.23-.53a1.09,1.09,0,0,1,.88-.27,5.36,5.36,0,0,1,1.22.15c.4.11.59.29.59.53a.92.92,0,0,1,0,.15,1.77,1.77,0,0,0-.06.47,9.31,9.31,0,0,0,.18,1.59,8.47,8.47,0,0,0,2.28-1.05c.19-.16.24-.18.36-.18a2.16,2.16,0,0,1,.73.15c.22.11.33.22.33.35a.46.46,0,0,1-.23.34,8.09,8.09,0,0,1-1.4.5l-1.94.59c.18,1,.32,1.6.53,2.42.73-.2,1.81-.53,2.3-.72a5.1,5.1,0,0,0,1-.45.46.46,0,0,1,.3-.1c.6,0,1.34.36,1.34.65a.27.27,0,0,1-.16.24,8.54,8.54,0,0,1-1.06.15,24.84,24.84,0,0,0-3.55.8c.77,3.07.77,3.07,1.09,4.24a3.71,3.71,0,0,1,.16.91c0,.33-.12.5-.35.5s-1.11-.84-1.11-1.23a1.6,1.6,0,0,1,0-.23c0-.1,0-.28,0-.37a24,24,0,0,0-.57-3.58,19.56,19.56,0,0,0-3.13,1.24,1.57,1.57,0,0,1-.66.26c-.56,0-1.61-.89-1.61-1.38a.47.47,0,0,1,0-.16,1.64,1.64,0,0,0,1.12.54,6.51,6.51,0,0,0,2-.44c.71-.22.87-.28,2.14-.66-.21-.94-.42-1.86-.54-2.41a8.81,8.81,0,0,1-2.48.5,2.71,2.71,0,0,1-2-.94Zm7.66-3.47a6.83,6.83,0,0,1,1.95,1,1.08,1.08,0,0,1,.54,1c0,.4-.12.65-.31.65s-.2-.09-.44-.43a8.1,8.1,0,0,0-1.84-2Zm1.12-1.1a9.85,9.85,0,0,1,2,.81c.5.28.66.53.66,1s-.1.65-.3.65-.21-.06-.36-.24a8.58,8.58,0,0,0-2.1-2Z"/><path class="cls-2" d="M168.66,58.3a12.8,12.8,0,0,0,2.07-2.68s0-.06-.08-.06a24,24,0,0,0-3.71,1c.33,1.41,1.08,4.3,1.39,5.33a1.56,1.56,0,0,1,.1.56c0,.24-.1.37-.3.37a1.19,1.19,0,0,1-.59-.39,1,1,0,0,1-.42-.74.81.81,0,0,1,0-.15v-.15a33.82,33.82,0,0,0-.84-4.63l-.79.28a10.7,10.7,0,0,0-1.21.56,1,1,0,0,1-.45.17c-.27,0-.62-.27-1-.73a1.44,1.44,0,0,1-.35-.74.29.29,0,0,1,.08-.21,1.38,1.38,0,0,0,1.1.65,12.93,12.93,0,0,0,2.42-.59c-.55-2.18-.7-2.41-1.67-2.63.12-.18.25-.21.65-.21a3.33,3.33,0,0,1,1.36.34.43.43,0,0,1,.21.37.61.61,0,0,1,0,.21,1.12,1.12,0,0,0,0,.27,8.22,8.22,0,0,0,.19,1.47c.28-.09.28-.09,1.05-.3l1.54-.46a3.61,3.61,0,0,0,1.21-.48.6.6,0,0,1,.27-.09c.18,0,.5.21,1,.6.31.29.43.44.43.61s-.06.22-.46.36c-.16,0-.16,0-1.62,1.21-.47.36-.82.62-1.41,1Z"/><path class="cls-2" d="M179.18,62.69a17.34,17.34,0,0,0,3.45-3.38,14.64,14.64,0,0,0,2.54-4.61,26.35,26.35,0,0,0-4.4.69,7.92,7.92,0,0,0-1.57.47.83.83,0,0,1-.46.14c-.52,0-1.39-1.09-1.39-1.76a.34.34,0,0,1,.1-.25,1.44,1.44,0,0,0,1.31.87c.59,0,3.14-.31,5.11-.65a2.76,2.76,0,0,0,1.23-.34.63.63,0,0,1,.25-.1c.13,0,.36.16.71.46s.6.63.6.83a.53.53,0,0,1-.23.38c-.21.15-.3.29-.56.79a14.8,14.8,0,0,1-6.55,6.64ZM179,51a1.93,1.93,0,0,0,1.61.82,9.92,9.92,0,0,0,3.42-.72.63.63,0,0,1,.31-.1c.43,0,1.18.53,1.18.84s-.13.27-.57.33a28.46,28.46,0,0,1-3.85.39c-1.14,0-1.59-.28-2.32-1.42Z"/><path class="cls-2" d="M192.59,51.4a3.18,3.18,0,0,1,1.42.47.7.7,0,0,1,.4.53s0,.19,0,.33a18.27,18.27,0,0,0-.14,2.6c0,.2,0,.55,0,1.15V57a4.05,4.05,0,0,1-.05.81c0,.22-.15.34-.3.34s-.39-.18-.57-.52a2,2,0,0,1-.27-.84,1,1,0,0,1,.06-.34A10.16,10.16,0,0,0,193.3,54c0-1.11-.06-1.47-.28-1.82s-.32-.39-.9-.65A.71.71,0,0,1,192.59,51.4Zm1.59,11.45a9.21,9.21,0,0,0,3-3c.85-1.43,1.07-2.74,1.07-6.31,0-1.51-.06-2-.28-2.28a1.92,1.92,0,0,0-1.09-.55.77.77,0,0,1,.62-.22,4.41,4.41,0,0,1,1.54.42c.38.18.54.38.54.6s0,.11-.09.37a17.54,17.54,0,0,0-.25,3.24,11.31,11.31,0,0,1-.49,3.78,7.61,7.61,0,0,1-4.5,4.16Z"/><path class="cls-2" d="M206.26,55.79a2.05,2.05,0,0,0,1.47.36l1.85,0,5.9-.09a5.75,5.75,0,0,1,2,.14.32.32,0,0,1,.21.3.45.45,0,0,1-.35.41c-.4.14-.77.15-3.62.18-1.41,0-4.87.11-5.4.14-.71,0-.84.06-1.08.2a1.85,1.85,0,0,1-.23,0c-.23,0-.47-.17-.72-.5a2.7,2.7,0,0,1-.58-1.39c0-.21,0-.24.12-.35A1.36,1.36,0,0,0,206.26,55.79Z"/><path class="cls-2" d="M160.09,76.21a6.64,6.64,0,0,0,0,.68c0,1.8,1.13,2.65,3.56,2.65A10.21,10.21,0,0,0,167,79a.52.52,0,0,1,.26-.06,1.75,1.75,0,0,1,.83.3.72.72,0,0,1,.33.53c0,.22-.16.39-.48.47a17.54,17.54,0,0,1-3.52.3,6.11,6.11,0,0,1-3.52-.73,2.87,2.87,0,0,1-1.26-2.37,4,4,0,0,1,.25-1.29Zm.47-6a3.51,3.51,0,0,0,2.31.67,11.92,11.92,0,0,0,3.15-.45,1.54,1.54,0,0,1,.27-.07,1,1,0,0,1,.9.79c0,.26-.09.32-1.1.53a12.14,12.14,0,0,0-2.2.74l-1.24.52-.59.24L162,73c.47-.27.71-.42,1.1-.63,1-.56,1-.56,1.27-.71-.33,0-.86,0-1.13,0a4.14,4.14,0,0,1-1.72-.41,3.5,3.5,0,0,1-1.06-.88Zm6.82-1c1.46.59,2.28,1.26,2.28,1.88,0,.39-.18.75-.4.75s-.19-.09-.3-.3a6.69,6.69,0,0,0-1.68-2.18Zm1.35-.91a6.12,6.12,0,0,1,1.86.86.91.91,0,0,1,.46.81c0,.45-.14.78-.34.78s-.21-.1-.34-.36a6.35,6.35,0,0,0-1.73-1.94Z"/><path class="cls-2" d="M182.4,74.88a14.87,14.87,0,0,0,1.84-3.81c1.44.57,1.47.59,1.47.69s-.11.17-.59.2a17,17,0,0,1-2.37,2.92h3.05a12.07,12.07,0,0,1,.85-1.07,19.7,19.7,0,0,1,1.51,1.28.12.12,0,0,1,0,.08c0,.06,0,.06-.18.06h-6.18a8,8,0,0,0,2.34,2.63,13,13,0,0,0,2.86,1.6,7,7,0,0,0,1.4.44l0,.16c-.65.15-.84.31-1.1,1a11.15,11.15,0,0,1-3-2.14,11.81,11.81,0,0,1-2.52-3.36v2.31c0,.91,0,1,0,2.32,0,.71,0,.71,0,1.36-.05.15-.09.18-.43.21l-.51,0c-.17,0-.24,0-.26-.19.05-.59.05-.59.12-3.37V76.18a14.11,14.11,0,0,1-3,3.09,15.16,15.16,0,0,1-3.37,2.06l-.15-.22a16.76,16.76,0,0,0,3.95-3.25,12.29,12.29,0,0,0,2-2.63h-4.24a8.59,8.59,0,0,0-1.28.07l-.16-.6a6.16,6.16,0,0,0,1.47.18h4.83V70.66H176.8a11.35,11.35,0,0,0-1.42.07l-.14-.56a6.69,6.69,0,0,0,1.69.14h3.82v-.5a13.21,13.21,0,0,0-.12-1.86c1.33.15,1.76.24,1.76.42s-.17.23-.62.33v1.61h3.35c.33-.47.44-.61.8-1.06.65.51.85.68,1.47,1.24a.27.27,0,0,1,.06.09s-.06.08-.14.08h-5.54v4.22ZM177.23,71c1.29,1,1.94,1.8,1.94,2.31s-.38,1.1-.67,1.1c-.13,0-.15,0-.25-.43a9,9,0,0,0-1.15-2.85Z"/><path class="cls-2" d="M195.31,72.58c.32-.38.41-.5.73-.85.46.4.62.53,1.05,1,.06.07.09.1.09.15s-.06.09-.16.09h-2.4v3.83c.66-.28.95-.41,1.72-.78l.1.22c-.86.62-1.34,1-1.75,1.19-1.54,1-1.54,1-1.92,1.2,0,.56-.07.74-.22.74s-.12,0-.17-.15-.21-.52-.59-1.47c.51-.14,1.07-.3,1.84-.59V72.93h-.87a4.42,4.42,0,0,0-1,.07l-.1-.54a3.71,3.71,0,0,0,1.07.12h.87V69.9a13.53,13.53,0,0,0-.06-1.41c1.47.18,1.65.23,1.65.38s-.14.2-.6.32v3.39Zm5.2,4.08a9,9,0,0,1-1.65,2,10.11,10.11,0,0,1-3.75,2.15l-.12-.22a10.65,10.65,0,0,0,3.21-2.21,8,8,0,0,0,1.24-1.75h-1.3a12.73,12.73,0,0,1-3.51,2.4l-.12-.23a10.28,10.28,0,0,0,2.57-2.17,8,8,0,0,0,1.22-1.72H197a5.7,5.7,0,0,0-1.26.09l-.1-.57a5.51,5.51,0,0,0,1.36.13h6.49c.38-.41.5-.53.88-.91.54.41.71.55,1.24,1,.06.06.09.1.09.15s-.06.09-.18.09h-6.09a12.78,12.78,0,0,1-1,1.38h5.17a4.22,4.22,0,0,1,.56-.56,6.87,6.87,0,0,1,.87.66c.1.06.13.12.13.17s-.14.23-.49.38a15,15,0,0,1-.8,4,2.16,2.16,0,0,1-1.66.89c-.14-.77-.3-.88-1.8-1.09l0-.26c.92.1,1.55.14,2,.14s.54-.08.68-.38a15.18,15.18,0,0,0,.6-3.62h-.79a7.86,7.86,0,0,1-1.69,2.59,11.58,11.58,0,0,1-2.67,2A13.9,13.9,0,0,1,197,82l-.15-.22A11.51,11.51,0,0,0,200.4,79a7.39,7.39,0,0,0,1.45-2.31Zm-1.91-3c0,.22-.16.28-.71.28-.21,0-.27-.05-.27-.2,0-1.08,0-1.62,0-2.12,0-1.8,0-2.72,0-3.27a9.89,9.89,0,0,1,1.15.67h3.52c.26-.28.33-.37.59-.62.39.27.51.36.86.63.11.09.15.15.15.21s0,.14-.48.37v.89c0,.62,0,1.42,0,3,0,.14,0,.18-.15.23a3.59,3.59,0,0,1-.64.08c-.13,0-.19,0-.19-.17v-.38H198.6Zm3.86-4.29H198.6v1.55h3.86Zm-3.86,1.9v1.68h3.86V71.23Z"/><rect class="cls-1" x="265.08" y="21.8" width="104.05" height="86.2"/><line class="cls-1" x1="369.91" y1="64.27" x2="395.23" y2="64.27"/><polygon class="cls-2" points="391.62 68.72 390.87 67.92 394.81 64.27 390.87 60.61 391.62 59.81 396.41 64.27 391.62 68.72"/><path class="cls-2" d="M303.71,44.78H302.5a10.11,10.11,0,0,0-1.31.07l-.08-.54a6.43,6.43,0,0,0,1.39.12h1.21V41.6a14,14,0,0,1-2.25,2l-.18-.17a20.47,20.47,0,0,0,2.47-3.25,7.12,7.12,0,0,0,.82-1.73c1.72.61,1.72.61,1.72.74s-.25.2-.9.22a12.81,12.81,0,0,1-1.05,1.42h7.93a12.79,12.79,0,0,1,.82-1c.56.45.74.6,1.28,1.1l.06.12c0,.08-.07.13-.19.13h-2v3.22h.63c.37-.44.49-.56.86-1,.56.46.73.62,1.26,1.12a.16.16,0,0,1,0,.09.14.14,0,0,1-.15.12H312.2V48h.42c.37-.44.49-.58.88-1,.56.47.72.62,1.25,1.11a.19.19,0,0,1,.08.12c0,.06-.06.1-.14.1H302.86a9.64,9.64,0,0,0-1.08.08l-.08-.53a5.25,5.25,0,0,0,1.16.11h.85ZM304,49a4,4,0,0,1-1,2.47,1.8,1.8,0,0,1-1,.65c-.23,0-.41-.3-.41-.69s.06-.4.5-.58a3,3,0,0,0,.86-.62,2.8,2.8,0,0,0,.86-1.29Zm2.2-4.55V41.21h-1.57v3.22Zm0,3.59V44.78h-1.57V48Zm-.27.86A5.53,5.53,0,0,1,307.12,51c0,.43-.43,1-.78,1-.18,0-.24-.16-.24-.62a10.31,10.31,0,0,0-.31-2.4Zm2.76-4.45V41.21h-1.58v3.22Zm0,3.59V44.78h-1.58V48Zm0,.83a8.83,8.83,0,0,1,1.46,1.48,1.15,1.15,0,0,1,.28.62c0,.46-.36,1-.65,1-.13,0-.16-.08-.27-.53a10.48,10.48,0,0,0-1-2.48Zm.91-4.42h1.6V41.21h-1.6Zm0,3.59h1.6V44.78h-1.6Zm2,.86a10,10,0,0,1,2.1,1.31c.44.37.57.56.57.81a2,2,0,0,1-.25.81.42.42,0,0,1-.27.2c-.11,0-.25-.14-.37-.39A11.64,11.64,0,0,0,311.49,49Z"/><path class="cls-2" d="M318.61,52a11.87,11.87,0,0,0,2.89-2.68,14.54,14.54,0,0,0,2.73-6.15,16.83,16.83,0,0,0,.35-3.24c0-.3,0-.46,0-.87,1.64.21,1.82.25,1.82.41s-.06.15-.65.39c0,.21,0,.33,0,.47A12.4,12.4,0,0,0,327.83,47a10.42,10.42,0,0,0,3.07,2.92,7.07,7.07,0,0,0,1.72.83l0,.19h-.1a.93.93,0,0,0-.77.3,2.61,2.61,0,0,0-.44.76,11.11,11.11,0,0,1-3.61-3.67,16.51,16.51,0,0,1-1.75-4.22,11.14,11.14,0,0,1-.37-2.19,14.75,14.75,0,0,1-2.41,6.55,11.14,11.14,0,0,1-4.42,3.72Z"/><path class="cls-2" d="M273.37,59.51a2.4,2.4,0,0,0,1.66.73,13.5,13.5,0,0,0,3.42-.58,5.16,5.16,0,0,0,1.6-.65.55.55,0,0,1,.3-.09c.47,0,1.18.44,1.18.73s-.3.35-1.06.51a32.5,32.5,0,0,1-3.94.65c.74.37,1,.61,1,1a1.54,1.54,0,0,1-.08.44,7.7,7.7,0,0,0-.16,1.3l3.55-.53a4.31,4.31,0,0,0,1-.26.93.93,0,0,1,.32-.08,2.48,2.48,0,0,1,1,.35c.31.18.49.41.49.59s-.17.29-.47.29H283c-.26,0-.95,0-1.39,0a31.84,31.84,0,0,0-4.34.33c0,.91,0,1.3,0,1.7a4,4,0,0,0,.19,1.75c.18.35.56.49,1.24.49a7.91,7.91,0,0,0,2.65-.4.65.65,0,0,1,.16,0,1.46,1.46,0,0,1,.73.31c.25.18.37.34.37.53s-.15.33-.45.39a14.16,14.16,0,0,1-2.1.15c-1.93,0-2.78-.27-3.2-1a4.06,4.06,0,0,1-.41-2.09c0-.21,0-.21,0-1.21v-.49a13.35,13.35,0,0,0-2.8.67.73.73,0,0,1-.36.11,1.11,1.11,0,0,1-.7-.34,2.3,2.3,0,0,1-.75-1.24.57.57,0,0,1,.09-.29,1.52,1.52,0,0,0,1.37.82,24.65,24.65,0,0,0,3.13-.36,4.35,4.35,0,0,0,0-.49c0-1.75-.05-2-.38-2.3a2.26,2.26,0,0,1-.33,0,2.91,2.91,0,0,1-1.85-.53,3.66,3.66,0,0,1-.63-.68Z"/><path class="cls-2" d="M290.57,70.35a10.86,10.86,0,0,0,2.19-3.57,10.53,10.53,0,0,0,.73-3.09.74.74,0,0,0-.4-.74,11.83,11.83,0,0,0-3.35.95,1,1,0,0,1-.47.15,1.39,1.39,0,0,1-.95-.57,1.49,1.49,0,0,1-.51-.91.78.78,0,0,1,.06-.29,1.41,1.41,0,0,0,1.24.7,15.39,15.39,0,0,0,2.58-.4c.92-.15,2.84-.39,4.65-.56a7.8,7.8,0,0,0,1.18-.25.82.82,0,0,1,.38-.08,1.93,1.93,0,0,1,.8.23c.42.19.71.48.71.69s-.17.31-.42.31a1.29,1.29,0,0,1-.38-.05,14.36,14.36,0,0,0-2.43-.2,17.72,17.72,0,0,0-2.48.16c.69.37,1,.69,1,1a9.26,9.26,0,0,1-1,3,8.93,8.93,0,0,1-3,3.67Zm-.29-11.69a2.49,2.49,0,0,0,1.82.82,8.27,8.27,0,0,0,3.17-.74.9.9,0,0,1,.45-.12c.4,0,1,.48,1,.79s-.18.27-.79.4a20.32,20.32,0,0,1-3.46.4,2.58,2.58,0,0,1-2.44-1.39Zm7-.59a7.21,7.21,0,0,1,1.78,1.06,1.09,1.09,0,0,1,.47.91c0,.46-.17.8-.38.8s-.21-.1-.33-.36a6.79,6.79,0,0,0-1.68-2.24Zm1.33-.84a6.11,6.11,0,0,1,1.81.86c.42.3.54.51.54.89s-.13.73-.33.73-.21-.08-.33-.3a5.48,5.48,0,0,0-1.81-2Z"/><path class="cls-2" d="M303.3,69.11a9.15,9.15,0,0,0,2-2.88,11.63,11.63,0,0,0,1-4.1c0-.59-.26-.89-1-1.18a.62.62,0,0,1,.41-.14,2.25,2.25,0,0,1,1.13.38c.56.33.82.59.82.83a2.1,2.1,0,0,1-.2.7,5,5,0,0,1-.15.53,13.79,13.79,0,0,1-1,2.78,7.69,7.69,0,0,1-2.85,3.24Zm12.9-6a10.32,10.32,0,0,1-1.65,2.13,20.79,20.79,0,0,1-3.2,2.77c-.28.2-.72.55-.86.68s-.19.17-.3.17c-.35,0-.91-.79-.91-1.26a3.43,3.43,0,0,1,.11-.47,31,31,0,0,0,.13-4.1c0-3.43-.06-3.63-1.16-3.87a.53.53,0,0,1,.48-.23,2.74,2.74,0,0,1,1.33.47c.44.27.62.48.62.7a1.1,1.1,0,0,1-.12.41,7.5,7.5,0,0,0-.21,1.48c-.06.63-.19,4-.19,4.55a6.58,6.58,0,0,0,0,.7A17.09,17.09,0,0,0,316,62.92Z"/><path class="cls-2" d="M318.8,67.4a15.89,15.89,0,0,0,3.71-4.21,3.22,3.22,0,0,0,.62-1.5c0-.24-.19-.47-.75-.86a1,1,0,0,1,.33-.06,2.79,2.79,0,0,1,1.24.51c.53.35.74.58.74.82a.43.43,0,0,1-.18.33,2.49,2.49,0,0,0-.64.7,14.29,14.29,0,0,1-3.19,3.31,8.51,8.51,0,0,1-1.76,1.12Zm8.09-6.66a14,14,0,0,1,4,3.52,2.63,2.63,0,0,1,.63,1.62c0,.62-.24,1.11-.57,1.11s-.28-.09-.5-.7a13.27,13.27,0,0,0-3.7-5.36Z"/><path class="cls-2" d="M339.29,70.07a12.12,12.12,0,0,0,2.81-2.66,14.23,14.23,0,0,0,2.1-3.87,9.53,9.53,0,0,0,.65-2.59l-.48,0a28,28,0,0,0-5.26.67,1.16,1.16,0,0,1-.27,0,1.78,1.78,0,0,1-.77-.27,1.65,1.65,0,0,1,.07.68c0,1.08,0,2.11,0,2.18,0,.56-.1.82-.35.82s-.86-.79-.86-1.27a.68.68,0,0,1,.11-.35,3.13,3.13,0,0,0,.14-1.1,2,2,0,0,0-1.11-2.14.57.57,0,0,1,.31-.07c.42,0,.64.12,1.58.86a9.26,9.26,0,0,0,1.5-.17c.6-.09.8-.1,1.28-.16,0-.25,0-.35,0-.68a3.48,3.48,0,0,0-.2-1.61c-.14-.26-.26-.33-.82-.54a.51.51,0,0,1,.38-.15c.88,0,2,.46,2,.84,0,.09,0,.15-.14.35a3.58,3.58,0,0,0-.33,1.68c2.61-.23,2.87-.26,3.09-.38a.68.68,0,0,1,.28-.09,1.62,1.62,0,0,1,.74.41c.43.36.59.56.59.77s0,.18-.19.36a2.88,2.88,0,0,0-.43.91,17.92,17.92,0,0,1-1.45,3.17A11.21,11.21,0,0,1,341,69.35a8.53,8.53,0,0,1-1.6.94Z"/><path class="cls-2" d="M350.22,69.17a22.08,22.08,0,0,0,4.07-3.32,26.66,26.66,0,0,0,2.88-3.77,10,10,0,0,0,1-1.95,16,16,0,0,0-3.19.67,7.31,7.31,0,0,0-1.27.41.66.66,0,0,1-.25,0c-.34,0-.65-.27-1-.86a1.88,1.88,0,0,1-.31-.91.62.62,0,0,1,.1-.3c.44.79.76,1,1.42,1a23.43,23.43,0,0,0,3.18-.42,4.28,4.28,0,0,0,1.42-.42.56.56,0,0,1,.34-.14c.32,0,1.18.77,1.18,1.06a.36.36,0,0,1-.2.29c-.31.21-.31.21-.86,1-.72,1.09-.72,1.09-1.9,2.64a14.74,14.74,0,0,1,3.91,2.56,2,2,0,0,1,.58,1.49c0,.49-.15.79-.41.79a.49.49,0,0,1-.35-.24,5.39,5.39,0,0,1-.36-.61,13.06,13.06,0,0,0-3.6-3.7,16.41,16.41,0,0,1-3.65,3.4,12.8,12.8,0,0,1-2.65,1.48Z"/><path class="cls-2" d="M309.77,87.5c0,.29,0,.32.06.37a5.54,5.54,0,0,0,1.6.1h1.19c.56,0,.76-.09.88-.4s.24-.84.72-2.74l.2,0-.11,2.47v.15c0,.21.05.3.23.37s.35.16.35.37-.23.43-.59.5a15.39,15.39,0,0,1-2.43.12H310.2c-1.17,0-1.51-.21-1.51-1v-.66c0-.36,0-.63,0-.71V84.22h-1.45a5.31,5.31,0,0,1-1.35,3,6.11,6.11,0,0,1-3.09,1.73,15.82,15.82,0,0,1-1.62.3l-.06-.27a7.8,7.8,0,0,0,2.52-1,4.92,4.92,0,0,0,2.53-3.75H305v.48c0,.26-.12.31-.8.31-.32,0-.36,0-.36-.23.07-2.09.1-3.33.1-5.36,0-2.21,0-3-.09-3.89a8.45,8.45,0,0,1,1.27.8h5.95a5.46,5.46,0,0,1,.67-.69c.36.27.48.38.84.68.14.12.18.2.18.26s-.07.16-.48.41v1.68c0,2.72,0,4.93.06,6,0,.23-.15.28-.79.28-.27,0-.33,0-.34-.2v-.56h-1.42Zm1.42-10.82H305V78.8h6.21ZM305,79.15v2.12h6.21V79.15Zm0,2.47v2.25h6.21V81.62Z"/><path class="cls-2" d="M330,83.93c.4-.5.53-.66,1-1.16.61.53.79.69,1.38,1.25a.36.36,0,0,1,.06.15c0,.06-.08.11-.18.11h-6.21v1.77c0,.65,0,1.09,0,2a.88.88,0,0,1-.54.87,3.48,3.48,0,0,1-1.32.33c-.16-.82-.25-.86-2.37-1.2v-.22c1.15.09,1.26.09,2.86.16.19,0,.24,0,.24-.21V84.28h-5.06a9.91,9.91,0,0,0-1.24.06l-.09-.53a6.23,6.23,0,0,0,1.3.12h5.09v-.26c0-.3,0-.39,0-1.24l1.15.2a9.8,9.8,0,0,0,1.6-1.82h-5.3a6.75,6.75,0,0,0-1.09.08l-.09-.53a6,6,0,0,0,1.16.11h5.42c.29-.31.38-.4.67-.68.47.34.62.45,1.06.8.13.1.19.18.19.25s-.18.2-.77.25a17.25,17.25,0,0,1-2.46,1.63c.14,0,.2.09.2.17s-.16.18-.59.27v.77Zm.23-5.34c.32-.35.41-.45.74-.77a14.73,14.73,0,0,1,1.24.88c.15.1.21.18.21.25s-.25.28-.93.29c-.31.32-.31.32-.76.83-.29.32-.29.32-.6.64l-.16-.06a8.65,8.65,0,0,0,.43-1.71h-9.87a3.43,3.43,0,0,1-.66,2,1.07,1.07,0,0,1-.67.47.32.32,0,0,1-.27-.24,1.87,1.87,0,0,1-.17-.62c0-.22.08-.32.46-.61a3,3,0,0,0,1.06-2.22h.28c0,.45,0,.54,0,.86h6.83a13.47,13.47,0,0,0,1.63-3c1.43.56,1.58.63,1.58.77s-.18.23-.42.23l-.33,0a17.81,17.81,0,0,1-2.09,2Zm-8.85-2.85a10.63,10.63,0,0,1,1.43,1.08.85.85,0,0,1,.37.63,1.62,1.62,0,0,1-.32.87.31.31,0,0,1-.23.12c-.15,0-.21-.09-.36-.52a7.34,7.34,0,0,0-1-2Zm3.08-.34c1.3.95,1.84,1.51,1.84,1.9a2.09,2.09,0,0,1-.28.84.38.38,0,0,1-.32.19c-.18,0-.23-.07-.38-.62a5.79,5.79,0,0,0-1-2.18Z"/><rect class="cls-1" x="398.39" y="21.8" width="104.05" height="86.2"/><path class="cls-2" d="M407.56,62.64a10.26,10.26,0,0,0,2.28-3.81,12.87,12.87,0,0,0,.75-3.3c0-.41-.24-.71-.74-1a.33.33,0,0,1,.29-.15,2.78,2.78,0,0,1,1,.44,1.18,1.18,0,0,1,.54.53,15.7,15.7,0,0,0,2.25-2.17c.29-.33.39-.49.39-.6s-.15-.23-.74-.23a20.64,20.64,0,0,0-4.34.83,9.31,9.31,0,0,0-1.29.53.57.57,0,0,1-.29.08c-.27,0-.73-.45-1-1a2.33,2.33,0,0,1-.24-.82.83.83,0,0,1,.08-.35,1.23,1.23,0,0,0,1.25.91,21.3,21.3,0,0,0,3-.39c.11,0,.39-.07.86-.13,2-.27,2.06-.3,2.32-.45a.41.41,0,0,1,.17,0c.13,0,.36.16.66.44a2.66,2.66,0,0,1,.91,1.27c0,.23-.08.29-.45.41a2.83,2.83,0,0,0-.62.32c-1.05.71-1.61,1.06-3,1.83-.08.26-.09.29-.19.68a13.07,13.07,0,0,1-1.81,4.33,8.47,8.47,0,0,1-2,2Z"/><path class="cls-2" d="M422,58.9c0,.87,0,2.64,0,3v.27c0,.46-.09.65-.27.65s-.28-.13-.46-.4a2.45,2.45,0,0,1-.32-1,1.92,1.92,0,0,1,.1-.56,37.32,37.32,0,0,0,.21-5.2c0-3.12,0-3.94-.2-4.32a1.57,1.57,0,0,0-.81-.77.5.5,0,0,1,.33-.12,2.52,2.52,0,0,1,1.22.52c.35.24.48.4.48.63a.52.52,0,0,1-.08.27,10.89,10.89,0,0,0-.21,3.3,8.2,8.2,0,0,1,3.21,1,1.06,1.06,0,0,1,.52,1c0,.38-.12.67-.28.67s-.18,0-.49-.38a7.65,7.65,0,0,0-3-1.94V58.9ZM424.34,51c1.61.82,2.17,1.35,2.17,2,0,.43-.16.79-.34.79s-.16,0-.47-.65a6.68,6.68,0,0,0-1.47-2Zm1.15-1.07a5.47,5.47,0,0,1,1.73,1,1,1,0,0,1,.41.85c0,.39-.13.71-.29.71s-.18,0-.47-.56a6.48,6.48,0,0,0-1.49-1.81Z"/><path class="cls-2" d="M429.49,60.27a15.32,15.32,0,0,0,3.09-4.2,3.65,3.65,0,0,0,.52-1.49c0-.25-.16-.49-.63-.87a1,1,0,0,1,.28-.06,2.28,2.28,0,0,1,1,.52c.43.33.6.57.6.82a.42.42,0,0,1-.15.33,2.79,2.79,0,0,0-.53.69,13.81,13.81,0,0,1-2.64,3.32,7.5,7.5,0,0,1-1.47,1.1Zm6.75-6.65a12.59,12.59,0,0,1,3.31,3.53,2.81,2.81,0,0,1,.53,1.6c0,.64-.21,1.12-.48,1.12s-.24-.09-.42-.69a13.68,13.68,0,0,0-3.08-5.37Zm1.28-2a7,7,0,0,1,1.61,1,1.17,1.17,0,0,1,.44.95c0,.43-.11.7-.29.7s-.2-.09-.43-.53a6.7,6.7,0,0,0-1.43-2Zm1.23-.85a5.91,5.91,0,0,1,1.6.86,1,1,0,0,1,.47.82c0,.48-.12.77-.3.77s-.17-.08-.28-.27a6,6,0,0,0-1.59-2Z"/><path class="cls-2" d="M443.78,58.78a22.15,22.15,0,0,0,4.73-4.29,8.88,8.88,0,0,0,2.05-3.14c0-.28-.2-.53-.7-.86a.47.47,0,0,1,.25-.06,1.72,1.72,0,0,1,1.08.45,1.47,1.47,0,0,1,.66,1c0,.13,0,.16-.51.66-.12.12-.12.12-1,1.15a21.53,21.53,0,0,1-1.5,1.64c.5.44.71.66.77.85a15.44,15.44,0,0,1,.09,2.22c0,1.06,0,2,.06,2.89,0,.33,0,.77,0,.86,0,.53-.09.76-.29.76s-.86-.83-.86-1.27a1.06,1.06,0,0,1,.08-.39,25.52,25.52,0,0,0,.22-3.73,8.81,8.81,0,0,0-.07-1.44,1.15,1.15,0,0,0-.28-.46,26.51,26.51,0,0,1-2.42,2.07A14.63,14.63,0,0,1,443.88,59Z"/><path class="cls-2" d="M459.06,63a7.35,7.35,0,0,0,2.4-3.08,9.64,9.64,0,0,0,.63-3.16c.05-.72.07-1.09.08-1.7a14.21,14.21,0,0,0-2.81.47V56q0,.11,0,1.74s0,.26,0,.56,0,.29,0,.39c0,.53-.11.84-.32.84s-.66-.76-.66-1.22a.83.83,0,0,1,.06-.31,3,3,0,0,0,.14-.71c0-.16,0-.7.05-1.62a5.33,5.33,0,0,0-1.62.57,1.12,1.12,0,0,1-.42.15c-.4,0-1.18-1-1.18-1.57a.41.41,0,0,1,0-.15c.37.51.68.71,1,.71a9.23,9.23,0,0,0,1.39-.23c.44-.09.5-.1.73-.13a11.49,11.49,0,0,0-.18-2.05,1.31,1.31,0,0,0-.41-.69,2.88,2.88,0,0,0-.36-.26.27.27,0,0,1,.28-.12,2.08,2.08,0,0,1,1.07.47.87.87,0,0,1,.44.69,1.37,1.37,0,0,1-.05.34,7.66,7.66,0,0,0-.11,1.48l2.83-.41v-1a4.48,4.48,0,0,0-.2-1.93,1.39,1.39,0,0,0-.81-.56.63.63,0,0,1,.42-.16,2.46,2.46,0,0,1,1.18.38c.34.2.47.35.47.56a.68.68,0,0,1-.05.27,7,7,0,0,0-.25,2.32,4,4,0,0,0,1.52-.3.6.6,0,0,1,.33-.11c.4,0,1.16.58,1.16.89a.27.27,0,0,1-.27.26h-.23a11.4,11.4,0,0,0-1.76-.12h-.77a23.91,23.91,0,0,1-.19,2.86,6.5,6.5,0,0,1-1,3,6.9,6.9,0,0,1-2.57,2.3Zm4.41-12.8A5.09,5.09,0,0,1,465,51.23a1.13,1.13,0,0,1,.34.88c0,.41-.12.7-.27.7s-.17-.09-.29-.35a6.88,6.88,0,0,0-1.45-2.11Zm1.2-.72a4.39,4.39,0,0,1,1.74,1,.89.89,0,0,1,.25.74c0,.39-.14.71-.29.71s-.15-.08-.26-.3a5.23,5.23,0,0,0-1.54-1.94Z"/><path class="cls-2" d="M470.56,55.79a1.53,1.53,0,0,0,1.23.36l1.54,0,4.92-.09a4,4,0,0,1,1.63.14.32.32,0,0,1,.18.3.43.43,0,0,1-.29.41c-.34.14-.64.15-3,.18-1.17,0-4.06.11-4.5.14s-.7.06-.9.2a1.62,1.62,0,0,1-.19,0c-.19,0-.39-.17-.61-.5a3.09,3.09,0,0,1-.48-1.39.43.43,0,0,1,.1-.35A1.48,1.48,0,0,0,470.56,55.79Z"/><path class="cls-2" d="M484.86,56.77c.27,0,.27,0,1.53-1.54,1-1.2,1.48-1.61,2-1.61s.93.32,2.17,1.67a15.41,15.41,0,0,0,3.69,3.25.85.85,0,0,1,.52.58,2.65,2.65,0,0,1,.21.9c0,.19-.11.32-.25.32a3.21,3.21,0,0,1-1.13-.68A25,25,0,0,1,490.23,56c-1.15-1.45-1.51-1.8-1.93-1.8s-.72.38-1.35,1.39a8.9,8.9,0,0,0-.71,1.33,3.92,3.92,0,0,0-.23.55c-.13.33-.13.34-.21.44a.46.46,0,0,1-.28.12C485,58,484,56.88,484,56.26a1.18,1.18,0,0,1,0-.22C484.27,56.47,484.63,56.77,484.86,56.77Z"/><path class="cls-2" d="M441,71.44c.29-.43.37-.57.65-1,.44.48.57.63,1,1.16a.31.31,0,0,1,0,.08s-.05.07-.13.07h-2.06v1.49a9.36,9.36,0,0,1,1,.74c.65.56.82.8.82,1.24s-.21,1-.38,1-.18-.08-.38-.64a7.62,7.62,0,0,0-1.07-2c0,5.87,0,5.87,0,7.92h0c0,.09,0,.11-.12.15a1.93,1.93,0,0,1-.59.09c-.12,0-.15,0-.16-.16,0-2.53,0-2.53.06-3.33,0-.41,0-.71,0-1.06,0-1.06,0-1.79,0-2.12l.07-1.72a15.15,15.15,0,0,1-1,2.73,10.59,10.59,0,0,1-1.42,2.32l-.12-.14a23.19,23.19,0,0,0,1.6-3.86,16.12,16.12,0,0,0,.63-2.63h-1.14a5,5,0,0,0-.84.08l-.07-.55a3.45,3.45,0,0,0,.91.12h1.29v-1.6c0-.86,0-1.06-.05-1.77,1.25.17,1.41.21,1.41.38s-.13.21-.54.39v2.6Zm6.2-2.3.51-.69c.34.29.44.38.77.69a.44.44,0,0,1,.15.26c0,.12-.1.21-.47.39,0,8.51,0,8.51,0,11.4a.2.2,0,0,1-.1.2,2,2,0,0,1-.61.09c-.14,0-.19,0-.19-.18v-1h-3.56v1c0,.19-.15.25-.7.25-.14,0-.18,0-.18-.21.05-2,.05-2,.05-6.93,0-3,0-4.06,0-6.07a10.56,10.56,0,0,1,.95.8Zm.1.35h-3.56v3.07h3.56Zm-3.56,3.42v3.24h3.56V72.91Zm0,3.59v3.43h3.56V76.5Z"/><path class="cls-2" d="M451.82,70.9a3.71,3.71,0,0,0,1,.12h2l.67-1a14,14,0,0,1,1,1,.42.42,0,0,1,.09.18.13.13,0,0,1-.12.12h-3.71a3.33,3.33,0,0,0-.8.09Zm.45-2a3,3,0,0,0,.83.1h1.48l.7-.94c.43.43.55.56,1,1a.39.39,0,0,1,0,.14.16.16,0,0,1-.14.15H453a4.72,4.72,0,0,0-.64.06Zm0,4.07a3.1,3.1,0,0,0,.83.1h1.4c.24-.37.32-.48.58-.86.42.41.54.53,1,1a.45.45,0,0,1,0,.11.12.12,0,0,1-.1.12H453a2.12,2.12,0,0,0-.65.09Zm0,2.09a2.8,2.8,0,0,0,.83.1h1.47c.23-.38.31-.5.56-.88a12.64,12.64,0,0,1,.93,1,.3.3,0,0,1,0,.11.12.12,0,0,1-.1.12h-3a2.76,2.76,0,0,0-.65.06Zm.87,6.5c0,.18-.12.24-.58.24-.16,0-.21,0-.21-.19,0-1.68,0-1.85,0-2.33,0-1,0-2,0-2.65a6.24,6.24,0,0,1,.89.59h1.53c.2-.3.26-.39.48-.7l.69.7c.09.11.12.15.12.2s-.12.19-.4.31c0,1.44,0,2.41.06,3.3,0,.12-.06.16-.13.18a1.74,1.74,0,0,1-.53.08c-.12,0-.17,0-.17-.17v-.42h-1.75Zm0-1.21h1.75V77.56h-1.75Zm2.28,1.32a5.64,5.64,0,0,0,2.87-2.47,7.77,7.77,0,0,0,.75-3.07c0-.41.06-.92.06-1.21a3.39,3.39,0,0,0,0-.53,7,7,0,0,1,1.21.2s.14.12.13.13l-.05.11c0,.06-.14.13-.46.3A8.78,8.78,0,0,0,460,76.7a3.56,3.56,0,0,0,.31,1l.12-.13a7.64,7.64,0,0,0,1.45-2.14c.44.28,1,.62,1.11.7a.19.19,0,0,1,.07.14c0,.09-.12.16-.26.16a2.05,2.05,0,0,1-.34,0,11.2,11.2,0,0,1-2,1.51,4.09,4.09,0,0,0,1.13,1.39,4.37,4.37,0,0,0,2.16.88v.21c-.45.19-.65.47-.77,1.12a6.07,6.07,0,0,1-3-3.89,9.49,9.49,0,0,1-.17-1.3,8,8,0,0,1-.48,2.33,5,5,0,0,1-2,2.38,8.08,8.08,0,0,1-1.84.79Zm4.47-12.35a11.52,11.52,0,0,1-.41,2.86,17.44,17.44,0,0,1,3.16,1.59,1.29,1.29,0,0,1,.44,1.18c0,.27-.08.45-.18.45s-.15-.07-.6-.59a11.58,11.58,0,0,0-2.89-2.43,4.52,4.52,0,0,1-.85,1.54,5.28,5.28,0,0,1-2.23,1.6l-.11-.22a5.17,5.17,0,0,0,1.53-1.24,5.75,5.75,0,0,0,1.29-3.71c0-.64.07-1.47.07-1.67a4.79,4.79,0,0,0,0-.56,4.71,4.71,0,0,1,.58.1c.56.07.78.16.78.31s-.15.22-.5.35Zm-1.75,6.25a6.14,6.14,0,0,1-.56,2.32c-.22.43-.55.77-.74.77s-.35-.38-.35-.83a.47.47,0,0,1,.1-.34s0,0,.23-.12A2.55,2.55,0,0,0,458,75.48Zm0-5.87a6,6,0,0,1-.49,2.24c-.23.5-.55.88-.77.88s-.35-.38-.35-.76,0-.29.28-.41a2.91,2.91,0,0,0,1.13-2Zm1.9,2a8.72,8.72,0,0,0,1.35-1.59,3.81,3.81,0,0,0,.48-.77c.25.15.44.27.57.33.47.29.63.41.63.53s-.13.16-.27.16a1.06,1.06,0,0,1-.29,0,26.88,26.88,0,0,1-2.39,1.54Z"/><path class="cls-2" d="M35.8,7.23a.89.89,0,0,0-.87-.64c-.42,0-.61.19-.61.48,0,.86,2.48.62,2.48,2.45a1.77,1.77,0,0,1-1.94,1.7,2,2,0,0,1-2-1.3l.94-.42a1.11,1.11,0,0,0,1,.69c.41,0,.6-.17.6-.52,0-.91-2.48-.63-2.48-2.48,0-.92.69-1.63,1.93-1.63a1.88,1.88,0,0,1,1.91,1.32Z"/><path class="cls-2" d="M42,6.74H40.85V9.46a.58.58,0,0,0,.62.66,1.54,1.54,0,0,0,.42-.07L42,11a2.35,2.35,0,0,1-1.07.25c-1.11,0-1.54-.63-1.54-1.81V6.82l-.62-.19v-1l.71,0,.37-1.49h1V5.65H42Z"/><path class="cls-2" d="M45.68,8.64v.49c0,.67.29,1,.86,1s.7-.21.9-.71l1,.39a1.94,1.94,0,0,1-2.1,1.42,2,2,0,0,1-2.18-2V7.57a2.14,2.14,0,0,1,4.27.06v1Zm0-.84h1.5V7.47c0-.56-.27-.83-.75-.83s-.75.29-.75.84Z"/><path class="cls-2" d="M52.43,10.8h0v2.14H50.94V5.65h1.3l0,.48h0a2,2,0,0,1,1.46-.57c1.08,0,1.69.79,1.69,2.13v1.4c0,1.3-.62,2.11-1.8,2.11A1.8,1.8,0,0,1,52.43,10.8Zm0-1.13a.93.93,0,0,0,.8.38c.51,0,.76-.27.76-1V7.72c0-.66-.23-1-.72-1a1,1,0,0,0-.84.4Z"/><path class="cls-2" d="M57.83,9.54h1.49v1.58H57.83Z"/><path class="cls-2" d="M66.16.09v11H63.9V3.62H61.72V2.07h.94c1.21,0,1.53-.31,1.72-2Z"/><path class="cls-2" d="M168.21,7.23a.89.89,0,0,0-.87-.64c-.42,0-.61.19-.61.48,0,.86,2.48.62,2.48,2.45a1.78,1.78,0,0,1-1.94,1.7,2,2,0,0,1-2-1.3l.94-.42a1.13,1.13,0,0,0,1,.69c.4,0,.6-.17.6-.52,0-.91-2.48-.63-2.48-2.48,0-.92.69-1.63,1.93-1.63a1.87,1.87,0,0,1,1.9,1.32Z"/><path class="cls-2" d="M174.38,6.74h-1.12V9.46a.58.58,0,0,0,.62.66,1.47,1.47,0,0,0,.41-.07l.11.91a2.35,2.35,0,0,1-1.07.25c-1.11,0-1.54-.63-1.54-1.81V6.82l-.62-.19v-1l.71,0,.37-1.49h1V5.65h1.12Z"/><path class="cls-2" d="M178.09,8.64v.49c0,.67.29,1,.86,1s.7-.21.9-.71l1,.39a1.94,1.94,0,0,1-2.1,1.42,2,2,0,0,1-2.18-2V7.57a2.14,2.14,0,0,1,4.27.06v1Zm0-.84h1.49V7.47c0-.56-.26-.83-.75-.83s-.74.29-.74.84Z"/><path class="cls-2" d="M184.84,10.8h0v2.14h-1.48V5.65h1.31l0,.48h0a2,2,0,0,1,1.46-.57c1.07,0,1.68.79,1.68,2.13v1.4c0,1.3-.62,2.11-1.79,2.11A1.8,1.8,0,0,1,184.84,10.8Zm0-1.13a.93.93,0,0,0,.8.38c.5,0,.76-.27.76-1V7.72c0-.66-.24-1-.73-1a1,1,0,0,0-.83.4Z"/><path class="cls-2" d="M190.24,9.54h1.48v1.58h-1.48Z"/><path class="cls-2" d="M201.25,3c0,3.72-3.9,4-4.44,6.32h4.45v1.8h-6.84l0-1c.12-3.52,4.68-4.81,4.68-7,0-.78-.39-1.22-1.34-1.22s-1.47.59-1.73,1.68L194.31,3a3.67,3.67,0,0,1,3.61-3C200.25,0,201.25,1.41,201.25,3Z"/><path class="cls-2" d="M300.19,7.23a.89.89,0,0,0-.87-.64c-.42,0-.61.19-.61.48,0,.86,2.48.62,2.48,2.45a1.78,1.78,0,0,1-1.94,1.7,2,2,0,0,1-2-1.3l.94-.42a1.12,1.12,0,0,0,1,.69c.4,0,.6-.17.6-.52,0-.91-2.48-.63-2.48-2.48,0-.92.69-1.63,1.93-1.63a1.87,1.87,0,0,1,1.9,1.32Z"/><path class="cls-2" d="M306.36,6.74h-1.12V9.46a.58.58,0,0,0,.62.66,1.53,1.53,0,0,0,.41-.07l.11.91a2.35,2.35,0,0,1-1.07.25c-1.11,0-1.54-.63-1.54-1.81V6.82l-.62-.19v-1l.71,0,.37-1.49h1V5.65h1.12Z"/><path class="cls-2" d="M310.07,8.64v.49c0,.67.28,1,.86,1s.7-.21.9-.71l1,.39a1.94,1.94,0,0,1-2.1,1.42,2,2,0,0,1-2.18-2V7.57a2.14,2.14,0,0,1,4.27.06v1Zm0-.84h1.49V7.47c0-.56-.26-.83-.75-.83s-.74.29-.74.84Z"/><path class="cls-2" d="M316.82,10.8h0v2.14h-1.48V5.65h1.31l0,.48h0a1.93,1.93,0,0,1,1.45-.57c1.08,0,1.69.79,1.69,2.13v1.4c0,1.3-.62,2.11-1.79,2.11A1.8,1.8,0,0,1,316.82,10.8Zm0-1.13a.92.92,0,0,0,.8.38c.5,0,.76-.27.76-1V7.72c0-.66-.24-1-.73-1a1,1,0,0,0-.83.4Z"/><path class="cls-2" d="M322.22,9.54h1.48v1.58h-1.48Z"/><path class="cls-2" d="M328.53,4.69h.83c.95,0,1.45-.41,1.45-1.44s-.44-1.4-1.27-1.4a1.68,1.68,0,0,0-1.72,1.4l-1.62-.57A3.48,3.48,0,0,1,329.73,0C332,0,333,1.38,333,3a2.39,2.39,0,0,1-1.42,2.45v0a2.24,2.24,0,0,1,1.61,2.46c0,2.26-1.35,3.36-3.55,3.36a3.33,3.33,0,0,1-3.55-2.52l1.61-.61a1.81,1.81,0,0,0,1.79,1.35c1,0,1.44-.59,1.44-1.71s-.55-1.44-1.56-1.44h-.87Z"/><path class="cls-2" d="M434,7.23a.9.9,0,0,0-.88-.64c-.41,0-.61.19-.61.48,0,.86,2.48.62,2.48,2.45a1.77,1.77,0,0,1-1.93,1.7,2,2,0,0,1-2-1.3L432,9.5a1.12,1.12,0,0,0,1,.69c.4,0,.59-.17.59-.52,0-.91-2.48-.63-2.48-2.48,0-.92.7-1.63,1.94-1.63a1.87,1.87,0,0,1,1.9,1.32Z"/><path class="cls-2" d="M440.12,6.74H439V9.46a.58.58,0,0,0,.62.66,1.54,1.54,0,0,0,.42-.07l.11.91a2.35,2.35,0,0,1-1.07.25c-1.11,0-1.54-.63-1.54-1.81V6.82l-.62-.19v-1l.71,0L438,4.13h1V5.65h1.13Z"/><path class="cls-2" d="M443.82,8.64v.49c0,.67.29,1,.87,1s.69-.21.9-.71l1,.39a1.93,1.93,0,0,1-2.09,1.42,2,2,0,0,1-2.18-2V7.57a2.13,2.13,0,0,1,4.26.06v1Zm0-.84h1.5V7.47c0-.56-.27-.83-.75-.83s-.75.29-.75.84Z"/><path class="cls-2" d="M450.58,10.8h0v2.14h-1.48V5.65h1.31l0,.48h0a1.91,1.91,0,0,1,1.45-.57c1.08,0,1.69.79,1.69,2.13v1.4c0,1.3-.62,2.11-1.79,2.11A1.8,1.8,0,0,1,450.58,10.8Zm0-1.13a.92.92,0,0,0,.8.38c.5,0,.76-.27.76-1V7.72c0-.66-.24-1-.73-1a1,1,0,0,0-.83.4Z"/><path class="cls-2" d="M456,9.54h1.49v1.58H456Z"/><path class="cls-2" d="M464.43,11.12v-2h-4.74V7.66L464.28.15h2.14V7.38h1.17l-.15,1.75h-1v2Zm0-3.74.11-4.67h0l-2.58,4.67Z"/></svg>