<svg id="レイヤー_1" data-name="レイヤー 1" xmlns="http://www.w3.org/2000/svg" xmlns:xlink="http://www.w3.org/1999/xlink" viewBox="0 0 224.79 224.62"><defs><style>.cls-1{fill:none;}.cls-2{fill:#fff;}.cls-3{fill:#006c3b;}.cls-3,.cls-4,.cls-5,.cls-6,.cls-7{stroke:#fff;}.cls-3,.cls-4,.cls-7{stroke-miterlimit:10;}.cls-4{fill:#c9a063;}.cls-5{fill:#9c6a3a;}.cls-6{fill:#6cbb63;}.cls-7{fill:#b01f24;}.cls-8{opacity:0.25;fill:url(#新規パターンスウォッチ_8);}.cls-9{fill:#231815;}</style><pattern id="新規パターンスウォッチ_8" data-name="新規パターンスウォッチ 8" width="28.35" height="28.35" patternTransform="translate(25.19 22.41) scale(0.25 0.25)" patternUnits="userSpaceOnUse" viewBox="0 0 28.35 28.35"><rect class="cls-1" width="28.35" height="28.35"/><path class="cls-2" d="M19.84,14.17A5.67,5.67,0,1,1,14.17,8.5,5.67,5.67,0,0,1,19.84,14.17Z"/><path class="cls-2" d="M34,0a5.67,5.67,0,0,1-5.67,5.67A5.67,5.67,0,0,1,22.68,0,5.67,5.67,0,0,1,34,0Z"/><path class="cls-2" d="M5.67,0A5.67,5.67,0,0,1,0,5.67,5.67,5.67,0,0,1-5.67,0,5.67,5.67,0,0,1,0-5.67,5.67,5.67,0,0,1,5.67,0Z"/><path class="cls-2" d="M34,28.35a5.67,5.67,0,1,1-5.67-5.67A5.67,5.67,0,0,1,34,28.35Z"/><path class="cls-2" d="M5.67,28.35A5.67,5.67,0,0,1,0,34a5.67,5.67,0,0,1-5.67-5.67A5.67,5.67,0,0,1,0,22.68,5.67,5.67,0,0,1,5.67,28.35Z"/></pattern></defs><title>en01</title><g id="_01" data-name="01"><path class="cls-3" d="M112.1,112l76.17-81.76a111.86,111.86,0,0,1,5.52,158,108,108,0,0,1-47.17,30.08Z" transform="translate(0.5 0.29)"/><path class="cls-4" d="M112.1,112l34.52,106.32A111.66,111.66,0,0,1,5.88,146.55C-5.22,112.37-.57,79.28,19.51,49.48Z" transform="translate(0.5 0.29)"/><path class="cls-5" d="M112.1,112,19.51,49.48c18.18-27,44.86-43.66,77.05-48.19Z" transform="translate(0.5 0.29)"/><path class="cls-6" d="M112.1,112,96.56,1.29A109.2,109.2,0,0,1,112.1.21Z" transform="translate(0.5 0.29)"/><path class="cls-7" d="M112.1,112V.21c29.8,0,54.39,9.69,76.17,30Z" transform="translate(0.5 0.29)"/><path class="cls-2" d="M121,35.81a16.08,16.08,0,0,0-2.23.08,9,9,0,0,1,.45-2.21,8.57,8.57,0,0,1,2.36-3.38,23.82,23.82,0,0,1,2.85-2.09c1.59-1.09,2.07-1.66,2.07-2.54,0-1.17-.92-1.9-2.38-1.9a2.44,2.44,0,0,0-2.19,1,3.25,3.25,0,0,0-.54,1.59L119,26.09a5.15,5.15,0,0,1,1.19-2.76,5,5,0,0,1,3.95-1.54c3,0,4.88,1.45,4.88,3.81a3.52,3.52,0,0,1-1.23,2.77,21.53,21.53,0,0,1-2.89,2.12,14.44,14.44,0,0,0-2.06,1.73,4.2,4.2,0,0,0-1,1.55h4.83a17.49,17.49,0,0,0,2.52-.14v2.28c-.81-.07-1.5-.1-2.61-.1Z" transform="translate(0.5 0.29)"/><path class="cls-2" d="M132.66,34.69a4.81,4.81,0,0,1-1.14-1.75,11.49,11.49,0,0,1-.67-4,10.13,10.13,0,0,1,1.05-4.78,4.89,4.89,0,0,1,4.4-2.4,5,5,0,0,1,3.64,1.4,4.87,4.87,0,0,1,1.13,1.74,11.6,11.6,0,0,1,.68,4,9.1,9.1,0,0,1-1.28,5.11,4.9,4.9,0,0,1-4.19,2A5,5,0,0,1,132.66,34.69Zm5.5-1.33c.78-.82,1.21-2.42,1.21-4.44a6.67,6.67,0,0,0-1.21-4.42,2.47,2.47,0,0,0-1.88-.73,2.32,2.32,0,0,0-1.93.88,6.46,6.46,0,0,0-1.14,4.2,7.82,7.82,0,0,0,.88,4.11,2.75,2.75,0,0,0,4.07.4Z" transform="translate(0.5 0.29)"/><path class="cls-2" d="M145.37,30.23c0-.88,0-1.33.06-2a12.39,12.39,0,0,1-1.76,2.15,7.08,7.08,0,0,0-.92-2,15,15,0,0,0,3.47-5.13,10.32,10.32,0,0,0,.67-2.26l2,.67a29,29,0,0,1-1.61,3.68v9.56a14.15,14.15,0,0,0,.13,2.09h-2.13a13.21,13.21,0,0,0,.12-2.12Zm8.09-2.71a13.75,13.75,0,0,0,1.76,5.32c.59,1,1.38,1.83,1.69,1.83s.57-.85.75-2.9a7.34,7.34,0,0,0,1.63,1.12c-.39,3-1,4.06-2.22,4.06a3.76,3.76,0,0,1-2.64-1.76,15.07,15.07,0,0,1-2.9-7.51l-1.83.15A11.53,11.53,0,0,0,148,28l0-1.94.53,0c.33,0,.88,0,1.31-.07l1.57-.12c-.12-1.38-.12-1.55-.15-3.28,0-.34-.05-1-.09-1.28l2.09,0a6.46,6.46,0,0,0-.09,1.29,29.49,29.49,0,0,0,.17,3.13l3.7-.29a13,13,0,0,0,1.88-.25l.05,2-.5,0c-.28,0-.71,0-1.28.07Zm1.82-6.2A24,24,0,0,1,157.91,24l-1.43,1.31a9.42,9.42,0,0,0-1.26-1.52,17.45,17.45,0,0,0-1.29-1.33Z" transform="translate(0.5 0.29)"/><path class="cls-2" d="M119.34,45a11.57,11.57,0,0,0,2.07.12h2.19a16.84,16.84,0,0,0,2.14-.07c-.08.92-.12,1.64-.12,2.78v9.05a20.49,20.49,0,0,0,.14,2.6H122a20.28,20.28,0,0,0,.14-2.6V48h-.69a19.91,19.91,0,0,0-2.11.12Z" transform="translate(0.5 0.29)"/><path class="cls-2" d="M133.61,59.45c-1.55,0-1.94,0-2.58.07a8.47,8.47,0,0,1,.36-2,8.9,8.9,0,0,1,2.48-3.87,23.7,23.7,0,0,1,3.07-2.3c1.49-1,1.85-1.45,1.85-2.24s-.74-1.38-1.85-1.38a2,2,0,0,0-1.79.86,3,3,0,0,0-.43,1.45l-3.62-.38a5.55,5.55,0,0,1,1.26-3.07,5.74,5.74,0,0,1,4.57-1.78c2.33,0,4.1.78,5,2.17a3.74,3.74,0,0,1,.57,2,4,4,0,0,1-1.58,3.22,23.91,23.91,0,0,1-2.5,1.84,7.06,7.06,0,0,0-2.54,2.4h4a21.19,21.19,0,0,0,2.76-.12v3.26c-1-.08-1.73-.12-3-.12Z" transform="translate(0.5 0.29)"/><path class="cls-2" d="M145.16,51.89a4.17,4.17,0,0,1-1-3,4.2,4.2,0,0,1,1.06-3.05,3.72,3.72,0,0,1,2.67-1,3.67,3.67,0,0,1,2.67,1,4.15,4.15,0,0,1,1,3,4.16,4.16,0,0,1-1.05,3.07,4.11,4.11,0,0,1-5.35,0Zm12.11-7.25.91.69L146.94,59.94l-.9-.69Zm-10.75,4.2c0,1.45.45,2.21,1.33,2.21s1.31-.75,1.31-2.21-.45-2.16-1.31-2.16S146.52,47.42,146.52,48.84Zm7.18,9.91a5,5,0,0,1,0-6.1,3.73,3.73,0,0,1,2.69-1c2.34,0,3.7,1.48,3.7,4a4.18,4.18,0,0,1-1.05,3.07,3.71,3.71,0,0,1-2.67,1A3.77,3.77,0,0,1,153.7,58.75Zm1.36-3.09c0,1.48.45,2.24,1.33,2.24s1.33-.74,1.33-2.24-.45-2.13-1.31-2.13S155.06,54.26,155.06,55.66Z" transform="translate(0.5 0.29)"/><path class="cls-2" d="M154.33,110.57a2.31,2.31,0,0,0,.81,1.42,3.25,3.25,0,0,0,2.09.67c1.71,0,2.79-.88,2.79-2.24a2,2,0,0,0-1-1.82,4.54,4.54,0,0,0-2-.41,16.85,16.85,0,0,0-1.84.08v-2.14a11.57,11.57,0,0,0,1.67.09c1.73,0,2.74-.79,2.74-2.12s-.81-1.87-2.27-1.87a2.83,2.83,0,0,0-1.88.54,2.49,2.49,0,0,0-.73,1.33l-2.46-.42a4.25,4.25,0,0,1,1.64-2.47,5.57,5.57,0,0,1,3.38-.95c2.88,0,4.74,1.45,4.74,3.7a3.18,3.18,0,0,1-1.19,2.54,4.3,4.3,0,0,1-1.67.67,3.59,3.59,0,0,1,2.46,1.16,3.31,3.31,0,0,1,.83,2.38,3.7,3.7,0,0,1-1,2.52,6,6,0,0,1-4.25,1.4,5.38,5.38,0,0,1-4.38-1.64,4.59,4.59,0,0,1-1-1.94Z" transform="translate(0.5 0.29)"/><path class="cls-2" d="M166,113.2a4.81,4.81,0,0,1-1.14-1.75,11.5,11.5,0,0,1-.68-4,10.13,10.13,0,0,1,1.06-4.78,4.88,4.88,0,0,1,4.39-2.4,5,5,0,0,1,3.64,1.4,4.69,4.69,0,0,1,1.14,1.74,11.6,11.6,0,0,1,.68,4,9.1,9.1,0,0,1-1.28,5.11,4.91,4.91,0,0,1-4.19,2A5,5,0,0,1,166,113.2Zm5.5-1.33a6.72,6.72,0,0,0,1.21-4.44,6.73,6.73,0,0,0-1.21-4.42,2.5,2.5,0,0,0-1.88-.73,2.32,2.32,0,0,0-1.93.88,6.46,6.46,0,0,0-1.14,4.2,7.82,7.82,0,0,0,.88,4.11,2.75,2.75,0,0,0,4.07.4Z" transform="translate(0.5 0.29)"/><path class="cls-2" d="M178.66,108.74c0-.88,0-1.33.05-2a12.34,12.34,0,0,1-1.75,2.15,6.81,6.81,0,0,0-.92-2,15,15,0,0,0,3.47-5.13,10.91,10.91,0,0,0,.67-2.26l2,.67a29,29,0,0,1-1.61,3.68v9.56a15.83,15.83,0,0,0,.12,2.09h-2.12a13.21,13.21,0,0,0,.12-2.12Zm8.09-2.71a13.81,13.81,0,0,0,1.76,5.32c.59,1,1.38,1.83,1.69,1.83s.57-.85.74-2.9a7.37,7.37,0,0,0,1.64,1.12c-.39,2.95-1,4.06-2.22,4.06a3.76,3.76,0,0,1-2.64-1.76,15.07,15.07,0,0,1-2.9-7.51l-1.83.15a11.36,11.36,0,0,0-1.72.21l-.05-1.94.53,0c.33,0,.88,0,1.31-.07l1.57-.12c-.12-1.38-.12-1.55-.15-3.28,0-.34-.06-1-.09-1.28l2.09,0a6.46,6.46,0,0,0-.09,1.29,29.49,29.49,0,0,0,.17,3.13l3.69-.29a12.61,12.61,0,0,0,1.88-.25l.06,2h-.5a12.07,12.07,0,0,0-1.28.07Zm1.81-6.2a23.93,23.93,0,0,1,2.64,2.68l-1.43,1.31a10,10,0,0,0-1.26-1.52,17.45,17.45,0,0,0-1.29-1.33Z" transform="translate(0.5 0.29)"/><path class="cls-2" d="M154.43,133.58a1.76,1.76,0,0,0,.48,1.1,2.64,2.64,0,0,0,2,.75c1.35,0,2.19-.68,2.19-1.73a1.5,1.5,0,0,0-.93-1.49,5.17,5.17,0,0,0-1.6-.22c-.68,0-1.45,0-2.12.1v-3a14.71,14.71,0,0,0,1.82.11c1.64,0,2.45-.56,2.45-1.66,0-.93-.65-1.47-1.79-1.47a1.85,1.85,0,0,0-2.1,1.59l-3.73-.53a4.92,4.92,0,0,1,1.16-2.2,6.14,6.14,0,0,1,4.74-1.72,6.25,6.25,0,0,1,4.41,1.46,3.35,3.35,0,0,1,1,2.46c0,1.83-1,3-3,3.43a3.88,3.88,0,0,1,2.23.92,3.4,3.4,0,0,1,1.14,2.55,3.87,3.87,0,0,1-.69,2.3,4.32,4.32,0,0,1-1.62,1.29,9.23,9.23,0,0,1-3.59.68,7.85,7.85,0,0,1-4-1,4.72,4.72,0,0,1-1.78-2.23,6.63,6.63,0,0,1-.29-.91Z" transform="translate(0.5 0.29)"/><path class="cls-2" d="M167.77,133.58a1.76,1.76,0,0,0,.48,1.1,2.64,2.64,0,0,0,2,.75c1.35,0,2.19-.68,2.19-1.73a1.5,1.5,0,0,0-.93-1.49,5.21,5.21,0,0,0-1.6-.22c-.68,0-1.45,0-2.12.1v-3a14.71,14.71,0,0,0,1.82.11c1.64,0,2.45-.56,2.45-1.66,0-.93-.65-1.47-1.79-1.47a1.86,1.86,0,0,0-2.11,1.59l-3.72-.53a5,5,0,0,1,1.15-2.2,6.18,6.18,0,0,1,4.75-1.72,6.25,6.25,0,0,1,4.41,1.46,3.35,3.35,0,0,1,1,2.46c0,1.83-1,3-3,3.43a3.91,3.91,0,0,1,2.23.92,3.4,3.4,0,0,1,1.14,2.55,3.87,3.87,0,0,1-.69,2.3,4.32,4.32,0,0,1-1.62,1.29,9.23,9.23,0,0,1-3.59.68,7.83,7.83,0,0,1-4-1,4.66,4.66,0,0,1-1.78-2.23,6.63,6.63,0,0,1-.29-.91Z" transform="translate(0.5 0.29)"/><path class="cls-2" d="M178.45,130.4a4.94,4.94,0,0,1,0-6.09,4.1,4.1,0,0,1,5.34,0,4.15,4.15,0,0,1,1,3,4.21,4.21,0,0,1-1,3.07,4.11,4.11,0,0,1-5.35,0Zm12.11-7.25.91.69-11.25,14.61-.89-.69Zm-10.75,4.2c0,1.45.45,2.21,1.33,2.21s1.31-.75,1.31-2.21-.45-2.16-1.31-2.16S179.81,125.93,179.81,127.35Zm7.18,9.91a5,5,0,0,1,0-6.1,3.77,3.77,0,0,1,2.69-1c2.35,0,3.71,1.48,3.71,4a4.18,4.18,0,0,1-1.05,3.07,3.72,3.72,0,0,1-2.67,1A3.77,3.77,0,0,1,187,137.26Zm1.36-3.09c0,1.48.45,2.24,1.33,2.24s1.33-.74,1.33-2.24-.45-2.13-1.32-2.13S188.35,132.77,188.35,134.17Z" transform="translate(0.5 0.29)"/><ellipse class="cls-8" cx="112.1" cy="112" rx="111.9" ry="112" transform="translate(0.36 0.43) rotate(-0.07)"/><path class="cls-9" d="M56.76,134.4a15.16,15.16,0,0,0-1.73-.12h-.62v1.23a11.07,11.07,0,0,0,.14,2H52.1a11.41,11.41,0,0,0,.14-2v-1.19H47.46c-1,0-1.57,0-2.16.07v-2.12c.59-.64.78-.86,1.38-1.59l4.09-5a14.54,14.54,0,0,0,1.43-1.9h2.33a25.24,25.24,0,0,0-.12,2.92v5.66H55a10.89,10.89,0,0,0,1.74-.12Zm-4.5-5.64a19.26,19.26,0,0,1,.08-2.07,18.78,18.78,0,0,1-1.17,1.53l-3.31,4.11h4.4Z" transform="translate(0.5 0.29)"/><path class="cls-9" d="M59.68,136.36a4.81,4.81,0,0,1-1.14-1.75,11.49,11.49,0,0,1-.67-4,10.13,10.13,0,0,1,1.05-4.78,4.89,4.89,0,0,1,4.4-2.4,5,5,0,0,1,3.64,1.4,5,5,0,0,1,1.14,1.74,11.84,11.84,0,0,1,.67,4,9.1,9.1,0,0,1-1.28,5.11,4.9,4.9,0,0,1-4.19,2A5,5,0,0,1,59.68,136.36Zm5.5-1.33c.78-.82,1.21-2.42,1.21-4.44a6.67,6.67,0,0,0-1.21-4.42,2.47,2.47,0,0,0-1.88-.73,2.32,2.32,0,0,0-1.93.88,6.46,6.46,0,0,0-1.14,4.2,7.82,7.82,0,0,0,.88,4.11,2.75,2.75,0,0,0,4.07.4Z" transform="translate(0.5 0.29)"/><path class="cls-9" d="M72.4,131.9c0-.88,0-1.33,0-2a12,12,0,0,1-1.76,2.15,6.81,6.81,0,0,0-.92-2A15,15,0,0,0,73.24,125a9.8,9.8,0,0,0,.67-2.26l2,.67a27.62,27.62,0,0,1-1.6,3.68v9.56a14.28,14.28,0,0,0,.12,2.09H72.27a13,13,0,0,0,.13-2.12Zm8.09-2.71a13.81,13.81,0,0,0,1.75,5.32c.59,1,1.38,1.83,1.7,1.83s.56-.85.74-2.9a7.15,7.15,0,0,0,1.64,1.12c-.4,2.95-1,4.06-2.23,4.06-.83,0-1.72-.61-2.64-1.76a15.11,15.11,0,0,1-2.9-7.51l-1.82.15a11.51,11.51,0,0,0-1.73.21l0-1.94.53,0c.33,0,.88,0,1.31-.07l1.57-.12c-.12-1.38-.12-1.55-.15-3.28,0-.34,0-1-.09-1.28l2.09,0a6.46,6.46,0,0,0-.09,1.29,27.32,27.32,0,0,0,.18,3.13l3.69-.29a13,13,0,0,0,1.88-.25l0,2h-.5a12.07,12.07,0,0,0-1.28.07ZM82.3,123a24.84,24.84,0,0,1,2.64,2.68L83.5,127a9.42,9.42,0,0,0-1.26-1.52A17.45,17.45,0,0,0,81,124.13Z" transform="translate(0.5 0.29)"/><path class="cls-9" d="M44.24,155.1c.78-.87.78-.87,1.66-1.9l3.74-4.39a17.7,17.7,0,0,0,1.61-2.05h3.53a25.72,25.72,0,0,0-.14,2.86v5.62h.5a13.11,13.11,0,0,0,1.71-.14v3.14a13.46,13.46,0,0,0-1.69-.1h-.52V159a12.32,12.32,0,0,0,.14,2.12H51.23a14.41,14.41,0,0,0,.14-2.15v-.85H46.49c-1.13,0-1.61,0-2.25.07Zm7.14-1.83c0-.78,0-1.73.11-2.49-.35.49-.61.83-1.07,1.42l-2.52,3.07h3.48Z" transform="translate(0.5 0.29)"/><path class="cls-9" d="M59.72,159.83a5.47,5.47,0,0,1-1.26-1.92,11.38,11.38,0,0,1-.67-3.95,10,10,0,0,1,1.09-4.78,5.59,5.59,0,0,1,5-2.73,5.9,5.9,0,0,1,4.19,1.6A5.47,5.47,0,0,1,69.35,150a11.73,11.73,0,0,1,.67,4,10.14,10.14,0,0,1-1.09,4.8,5.62,5.62,0,0,1-5,2.69A5.74,5.74,0,0,1,59.72,159.83Zm1.61-6c0,3.09.88,4.68,2.58,4.68s2.56-1.55,2.56-4.63-.9-4.5-2.57-4.5S61.33,151,61.33,153.82Z" transform="translate(0.5 0.29)"/><path class="cls-9" d="M72.18,153.56a5,5,0,0,1,0-6.09,4.11,4.11,0,0,1,5.35,0,5,5,0,0,1,0,6.11,4.11,4.11,0,0,1-5.35,0Zm12.11-7.25.91.69L74,161.61l-.9-.69Zm-10.75,4.2c0,1.45.45,2.21,1.33,2.21s1.31-.75,1.31-2.21-.45-2.16-1.31-2.16S73.54,149.09,73.54,150.51Zm7.18,9.91a5,5,0,0,1,0-6.1,3.73,3.73,0,0,1,2.69-1c2.34,0,3.71,1.48,3.71,4a4.18,4.18,0,0,1-1.06,3.07,3.69,3.69,0,0,1-2.67,1A3.77,3.77,0,0,1,80.72,160.42Zm1.36-3.09c0,1.48.45,2.24,1.33,2.24s1.33-.74,1.33-2.24-.45-2.13-1.31-2.13S82.08,155.93,82.08,157.33Z" transform="translate(0.5 0.29)"/><path class="cls-9" d="M51.21,32.45a2,2,0,0,0,.43.84,2.17,2.17,0,0,0,1.77.73,2.23,2.23,0,0,0,2.36-2.37,2.15,2.15,0,0,0-2.26-2.32,2.52,2.52,0,0,0-1.78.66,1.64,1.64,0,0,0-.43.65l-1.8-.17c.14-1,.16-1.1.18-1.5L50,25.4c0-.26,0-.75,0-1.47.44,0,.77,0,1.53,0h3.54a11.13,11.13,0,0,0,2-.11v1.81a15,15,0,0,0-2-.11H51.77l-.23,2.52q0,.17-.09.6a3.57,3.57,0,0,1,2.46-.88,3.72,3.72,0,0,1,2.81,1.08,3.57,3.57,0,0,1,1,2.71c0,2.53-1.65,4.1-4.33,4.1a4.21,4.21,0,0,1-3.28-1.25,4.27,4.27,0,0,1-.91-1.57Z" transform="translate(0.5 0.29)"/><path class="cls-9" d="M60.7,34.5a4.09,4.09,0,0,1-1-1.46,9.71,9.71,0,0,1-.56-3.31,8.54,8.54,0,0,1,.88-4,4.09,4.09,0,0,1,3.67-2,4.18,4.18,0,0,1,3,1.17,4.05,4.05,0,0,1,1,1.45,9.8,9.8,0,0,1,.56,3.34A7.6,7.6,0,0,1,67.22,34a4.07,4.07,0,0,1-3.5,1.7A4.15,4.15,0,0,1,60.7,34.5Zm4.59-1.11a5.55,5.55,0,0,0,1-3.7,5.59,5.59,0,0,0-1-3.69,2.08,2.08,0,0,0-1.57-.6,1.94,1.94,0,0,0-1.61.73,5.4,5.4,0,0,0-1,3.5,6.5,6.5,0,0,0,.73,3.43,2.12,2.12,0,0,0,1.85.93A2.08,2.08,0,0,0,65.29,33.39Z" transform="translate(0.5 0.29)"/><path class="cls-9" d="M71.3,30.78c0-.73,0-1.11,0-1.65a10,10,0,0,1-1.47,1.8,5.64,5.64,0,0,0-.76-1.66A12.34,12.34,0,0,0,72,25a8.5,8.5,0,0,0,.56-1.89l1.64.56a23.49,23.49,0,0,1-1.33,3.07v8a12.82,12.82,0,0,0,.1,1.75H71.2a11.87,11.87,0,0,0,.1-1.78ZM78,28.52A11.53,11.53,0,0,0,79.51,33c.49.8,1.15,1.52,1.41,1.52s.48-.7.62-2.42a5.9,5.9,0,0,0,1.37.94c-.33,2.46-.84,3.38-1.86,3.38a3.12,3.12,0,0,1-2.2-1.46,12.62,12.62,0,0,1-2.42-6.27l-1.52.13a11.44,11.44,0,0,0-1.44.17l0-1.61.44,0c.28,0,.74,0,1.1-.06l1.31-.1a24.07,24.07,0,0,1-.13-2.74c0-.29-.05-.82-.08-1.06l1.74,0a6.19,6.19,0,0,0-.07,1.08,21.9,21.9,0,0,0,.15,2.6L81,26.81a12,12,0,0,0,1.57-.2l0,1.62h-.42a10.33,10.33,0,0,0-1.07.06Zm1.52-5.17a21.41,21.41,0,0,1,2.2,2.24l-1.2,1.09a8.28,8.28,0,0,0-1-1.27,13.26,13.26,0,0,0-1.08-1.11Z" transform="translate(0.5 0.29)"/><path class="cls-9" d="M49.61,43.06a9,9,0,0,0,1.72.1h1.83a13.59,13.59,0,0,0,1.78-.06,23.08,23.08,0,0,0-.1,2.32V53A16,16,0,0,0,55,55.14H51.82A15.83,15.83,0,0,0,51.94,53V45.62h-.58a15.54,15.54,0,0,0-1.75.1Z" transform="translate(0.5 0.29)"/><path class="cls-9" d="M62.22,51.48a1.46,1.46,0,0,0,.4.92,2.21,2.21,0,0,0,1.66.62c1.12,0,1.82-.56,1.82-1.44a1.26,1.26,0,0,0-.77-1.24A4.38,4.38,0,0,0,64,50.16c-.56,0-1.21,0-1.77.08V47.77a14.4,14.4,0,0,0,1.52.08c1.37,0,2.05-.46,2.05-1.38s-.55-1.22-1.5-1.22a1.55,1.55,0,0,0-1.76,1.32l-3.1-.44a4.05,4.05,0,0,1,1-1.83,5.15,5.15,0,0,1,4-1.44A5.23,5.23,0,0,1,68,44.08a2.81,2.81,0,0,1,.81,2.05A2.77,2.77,0,0,1,66.36,49a3.28,3.28,0,0,1,1.86.76,2.86,2.86,0,0,1,1,2.13,3.24,3.24,0,0,1-.58,1.92,3.62,3.62,0,0,1-1.35,1.08,7.67,7.67,0,0,1-3,.56,6.53,6.53,0,0,1-3.35-.8,3.94,3.94,0,0,1-1.49-1.86,6.13,6.13,0,0,1-.24-.77Z" transform="translate(0.5 0.29)"/><path class="cls-9" d="M71.12,48.83a3.47,3.47,0,0,1-.86-2.53,3.53,3.53,0,0,1,.87-2.55,3.15,3.15,0,0,1,2.23-.82,3.09,3.09,0,0,1,2.23.82,3.45,3.45,0,0,1,.87,2.53,3.5,3.5,0,0,1-.88,2.57,3.41,3.41,0,0,1-4.46,0Zm10.1-6,.76.57L72.6,55.54,71.85,55Zm-9,3.49c0,1.21.37,1.85,1.1,1.85s1.1-.62,1.1-1.85-.38-1.8-1.1-1.8S72.26,45.1,72.26,46.28Zm6,8.27a4.16,4.16,0,0,1,0-5.08,3.13,3.13,0,0,1,2.25-.82c2,0,3.09,1.23,3.09,3.35a3.47,3.47,0,0,1-.88,2.56,3.06,3.06,0,0,1-2.23.82A3.12,3.12,0,0,1,78.24,54.55ZM79.38,52c0,1.24.37,1.87,1.1,1.87s1.11-.62,1.11-1.87-.37-1.77-1.09-1.77S79.38,50.81,79.38,52Z" transform="translate(0.5 0.29)"/><path class="cls-9" d="M95.39,11.46a1.52,1.52,0,0,0-1.61-1.21A2,2,0,0,0,91.9,11.5a5.26,5.26,0,0,0-.49,2.12A2.77,2.77,0,0,1,94,12.42a3.1,3.1,0,0,1,2.78,1.43,3.39,3.39,0,0,1,.43,1.79,3.22,3.22,0,0,1-3.47,3.24,3.79,3.79,0,0,1-2.43-.79,5.26,5.26,0,0,1-1.39-4,6.52,6.52,0,0,1,1-3.7,3.41,3.41,0,0,1,2.92-1.43,3.31,3.31,0,0,1,2.46.91A3.47,3.47,0,0,1,97,11.08Zm-3.74,4.18a2,2,0,0,0,3.67,1.06,2.14,2.14,0,0,0,.27-1.09,1.73,1.73,0,0,0-1.89-1.88A1.93,1.93,0,0,0,91.65,15.64Z" transform="translate(0.5 0.29)"/><path class="cls-9" d="M99.51,17.89a3.42,3.42,0,0,1-.79-1.21,8.12,8.12,0,0,1-.47-2.76A7.1,7.1,0,0,1,99,10.6,3.42,3.42,0,0,1,102,8.93a3.51,3.51,0,0,1,2.53,1,3.42,3.42,0,0,1,.79,1.21,8.11,8.11,0,0,1,.46,2.78,6.32,6.32,0,0,1-.88,3.55A3.4,3.4,0,0,1,102,18.86,3.49,3.49,0,0,1,99.51,17.89Zm3.82-.93a4.61,4.61,0,0,0,.84-3.08,4.66,4.66,0,0,0-.84-3.07,1.73,1.73,0,0,0-1.3-.5,1.59,1.59,0,0,0-1.34.61,4.45,4.45,0,0,0-.8,2.91,5.34,5.34,0,0,0,.62,2.86,1.76,1.76,0,0,0,1.53.78A1.71,1.71,0,0,0,103.33,17Z" transform="translate(0.5 0.29)"/><path class="cls-9" d="M108.34,14.79c0-.61,0-.92,0-1.38a8.23,8.23,0,0,1-1.22,1.5,4.83,4.83,0,0,0-.64-1.38A10.35,10.35,0,0,0,108.93,10a7,7,0,0,0,.47-1.57l1.36.47a18.87,18.87,0,0,1-1.11,2.55v6.65a10.45,10.45,0,0,0,.08,1.45h-1.47a9.75,9.75,0,0,0,.08-1.48ZM114,12.91a9.47,9.47,0,0,0,1.22,3.69c.41.67,1,1.27,1.18,1.27s.39-.58.51-2a4.74,4.74,0,0,0,1.14.78c-.28,2.05-.7,2.82-1.55,2.82a2.61,2.61,0,0,1-1.83-1.23,10.45,10.45,0,0,1-2-5.21l-1.27.11a8.28,8.28,0,0,0-1.2.14l0-1.34h.37c.22,0,.61,0,.91,0l1.09-.08a21.2,21.2,0,0,1-.11-2.28c0-.24,0-.68-.06-.89l1.45,0a4.42,4.42,0,0,0-.06.9,18.17,18.17,0,0,0,.12,2.17l2.56-.21a10.15,10.15,0,0,0,1.31-.16l0,1.35h-.34a8.82,8.82,0,0,0-.89.05Zm1.26-4.3a17,17,0,0,1,1.83,1.86l-1,.91a7.25,7.25,0,0,0-.88-1.06,10,10,0,0,0-.9-.92Z" transform="translate(0.5 0.29)"/><path class="cls-9" d="M95.54,35.09c-1.07,0-1.35,0-1.79,0A6.34,6.34,0,0,1,94,33.72,6.21,6.21,0,0,1,95.72,31a17.16,17.16,0,0,1,2.14-1.59c1-.7,1.28-1,1.28-1.56s-.52-1-1.28-1a1.35,1.35,0,0,0-1.25.6,2.16,2.16,0,0,0-.3,1l-2.51-.26a3.89,3.89,0,0,1,.87-2.14,4,4,0,0,1,3.17-1.23,3.85,3.85,0,0,1,3.45,1.51,2.52,2.52,0,0,1,.4,1.4,2.79,2.79,0,0,1-1.1,2.23,16.66,16.66,0,0,1-1.74,1.28A5,5,0,0,0,97.09,33h2.79a15,15,0,0,0,1.92-.09v2.27c-.7-.06-1.2-.08-2-.08Z" transform="translate(0.5 0.29)"/><path class="cls-9" d="M103.56,29.84a2.94,2.94,0,0,1-.72-2.11,3,3,0,0,1,.73-2.13,2.64,2.64,0,0,1,1.86-.68,2.59,2.59,0,0,1,1.86.68,2.89,2.89,0,0,1,.72,2.11,2.94,2.94,0,0,1-.73,2.14,2.87,2.87,0,0,1-3.72,0Zm8.41-5,.63.48-7.8,10.14-.63-.48Zm-7.46,2.91c0,1,.31,1.54.92,1.54s.91-.52.91-1.54-.31-1.49-.91-1.49S104.51,26.73,104.51,27.71Zm5,6.88a2.87,2.87,0,0,1-.72-2.12,2.91,2.91,0,0,1,.73-2.11,2.63,2.63,0,0,1,1.87-.68c1.63,0,2.58,1,2.58,2.79a3,3,0,0,1-.73,2.14,2.62,2.62,0,0,1-1.86.68A2.59,2.59,0,0,1,109.49,34.59Zm1-2.14c0,1,.31,1.56.92,1.56s.92-.52.92-1.56S112,31,111.37,31,110.44,31.48,110.44,32.45Z" transform="translate(0.5 0.29)"/></g></svg>