<svg id="レイヤー_1" data-name="レイヤー 1" xmlns="http://www.w3.org/2000/svg" xmlns:xlink="http://www.w3.org/1999/xlink" viewBox="0 0 224.96 224.92"><defs><style>.cls-1{fill:none;}.cls-2{fill:#fff;}.cls-3{fill:#9c6a3a;}.cls-3,.cls-4,.cls-5,.cls-6{stroke:#fff;}.cls-4{fill:#c9a063;}.cls-4,.cls-5,.cls-6{stroke-miterlimit:10;}.cls-5{fill:#006c3b;}.cls-6{fill:#b01f24;}.cls-7{opacity:0.25;fill:url(#新規パターンスウォッチ_8);}.cls-8{fill:#231815;}</style><pattern id="新規パターンスウォッチ_8" data-name="新規パターンスウォッチ 8" width="28.35" height="28.35" patternTransform="translate(19.41 22.41) scale(0.25 0.25)" patternUnits="userSpaceOnUse" viewBox="0 0 28.35 28.35"><rect class="cls-1" width="28.35" height="28.35"/><path class="cls-2" d="M19.84,14.17A5.67,5.67,0,1,1,14.17,8.5,5.67,5.67,0,0,1,19.84,14.17Z"/><path class="cls-2" d="M34,0a5.67,5.67,0,0,1-5.67,5.67A5.67,5.67,0,0,1,22.68,0,5.67,5.67,0,0,1,34,0Z"/><path class="cls-2" d="M5.67,0A5.67,5.67,0,0,1,0,5.67,5.67,5.67,0,0,1-5.67,0,5.67,5.67,0,0,1,0-5.67,5.67,5.67,0,0,1,5.67,0Z"/><path class="cls-2" d="M34,28.35a5.67,5.67,0,1,1-5.67-5.67A5.67,5.67,0,0,1,34,28.35Z"/><path class="cls-2" d="M5.67,28.35A5.67,5.67,0,0,1,0,34a5.67,5.67,0,0,1-5.67-5.67A5.67,5.67,0,0,1,0,22.68,5.67,5.67,0,0,1,5.67,28.35Z"/></pattern></defs><title>en02</title><g id="_02" data-name="02"><path class="cls-3" d="M112,112l-61-93.9A108.93,108.93,0,0,1,112,.05Z" transform="translate(0.5 0.45)"/><path class="cls-4" d="M112,112,1.17,127.6C-5,83.51,13.72,42.36,51.05,18.12Z" transform="translate(0.5 0.45)"/><path class="cls-5" d="M112,112l111.79,5.86A112,112,0,0,1,106.16,223.82C51.83,221,8.74,181.48,1.17,127.6Z" transform="translate(0.5 0.45)"/><path class="cls-6" d="M112,112V.05A112,112,0,0,1,224,112c0,2.47,0,3.39-.15,5.86Z" transform="translate(0.5 0.45)"/><path class="cls-2" d="M147.43,61.41a14.88,14.88,0,0,0,.14-2.25V49.65h-.83a15.17,15.17,0,0,0-1.78.1V47.56a9.39,9.39,0,0,0,1.73.1h1.59a12.52,12.52,0,0,0,1.76-.08,24.4,24.4,0,0,0-.14,2.85v8.73a13.75,13.75,0,0,0,.14,2.25Z" transform="translate(0.5 0.45)"/><path class="cls-2" d="M164.3,46.92a11.33,11.33,0,0,0-.12,1.78,12.4,12.4,0,0,0,1.69,6.8,11.52,11.52,0,0,0,2.73,3.28,11.83,11.83,0,0,0,2.67,1.87,6.35,6.35,0,0,0-1.34,1.91,16.92,16.92,0,0,1-4.39-4.07,13.58,13.58,0,0,1-2.29-4.72,12.25,12.25,0,0,1-1.35,3.49,12.07,12.07,0,0,1-2.66,3.32,14,14,0,0,1-2.67,2,5.35,5.35,0,0,0-1.35-1.78A11.43,11.43,0,0,0,159,57.9c2.23-2.55,3.16-5.39,3.16-9.53a10,10,0,0,0-.07-1.45Z" transform="translate(0.5 0.45)"/><path class="cls-2" d="M138.56,85.05c-1.55,0-1.95,0-2.59.07a8.53,8.53,0,0,1,.37-2,8.84,8.84,0,0,1,2.48-3.86,23.3,23.3,0,0,1,3.08-2.3c1.48-1,1.84-1.45,1.84-2.24s-.74-1.39-1.84-1.39a2,2,0,0,0-1.8.87,3,3,0,0,0-.43,1.45L136,75.23a5.7,5.7,0,0,1,1.26-3.08,5.8,5.8,0,0,1,4.58-1.77c2.33,0,4.11.77,5,2.17a3.74,3.74,0,0,1,.57,2,4,4,0,0,1-1.59,3.21,23.67,23.67,0,0,1-2.5,1.85,7.15,7.15,0,0,0-2.54,2.4h4a21.09,21.09,0,0,0,2.76-.12v3.26c-1-.08-1.72-.12-2.95-.12Z" transform="translate(0.5 0.45)"/><path class="cls-2" d="M157.45,74.54a1.8,1.8,0,0,0-1.95-1.44,2.41,2.41,0,0,0-2.31,1.49,5.75,5.75,0,0,0-.5,2.14,3.17,3.17,0,0,1,1.09-.78,5.23,5.23,0,0,1,2.29-.45c3.13,0,5.1,1.87,5.1,4.84s-2.35,5.07-5.75,5.07a5.57,5.57,0,0,1-4.32-1.74,8.15,8.15,0,0,1-1.76-5.56,9.77,9.77,0,0,1,1.43-5.44,5.6,5.6,0,0,1,4.87-2.31,5.41,5.41,0,0,1,4,1.52,5.46,5.46,0,0,1,1.16,1.93ZM153,80.42a2.43,2.43,0,0,0,4.85,0,2.09,2.09,0,0,0-2.38-2.14A2.19,2.19,0,0,0,153,80.42Z" transform="translate(0.5 0.45)"/><path class="cls-2" d="M163.47,77.49a5,5,0,0,1,0-6.09,3.76,3.76,0,0,1,2.68-1,3.71,3.71,0,0,1,2.68,1,4.14,4.14,0,0,1,1,3,4.19,4.19,0,0,1-1.05,3.08,4.11,4.11,0,0,1-5.35,0Zm12.11-7.25.92.69L165.24,85.54l-.89-.7Zm-10.75,4.19c0,1.45.45,2.21,1.33,2.21s1.31-.74,1.31-2.21-.45-2.15-1.31-2.15S164.83,73,164.83,74.43ZM172,84.34a5,5,0,0,1,0-6.09,3.75,3.75,0,0,1,2.69-1c2.35,0,3.71,1.48,3.71,4a4.18,4.18,0,0,1-1.05,3.07,4.1,4.1,0,0,1-5.37,0Zm1.37-3.09c0,1.49.44,2.25,1.32,2.25s1.33-.74,1.33-2.25-.45-2.12-1.31-2.12S173.38,79.86,173.38,81.25Z" transform="translate(0.5 0.45)"/><path class="cls-2" d="M106.49,163.68a15.55,15.55,0,0,0-2.23.09,8.36,8.36,0,0,1,.45-2.21,8.5,8.5,0,0,1,2.36-3.38,23.55,23.55,0,0,1,2.85-2.09c1.59-1.09,2.07-1.66,2.07-2.54,0-1.18-.91-1.9-2.38-1.9a2.42,2.42,0,0,0-2.19,1,3.38,3.38,0,0,0-.54,1.59l-2.46-.3a5.15,5.15,0,0,1,1.19-2.76,5,5,0,0,1,4-1.54c3,0,4.89,1.45,4.89,3.82a3.48,3.48,0,0,1-1.23,2.76,21.07,21.07,0,0,1-2.9,2.12,15.73,15.73,0,0,0-2,1.73,4.14,4.14,0,0,0-1,1.56h4.83a19,19,0,0,0,2.52-.14v2.28c-.81-.07-1.5-.11-2.6-.11Z" transform="translate(0.5 0.45)"/><path class="cls-2" d="M125.33,149.2a11,11,0,0,0-.13,1.78,12.32,12.32,0,0,0,1.7,6.8,11.61,11.61,0,0,0,2.72,3.28,11.32,11.32,0,0,0,2.68,1.86,6.55,6.55,0,0,0-1.35,1.92,16.87,16.87,0,0,1-4.38-4.07,13.77,13.77,0,0,1-2.3-4.72,12.64,12.64,0,0,1-1.34,3.49,12.08,12.08,0,0,1-2.66,3.31,14.47,14.47,0,0,1-2.68,2,5.23,5.23,0,0,0-1.34-1.78,11.53,11.53,0,0,0,3.76-2.88c2.23-2.56,3.16-5.39,3.16-9.53a11.47,11.47,0,0,0-.07-1.45Z" transform="translate(0.5 0.45)"/><path class="cls-2" d="M96.53,181.3c.78-.86.78-.86,1.66-1.9l3.75-4.38a17.65,17.65,0,0,0,1.6-2.06h3.54a25.78,25.78,0,0,0-.14,2.87v5.61h.5a11.58,11.58,0,0,0,1.71-.14v3.15a13.57,13.57,0,0,0-1.69-.11h-.52v.87a12.47,12.47,0,0,0,.14,2.12h-3.56a14.55,14.55,0,0,0,.14-2.16v-.85H98.78c-1.12,0-1.61,0-2.25.07Zm7.15-1.83c0-.77,0-1.72.1-2.48-.34.48-.6.83-1.07,1.41l-2.52,3.08h3.49Z" transform="translate(0.5 0.45)"/><path class="cls-2" d="M121.86,175.76a13.44,13.44,0,0,0-2.36,3.47,21.42,21.42,0,0,0-2.44,8.1h-4a24.33,24.33,0,0,1,2.07-6.72A26.69,26.69,0,0,1,118,176h-4.92a20.07,20.07,0,0,0-2.61.12v-3.27a23.34,23.34,0,0,0,2.8.12h5.83c1.59,0,2.07,0,2.78-.06Z" transform="translate(0.5 0.45)"/><path class="cls-2" d="M124.49,179.77a5,5,0,0,1,0-6.1,3.73,3.73,0,0,1,2.67-1,3.69,3.69,0,0,1,2.68,1,5,5,0,0,1,0,6.11,3.71,3.71,0,0,1-2.66,1A3.75,3.75,0,0,1,124.49,179.77Zm12.12-7.25.91.69-11.25,14.6-.9-.69Zm-10.76,4.19c0,1.45.45,2.21,1.33,2.21s1.32-.74,1.32-2.21-.45-2.16-1.32-2.16S125.85,175.3,125.85,176.71Zm7.19,9.91a5,5,0,0,1,0-6.09,3.78,3.78,0,0,1,2.7-1c2.34,0,3.71,1.49,3.71,4a4.16,4.16,0,0,1-1.06,3.07,3.68,3.68,0,0,1-2.67,1A3.73,3.73,0,0,1,133,186.62Zm1.36-3.09c0,1.49.45,2.25,1.33,2.25s1.33-.75,1.33-2.25-.45-2.12-1.31-2.12S134.4,182.13,134.4,183.53Z" transform="translate(0.5 0.45)"/><ellipse class="cls-7" cx="112.02" cy="112" rx="111.98" ry="112" transform="translate(-0.25 1.2) rotate(-0.38)"/><path class="cls-8" d="M34.34,69.32a2.22,2.22,0,0,0,.82,1.41,3.25,3.25,0,0,0,2.08.68c1.71,0,2.8-.88,2.8-2.25a2,2,0,0,0-1-1.81,4.46,4.46,0,0,0-2-.41,14.74,14.74,0,0,0-1.85.08V64.88a11.63,11.63,0,0,0,1.68.09c1.72,0,2.74-.8,2.74-2.13S38.85,61,37.38,61a2.93,2.93,0,0,0-1.88.53,2.56,2.56,0,0,0-.72,1.33l-2.47-.41A4.29,4.29,0,0,1,34,60a5.59,5.59,0,0,1,3.38-1c2.88,0,4.75,1.45,4.75,3.7a3.14,3.14,0,0,1-1.19,2.53,4.13,4.13,0,0,1-1.68.68,3.63,3.63,0,0,1,2.47,1.15,3.33,3.33,0,0,1,.83,2.39,3.66,3.66,0,0,1-1,2.52,6,6,0,0,1-4.24,1.4,5.42,5.42,0,0,1-4.39-1.64,4.65,4.65,0,0,1-1-1.94Z" transform="translate(0.5 0.45)"/><path class="cls-8" d="M53.17,58.58A11.12,11.12,0,0,0,53,60.36a12.32,12.32,0,0,0,1.7,6.8,11.48,11.48,0,0,0,2.72,3.28,11.67,11.67,0,0,0,2.68,1.87,6.38,6.38,0,0,0-1.35,1.91,16.87,16.87,0,0,1-4.38-4.07,13.77,13.77,0,0,1-2.3-4.72,12.52,12.52,0,0,1-1.34,3.49,12.26,12.26,0,0,1-2.66,3.32,14.91,14.91,0,0,1-2.68,2,5.33,5.33,0,0,0-1.34-1.78,11.53,11.53,0,0,0,3.76-2.88C50.08,67,51,64.17,51,60a11.68,11.68,0,0,0-.07-1.45Z" transform="translate(0.5 0.45)"/><path class="cls-8" d="M26.5,82.23a11.57,11.57,0,0,0,2.07.12h2.19a16.84,16.84,0,0,0,2.14-.07,25.77,25.77,0,0,0-.12,2.78v9a18.85,18.85,0,0,0,.14,2.61H29.15a18.68,18.68,0,0,0,.14-2.61V85.3H28.6a17.4,17.4,0,0,0-2.1.12Z" transform="translate(0.5 0.45)"/><path class="cls-8" d="M49.37,90.41a3.39,3.39,0,0,1,.76,2.36A3.69,3.69,0,0,1,49,95.54a7.19,7.19,0,0,1-5,1.53,7.14,7.14,0,0,1-5-1.58A3.73,3.73,0,0,1,38,92.77a3.42,3.42,0,0,1,1.33-2.83,4,4,0,0,1,1.82-.79A3.14,3.14,0,0,1,38.6,86a3.53,3.53,0,0,1,.71-2.26A6,6,0,0,1,44,82c3.35,0,5.47,1.52,5.47,3.92a3.19,3.19,0,0,1-2.43,3.26A3.27,3.27,0,0,1,49.37,90.41Zm-7.85,2.07c0,1.12.95,1.8,2.52,1.8s2.52-.68,2.52-1.83-.93-1.83-2.49-1.83S41.52,91.32,41.52,92.48Zm.5-6.27c0,1,.79,1.56,2,1.56s2-.59,2-1.56-.78-1.52-2-1.52S42,85.28,42,86.21Z" transform="translate(0.5 0.45)"/><path class="cls-8" d="M52.33,89.15a5,5,0,0,1,0-6.1,3.78,3.78,0,0,1,2.67-1,3.73,3.73,0,0,1,2.68,1,5,5,0,0,1,0,6.12,4.11,4.11,0,0,1-5.35,0ZM64.45,81.9l.91.69L54.11,97.19l-.9-.69ZM53.69,86.09c0,1.45.45,2.21,1.33,2.21s1.32-.74,1.32-2.21-.45-2.15-1.32-2.15S53.69,84.68,53.69,86.09ZM60.88,96a4.14,4.14,0,0,1-1-3,4.18,4.18,0,0,1,1-3,3.78,3.78,0,0,1,2.7-1c2.34,0,3.71,1.49,3.71,4A4.14,4.14,0,0,1,66.24,96a3.68,3.68,0,0,1-2.67,1A3.73,3.73,0,0,1,60.88,96Zm1.36-3.09c0,1.49.45,2.25,1.33,2.25s1.33-.75,1.33-2.25-.45-2.12-1.31-2.12S62.24,91.51,62.24,92.91Z" transform="translate(0.5 0.45)"/><path class="cls-8" d="M87.51,26.86a12.69,12.69,0,0,0-1.44-.1h-.52v1a8.66,8.66,0,0,0,.12,1.64h-2a8.86,8.86,0,0,0,.12-1.67v-1h-4c-.85,0-1.31,0-1.8.06V25.05c.49-.53.65-.72,1.15-1.32l3.41-4.18A13.44,13.44,0,0,0,83.71,18h1.94a21.53,21.53,0,0,0-.1,2.43v4.72h.51a9.71,9.71,0,0,0,1.45-.1Zm-3.76-4.7c0-.68,0-1.14.07-1.73a13.49,13.49,0,0,1-1,1.28l-2.76,3.43h3.67Z" transform="translate(0.5 0.45)"/><path class="cls-8" d="M95.94,17.35a9.15,9.15,0,0,0-.1,1.48,10.3,10.3,0,0,0,1.41,5.67,9.61,9.61,0,0,0,2.28,2.74,9.22,9.22,0,0,0,2.23,1.55,5.41,5.41,0,0,0-1.13,1.6A13.88,13.88,0,0,1,97,27a11.27,11.27,0,0,1-1.92-3.93A10.18,10.18,0,0,1,93.94,26a10.06,10.06,0,0,1-2.22,2.77,12.18,12.18,0,0,1-2.23,1.65,4.27,4.27,0,0,0-1.12-1.48,9.62,9.62,0,0,0,3.14-2.41c1.85-2.13,2.63-4.49,2.63-7.94a8.22,8.22,0,0,0-.06-1.21Z" transform="translate(0.5 0.45)"/><path class="cls-8" d="M80.93,45.94a1.44,1.44,0,0,0,.35.61,1.73,1.73,0,0,0,1.35.54,2.06,2.06,0,0,0,1.84-1,4.45,4.45,0,0,0,.49-2,3.75,3.75,0,0,1-2.86,1c-2.6,0-4.28-1.57-4.28-4s2-4.29,4.81-4.29A4.63,4.63,0,0,1,86.77,39a7.44,7.44,0,0,1,.91,3.89,9.4,9.4,0,0,1-.82,4,4.24,4.24,0,0,1-2.45,2.19,6.72,6.72,0,0,1-1.93.3,4.84,4.84,0,0,1-3.32-1.12,4.2,4.2,0,0,1-1.11-1.72ZM84.67,41a2,2,0,0,0-4,0,1.79,1.79,0,0,0,2,1.84A1.88,1.88,0,0,0,84.67,41Z" transform="translate(0.5 0.45)"/><path class="cls-8" d="M89.68,42.83a3.5,3.5,0,0,1-.87-2.54,3.55,3.55,0,0,1,.88-2.55,3.15,3.15,0,0,1,2.23-.82,3.11,3.11,0,0,1,2.24.82A3.5,3.5,0,0,1,95,40.28a3.45,3.45,0,0,1-.88,2.56,3.43,3.43,0,0,1-4.46,0Zm10.1-6,.77.57L91.16,49.54,90.41,49Zm-9,3.5c0,1.21.37,1.84,1.1,1.84S93,41.5,93,40.28s-.38-1.8-1.1-1.8S90.82,39.1,90.82,40.28Zm6,8.26a4.14,4.14,0,0,1,0-5.08,3.14,3.14,0,0,1,2.24-.82c2,0,3.1,1.24,3.1,3.35a3.51,3.51,0,0,1-.88,2.57,3.1,3.1,0,0,1-2.23.82A3.15,3.15,0,0,1,96.8,48.54ZM97.94,46c0,1.24.38,1.88,1.11,1.88s1.11-.62,1.11-1.88-.38-1.77-1.1-1.77S97.94,44.8,97.94,46Z" transform="translate(0.5 0.45)"/></g></svg>