<svg id="レイヤー_1" data-name="レイヤー 1" xmlns="http://www.w3.org/2000/svg" xmlns:xlink="http://www.w3.org/1999/xlink" viewBox="0 0 225 224.98"><defs><style>.cls-1{fill:none;}.cls-2{fill:#fff;}.cls-3{fill:#b01f24;}.cls-3,.cls-4{stroke:#fff;stroke-miterlimit:10;}.cls-4{fill:#006c3b;}.cls-5{opacity:0.25;fill:url(#新規パターンスウォッチ_8);}</style><pattern id="新規パターンスウォッチ_8" data-name="新規パターンスウォッチ 8" width="28.35" height="28.35" patternTransform="translate(18.1 23.03) scale(0.25 0.25)" patternUnits="userSpaceOnUse" viewBox="0 0 28.35 28.35"><rect class="cls-1" width="28.35" height="28.35"/><path class="cls-2" d="M19.84,14.17A5.67,5.67,0,1,1,14.17,8.5,5.67,5.67,0,0,1,19.84,14.17Z"/><path class="cls-2" d="M34,0a5.67,5.67,0,0,1-5.67,5.67A5.67,5.67,0,0,1,22.68,0,5.67,5.67,0,0,1,34,0Z"/><path class="cls-2" d="M5.67,0A5.67,5.67,0,0,1,0,5.67,5.67,5.67,0,0,1-5.67,0,5.67,5.67,0,0,1,0-5.67,5.67,5.67,0,0,1,5.67,0Z"/><path class="cls-2" d="M34,28.35a5.67,5.67,0,1,1-5.67-5.67A5.67,5.67,0,0,1,34,28.35Z"/><path class="cls-2" d="M5.67,28.35A5.67,5.67,0,0,1,0,34a5.67,5.67,0,0,1-5.67-5.67A5.67,5.67,0,0,1,0,22.68,5.67,5.67,0,0,1,5.67,28.35Z"/></pattern></defs><title>en03</title><g id="_03" data-name="03"><path class="cls-3" d="M112,112,32.8,191.2A112,112,0,1,0,191.2,32.82Q158.4,0,112,0Z" transform="translate(0.5 0.48)"/><path class="cls-4" d="M112,112V0A112,112,0,0,0,0,112q0,46.38,32.8,79.19Z" transform="translate(0.5 0.48)"/><path class="cls-2" d="M43,73c-1.43,0-1.43,0-1.93.09a11.22,11.22,0,0,0,.1-1.73v-4a16.12,16.12,0,0,0-.08-1.79,12.34,12.34,0,0,0,1.79.08h9.07a12.5,12.5,0,0,0,1.79-.08,16.59,16.59,0,0,0-.07,1.79v4a16.55,16.55,0,0,0,.07,1.71C53.19,73,52.65,73,52,73H48.09a14.23,14.23,0,0,1-.17,1.47h4.49c.67,0,1.19,0,1.86-.07-.05.35-.07.54-.15,1.43a19.12,19.12,0,0,1-.5,3.27c-.37,1.27-1,1.6-3.18,1.6-.59,0-.79,0-2-.09A6.64,6.64,0,0,0,48,78.73a18.65,18.65,0,0,0,2.71.23c1.16,0,1.21-.07,1.5-2.85H47.42a7.67,7.67,0,0,1-2.61,3.12A12.41,12.41,0,0,1,40.55,81a6.75,6.75,0,0,0-1.11-1.71,12.58,12.58,0,0,0,3.78-1.24,5.45,5.45,0,0,0,2.16-2H42.1a14.2,14.2,0,0,0-2,.1V74.38a20.6,20.6,0,0,0,2.06.09H46A7.19,7.19,0,0,0,46.16,73Zm0-5.82v1.47H46.4V67.18Zm0,2.89v1.45H46.4V70.07Zm8.84-1.42V67.18H48.18v1.47Zm0,2.87V70.07H48.18v1.45Z" transform="translate(0.5 0.48)"/><path class="cls-2" d="M56.44,72.88a15.56,15.56,0,0,0,.62-4.49l1.4.17a22,22,0,0,1-.64,4.84ZM58.63,81a15.74,15.74,0,0,0,.12-2.17v-12A11.08,11.08,0,0,0,58.63,65H60.7a14,14,0,0,0-.1,1.83V79a16.52,16.52,0,0,0,.1,2Zm7.63-12.41V66.86A11.15,11.15,0,0,0,66.14,65h2.09a11,11,0,0,0-.12,1.83v1.72h2a12.26,12.26,0,0,0,1.9-.1v1.91a18.1,18.1,0,0,0-1.88-.1h-2v3h1.73a12.94,12.94,0,0,0,1.86-.08v1.86a12.84,12.84,0,0,0-1.88-.1H68.11v3.66h2.35a15.21,15.21,0,0,0,2-.11v1.95a15,15,0,0,0-2-.12H63.52a15,15,0,0,0-2,.12V78.54a15.23,15.23,0,0,0,2,.11h2.74V75H64.71a14.33,14.33,0,0,0-1.92.1V73.23l.28,0a11.31,11.31,0,0,0-1.56-1,6.75,6.75,0,0,0,.92-1.72l-1,.48a9.76,9.76,0,0,0-.8-2.57l1.16-.55a13.34,13.34,0,0,1,.79,2.19,14.31,14.31,0,0,0,.75-4l1.84.35a6.23,6.23,0,0,0-.12.62c0,.33-.17,1-.26,1.48Zm-1.88,1.71a13,13,0,0,1-1.24,3,12.23,12.23,0,0,0,1.31,0h1.81v-3Z" transform="translate(0.5 0.48)"/><path class="cls-2" d="M34.81,100.83a2.29,2.29,0,0,0,.58,1.33,3.23,3.23,0,0,0,2.39.89c1.61,0,2.63-.81,2.63-2.07a1.79,1.79,0,0,0-1.12-1.79,6.15,6.15,0,0,0-1.93-.27,24.19,24.19,0,0,0-2.55.13V95.48a16.91,16.91,0,0,0,2.2.13c2,0,2.94-.67,2.94-2,0-1.12-.78-1.76-2.15-1.76a2.23,2.23,0,0,0-2.53,1.9l-4.48-.64a6,6,0,0,1,1.39-2.63,7.41,7.41,0,0,1,5.7-2.07,7.55,7.55,0,0,1,5.31,1.76,4,4,0,0,1,1.16,2.94c0,2.2-1.18,3.56-3.57,4.12a4.72,4.72,0,0,1,2.68,1.1,4.09,4.09,0,0,1,1.36,3.07,4.69,4.69,0,0,1-.82,2.76,5.27,5.27,0,0,1-2,1.55,11.15,11.15,0,0,1-4.31.81,9.44,9.44,0,0,1-4.83-1.16,5.63,5.63,0,0,1-2.14-2.67,8.09,8.09,0,0,1-.35-1.1Z" transform="translate(0.5 0.48)"/><path class="cls-2" d="M60.12,98.53a4.13,4.13,0,0,1,.91,2.84,4.4,4.4,0,0,1-1.37,3.31c-1.26,1.21-3.37,1.85-6,1.85s-4.77-.68-6-1.91a4.47,4.47,0,0,1-1.26-3.25A4.1,4.1,0,0,1,48,98a4.57,4.57,0,0,1,2.17-1,4,4,0,0,1-2-1.14,3.85,3.85,0,0,1-1-2.66A4.28,4.28,0,0,1,48,90.51c1.1-1.35,3.15-2.12,5.68-2.12,4,0,6.57,1.83,6.57,4.71A3.84,3.84,0,0,1,57.36,97,3.93,3.93,0,0,1,60.12,98.53ZM50.69,101c0,1.34,1.14,2.15,3,2.15s3-.81,3-2.19-1.12-2.2-3-2.2S50.69,99.63,50.69,101Zm.6-7.53c0,1.14,1,1.87,2.47,1.87s2.4-.71,2.4-1.87-.93-1.82-2.42-1.82S51.29,92.37,51.29,93.49Z" transform="translate(0.5 0.48)"/><path class="cls-2" d="M63.66,97a6,6,0,0,1,0-7.32,5,5,0,0,1,6.42,0,6,6,0,0,1,0,7.34,4.94,4.94,0,0,1-6.43,0Zm14.56-8.71,1.09.83L65.8,106.67l-1.08-.82Zm-12.92,5c0,1.74.54,2.65,1.6,2.65s1.57-.89,1.57-2.65-.54-2.59-1.57-2.59S65.3,91.65,65.3,93.35Zm8.62,11.89a5.95,5.95,0,0,1,0-7.31,4.48,4.48,0,0,1,3.23-1.18c2.82,0,4.46,1.78,4.46,4.83a5,5,0,0,1-1.27,3.69,4.95,4.95,0,0,1-6.45,0Zm1.64-3.71c0,1.79.54,2.7,1.6,2.7s1.59-.89,1.59-2.7S78.22,99,77.18,99,75.56,99.86,75.56,101.53Z" transform="translate(0.5 0.48)"/><path class="cls-2" d="M155.92,123.47a33.82,33.82,0,0,0-5-3.37,12,12,0,0,1-3.73,2.21,18.34,18.34,0,0,1-4.25,1,6.93,6.93,0,0,0-.91-1.87,14.48,14.48,0,0,0,4.25-.9,13.14,13.14,0,0,0,2.81-1.45,31.11,31.11,0,0,0-3.3-1.43l-.6.85a15.84,15.84,0,0,0-1.94-.83,21.09,21.09,0,0,0,3-4.75h-2.16a15.49,15.49,0,0,0-2,.11v-2a16.28,16.28,0,0,0,2,.11H147a19.79,19.79,0,0,0,1.09-3.61l2.24.31a10.36,10.36,0,0,0-.43,1.21c-.28.84-.45,1.34-.73,2.09h6.46a15.55,15.55,0,0,0,2-.11v2a15.82,15.82,0,0,0-2-.11h-.95a12.68,12.68,0,0,1-2.47,5.66,41.27,41.27,0,0,1,5,3.18ZM148.44,113a26.18,26.18,0,0,1-1.66,3.16,32.79,32.79,0,0,1,3.75,1.61,10.14,10.14,0,0,0,2.19-4.77Z" transform="translate(0.5 0.48)"/><path class="cls-2" d="M158.86,115.37a15.56,15.56,0,0,0,.62-4.49l1.4.18a21.35,21.35,0,0,1-.64,4.83Zm2.19,8.11a15.74,15.74,0,0,0,.12-2.17v-12a11.08,11.08,0,0,0-.12-1.83h2.07a16,16,0,0,0-.1,1.83v12.16a18.78,18.78,0,0,0,.1,2Zm7.63-12.41v-1.72a11.15,11.15,0,0,0-.12-1.83h2.09a12.19,12.19,0,0,0-.12,1.83v1.72h2a12.17,12.17,0,0,0,1.9-.1v1.92a15.6,15.6,0,0,0-1.88-.11h-2v3h1.73a12.94,12.94,0,0,0,1.86-.08v1.86a12.84,12.84,0,0,0-1.88-.1h-1.71v3.66h2.35a15.21,15.21,0,0,0,2-.11v2a15,15,0,0,0-2-.12h-6.94a15.14,15.14,0,0,0-2,.12v-2a15.23,15.23,0,0,0,2,.11h2.74v-3.66h-1.55a14.33,14.33,0,0,0-1.92.1v-1.86l.28,0a11.81,11.81,0,0,0-1.55-1,7,7,0,0,0,.91-1.72l-1,.48a10.18,10.18,0,0,0-.79-2.57l1.15-.55a14.32,14.32,0,0,1,.8,2.19,14.64,14.64,0,0,0,.74-4l1.85.35a3.2,3.2,0,0,0-.12.62c-.06.33-.18,1-.26,1.48Zm-1.88,1.71a13,13,0,0,1-1.24,3,12.23,12.23,0,0,0,1.31,0h1.81v-3Z" transform="translate(0.5 0.48)"/><path class="cls-2" d="M142.85,136a2.16,2.16,0,0,0-2.34-1.72,2.91,2.91,0,0,0-2.78,1.78,7.29,7.29,0,0,0-.6,2.57,3.88,3.88,0,0,1,1.31-.93,6.31,6.31,0,0,1,2.75-.54c3.76,0,6.12,2.24,6.12,5.81s-2.82,6.09-6.9,6.09a6.74,6.74,0,0,1-5.19-2.09,9.87,9.87,0,0,1-2.11-6.68,11.62,11.62,0,0,1,1.72-6.53,6.71,6.71,0,0,1,5.85-2.77,6,6,0,0,1,6.23,4.14ZM137.48,143a2.68,2.68,0,0,0,2.88,2.63,2.71,2.71,0,0,0,2.95-2.67c0-1.6-1.08-2.57-2.86-2.57S137.48,141.43,137.48,143Z" transform="translate(0.5 0.48)"/><path class="cls-2" d="M152.22,148.58c-1.87,0-2.34,0-3.11.09a10.11,10.11,0,0,1,.44-2.45,10.58,10.58,0,0,1,3-4.64,29,29,0,0,1,3.69-2.76c1.78-1.2,2.22-1.74,2.22-2.69s-.89-1.66-2.22-1.66a2.36,2.36,0,0,0-2.16,1,3.63,3.63,0,0,0-.51,1.74l-4.36-.46a6.77,6.77,0,0,1,1.52-3.69A6.9,6.9,0,0,1,156.2,131c2.8,0,4.93.93,6,2.61a4.4,4.4,0,0,1,.68,2.42,4.82,4.82,0,0,1-1.9,3.86,29.09,29.09,0,0,1-3,2.22c-1.8,1.24-2.57,2-3.05,2.88h4.83a24.92,24.92,0,0,0,3.32-.15v3.92c-1.2-.1-2.07-.15-3.54-.15Z" transform="translate(0.5 0.48)"/><path class="cls-2" d="M166.09,139.51a5.95,5.95,0,0,1,0-7.32,4.46,4.46,0,0,1,3.21-1.18,4.4,4.4,0,0,1,3.21,1.18,6,6,0,0,1,0,7.34,4.92,4.92,0,0,1-6.42,0Zm14.55-8.71,1.1.83-13.52,17.54-1.08-.83Zm-12.92,5c0,1.74.54,2.65,1.6,2.65s1.57-.89,1.57-2.65-.53-2.59-1.57-2.59S167.72,134.14,167.72,135.84Zm8.63,11.89a5.93,5.93,0,0,1,0-7.31,4.48,4.48,0,0,1,3.23-1.18c2.82,0,4.46,1.78,4.46,4.83a5,5,0,0,1-1.27,3.69,4.94,4.94,0,0,1-6.44,0ZM178,144c0,1.78.54,2.69,1.6,2.69s1.6-.89,1.6-2.69-.54-2.55-1.58-2.55S178,142.35,178,144Z" transform="translate(0.5 0.48)"/><ellipse class="cls-5" cx="112" cy="111.99" rx="111.99" ry="112" transform="translate(-0.99 222.96) rotate(-89.23)"/></g></svg>