<svg id="レイヤー_1" data-name="レイヤー 1" xmlns="http://www.w3.org/2000/svg" xmlns:xlink="http://www.w3.org/1999/xlink" viewBox="0 0 225 224.98"><defs><style>.cls-1{fill:none;}.cls-2{fill:#fff;}.cls-3{fill:#006c3b;}.cls-3,.cls-4{stroke:#fff;stroke-miterlimit:10;}.cls-4{fill:#b01f24;}.cls-5{opacity:0.25;fill:url(#新規パターンスウォッチ_8);}</style><pattern id="新規パターンスウォッチ_8" data-name="新規パターンスウォッチ 8" width="28.35" height="28.35" patternTransform="translate(16.53 -16.36) scale(0.25 0.25)" patternUnits="userSpaceOnUse" viewBox="0 0 28.35 28.35"><rect class="cls-1" width="28.35" height="28.35"/><path class="cls-2" d="M19.84,14.17A5.67,5.67,0,1,1,14.17,8.5,5.67,5.67,0,0,1,19.84,14.17Z"/><path class="cls-2" d="M34,0a5.67,5.67,0,0,1-5.67,5.67A5.67,5.67,0,0,1,22.68,0,5.67,5.67,0,0,1,34,0Z"/><path class="cls-2" d="M5.67,0A5.67,5.67,0,0,1,0,5.67,5.67,5.67,0,0,1-5.67,0,5.67,5.67,0,0,1,0-5.67,5.67,5.67,0,0,1,5.67,0Z"/><path class="cls-2" d="M34,28.35a5.67,5.67,0,1,1-5.67-5.67A5.67,5.67,0,0,1,34,28.35Z"/><path class="cls-2" d="M5.67,28.35A5.67,5.67,0,0,1,0,34a5.67,5.67,0,0,1-5.67-5.67A5.67,5.67,0,0,1,0,22.68,5.67,5.67,0,0,1,5.67,28.35Z"/></pattern></defs><title>en04</title><path class="cls-3" d="M112,112,18.08,173A112,112,0,0,1,51,18.08,109.07,109.07,0,0,1,112,0Z" transform="translate(0.5 0.48)"/><path class="cls-4" d="M112,112V0a112,112,0,0,1,0,224c-39.59,0-72.37-17.8-93.93-51Z" transform="translate(0.5 0.48)"/><path class="cls-2" d="M144,118a7.88,7.88,0,0,0,2.25,2.85,11.18,11.18,0,0,0,4.5,2.31,8.52,8.52,0,0,0-1.08,1.92,11.46,11.46,0,0,1-4.47-2.66,10,10,0,0,1-2.46-3.25,8.82,8.82,0,0,1-2.33,3.33,12.94,12.94,0,0,1-4.49,2.61,8.35,8.35,0,0,0-1.08-1.79,12.53,12.53,0,0,0,4.07-2.08,6.52,6.52,0,0,0,2.26-3.24h-3.92a18.76,18.76,0,0,0-2.07.1v-2a14.69,14.69,0,0,0,2.07.12h4.29a23.58,23.58,0,0,0,.17-2.59H138.2a16.71,16.71,0,0,0-2.09.1v-2a15,15,0,0,0,2.09.12h3.49a10.83,10.83,0,0,0-.11-2.49h2.16a15.19,15.19,0,0,0-.1,2.49h3.69a13.26,13.26,0,0,0,2.11-.12v2a15.81,15.81,0,0,0-2.11-.1h-3.71c0,1.07-.07,1.84-.15,2.59h4.74a13.62,13.62,0,0,0,2.14-.12v2a17.35,17.35,0,0,0-2.12-.1Z" transform="translate(0.5 0.48)"/><path class="cls-2" d="M156.42,112.43a9.13,9.13,0,0,0,1.45-.07c-.29,3.85-.6,5.52-1.45,7.68a18,18,0,0,1,1.81,1.71l-1,1.62c-.76-.84-1-1.12-1.55-1.66a12.82,12.82,0,0,1-2.7,3.34,6.82,6.82,0,0,0-1.14-1.51,10.43,10.43,0,0,0,2.59-3c-.76-.67-1.1-1-2.1-1.74a28,28,0,0,0,1.21-4.72h-.13a6.33,6.33,0,0,0-1.22.09v-1.83a7.25,7.25,0,0,0,1.36.09h.23c.15-1.42.22-2.26.22-2.85v-.4l1.88.19c-.07.31-.1.66-.31,2.35,0,.22-.05.4-.1.71Zm-1.26,1.65a32,32,0,0,1-1,4.13c.47.35.64.47,1,.73a16.88,16.88,0,0,0,1-4.86ZM167,119.66v3.09c0,1.17-.41,1.54-1.78,1.54-.22,0-.38,0-.91,0a3.26,3.26,0,0,0-.38-1.67,7.4,7.4,0,0,0,1,.1c.35,0,.43-.05.43-.27v-2.09h-1.76v3a13.07,13.07,0,0,0,.09,1.86h-1.92a12.52,12.52,0,0,0,.09-1.88v-3h-1.56v2.29a11.59,11.59,0,0,0,.09,1.63h-1.83c.05-.54.09-1.11.09-1.82v-2.26c0-.22,0-.34,0-.6h-.92a5.82,5.82,0,0,0,.07-1.14v-1.25a6.55,6.55,0,0,0,0-1.12c.45,0,.88,0,1.54,0h7.13a15.53,15.53,0,0,0,1.57,0,8.49,8.49,0,0,0,0,1.09v1.38a7.05,7.05,0,0,0,.07,1.14Zm-1.9-8.42h-4.76a14.72,14.72,0,0,0-1.78.07v-1.59a13.3,13.3,0,0,0,1.81.08h5a13.13,13.13,0,0,0,1.63-.07,14,14,0,0,0,0,1.4v3a12,12,0,0,0,0,1.26,11.55,11.55,0,0,0-1.28,0h-5.4a13.72,13.72,0,0,0-1.75.07v-1.51a13.39,13.39,0,0,0,1.71.07h4.85v-.69h-4.59c-.64,0-1.16,0-1.62,0v-1.45a15.68,15.68,0,0,0,1.6.06h4.61Zm-5.61,6.38v1.25h2.37v-1.25Zm6.67,0h-2.56v1.25h2.56Z" transform="translate(0.5 0.48)"/><path class="cls-2" d="M135.81,137.61a2.17,2.17,0,0,0-2.35-1.72,2.89,2.89,0,0,0-2.77,1.78,7.08,7.08,0,0,0-.6,2.57,3.75,3.75,0,0,1,1.3-.93,6.35,6.35,0,0,1,2.76-.54c3.75,0,6.11,2.24,6.11,5.8s-2.82,6.1-6.9,6.1a6.71,6.71,0,0,1-5.18-2.09,9.82,9.82,0,0,1-2.12-6.68,11.67,11.67,0,0,1,1.72-6.53,6.72,6.72,0,0,1,5.85-2.77,6.52,6.52,0,0,1,4.85,1.82,6.73,6.73,0,0,1,1.39,2.32Zm-5.37,7.07a2.92,2.92,0,0,0,5.82,0c0-1.6-1.08-2.57-2.86-2.57S130.44,143.08,130.44,144.68Z" transform="translate(0.5 0.48)"/><path class="cls-2" d="M151.83,137.61a2.17,2.17,0,0,0-2.35-1.72,2.89,2.89,0,0,0-2.77,1.78,7.08,7.08,0,0,0-.6,2.57,3.75,3.75,0,0,1,1.3-.93,6.35,6.35,0,0,1,2.76-.54c3.75,0,6.11,2.24,6.11,5.8s-2.82,6.1-6.9,6.1a6.72,6.72,0,0,1-5.18-2.09,9.82,9.82,0,0,1-2.11-6.68,11.59,11.59,0,0,1,1.72-6.53,6.69,6.69,0,0,1,5.84-2.77,6.52,6.52,0,0,1,4.85,1.82,6.73,6.73,0,0,1,1.39,2.32Zm-5.37,7.07a2.92,2.92,0,0,0,5.82,0c0-1.6-1.08-2.57-2.86-2.57S146.46,143.08,146.46,144.68Z" transform="translate(0.5 0.48)"/><path class="cls-2" d="M159,141.16a5.95,5.95,0,0,1,0-7.32,4.5,4.5,0,0,1,3.21-1.18,4.4,4.4,0,0,1,3.21,1.18,6,6,0,0,1,0,7.34,4.92,4.92,0,0,1-6.42,0Zm14.55-8.71,1.1.83-13.52,17.53L160.1,150Zm-12.91,5c0,1.74.53,2.65,1.59,2.65s1.58-.89,1.58-2.65-.54-2.59-1.58-2.59S160.68,135.79,160.68,137.49Zm8.62,11.89a5.93,5.93,0,0,1,0-7.31,4.5,4.5,0,0,1,3.23-1.18c2.82,0,4.46,1.78,4.46,4.82a5,5,0,0,1-1.27,3.69,4.43,4.43,0,0,1-3.21,1.18A4.49,4.49,0,0,1,169.3,149.38Zm1.64-3.71c0,1.79.53,2.7,1.59,2.7s1.6-.89,1.6-2.7-.54-2.55-1.58-2.55S170.94,144,170.94,145.67Z" transform="translate(0.5 0.48)"/><path class="cls-2" d="M23.88,67.7a16.76,16.76,0,0,1,3.19,1.63l-.74,1.36a14,14,0,0,0-3.25-1.77Zm-.54,5.37a11,11,0,0,0,3.47-.78,7.28,7.28,0,0,0,3.46-2.64A8.77,8.77,0,0,0,31.66,67a6,6,0,0,0,1.25,1.06,10.63,10.63,0,0,1-1.8,3,10.9,10.9,0,0,1-6.51,3.4,7.49,7.49,0,0,0-.84.19ZM24.8,64.8A18.92,18.92,0,0,1,28,66.35l-.76,1.32A13.87,13.87,0,0,0,24,66Z" transform="translate(0.5 0.48)"/><path class="cls-2" d="M34.18,72.88A11.43,11.43,0,0,0,37.73,72a8,8,0,0,0,3.56-2.93,10,10,0,0,0,1.23-2.4,4.91,4.91,0,0,0,1.27,1.17,10.51,10.51,0,0,1-3.8,4.7,13,13,0,0,1-4.57,1.8,5.11,5.11,0,0,0-.79.2Zm1-7.44a16.63,16.63,0,0,1,3.1,2.31l-1,1.31a12.64,12.64,0,0,0-3-2.44Z" transform="translate(0.5 0.48)"/><path class="cls-2" d="M54.16,66.78a2,2,0,0,0-.3.72,12.28,12.28,0,0,1-2.46,4.62,11.94,11.94,0,0,1-4.26,3,3.78,3.78,0,0,0-1-1.26,10.38,10.38,0,0,0,2.62-1.4,9.56,9.56,0,0,0,3.5-5.06l-3.61,0a11.68,11.68,0,0,1-2.8,3.08,3.1,3.1,0,0,0-1.16-1,9.29,9.29,0,0,0,3.1-3.48,4.52,4.52,0,0,0,.61-1.6L50,64.8a1.43,1.43,0,0,0-.24.43c-.22.48-.3.66-.47,1l.57,0,2.63,0a4,4,0,0,0,.6,0,6.32,6.32,0,0,0-.83-1.38l1-.34a5.53,5.53,0,0,1,.92,1.55l-.63.23Zm.52-.91a8.31,8.31,0,0,0-.9-1.53l.93-.36a6.72,6.72,0,0,1,.93,1.49Z" transform="translate(0.5 0.48)"/><path class="cls-2" d="M59.36,65a23.25,23.25,0,0,0-.12,2.68,11.39,11.39,0,0,1-1,4.93,7.71,7.71,0,0,1-1.66,2.22,4.19,4.19,0,0,0-1.21-1.17,5,5,0,0,0,1.24-1.37c.86-1.38,1.14-2.93,1.14-6.29a5.86,5.86,0,0,0-.05-1.09Zm3.17-.15A6.47,6.47,0,0,0,62.45,66l-.06,6.82a4.7,4.7,0,0,0,1.83-1.36,5.83,5.83,0,0,0,1.18-2.2,4.85,4.85,0,0,0,1.13,1.13,7.46,7.46,0,0,1-1.91,2.79,7.86,7.86,0,0,1-2.55,1.44c-.27.1-.36.15-.52.22L60.78,74a5,5,0,0,0,.11-1.27L61,66v-.36a4.7,4.7,0,0,0-.05-.79Z" transform="translate(0.5 0.48)"/><path class="cls-2" d="M69.27,68.56c.63.53,1,.86,1.48,1.33.66.68.66.68.74.75a15.48,15.48,0,0,0,1.58-1.51,17,17,0,0,0,1.46-2,.26.26,0,0,1,.07-.1l0-.06-.55,0H68.35a12,12,0,0,0-1.53.06V65.57a9,9,0,0,0,1.56.08H75a3,3,0,0,0,1-.1l.84.95a4,4,0,0,0-.53.71,18.63,18.63,0,0,1-3.87,4.54c.5.58,1,1.15,1.58,2l-1.26,1a19.77,19.77,0,0,0-2.31-3,18.22,18.22,0,0,0-2.4-2.31Z" transform="translate(0.5 0.48)"/><path class="cls-2" d="M84.42,67l0-.54v-.39a8.89,8.89,0,0,0-.06-1.34h1.54a5.27,5.27,0,0,0,0,.82c0,.73,0,.73,0,1.45h.77a7.76,7.76,0,0,0,1.56-.09V68.4a11.92,11.92,0,0,0-1.54-.06h-.8a13.94,13.94,0,0,1-.08,2A4.8,4.8,0,0,1,84,73.74,6.57,6.57,0,0,1,81.7,75a3.6,3.6,0,0,0-.9-1.27,5.6,5.6,0,0,0,2.29-1.14,3.71,3.71,0,0,0,1.27-2.88c0-.26,0-.55,0-1.37h-3.1v1.78a8.8,8.8,0,0,0,0,1H79.8a9.31,9.31,0,0,0,0-1V68.34h-.73a11.74,11.74,0,0,0-1.53.06V66.93a7.76,7.76,0,0,0,1.56.09h.7v-1.2a6.23,6.23,0,0,0-.06-1.07h1.57a7.12,7.12,0,0,0,0,1V67Zm2.43-2.33a6.08,6.08,0,0,1,.77,1.67l-.88.33A8.15,8.15,0,0,0,86,65ZM88,66.21a9.24,9.24,0,0,0-.74-1.63l.84-.31a6.25,6.25,0,0,1,.76,1.59Z" transform="translate(0.5 0.48)"/><path class="cls-2" d="M89.81,68.89a12.2,12.2,0,0,0,1.94.08h6.39a12.28,12.28,0,0,0,2-.08v1.66a13.28,13.28,0,0,0-2-.06H91.77a13.19,13.19,0,0,0-2,.06Z" transform="translate(0.5 0.48)"/><path class="cls-2" d="M48.66,77.46a20.58,20.58,0,0,0,.79,3.75c.78-.29.78-.29,3.1-1.06A3.44,3.44,0,0,0,53,80l.52,1.5a28.76,28.76,0,0,0-4,1.16c-1.75.64-2.63,1.41-2.63,2.27s.82,1.25,2.75,1.25a13.17,13.17,0,0,0,3.87-.49l.13,1.64a7.61,7.61,0,0,0-1,.08,23.34,23.34,0,0,1-2.8.18,6.8,6.8,0,0,1-3.48-.65,2.28,2.28,0,0,1-1-2,2.78,2.78,0,0,1,1.07-2.14,6.87,6.87,0,0,1,1.63-1,30.58,30.58,0,0,1-.81-3.25,5.08,5.08,0,0,0-.19-.78Z" transform="translate(0.5 0.48)"/><path class="cls-2" d="M60.23,81.44c0-.39,0-.64,0-.91h.62a10.91,10.91,0,0,0,2-1.54H58.07a13.87,13.87,0,0,0-1.45.07V77.65a11.5,11.5,0,0,0,1.44.07h5.43a4.85,4.85,0,0,0,1.05-.06l.78.88c-.32.28-.32.28-1.13,1.06a16,16,0,0,1-2.56,1.85V82h2.94a13.11,13.11,0,0,0,1.63-.07v1.45c-.47,0-.9-.07-1.63-.07H61.63v3.5c0,1.06-.4,1.32-2,1.32l-1.34,0a5.11,5.11,0,0,0-.37-1.44,10.4,10.4,0,0,0,1.74.15c.49,0,.57,0,.57-.31V83.27H57c-.72,0-1.13,0-1.63.07V81.89A14,14,0,0,0,57,82h3.19Z" transform="translate(0.5 0.48)"/><path class="cls-2" d="M70.78,77.47c-.06.16-.1.23-.18.49a15.83,15.83,0,0,1-.84,2.15V86.9c0,.41,0,1,.06,1.39H68.39a10.62,10.62,0,0,0,.07-1.4v-3.4a13.5,13.5,0,0,1,0-1.35,7.7,7.7,0,0,1-1,1.37A7.41,7.41,0,0,0,67,82.06a9.7,9.7,0,0,0,2.43-5Zm2.83,7.88a10.13,10.13,0,0,1-2.7,3,5.93,5.93,0,0,0-1-1,6.68,6.68,0,0,0,1.48-1.2,7.11,7.11,0,0,0,1.1-1.5Zm1.48-5.79V78.34a6,6,0,0,0-.06-1h1.43a6.37,6.37,0,0,0-.07,1v1.2h.54a7.2,7.2,0,0,0,1.15-.08v1.37a7.19,7.19,0,0,0-1.15-.07h-.54v2.48h.86a6,6,0,0,0,1.14-.07v1.36a8.78,8.78,0,0,0-1.14-.07H71.36a8.78,8.78,0,0,0-1.14.07V83.19a7,7,0,0,0,1.14.07h.69V80.78H71.7a6.25,6.25,0,0,0-1.14.07V79.48a7.63,7.63,0,0,0,1.14.08h.35V78.32a6.17,6.17,0,0,0-.08-1H73.4a5.7,5.7,0,0,0-.06,1v1.23Zm0,3.7V80.78H73.34v2.48Zm.77,1.31A7.8,7.8,0,0,0,77,86.05a6.19,6.19,0,0,0,1.44,1.13,8.09,8.09,0,0,0-1,1.15,9.6,9.6,0,0,1-1.42-1.27,10,10,0,0,1-1.35-1.76Z" transform="translate(0.5 0.48)"/><path class="cls-2" d="M49.34,101.18a1.35,1.35,0,0,0,.34.77,1.87,1.87,0,0,0,1.38.51c.93,0,1.52-.46,1.52-1.2a1,1,0,0,0-.65-1,3.57,3.57,0,0,0-1.11-.15,14.66,14.66,0,0,0-1.48.07V98.09a10.24,10.24,0,0,0,1.27.07c1.14,0,1.71-.38,1.71-1.15s-.46-1-1.25-1a1.29,1.29,0,0,0-1.46,1.1L47,96.72a3.51,3.51,0,0,1,.8-1.52,4.3,4.3,0,0,1,3.3-1.2,4.39,4.39,0,0,1,3.07,1,2.44,2.44,0,0,1-1.39,4.09,2.63,2.63,0,0,1,1.54.63,2.35,2.35,0,0,1,.79,1.78,2.61,2.61,0,0,1-.48,1.59,2.94,2.94,0,0,1-1.12.9,6.48,6.48,0,0,1-2.5.47,5.45,5.45,0,0,1-2.79-.67A3.23,3.23,0,0,1,47,102.26a4,4,0,0,1-.21-.64Z" transform="translate(0.5 0.48)"/><path class="cls-2" d="M55.89,100c.54-.6.54-.6,1.15-1.32l2.61-3a12.1,12.1,0,0,0,1.11-1.43h2.46a17.78,17.78,0,0,0-.1,2v3.9h.35a8.55,8.55,0,0,0,1.19-.1v2.18a11.5,11.5,0,0,0-1.18-.07h-.36v.6a8.65,8.65,0,0,0,.1,1.48H60.75a10.68,10.68,0,0,0,.09-1.5v-.59H57.45c-.78,0-1.11,0-1.56,0Zm5-1.27c0-.54,0-1.2.07-1.72-.24.33-.42.57-.74,1l-1.75,2.13h2.42Z" transform="translate(0.5 0.48)"/><path class="cls-2" d="M66,99a2.85,2.85,0,0,1-.72-2.1,2.92,2.92,0,0,1,.73-2.13,2.62,2.62,0,0,1,1.86-.68,2.59,2.59,0,0,1,1.86.68,3.48,3.48,0,0,1,0,4.25,2.62,2.62,0,0,1-1.85.68A2.58,2.58,0,0,1,66,99Zm8.41-5,.64.48-7.82,10.14-.62-.48ZM67,96.85c0,1,.31,1.54.92,1.54s.91-.52.91-1.54-.31-1.49-.91-1.49S67,95.87,67,96.85Zm5,6.88a3.43,3.43,0,0,1,0-4.23,2.61,2.61,0,0,1,1.87-.68c1.63,0,2.57,1,2.57,2.79a2.92,2.92,0,0,1-.73,2.14,2.87,2.87,0,0,1-3.73,0Zm1-2.14c0,1,.31,1.56.92,1.56s.93-.52.93-1.56-.32-1.48-.91-1.48S72.92,100.62,72.92,101.59Z" transform="translate(0.5 0.48)"/><circle class="cls-5" cx="112.01" cy="111.99" r="111.99" transform="translate(-6.19 217.35) rotate(-86.46)"/></svg>