<svg id="レイヤー_1" data-name="レイヤー 1" xmlns="http://www.w3.org/2000/svg" xmlns:xlink="http://www.w3.org/1999/xlink" viewBox="0 0 224.96 224.98"><defs><style>.cls-1{fill:none;}.cls-2{fill:#fff;}.cls-3{fill:#b01f24;}.cls-3,.cls-4{stroke:#fff;stroke-miterlimit:10;}.cls-4{fill:#b5b5b6;fill-rule:evenodd;}.cls-5{opacity:0.25;fill:url(#新規パターンスウォッチ_8);}</style><pattern id="新規パターンスウォッチ_8" data-name="新規パターンスウォッチ 8" width="28.35" height="28.35" patternTransform="translate(19.31 22.9) scale(0.25 0.25)" patternUnits="userSpaceOnUse" viewBox="0 0 28.35 28.35"><rect class="cls-1" width="28.35" height="28.35"/><path class="cls-2" d="M19.84,14.17A5.67,5.67,0,1,1,14.17,8.5,5.67,5.67,0,0,1,19.84,14.17Z"/><path class="cls-2" d="M34,0a5.67,5.67,0,0,1-5.67,5.67A5.67,5.67,0,0,1,22.68,0,5.67,5.67,0,0,1,34,0Z"/><path class="cls-2" d="M5.67,0A5.67,5.67,0,0,1,0,5.67,5.67,5.67,0,0,1-5.67,0,5.67,5.67,0,0,1,0-5.67,5.67,5.67,0,0,1,5.67,0Z"/><path class="cls-2" d="M34,28.35a5.67,5.67,0,1,1-5.67-5.67A5.67,5.67,0,0,1,34,28.35Z"/><path class="cls-2" d="M5.67,28.35A5.67,5.67,0,0,1,0,34a5.67,5.67,0,0,1-5.67-5.67A5.67,5.67,0,0,1,0,22.68,5.67,5.67,0,0,1,5.67,28.35Z"/></pattern></defs><title>en05</title><g id="_05" data-name="05"><path class="cls-3" d="M112,0a112,112,0,1,1-62.56,19.1L112,112Z" transform="translate(0.5 0.48)"/><path class="cls-4" d="M49.42,19.12A112,112,0,0,1,112,0V112Z" transform="translate(0.5 0.48)"/><path class="cls-2" d="M97,144.24c0-.18,0-.28-.09-.68a32.49,32.49,0,0,1-.47-5.49,31.42,31.42,0,0,1,.33-4.57c.09-.52.09-.52.47-2.47a9.4,9.4,0,0,0,.19-1.28v-.07l2.33.24c-.71,1.51-1.37,5.67-1.38,8.67,0,.62,0,.62,0,.9v.28a2.57,2.57,0,0,1,0,.36h0a5.07,5.07,0,0,0,.21-.5c0-.12.12-.31.2-.59s.16-.36.33-.78a2.78,2.78,0,0,0,.21-.53l1.43.64a14.35,14.35,0,0,0-1.71,5.28,3,3,0,0,0,0,.47Zm3.9-11.31a12.26,12.26,0,0,0,3.12.28c.61,0,1,0,1.59,0,0-1,0-1.88,0-2.59a4.37,4.37,0,0,0-.05-.83l2.16-.05a16.4,16.4,0,0,0-.12,2.54V133a17.09,17.09,0,0,0,2.33-.41l.38-.14.14,0,.07,2a2.26,2.26,0,0,0-.51.08c-.58.12-1.48.28-2.39.38v.38c0,1,0,1,.17,3.9a14.25,14.25,0,0,1,2.71,1.57,3.22,3.22,0,0,0,.48.3l-.83,2.09a6.27,6.27,0,0,0-1.29-1.11l-1.09-.71v.25a2.87,2.87,0,0,1-.14,1c-.39,1-1.6,1.63-3.28,1.63-2.26,0-3.64-1.07-3.64-2.84s1.47-2.84,3.56-2.84a3.9,3.9,0,0,1,1.53.24c0-.43-.07-1.28-.14-3.68-.69,0-1.1,0-1.55,0-.64,0-1.33,0-2.14-.09l-.52,0-.29,0h-.28Zm3.5,7.23c-1.1,0-1.79.43-1.79,1.14s.62,1.07,1.58,1.07a1.71,1.71,0,0,0,1.4-.53,1.44,1.44,0,0,0,.23-.94v-.46A3.59,3.59,0,0,0,104.43,140.16Z" transform="translate(0.5 0.48)"/><path class="cls-2" d="M116.19,130.91a21.49,21.49,0,0,0-.13,2.62,32.32,32.32,0,0,0,.32,4.63c.3,1.8.85,2.9,1.4,2.9.26,0,.5-.26.71-.74a12.89,12.89,0,0,0,.91-3.13,8.84,8.84,0,0,0,1.73,1.57c-.9,3.37-1.9,4.77-3.36,4.77-1.16,0-2.09-.85-2.78-2.5s-1-4.23-1.09-9a9,9,0,0,0-.07-1.1Zm8.17.78a17.22,17.22,0,0,1,3.88,9.28l-2.14.82a17.46,17.46,0,0,0-1.1-5,15.21,15.21,0,0,0-2.45-4.25Z" transform="translate(0.5 0.48)"/><path class="cls-2" d="M91.55,170.19a2.5,2.5,0,0,0,.55,1,2.82,2.82,0,0,0,2.17.86,3.27,3.27,0,0,0,2.94-1.62,6.89,6.89,0,0,0,.79-3.13A6,6,0,0,1,93.42,169c-4.15,0-6.84-2.51-6.84-6.38,0-4.07,3.13-6.86,7.69-6.86a7.43,7.43,0,0,1,6.63,3.41,11.88,11.88,0,0,1,1.45,6.21,15,15,0,0,1-1.31,6.45,6.86,6.86,0,0,1-3.92,3.5,10.4,10.4,0,0,1-3.08.49,7.74,7.74,0,0,1-5.32-1.8,6.6,6.6,0,0,1-1.78-2.74Zm6-7.85a3.25,3.25,0,0,0-6.47,0,2.86,2.86,0,0,0,3.13,2.95C96.18,165.31,97.54,164.11,97.54,162.34Z" transform="translate(0.5 0.48)"/><path class="cls-2" d="M106.7,156a15.8,15.8,0,0,0,2.76.16h2.93a21,21,0,0,0,2.85-.1c-.11,1.22-.16,2.19-.16,3.71v12.07a26.35,26.35,0,0,0,.19,3.48h-5a28.09,28.09,0,0,0,.18-3.48V160.08h-.92a23.35,23.35,0,0,0-2.81.17Z" transform="translate(0.5 0.48)"/><path class="cls-2" d="M122.81,167.57a5,5,0,0,1,0-6.1,3.73,3.73,0,0,1,2.67-1,3.69,3.69,0,0,1,2.68,1,5,5,0,0,1,0,6.11,3.7,3.7,0,0,1-2.66,1A3.75,3.75,0,0,1,122.81,167.57Zm12.12-7.25.91.69-11.25,14.6-.9-.69Zm-10.75,4.19c0,1.45.44,2.21,1.32,2.21s1.32-.74,1.32-2.21-.45-2.16-1.32-2.16S124.18,163.09,124.18,164.51Zm7.18,9.91a5,5,0,0,1,0-6.09,3.78,3.78,0,0,1,2.7-1c2.34,0,3.71,1.49,3.71,4a4.22,4.22,0,0,1-1.05,3.08,4.14,4.14,0,0,1-5.37,0Zm1.36-3.09c0,1.48.45,2.24,1.33,2.24s1.33-.74,1.33-2.24-.45-2.12-1.31-2.12S132.72,169.93,132.72,171.33Z" transform="translate(0.5 0.48)"/><ellipse class="cls-5" cx="112.02" cy="111.99" rx="111.98" ry="111.99" transform="translate(-1.4 2.42) rotate(-0.98)"/><path d="M80.52,20.42a5.1,5.1,0,0,0-.69-1l1.25-.26a6.44,6.44,0,0,1,.84,1.21h1.86a7.19,7.19,0,0,0,.73-1.21l1.34.27a8.18,8.18,0,0,1-.69.94h1.52A9.24,9.24,0,0,0,88,20.34v1.22a6.89,6.89,0,0,0-1.11-.06H84.54v2.11H86.2l-1-.44A5.64,5.64,0,0,0,86,21.51l1.19.42a8.9,8.9,0,0,1-.87,1.68h.75a7.58,7.58,0,0,0,1.21-.08v1.25a8.14,8.14,0,0,0-1.21-.06H78.71a8.47,8.47,0,0,0-1.21.06V23.53a7.49,7.49,0,0,0,1.21.08h.68A7.1,7.1,0,0,0,78.45,22l1-.47a10.59,10.59,0,0,1,1,1.64l-1,.45h1.66V21.5H78.91a7.73,7.73,0,0,0-1.12.06V20.34a9,9,0,0,0,1.29.08Zm-1.61,5.89c0-.47,0-.74,0-1.07.4,0,.73,0,1.12,0h5.74c.46,0,.74,0,1.14,0a9.68,9.68,0,0,0-.05,1.07v2.76a8.49,8.49,0,0,0,.08,1.28H85.53V29.9H80.21v.45H78.84a9.09,9.09,0,0,0,.07-1.25Zm1.3.77h5.32V26.3H80.21Zm0,1.79h5.32v-.81H80.21Zm3.14-5.26V21.5h-1v2.11Z" transform="translate(0.5 0.48)"/><path d="M89.34,23.84a4.74,4.74,0,0,0,.91.07h.84a5,5,0,0,0,.91-.07,11.14,11.14,0,0,0,0,1.31v2.57a1.87,1.87,0,0,0,.59.67,2.3,2.3,0,0,0,.6.31,9.83,9.83,0,0,0,2.38.22,33.31,33.31,0,0,0,5-.32,9.35,9.35,0,0,0-.35,1.43c-1.57.07-2.78.1-4.79.1a9,9,0,0,1-2.7-.3,3,3,0,0,1-1.39-1l-.19.18a10.21,10.21,0,0,1-1.33,1.16l-.65-1.32a6.45,6.45,0,0,0,1.58-1.15V25.13H90.1a3.72,3.72,0,0,0-.76.06Zm.92-4.38a13.42,13.42,0,0,1,2.07,2.17l-1,1a11.59,11.59,0,0,0-2-2.24Zm4.82,2.43a7.07,7.07,0,0,0-1-.62l.93-.54H93.87a8.58,8.58,0,0,0-1.25.06V19.57a12.35,12.35,0,0,0,1.43.07h3.88a5.77,5.77,0,0,0,1.35-.09l.62.75a3.45,3.45,0,0,0-.6.45,15.33,15.33,0,0,1-1.55,1.14h1a7.37,7.37,0,0,0,1.22-.06c0,.32-.05.72-.05,1.39v3.69c0,.69,0,.93-.21,1.11s-.52.27-1.26.27h-.54a3,3,0,0,0-.28-1.14,5.51,5.51,0,0,0,.8.07c.26,0,.27,0,.27-.33v-.47h-1.8v.5a7.47,7.47,0,0,0,.08,1.33H95.61a10.44,10.44,0,0,0,.07-1.33v-.5H94.06V27a6.59,6.59,0,0,0,.07,1.31H92.78A10.6,10.6,0,0,0,92.84,27V23.23c0-.69,0-1,0-1.4a9.63,9.63,0,0,0,1.34.06Zm-1,1v.78h1.62v-.78Zm0,2.54h1.62v-.8H94.06Zm1-4.72c.43.3.54.37,1.25.9a11.8,11.8,0,0,0,1.2-.9Zm1.76,3h1.8v-.78h-1.8Zm1.8,1h-1.8v.8h1.8Z" transform="translate(0.5 0.48)"/><path d="M81.38,46.13a1.55,1.55,0,0,0,.29.52,1.51,1.51,0,0,0,1.13.44,1.7,1.7,0,0,0,1.53-.84,3.53,3.53,0,0,0,.41-1.63,3.14,3.14,0,0,1-2.39.86,3.23,3.23,0,0,1-3.56-3.32c0-2.12,1.64-3.57,4-3.57a3.85,3.85,0,0,1,3.45,1.78A6.15,6.15,0,0,1,87,43.6,7.71,7.71,0,0,1,86.32,47a3.57,3.57,0,0,1-2,1.82,5.21,5.21,0,0,1-1.6.25,4.05,4.05,0,0,1-2.77-.93A3.47,3.47,0,0,1,79,46.67ZM84.5,42a1.69,1.69,0,0,0-3.37,0,1.49,1.49,0,0,0,1.63,1.53A1.57,1.57,0,0,0,84.5,42Z" transform="translate(0.5 0.48)"/><path d="M88.68,43.54A2.88,2.88,0,0,1,88,41.43a2.91,2.91,0,0,1,.73-2.12,2.61,2.61,0,0,1,1.86-.68,2.57,2.57,0,0,1,1.85.68,3.46,3.46,0,0,1,0,4.24,2.82,2.82,0,0,1-3.71,0Zm8.41-5,.64.48L89.91,49.13l-.62-.48Zm-7.47,2.91c0,1,.32,1.53.93,1.53s.91-.51.91-1.53-.31-1.5-.91-1.5S89.62,40.44,89.62,41.42Zm5,6.88a3.45,3.45,0,0,1,0-4.23,2.63,2.63,0,0,1,1.87-.68c1.63,0,2.58,1,2.58,2.79a2.89,2.89,0,0,1-.73,2.13,2.85,2.85,0,0,1-3.73,0Zm1-2.14c0,1,.31,1.55.92,1.55s.92-.51.92-1.55-.31-1.48-.91-1.48S95.56,45.18,95.56,46.16Z" transform="translate(0.5 0.48)"/></g></svg>