<svg id="レイヤー_1" data-name="レイヤー 1" xmlns="http://www.w3.org/2000/svg" xmlns:xlink="http://www.w3.org/1999/xlink" viewBox="0 0 225 225"><defs><style>.cls-1{fill:none;}.cls-2{fill:#fff;}.cls-3{fill:#b01f24;}.cls-3,.cls-4{stroke:#fff;stroke-miterlimit:10;}.cls-4{fill:#b5b5b6;fill-rule:evenodd;}.cls-5{opacity:0.25;fill:url(#新規パターンスウォッチ_8);}</style><pattern id="新規パターンスウォッチ_8" data-name="新規パターンスウォッチ 8" width="28.35" height="28.35" patternTransform="translate(18.13 22.41) scale(0.25 0.25)" patternUnits="userSpaceOnUse" viewBox="0 0 28.35 28.35"><rect class="cls-1" width="28.35" height="28.35"/><path class="cls-2" d="M19.84,14.17A5.67,5.67,0,1,1,14.17,8.5,5.67,5.67,0,0,1,19.84,14.17Z"/><path class="cls-2" d="M34,0a5.67,5.67,0,0,1-5.67,5.67A5.67,5.67,0,0,1,22.68,0,5.67,5.67,0,0,1,34,0Z"/><path class="cls-2" d="M5.67,0A5.67,5.67,0,0,1,0,5.67,5.67,5.67,0,0,1-5.67,0,5.67,5.67,0,0,1,0-5.67,5.67,5.67,0,0,1,5.67,0Z"/><path class="cls-2" d="M34,28.35a5.67,5.67,0,1,1-5.67-5.67A5.67,5.67,0,0,1,34,28.35Z"/><path class="cls-2" d="M5.67,28.35A5.67,5.67,0,0,1,0,34a5.67,5.67,0,0,1-5.67-5.67A5.67,5.67,0,0,1,0,22.68,5.67,5.67,0,0,1,5.67,28.35Z"/></pattern></defs><title>en07</title><g id="_07" data-name="07"><path class="cls-3" d="M112,0A112,112,0,1,1,74.07,6.62L112,112Z" transform="translate(0.5 0.5)"/><path class="cls-4" d="M74.07,6.62A112,112,0,0,1,112,0V112Z" transform="translate(0.5 0.5)"/><path class="cls-2" d="M89.64,130.73a5.92,5.92,0,0,0,.66-1.8l1.93.35c-.24.48-.24.48-.48,1-.09.15-.12.26-.25.45h1.09a17.51,17.51,0,0,0,1.78-.07c0,.52-.05.91-.05,1.81v3.75c0,.88,0,1.22,0,1.64-.39,0-.77,0-1.17,0h-.9v3.37l.11,0a14.42,14.42,0,0,0,.82-3.17l1.26.32c-.31,1.11-.62,2.09-.84,2.7.27-.05.43-.07.86-.17a6.73,6.73,0,0,0-.43-1l1-.4A16.09,16.09,0,0,1,96.15,142l-1.16.5a6.18,6.18,0,0,0-.17-.61c-.57.16-1.23.31-2.54.56v.1c0,.19,0,.26.12.31.23.16.94.21,3.06.21,1.47,0,3.31-.05,4-.11s1.24-.29,1.4-.7a4.64,4.64,0,0,0,.21-1.47,5.74,5.74,0,0,0,1.76.6,4.92,4.92,0,0,1-.52,2.16c-.57,1-1.23,1.09-7.15,1.09-3.93,0-4.47-.23-4.47-1.83l0-5h-.46a12.79,12.79,0,0,1-.56,3.79,8.13,8.13,0,0,1-1.81,3.22,4.53,4.53,0,0,0-1.36-1.45,5.27,5.27,0,0,0,1.81-2.95,11.06,11.06,0,0,0,.35-2.61c-.63,0-.94,0-1.39,0,0-.48.06-.86.06-1.64v-3.77c0-.77,0-1.22-.06-1.79a15,15,0,0,0,1.73.07Zm-.78,2.85h1.25v-1.45H88.86Zm0,2.85h1.25v-1.49H88.86Zm2.63-2.85H92.8v-1.45H91.49Zm0,2.85H92.8v-1.49H91.49Zm4.64-.64a9,9,0,0,0-1.43.07v-1.68a10.33,10.33,0,0,0,1.43.07h1.52v-1.59H96.39a8.81,8.81,0,0,0-1.31.07v-1.66a7.62,7.62,0,0,0,1.31.07h1.26v-.69a8.28,8.28,0,0,0-.08-1.28h1.79a9.39,9.39,0,0,0-.07,1.25v.72h1.37a6.15,6.15,0,0,0,1.24-.08v1.67a9,9,0,0,0-1.26-.07H99.29v1.59h1.57a11.64,11.64,0,0,0,1.49-.07v1.69a8.86,8.86,0,0,0-1.49-.08H99.67a10.12,10.12,0,0,0,3.26,3.31,5.58,5.58,0,0,0-1,1.5,11.65,11.65,0,0,1-2.71-3.33c0,.55,0,1.3,0,1.81v1.66a10.17,10.17,0,0,0,.09,1.64H97.57a11.13,11.13,0,0,0,.08-1.6v-1.56c0-.38,0-1.21,0-1.76a8.49,8.49,0,0,1-1.91,2.68,4.6,4.6,0,0,0-.92-1.47,9.29,9.29,0,0,0,2.37-2.88Z" transform="translate(0.5 0.5)"/><path class="cls-2" d="M116.56,132.51a18.44,18.44,0,0,0,2.23-.09,22.29,22.29,0,0,0-.1,2.61c-.06,2.36-.23,5.28-.4,6.42-.22,1.59-.47,2.19-1,2.57a3.41,3.41,0,0,1-2.06.47,19.64,19.64,0,0,1-2.64-.19,7.92,7.92,0,0,0-.48-2.09,15.62,15.62,0,0,0,3,.35c.81,0,1.07-.32,1.26-1.47a51.67,51.67,0,0,0,.4-6.74h-4.68a15,15,0,0,1-1.57,5.75,12,12,0,0,1-5,4.61,6,6,0,0,0-1.43-1.79,9.16,9.16,0,0,0,4.87-4.3,12.88,12.88,0,0,0,1.09-4.27h-3a17.89,17.89,0,0,0-2.14.11v-2.07a15.88,15.88,0,0,0,2.19.12h3.08c0-.69,0-.87,0-1.76a9.19,9.19,0,0,0-.1-1.68h2.29a24.41,24.41,0,0,0-.18,3.44Z" transform="translate(0.5 0.5)"/><path class="cls-2" d="M123.79,131.59a12.42,12.42,0,0,0,.74-2.52l2,.28a18.07,18.07,0,0,1-.88,2.24h1c.85,0,1.35,0,1.49-.05a4.35,4.35,0,0,0,0,.52s0,.08,0,1v1.46a13.09,13.09,0,0,0,2.52-5.44l2,.32a5.16,5.16,0,0,0-.24.68c-.07.26-.34,1.05-.5,1.45h3.68a10.42,10.42,0,0,0,1.47-.07,7.89,7.89,0,0,0-.07,1.36c0,2.14-.19,6.13-.26,7-.33,4.37-.78,5-3.44,5-.41,0-.84,0-1.71-.07a6,6,0,0,0-.48-2,14.5,14.5,0,0,0,2.21.24c.74,0,1-.14,1.16-.64.36-1.07.58-4.33.63-9.08h-4a13.55,13.55,0,0,1-2.21,3.25,4.45,4.45,0,0,0-.74-.87v6.63a14.63,14.63,0,0,0,.07,1.71h-1.85v-1h-2.45v1.52H121.9a17.43,17.43,0,0,0,.09-2.23v-9a14.59,14.59,0,0,0-.07-1.76c.3,0,.64.05.92.05h1Zm0,4.73h2.47v-3h-2.47Zm0,5h2.47V138h-2.47Zm8.13-.78a16.45,16.45,0,0,0-2.23-4.38l1.58-.85a23.26,23.26,0,0,1,2.4,4.28Z" transform="translate(0.5 0.5)"/><path class="cls-2" d="M91.59,170.19a2.63,2.63,0,0,0,.55,1,2.85,2.85,0,0,0,2.17.85,3.29,3.29,0,0,0,3-1.61,7.12,7.12,0,0,0,.78-3.13A6,6,0,0,1,93.46,169c-4.15,0-6.84-2.51-6.84-6.38,0-4.08,3.13-6.87,7.69-6.87a7.43,7.43,0,0,1,6.63,3.41,11.85,11.85,0,0,1,1.45,6.22,15,15,0,0,1-1.31,6.45,6.86,6.86,0,0,1-3.92,3.5,10.39,10.39,0,0,1-3.08.48A7.78,7.78,0,0,1,88.76,174,6.85,6.85,0,0,1,87,171.23Zm6-7.85a3.25,3.25,0,0,0-6.47,0,2.87,2.87,0,0,0,3.13,2.95C96.22,165.31,97.58,164.11,97.58,162.34Z" transform="translate(0.5 0.5)"/><path class="cls-2" d="M109.76,162.61a7,7,0,0,1-.07.74,6,6,0,0,1,3.73-1.11,6.69,6.69,0,0,1,5,1.89,6.21,6.21,0,0,1,1.73,4.61c0,4.42-2.9,7-7.78,7-2.9,0-5.18-1-6.52-2.84a7.13,7.13,0,0,1-1.15-2.58l4.63-.71a2.74,2.74,0,0,0,3,2.23,3,3,0,0,0,3.23-3.06,2.92,2.92,0,0,0-3.18-3,2.88,2.88,0,0,0-2.9,1.7l-4.29-.41c.1-.69.17-1.24.24-1.89L106,158c0-.49.07-1,.09-1.92,1,0,1.2,0,2.3,0h6.89a29.47,29.47,0,0,0,3.8-.16v4a36,36,0,0,0-3.76-.16H110Z" transform="translate(0.5 0.5)"/><path class="cls-2" d="M122.86,167.56a5,5,0,0,1,0-6.09,3.76,3.76,0,0,1,2.68-1,3.7,3.7,0,0,1,2.68,1,5,5,0,0,1,0,6.11,4.11,4.11,0,0,1-5.35,0ZM135,160.31l.91.69-11.25,14.61-.9-.69Zm-10.76,4.2c0,1.45.45,2.21,1.33,2.21s1.31-.75,1.31-2.21-.45-2.16-1.31-2.16S124.22,163.09,124.22,164.51Zm7.18,9.91a5,5,0,0,1,0-6.1,3.77,3.77,0,0,1,2.69-1c2.35,0,3.72,1.48,3.72,4a4.18,4.18,0,0,1-1.06,3.07,3.72,3.72,0,0,1-2.67,1A3.81,3.81,0,0,1,131.4,174.42Zm1.37-3.1c0,1.49.45,2.25,1.33,2.25s1.33-.74,1.33-2.25-.45-2.12-1.32-2.12S132.77,169.93,132.77,171.32Z" transform="translate(0.5 0.5)"/><circle class="cls-5" cx="112" cy="112" r="112" transform="translate(-3.16 220.71) rotate(-88.09)"/><path d="M82.57,16.13a9.67,9.67,0,0,0-1,.06v-.85a12.33,12.33,0,0,1-1.5,1.33,4.24,4.24,0,0,0-.92-1.17,9.35,9.35,0,0,0,3.15-3.44,3.69,3.69,0,0,0,.48-1.21l1.44.51a3.91,3.91,0,0,0-.33.61,13.17,13.17,0,0,1-1.93,2.92l.63,0h5.15a12.06,12.06,0,0,1-2-3,2.91,2.91,0,0,0-.25-.5l1.33-.52a5,5,0,0,0,.47,1,9.28,9.28,0,0,0,3.32,3.48,5.61,5.61,0,0,0-.91,1.3,13.86,13.86,0,0,1-1.49-1.26v.4a16.3,16.3,0,0,1-.5,5c-.26.53-.7.7-1.76.7l-1.24-.05a5.07,5.07,0,0,0-.36-1.4,9.56,9.56,0,0,0,1.45.16c.45,0,.58-.05.69-.23a11.78,11.78,0,0,0,.37-3.19v-.7h-2.3a6.35,6.35,0,0,1-.94,3.07,6.94,6.94,0,0,1-3,2.64,4.17,4.17,0,0,0-.88-1.17,5.61,5.61,0,0,0,1.86-1.11,4.64,4.64,0,0,0,1.64-3.43Z" transform="translate(0.5 0.5)"/><path d="M96.05,11.21a2.8,2.8,0,0,0-.1.37c0,.15,0,.21-.07.41s0,.25-.2,1.15c-.05.26-.05.28-.09.44.35,0,.52,0,.75,0a2.32,2.32,0,0,1,1.77.64,2.9,2.9,0,0,1,.56,2.12c0,2.06-.34,3.71-.92,4.37a1.54,1.54,0,0,1-1.33.53,5.88,5.88,0,0,1-1.85-.34c0-.24,0-.41,0-.53a4.91,4.91,0,0,0-.12-1,4.88,4.88,0,0,0,1.75.47c.35,0,.54-.23.72-.82a10.69,10.69,0,0,0,.31-2.73c0-1.1-.28-1.43-1.22-1.43a5.92,5.92,0,0,0-.7,0,26.79,26.79,0,0,1-.73,2.6,25,25,0,0,1-1.44,3.37l-.18.36a1.19,1.19,0,0,1-.1.2l-1.39-.76a13.38,13.38,0,0,0,1.25-2.26A19.94,19.94,0,0,0,93.91,15a20.14,20.14,0,0,0-2.14.38l-.15-1.41c.45,0,1.9-.15,2.56-.24a19.68,19.68,0,0,0,.31-2.42V11Zm4,1.53a11.78,11.78,0,0,1,2.47,4.68l-1.37.69a10.71,10.71,0,0,0-1-2.72,7.74,7.74,0,0,0-1.38-2.05Z" transform="translate(0.5 0.5)"/><path d="M106.83,13.45a26.06,26.06,0,0,0-.54,2.95,2.33,2.33,0,0,1-.06.35l0,0a5.67,5.67,0,0,1,3.63-1.14c2,0,3.38,1,3.38,2.54A2.93,2.93,0,0,1,112,20.49a5.17,5.17,0,0,1-3.16.81,10.9,10.9,0,0,1-3.06-.42,5.12,5.12,0,0,0-.18-1.55,9.67,9.67,0,0,0,3.23.6c1.69,0,2.86-.7,2.86-1.72,0-.81-.75-1.28-2-1.28a5.49,5.49,0,0,0-3,.87,2.82,2.82,0,0,0-.54.52l-1.51-.05c0-.22,0-.27.1-.72.09-.74.29-2.08.5-3.49a4.37,4.37,0,0,0,.07-.7ZM107,11.1a18,18,0,0,0,4.47,1.33L111,13.81a22.25,22.25,0,0,1-4.68-1.5Z" transform="translate(0.5 0.5)"/><path d="M90.05,24.09a6.65,6.65,0,0,0-.19.81c-.06.28-.12.52-.25,1.05a10.53,10.53,0,0,0,1.92-.33l0,1.37-.38.06c-.43.08-1.17.16-1.91.22A23.25,23.25,0,0,1,88,30.75c-.27.58-.38.8-.84,1.64l-.22.43-1.38-.77a11.16,11.16,0,0,0,1.16-1.91,19.05,19.05,0,0,0,1.13-2.83H86.56l-.63,0V25.93a8.72,8.72,0,0,0,1.62.1h.61a13.36,13.36,0,0,0,.36-2.08Zm5.43,9.71a7.27,7.27,0,0,0-1.83-1.48c0,.1,0,.19,0,.24a1.92,1.92,0,0,1-.51,1.27,2.78,2.78,0,0,1-2,.67c-1.59,0-2.62-.79-2.62-2s1.07-2.06,2.59-2.06a6.44,6.44,0,0,1,1.12.11c0-.55-.06-1-.06-1.38a6.55,6.55,0,0,1,.09-1.21l1.39.07a4,4,0,0,0-.14,1.21,11.92,11.92,0,0,0,.11,1.65A7.36,7.36,0,0,1,95.54,32a5.22,5.22,0,0,1,.42.32l.18.17Zm-4.25-2.19c-.78,0-1.29.32-1.29.83s.43.78,1.18.78,1.21-.34,1.21-1c0-.12,0-.41,0-.41A3.07,3.07,0,0,0,91.23,31.61Zm4.31-3.32a14.56,14.56,0,0,0-3.45-1.68l.72-1.16a19.75,19.75,0,0,1,3.38,1.6Z" transform="translate(0.5 0.5)"/><path d="M99.78,25.06a13.9,13.9,0,0,0-.1,1.83,22.66,22.66,0,0,0,.23,3.21c.21,1.25.59,2,1,2,.18,0,.35-.18.49-.51a8.74,8.74,0,0,0,.64-2.17,5.81,5.81,0,0,0,1.2,1.09c-.63,2.34-1.32,3.31-2.34,3.31-.8,0-1.45-.59-1.93-1.74s-.71-2.94-.75-6.26c0-.42,0-.5,0-.77Zm5.67.54a12,12,0,0,1,2.7,6.45l-1.49.57a12.09,12.09,0,0,0-.77-3.47,10.32,10.32,0,0,0-1.7-2.95Z" transform="translate(0.5 0.5)"/><path d="M91.81,42.17c0,.06,0,.18,0,.39A3.1,3.1,0,0,1,93.72,42a3.48,3.48,0,0,1,2.58,1,3.24,3.24,0,0,1,.9,2.39c0,2.3-1.51,3.67-4,3.67a4,4,0,0,1-3.4-1.47,4,4,0,0,1-.6-1.35l2.41-.37A1.44,1.44,0,0,0,93.13,47a1.55,1.55,0,0,0,1.68-1.6,1.52,1.52,0,0,0-1.65-1.58,1.48,1.48,0,0,0-1.51.89l-2.23-.22c0-.36.08-.65.12-1l.32-3.74c0-.26,0-.54,0-1,.5,0,.62,0,1.2,0h3.58a14.47,14.47,0,0,0,2-.09v2.1c-.64-.06-1.19-.08-2-.08H91.93Z" transform="translate(0.5 0.5)"/><path d="M98.92,43.53a3.45,3.45,0,0,1,0-4.23,2.57,2.57,0,0,1,1.86-.69,2.53,2.53,0,0,1,1.85.69,3.46,3.46,0,0,1,0,4.24,2.85,2.85,0,0,1-3.71,0Zm8.41-5L108,39l-7.82,10.15-.62-.48Zm-7.47,2.92c0,1,.32,1.53.93,1.53s.91-.51.91-1.53-.31-1.5-.91-1.5S99.86,40.42,99.86,41.41Zm5,6.88a3.45,3.45,0,0,1,0-4.23,2.59,2.59,0,0,1,1.87-.69c1.63,0,2.58,1,2.58,2.8a2.91,2.91,0,0,1-.73,2.13,2.88,2.88,0,0,1-3.73,0Zm1-2.15c0,1,.31,1.56.92,1.56s.92-.52.92-1.56-.31-1.47-.91-1.47S105.8,45.17,105.8,46.14Z" transform="translate(0.5 0.5)"/></g></svg>