<svg id="レイヤー_1" data-name="レイヤー 1" xmlns="http://www.w3.org/2000/svg" xmlns:xlink="http://www.w3.org/1999/xlink" viewBox="0 0 224.96 225"><defs><style>.cls-1{fill:none;}.cls-2{fill:#fff;}.cls-3{fill:#b01f24;}.cls-3,.cls-4{stroke:#fff;stroke-miterlimit:10;}.cls-4{fill:#b5b5b6;fill-rule:evenodd;}.cls-5{opacity:0.25;fill:url(#新規パターンスウォッチ_8);}</style><pattern id="新規パターンスウォッチ_8" data-name="新規パターンスウォッチ 8" width="28.35" height="28.35" patternTransform="translate(5.64 29.99) scale(0.25 0.25)" patternUnits="userSpaceOnUse" viewBox="0 0 28.35 28.35"><rect class="cls-1" width="28.35" height="28.35"/><path class="cls-2" d="M19.84,14.17A5.67,5.67,0,1,1,14.17,8.5,5.67,5.67,0,0,1,19.84,14.17Z"/><path class="cls-2" d="M34,0a5.67,5.67,0,0,1-5.67,5.67A5.67,5.67,0,0,1,22.68,0,5.67,5.67,0,0,1,34,0Z"/><path class="cls-2" d="M5.67,0A5.67,5.67,0,0,1,0,5.67,5.67,5.67,0,0,1-5.67,0,5.67,5.67,0,0,1,0-5.67,5.67,5.67,0,0,1,5.67,0Z"/><path class="cls-2" d="M34,28.35a5.67,5.67,0,1,1-5.67-5.67A5.67,5.67,0,0,1,34,28.35Z"/><path class="cls-2" d="M5.67,28.35A5.67,5.67,0,0,1,0,34a5.67,5.67,0,0,1-5.67-5.67A5.67,5.67,0,0,1,0,22.68,5.67,5.67,0,0,1,5.67,28.35Z"/></pattern></defs><title>en09</title><g id="_09" data-name="09"><path class="cls-3" d="M112,0a112,112,0,1,1-31.2,4.44L112,112Z" transform="translate(0.5 0.5)"/><path class="cls-4" d="M80.78,4.44A112,112,0,0,1,112,0V112Z" transform="translate(0.5 0.5)"/><path class="cls-2" d="M89.63,130.73a5.64,5.64,0,0,0,.65-1.8l1.94.35-.49,1a4.08,4.08,0,0,1-.24.45h1.09a17.77,17.77,0,0,0,1.78-.07c0,.52,0,.91,0,1.81v3.75c0,.88,0,1.23,0,1.64l-1.17,0h-.9v3.36l.1,0A14.43,14.43,0,0,0,93.2,138l1.26.33c-.31,1.1-.62,2.08-.84,2.69.27-.05.43-.07.86-.17a6.73,6.73,0,0,0-.43-1l1-.4A17.07,17.07,0,0,1,96.14,142l-1.16.5a6.18,6.18,0,0,0-.17-.61c-.57.16-1.23.31-2.54.56v.1c0,.19,0,.26.12.31s.93.21,3.06.21c1.46,0,3.31-.05,4-.11s1.24-.29,1.4-.7a4.44,4.44,0,0,0,.2-1.47,5.83,5.83,0,0,0,1.76.6,4.91,4.91,0,0,1-.51,2.16c-.57,1-1.23,1.09-7.15,1.09-3.94,0-4.47-.23-4.47-1.83l0-5h-.47a12.45,12.45,0,0,1-.55,3.78,8.25,8.25,0,0,1-1.81,3.22,4.53,4.53,0,0,0-1.36-1.45,5.32,5.32,0,0,0,1.81-2.95,10.57,10.57,0,0,0,.34-2.6c-.62,0-.93,0-1.38,0,0-.48,0-.86,0-1.64v-3.76c0-.78,0-1.23,0-1.8a14.9,14.9,0,0,0,1.73.07Zm-.78,2.85h1.24v-1.45H88.85Zm0,2.85h1.24v-1.49H88.85Zm2.63-2.85h1.31v-1.45H91.48Zm0,2.85h1.31v-1.49H91.48Zm4.64-.64a10.33,10.33,0,0,0-1.43.07v-1.68a10.33,10.33,0,0,0,1.43.07h1.52v-1.59H96.38a8.72,8.72,0,0,0-1.31.07v-1.66a7.62,7.62,0,0,0,1.31.07h1.26v-.69a7,7,0,0,0-.09-1.27h1.8a7.76,7.76,0,0,0-.07,1.24v.72h1.36a6.09,6.09,0,0,0,1.24-.08v1.67a9,9,0,0,0-1.26-.07H99.28v1.59h1.57a11.37,11.37,0,0,0,1.48-.07v1.69a9.92,9.92,0,0,0-1.48-.08H99.66a10,10,0,0,0,3.26,3.31,5.36,5.36,0,0,0-1,1.5,11.65,11.65,0,0,1-2.71-3.33c0,.56.05,1.3.05,1.82v1.65a10.17,10.17,0,0,0,.09,1.64h-1.8a9.55,9.55,0,0,0,.09-1.6v-1.56c0-.38,0-1.21,0-1.76a8.36,8.36,0,0,1-1.92,2.68,4.59,4.59,0,0,0-.91-1.47,9.13,9.13,0,0,0,2.36-2.88Z" transform="translate(0.5 0.5)"/><path class="cls-2" d="M116.55,132.51a18.26,18.26,0,0,0,2.22-.09,22.29,22.29,0,0,0-.1,2.61c0,2.36-.22,5.28-.4,6.42-.22,1.59-.46,2.19-1,2.57a3.39,3.39,0,0,1-2,.47,19.43,19.43,0,0,1-2.64-.19,8.33,8.33,0,0,0-.49-2.09,15.72,15.72,0,0,0,3,.35c.81,0,1.07-.32,1.26-1.47a49.88,49.88,0,0,0,.4-6.73H112a14.86,14.86,0,0,1-1.57,5.74,11.92,11.92,0,0,1-5,4.61,6,6,0,0,0-1.43-1.79,9.17,9.17,0,0,0,4.86-4.3,12.41,12.41,0,0,0,1.09-4.26h-3a18,18,0,0,0-2.14.1v-2.07a15.88,15.88,0,0,0,2.19.12h3.07c0-.69,0-.87,0-1.76a8.94,8.94,0,0,0-.11-1.68h2.3a21.18,21.18,0,0,0-.19,3.44Z" transform="translate(0.5 0.5)"/><path class="cls-2" d="M123.77,131.59a12.42,12.42,0,0,0,.74-2.52l2,.28a19.79,19.79,0,0,1-.88,2.24h.95c.84,0,1.34,0,1.48-.05a3.35,3.35,0,0,0,0,.52s0,.09,0,1v1.45a13.09,13.09,0,0,0,2.52-5.44l2,.33a6,6,0,0,0-.24.67c-.07.26-.34,1.05-.5,1.45h3.68a10.42,10.42,0,0,0,1.47-.07,7.89,7.89,0,0,0-.07,1.36c0,2.14-.19,6.13-.26,7-.33,4.37-.78,5-3.44,5-.41,0-.84,0-1.71-.07a6,6,0,0,0-.48-2,14.5,14.5,0,0,0,2.21.24c.74,0,1-.14,1.16-.64.36-1.07.58-4.33.64-9.08h-4a13.26,13.26,0,0,1-2.21,3.25,4.77,4.77,0,0,0-.74-.87v6.63c0,.64,0,1.23.07,1.71h-1.85v-1h-2.45v1.52h-1.88a17.9,17.9,0,0,0,.08-2.23v-9a12.73,12.73,0,0,0-.07-1.76c.3,0,.64.05.92.05h1Zm0,4.73h2.47v-3h-2.47Zm0,5h2.47V138h-2.47Zm8.13-.78a16.9,16.9,0,0,0-2.22-4.38l1.57-.85a23.26,23.26,0,0,1,2.4,4.28Z" transform="translate(0.5 0.5)"/><path class="cls-2" d="M91.58,170.19a2.5,2.5,0,0,0,.55,1,2.84,2.84,0,0,0,2.17.85,3.28,3.28,0,0,0,2.94-1.61,7,7,0,0,0,.79-3.13A6.06,6.06,0,0,1,93.44,169c-4.14,0-6.84-2.51-6.84-6.38,0-4.08,3.14-6.87,7.7-6.87a7.43,7.43,0,0,1,6.63,3.41,12,12,0,0,1,1.45,6.22,15,15,0,0,1-1.31,6.45,6.86,6.86,0,0,1-3.92,3.5,10.39,10.39,0,0,1-3.08.48A7.76,7.76,0,0,1,88.75,174,6.74,6.74,0,0,1,87,171.23Zm6-7.85a3.26,3.26,0,0,0-6.48,0,2.88,2.88,0,0,0,3.14,2.95C96.21,165.31,97.57,164.11,97.57,162.34Z" transform="translate(0.5 0.5)"/><path class="cls-2" d="M115.36,161.28a2.39,2.39,0,0,0-2.6-1.91,3.2,3.2,0,0,0-3.08,2,7.83,7.83,0,0,0-.67,2.85,4.06,4.06,0,0,1,1.45-1,6.88,6.88,0,0,1,3.06-.6c4.17,0,6.79,2.48,6.79,6.44s-3.13,6.78-7.66,6.78a7.45,7.45,0,0,1-5.76-2.33c-1.54-1.7-2.35-4.28-2.35-7.42a13,13,0,0,1,1.91-7.25,7.47,7.47,0,0,1,6.5-3.09,7.24,7.24,0,0,1,5.38,2,7.45,7.45,0,0,1,1.55,2.58Zm-6,7.85a3,3,0,0,0,3.2,2.93,3,3,0,0,0,3.27-3c0-1.77-1.2-2.85-3.18-2.85S109.4,167.36,109.4,169.13Z" transform="translate(0.5 0.5)"/><path class="cls-2" d="M122.84,167.56a4.94,4.94,0,0,1,0-6.09,3.74,3.74,0,0,1,2.67-1,3.7,3.7,0,0,1,2.68,1,5,5,0,0,1,0,6.11,4.11,4.11,0,0,1-5.35,0ZM135,160.31l.91.69-11.25,14.61-.9-.69Zm-10.76,4.2c0,1.45.45,2.21,1.33,2.21s1.32-.75,1.32-2.21-.45-2.16-1.32-2.16S124.2,163.09,124.2,164.51Zm7.19,9.91a5,5,0,0,1,0-6.1,3.77,3.77,0,0,1,2.7-1c2.34,0,3.71,1.48,3.71,4a4.18,4.18,0,0,1-1.06,3.07,3.71,3.71,0,0,1-2.67,1A3.77,3.77,0,0,1,131.39,174.42Zm1.36-3.09c0,1.48.45,2.24,1.33,2.24s1.33-.74,1.33-2.24-.45-2.13-1.31-2.13S132.75,169.93,132.75,171.33Z" transform="translate(0.5 0.5)"/><ellipse class="cls-5" cx="112.52" cy="112.5" rx="111.98" ry="112"/><path d="M90.75,11.9a5,5,0,0,0-.7-1l1.26-.26a7,7,0,0,1,.84,1.21H94a7.47,7.47,0,0,0,.73-1.21l1.34.28a7.78,7.78,0,0,1-.7.93h1.53a9.3,9.3,0,0,0,1.3-.07V13a6.76,6.76,0,0,0-1.1-.06H94.76v2.11h1.67l-1-.43a5.84,5.84,0,0,0,.8-1.67l1.18.42a8.86,8.86,0,0,1-.86,1.68h.74A7.69,7.69,0,0,0,98.51,15v1.25a8.06,8.06,0,0,0-1.21-.06H88.94a8.47,8.47,0,0,0-1.21.06V15a7.69,7.69,0,0,0,1.21.07h.68a7.34,7.34,0,0,0-1-1.62l1-.46a9.47,9.47,0,0,1,1,1.64l-1,.44h1.65V13H89.14A7.87,7.87,0,0,0,88,13V11.83a9.39,9.39,0,0,0,1.3.07Zm-1.61,5.9a8.32,8.32,0,0,0,0-1.08,10.8,10.8,0,0,0,1.13.05H96a10.29,10.29,0,0,0,1.14-.05,7.78,7.78,0,0,0,0,1.08v2.76a10.51,10.51,0,0,0,.07,1.28H95.76v-.46H90.43v.46H89.07a9.25,9.25,0,0,0,.07-1.26Zm1.29.77h5.33v-.78H90.43Zm0,1.78h5.33v-.8H90.43Zm3.14-5.26V13h-1v2.11Z" transform="translate(0.5 0.5)"/><path d="M99.56,15.33a4.89,4.89,0,0,0,.91.06h.84a5,5,0,0,0,.91-.06c0,.37,0,.66,0,1.31V19.2a1.77,1.77,0,0,0,.58.67,2.22,2.22,0,0,0,.6.32,10,10,0,0,0,2.39.21,33.26,33.26,0,0,0,5-.31,7.3,7.3,0,0,0-.35,1.43c-1.57.07-2.78.09-4.79.09a9,9,0,0,1-2.7-.3,2.83,2.83,0,0,1-1.39-1l-.19.18A10.85,10.85,0,0,1,100,21.64l-.65-1.32a7.25,7.25,0,0,0,1.58-1.15V16.61h-.61a4.81,4.81,0,0,0-.77.06Zm.93-4.39a14.8,14.8,0,0,1,2.07,2.17l-1,1a11.23,11.23,0,0,0-2-2.24Zm4.81,2.44a6.62,6.62,0,0,0-1-.63l.92-.54h-1.14a10.22,10.22,0,0,0-1.24.06V11.05a10.26,10.26,0,0,0,1.42.07h3.89a6.07,6.07,0,0,0,1.35-.08l.61.74a4.82,4.82,0,0,0-.6.46A16.92,16.92,0,0,1,108,13.38h1a8.7,8.7,0,0,0,1.22-.06,11.85,11.85,0,0,0,0,1.39V18.4c0,.68,0,.92-.22,1.1s-.51.28-1.25.28h-.54a3,3,0,0,0-.28-1.14,5.39,5.39,0,0,0,.79.07c.27,0,.28,0,.28-.34V17.9h-1.8v.5a7.68,7.68,0,0,0,.07,1.33h-1.33a9,9,0,0,0,.07-1.33v-.5h-1.61v.61a6.47,6.47,0,0,0,.07,1.3H103a8.68,8.68,0,0,0,.06-1.3V14.72a12.59,12.59,0,0,0,0-1.4,11.71,11.71,0,0,0,1.35.06Zm-1,1v.77h1.61V14.4Zm0,2.54h1.61v-.81h-1.61Zm1-4.73c.43.3.54.38,1.24.9a9.73,9.73,0,0,0,1.2-.9Zm1.76,3h1.8V14.4h-1.8Zm1.8,1h-1.8v.81h1.8Z" transform="translate(0.5 0.5)"/><path d="M91,33.27c.54-.6.54-.6,1.15-1.32l2.61-3.05a13,13,0,0,0,1.11-1.42h2.46a17.53,17.53,0,0,0-.1,2v3.89h.35a8.47,8.47,0,0,0,1.19-.09v2.18a9.23,9.23,0,0,0-1.18-.07h-.36V36a8.45,8.45,0,0,0,.1,1.47H95.88A10.58,10.58,0,0,0,96,36v-.58H92.58c-.78,0-1.11,0-1.56,0ZM96,32c0-.54,0-1.2.07-1.73-.24.34-.42.58-.75,1l-1.75,2.14H96Z" transform="translate(0.5 0.5)"/><path d="M101.17,32.2a2.88,2.88,0,0,1-.72-2.11,2.91,2.91,0,0,1,.73-2.12,2.62,2.62,0,0,1,1.86-.68,2.59,2.59,0,0,1,1.86.68,2.89,2.89,0,0,1,.72,2.11,2.88,2.88,0,0,1-.74,2.13,2.54,2.54,0,0,1-1.84.69A2.58,2.58,0,0,1,101.17,32.2Zm8.41-5,.64.48L102.4,37.79l-.62-.48Zm-7.46,2.91c0,1,.31,1.53.92,1.53s.91-.51.91-1.53-.31-1.5-.91-1.5S102.12,29.1,102.12,30.08Zm5,6.88a2.91,2.91,0,0,1-.72-2.12,2.91,2.91,0,0,1,.73-2.11A2.61,2.61,0,0,1,109,32c1.63,0,2.58,1,2.58,2.8a2.91,2.91,0,0,1-.73,2.13,2.55,2.55,0,0,1-1.86.69A2.61,2.61,0,0,1,107.1,37Zm1-2.15c0,1,.31,1.56.92,1.56s.92-.51.92-1.56-.31-1.47-.91-1.47S108.05,33.84,108.05,34.81Z" transform="translate(0.5 0.5)"/></g></svg>