<svg id="レイヤー_1" data-name="レイヤー 1" xmlns="http://www.w3.org/2000/svg" xmlns:xlink="http://www.w3.org/1999/xlink" viewBox="0 0 224.79 224.97"><defs><style>.cls-1{fill:none;}.cls-2{fill:#fff;}.cls-3{fill:#b01f24;}.cls-3,.cls-4{stroke:#fff;stroke-miterlimit:10;}.cls-4{fill:#b5b5b6;fill-rule:evenodd;}.cls-5{opacity:0.25;fill:url(#新規パターンスウォッチ_8);}</style><pattern id="新規パターンスウォッチ_8" data-name="新規パターンスウォッチ 8" width="28.35" height="28.35" patternTransform="translate(25.7 23.1) scale(0.25 0.25)" patternUnits="userSpaceOnUse" viewBox="0 0 28.35 28.35"><rect class="cls-1" width="28.35" height="28.35"/><path class="cls-2" d="M19.84,14.17A5.67,5.67,0,1,1,14.17,8.5,5.67,5.67,0,0,1,19.84,14.17Z"/><path class="cls-2" d="M34,0a5.67,5.67,0,0,1-5.67,5.67A5.67,5.67,0,0,1,22.68,0,5.67,5.67,0,0,1,34,0Z"/><path class="cls-2" d="M5.67,0A5.67,5.67,0,0,1,0,5.67,5.67,5.67,0,0,1-5.67,0,5.67,5.67,0,0,1,0-5.67,5.67,5.67,0,0,1,5.67,0Z"/><path class="cls-2" d="M34,28.35a5.67,5.67,0,1,1-5.67-5.67A5.67,5.67,0,0,1,34,28.35Z"/><path class="cls-2" d="M5.67,28.35A5.67,5.67,0,0,1,0,34a5.67,5.67,0,0,1-5.67-5.67A5.67,5.67,0,0,1,0,22.68,5.67,5.67,0,0,1,5.67,28.35Z"/></pattern></defs><title>en10</title><g id="_10" data-name="10"><path class="cls-3" d="M111.91,0A112,112,0,1,1,2.17,133.83L111.91,112Z" transform="translate(0.5 0.5)"/><path class="cls-4" d="M2.17,133.83A111.91,111.91,0,0,1,111.91,0V112Z" transform="translate(0.5 0.5)"/><path class="cls-2" d="M95.27,127.62a15.7,15.7,0,0,0,3.72.29,15.19,15.19,0,0,0,.49-2.84l2.31.19c-.1.31-.1.31-.28,1-.31,1.29-.31,1.29-.41,1.62,1.31,0,3.26-.17,4.4-.31a12.61,12.61,0,0,0,2.21-.4l.1,2.09c-.4,0-.55,0-1,.09-2.5.27-4,.39-6.18.45a22.35,22.35,0,0,1-1.36,3.5v0a8,8,0,0,1,4.35-1.13c3,0,4.84,1.31,4.84,3.51,0,2.55-2.46,4.21-6.24,4.21a16,16,0,0,1-4.4-.6,10.24,10.24,0,0,0-.17-2.2,12.92,12.92,0,0,0,4.45.83c2.5,0,4.12-.88,4.12-2.26,0-1.07-1-1.66-2.9-1.66a8.62,8.62,0,0,0-3.7.85,2.92,2.92,0,0,0-1.26,1l-2.09-.73a11,11,0,0,0,.81-1.55,38.93,38.93,0,0,0,1.45-3.83c-.92,0-1.69-.05-2.61-.12-.24,0-.41,0-.55,0h-.14Z" transform="translate(0.5 0.5)"/><path class="cls-2" d="M120.11,130.69V131a16.68,16.68,0,0,0,4-.46l.14,1.81-1,.1c-1.21.14-1.93.19-3.1.23,0,1.21.1,2.52.15,3a13,13,0,0,1,3.93,2.12l.45.3-1.15,1.72a9.82,9.82,0,0,0-2.81-2.05,2,2,0,0,1-.28-.16l-.12-.07v.37a2.36,2.36,0,0,1-.31,1.33c-.47.76-1.49,1.15-2.93,1.15a4,4,0,0,1-2.63-.76,2.21,2.21,0,0,1-.77-1.72c0-1.63,1.43-2.64,3.71-2.64a4.88,4.88,0,0,1,1.08.12s0-.14,0-.33c-.14-2.68-.14-2.68-.17-5.84a8.94,8.94,0,0,0-.07-1.27l2,0a12.36,12.36,0,0,0-.12,2.07Zm-2.82,6.18c-1,0-1.68.4-1.68,1s.5.84,1.43.84c1.11,0,1.5-.33,1.5-1.21a2.6,2.6,0,0,0,0-.5A4.91,4.91,0,0,0,117.29,136.87Z" transform="translate(0.5 0.5)"/><path class="cls-2" d="M130.3,130.75a12,12,0,0,0,2-.3,30.28,30.28,0,0,1,5.42-.59,6.28,6.28,0,0,1,3.26.71,3.58,3.58,0,0,1,1.67,3.16,5.81,5.81,0,0,1-3.28,5,14.12,14.12,0,0,1-5.43,1.62,4.83,4.83,0,0,0-.9-2.16,11.94,11.94,0,0,0,5.19-1.31,3.57,3.57,0,0,0,2.11-3c0-1.29-.92-2-2.71-2A24,24,0,0,0,130.8,133Zm2.69-5.51a23.58,23.58,0,0,0,7.19,1h.49l-.3,2.12a38.81,38.81,0,0,1-8.05-1.08Z" transform="translate(0.5 0.5)"/><path class="cls-2" d="M152.47,125.27a29.26,29.26,0,0,0,1.14,5.41c1.12-.44,1.12-.44,4.47-1.52a5.86,5.86,0,0,0,.65-.26l.74,2.17a38.66,38.66,0,0,0-5.69,1.66Q150,134.13,150,136c0,1.26,1.18,1.8,3.95,1.8a19.67,19.67,0,0,0,5.58-.69l.19,2.35a11.41,11.41,0,0,0-1.4.12,36.42,36.42,0,0,1-4,.26,9.69,9.69,0,0,1-5-1,3.26,3.26,0,0,1-1.5-2.89,4.12,4.12,0,0,1,1.53-3.09,10.19,10.19,0,0,1,2.35-1.46,46.06,46.06,0,0,1-1.16-4.7,8.26,8.26,0,0,0-.27-1.12Zm4.85.35a8.47,8.47,0,0,1,1.55,2.31l-1.33.66a10.19,10.19,0,0,0-1.55-2.35Zm2.17,2a11.61,11.61,0,0,0-1.52-2.28l1.26-.61a9.28,9.28,0,0,1,1.55,2.2Z" transform="translate(0.5 0.5)"/><path class="cls-2" d="M166.71,126.65a19.48,19.48,0,0,0-.14,2.63,32.16,32.16,0,0,0,.33,4.62c.29,1.8.84,2.91,1.4,2.91.25,0,.5-.26.7-.75a12.51,12.51,0,0,0,.92-3.12,8.49,8.49,0,0,0,1.72,1.57c-.9,3.37-1.9,4.76-3.36,4.76-1.16,0-2.09-.84-2.78-2.5s-1-4.23-1.09-9a6.27,6.27,0,0,0-.07-1.11Zm8.16.78a17.25,17.25,0,0,1,3.88,9.29l-2.14.81a17.53,17.53,0,0,0-1.1-5,15.35,15.35,0,0,0-2.45-4.25Z" transform="translate(0.5 0.5)"/><path class="cls-2" d="M184,126.65a21.68,21.68,0,0,0-.13,2.63,32.28,32.28,0,0,0,.32,4.62c.3,1.8.85,2.91,1.4,2.91.26,0,.5-.26.71-.75a12.94,12.94,0,0,0,.91-3.12,8.56,8.56,0,0,0,1.73,1.57c-.9,3.37-1.9,4.76-3.37,4.76-1.15,0-2.08-.84-2.77-2.5s-1-4.23-1.09-9a9.07,9.07,0,0,0-.07-1.11Zm8.16.78a17.18,17.18,0,0,1,3.88,9.29l-2.13.81a17.55,17.55,0,0,0-1.11-5,14.86,14.86,0,0,0-2.45-4.25Z" transform="translate(0.5 0.5)"/><path class="cls-2" d="M135.32,155.62a17.72,17.72,0,0,0-3.15,4.63,28.72,28.72,0,0,0-3.25,10.8h-5.31a32.29,32.29,0,0,1,2.76-9,35.83,35.83,0,0,1,3.77-6.17h-6.56a28.57,28.57,0,0,0-3.47.16v-4.35a31,31,0,0,0,3.73.16h7.77c2.12,0,2.77,0,3.71-.09Z" transform="translate(0.5 0.5)"/><path class="cls-2" d="M141.21,171.05c-2.07,0-2.6,0-3.45.1a11.21,11.21,0,0,1,.48-2.72,11.89,11.89,0,0,1,3.31-5.16,32.39,32.39,0,0,1,4.1-3.06c2-1.34,2.46-1.94,2.46-3s-1-1.84-2.46-1.84a2.61,2.61,0,0,0-2.39,1.15,4.09,4.09,0,0,0-.58,1.94l-4.83-.51a7.48,7.48,0,0,1,1.68-4.1,7.68,7.68,0,0,1,6.1-2.37c3.1,0,5.47,1,6.62,2.9a4.93,4.93,0,0,1,.76,2.69,5.36,5.36,0,0,1-2.11,4.29,30,30,0,0,1-3.34,2.46c-2,1.38-2.85,2.19-3.38,3.2h5.36a28.32,28.32,0,0,0,3.68-.16v4.35c-1.34-.11-2.3-.16-3.94-.16Z" transform="translate(0.5 0.5)"/><path class="cls-2" d="M156.07,163.31a4.13,4.13,0,0,1-1-3,4.19,4.19,0,0,1,1.05-3.05,3.76,3.76,0,0,1,2.68-1,3.69,3.69,0,0,1,2.67,1,5,5,0,0,1,0,6.11,4.1,4.1,0,0,1-5.34,0Zm12.1-7.25.92.69-11.25,14.61-.9-.69Zm-10.74,4.2c0,1.45.45,2.21,1.33,2.21s1.31-.75,1.31-2.21-.45-2.16-1.31-2.16S157.43,158.84,157.43,160.26Zm7.17,9.91a5,5,0,0,1,0-6.1,3.77,3.77,0,0,1,2.69-1c2.35,0,3.71,1.48,3.71,4a4.18,4.18,0,0,1-1.05,3.07,3.73,3.73,0,0,1-2.68,1A3.8,3.8,0,0,1,164.6,170.17Zm1.37-3.09c0,1.48.44,2.24,1.32,2.24s1.33-.74,1.33-2.24-.45-2.13-1.31-2.13S166,165.68,166,167.08Z" transform="translate(0.5 0.5)"/><ellipse class="cls-5" cx="112.6" cy="112.5" rx="111.9" ry="112"/><path d="M45.48,57.05a.65.65,0,0,0,0,.15c0,.14,0,.15-.07.28A14.82,14.82,0,0,1,43.2,63a5.85,5.85,0,0,0-1.27-.85A11.49,11.49,0,0,0,44,56.68Zm3-2.89a11.5,11.5,0,0,0-.07,1.47v7.92a1.18,1.18,0,0,1-.49,1.13,2.51,2.51,0,0,1-1.25.2q-.68,0-1.53-.06a4.85,4.85,0,0,0-.38-1.4,11.27,11.27,0,0,0,1.71.15c.39,0,.51-.06.51-.28V55.61a11.36,11.36,0,0,0-.07-1.45Zm2.65,2.47a9.17,9.17,0,0,0,.55,2.11,12.44,12.44,0,0,0,1.78,3.31,5.63,5.63,0,0,0-1.21.94,14.43,14.43,0,0,1-2.13-4.55S50,57.93,49.75,57Z" transform="translate(0.5 0.5)"/><path d="M55.13,56.49a8,8,0,0,0,1.17.06,31.68,31.68,0,0,0,3.23-.21c-.2-.52-.72-1.79-.78-1.89l1.55-.2A9.63,9.63,0,0,0,61,56.17a18.49,18.49,0,0,0,2.93-.71l.17,1.42c-.31,0-.45.09-.85.17-.18.05-.77.17-1.76.36.43.81.7,1.31.82,1.52.33.56.85,1.33,1.27,1.9l-1.39.63a2.19,2.19,0,0,0-.82-.51,6,6,0,0,0-1.9-.28c-1.62,0-2.58.49-2.58,1.35s.88,1.21,2.51,1.21A8.38,8.38,0,0,0,63,62.42L63.16,64a12.53,12.53,0,0,1-3.8.64A4.93,4.93,0,0,1,56,63.69a2.25,2.25,0,0,1-.7-1.61,2.33,2.33,0,0,1,.86-1.79,4.55,4.55,0,0,1,3.05-.86,5.51,5.51,0,0,1,2.07.36A13.73,13.73,0,0,1,60,57.6a38.75,38.75,0,0,1-4.25.29,3.17,3.17,0,0,0-.53,0Z" transform="translate(0.5 0.5)"/><path d="M68.57,55.28a13.73,13.73,0,0,0-.1,1.82,22.66,22.66,0,0,0,.23,3.21c.2,1.25.59,2,1,2,.18,0,.35-.18.49-.52a9.18,9.18,0,0,0,.64-2.17A5.74,5.74,0,0,0,72,60.73C71.37,63.07,70.68,64,69.66,64c-.8,0-1.45-.59-1.93-1.74S67,59.37,67,56.05c0-.42,0-.51,0-.77Zm5.66.54a12,12,0,0,1,2.7,6.45l-1.49.56a12,12,0,0,0-.76-3.46A10.66,10.66,0,0,0,73,56.42Z" transform="translate(0.5 0.5)"/><path d="M49.06,80.66a17.29,17.29,0,0,0-1.79,0,6.33,6.33,0,0,1,.25-1.42,6.23,6.23,0,0,1,1.72-2.68A16.91,16.91,0,0,1,51.38,75c1-.69,1.28-1,1.28-1.56s-.52-1-1.28-1a1.37,1.37,0,0,0-1.25.59,2.16,2.16,0,0,0-.3,1l-2.51-.26a3.62,3.62,0,0,1,4-3.37A3.85,3.85,0,0,1,54.81,72a2.54,2.54,0,0,1,.4,1.4,2.78,2.78,0,0,1-1.1,2.23,17.69,17.69,0,0,1-1.74,1.29,4.77,4.77,0,0,0-1.76,1.66H53.4a15.39,15.39,0,0,0,1.92-.08v2.26c-.7-.06-1.2-.08-2-.08Z" transform="translate(0.5 0.5)"/><path d="M64.29,76.28a2.41,2.41,0,0,1,.53,1.65A2.59,2.59,0,0,1,64,79.84a5,5,0,0,1-3.45,1.07,4.91,4.91,0,0,1-3.47-1.1,2.57,2.57,0,0,1-.73-1.88,2.38,2.38,0,0,1,.92-2,2.66,2.66,0,0,1,1.26-.55,2.29,2.29,0,0,1-1.17-.66,2.24,2.24,0,0,1-.57-1.54,2.51,2.51,0,0,1,.49-1.57,4.18,4.18,0,0,1,3.28-1.22c2.32,0,3.8,1.06,3.8,2.72a2.22,2.22,0,0,1-1.69,2.27A2.29,2.29,0,0,1,64.29,76.28Zm-5.45,1.44c0,.78.66,1.25,1.75,1.25s1.75-.47,1.75-1.27-.65-1.27-1.72-1.27S58.84,76.92,58.84,77.72Zm.35-4.35c0,.66.55,1.08,1.43,1.08S62,74,62,73.37s-.53-1.05-1.4-1.05S59.19,72.72,59.19,73.37Z" transform="translate(0.5 0.5)"/><path d="M66.35,75.41a3.45,3.45,0,0,1,0-4.23,2.84,2.84,0,0,1,3.71,0,3.46,3.46,0,0,1,0,4.24,2.85,2.85,0,0,1-3.71,0Zm8.4-5,.64.48L67.58,81,67,80.52Zm-7.46,2.92c0,1,.31,1.53.92,1.53s.91-.51.91-1.53-.31-1.5-.91-1.5S67.29,72.3,67.29,73.29Zm5,6.88a3,3,0,0,1-.71-2.12,2.91,2.91,0,0,1,.73-2.11,2.57,2.57,0,0,1,1.86-.69c1.63,0,2.58,1,2.58,2.8A2.91,2.91,0,0,1,76,80.18a2.59,2.59,0,0,1-1.86.68A2.64,2.64,0,0,1,72.27,80.17Zm1-2.15c0,1,.31,1.56.92,1.56s.92-.52.92-1.56-.31-1.47-.91-1.47S73.22,77.05,73.22,78Z" transform="translate(0.5 0.5)"/></g></svg>