<svg id="レイヤー_1" data-name="レイヤー 1" xmlns="http://www.w3.org/2000/svg" xmlns:xlink="http://www.w3.org/1999/xlink" viewBox="0 0 225 224.98"><defs><style>.cls-1{fill:none;}.cls-2{fill:#fff;}.cls-3{fill:#045f3a;}.cls-3,.cls-4,.cls-5{stroke:#fff;stroke-miterlimit:10;}.cls-4{fill:#b01f24;}.cls-5{fill:#b5b5b6;fill-rule:evenodd;}.cls-6{opacity:0.25;fill:url(#新規パターンスウォッチ_8);}</style><pattern id="新規パターンスウォッチ_8" data-name="新規パターンスウォッチ 8" width="28.35" height="28.35" patternTransform="translate(18.13 22.98) scale(0.25 0.25)" patternUnits="userSpaceOnUse" viewBox="0 0 28.35 28.35"><rect class="cls-1" width="28.35" height="28.35"/><path class="cls-2" d="M19.84,14.17A5.67,5.67,0,1,1,14.17,8.5,5.67,5.67,0,0,1,19.84,14.17Z"/><path class="cls-2" d="M34,0a5.67,5.67,0,0,1-5.67,5.67A5.67,5.67,0,0,1,22.68,0,5.67,5.67,0,0,1,34,0Z"/><path class="cls-2" d="M5.67,0A5.67,5.67,0,0,1,0,5.67,5.67,5.67,0,0,1-5.67,0,5.67,5.67,0,0,1,0-5.67,5.67,5.67,0,0,1,5.67,0Z"/><path class="cls-2" d="M34,28.35a5.67,5.67,0,1,1-5.67-5.67A5.67,5.67,0,0,1,34,28.35Z"/><path class="cls-2" d="M5.67,28.35A5.67,5.67,0,0,1,0,34a5.67,5.67,0,0,1-5.67-5.67A5.67,5.67,0,0,1,0,22.68,5.67,5.67,0,0,1,5.67,28.35Z"/></pattern></defs><title>en11</title><g id="_11" data-name="11"><ellipse class="cls-3" cx="112" cy="111.99" rx="111.99" ry="112" transform="translate(-0.23 223.74) rotate(-89.62)"/><path class="cls-4" d="M112,0A112,112,0,1,1,8.55,154.84L112,112Z" transform="translate(0.5 0.5)"/><path class="cls-5" d="M8.55,154.84A112,112,0,0,1,112,0V112Z" transform="translate(0.5 0.5)"/><path class="cls-2" d="M140.84,128.3v4.21c1.62-.33,2.9-.62,4.25-1v1.79a77.51,77.51,0,0,1-7.89,1.8l-.39-2a18.94,18.94,0,0,0,2.1-.24V122.41a14.53,14.53,0,0,0-.07-1.71,14.13,14.13,0,0,0,1.71.09h3.16v-.43a5.89,5.89,0,0,0-.12-1.23h2.13a6.16,6.16,0,0,0-.11,1.25v.41h3.32a14.25,14.25,0,0,0,1.71-.09c0,.33-.07,1.07-.07,1.75v4.18a13,13,0,0,0,.07,1.72,3.54,3.54,0,0,0-.45,0l1.38,1.06a6.87,6.87,0,0,0-.73.48,22.8,22.8,0,0,1-2.79,1.66,13.37,13.37,0,0,0,4.73,1.71,6.91,6.91,0,0,0-1,1.91,14.39,14.39,0,0,1-6.08-3.1,8.82,8.82,0,0,1-2.55-3.75Zm0-4.56h7.85v-1.22h-7.85Zm0,2.9h7.85v-1.33h-7.85Zm4.25,1.66a5.72,5.72,0,0,0,1.57,2.21,13.18,13.18,0,0,0,3.21-2.19l-.74,0Z" transform="translate(0.5 0.5)"/><path class="cls-2" d="M157.59,121a21.12,21.12,0,0,0-.14,2.62,32.19,32.19,0,0,0,.33,4.63c.3,1.8.85,2.9,1.4,2.9.26,0,.5-.26.71-.74a12.89,12.89,0,0,0,.91-3.13,8.9,8.9,0,0,0,1.73,1.58c-.9,3.36-1.9,4.76-3.37,4.76-1.15,0-2.09-.85-2.78-2.5s-1-4.23-1.08-9a9.07,9.07,0,0,0-.07-1.11Zm8.17.78a17.22,17.22,0,0,1,3.88,9.28l-2.14.82a17.46,17.46,0,0,0-1.1-5,15.35,15.35,0,0,0-2.45-4.25Z" transform="translate(0.5 0.5)"/><path class="cls-2" d="M138.93,151.35a2.4,2.4,0,0,0-2.6-1.91,3.24,3.24,0,0,0-3.09,2,8,8,0,0,0-.66,2.86,4.1,4.1,0,0,1,1.45-1,7,7,0,0,1,3.06-.6c4.17,0,6.79,2.49,6.79,6.45s-3.13,6.77-7.66,6.77a7.42,7.42,0,0,1-5.76-2.32c-1.55-1.71-2.35-4.29-2.35-7.42a12.85,12.85,0,0,1,1.91-7.25,7.44,7.44,0,0,1,6.49-3.09,7.21,7.21,0,0,1,5.39,2,7.45,7.45,0,0,1,1.55,2.58Zm-6,7.86a3,3,0,0,0,3.2,2.92,3,3,0,0,0,3.27-3c0-1.77-1.2-2.86-3.18-2.86S133,157.43,133,159.21Z" transform="translate(0.5 0.5)"/><path class="cls-2" d="M150.75,160.27a2.66,2.66,0,0,0,.55,1,2.83,2.83,0,0,0,2.16.85,3.3,3.3,0,0,0,2.95-1.61,6.86,6.86,0,0,0,.78-3.14,6,6,0,0,1-4.58,1.66c-4.14,0-6.84-2.51-6.84-6.38,0-4.07,3.13-6.86,7.69-6.86a7.45,7.45,0,0,1,6.64,3.41,11.92,11.92,0,0,1,1.45,6.22,14.82,14.82,0,0,1-1.32,6.44,6.84,6.84,0,0,1-3.91,3.5,10.41,10.41,0,0,1-3.09.49,7.76,7.76,0,0,1-5.32-1.8,6.7,6.7,0,0,1-1.77-2.74Zm6-7.86a3.25,3.25,0,0,0-6.47,0,2.87,2.87,0,0,0,3.13,2.94C155.38,155.38,156.73,154.19,156.73,152.41Z" transform="translate(0.5 0.5)"/><path class="cls-2" d="M164.21,157.64a5,5,0,0,1,0-6.1,3.73,3.73,0,0,1,2.67-1,3.69,3.69,0,0,1,2.68,1,5,5,0,0,1,0,6.11,3.7,3.7,0,0,1-2.66,1A3.75,3.75,0,0,1,164.21,157.64Zm12.12-7.25.92.69L166,165.68l-.9-.69Zm-10.75,4.19c0,1.45.44,2.21,1.32,2.21s1.32-.74,1.32-2.21-.45-2.16-1.32-2.16S165.58,153.17,165.58,154.58Zm7.18,9.91a4.94,4.94,0,0,1,0-6.09,3.74,3.74,0,0,1,2.69-1c2.35,0,3.71,1.49,3.71,4a4.2,4.2,0,0,1-1.05,3.07,4.14,4.14,0,0,1-5.37,0Zm1.36-3.09c0,1.49.45,2.25,1.33,2.25s1.33-.75,1.33-2.25-.45-2.12-1.31-2.12S174.12,160,174.12,161.4Z" transform="translate(0.5 0.5)"/><ellipse class="cls-6" cx="112" cy="112.01" rx="112" ry="111.99" transform="translate(-0.65 1.66) rotate(-0.59)"/><path d="M46.51,60.35a5,5,0,0,0-.69-.94l1.26-.27a6.87,6.87,0,0,1,.83,1.21h1.86a6.82,6.82,0,0,0,.73-1.21l1.35.28a10.72,10.72,0,0,1-.7.93h1.52A9.36,9.36,0,0,0,54,60.28v1.21a6.76,6.76,0,0,0-1.1-.06H50.53v2.11h1.66l-1-.43A5.81,5.81,0,0,0,52,61.44l1.19.42a9.49,9.49,0,0,1-.86,1.68h.74a7.69,7.69,0,0,0,1.21-.07v1.25a8.14,8.14,0,0,0-1.21-.06H44.7a8.47,8.47,0,0,0-1.21.06V63.47a7.69,7.69,0,0,0,1.21.07h.68a7.32,7.32,0,0,0-.94-1.62l1-.47a10.72,10.72,0,0,1,1,1.65l-1,.44h1.66V61.43H44.91a7.79,7.79,0,0,0-1.13.06V60.28a9.23,9.23,0,0,0,1.29.07Zm-1.6,5.9a10.6,10.6,0,0,0,0-1.08,10.61,10.61,0,0,0,1.12,0h5.75a10.41,10.41,0,0,0,1.14,0,7.78,7.78,0,0,0,0,1.08V69a8.8,8.8,0,0,0,.07,1.28H51.52v-.46H46.2v.46H44.83A9.1,9.1,0,0,0,44.91,69ZM46.2,67h5.32v-.78H46.2Zm0,1.78h5.32V68H46.2Zm3.14-5.26V61.43h-1v2.11Z" transform="translate(0.5 0.5)"/><path d="M55.33,63.78a4.83,4.83,0,0,0,.91.06h.84a5,5,0,0,0,.91-.06,11,11,0,0,0-.05,1.31v2.56a1.88,1.88,0,0,0,.59.67,2.22,2.22,0,0,0,.6.32,9.94,9.94,0,0,0,2.38.21,33.31,33.31,0,0,0,5-.31A7.3,7.3,0,0,0,66.18,70c-1.57.07-2.78.09-4.8.09a8.9,8.9,0,0,1-2.69-.3,2.83,2.83,0,0,1-1.39-1,1.31,1.31,0,0,1-.2.18,10.85,10.85,0,0,1-1.33,1.17l-.64-1.32a7.5,7.5,0,0,0,1.58-1.15V65.06H56.1a3.88,3.88,0,0,0-.77.06Zm.92-4.39a14.39,14.39,0,0,1,2.08,2.17l-1,1a11.28,11.28,0,0,0-2-2.24Zm4.82,2.44a7.2,7.2,0,0,0-1-.63l.92-.54H59.86a10.4,10.4,0,0,0-1.25.06V59.5a10.52,10.52,0,0,0,1.43.07h3.88a6.19,6.19,0,0,0,1.36-.08l.61.74a4.82,4.82,0,0,0-.6.46,17,17,0,0,1-1.55,1.14h1a8.87,8.87,0,0,0,1.23-.06,11.85,11.85,0,0,0-.05,1.39v3.69c0,.68,0,.92-.22,1.1s-.51.28-1.26.28h-.54a2.81,2.81,0,0,0-.27-1.14,7.28,7.28,0,0,0,.79.07c.26,0,.28,0,.28-.34v-.46h-1.8v.5a7.68,7.68,0,0,0,.07,1.33H61.6a9,9,0,0,0,.07-1.33v-.5H60.05V67a6.47,6.47,0,0,0,.07,1.3H58.77a8.68,8.68,0,0,0,.06-1.3V63.17a12.59,12.59,0,0,0,0-1.4,11.51,11.51,0,0,0,1.34.06Zm-1,1v.77h1.62v-.77Zm0,2.54h1.62v-.81H60.05Zm1.05-4.73c.43.3.53.38,1.24.9a10.67,10.67,0,0,0,1.2-.9Zm1.76,3h1.8v-.77h-1.8Zm1.8,1h-1.8v.81h1.8Z" transform="translate(0.5 0.5)"/><path d="M44.87,82.85a1.32,1.32,0,0,0,.34.77,1.84,1.84,0,0,0,1.38.52c.93,0,1.52-.47,1.52-1.2a1,1,0,0,0-.65-1,3.26,3.26,0,0,0-1.11-.16c-.47,0-1,0-1.48.07V79.76a10.24,10.24,0,0,0,1.27.07c1.14,0,1.71-.38,1.71-1.15s-.46-1-1.25-1a1.29,1.29,0,0,0-1.46,1.11l-2.59-.37a3.5,3.5,0,0,1,.8-1.53,4.3,4.3,0,0,1,3.3-1.2,4.37,4.37,0,0,1,3.07,1,2.35,2.35,0,0,1,.67,1.71,2.29,2.29,0,0,1-2.06,2.38,2.7,2.7,0,0,1,1.54.64,2.33,2.33,0,0,1,.79,1.77,2.59,2.59,0,0,1-.48,1.59,2.94,2.94,0,0,1-1.12.9,6.48,6.48,0,0,1-2.5.47,5.45,5.45,0,0,1-2.79-.67,3.23,3.23,0,0,1-1.23-1.55,3.78,3.78,0,0,1-.21-.63Z" transform="translate(0.5 0.5)"/><path d="M52.9,75.84a7.87,7.87,0,0,0,1.44.09h1.52a11.48,11.48,0,0,0,1.49-.05,18.41,18.41,0,0,0-.09,1.93v6.28a14.19,14.19,0,0,0,.1,1.81H54.75a14.21,14.21,0,0,0,.09-1.81V78h-.48a12.58,12.58,0,0,0-1.46.08Z" transform="translate(0.5 0.5)"/><path d="M61.57,80.65a3.45,3.45,0,0,1,0-4.23,2.6,2.6,0,0,1,1.86-.69,2.54,2.54,0,0,1,1.86.69,3.46,3.46,0,0,1,0,4.24,2.87,2.87,0,0,1-3.72,0Zm8.42-5,.63.48L62.81,86.24l-.63-.48Zm-7.47,2.92c0,1,.31,1.53.92,1.53s.91-.51.91-1.53S64,77,63.44,77,62.52,77.54,62.52,78.53Zm5,6.88a3.45,3.45,0,0,1,0-4.23,2.58,2.58,0,0,1,1.87-.69c1.63,0,2.58,1,2.58,2.8a2.91,2.91,0,0,1-.74,2.13,2.58,2.58,0,0,1-1.85.68A2.61,2.61,0,0,1,67.51,85.41Zm.94-2.15c0,1,.31,1.56.93,1.56s.92-.52.92-1.56-.31-1.47-.91-1.47S68.45,82.29,68.45,83.26Z" transform="translate(0.5 0.5)"/></g></svg>