<svg id="レイヤー_1" data-name="レイヤー 1" xmlns="http://www.w3.org/2000/svg" xmlns:xlink="http://www.w3.org/1999/xlink" viewBox="0 0 225 225"><defs><style>.cls-1{fill:none;}.cls-2{fill:#fff;}.cls-3{fill:#b01f24;}.cls-3,.cls-4,.cls-5,.cls-6,.cls-7{stroke:#fff;}.cls-3,.cls-4,.cls-5{stroke-miterlimit:10;}.cls-4{fill:#006c3b;}.cls-5{fill:#c9a063;}.cls-6{fill:#9c6a3a;}.cls-7{fill:#6cbb63;}.cls-8{opacity:0.25;fill:url(#新規パターンスウォッチ_8);}</style><pattern id="新規パターンスウォッチ_8" data-name="新規パターンスウォッチ 8" width="28.35" height="28.35" patternTransform="translate(18.1 22.89) scale(0.25 0.25)" patternUnits="userSpaceOnUse" viewBox="0 0 28.35 28.35"><rect class="cls-1" width="28.35" height="28.35"/><path class="cls-2" d="M19.84,14.17A5.67,5.67,0,1,1,14.17,8.5,5.67,5.67,0,0,1,19.84,14.17Z"/><path class="cls-2" d="M34,0a5.67,5.67,0,0,1-5.67,5.67A5.67,5.67,0,0,1,22.68,0,5.67,5.67,0,0,1,34,0Z"/><path class="cls-2" d="M5.67,0A5.67,5.67,0,0,1,0,5.67,5.67,5.67,0,0,1-5.67,0,5.67,5.67,0,0,1,0-5.67,5.67,5.67,0,0,1,5.67,0Z"/><path class="cls-2" d="M34,28.35a5.67,5.67,0,1,1-5.67-5.67A5.67,5.67,0,0,1,34,28.35Z"/><path class="cls-2" d="M5.67,28.35A5.67,5.67,0,0,1,0,34a5.67,5.67,0,0,1-5.67-5.67A5.67,5.67,0,0,1,0,22.68,5.67,5.67,0,0,1,5.67,28.35Z"/></pattern></defs><title>en12</title><g id="_12" data-name="12"><path class="cls-3" d="M112,0a112,112,0,0,1,99.3,163.79L112,112Z" transform="translate(0.5 0.5)"/><path class="cls-4" d="M211.3,163.79a112,112,0,0,1-147.89,49.1L112,112Z" transform="translate(0.5 0.5)"/><path class="cls-5" d="M63.41,212.89a112,112,0,0,1-62-118.78L112,112Z" transform="translate(0.5 0.5)"/><path class="cls-6" d="M1.44,94.11A112,112,0,0,1,70,8.18L112,112Z" transform="translate(0.5 0.5)"/><path class="cls-7" d="M70,8.18A112.07,112.07,0,0,1,112,0V112Z" transform="translate(0.5 0.5)"/><path class="cls-2" d="M114.86,161.89h-1a7.51,7.51,0,0,0-1.62.11v-1.78a9.61,9.61,0,0,0,1.62.08h.83v-1.64h-.55a9.46,9.46,0,0,0-1.52.09V157a9.19,9.19,0,0,0,1.52.08h.55v-.46a9.06,9.06,0,0,0-.1-1.56h1.83a7.19,7.19,0,0,0-.1,1.56v.46h.2a9.1,9.1,0,0,0,1,0v-1.57a14,14,0,0,0,1.86.1h6.79a13.58,13.58,0,0,0,1.83-.1v1.76a13.94,13.94,0,0,0-1.83-.11h-3.28v1.32h3.52a11.69,11.69,0,0,0,1.42-.07c-.09.46-.09.46-.32,2a14.64,14.64,0,0,1-1.27,4.3,8.09,8.09,0,0,0,1.93,1.92,6.56,6.56,0,0,0-1.1,1.47,13.33,13.33,0,0,1-1.66-1.88,15.14,15.14,0,0,1-1.5,1.88,5,5,0,0,0-1-1.18,9,9,0,0,0,.08,1.51h-1.72a11.21,11.21,0,0,0,.08-1.47v-.4c-.79.24-2.22.62-3.17.86l-.57.18-.31-1.7a7.45,7.45,0,0,0,1.17-.13v-8.55a4.3,4.3,0,0,0-.59,0v1.55a7.16,7.16,0,0,0-1.38-.09h-.2v1.64H117a4.73,4.73,0,0,0,1.12-.08V162a4.61,4.61,0,0,0-1.12-.11h-.64v1.76h.45a8.28,8.28,0,0,0,1.19-.07v1.64a6.06,6.06,0,0,0-1.21-.08h-.43v2.6a5.51,5.51,0,0,0,2,.8,31.68,31.68,0,0,0,4.55.26,44,44,0,0,0,5.36-.35,6.51,6.51,0,0,0-.52,2c-1.18,0-3.35.11-5,.11-3.9,0-5-.14-6.49-.9a6.38,6.38,0,0,1-2.45-2,13.1,13.1,0,0,1-.81,3.09,5.88,5.88,0,0,0-1.42-1.13,6.15,6.15,0,0,0,.73-2.07,21.53,21.53,0,0,0,.39-3.92c0-.2,0-.39,0-.67l1.5.19a6.57,6.57,0,0,0,0,.72c0,.7-.06,1-.09,1.68a5,5,0,0,0,.76,1Zm6.47-3v-1.78H120v1.78Zm0,3.06v-1.69H120V162ZM120,165.36l1.36-.36v-1.66H120Zm2.92,1.23a7.62,7.62,0,0,0,1.62-1.88,19,19,0,0,1-1.4-4.22l1.25-.55h-1.47Zm1.57-6.65a16.68,16.68,0,0,0,.9,3,15.62,15.62,0,0,0,.64-3Z" transform="translate(0.5 0.5)"/><path class="cls-2" d="M133.06,167.62v-.83h-1.55v1.77H129.7a17,17,0,0,0,.08-2.08v-8.56a15,15,0,0,0-.07-1.78,12.75,12.75,0,0,0,1.54.07h2a12.91,12.91,0,0,0,1.5-.07c0,.31,0,.83,0,1.71v7.89c0,.73,0,1.3,0,1.73a13.73,13.73,0,0,0,3.52-4.46h-1.74a9,9,0,0,0-1.47.09v-1.92a10.53,10.53,0,0,0,1.49.07h2.33V159h-1.45a14.37,14.37,0,0,0-1.89.09v-1.9a14.15,14.15,0,0,0,1.89.1h1.45v-1a7.32,7.32,0,0,0-.09-1.36h2a7.32,7.32,0,0,0-.09,1.36v1h1.88a13.46,13.46,0,0,0,1.92-.1v1.91a17.74,17.74,0,0,0-1.95-.1h-1.85v2.26h2.36c.9,0,1.52,0,2.06-.08v2a15.46,15.46,0,0,0-2.06-.11h-1.91a11.54,11.54,0,0,0,4.49,4.87,10.08,10.08,0,0,0-1,1.88,11.08,11.08,0,0,1-4-4.88c0,.71,0,1.05,0,1.72v2.46a13.21,13.21,0,0,0,.09,1.76h-2a13.16,13.16,0,0,0,.11-1.76v-2.51c0-.58,0-1,.05-1.74a11.22,11.22,0,0,1-1.83,2.86,11.61,11.61,0,0,1-2.47,2.25,7,7,0,0,0-1.31-1.47,12.18,12.18,0,0,0,1.22-.83Zm-1.55-2.5h1.55V158h-1.55Z" transform="translate(0.5 0.5)"/><path class="cls-2" d="M113.35,193.24c-1.56,0-1.95,0-2.59.07a8.64,8.64,0,0,1,.36-2,8.86,8.86,0,0,1,2.49-3.86,23,23,0,0,1,3.07-2.3c1.48-1,1.85-1.45,1.85-2.24s-.75-1.38-1.85-1.38a2,2,0,0,0-1.8.86,3.12,3.12,0,0,0-.43,1.45l-3.62-.38a5.63,5.63,0,0,1,1.26-3.07,5.74,5.74,0,0,1,4.57-1.78c2.33,0,4.11.78,5,2.17a3.82,3.82,0,0,1,.56,2,4,4,0,0,1-1.58,3.21,21.47,21.47,0,0,1-2.51,1.85,7.15,7.15,0,0,0-2.54,2.4h4a21.19,21.19,0,0,0,2.76-.12v3.26c-1-.08-1.73-.12-3-.12Z" transform="translate(0.5 0.5)"/><path class="cls-2" d="M128,183.73c0,.09,0,.26,0,.55a4.48,4.48,0,0,1,2.79-.83,5,5,0,0,1,3.72,1.42,4.68,4.68,0,0,1,1.29,3.45c0,3.32-2.17,5.29-5.84,5.29a5.75,5.75,0,0,1-4.88-2.13,5.18,5.18,0,0,1-.86-1.93l3.47-.54a2.06,2.06,0,0,0,2.26,1.68,2.22,2.22,0,0,0,2.41-2.3,2.19,2.19,0,0,0-2.38-2.28,2.14,2.14,0,0,0-2.17,1.28l-3.21-.31c.06-.52.12-.93.17-1.42l.46-5.38c0-.36.06-.78.07-1.44.73,0,.9,0,1.73,0h5.16a22.53,22.53,0,0,0,2.85-.12v3a26.85,26.85,0,0,0-2.81-.12h-4Z" transform="translate(0.5 0.5)"/><path class="cls-2" d="M138.25,185.68a5,5,0,0,1,0-6.09,3.76,3.76,0,0,1,2.68-1,3.67,3.67,0,0,1,2.67,1,4.11,4.11,0,0,1,1,3,4.16,4.16,0,0,1-1,3.07,4.12,4.12,0,0,1-5.36,0Zm12.12-7.25.92.69L140,193.73l-.89-.69Zm-10.75,4.2c0,1.45.45,2.21,1.33,2.21s1.31-.75,1.31-2.21-.45-2.16-1.31-2.16S139.62,181.21,139.62,182.63Zm7.18,9.91a5,5,0,0,1,0-6.1,3.75,3.75,0,0,1,2.69-1c2.35,0,3.71,1.48,3.71,4a4.18,4.18,0,0,1-1.05,3.07,3.73,3.73,0,0,1-2.68,1A3.79,3.79,0,0,1,146.8,192.54Zm1.36-3.1c0,1.49.45,2.25,1.33,2.25s1.33-.74,1.33-2.25-.45-2.12-1.31-2.12S148.16,188.05,148.16,189.44Z" transform="translate(0.5 0.5)"/><path class="cls-2" d="M154.79,64.46a11.21,11.21,0,0,1-1.95,3.47,5.15,5.15,0,0,0-1.51-1.1,8.08,8.08,0,0,0,1.94-3.13Zm-1.42-1c-.6,0-.93,0-1.26.05,0-.43,0-1,0-1.66V54a14.35,14.35,0,0,0-.07-1.61,14.9,14.9,0,0,0,1.52.05h2.56c.62,0,1,0,1.47-.05a13.64,13.64,0,0,0-.06,1.5v8c0,.72,0,1.24.06,1.62-.3,0-.71-.05-1.3-.05Zm.48-7.84h2.06V54.09h-2.06Zm0,3h2.06V57.13h-2.06Zm0,3.19h2.06V60.18h-2.06Zm2.73,1.8a14.13,14.13,0,0,0,1.75,2.76,8.17,8.17,0,0,0-1.44,1.11,22.38,22.38,0,0,1-1.71-3.11Zm5-10.64A5.13,5.13,0,0,0,161.5,52h2a5.33,5.33,0,0,0-.09,1.07V54h2a12.4,12.4,0,0,0,1.69-.09,8.93,8.93,0,0,0-.07,1.31v1.25a7.09,7.09,0,0,0,.07,1.22h-1.78v-2H160V57.7h-1.76a8.35,8.35,0,0,0,.06-1.18V55.11a8.39,8.39,0,0,0-.06-1.21,14,14,0,0,0,1.7.07h1.68Zm-1.78,7a13.22,13.22,0,0,0-1.57.08V58.27a13.64,13.64,0,0,0,1.57.06h5.8a13.44,13.44,0,0,0,1.57-.06v1.84a9.85,9.85,0,0,0-1.57-.08h-1.9v5.78c0,.91-.15,1.31-.62,1.59a3.51,3.51,0,0,1-1.79.29c-.38,0-1.14,0-1.64,0a7.06,7.06,0,0,0-.38-1.88,13.88,13.88,0,0,0,1.91.15c.5,0,.64-.1.64-.45V60Z" transform="translate(0.5 0.5)"/><path class="cls-2" d="M174,58.25a13.83,13.83,0,0,0-1.7.08v-.82a18.43,18.43,0,0,1-2.81,1.41,8.29,8.29,0,0,0-1-1.78c3.21-1.12,5.8-3,7-5.06h2.14a10.16,10.16,0,0,0,2.66,2.66,14.24,14.24,0,0,0,4.58,2.33A8.84,8.84,0,0,0,184,59a17.36,17.36,0,0,1-3-1.52v.88a13.35,13.35,0,0,0-1.69-.08h-1.76v1.67h4.37a12.22,12.22,0,0,0,1.88-.1v1.92a13.37,13.37,0,0,0-1.9-.11h-4.35V65.5h4.7a18.1,18.1,0,0,0,2-.1v2a15.27,15.27,0,0,0-2.07-.12H171.23a16.34,16.34,0,0,0-2.14.12v-2a21.07,21.07,0,0,0,2.14.1h4.33V61.63h-4.09a13.88,13.88,0,0,0-1.86.11V59.82a12.66,12.66,0,0,0,1.88.1h4.07V58.25Zm-1.23,3.54a19.92,19.92,0,0,1,1.38,2.86l-1.73.69A12.61,12.61,0,0,0,171,62.48Zm1.17-5.17,5.36,0,.41,0a13.6,13.6,0,0,1-3.11-2.9,12,12,0,0,1-3,2.9Zm8.26,5.87c-.23.4-.23.4-.87,1.66-.05.11-.12.23-.7,1.23L179,64.77a14.18,14.18,0,0,0,1.37-3Z" transform="translate(0.5 0.5)"/><path class="cls-2" d="M147.31,92.26a2.43,2.43,0,0,0,.65,1.47,3.59,3.59,0,0,0,2.65,1c1.79,0,2.92-.9,2.92-2.3a2,2,0,0,0-1.24-2,6.5,6.5,0,0,0-2.14-.3,27,27,0,0,0-2.84.14v-4a18.87,18.87,0,0,0,2.44.14c2.19,0,3.27-.73,3.27-2.21,0-1.24-.87-2-2.39-2a2.48,2.48,0,0,0-2.81,2.12l-5-.71a6.54,6.54,0,0,1,1.54-2.93c1.4-1.52,3.52-2.3,6.33-2.3a8.39,8.39,0,0,1,5.9,2,4.47,4.47,0,0,1,1.29,3.27c0,2.44-1.32,4-4,4.58a5.23,5.23,0,0,1,3,1.22,4.57,4.57,0,0,1,1.52,3.41,5.16,5.16,0,0,1-.92,3.06,5.83,5.83,0,0,1-2.17,1.73,12.47,12.47,0,0,1-4.79.9,10.42,10.42,0,0,1-5.37-1.29,6.27,6.27,0,0,1-2.37-3,8.06,8.06,0,0,1-.39-1.22Z" transform="translate(0.5 0.5)"/><path class="cls-2" d="M165.11,92.26a2.43,2.43,0,0,0,.65,1.47,3.59,3.59,0,0,0,2.65,1c1.79,0,2.92-.9,2.92-2.3a2,2,0,0,0-1.24-2,6.45,6.45,0,0,0-2.14-.3,27,27,0,0,0-2.84.14v-4a18.92,18.92,0,0,0,2.45.14c2.18,0,3.27-.73,3.27-2.21,0-1.24-.88-2-2.4-2a2.49,2.49,0,0,0-2.81,2.12l-5-.71a6.54,6.54,0,0,1,1.54-2.93c1.4-1.52,3.52-2.3,6.33-2.3a8.37,8.37,0,0,1,5.9,2,4.47,4.47,0,0,1,1.29,3.27c0,2.44-1.31,4-4,4.58a5.23,5.23,0,0,1,3,1.22,4.53,4.53,0,0,1,1.52,3.41,5.09,5.09,0,0,1-.92,3.06,5.83,5.83,0,0,1-2.17,1.73,12.47,12.47,0,0,1-4.79.9A10.38,10.38,0,0,1,163,97.3a6.29,6.29,0,0,1-2.38-3,9.41,9.41,0,0,1-.39-1.22Z" transform="translate(0.5 0.5)"/><path class="cls-2" d="M178.83,90.36a4.16,4.16,0,0,1-1-3,4.2,4.2,0,0,1,1-3.06,3.76,3.76,0,0,1,2.68-1,3.68,3.68,0,0,1,2.67,1,5,5,0,0,1,0,6.11,4.09,4.09,0,0,1-5.36,0ZM191,83.11l.92.69L180.61,98.41l-.9-.69Zm-10.75,4.2c0,1.45.45,2.21,1.33,2.21s1.31-.74,1.31-2.21-.45-2.16-1.31-2.16S180.2,85.89,180.2,87.31Zm7.18,9.91a5,5,0,0,1,0-6.1,3.78,3.78,0,0,1,2.69-1c2.35,0,3.71,1.48,3.71,4a4.22,4.22,0,0,1-1.05,3.08,4.14,4.14,0,0,1-5.37,0Zm1.36-3.09c0,1.48.45,2.24,1.33,2.24s1.33-.74,1.33-2.24S191,92,190.09,92,188.74,92.73,188.74,94.13Z" transform="translate(0.5 0.5)"/><ellipse class="cls-8" cx="112" cy="112.01" rx="112" ry="111.99" transform="translate(-0.78 1.8) rotate(-0.66)"/><path d="M37.83,127.4a11.87,11.87,0,0,1-2,2.57,4.68,4.68,0,0,0-1.38-1.12,10.34,10.34,0,0,0,.88-.9c-.38,0-.71,0-1.28,0H32.24v.57c0,.53,0,.53-.05,1.26h1.72a10.59,10.59,0,0,0,1.38-.06,28,28,0,0,0-.06,2.94,24.45,24.45,0,0,1-.51,5.52c-.29.88-.86,1.19-2.21,1.19-.25,0-.44,0-.89,0a6,6,0,0,0-.35-1.86,5,5,0,0,0,1.19.15c.56,0,.64-.14.78-1.16a46.18,46.18,0,0,0,.22-5H32.1a19.89,19.89,0,0,1-.64,4.59,10.52,10.52,0,0,1-1.72,3.7,5.47,5.47,0,0,0-1.35-1.63,9.6,9.6,0,0,0,1.73-4.57,35.31,35.31,0,0,0,.34-5.59h-.19a8.57,8.57,0,0,0-1.52.08v-1.86a9.37,9.37,0,0,0,1.69.1h1.09v-.91a9.33,9.33,0,0,0-.1-1.52h2a10.39,10.39,0,0,0-.08,1.5v.93h.69a10.8,10.8,0,0,0,1.55-.08v1.43a9.54,9.54,0,0,0,1.87-3.83l1.91.36a7.26,7.26,0,0,0-.32.72l-.37.87h4.1a11.87,11.87,0,0,0,1.77-.11v1.87a15.27,15.27,0,0,0-1.69-.07H41.75l1.23,1-.62.47-1.28.95a13.17,13.17,0,0,0,.34,2.14,8,8,0,0,0,2-1.92l1.18,1.33A17.83,17.83,0,0,1,42,133.68a9.84,9.84,0,0,0,2.89,4,6.29,6.29,0,0,0-1.13,1.9,11.34,11.34,0,0,1-3.15-4.55,15.9,15.9,0,0,1-1-4.25,6.7,6.7,0,0,1-.73.41v6.63a16.75,16.75,0,0,0,.09,1.78h-2a12.14,12.14,0,0,0,.1-1.78v-5.71c-.41.21-.71.34-.86.41a5.44,5.44,0,0,0-.83-1.67,17.49,17.49,0,0,0,3.52-1.69,17.59,17.59,0,0,0,2.54-1.78Z" transform="translate(0.5 0.5)"/><path d="M48.42,134.48c0-.73,0-.83,0-2a8.47,8.47,0,0,1-1.57,1.47,8.1,8.1,0,0,0-.87-1.85,12.34,12.34,0,0,0,4.25-4.55l1.62,1.07a6.69,6.69,0,0,0-.57.76,15.53,15.53,0,0,1-1,1.34v6.8a15.82,15.82,0,0,0,.12,2.18H48.3a14.44,14.44,0,0,0,.12-2.19Zm3.21-9.65c-.19.2-.19.2-.51.58a16.73,16.73,0,0,1-4,3.46,8,8,0,0,0-1.09-1.63,11,11,0,0,0,3.09-2.36,6.39,6.39,0,0,0,.83-1.21ZM54,130.76a18.07,18.07,0,0,0-2.13.11v-1.94A17.47,17.47,0,0,0,54,129h5.87a14.78,14.78,0,0,0,2.1-.11v1.94a17.48,17.48,0,0,0-2-.11h-.75v6.88c0,1.48-.5,1.84-2.59,1.84-.58,0-1.1,0-1.91,0a7.22,7.22,0,0,0-.5-1.93,20.35,20.35,0,0,0,2.35.19c.69,0,.77,0,.77-.42v-6.51Zm-1.44-6.21a14.79,14.79,0,0,0,2,.1h4.66a14.56,14.56,0,0,0,2-.1v1.92a16.6,16.6,0,0,0-1.93-.11h-4.7a17.44,17.44,0,0,0-2,.11Z" transform="translate(0.5 0.5)"/><path d="M30.05,162.15c-1.55,0-1.95,0-2.59.07a8.53,8.53,0,0,1,.37-2,8.84,8.84,0,0,1,2.48-3.86,23.3,23.3,0,0,1,3.08-2.3c1.48-1,1.84-1.45,1.84-2.24s-.74-1.39-1.84-1.39a2,2,0,0,0-1.8.87,3.12,3.12,0,0,0-.43,1.45l-3.63-.38a5.63,5.63,0,0,1,1.26-3.07,5.77,5.77,0,0,1,4.58-1.78c2.33,0,4.11.77,5,2.17a3.74,3.74,0,0,1,.57,2,4,4,0,0,1-1.59,3.21,23.67,23.67,0,0,1-2.5,1.85,7.15,7.15,0,0,0-2.54,2.4h4a21.36,21.36,0,0,0,2.77-.12v3.26c-1-.08-1.73-.12-3-.12Z" transform="translate(0.5 0.5)"/><path d="M42.49,160.86a5.47,5.47,0,0,1-1.26-1.92,11.42,11.42,0,0,1-.67-3.95,10.19,10.19,0,0,1,1.08-4.79,5.63,5.63,0,0,1,5-2.72,5.88,5.88,0,0,1,4.19,1.6A5.33,5.33,0,0,1,52.12,151a11.41,11.41,0,0,1,.68,4,10.14,10.14,0,0,1-1.09,4.8,5.65,5.65,0,0,1-5,2.69A5.74,5.74,0,0,1,42.49,160.86Zm1.61-6c0,3.09.88,4.68,2.59,4.68s2.55-1.56,2.55-4.63-.9-4.51-2.57-4.51S44.1,152,44.1,154.85Z" transform="translate(0.5 0.5)"/><path d="M55,154.59a4.94,4.94,0,0,1,0-6.09,3.74,3.74,0,0,1,2.67-1,3.7,3.7,0,0,1,2.68,1,4.14,4.14,0,0,1,1,3,4.19,4.19,0,0,1-1.06,3.08,4.11,4.11,0,0,1-5.35,0Zm12.12-7.25L68,148l-11.26,14.6-.9-.69Zm-10.76,4.19c0,1.45.45,2.21,1.33,2.21S59,153,59,151.53s-.45-2.15-1.32-2.15S56.32,150.12,56.32,151.53Zm7.19,9.91a4.14,4.14,0,0,1-1-3.05,4.18,4.18,0,0,1,1.05-3,3.77,3.77,0,0,1,2.7-1c2.35,0,3.71,1.48,3.71,4a4.18,4.18,0,0,1-1.05,3.07,4.1,4.1,0,0,1-5.37,0Zm1.36-3.09c0,1.49.45,2.25,1.33,2.25s1.33-.74,1.33-2.25-.45-2.12-1.31-2.12S64.87,157,64.87,158.35Z" transform="translate(0.5 0.5)"/><path d="M32.8,51.47c0-.46,0-.76,0-1.09h.75A12.88,12.88,0,0,0,36,48.54H30.21a16.15,16.15,0,0,0-1.74.08v-1.7a13.52,13.52,0,0,0,1.72.09h6.53A5.78,5.78,0,0,0,38,46.94L38.9,48l-1.35,1.28a19.51,19.51,0,0,1-3.07,2.22v.62H38A15.48,15.48,0,0,0,40,52v1.74c-.56,0-1.08-.08-2-.08H34.48v4.2c0,1.27-.48,1.58-2.4,1.58l-1.61-.05A5.8,5.8,0,0,0,30,57.68a12.71,12.71,0,0,0,2.09.17c.59,0,.69-.06.69-.37v-3.8H28.93c-.87,0-1.36,0-2,.08V52a16.67,16.67,0,0,0,2,.09H32.8Z" transform="translate(0.5 0.5)"/><path d="M46.91,47.3a4.2,4.2,0,0,0-.09-.95h1.76a4.64,4.64,0,0,0-.08.94v.18h4.25a10.38,10.38,0,0,0,1.64-.08V48.9a12.09,12.09,0,0,0-1.54-.07H51a31.09,31.09,0,0,1,3.28,2.27l-1.12,1.07A17.45,17.45,0,0,0,51.79,51c-2.49.22-5,.34-8.18.4l-.62,0h-.46l-.52,0L41.84,50a8.62,8.62,0,0,0,1.13,0h1.36a7.08,7.08,0,0,0,.85-1.25H42.9a11.89,11.89,0,0,0-1.55.07V47.39a10.66,10.66,0,0,0,1.67.08h3.89ZM44.66,58.05c0,.67,0,1.18.07,1.63H43a14.42,14.42,0,0,0,.09-1.81V53.39A10.4,10.4,0,0,0,43.05,52c.34,0,.85,0,1.62,0h7.61a1,1,0,0,1,.18,0l.18,0a12.87,12.87,0,0,0-.06,1.55v4.57c0,.64-.13,1-.45,1.23a2.29,2.29,0,0,1-1.42.27l-1.56,0a6.61,6.61,0,0,0-.39-1.36,15.64,15.64,0,0,0,1.77.1c.42,0,.54-.08.54-.37v-.57H44.66Zm6.41-4.75H44.66v.75h6.41ZM44.66,56h6.41v-.72H44.66Zm2.22-7.21c-.19.3-.57.83-.88,1.23,1.16,0,3-.1,4.26-.17l-1-.65.78-.41Z" transform="translate(0.5 0.5)"/><path d="M56.19,48.52l.54,0c.26,0,.26,0,2.38-.15L66.29,48A7.82,7.82,0,0,0,68,47.89l.1,1.84h-.3a6.44,6.44,0,0,0-2.85.78c-1.83,1-2.91,2.39-2.91,3.84a2.43,2.43,0,0,0,1.91,2.35,9.06,9.06,0,0,0,2.15.37h.29l-.26,2a3.85,3.85,0,0,0-.49-.08,8.66,8.66,0,0,1-3.37-1,3.87,3.87,0,0,1-2.06-3.47,5.05,5.05,0,0,1,1.37-3.4,6.41,6.41,0,0,1,2-1.44c-1.17.17-1.73.22-4.85.45a21.74,21.74,0,0,0-2.39.28Z" transform="translate(0.5 0.5)"/><path d="M34.36,66.33a9.09,9.09,0,0,0,1.73.1h1.83a16.29,16.29,0,0,0,1.78-.05,22.73,22.73,0,0,0-.1,2.31v7.55a15.93,15.93,0,0,0,.12,2.17H36.58a17.74,17.74,0,0,0,.11-2.17V68.9h-.57a13.65,13.65,0,0,0-1.76.1Z" transform="translate(0.5 0.5)"/><path d="M50.89,69.64a1.5,1.5,0,0,0-1.63-1.19,2,2,0,0,0-1.93,1.24,5,5,0,0,0-.42,1.78,2.58,2.58,0,0,1,.91-.64,4.37,4.37,0,0,1,1.91-.38c2.61,0,4.25,1.56,4.25,4s-2,4.23-4.79,4.23a4.64,4.64,0,0,1-3.6-1.45,6.8,6.8,0,0,1-1.47-4.64,8.05,8.05,0,0,1,1.19-4.53,4.65,4.65,0,0,1,4.06-1.93A4.2,4.2,0,0,1,53.71,69Zm-3.73,4.91a2,2,0,0,0,4,0,1.75,1.75,0,0,0-2-1.78A1.82,1.82,0,0,0,47.16,74.55Z" transform="translate(0.5 0.5)"/><path d="M55.89,72.11a4.16,4.16,0,0,1,0-5.09,3.12,3.12,0,0,1,2.23-.82,3.09,3.09,0,0,1,2.23.82,4.19,4.19,0,0,1,0,5.1,3.44,3.44,0,0,1-4.47,0Zm10.11-6,.76.58L57.38,78.82l-.75-.58Zm-9,3.5c0,1.21.37,1.84,1.11,1.84s1.09-.62,1.09-1.84-.37-1.8-1.09-1.8S57,68.38,57,69.56Zm6,8.26a4.16,4.16,0,0,1,0-5.08,3.17,3.17,0,0,1,2.25-.82c2,0,3.1,1.24,3.1,3.35a3.55,3.55,0,0,1-.88,2.57,3.44,3.44,0,0,1-4.48,0Zm1.14-2.57c0,1.23.37,1.87,1.11,1.87s1.1-.62,1.1-1.87-.37-1.78-1.09-1.78S64.16,74.08,64.16,75.25Z" transform="translate(0.5 0.5)"/><path d="M79.91,17.57a9.3,9.3,0,0,0,1.17.06c1.08,0,2.63-.06,3.56-.14a3.7,3.7,0,0,0,1.13-.19l.78,1a5.71,5.71,0,0,0-.7.59,33.43,33.43,0,0,1-3.29,2.61c.6-.09,1.46-.17,2.91-.29l1.58-.12L87.9,21l.4-.05.08,1.4H88a8,8,0,0,0-3.33.59c-1,.44-1.63,1.17-1.63,1.82S83.92,26,85.47,26a4.37,4.37,0,0,0,1.14-.11l.06,1.53a3,3,0,0,0-.44,0l-.62,0h-.15a8,8,0,0,1-2.23-.34A2.24,2.24,0,0,1,81.54,25a2.31,2.31,0,0,1,.65-1.56,4.06,4.06,0,0,1,1.28-.91c-.52.1-.9.16-1.48.23l-1.31.17c-.48.06-1.13.14-1.93.26a5.05,5.05,0,0,0-.56.12l-.14-1.46h.19a9.55,9.55,0,0,0,1-.07l.46-.06a4.84,4.84,0,0,0,.68-.1,22.71,22.71,0,0,0,3.68-2.94,31.26,31.26,0,0,1-3.34.26c-.31,0-.52,0-.77.07Z" transform="translate(0.5 0.5)"/><path d="M95,24c-.68,1.55-1.45,2.25-2.43,2.25-1.37,0-2.35-1.39-2.35-3.32a5.16,5.16,0,0,1,1.31-3.49,5.39,5.39,0,0,1,4.13-1.67c2.87,0,4.75,1.75,4.75,4.44a4.61,4.61,0,0,1-2.92,4.47,8,8,0,0,1-1.88.51,3.74,3.74,0,0,0-.73-1.4,6.52,6.52,0,0,0,2.38-.66,3.36,3.36,0,0,0,1.67-3,3,3,0,0,0-1.47-2.66,2.65,2.65,0,0,0-1.22-.36A17,17,0,0,1,95,24Zm-1.76-4.29A4,4,0,0,0,91.56,23c0,1,.42,1.76.94,1.76s.81-.51,1.24-1.54a15.81,15.81,0,0,0,1-4.05A3,3,0,0,0,93.19,19.75Z" transform="translate(0.5 0.5)"/><path d="M103,22.92c0-.28,0-.28,0-1.31a8.81,8.81,0,0,1-1,1.38,7.58,7.58,0,0,0-.62-1.42,9.62,9.62,0,0,0,2.12-3.31,7.36,7.36,0,0,0,.47-1.62l1.35.41c-.09.28-.12.35-.24.68a11.84,11.84,0,0,1-.83,2v6.68c0,.56,0,1,.06,1.45H103a11.75,11.75,0,0,0,.07-1.46Zm4-1.31V25.8c0,.24.06.31.32.37a6.12,6.12,0,0,0,1.51.1c1.36,0,1.87-.05,2.14-.23a.85.85,0,0,0,.29-.55c0-.23,0-.37.08-.95a5.35,5.35,0,0,0,1.31.39c-.15,1.36-.3,1.83-.67,2.12s-1.26.43-3.45.43-2.8-.24-2.8-1.2V22l-.24.07c-.35.12-.47.17-.7.27l-.1-1.36a7.72,7.72,0,0,0,1-.24V19.35a7.72,7.72,0,0,0-.07-1.27h1.41a6.82,6.82,0,0,0-.07,1.22v1.07l1.24-.39V18a8.83,8.83,0,0,0-.08-1.2h1.39a9.68,9.68,0,0,0-.07,1.17v1.59l1.75-.56a7,7,0,0,0,1-.36c0,.25,0,.35,0,.64,0,1.44-.11,3.1-.2,3.88s-.42,1.16-1.34,1.16a5.64,5.64,0,0,1-.66,0,4.15,4.15,0,0,0-.34-1.22,5,5,0,0,0,.82.11c.26,0,.31-.09.38-.65a20.08,20.08,0,0,0,.09-2.22l-1.46.48v3.12a7.46,7.46,0,0,0,.07,1.2h-1.39a7.06,7.06,0,0,0,.08-1.24V21.21Z" transform="translate(0.5 0.5)"/><path d="M93.15,36.1a1.26,1.26,0,0,0-1.36-1,1.65,1.65,0,0,0-1.6,1,4,4,0,0,0-.35,1.48,2.43,2.43,0,0,1,.76-.54,3.7,3.7,0,0,1,1.59-.31,3.22,3.22,0,0,1,3.54,3.36c0,2.07-1.63,3.52-4,3.52a3.86,3.86,0,0,1-3-1.21,5.62,5.62,0,0,1-1.23-3.86,6.71,6.71,0,0,1,1-3.77,3.87,3.87,0,0,1,3.38-1.61,3.51,3.51,0,0,1,3.61,2.4ZM90,40.19a1.69,1.69,0,0,0,3.37,0,1.45,1.45,0,0,0-1.65-1.48A1.52,1.52,0,0,0,90,40.19Z" transform="translate(0.5 0.5)"/><path d="M97.33,38.15A2.88,2.88,0,0,1,96.61,36a2.91,2.91,0,0,1,.73-2.12,2.61,2.61,0,0,1,1.86-.68,2.57,2.57,0,0,1,1.85.68,2.89,2.89,0,0,1,.72,2.11,2.88,2.88,0,0,1-.73,2.13,2.82,2.82,0,0,1-3.71,0Zm8.41-5,.64.48L98.56,43.74l-.62-.48ZM98.27,36c0,1,.31,1.53.93,1.53s.91-.51.91-1.53-.32-1.5-.91-1.5S98.27,35.05,98.27,36Zm5,6.88a3.45,3.45,0,0,1,0-4.23,2.59,2.59,0,0,1,1.87-.68c1.63,0,2.58,1,2.58,2.79a2.91,2.91,0,0,1-.73,2.13,2.85,2.85,0,0,1-3.73,0Zm.95-2.15c0,1,.31,1.56.92,1.56s.92-.51.92-1.56-.31-1.47-.91-1.47S104.21,39.79,104.21,40.76Z" transform="translate(0.5 0.5)"/></g></svg>