<svg id="レイヤー_1" data-name="レイヤー 1" xmlns="http://www.w3.org/2000/svg" xmlns:xlink="http://www.w3.org/1999/xlink" viewBox="0 0 225 224.97"><defs><style>.cls-1{fill:none;}.cls-2{fill:#fff;}.cls-3{fill:#b01f24;}.cls-3,.cls-4,.cls-5{stroke:#fff;stroke-miterlimit:10;}.cls-4{fill:#ce442d;}.cls-5{fill:#b5b5b6;fill-rule:evenodd;}.cls-6{opacity:0.25;fill:url(#新規パターンスウォッチ_8);}</style><pattern id="新規パターンスウォッチ_8" data-name="新規パターンスウォッチ 8" width="28.35" height="28.35" patternTransform="translate(18.16 22.69) scale(0.25 0.25)" patternUnits="userSpaceOnUse" viewBox="0 0 28.35 28.35"><rect class="cls-1" width="28.35" height="28.35"/><path class="cls-2" d="M19.84,14.17A5.67,5.67,0,1,1,14.17,8.5,5.67,5.67,0,0,1,19.84,14.17Z"/><path class="cls-2" d="M34,0a5.67,5.67,0,0,1-5.67,5.67A5.67,5.67,0,0,1,22.68,0,5.67,5.67,0,0,1,34,0Z"/><path class="cls-2" d="M5.67,0A5.67,5.67,0,0,1,0,5.67,5.67,5.67,0,0,1-5.67,0,5.67,5.67,0,0,1,0-5.67,5.67,5.67,0,0,1,5.67,0Z"/><path class="cls-2" d="M34,28.35a5.67,5.67,0,1,1-5.67-5.67A5.67,5.67,0,0,1,34,28.35Z"/><path class="cls-2" d="M5.67,28.35A5.67,5.67,0,0,1,0,34a5.67,5.67,0,0,1-5.67-5.67A5.67,5.67,0,0,1,0,22.68,5.67,5.67,0,0,1,5.67,28.35Z"/></pattern></defs><title>en13</title><g id="_13" data-name="13"><path class="cls-3" d="M112,0A112,112,0,1,1,2,133l110-21Z" transform="translate(0.5 0.5)"/><path class="cls-4" d="M2,133A112,112,0,0,1,84.16,3.52L112,112Z" transform="translate(0.5 0.5)"/><path class="cls-5" d="M84.16,3.52A111.78,111.78,0,0,1,112,0V112Z" transform="translate(0.5 0.5)"/><path class="cls-2" d="M120.35,129.87a21,21,0,0,0-.14,2.62,32.41,32.41,0,0,0,.33,4.63c.29,1.79.85,2.9,1.4,2.9.26,0,.5-.26.71-.75a12.81,12.81,0,0,0,.91-3.12,8.56,8.56,0,0,0,1.73,1.57c-.9,3.37-1.9,4.77-3.37,4.77-1.15,0-2.09-.85-2.78-2.51s-1-4.23-1.08-9a8.88,8.88,0,0,0-.07-1.1Zm8.17.77a17.25,17.25,0,0,1,3.88,9.29l-2.14.81a17.53,17.53,0,0,0-1.1-5,14.94,14.94,0,0,0-2.46-4.24Z" transform="translate(0.5 0.5)"/><path class="cls-2" d="M137.62,129.87a21,21,0,0,0-.14,2.62,32.41,32.41,0,0,0,.33,4.63c.3,1.79.85,2.9,1.4,2.9.26,0,.5-.26.71-.75a12.81,12.81,0,0,0,.91-3.12,8.84,8.84,0,0,0,1.73,1.57c-.9,3.37-1.9,4.77-3.37,4.77-1.15,0-2.08-.85-2.78-2.51s-1-4.23-1.08-9a8.88,8.88,0,0,0-.07-1.1Zm8.17.77a17.18,17.18,0,0,1,3.88,9.29l-2.14.81a17.53,17.53,0,0,0-1.1-5,15.15,15.15,0,0,0-2.45-4.24Z" transform="translate(0.5 0.5)"/><path class="cls-2" d="M153.55,132.9a6.29,6.29,0,0,0,1,.06,59.91,59.91,0,0,0,6.13-.38,4.4,4.4,0,0,0,1.38-.28l1.15,1.48a12.29,12.29,0,0,0-1.46,1.3c-.94.9-2.42,2.23-3,2.64a2.81,2.81,0,0,1,1.06-.21,1.56,1.56,0,0,1,1.43.73,2.83,2.83,0,0,1,.38,1.59c.12,1.36.35,1.6,1.48,1.6a9.37,9.37,0,0,0,3.41-.65l.26,2.14a12.66,12.66,0,0,0-1.52.2,14.8,14.8,0,0,1-2.42.21,3.33,3.33,0,0,1-2.42-.65c-.48-.45-.62-.87-.71-2.23a2.83,2.83,0,0,0-.17-1.11.8.8,0,0,0-.72-.36c-.82,0-1.59.48-3,1.83-.88.85-1.81,1.85-2.44,2.57l-1.58-1.79a34.5,34.5,0,0,0,4-3.45c.4-.37.71-.66,2-1.9l2-1.92c-1,.15-1.43.22-2.24.29l-1.74.14-.9.09c-.64,0-.76.07-1.33.14Zm2.14-4.47a24.45,24.45,0,0,0,6.87,1l-.33,1.93a31.25,31.25,0,0,1-7.16-1Z" transform="translate(0.5 0.5)"/><path class="cls-2" d="M132.11,158.83a18.14,18.14,0,0,0-3.15,4.63,28.72,28.72,0,0,0-3.25,10.8h-5.32a32.79,32.79,0,0,1,2.76-8.95,36.26,36.26,0,0,1,3.78-6.18h-6.56a26.52,26.52,0,0,0-3.48.17v-4.36a31,31,0,0,0,3.73.16h7.79c2.11,0,2.76,0,3.7-.09Z" transform="translate(0.5 0.5)"/><path class="cls-2" d="M138,174.26c-2.07,0-2.6,0-3.46.1a11.69,11.69,0,0,1,.49-2.72,11.89,11.89,0,0,1,3.31-5.16,32.39,32.39,0,0,1,4.1-3.06c2-1.34,2.47-1.94,2.47-3s-1-1.84-2.47-1.84a2.61,2.61,0,0,0-2.39,1.15,4.2,4.2,0,0,0-.58,1.94l-4.83-.51a7.48,7.48,0,0,1,1.68-4.1,7.69,7.69,0,0,1,6.1-2.37c3.11,0,5.48,1,6.63,2.9a5,5,0,0,1,.76,2.7,5.34,5.34,0,0,1-2.12,4.28,30,30,0,0,1-3.34,2.46c-2,1.39-2.85,2.19-3.38,3.2h5.37a28.32,28.32,0,0,0,3.68-.16v4.36a38.93,38.93,0,0,0-3.94-.17Z" transform="translate(0.5 0.5)"/><path class="cls-2" d="M152.88,166.52a4.12,4.12,0,0,1-1-3,4.16,4.16,0,0,1,1.06-3.06,4.14,4.14,0,0,1,5.35,0,5,5,0,0,1,0,6.11,4.11,4.11,0,0,1-5.35,0ZM165,159.27l.91.69-11.25,14.61-.9-.69Zm-10.76,4.2c0,1.45.45,2.21,1.33,2.21s1.31-.74,1.31-2.21-.45-2.16-1.31-2.16S154.24,162.05,154.24,163.47Zm7.18,9.91a5,5,0,0,1,0-6.1,3.77,3.77,0,0,1,2.69-1c2.35,0,3.72,1.48,3.72,4a4.23,4.23,0,0,1-1.06,3.08,3.74,3.74,0,0,1-2.67,1A3.81,3.81,0,0,1,161.42,173.38Zm1.37-3.09c0,1.48.45,2.24,1.33,2.24s1.33-.74,1.33-2.24-.45-2.13-1.32-2.13S162.79,168.89,162.79,170.29Z" transform="translate(0.5 0.5)"/><circle class="cls-6" cx="112" cy="112" r="112" transform="translate(-4.72 5.97) rotate(-2.73)"/><path d="M45.8,64.45a3.5,3.5,0,0,0-.21.57,15.65,15.65,0,0,1-1,2.19,10.14,10.14,0,0,1-1.41,2,8.16,8.16,0,0,0-1.07-1.06,8,8,0,0,0,1.9-2.78A7.89,7.89,0,0,0,44.48,64Zm5.88,4a4.56,4.56,0,0,0-.54.69,10,10,0,0,1-3,2.75,12.43,12.43,0,0,1-4.51,1.64A5,5,0,0,0,43,72.2a11.46,11.46,0,0,0,4.32-1.35,7.49,7.49,0,0,0,2.9-2.71,3.94,3.94,0,0,0,.28-.55Zm-3.11-6a10.18,10.18,0,0,0-.08,1.44v4.4c0,1-.43,1.25-2.06,1.25a7.8,7.8,0,0,1-.78,0,4,4,0,0,0-.31-1.32,6.46,6.46,0,0,0,1.2.13c.49,0,.6,0,.6-.27V63.92a9.91,9.91,0,0,0-.07-1.45ZM51,63.91a6,6,0,0,0,.68,1.55,6.92,6.92,0,0,0,1.85,2,5.9,5.9,0,0,0-.87,1.19A9.3,9.3,0,0,1,50,65.13a6.56,6.56,0,0,0-.34-.68Z" transform="translate(0.5 0.5)"/><path d="M57.86,62.93a11.53,11.53,0,0,0-.14,1.61c0,1.12-.12,3.55-.12,4.4a3.33,3.33,0,0,0,.31,1.93,1.9,1.9,0,0,0,1.61.63,3.08,3.08,0,0,0,2.9-2,8.22,8.22,0,0,0,.55-2,5.3,5.3,0,0,0,1.45.93,7.38,7.38,0,0,1-1.43,3,4.53,4.53,0,0,1-3.59,1.53,4,4,0,0,1-2.1-.53c-.83-.55-1.18-1.48-1.18-3.08,0-.63,0-1.83.1-4.83,0-.36,0-.61,0-.78a5.39,5.39,0,0,0,0-.82Z" transform="translate(0.5 0.5)"/><path d="M43.14,89.05a17.53,17.53,0,0,0-1.8,0,6.33,6.33,0,0,1,.25-1.42A6.26,6.26,0,0,1,43.32,85a17.35,17.35,0,0,1,2.13-1.6c1-.69,1.29-1,1.29-1.56s-.52-1-1.29-1a1.35,1.35,0,0,0-1.24.6,2.08,2.08,0,0,0-.3,1l-2.52-.26a3.64,3.64,0,0,1,4-3.37,3.84,3.84,0,0,1,3.45,1.51,2.54,2.54,0,0,1,.4,1.4A2.78,2.78,0,0,1,48.19,84a17.69,17.69,0,0,1-1.74,1.29A4.77,4.77,0,0,0,44.69,87h2.79a15.39,15.39,0,0,0,1.92-.08v2.26c-.7-.06-1.2-.08-2-.08Z" transform="translate(0.5 0.5)"/><path d="M50.29,84.87c.54-.6.54-.6,1.15-1.32l2.6-3a12.16,12.16,0,0,0,1.12-1.42h2.45a17.65,17.65,0,0,0-.09,2V85h.35a8.33,8.33,0,0,0,1.18-.09v2.18A9.08,9.08,0,0,0,57.88,87h-.36v.59a8.72,8.72,0,0,0,.09,1.48H55.15a10.58,10.58,0,0,0,.09-1.5V87H51.85c-.78,0-1.12,0-1.56.05Zm5-1.28c0-.53,0-1.19.08-1.72-.24.33-.42.57-.75,1L52.83,85h2.42Z" transform="translate(0.5 0.5)"/><path d="M60.44,83.8a3.45,3.45,0,0,1,0-4.23,2.85,2.85,0,0,1,3.72,0,2.93,2.93,0,0,1,.71,2.11,2.89,2.89,0,0,1-.73,2.13,2.85,2.85,0,0,1-3.71,0Zm8.41-5,.64.48L61.67,89.38l-.62-.47Zm-7.47,2.92c0,1,.32,1.53.93,1.53s.91-.51.91-1.53-.31-1.5-.91-1.5S61.38,80.69,61.38,81.68Zm5,6.88a3.45,3.45,0,0,1,0-4.23,2.61,2.61,0,0,1,1.87-.69c1.63,0,2.58,1,2.58,2.8a2.91,2.91,0,0,1-.73,2.13,2.59,2.59,0,0,1-1.86.68A2.64,2.64,0,0,1,66.37,88.56Zm.95-2.15c0,1,.31,1.56.92,1.56s.92-.52.92-1.56-.31-1.47-.91-1.47S67.32,85.44,67.32,86.41Z" transform="translate(0.5 0.5)"/><path d="M91.21,23.61a3.33,3.33,0,0,0-.06-.46,22.62,22.62,0,0,1-.32-3.82,22.21,22.21,0,0,1,.22-3.17c.06-.36.06-.36.33-1.72a7,7,0,0,0,.13-.88v-.05l1.62.17a19.21,19.21,0,0,0-1,6c0,.44,0,.44,0,.63v.19a1.19,1.19,0,0,1,0,.25h0a3.09,3.09,0,0,0,.14-.35c0-.08.08-.21.14-.4l.23-.54a2,2,0,0,0,.15-.38l1,.45a9.92,9.92,0,0,0-1.19,3.67,1.9,1.9,0,0,0,0,.32Zm2.71-7.85a8.32,8.32,0,0,0,2.17.19c.42,0,.68,0,1.1,0,0-.71,0-1.31,0-1.8a2.72,2.72,0,0,0,0-.57l1.5,0a11.89,11.89,0,0,0-.08,1.76v.55a12,12,0,0,0,1.62-.28l.26-.1.1,0,0,1.35a1.61,1.61,0,0,0-.34.06c-.41.08-1,.19-1.67.26v.27c0,.67,0,.69.12,2.71a9.54,9.54,0,0,1,1.88,1.09,2.25,2.25,0,0,0,.34.2l-.58,1.45a4.09,4.09,0,0,0-.9-.76l-.75-.5v.17a2,2,0,0,1-.1.67c-.27.71-1.11,1.13-2.28,1.13-1.57,0-2.53-.74-2.53-2s1-2,2.47-2a2.84,2.84,0,0,1,1.07.16c0-.3,0-.88-.1-2.55l-1.07,0c-.45,0-.93,0-1.49-.06h-.76Zm2.43,5c-.77,0-1.25.3-1.25.8s.44.74,1.11.74a1.18,1.18,0,0,0,1-.37,1,1,0,0,0,.15-.65V21A2.39,2.39,0,0,0,96.35,20.78Z" transform="translate(0.5 0.5)"/><path d="M104.52,14.36a14.06,14.06,0,0,0-.09,1.82,22.79,22.79,0,0,0,.22,3.21c.21,1.25.59,2,1,2,.18,0,.35-.18.5-.52a8.91,8.91,0,0,0,.63-2.17,5.81,5.81,0,0,0,1.2,1.09c-.62,2.34-1.32,3.31-2.34,3.31-.8,0-1.45-.59-1.93-1.74s-.7-2.93-.75-6.25a4.82,4.82,0,0,0-.05-.77Zm5.67.54a12,12,0,0,1,2.7,6.45l-1.49.56a12,12,0,0,0-.76-3.46,10.59,10.59,0,0,0-1.71-2.95Z" transform="translate(0.5 0.5)"/><path d="M93.51,35.56c.54-.6.54-.6,1.15-1.32l2.6-3.05a12.16,12.16,0,0,0,1.12-1.42h2.46a15.48,15.48,0,0,0-.1,2v3.89h.35a8.47,8.47,0,0,0,1.19-.09v2.18a9.23,9.23,0,0,0-1.18-.07h-.36v.6a7.63,7.63,0,0,0,.1,1.47H98.37a10.58,10.58,0,0,0,.09-1.5v-.59H95.07c-.78,0-1.11,0-1.56.05Zm5-1.27c0-.54,0-1.2.07-1.73-.24.33-.42.57-.75,1l-1.75,2.14h2.43Z" transform="translate(0.5 0.5)"/><path d="M103.66,34.49a2.9,2.9,0,0,1-.72-2.11,2.91,2.91,0,0,1,.73-2.12,2.59,2.59,0,0,1,1.86-.69,2.55,2.55,0,0,1,1.86.69,2.89,2.89,0,0,1,.72,2.11,2.9,2.9,0,0,1-.74,2.13,2.57,2.57,0,0,1-1.84.68A2.61,2.61,0,0,1,103.66,34.49Zm8.41-5,.64.48-7.82,10.15-.62-.48Zm-7.46,2.92c0,1,.31,1.53.92,1.53s.91-.51.91-1.53-.31-1.5-.91-1.5S104.61,31.38,104.61,32.37Zm5,6.88a3.45,3.45,0,0,1,0-4.23,2.61,2.61,0,0,1,1.87-.69c1.64,0,2.58,1,2.58,2.8a2.91,2.91,0,0,1-.73,2.13,2.59,2.59,0,0,1-1.86.68A2.64,2.64,0,0,1,109.59,39.25Zm1-2.15c0,1,.31,1.56.92,1.56s.93-.51.93-1.56-.32-1.47-.92-1.47S110.54,36.13,110.54,37.1Z" transform="translate(0.5 0.5)"/></g></svg>