<svg id="レイヤー_1" data-name="レイヤー 1" xmlns="http://www.w3.org/2000/svg" xmlns:xlink="http://www.w3.org/1999/xlink" viewBox="0 0 224.87 224.97"><defs><style>.cls-1{fill:none;}.cls-2{fill:#fff;}.cls-3{fill:#b01f24;}.cls-3,.cls-4,.cls-5{stroke:#fff;stroke-miterlimit:10;}.cls-4{fill:#ce442d;}.cls-5{fill:#b5b5b6;fill-rule:evenodd;}.cls-6{opacity:0.25;fill:url(#新規パターンスウォッチ_8);}</style><pattern id="新規パターンスウォッチ_8" data-name="新規パターンスウォッチ 8" width="28.35" height="28.35" patternTransform="translate(22.64 23.51) scale(0.25 0.25)" patternUnits="userSpaceOnUse" viewBox="0 0 28.35 28.35"><rect class="cls-1" width="28.35" height="28.35"/><path class="cls-2" d="M19.84,14.17A5.67,5.67,0,1,1,14.17,8.5,5.67,5.67,0,0,1,19.84,14.17Z"/><path class="cls-2" d="M34,0a5.67,5.67,0,0,1-5.67,5.67A5.67,5.67,0,0,1,22.68,0,5.67,5.67,0,0,1,34,0Z"/><path class="cls-2" d="M5.67,0A5.67,5.67,0,0,1,0,5.67,5.67,5.67,0,0,1-5.67,0,5.67,5.67,0,0,1,0-5.67,5.67,5.67,0,0,1,5.67,0Z"/><path class="cls-2" d="M34,28.35a5.67,5.67,0,1,1-5.67-5.67A5.67,5.67,0,0,1,34,28.35Z"/><path class="cls-2" d="M5.67,28.35A5.67,5.67,0,0,1,0,34a5.67,5.67,0,0,1-5.67-5.67A5.67,5.67,0,0,1,0,22.68,5.67,5.67,0,0,1,5.67,28.35Z"/></pattern></defs><title>en14</title><g id="_14" data-name="14"><path class="cls-3" d="M111.93,0a112,112,0,0,1,83.19,186.91L111.93,112Z" transform="translate(0.5 0.5)"/><path class="cls-4" d="M195.12,186.91A112,112,0,1,1,88.66,2.45L111.93,112Z" transform="translate(0.5 0.5)"/><path class="cls-5" d="M88.66,2.45A111.67,111.67,0,0,1,111.93,0V112Z" transform="translate(0.5 0.5)"/><path class="cls-2" d="M153,84.58c0-.17,0-.28-.09-.67a33.6,33.6,0,0,1-.46-5.49,30.11,30.11,0,0,1,.33-4.58c.08-.51.08-.51.46-2.47a9.33,9.33,0,0,0,.19-1.27V70l2.33.24c-.71,1.5-1.36,5.66-1.38,8.67,0,.62,0,.62,0,.89v.28c0,.14,0,.17,0,.36h0a5.07,5.07,0,0,0,.21-.5c0-.12.12-.31.21-.59s.15-.36.33-.77a4.16,4.16,0,0,0,.2-.54l1.43.64A14.49,14.49,0,0,0,155,84a4,4,0,0,0,0,.47Zm3.9-11.31a12.26,12.26,0,0,0,3.12.28c.61,0,1,0,1.59,0,0-1,0-1.88,0-2.58a4.37,4.37,0,0,0,0-.83l2.16,0a16.33,16.33,0,0,0-.12,2.53v.8a17.56,17.56,0,0,0,2.33-.42l.38-.14.13,0,.07,1.95a3.36,3.36,0,0,0-.5.09c-.58.12-1.48.27-2.39.38v.38c0,1,0,1,.17,3.9a13.74,13.74,0,0,1,2.71,1.57,3.05,3.05,0,0,0,.48.29l-.83,2.09a6.56,6.56,0,0,0-1.29-1.1l-1.09-.71v.24a3,3,0,0,1-.14,1c-.39,1-1.6,1.62-3.28,1.62-2.26,0-3.64-1.07-3.64-2.83s1.47-2.85,3.56-2.85a4.1,4.1,0,0,1,1.53.24c0-.43-.07-1.28-.13-3.68-.7,0-1.11,0-1.56,0-.64,0-1.33,0-2.14-.09h-.51l-.3,0a.66.66,0,0,0-.17,0,.24.24,0,0,0-.1,0Zm3.5,7.24c-1.1,0-1.79.43-1.79,1.14s.62,1.07,1.59,1.07a1.68,1.68,0,0,0,1.39-.54,1.43,1.43,0,0,0,.23-.93v-.47A3.75,3.75,0,0,0,160.35,80.51Z" transform="translate(0.5 0.5)"/><path class="cls-2" d="M172.11,71.25a19.48,19.48,0,0,0-.14,2.63,32.16,32.16,0,0,0,.33,4.62c.29,1.8.85,2.9,1.4,2.9.26,0,.5-.25.71-.74a12.94,12.94,0,0,0,.91-3.12,8.3,8.3,0,0,0,1.73,1.57c-.9,3.36-1.9,4.76-3.37,4.76-1.16,0-2.09-.84-2.78-2.5s-1-4.23-1.08-9a9.07,9.07,0,0,0-.07-1.11Zm8.16.78a17.18,17.18,0,0,1,3.88,9.29l-2.14.81a17.53,17.53,0,0,0-1.1-5,15.1,15.1,0,0,0-2.45-4.25Z" transform="translate(0.5 0.5)"/><path class="cls-2" d="M147.22,109.8a2.43,2.43,0,0,0,.65,1.47,3.55,3.55,0,0,0,2.65,1c1.79,0,2.92-.9,2.92-2.3a2,2,0,0,0-1.24-2,6.8,6.8,0,0,0-2.15-.3c-.89,0-1.93,0-2.83.14v-4a20.83,20.83,0,0,0,2.44.14c2.19,0,3.27-.74,3.27-2.21,0-1.25-.87-2-2.39-2a2.47,2.47,0,0,0-2.81,2.12l-5-.72a6.54,6.54,0,0,1,1.54-2.92c1.4-1.52,3.52-2.3,6.33-2.3A8.39,8.39,0,0,1,156.52,98a4.47,4.47,0,0,1,1.29,3.27c0,2.44-1.31,4-4,4.59a5,5,0,0,1,3,1.22,4.51,4.51,0,0,1,1.52,3.4,5.15,5.15,0,0,1-.92,3.07,5.77,5.77,0,0,1-2.16,1.72,12.29,12.29,0,0,1-4.79.9,10.38,10.38,0,0,1-5.36-1.29,6.17,6.17,0,0,1-2.37-3,9.13,9.13,0,0,1-.4-1.22Z" transform="translate(0.5 0.5)"/><path class="cls-2" d="M175.76,100.22a18,18,0,0,0-3.15,4.63,28.42,28.42,0,0,0-3.24,10.8h-5.32a32.52,32.52,0,0,1,2.76-9,35.34,35.34,0,0,1,3.78-6.17H164a28.64,28.64,0,0,0-3.48.16V96.33a33.19,33.19,0,0,0,3.73.16h7.78c2.12,0,2.76,0,3.7-.09Z" transform="translate(0.5 0.5)"/><path class="cls-2" d="M178.73,107.91a4.16,4.16,0,0,1-1-3,4.22,4.22,0,0,1,1.05-3.06,3.8,3.8,0,0,1,2.68-1,3.73,3.73,0,0,1,2.67,1,5,5,0,0,1,0,6.12,4.1,4.1,0,0,1-5.34,0Zm12.11-7.25.91.69L180.5,116l-.89-.69Zm-10.75,4.19c0,1.45.45,2.21,1.33,2.21s1.31-.74,1.31-2.21-.45-2.16-1.31-2.16S180.09,103.44,180.09,104.85Zm7.18,9.91a5,5,0,0,1,0-6.09,3.78,3.78,0,0,1,2.7-1c2.34,0,3.71,1.49,3.71,4a4.22,4.22,0,0,1-1.06,3.07,4.12,4.12,0,0,1-5.36,0Zm1.36-3.09c0,1.49.45,2.25,1.33,2.25s1.33-.75,1.33-2.25-.45-2.12-1.31-2.12S188.63,110.27,188.63,111.67Z" transform="translate(0.5 0.5)"/><path class="cls-2" d="M38.32,123.68A9.1,9.1,0,0,1,37,125.27a5.72,5.72,0,0,0-1.19-1c-.71.35-.75.36-1.33.6v4.91c0,1.36-.47,1.67-2.56,1.67l-.76,0a5.59,5.59,0,0,0-.41-1.79,9.29,9.29,0,0,0,1.35.1c.41,0,.53-.1.53-.53v-3.65c-.41.16-.5.18-.83.3a4.46,4.46,0,0,0-.89.34l-.32-2a11.27,11.27,0,0,0,2-.54v-3.1h-.6a9.71,9.71,0,0,0-1.21.06v-1.84a6.51,6.51,0,0,0,1.22.08h.59v-1.39a12.26,12.26,0,0,0-.1-1.77h2a9.69,9.69,0,0,0-.1,1.75v1.41H35a3.89,3.89,0,0,0,.86-.07v1.82a7,7,0,0,0-.9,0h-.46v2.48a15.17,15.17,0,0,0,1.41-.6l0,1.41a7.63,7.63,0,0,0,2-3.21h-.21a3,3,0,0,0-.45,0l-.55,0-.33,0L36.13,119a8.81,8.81,0,0,0,1.31.07h.21a14.4,14.4,0,0,0,1.55-3.37l2,.36c-.74,1.44-1.15,2.21-1.24,2.33a6.36,6.36,0,0,1-.38.64c1.26,0,2.4-.12,3.44-.19-.44-.55-.64-.81-1.28-1.5l1.48-.72a34.27,34.27,0,0,1,3.23,4l-1.55,1c-.38-.63-.5-.83-.76-1.23-3.8.28-4.3.31-5.9.34l1.45.44c-.23.5-.26.55-.47,1h4.43a15,15,0,0,0,2-.08v1.77c-.59-.05-1.19-.08-1.93-.08H41.94c0,.84-.07,1.19-.15,1.74H44.5a15.83,15.83,0,0,0,2-.08v1.83a16.41,16.41,0,0,0-2-.11H42.32a6.19,6.19,0,0,0,4.58,2.78,6.64,6.64,0,0,0-.9,1.85,8.08,8.08,0,0,1-3-1.38,7,7,0,0,1-2-2.25,6.24,6.24,0,0,1-2.1,2.35,9.37,9.37,0,0,1-3,1.3,5.26,5.26,0,0,0-1-1.71c2.36-.4,3.81-1.32,4.59-2.94h-2a15.25,15.25,0,0,0-1.95.11v-1.83a14.78,14.78,0,0,0,1.92.08H40a12.17,12.17,0,0,0,.12-1.74Z" transform="translate(0.5 0.5)"/><path class="cls-2" d="M55.25,122.92a15.8,15.8,0,0,0-1.74-3.42v1.14c-.34,0-.58,0-.95,0H52v2.67c.81-.24,1-.32,1.87-.63v1.64c-.88.38-1.19.5-1.87.74v4.83c0,.9-.22,1.3-.86,1.49a6.65,6.65,0,0,1-1.57.17c-.24,0-.38,0-1,0a6,6,0,0,0-.4-1.81,12.88,12.88,0,0,0,1.54.1c.39,0,.46-.06.46-.48v-3.66l-1,.33a6.36,6.36,0,0,0-.88.29l-.35-1.93a12.36,12.36,0,0,0,2.26-.52v-3.19h-.81a9.79,9.79,0,0,0-1.26.08v-1.86a7.51,7.51,0,0,0,1.3.09h.77v-1.44a10.91,10.91,0,0,0-.1-1.76h2a11.39,11.39,0,0,0-.11,1.75v1.45h.56a5.17,5.17,0,0,0,1-.07v0a9.86,9.86,0,0,0,1.69-3.3l1.94.59a26.66,26.66,0,0,1-1.85,3A24.37,24.37,0,0,1,57,122.06l1.5.46c-.13.23-.32.52-.46.78h3.28a5.09,5.09,0,0,0,1.08-.07l.87.93c-.16.26-.23.4-.37.62a13,13,0,0,1-8.83,7,5.94,5.94,0,0,0-1.12-1.68,11.17,11.17,0,0,0,4.71-1.9,13.19,13.19,0,0,0-1.85-1.33l1.16-1.15a19,19,0,0,1,2,1.41A9.92,9.92,0,0,0,60.62,125H56.84a13.6,13.6,0,0,1-3,2.83,5.36,5.36,0,0,0-1.26-1.37,9.2,9.2,0,0,0,3.83-3.93Zm5.08-6.68a24.08,24.08,0,0,1-1.8,2.92A19.94,19.94,0,0,1,60.31,122l-1.74.62a16.46,16.46,0,0,0-2-3.54,10.18,10.18,0,0,0,1.87-3.54Zm3.35,0c-.09.12-.28.43-.78,1.33a15.64,15.64,0,0,1-1,1.57,25,25,0,0,1,2,2.79l-1.74.8a17.14,17.14,0,0,0-2.26-3.54,11.08,11.08,0,0,0,1.9-3.57Z" transform="translate(0.5 0.5)"/><path class="cls-2" d="M67.72,118.28l-1.76.36A4.86,4.86,0,0,0,65.3,117a13.51,13.51,0,0,0,5.15-1.47l1.1,1.55-.4.16a13.32,13.32,0,0,1-1.65.6v2.28h.74a5.34,5.34,0,0,0,1.07-.07v1.8a7.14,7.14,0,0,0-1.11-.07h-.62a6.92,6.92,0,0,0,1.87,2.54v-1.4a11.85,11.85,0,0,0,1.83.09h5.6a14.91,14.91,0,0,0,1.94-.09v1.81a15.8,15.8,0,0,0-1.95-.08h-2v1.44h1.82a12.12,12.12,0,0,0,1.77-.08v1.79a13.93,13.93,0,0,0-1.77-.08H76.86v1.62h2.26a14.22,14.22,0,0,0,2-.09v1.87a15.65,15.65,0,0,0-2-.11H72.59a15.08,15.08,0,0,0-1.94.11v-1.87a13,13,0,0,0,1.94.09h2.46v-1.62H73.34a14.06,14.06,0,0,0-1.76.08V126a11.2,11.2,0,0,0,1.76.08h1.71v-1.44H73.24a16.35,16.35,0,0,0-1.76.06,5.51,5.51,0,0,0-.74,1.3,8.75,8.75,0,0,1-1.33-2c0,.43.09,1.29.09,1.85v3.69a15.19,15.19,0,0,0,.08,2.05h-2a16.52,16.52,0,0,0,.1-2v-3c0-.24,0-1.12.07-2a10.28,10.28,0,0,1-2,3.58,7.41,7.41,0,0,0-.93-1.7,10.55,10.55,0,0,0,1.64-2.41,13.54,13.54,0,0,0,1-2.35h-.94a6.74,6.74,0,0,0-1.19.09V120a6.66,6.66,0,0,0,1.26.08h1.09Zm4.24-.59c0-.55,0-1-.06-1.38a12.1,12.1,0,0,0,1.48.07h5.4a12.13,12.13,0,0,0,1.5-.07,11.11,11.11,0,0,0-.07,1.38v2.86a9.94,9.94,0,0,0,.07,1.4c-.41,0-.86,0-1.52,0H73.4c-.64,0-1.09,0-1.5,0a10,10,0,0,0,.06-1.38Zm1.8,2.6h4.61V118H73.76Z" transform="translate(0.5 0.5)"/><path class="cls-2" d="M85.64,121.31a35.67,35.67,0,0,1-.49,6.1,12.6,12.6,0,0,1-1.46,4.11,7.41,7.41,0,0,0-1.45-1.59,9.53,9.53,0,0,0,1.07-3,36.91,36.91,0,0,0,.5-7.79c0-1.28,0-1.73-.07-2.35.6,0,1.21.09,2,.09H90v-.38a5.84,5.84,0,0,0-.09-1h2a4.07,4.07,0,0,0-.08,1v.36h4.28a17.28,17.28,0,0,0,2.08-.1v1.79c-.57-.05-1-.07-1.81-.07H95.09v1.21h1.66a9.2,9.2,0,0,0,1.54-.09v1.71a11.31,11.31,0,0,0-1.54-.07H95.09v1.63a10.6,10.6,0,0,0,0,1.08H88c0-.29.07-.72.07-1.08v-1.63Zm10.85,4.63c-.15.15-.17.17-.33.35a14.13,14.13,0,0,1-2.84,2.58,15.13,15.13,0,0,0,5.1.82,8.65,8.65,0,0,0-.72,1.95A17.16,17.16,0,0,1,91.47,130a18.28,18.28,0,0,1-5.9,1.69,6.13,6.13,0,0,0-.67-1.77,16.57,16.57,0,0,0,4.93-1,10.05,10.05,0,0,1-2.35-2.45c-.6,0-.86,0-1.22.07V124.9a11.68,11.68,0,0,0,1.84.09h6c.7,0,1,0,1.43,0Zm-8.4-6.18v-1.21H85.65v1.21Zm1.48,6.7a6.76,6.76,0,0,0,2,1.62,9.36,9.36,0,0,0,2.14-1.62Zm3.71-6.7v-1.21H89.9v1.21ZM89.9,122.5h3.38v-1.19H89.9Z" transform="translate(0.5 0.5)"/><path class="cls-2" d="M54.85,143.53a1.8,1.8,0,0,0-2-1.43,2.41,2.41,0,0,0-2.31,1.48,5.8,5.8,0,0,0-.5,2.14,3.1,3.1,0,0,1,1.08-.77,5.28,5.28,0,0,1,2.3-.45c3.12,0,5.09,1.86,5.09,4.83s-2.35,5.08-5.75,5.08a5.57,5.57,0,0,1-4.31-1.75,8.13,8.13,0,0,1-1.76-5.56,9.63,9.63,0,0,1,1.43-5.43A5.57,5.57,0,0,1,53,139.35a5.42,5.42,0,0,1,4,1.52,5.61,5.61,0,0,1,1.16,1.94Zm-4.47,5.89a2.23,2.23,0,0,0,2.4,2.19,2.25,2.25,0,0,0,2.45-2.23,2.09,2.09,0,0,0-2.38-2.14A2.19,2.19,0,0,0,50.38,149.42Z" transform="translate(0.5 0.5)"/><path class="cls-2" d="M61.74,152.75a5.47,5.47,0,0,1-1.26-1.92,11.38,11.38,0,0,1-.67-4,10.18,10.18,0,0,1,1.08-4.78,5.63,5.63,0,0,1,5-2.73,5.87,5.87,0,0,1,4.2,1.61,5.43,5.43,0,0,1,1.26,1.91,11.49,11.49,0,0,1,.67,4,10.11,10.11,0,0,1-1.09,4.8,5.62,5.62,0,0,1-5,2.69A5.72,5.72,0,0,1,61.74,152.75Zm1.6-6c0,3.09.88,4.68,2.59,4.68s2.55-1.55,2.55-4.63-.89-4.5-2.57-4.5S63.34,143.93,63.34,146.74Z" transform="translate(0.5 0.5)"/><path class="cls-2" d="M74.2,146.48a5,5,0,0,1,0-6.09,3.73,3.73,0,0,1,2.67-1,3.69,3.69,0,0,1,2.68,1,5,5,0,0,1,0,6.11,4.11,4.11,0,0,1-5.35,0Zm12.11-7.25.92.69L76,154.53l-.9-.69Zm-10.75,4.2c0,1.45.45,2.21,1.33,2.21s1.32-.75,1.32-2.21-.45-2.16-1.32-2.16S75.56,142,75.56,143.43Zm7.18,9.91a5,5,0,0,1,0-6.1,3.77,3.77,0,0,1,2.69-1c2.35,0,3.71,1.48,3.71,4a4.18,4.18,0,0,1-1,3.07,3.73,3.73,0,0,1-2.68,1A3.8,3.8,0,0,1,82.74,153.34Zm1.37-3.09c0,1.48.44,2.24,1.32,2.24s1.33-.74,1.33-2.24-.45-2.13-1.31-2.13S84.11,148.85,84.11,150.25Z" transform="translate(0.5 0.5)"/><ellipse class="cls-6" cx="112.07" cy="112.02" rx="111.93" ry="111.98" transform="translate(0.33 0.67) rotate(-0.09)"/><path d="M94.72,13.87a10.75,10.75,0,0,0-1.3.06v-.85a11.86,11.86,0,0,1-1.31.68,7.75,7.75,0,0,0-.79-1.27,11.51,11.51,0,0,0,2.9-1.58,10.34,10.34,0,0,0,1.32-1.26,5,5,0,0,0,.64-.86h1.53a8.75,8.75,0,0,0,2.13,2.12,10.75,10.75,0,0,0,2.93,1.52,5.57,5.57,0,0,0-.76,1.38,14.15,14.15,0,0,1-1.43-.76v.88a10.77,10.77,0,0,0-1.27-.06H97.62v1.35h1.94a10.34,10.34,0,0,0,1.32-.06v1.35a10.9,10.9,0,0,0-1.32-.06H97.62v1.61h3.12a12.28,12.28,0,0,0,1.52-.07V19.4a10.44,10.44,0,0,0-1.51-.09H93.27a10,10,0,0,0-1.49.09V18a11.73,11.73,0,0,0,1.53.07h3V16.45H94.52a11,11,0,0,0-1.33.06V15.16a9.65,9.65,0,0,0,1.33.06h1.76V13.87Zm4.65-1.21h.56A10.85,10.85,0,0,1,97,9.93a9.76,9.76,0,0,1-2.89,2.72h5.27Z" transform="translate(0.5 0.5)"/><path d="M111.77,9.84c-.21.15-.43.35-1.48,1.32-.61.56-1.45,1.24-2.85,2.3-.37.28-.45.37-.45.51s0,.2,1.07,1a39.07,39.07,0,0,1,3.78,3.13,2.72,2.72,0,0,0,.35.3L111,19.63A11.59,11.59,0,0,0,109.39,18a37.66,37.66,0,0,0-3.09-2.55c-.79-.61-1-.93-1-1.49a1.41,1.41,0,0,1,.39-1,7.43,7.43,0,0,1,1.06-.86,26.3,26.3,0,0,0,2.76-2.34,5.87,5.87,0,0,0,.88-1Z" transform="translate(0.5 0.5)"/><path d="M96.22,22a6.81,6.81,0,0,0-.19.8c-.06.29-.12.53-.25,1.06a11,11,0,0,0,1.91-.34l0,1.38a1.88,1.88,0,0,0-.38.06c-.43.07-1.17.15-1.91.21a23.25,23.25,0,0,1-1.32,3.48c-.27.59-.38.8-.83,1.64l-.23.43-1.38-.76A11.28,11.28,0,0,0,92.84,28,18.62,18.62,0,0,0,94,25.16H92.1V23.78a7.86,7.86,0,0,0,1.62.11h.61a13.25,13.25,0,0,0,.36-2.09Zm5.43,9.71a7.29,7.29,0,0,0-1.83-1.49c0,.11,0,.19,0,.24a1.88,1.88,0,0,1-.52,1.27,2.76,2.76,0,0,1-2,.67c-1.58,0-2.61-.79-2.61-2s1.07-2.06,2.59-2.06a6.3,6.3,0,0,1,1.12.1c0-.55-.06-1-.06-1.37a6.48,6.48,0,0,1,.09-1.21l1.39.07a4,4,0,0,0-.14,1.21,11.7,11.7,0,0,0,.11,1.64,7.36,7.36,0,0,1,1.89,1.1,3.76,3.76,0,0,1,.42.33,1.29,1.29,0,0,0,.18.16Zm-4.26-2.2c-.77,0-1.28.33-1.28.83s.43.78,1.18.78,1.21-.34,1.21-1c0-.12,0-.41,0-.41A3.08,3.08,0,0,0,97.39,29.46Zm4.32-3.32a15,15,0,0,0-3.45-1.68L99,23.3a18.58,18.58,0,0,1,3.37,1.61Z" transform="translate(0.5 0.5)"/><path d="M105.94,22.92a14.06,14.06,0,0,0-.09,1.82,21.26,21.26,0,0,0,.23,3.21c.2,1.25.58,2,1,2,.18,0,.34-.18.49-.52a9.18,9.18,0,0,0,.63-2.17,5.81,5.81,0,0,0,1.2,1.09c-.62,2.34-1.32,3.31-2.34,3.31-.8,0-1.45-.59-1.92-1.74s-.71-2.93-.76-6.25a4.82,4.82,0,0,0,0-.77Zm5.67.54a12,12,0,0,1,2.7,6.45l-1.49.56a12,12,0,0,0-.77-3.46,10.05,10.05,0,0,0-1.7-3Z" transform="translate(0.5 0.5)"/><path d="M97.66,46.42a1.21,1.21,0,0,0,.34.77,1.83,1.83,0,0,0,1.37.52c.94,0,1.53-.47,1.53-1.2a1,1,0,0,0-.65-1,3.37,3.37,0,0,0-1.12-.16c-.46,0-1,0-1.47.07V43.33a10.13,10.13,0,0,0,1.27.07c1.14,0,1.7-.38,1.7-1.15s-.45-1-1.24-1a1.3,1.3,0,0,0-1.47,1.11L95.34,42a3.41,3.41,0,0,1,.8-1.52,4.28,4.28,0,0,1,3.29-1.2,4.35,4.35,0,0,1,3.07,1,2.35,2.35,0,0,1,.67,1.7,2.3,2.3,0,0,1-2.06,2.39,2.73,2.73,0,0,1,1.55.64,2.35,2.35,0,0,1,.79,1.77,2.68,2.68,0,0,1-.48,1.59,3.05,3.05,0,0,1-1.13.9,6.39,6.39,0,0,1-2.49.47,5.4,5.4,0,0,1-2.79-.67,3.31,3.31,0,0,1-1.24-1.55,4.34,4.34,0,0,1-.2-.63Z" transform="translate(0.5 0.5)"/><path d="M105.08,44.22a3.45,3.45,0,0,1,0-4.23A2.6,2.6,0,0,1,107,39.3a2.55,2.55,0,0,1,1.86.69,2.89,2.89,0,0,1,.72,2.11,2.93,2.93,0,0,1-.73,2.13,2.87,2.87,0,0,1-3.72,0Zm8.41-5,.64.48L106.32,49.8l-.63-.48ZM106,42.1c0,1,.31,1.53.92,1.53s.91-.51.91-1.53-.31-1.5-.91-1.5S106,41.11,106,42.1ZM111,49a3.45,3.45,0,0,1,0-4.23,2.61,2.61,0,0,1,1.87-.69c1.63,0,2.58,1,2.58,2.8a2.91,2.91,0,0,1-.73,2.13,2.61,2.61,0,0,1-1.86.68A2.64,2.64,0,0,1,111,49Zm.95-2.15c0,1,.31,1.56.92,1.56s.92-.52.92-1.56-.31-1.47-.91-1.47S112,45.86,112,46.83Z" transform="translate(0.5 0.5)"/></g></svg>