<svg id="レイヤー_1" data-name="レイヤー 1" xmlns="http://www.w3.org/2000/svg" xmlns:xlink="http://www.w3.org/1999/xlink" viewBox="0 0 224.96 224.96"><defs><style>.cls-1{fill:none;}.cls-2{fill:#fff;}.cls-3{fill:#b01f24;}.cls-3,.cls-4{stroke:#fff;stroke-miterlimit:10;}.cls-4{fill:#b5b5b6;fill-rule:evenodd;}.cls-5{opacity:0.25;fill:url(#新規パターンスウォッチ_8);}</style><pattern id="新規パターンスウォッチ_8" data-name="新規パターンスウォッチ 8" width="28.35" height="28.35" patternTransform="translate(19.27 23.37) scale(0.25 0.25)" patternUnits="userSpaceOnUse" viewBox="0 0 28.35 28.35"><rect class="cls-1" width="28.35" height="28.35"/><path class="cls-2" d="M19.84,14.17A5.67,5.67,0,1,1,14.17,8.5,5.67,5.67,0,0,1,19.84,14.17Z"/><path class="cls-2" d="M34,0a5.67,5.67,0,0,1-5.67,5.67A5.67,5.67,0,0,1,22.68,0,5.67,5.67,0,0,1,34,0Z"/><path class="cls-2" d="M5.67,0A5.67,5.67,0,0,1,0,5.67,5.67,5.67,0,0,1-5.67,0,5.67,5.67,0,0,1,0-5.67,5.67,5.67,0,0,1,5.67,0Z"/><path class="cls-2" d="M34,28.35a5.67,5.67,0,1,1-5.67-5.67A5.67,5.67,0,0,1,34,28.35Z"/><path class="cls-2" d="M5.67,28.35A5.67,5.67,0,0,1,0,34a5.67,5.67,0,0,1-5.67-5.67A5.67,5.67,0,0,1,0,22.68,5.67,5.67,0,0,1,5.67,28.35Z"/></pattern></defs><title>en15</title><g id="_15" data-name="15"><path class="cls-3" d="M112,0A112,112,0,1,1,4.32,142.63L112,112Z" transform="translate(0.46 0.5)"/><path class="cls-4" d="M4.32,142.63A112,112,0,0,1,53.07,16.77L112,112Z" transform="translate(0.46 0.5)"/><path class="cls-4" d="M53.07,16.77A112,112,0,0,1,112,0V112Z" transform="translate(0.46 0.5)"/><path class="cls-2" d="M124.46,136a9.09,9.09,0,0,0-.91,1.6,14.22,14.22,0,0,1-4.94,5.09,4.88,4.88,0,0,0-1.26-1.62,10.61,10.61,0,0,0,4.61-4.42h-2.23a12,12,0,0,0-1.67.11v-1.89a11.15,11.15,0,0,0,1.76.09h2a5.09,5.09,0,0,0,1.58-.12Zm8.5-3a.59.59,0,0,0-.11.08l-1,1a23.9,23.9,0,0,1-3.11,2.73,13.66,13.66,0,0,0,1.93,2,10.46,10.46,0,0,0,3.2,1.86,7.61,7.61,0,0,0-1.3,2,17.47,17.47,0,0,1-3.36-2.64,14.22,14.22,0,0,1-2.7-4c.07.79.12,1.88.12,2.52V142c0,1.41-.48,1.78-2.39,1.78-.47,0-1,0-1.75-.07a5.29,5.29,0,0,0-.45-1.88,14.57,14.57,0,0,0,2.11.17c.36,0,.48,0,.53-.12s0-.05,0-.43v-8h-2.33a13,13,0,0,0-2,.1v-1.93c.55,0,1.17.09,2,.09h2.46a14.71,14.71,0,0,0,1.8-.07,1.49,1.49,0,0,0,0,.22,7.21,7.21,0,0,0,1.11,3.52,13.07,13.07,0,0,0,3.42-3.69Zm-10.05-5a39,39,0,0,1,6.16,1.7l-.83,1.77a27,27,0,0,0-6.26-1.74Z" transform="translate(0.46 0.5)"/><path class="cls-2" d="M136.55,136.92c0-.45,0-.8,0-2a12,12,0,0,1-1.34,1.85,9.29,9.29,0,0,0-.78-2.09,14.14,14.14,0,0,0,2.85-4.56,11.58,11.58,0,0,0,.66-2.24l2,.5a26.45,26.45,0,0,1-1.54,3.78v9.7a13.81,13.81,0,0,0,.13,2h-2.13a11.24,11.24,0,0,0,.12-2Zm8.84-5.49a17,17,0,0,0-3.42-2.18L143.3,128a20.89,20.89,0,0,1,3.63,2.14l-1.3,1.31h2.61a18.77,18.77,0,0,0,2-.1v1.93c-.6,0-1.26-.09-2-.09H145.7v3h2.14a15.16,15.16,0,0,0,1.92-.1V138c-.55-.05-1.17-.09-1.9-.09H145.7v3.63h3a17.23,17.23,0,0,0,2.05-.11v1.94c-.62-.05-1.21-.09-2.07-.09H141c-.84,0-1.41,0-2,.09v-1.94a16.23,16.23,0,0,0,2,.11h2.8V137.9h-1.83c-.73,0-1.33,0-1.9.09v-1.9a14.72,14.72,0,0,0,1.9.1h1.83v-3h-2.26c-.73,0-1.37,0-2,.09v-1.93a12.54,12.54,0,0,0,2,.1Z" transform="translate(0.46 0.5)"/><path class="cls-2" d="M162.54,134.85c0,.07,0,.2,0,.41a5.26,5.26,0,0,1,.55,2.43,5.56,5.56,0,0,1-2.57,4.67,12.1,12.1,0,0,1-3.13,1.41,5.59,5.59,0,0,0-1.22-2,8.29,8.29,0,0,0,2.93-1,3.58,3.58,0,0,0,2-2.52,2.83,2.83,0,0,1-2.53,1.22,3.15,3.15,0,0,1-2-.62,2.68,2.68,0,0,1-1.19-2.33,3.18,3.18,0,0,1,3.44-3.14,2.85,2.85,0,0,1,1.79.52,1.28,1.28,0,0,1,0-.21s0-1,0-1.47c-2.47.07-4.09.13-4.85.18-2.61.19-2.61.19-3.07.26l-.07-2.06a6.42,6.42,0,0,0,.84,0c.43,0,.71,0,2.94-.09l2.71-.07,1.46-.05a8.78,8.78,0,0,0-.1-2.09l2.18,0a13.69,13.69,0,0,0-.09,2.06c3,0,4.35-.05,5-.12l0,2c-.64,0-1.47-.08-2.9-.08-.42,0-.73,0-2.09,0v1.12ZM159,135a1.52,1.52,0,0,0-1.61,1.38,1.37,1.37,0,0,0,1.47,1.36,1.57,1.57,0,0,0,1.69-1.55C160.57,135.49,160,135,159,135Z" transform="translate(0.46 0.5)"/><path class="cls-2" d="M175.53,135.42a8.45,8.45,0,0,1,3.62-.8c2.95,0,4.85,1.52,4.85,3.89a4.21,4.21,0,0,1-2.34,3.81,8.55,8.55,0,0,1-4.18,1,5.82,5.82,0,0,1-3.35-.8,2.45,2.45,0,0,1-1-2c0-1.44,1.25-2.47,3-2.47a3.74,3.74,0,0,1,3,1.41,4.71,4.71,0,0,1,.79,1.56c1.44-.54,2.06-1.28,2.06-2.51s-1.33-2.22-3.42-2.22a10.64,10.64,0,0,0-7.11,2.9l-1.18-1.87a15.18,15.18,0,0,0,2.44-1.62,58.71,58.71,0,0,0,5.16-4.49l.31-.31,0,0c-.65.09-1.76.16-4.88.3a5.19,5.19,0,0,0-.83.08l-.09-2.07a15.33,15.33,0,0,0,2,.11c1.47,0,3.57-.09,5.25-.21a2.5,2.5,0,0,0,1.07-.23l1.07,1.52a3.63,3.63,0,0,0-.9.71c-.86.79-2.12,1.92-2.71,2.42-.31.26-1.55,1.19-1.9,1.41a4.91,4.91,0,0,1-.71.45Zm.52,4.3c-.63,0-1,.31-1,.79,0,.69.77,1.09,2.05,1.09a4.6,4.6,0,0,0,.9-.07C177.67,140.34,177,139.72,176.05,139.72Z" transform="translate(0.46 0.5)"/><path class="cls-2" d="M141.49,158.82a17.89,17.89,0,0,0-3.15,4.63,28.54,28.54,0,0,0-3.25,10.8h-5.32a32.79,32.79,0,0,1,2.76-8.95,35.62,35.62,0,0,1,3.78-6.18h-6.56a28.75,28.75,0,0,0-3.48.16v-4.35a31.05,31.05,0,0,0,3.73.16h7.78c2.12,0,2.77,0,3.71-.09Z" transform="translate(0.46 0.5)"/><path class="cls-2" d="M146.14,154.93a14.87,14.87,0,0,0,2.76.16h2.93a23.31,23.31,0,0,0,2.85-.09c-.11,1.22-.16,2.19-.16,3.71v12.07a26.19,26.19,0,0,0,.19,3.47h-5a26.11,26.11,0,0,0,.18-3.47V159H149a25.49,25.49,0,0,0-2.81.16Z" transform="translate(0.46 0.5)"/><path class="cls-2" d="M162.25,166.51a5,5,0,0,1,0-6.09,3.76,3.76,0,0,1,2.68-1,3.68,3.68,0,0,1,2.67,1,5,5,0,0,1,0,6.11,3.67,3.67,0,0,1-2.65,1A3.73,3.73,0,0,1,162.25,166.51Zm12.12-7.25.92.69L164,174.56l-.9-.69Zm-10.75,4.2c0,1.45.45,2.21,1.33,2.21s1.31-.74,1.31-2.21-.45-2.16-1.31-2.16S163.62,162,163.62,163.46Zm7.18,9.91a5,5,0,0,1,0-6.1,3.73,3.73,0,0,1,2.69-1c2.35,0,3.71,1.48,3.71,4a4.18,4.18,0,0,1-1.05,3.07,3.73,3.73,0,0,1-2.68,1A3.77,3.77,0,0,1,170.8,173.37Zm1.36-3.09c0,1.48.45,2.24,1.33,2.24s1.33-.74,1.33-2.24-.45-2.13-1.31-2.13S172.16,168.88,172.16,170.28Z" transform="translate(0.46 0.5)"/><circle class="cls-5" cx="111.98" cy="112.01" r="111.98" transform="matrix(1, -0.02, 0.02, 1, -1.86, 2.87)"/><path d="M15.74,76a14.34,14.34,0,0,0-.09,1.83,22.79,22.79,0,0,0,.22,3.21c.21,1.25.59,2,1,2,.18,0,.35-.18.5-.51A9.18,9.18,0,0,0,18,80.39a5.81,5.81,0,0,0,1.2,1.09c-.62,2.34-1.32,3.31-2.34,3.31-.8,0-1.45-.59-1.93-1.74s-.71-2.94-.75-6.26c0-.42,0-.5-.05-.77Zm5.67.54A12,12,0,0,1,24.11,83l-1.49.57a12.09,12.09,0,0,0-.77-3.47,10.32,10.32,0,0,0-1.7-3Z" transform="translate(0.46 0.5)"/><path d="M32.44,79.76s0,.15,0,.28a3.68,3.68,0,0,1,.38,1.69A3.83,3.83,0,0,1,31.05,85a8.81,8.81,0,0,1-2.17,1A4,4,0,0,0,28,84.6a5.88,5.88,0,0,0,2-.69,2.52,2.52,0,0,0,1.39-1.76A2,2,0,0,1,29.7,83a2.21,2.21,0,0,1-1.39-.43A1.89,1.89,0,0,1,27.48,81a2.21,2.21,0,0,1,2.39-2.18,2,2,0,0,1,1.24.36.49.49,0,0,1,0-.14s0-.69,0-1c-1.71,0-2.84.08-3.37.13a16.88,16.88,0,0,0-2.13.18l-.05-1.44c.26,0,.37,0,.59,0s.49,0,2-.06l1.88,0,1,0A6.87,6.87,0,0,0,31,75.27H32.5a12,12,0,0,0-.06,1.41c2.09,0,3,0,3.47-.07V78a19.47,19.47,0,0,0-2-.06H32.46v.78Zm-3.56,1.07a1,1,0,0,0,1,1,1.1,1.1,0,0,0,1.18-1.08.65.65,0,0,0-.23-.54,1.2,1.2,0,0,0-.8-.29A1.07,1.07,0,0,0,28.88,80.83Zm5.58-6.2a5.93,5.93,0,0,1,.83,1.57l-1,.23a5.87,5.87,0,0,0-.82-1.59Zm1.32,1.5A6.13,6.13,0,0,0,35,74.57l.93-.25a5.74,5.74,0,0,1,.82,1.52Z" transform="translate(0.46 0.5)"/><path d="M40.78,79.19a9.28,9.28,0,0,1,1.46-1.25,4.3,4.3,0,0,1,2.53-1.12,1.54,1.54,0,0,1,1.68,1.59,8.22,8.22,0,0,1-.3,1.83,14.76,14.76,0,0,0-.5,2.7c0,.38.18.6.49.6a1.21,1.21,0,0,0,.84-.61,5.69,5.69,0,0,0,.69-1.37A5.81,5.81,0,0,0,48.48,83a5.78,5.78,0,0,1-.84,1.19,2.35,2.35,0,0,1-1.78.86,1.82,1.82,0,0,1-1-.31,1.72,1.72,0,0,1-.62-1.51,12.22,12.22,0,0,1,.49-3A7.52,7.52,0,0,0,45,78.71c0-.29-.17-.44-.49-.44a2.87,2.87,0,0,0-1.49.64,14.25,14.25,0,0,0-2.18,2c0,.54,0,.87,0,1.21,0,.09,0,.09,0,1.42a15.25,15.25,0,0,0,.06,2H39.29a9.27,9.27,0,0,0,.09-1.9c0-1.29,0-1.29,0-1.61h0a9,9,0,0,1-.85,1,6,6,0,0,0-.55.68l-.7-1.42a5.77,5.77,0,0,0,.78-.69c1.13-1.11,1.13-1.11,1.35-1.36,0-.58,0-.71,0-1.18,0-.27,0-.3,0-.62a14.11,14.11,0,0,0-1.83.17l-.07-1.36a2.91,2.91,0,0,0,.49,0c.23,0,.89,0,1.45-.08,0-.18,0-.18,0-.45s0-.71,0-1a4.79,4.79,0,0,0,0-.67l1.52,0a1.41,1.41,0,0,0-.05.44c0,.06,0,.22,0,.46s0,.33,0,1.06L41,77l.45.5a1.7,1.7,0,0,0-.35.36,1.27,1.27,0,0,0-.17.21l-.14.2,0,.7s0,.08,0,.22Z" transform="translate(0.46 0.5)"/><path d="M50.4,85.28a3.6,3.6,0,0,0-.06-.47,23,23,0,0,1-.1-7c.06-.36.06-.36.33-1.71a7,7,0,0,0,.13-.89v0l1.62.17a19.23,19.23,0,0,0-1,6c0,.43,0,.43,0,.62v.19c0,.1,0,.12,0,.26h0l.14-.35.15-.41.22-.54a1.68,1.68,0,0,0,.15-.37l1,.44a10,10,0,0,0-1.19,3.67,1.83,1.83,0,0,0,0,.32Zm2.71-7.85a8.84,8.84,0,0,0,2.17.19c.42,0,.68,0,1.1,0,0-.7,0-1.3,0-1.79a2.77,2.77,0,0,0,0-.58l1.5,0A11.8,11.8,0,0,0,57.75,77v.55a11.9,11.9,0,0,0,1.62-.29l.26-.09.1,0,0,1.36a1.61,1.61,0,0,0-.34.06c-.41.08-1,.19-1.67.26V79c0,.67,0,.7.12,2.71a10.07,10.07,0,0,1,1.88,1.09,2.45,2.45,0,0,0,.34.21l-.58,1.45a4.41,4.41,0,0,0-.9-.77l-.75-.49v.17a2.1,2.1,0,0,1-.1.67c-.27.7-1.11,1.12-2.28,1.12-1.57,0-2.52-.74-2.52-2s1-2,2.46-2a2.83,2.83,0,0,1,1.07.17c0-.3,0-.89-.09-2.55l-1.08,0c-.45,0-.93,0-1.49-.06h-.56a.35.35,0,0,0-.12,0,.12.12,0,0,0-.07,0Zm2.43,5c-.76,0-1.24.3-1.24.79s.43.74,1.1.74a1.18,1.18,0,0,0,1-.37,1,1,0,0,0,.16-.65v-.32A2.62,2.62,0,0,0,55.54,82.45Z" transform="translate(0.46 0.5)"/><path d="M66,76A6.74,6.74,0,0,0,66,74.83h1.5A7.35,7.35,0,0,0,67.38,76v2.63h2.56v-2a8.46,8.46,0,0,0,0-.94h1.43a8.1,8.1,0,0,0-.06,1v2.39a7.25,7.25,0,0,0,0,.76c-.26,0-.55,0-.84,0H67.38v3.93h3v-2a6.15,6.15,0,0,0-.06-1h1.45A8.79,8.79,0,0,0,71.67,82v2.59a7.47,7.47,0,0,0,.07,1.2h-1.4v-.63H63.21v.63h-1.4a10.22,10.22,0,0,0,.07-1.2V82a11.43,11.43,0,0,0-.06-1.15h1.45a5.66,5.66,0,0,0-.06,1v1.94H66V79.9H63.15c-.33,0-.58,0-.86,0,0-.26,0-.49,0-.76V76.79a6.39,6.39,0,0,0-.06-1.05H63.7a6.37,6.37,0,0,0-.05,1v1.94H66Z" transform="translate(0.46 0.5)"/><path d="M77.53,79.88A5.84,5.84,0,0,1,80,79.33c2,0,3.37,1.06,3.37,2.7a2.92,2.92,0,0,1-1.63,2.65,6,6,0,0,1-2.9.68,4,4,0,0,1-2.32-.55,1.69,1.69,0,0,1-.72-1.38,1.84,1.84,0,0,1,2.06-1.71,2.58,2.58,0,0,1,2.07,1,3.19,3.19,0,0,1,.55,1.08c1-.37,1.43-.89,1.43-1.74S81,80.5,79.58,80.5a7.37,7.37,0,0,0-4.94,2l-.82-1.3a10.24,10.24,0,0,0,1.69-1.12A39.59,39.59,0,0,0,79.1,77l.21-.21v0c-.46.06-1.22.11-3.39.21a3.34,3.34,0,0,0-.58.06l-.06-1.44a10.65,10.65,0,0,0,1.42.07c1,0,2.48-.06,3.64-.14a1.72,1.72,0,0,0,.74-.16l.75,1.06a2.37,2.37,0,0,0-.63.49c-.6.55-1.47,1.33-1.88,1.68-.21.18-1.08.82-1.32,1s-.3.2-.49.31Zm.36,3c-.44,0-.71.21-.71.55s.54.76,1.43.76a3.15,3.15,0,0,0,.62-.05C79,83.3,78.56,82.87,77.89,82.87Z" transform="translate(0.46 0.5)"/><path d="M38.2,101.4c-1.08,0-1.36,0-1.8,0a5.9,5.9,0,0,1,2-4.1,15.86,15.86,0,0,1,2.13-1.59c1-.7,1.28-1,1.28-1.56s-.51-1-1.28-1a1.37,1.37,0,0,0-1.25.6,2.2,2.2,0,0,0-.3,1l-2.51-.27a3.89,3.89,0,0,1,.87-2.13,4,4,0,0,1,3.18-1.24A3.85,3.85,0,0,1,44,92.72a2.63,2.63,0,0,1,.4,1.41,2.77,2.77,0,0,1-1.11,2.23,16.36,16.36,0,0,1-1.73,1.28,4.91,4.91,0,0,0-1.77,1.67h2.8a14.69,14.69,0,0,0,1.91-.09v2.27c-.69-.06-1.19-.09-2.05-.09Z" transform="translate(0.46 0.5)"/><path d="M46.83,100.5A3.78,3.78,0,0,1,46,99.17a8,8,0,0,1-.47-2.74,6.93,6.93,0,0,1,.76-3.32,3.9,3.9,0,0,1,3.48-1.9,4.1,4.1,0,0,1,2.92,1.12,3.78,3.78,0,0,1,.87,1.33A8,8,0,0,1,54,96.42a7,7,0,0,1-.76,3.33,4.25,4.25,0,0,1-6.4.75ZM48,96.33c0,2.15.61,3.25,1.79,3.25s1.78-1.08,1.78-3.21-.62-3.13-1.79-3.13S48,94.38,48,96.33Z" transform="translate(0.46 0.5)"/><path d="M55.49,96.15A2.88,2.88,0,0,1,54.77,94a2.91,2.91,0,0,1,.73-2.12,2.64,2.64,0,0,1,1.86-.68,2.57,2.57,0,0,1,1.86.68,3.48,3.48,0,0,1,0,4.25,2.62,2.62,0,0,1-1.85.68A2.58,2.58,0,0,1,55.49,96.15Zm8.42-5,.63.48-7.81,10.14-.63-.48ZM56.44,94c0,1,.31,1.54.92,1.54s.91-.52.91-1.54-.31-1.5-.91-1.5S56.44,93.05,56.44,94Zm5,6.88a3.47,3.47,0,0,1,0-4.23A2.61,2.61,0,0,1,63.31,96c1.63,0,2.57,1,2.57,2.79a2.89,2.89,0,0,1-.73,2.13,2.55,2.55,0,0,1-1.86.69A2.61,2.61,0,0,1,61.42,100.91Zm.95-2.14c0,1,.31,1.55.92,1.55s.93-.51.93-1.55-.31-1.48-.91-1.48S62.37,97.8,62.37,98.77Z" transform="translate(0.46 0.5)"/><path d="M79.15,26.55a1.57,1.57,0,0,0,.57,1,2.25,2.25,0,0,0,1.45.47c1.18,0,1.94-.61,1.94-1.56a1.4,1.4,0,0,0-.67-1.26,3.08,3.08,0,0,0-1.38-.29,9.81,9.81,0,0,0-1.28.06V23.47a9.47,9.47,0,0,0,1.16.06c1.2,0,1.91-.56,1.91-1.48s-.57-1.29-1.59-1.29a2,2,0,0,0-1.3.37,1.81,1.81,0,0,0-.51.92l-1.71-.29a3,3,0,0,1,1.14-1.71,3.91,3.91,0,0,1,2.35-.66c2,0,3.29,1,3.29,2.57a2.21,2.21,0,0,1-.82,1.76,3.11,3.11,0,0,1-1.17.47,2.5,2.5,0,0,1,1.72.8,2.32,2.32,0,0,1,.57,1.65,2.5,2.5,0,0,1-.72,1.75,4.08,4.08,0,0,1-2.94,1,3.74,3.74,0,0,1-3-1.14,3.13,3.13,0,0,1-.67-1.34Z" transform="translate(0.46 0.5)"/><path d="M87.23,28.37a3.45,3.45,0,0,1-.8-1.21A8.08,8.08,0,0,1,86,24.4a7,7,0,0,1,.73-3.32,3.4,3.4,0,0,1,3-1.67,3.46,3.46,0,0,1,2.53,1,3.13,3.13,0,0,1,.79,1.21,7.84,7.84,0,0,1,.47,2.78,6.34,6.34,0,0,1-.88,3.55,3.73,3.73,0,0,1-5.43.44Zm3.82-.92a4.64,4.64,0,0,0,.84-3.09,4.61,4.61,0,0,0-.84-3.06,1.72,1.72,0,0,0-1.31-.51,1.61,1.61,0,0,0-1.34.61,4.49,4.49,0,0,0-.79,2.92,5.41,5.41,0,0,0,.61,2.85,1.91,1.91,0,0,0,2.83.28Z" transform="translate(0.46 0.5)"/><path d="M96.56,23.59c0-.27,0-.45,0-.7.25,0,.51,0,.84,0H100V21.37h-2.5a11.31,11.31,0,0,1-2,2.36,5.27,5.27,0,0,0-.89-1.07,7.41,7.41,0,0,0,2.34-3,3.49,3.49,0,0,0,.29-.87l1.42.29-.18.36-.34.75h5.61a8.21,8.21,0,0,0,1.22-.06v1.31a8.54,8.54,0,0,0-1.22-.06h-2.45v1.56h1.93a10.15,10.15,0,0,0,1.23-.06v1.27a10.14,10.14,0,0,0-1.19-.05h-2V26h2.78a9.55,9.55,0,0,0,1.31-.07v1.37a9.67,9.67,0,0,0-1.31-.08h-2.78v1.5a7.17,7.17,0,0,0,.07,1.28H99.9a8.4,8.4,0,0,0,.07-1.3V27.25h-4a9.73,9.73,0,0,0-1.3.08V26a9.58,9.58,0,0,0,1.3.07h.62ZM100,26V24.09H97.81V26Z" transform="translate(0.46 0.5)"/><path d="M81.2,33.65a10.47,10.47,0,0,0-.1-1.42h1.53a9.53,9.53,0,0,0-.06,1.17v.27l.06,5.71a24.92,24.92,0,0,0,3.08-1.63L86,39a31.79,31.79,0,0,1-4.71,2.39l-.84.38-.38-1.46a8.11,8.11,0,0,0,1.2-.39ZM90,32.22l-.12,1.66a16.61,16.61,0,0,1-.57,3.35A8.92,8.92,0,0,1,88.57,39a6.93,6.93,0,0,0,2.61,2.57,5.89,5.89,0,0,0-.84,1.37,9.34,9.34,0,0,1-2.57-2.77,9.62,9.62,0,0,1-4,2.87A5.45,5.45,0,0,0,83,41.83a8,8,0,0,0,4.27-3.2A10.57,10.57,0,0,0,88.56,33a4.49,4.49,0,0,0,0-.79Zm-5.26.7a17.35,17.35,0,0,1,2.37,2.94l-1.23.85a14,14,0,0,0-2.29-3.06Z" transform="translate(0.46 0.5)"/><path d="M101.13,38.86a4.64,4.64,0,0,0-.79,1.12,8.77,8.77,0,0,1-2.89-3,5.54,5.54,0,0,1-.58,1.14,6.81,6.81,0,0,1-2.28,2.12,4.3,4.3,0,0,0-.76-1v2.33a9.48,9.48,0,0,0,.06,1.42H92.41a9.84,9.84,0,0,0,.09-1.45V34.66c0-.49,0-.83,0-1.16a11,11,0,0,0,1.39.06h2.94c0-.28,0-.45,0-.65a7.11,7.11,0,0,0-.07-1h1.49a3.18,3.18,0,0,0-.07.59c0,.17,0,.17,0,.66,0,.26,0,.26,0,.45h3.06a10.12,10.12,0,0,0,1.37-.06,9.3,9.3,0,0,0-.05,1.16v6.87c0,.5,0,.68-.18.86-.27.34-.7.43-1.82.43l-1.17,0a4.5,4.5,0,0,0-.37-1.37,11.81,11.81,0,0,0,1.56.13c.59,0,.65,0,.65-.38Zm-7.3.19a5.51,5.51,0,0,0,2-1.8,6.19,6.19,0,0,0,.85-2.49H93.83ZM98,34.76a4.87,4.87,0,0,1-.08.57,7.35,7.35,0,0,0,1.35,2,7.87,7.87,0,0,0,1.89,1.4v-4Z" transform="translate(0.46 0.5)"/><path d="M86.25,55.38a1.4,1.4,0,0,0,.29.51,1.47,1.47,0,0,0,1.13.45,1.7,1.7,0,0,0,1.53-.84,3.61,3.61,0,0,0,.41-1.63,3.14,3.14,0,0,1-2.39.86,3.24,3.24,0,0,1-3.56-3.32c0-2.12,1.63-3.57,4-3.57a3.87,3.87,0,0,1,3.45,1.77,6.21,6.21,0,0,1,.75,3.24,7.81,7.81,0,0,1-.68,3.35,3.58,3.58,0,0,1-2,1.83,5.58,5.58,0,0,1-1.6.25,4,4,0,0,1-2.77-.94,3.42,3.42,0,0,1-.92-1.42Zm3.12-4.09a1.69,1.69,0,0,0-3.37,0,1.5,1.5,0,0,0,1.63,1.54A1.57,1.57,0,0,0,89.37,51.29Z" transform="translate(0.46 0.5)"/><path d="M93.55,52.79a3.45,3.45,0,0,1,0-4.23,2.57,2.57,0,0,1,1.86-.69,2.53,2.53,0,0,1,1.85.69,3.46,3.46,0,0,1,0,4.24,2.85,2.85,0,0,1-3.71,0Zm8.41-5,.64.48L94.78,58.37l-.62-.48Zm-7.47,2.92c0,1,.31,1.53.93,1.53s.91-.52.91-1.53-.32-1.5-.91-1.5S94.49,49.68,94.49,50.67Zm5,6.88a3.46,3.46,0,0,1,0-4.24,2.63,2.63,0,0,1,1.87-.68c1.63,0,2.58,1,2.58,2.79a2.92,2.92,0,0,1-.73,2.14,2.88,2.88,0,0,1-3.73,0Zm1-2.15c0,1,.31,1.56.92,1.56s.92-.52.92-1.56-.31-1.47-.91-1.47S100.43,54.43,100.43,55.4Z" transform="translate(0.46 0.5)"/></g></svg>