<svg id="レイヤー_1" data-name="レイヤー 1" xmlns="http://www.w3.org/2000/svg" viewBox="0 0 298.94 182.94"><defs><style>.cls-1{fill:#fff;}.cls-2{fill:none;stroke:#002e12;stroke-linecap:round;stroke-linejoin:round;stroke-width:0.94px;}.cls-3{fill:#bcc5ba;}.cls-4{fill:#002e12;}</style></defs><path class="cls-1" d="M44.2,111c-8.41-3.67-8.51-3.53-14.36-5-6.11-1.52-10.13,3.55-3.07,7.78s22,13.13,31.47,15.65,13.16,4.76,13.16,4.76,5.7,5.78,8.31,8.41,10.12,7.33,10.12,7.33l9.93-10.68c.79-.84,6.31-5.3,6.31-5.3S115,124.58,117,122.36s2.1-2.7,2.1-2.7-15-9.54-17.43-11.6S88.87,97.83,87,96.3,64,76.64,61.13,74.6s-8.63-7.73-11.68-5.08c-3.2,2.76,1.86,6.89,4.57,8.57a35,35,0,0,1,6.28,4.84c.81.81.16,1.85-1.55.4-2.47-2.11-9.29-6.75-11.52-8.56s-7-5.51-8.6-6.59c-4.88-3.26-10.68.92-4.68,6C37.18,77,38.63,78,41.2,79.93s8.44,5.75,10,7,.92,2.45-1,1.35a139.88,139.88,0,0,1-12.5-8.9c-3-2.37-7.26-5.74-10.33-7.09-3.69-1.61-7.88,3.13-3.58,7.3a58,58,0,0,0,11.6,8.62c4.08,2.5,6,3.5,8.16,5.2,1.08.86.8,2.59-1.59,1.15s-5.39-4.11-8.39-5.91c-6.67-4-10.85-7.27-12.06-7.84-3.91-1.86-7.09,3.12-2.88,7.16,6,5.73,7.73,6.63,15,11.81,4.09,2.93,9.75,7.87,11.78,9.48s3.83,4-1.26,1.76"/><path class="cls-2" d="M44.2,111c-8.41-3.67-8.51-3.53-14.36-5-6.11-1.52-10.13,3.55-3.07,7.78s22,13.13,31.47,15.65,13.16,4.76,13.16,4.76,5.7,5.78,8.31,8.41,10.12,7.33,10.12,7.33l9.93-10.68c.79-.84,6.31-5.3,6.31-5.3S115,124.58,117,122.36s2.1-2.7,2.1-2.7-15-9.54-17.43-11.6S88.87,97.83,87,96.3,64,76.64,61.13,74.6s-8.63-7.73-11.68-5.08c-3.2,2.76,1.86,6.89,4.57,8.57a35,35,0,0,1,6.28,4.84c.81.81.16,1.85-1.55.4-2.47-2.11-9.29-6.75-11.52-8.56s-7-5.51-8.6-6.59c-4.88-3.26-10.68.92-4.68,6C37.18,77,38.63,78,41.2,79.93s8.44,5.75,10,7,.92,2.45-1,1.35a139.88,139.88,0,0,1-12.5-8.9c-3-2.37-7.26-5.74-10.33-7.09-3.69-1.61-7.88,3.13-3.58,7.3a58,58,0,0,0,11.6,8.62c4.08,2.5,6,3.5,8.16,5.2,1.08.86.8,2.59-1.59,1.15s-5.39-4.11-8.39-5.91c-6.67-4-10.85-7.27-12.06-7.84-3.91-1.86-7.09,3.12-2.88,7.16,6,5.73,7.73,6.63,15,11.81,4.09,2.93,9.75,7.87,11.78,9.48S49.29,113.2,44.2,111Z"/><path class="cls-1" d="M119.08,119.66s-.54,0-2.84,2.7c-2.81,3.24-6.48,7.32-9.69,10.6-2.56,2.62-5.66,4.06-8.18,7a38.71,38.71,0,0,1-5.21,5.22c-2.46,2.14-4,4-3.33,4.72s2-1.88,4.31-3.89c2.74-2.4,5.62-6.59,8.53-8.67a42,42,0,0,0,7.41-6.9c3.19-4.21,4.66-4.61,6.1-6.19s3.61-3.72,2.9-4.61"/><path class="cls-2" d="M119.08,119.66s-.54,0-2.84,2.7c-2.81,3.24-6.48,7.32-9.69,10.6-2.56,2.62-5.66,4.06-8.18,7a38.71,38.71,0,0,1-5.21,5.22c-2.46,2.14-4,4-3.33,4.72s2-1.88,4.31-3.89c2.74-2.4,5.62-6.59,8.53-8.67a42,42,0,0,0,7.41-6.9c3.19-4.21,4.66-4.61,6.1-6.19S119.79,120.55,119.08,119.66Z"/><path class="cls-1" d="M35.76,135.56a78.6,78.6,0,0,0-16.84-5c-6.15-1.31-11.66,4.19-4.45,8.17s25,13.43,34.49,15.61,16.66,4.26,16.66,4.26a81.53,81.53,0,0,0,6,6.59,82,82,0,0,0,9.1,6.56s7.65-5.43,8.41-6.3,8.78-9.05,8.78-9.05,8.37-9.77,10.27-12.06a14.61,14.61,0,0,1,2.73-2.8s-15.31-9-17.82-11S79.93,120.84,78,119.37,54.3,100.54,51.39,98.6,41.33,91,37.89,93.07s2.49,6.29,5.26,7.87,6.61,4.17,7.24,5.14.08,2.08-2.55.16-8-5.25-10.34-7-11.42-7.84-13.15-8.68c-4.18-2-9.5,2.41-4.4,6.6,5.49,4.51,8,5.65,10.68,7.46s9.67,5.43,11.31,6.58,1.11,2.2-.9,1.39c-6.52-2.62-9.64-5-14.5-8.52-3.11-2.27-9.62-6.39-12.73-7.62-3.75-1.49-9.9,3.24-5.46,7.25S18.8,110.72,23,113a75.36,75.36,0,0,1,9.07,5.38c1.11.83.94,2.88-1.5,1.53s-7.87-4.19-11-5.79c-5.36-2.74-11-6.27-12.25-6.8-4-1.73-9.26,3.69-5.71,7.12,4.68,4.53,14.25,9.52,20.13,12.24,4.58,2.12,13.1,5.56,15.18,7.09s4,3.85-1.19,1.81"/><path class="cls-2" d="M35.76,135.56a78.6,78.6,0,0,0-16.84-5c-6.15-1.31-11.66,4.19-4.45,8.17s25,13.43,34.49,15.61,16.66,4.26,16.66,4.26a81.53,81.53,0,0,0,6,6.59,82,82,0,0,0,9.1,6.56s7.65-5.43,8.41-6.3,8.78-9.05,8.78-9.05,8.37-9.77,10.27-12.06a14.61,14.61,0,0,1,2.73-2.8s-15.31-9-17.82-11S79.93,120.84,78,119.37,54.3,100.54,51.39,98.6,41.33,91,37.89,93.07s2.49,6.29,5.26,7.87,6.61,4.17,7.24,5.14.08,2.08-2.55.16-8-5.25-10.34-7-11.42-7.84-13.15-8.68c-4.18-2-9.5,2.41-4.4,6.6,5.49,4.51,8,5.65,10.68,7.46s9.67,5.43,11.31,6.58,1.11,2.2-.9,1.39c-6.52-2.62-9.64-5-14.5-8.52-3.11-2.27-9.62-6.39-12.73-7.62-3.75-1.49-9.9,3.24-5.46,7.25S18.8,110.72,23,113a75.36,75.36,0,0,1,9.07,5.38c1.11.83.94,2.88-1.5,1.53s-7.87-4.19-11-5.79c-5.36-2.74-11-6.27-12.25-6.8-4-1.73-9.26,3.69-5.71,7.12,4.68,4.53,14.25,9.52,20.13,12.24,4.58,2.12,13.1,5.56,15.18,7.09S40.93,137.6,35.76,135.56Z"/><path class="cls-1" d="M110.89,141.58s-1.19-1-4,3.12a88.41,88.41,0,0,1-8,9.9c-2.47,2.71-5.59,5-8,8a21.06,21.06,0,0,1-6.86,5.5c-1.68.91-4,2.69-3.37,3.65s2.4-1.42,5-2.95,5.39-4.85,8.23-7c2.2-1.7,4.24-5.5,6.4-7.1,3-2.24,5.08-6.48,6.46-8.11s4.82-3.57,4-5"/><path class="cls-2" d="M110.89,141.58s-1.19-1-4,3.12a88.41,88.41,0,0,1-8,9.9c-2.47,2.71-5.59,5-8,8a21.06,21.06,0,0,1-6.86,5.5c-1.68.91-4,2.69-3.37,3.65s2.4-1.42,5-2.95,5.39-4.85,8.23-7c2.2-1.7,4.24-5.5,6.4-7.1,3-2.24,5.08-6.48,6.46-8.11S111.66,143,110.89,141.58Z"/><polygon class="cls-3" points="187.38 151.68 81.73 150.03 81.55 0.63 187.2 2.28 187.38 151.68"/><polygon class="cls-2" points="187.38 151.68 81.73 150.03 81.55 0.63 187.2 2.28 187.38 151.68"/><rect class="cls-3" x="81.63" y="0.53" width="104.34" height="149.4" transform="translate(-0.09 0.17) rotate(-0.07)"/><rect class="cls-2" x="81.63" y="0.53" width="104.34" height="149.4" transform="translate(-0.09 0.17) rotate(-0.07)"/><path class="cls-1" d="M153.07,116.31s-8.28,5.52-8.69,16c-.31,7.9,3.75,12.16,8.37,15.46,5,3.56,14.25,5.13,26.12,3.09,6.78-1.17,16.48-5.24,27.56-13.46,4.22-3.12,20.09-17.44,28.7-24.45a228.34,228.34,0,0,0,19.41-17.78c5.82-5.63,11.41-10.11,10.74-19.63-.75-10.6-9.4-15.89-20.73-15.38s-20.07,7.27-24.86,11.09S206.45,83,200.41,86.52s-23.08,14.58-29.87,18.66-11.24,6.65-17.47,11.13"/><path class="cls-2" d="M153.07,116.31s-8.28,5.52-8.69,16c-.31,7.9,3.75,12.16,8.37,15.46,5,3.56,14.25,5.13,26.12,3.09,6.78-1.17,16.48-5.24,27.56-13.46,4.22-3.12,20.09-17.44,28.7-24.45a228.34,228.34,0,0,0,19.41-17.78c5.82-5.63,11.41-10.11,10.74-19.63-.75-10.6-9.4-15.89-20.73-15.38s-20.07,7.27-24.86,11.09S206.45,83,200.41,86.52s-23.08,14.58-29.87,18.66S159.3,111.83,153.07,116.31Z"/><path class="cls-2" d="M149.89,123.76s-2.84,2.57-2.55,8.57c.23,4.93,4.07,10,8.7,12.06a32.82,32.82,0,0,0,17.58,2.05"/><path class="cls-2" d="M233.17,107.21s12.27-11.06,18.21-16.76c6.68-6.4,8.86-8.94,9.28-15.13.47-7.14-4.74-11.37-9.66-12.57"/><path class="cls-1" d="M149.43,116.87s15.92-16.82,20.08-21.93,17.91-20.26,19.7-21.71c0,0,11.28.93,21.77,10.62,6.75,6.24,11.81,12.37,15.74,16.64,2.87,3.11,6.45,6.72,6.45,6.72s-13.81,12.06-17,15.07-16.13,13.93-22.61,17.45a63.81,63.81,0,0,1-20,6.7c-3.9-13.82-9.81-21.23-13-24.71a17.09,17.09,0,0,0-4.87-3.82,47.63,47.63,0,0,0-5.82,5.86s-2.55-3.94-.46-6.89"/><path class="cls-2" d="M149.43,116.87s15.92-16.82,20.08-21.93,17.91-20.26,19.7-21.71c0,0,11.28.93,21.77,10.62,6.75,6.24,11.81,12.37,15.74,16.64,2.87,3.11,6.45,6.72,6.45,6.72s-13.81,12.06-17,15.07-16.13,13.93-22.61,17.45a63.81,63.81,0,0,1-20,6.7c-3.9-13.82-9.81-21.23-13-24.71a17.09,17.09,0,0,0-4.87-3.82,47.63,47.63,0,0,0-5.82,5.86S147.34,119.82,149.43,116.87Z"/><path class="cls-2" d="M150,118.52s1.43-2.69,5.72-.62"/><path class="cls-1" d="M178.53,148.11s-6.22,7.47-5.72,14.56a20.62,20.62,0,0,0,9.24,16c5.36,3.61,15.14,5,27.57,2.52,7.11-1.42,16.13-5.15,27.55-14.1,4.35-3.41,24.27-22.83,32.68-31s17.89-16.26,21.27-19.72c6-6.08,8.16-11.5,7.09-18.25C296.34,86.47,285.45,82,275.7,83.32c-11.73,1.57-17.08,5.74-25.36,13a163.09,163.09,0,0,1-19,14.44c-6.26,3.86-25.39,17.17-32.42,21.65s-16.91,12.25-20.4,15.72"/><path class="cls-2" d="M178.53,148.11s-6.22,7.47-5.72,14.56a20.62,20.62,0,0,0,9.24,16c5.36,3.61,15.14,5,27.57,2.52,7.11-1.42,16.13-5.15,27.55-14.1,4.35-3.41,24.27-22.83,32.68-31s17.89-16.26,21.27-19.72c6-6.08,8.16-11.5,7.09-18.25C296.34,86.47,285.45,82,275.7,83.32c-11.73,1.57-17.08,5.74-25.36,13a163.09,163.09,0,0,1-19,14.44c-6.26,3.86-25.39,17.17-32.42,21.65S182,144.64,178.53,148.11Z"/><path class="cls-2" d="M268,131.45s9.84-8.92,15.78-14.62c6.68-6.4,10-10.58,10.31-16.78a13.29,13.29,0,0,0-10.6-13.66"/><path class="cls-2" d="M178.37,153.52s-2.61,3.39-1.8,9.44c.68,5.15,3.92,10.11,8.85,12.09A34.43,34.43,0,0,0,204,176.71"/><path class="cls-1" d="M258.66,124.87c-3.35-2.93-9.65-8.93-17.13-15.07s-22.1-11.66-22.1-11.66c-1.85,1.57-17,19-21.23,24.5-4,5.14-16.64,19.12-18.7,21.18a14,14,0,0,0-2.5,3.11c-1.36,2.92,1.37,6.59,1.37,6.59a32.41,32.41,0,0,1,4.78-6.15,24.62,24.62,0,0,1,7.6,5c3.51,3.57,8.74,9.93,13.23,24.37a67.47,67.47,0,0,0,20.83-7.62c6.72-3.89,20.06-15.72,23.3-19S268,131.45,268,131.45a84.8,84.8,0,0,1-9.37-6.58"/><path class="cls-2" d="M258.66,124.87c-3.35-2.93-9.65-8.93-17.13-15.07s-22.1-11.66-22.1-11.66c-1.85,1.57-17,19-21.23,24.5-4,5.14-16.64,19.12-18.7,21.18a14,14,0,0,0-2.5,3.11c-1.36,2.92,1.37,6.59,1.37,6.59a32.41,32.41,0,0,1,4.78-6.15,24.62,24.62,0,0,1,7.6,5c3.51,3.57,8.74,9.93,13.23,24.37a67.47,67.47,0,0,0,20.83-7.62c6.72-3.89,20.06-15.72,23.3-19S268,131.45,268,131.45A84.8,84.8,0,0,1,258.66,124.87Z"/><path class="cls-2" d="M177.81,147.93s-.2-2.66,5.34-.56"/><polygon class="cls-4" points="132.86 63.02 130.48 60.64 125.7 60.64 125.7 77.34 125.7 77.34 130 77.34 130 74.95 128.09 74.95 128.09 63.02 130.48 63.02 130.48 77.34 134.78 77.34 134.78 74.95 132.86 74.95 132.86 63.02"/><polygon class="cls-4" points="142.41 63.02 140.02 60.64 135.25 60.64 135.25 79.72 137.63 79.72 137.63 63.02 140.02 63.02 140.02 74.95 138.11 74.95 138.11 77.34 142.41 77.34 142.41 63.02"/><path class="cls-4" d="M128.82,80.9a1.54,1.54,0,0,1,1.06.35,1.24,1.24,0,0,1,.39,1,1.16,1.16,0,0,1-.41.91,1.39,1.39,0,0,1-1,.34h-1.69V80.9Zm.12,2.17a.84.84,0,0,0,.62-.24.86.86,0,0,0,.25-.64.9.9,0,0,0-.26-.66,1,1,0,0,0-.69-.25h-1.23v1.79Z"/><path class="cls-4" d="M135.5,82.63a.73.73,0,0,1-.39.64,1.9,1.9,0,0,1-1.05.26,2,2,0,0,1-1.06-.26.73.73,0,0,1-.39-.64V80.9H133v1.62a.5.5,0,0,0,.27.46,1.89,1.89,0,0,0,1.52,0,.51.51,0,0,0,.26-.46V80.9h.42Z"/><path class="cls-4" d="M140.05,80.9a.86.86,0,0,1,.63.22.75.75,0,0,1,.22.58.72.72,0,0,1-.23.58,1.08,1.08,0,0,1-.7.2h-1.52v1H138V80.9ZM140,82.1c.33,0,.49-.13.49-.4s-.17-.42-.52-.42h-1.5v.82Z"/><path class="cls-4" d="M128.23,85.15h-.17l-.24-.34h-.46v.34h-.15v-.9h.71a.33.33,0,0,1,.23.07.32.32,0,0,1,.08.21.25.25,0,0,1-.07.19.3.3,0,0,1-.17.08Zm-.33-.48c.12,0,.17,0,.17-.14s-.06-.15-.18-.15h-.53v.29Z"/><polygon class="cls-4" points="129.87 85.16 128.92 85.16 128.92 84.25 129.84 84.25 129.84 84.38 129.07 84.38 129.07 84.62 129.6 84.62 129.6 84.75 129.07 84.75 129.07 85.02 129.87 85.02 129.87 85.16"/><path class="cls-4" d="M131.33,84.46a.86.86,0,0,0-.41-.1.58.58,0,0,0-.21,0,.09.09,0,0,0-.07.09s0,.07.08.09l.18,0,.25,0a.49.49,0,0,1,.25.08.21.21,0,0,1,.08.17.26.26,0,0,1-.13.23.71.71,0,0,1-.36.08.77.77,0,0,1-.54-.16l.08-.11A.82.82,0,0,0,131,85a.55.55,0,0,0,.24,0,.14.14,0,0,0,.09-.12s0-.09-.11-.11l-.31,0a1,1,0,0,1-.32-.06.19.19,0,0,1-.1-.18.23.23,0,0,1,.12-.2.62.62,0,0,1,.33-.08.89.89,0,0,1,.5.14Z"/><rect class="cls-4" x="132.15" y="84.25" width="0.15" height="0.91"/><path class="cls-4" d="M133.62,84.25a.53.53,0,0,1,.37.12.42.42,0,0,1,.14.34A.42.42,0,0,1,134,85a.5.5,0,0,1-.34.12h-.6v-.9Zm0,.77a.28.28,0,0,0,.22-.09.29.29,0,0,0,.09-.22.32.32,0,0,0-.09-.24.37.37,0,0,0-.25-.09h-.43V85Z"/><polygon class="cls-4" points="135.77 85.16 134.82 85.16 134.82 84.25 135.73 84.25 135.73 84.38 134.97 84.38 134.97 84.62 135.5 84.62 135.5 84.75 134.97 84.75 134.97 85.02 135.77 85.02 135.77 85.16"/><polygon class="cls-4" points="137.46 85.16 137.28 85.16 136.59 84.41 136.59 85.16 136.43 85.16 136.43 84.25 136.62 84.25 137.31 84.99 137.31 84.25 137.46 84.25 137.46 85.16"/><path class="cls-4" d="M139.27,84.45l-.14,0a.53.53,0,0,0-.39-.14.47.47,0,0,0-.3.09.32.32,0,0,0-.12.25.34.34,0,0,0,.11.25.53.53,0,0,0,.32.09.49.49,0,0,0,.38-.15l.13.07a.57.57,0,0,1-.22.17.9.9,0,0,1-.3.05.65.65,0,0,1-.4-.12.45.45,0,0,1,0-.72.73.73,0,0,1,.93.11"/><polygon class="cls-4" points="140.91 85.16 139.96 85.16 139.96 84.25 140.87 84.25 140.87 84.38 140.11 84.38 140.11 84.62 140.64 84.62 140.64 84.75 140.11 84.75 140.11 85.02 140.91 85.02 140.91 85.16"/></svg>