<svg id="レイヤー_1" data-name="レイヤー 1" xmlns="http://www.w3.org/2000/svg" viewBox="0 0 42.396 59.777"><defs><style>.cls-1,.cls-2,.cls-3,.cls-4{fill:none;stroke:#004021;stroke-linecap:round;stroke-linejoin:round;stroke-width:2.224px;}.cls-2{stroke-dasharray:3.1 4.68;}.cls-3{stroke-dasharray:2.296 3.466;}.cls-4{stroke-dasharray:2.302 3.474;}.cls-5{fill:#df1614;}.cls-6{fill:#004021;}</style></defs><line class="cls-1" x1="23.116" y1="17.295" x2="23.115" y2="15.433"/><line class="cls-2" x1="23.113" y1="10.753" x2="23.11" y2="5.314"/><line class="cls-1" x1="23.109" y1="2.974" x2="23.108" y2="1.112"/><line class="cls-1" x1="9.542" y1="18.429" x2="8.33" y2="17.015"/><line class="cls-3" x1="6.074" y1="14.384" x2="3.451" y2="11.325"/><line class="cls-1" x1="2.323" y1="10.009" x2="1.112" y2="8.595"/><line class="cls-1" x1="41.284" y1="6.956" x2="40.414" y2="8.602"/><line class="cls-4" x1="38.79" y1="11.673" x2="36.902" y2="15.243"/><line class="cls-1" x1="36.09" y1="16.779" x2="35.22" y2="18.425"/><path class="cls-5" d="M16.223,59.777v-4L23.9,41.305a5.288,5.288,0,0,0,.667-1.9q.082-.813.084-2.022c0-.361-.008-.743-.021-1.147a2.807,2.807,0,0,0-.23-1.063,1.793,1.793,0,0,0-1.834-1.084,1.921,1.921,0,0,0-2.085,2.127v2.418H16.223V36.3a6.3,6.3,0,0,1,.5-2.5A6.481,6.481,0,0,1,18.1,31.757a6.245,6.245,0,0,1,2-1.4,6.064,6.064,0,0,1,2.5-.521,6.241,6.241,0,0,1,2.857.605,5.7,5.7,0,0,1,1.98,1.647,7.164,7.164,0,0,1,1.105,2.376A11.023,11.023,0,0,1,28.9,37.3q0,1.085-.042,1.814a10.882,10.882,0,0,1-.167,1.4,6.147,6.147,0,0,1-.417,1.334q-.293.669-.792,1.627l-6.255,12.05H28.9v4.253Z" transform="translate(0 0)"/><path class="cls-6" d="M16.223,59.777v-4L23.9,41.305a5.288,5.288,0,0,0,.667-1.9q.082-.813.084-2.022c0-.361-.008-.743-.021-1.147a2.807,2.807,0,0,0-.23-1.063,1.793,1.793,0,0,0-1.834-1.084,1.921,1.921,0,0,0-2.085,2.127v2.418H16.223V36.3a6.3,6.3,0,0,1,.5-2.5A6.481,6.481,0,0,1,18.1,31.757a6.245,6.245,0,0,1,2-1.4,6.064,6.064,0,0,1,2.5-.521,6.241,6.241,0,0,1,2.857.605,5.7,5.7,0,0,1,1.98,1.647,7.164,7.164,0,0,1,1.105,2.376A11.023,11.023,0,0,1,28.9,37.3q0,1.085-.042,1.814a10.882,10.882,0,0,1-.167,1.4,6.147,6.147,0,0,1-.417,1.334q-.293.669-.792,1.627l-6.255,12.05H28.9v4.253Z" transform="translate(0 0)"/></svg>