<svg id="レイヤー_1" data-name="レイヤー 1" xmlns="http://www.w3.org/2000/svg" viewBox="0 0 42.396 59.741"><defs><style>.cls-1,.cls-2,.cls-3,.cls-4{fill:none;stroke:#004021;stroke-linecap:round;stroke-linejoin:round;stroke-width:2.224px;}.cls-2{stroke-dasharray:3.1 4.68;}.cls-3{stroke-dasharray:2.296 3.466;}.cls-4{stroke-dasharray:2.302 3.474;}.cls-5{fill:#df1614;}.cls-6{fill:#004021;}</style></defs><line class="cls-1" x1="23.116" y1="17.295" x2="23.115" y2="15.433"/><line class="cls-2" x1="23.113" y1="10.753" x2="23.11" y2="5.314"/><line class="cls-1" x1="23.109" y1="2.974" x2="23.108" y2="1.112"/><line class="cls-1" x1="9.542" y1="18.429" x2="8.33" y2="17.015"/><line class="cls-3" x1="6.074" y1="14.384" x2="3.451" y2="11.325"/><line class="cls-1" x1="2.323" y1="10.009" x2="1.112" y2="8.595"/><line class="cls-1" x1="41.284" y1="6.956" x2="40.414" y2="8.602"/><line class="cls-4" x1="38.79" y1="11.673" x2="36.902" y2="15.243"/><line class="cls-1" x1="36.09" y1="16.779" x2="35.22" y2="18.425"/><path class="cls-5" d="M21.268,42.313a5.376,5.376,0,0,0,2.648-.459q.729-.457.73-2.126V35.892a2.073,2.073,0,0,0-.563-1.5,2.018,2.018,0,0,0-1.522-.584,1.8,1.8,0,0,0-1.606.709,2.459,2.459,0,0,0-.479,1.376V38.31H16.223V35.85a6.191,6.191,0,0,1,.5-2.46,6.015,6.015,0,0,1,1.376-2,6.87,6.87,0,0,1,2.043-1.334,6.291,6.291,0,0,1,2.5-.5,5.553,5.553,0,0,1,2.9.688,6.652,6.652,0,0,1,1.73,1.4,9.043,9.043,0,0,1,.73,1,4.857,4.857,0,0,1,.521,1.21,16.574,16.574,0,0,1,.376,4.086q0,1.542-.063,2.5a5.235,5.235,0,0,1-.313,1.585,3.18,3.18,0,0,1-.813,1.126,9.65,9.65,0,0,1-1.438,1,8.15,8.15,0,0,1,1.522,1.168,3.435,3.435,0,0,1,.771,1.251,6.458,6.458,0,0,1,.292,1.772q.041,1.021.042,2.606,0,1.459-.063,2.418a12.358,12.358,0,0,1-.188,1.584,4.945,4.945,0,0,1-.333,1.126,6.9,6.9,0,0,1-.542.959,6.747,6.747,0,0,1-2.022,1.939,6.01,6.01,0,0,1-3.232.771,7.5,7.5,0,0,1-2.126-.333,5.8,5.8,0,0,1-2.044-1.084,5.876,5.876,0,0,1-1.521-1.96,6.558,6.558,0,0,1-.605-2.96V50.986h4.253V53.2a2.417,2.417,0,0,0,.563,1.647,2.116,2.116,0,0,0,3.044,0,2.54,2.54,0,0,0,.563-1.73V48.859a2.928,2.928,0,0,0-.668-2.293,1.854,1.854,0,0,0-1.021-.417,13.657,13.657,0,0,0-1.689-.084Z" transform="translate(0 0)"/><path class="cls-6" d="M21.268,42.313a5.376,5.376,0,0,0,2.648-.459q.729-.457.73-2.126V35.892a2.073,2.073,0,0,0-.563-1.5,2.018,2.018,0,0,0-1.522-.584,1.8,1.8,0,0,0-1.606.709,2.459,2.459,0,0,0-.479,1.376V38.31H16.223V35.85a6.191,6.191,0,0,1,.5-2.46,6.015,6.015,0,0,1,1.376-2,6.87,6.87,0,0,1,2.043-1.334,6.291,6.291,0,0,1,2.5-.5,5.553,5.553,0,0,1,2.9.688,6.652,6.652,0,0,1,1.73,1.4,9.043,9.043,0,0,1,.73,1,4.857,4.857,0,0,1,.521,1.21,16.574,16.574,0,0,1,.376,4.086q0,1.542-.063,2.5a5.235,5.235,0,0,1-.313,1.585,3.18,3.18,0,0,1-.813,1.126,9.65,9.65,0,0,1-1.438,1,8.15,8.15,0,0,1,1.522,1.168,3.435,3.435,0,0,1,.771,1.251,6.458,6.458,0,0,1,.292,1.772q.041,1.021.042,2.606,0,1.459-.063,2.418a12.358,12.358,0,0,1-.188,1.584,4.945,4.945,0,0,1-.333,1.126,6.9,6.9,0,0,1-.542.959,6.747,6.747,0,0,1-2.022,1.939,6.01,6.01,0,0,1-3.232.771,7.5,7.5,0,0,1-2.126-.333,5.8,5.8,0,0,1-2.044-1.084,5.876,5.876,0,0,1-1.521-1.96,6.558,6.558,0,0,1-.605-2.96V50.986h4.253V53.2a2.417,2.417,0,0,0,.563,1.647,2.116,2.116,0,0,0,3.044,0,2.54,2.54,0,0,0,.563-1.73V48.859a2.928,2.928,0,0,0-.668-2.293,1.854,1.854,0,0,0-1.021-.417,13.657,13.657,0,0,0-1.689-.084Z" transform="translate(0 0)"/></svg>