<svg id="レイヤー_1" data-name="レイヤー 1" xmlns="http://www.w3.org/2000/svg" viewBox="0 0 408 24"><defs><style>.cls-1{fill:red;}</style></defs><path class="cls-1" d="M19.5,23.64H17.516L0,2.77H1.985Z"/><path class="cls-1" d="M25.573,7.187c-1.081,0-1.875.045-2.692.113V4.415a20.517,20.517,0,0,0,2.913.158h5.669a12.646,12.646,0,0,0-.154-1.826h3.044a11.852,11.852,0,0,0-.133,1.826h5.846a19.389,19.389,0,0,0,2.956-.158V7.3c-.75-.068-1.7-.113-2.735-.113H34.22v1.1h4.589c1.345,0,1.72-.022,2.426-.067-.044.406-.066,1.149-.088,2.208v4.395a18.72,18.72,0,0,0,.088,2.276,17.1,17.1,0,0,0-2.426-.112H36.492a14.525,14.525,0,0,0,7.214,3.425,16.463,16.463,0,0,0-1.456,2.863,18.284,18.284,0,0,1-8.1-5.094c.044.744.066,1.015.066,1.556v1.284a17.5,17.5,0,0,0,.154,2.592H31.309a20.664,20.664,0,0,0,.154-2.592V19.718c0-.09.022-.586.066-1.51A17.246,17.246,0,0,1,23.808,23.3a12.741,12.741,0,0,0-1.456-2.727,15.627,15.627,0,0,0,6.927-3.583H27.161a16.532,16.532,0,0,0-2.449.112,3.605,3.605,0,0,1,.066-.7,10,10,0,0,0,.023-1.578V10.455A21.143,21.143,0,0,0,24.712,8.2a19.743,19.743,0,0,0,2.405.09h4.346v-1.1ZM27.58,10.5v1.1h3.883V10.5Zm0,3.245V14.85h3.883V13.745ZM34.22,11.6h4.148V10.5H34.22Zm0,3.246h4.148V13.745H34.22Z"/><path class="cls-1" d="M52.844,13.588h1.368a12.8,12.8,0,0,0,2.14-.113v2.8a17.744,17.744,0,0,0-2.14-.09h-.419a8.752,8.752,0,0,0,2.051,1.758c-.463.9-.86,1.735-1.213,2.591A10.147,10.147,0,0,1,52.8,18.456c.044.946.044,1.285.044,1.623v1.8a10.6,10.6,0,0,0,.111,1.847H50.02A9.685,9.685,0,0,0,50.131,22V20.282c0-.384.022-.9.044-1.4a10.607,10.607,0,0,1-3.419,3.741,10.6,10.6,0,0,0-1.214-2.816,11.62,11.62,0,0,0,3.729-3.629H48.057a13.152,13.152,0,0,0-2.118.113V13.475a13.1,13.1,0,0,0,2.163.113h2.029V12.235h-2.1a17.769,17.769,0,0,0-2.118.091V9.486a13.3,13.3,0,0,0,2.228.113,16.036,16.036,0,0,0-.529-2.548c-.552.023-.816.046-1.258.091V4.37a13.365,13.365,0,0,0,2.185.113H50.02V4.347a9.413,9.413,0,0,0-.11-1.69h3.155a8.972,8.972,0,0,0-.11,1.69v.136h1.213A13.047,13.047,0,0,0,56.33,4.37V7.142c-.441-.045-.6-.045-1.169-.068A20.568,20.568,0,0,1,54.587,9.6a10.259,10.259,0,0,0,1.875-.113v2.84a18.179,18.179,0,0,0-2.14-.091H52.844ZM52.072,9.6a13.158,13.158,0,0,0,.485-2.548H50.219a1.012,1.012,0,0,1,.088.249,12.407,12.407,0,0,1,.463,2.3Zm12.442-.136a10.643,10.643,0,0,0,2.029-.135v2.953a10.859,10.859,0,0,0-1.7-.091h-.419v8.723a18.14,18.14,0,0,0,.132,2.839H61.469a18.5,18.5,0,0,0,.133-2.839V12.19H59.837c-.11,5.68-.838,8.79-2.713,11.675A12.593,12.593,0,0,0,54.5,22.129c2.117-2.84,2.581-5.363,2.581-14.514a27.422,27.422,0,0,0-.133-3.132,27.2,27.2,0,0,0,5.14-.947,7.649,7.649,0,0,0,2.228-.947l2.14,2.638a6.716,6.716,0,0,0-.772.247,30.971,30.971,0,0,1-5.824,1.375V9.463Z"/><path class="cls-1" d="M71.049,14.94c0-.428,0-.428.044-2.456a16.415,16.415,0,0,1-1.455,1.983,15.283,15.283,0,0,0-1.06-3.4A16.9,16.9,0,0,0,72,5.384,13.593,13.593,0,0,0,72.792,2.5l3,.743a37.92,37.92,0,0,1-1.9,4.89V21.048a20.04,20.04,0,0,0,.132,2.592H70.9a19.2,19.2,0,0,0,.154-2.615ZM82.057,6.984A27.989,27.989,0,0,0,78.065,4.55l2.051-1.984a26.464,26.464,0,0,1,4.721,2.75L83.226,6.984h3.023a23.037,23.037,0,0,0,2.757-.135v3c-.794-.068-1.676-.112-2.669-.112H83.271V13.3h2.514a21.256,21.256,0,0,0,2.537-.113v2.907c-.728-.067-1.544-.113-2.514-.113H83.271v4.193h3.485a24.785,24.785,0,0,0,2.736-.136v3a19.8,19.8,0,0,0-2.736-.135H77.248a19.773,19.773,0,0,0-2.735.135v-3a23.263,23.263,0,0,0,2.625.136h3.221V15.976H78.2c-.971,0-1.765.046-2.471.113V13.182a20.048,20.048,0,0,0,2.493.113h2.14V9.734h-2.67c-.992,0-1.831.044-2.6.112V6.872a19.23,19.23,0,0,0,2.6.112Z"/><path class="cls-1" d="M97.924,10.117c.816,0,1.235-.022,1.522-.045-.133,1.555-.265,2.862-.309,3.268a17.739,17.739,0,0,1-1.412,5.093c1.7,1.6,3.486,2.074,7.92,2.074,2.779,0,5.228-.091,7.368-.293a11.226,11.226,0,0,0-.662,2.952c-1.566.022-5.758.068-6.662.068-4.765,0-7.147-.653-9.221-2.547a15.892,15.892,0,0,1-2.78,3.087,8.515,8.515,0,0,0-1.809-2.546,13.071,13.071,0,0,0,2.692-2.8,21.031,21.031,0,0,1-1.236-2.118c-.595-1.149-.595-1.149-.838-1.6l2.272-1.33a14.086,14.086,0,0,0,1.1,2.591,15.038,15.038,0,0,0,.794-3.313H94.482c-.618,0-1.191.023-1.676.068V10.1A22.1,22.1,0,0,0,95.828,6.15H93.953a11.093,11.093,0,0,0-1.5.091V3.469a11.431,11.431,0,0,0,1.61.09h2.515a8.066,8.066,0,0,0,1.566-.09l1.28,1.758c-.154.2-.486.743-1.037,1.667-.375.609-.507.811-2.184,3.223Zm5.934-4.034h-2.449c-.551,0-1.1.022-1.544.067V3.874a12.514,12.514,0,0,0,1.743.09h2.25a6.237,6.237,0,0,0-.111-1.375h2.912a6.473,6.473,0,0,0-.132,1.375H109.7a12.631,12.631,0,0,0,1.7-.09,13.813,13.813,0,0,0-.066,1.442V6.94A8.243,8.243,0,0,0,112.77,6.8V9.373a9,9,0,0,0-1.434-.09v1.6a13.047,13.047,0,0,0,.066,1.374c-.529-.045-.97-.068-1.5-.068h-3.375v1.059H109.9a13.968,13.968,0,0,0,1.809-.09V15.5c-.485-.045-1.036-.067-1.809-.067h-3.375v1.036h4.037a10.869,10.869,0,0,0,1.942-.112v2.389c-.552-.046-1.148-.067-1.942-.067h-4.037a10.04,10.04,0,0,0,.11,1.351h-2.912a7.441,7.441,0,0,0,.133-1.351h-2.912a17.928,17.928,0,0,0-1.853.067V16.383a14.664,14.664,0,0,0,1.875.089h2.89V15.436h-2.383a13.057,13.057,0,0,0-1.7.09V13.159a12.414,12.414,0,0,0,1.7.09h2.383V12.19h-2.493a12.663,12.663,0,0,0-1.368.068V10.049a8.806,8.806,0,0,0,1.523.091h2.338V9.148h-3.243a13.559,13.559,0,0,0-1.809.067V6.984a11.932,11.932,0,0,0,1.919.09h3.133Zm4.875.991V6.083h-2.206v.991Zm-2.206,3.066h2.206V9.148h-2.206Z"/><path class="cls-1" d="M132.828,7.255a8.869,8.869,0,0,0-.485,1.645,20.635,20.635,0,0,1-5.361,9.894,23.335,23.335,0,0,1-7.192,4.711,10.2,10.2,0,0,0-2.338-3.223,17.79,17.79,0,0,0,4.743-2.231,15.007,15.007,0,0,0,6.574-9.4h-9.662a25.294,25.294,0,0,0-3.42.135V5.339a22.1,22.1,0,0,0,3.463.158h10.016a10.665,10.665,0,0,0,1.213-.068,11.207,11.207,0,0,0-1.125-1.8l1.831-.7a14.1,14.1,0,0,1,1.743,3.019l-.861.339Zm.838-5.207A11.955,11.955,0,0,1,135.409,5L133.6,5.79a15.536,15.536,0,0,0-1.721-3.02Z"/><path class="cls-1" d="M137.974,9.373a19.149,19.149,0,0,0,3.331.158h10.633a5.511,5.511,0,0,0,2.14-.226l1.477,1.668a6.957,6.957,0,0,0-.617,1.421A16.736,16.736,0,0,1,149.93,20.1a20.714,20.714,0,0,1-6.022,3.245,9.9,9.9,0,0,0-2.074-3.132,14.763,14.763,0,0,0,5.978-2.795,11.083,11.083,0,0,0,3.486-4.89H141.261a27.9,27.9,0,0,0-3.287.112Zm1.853-5.544a16.929,16.929,0,0,0,3.044.18h7.236a13.087,13.087,0,0,0,3-.18V7.1a20.054,20.054,0,0,0-2.956-.113h-7.346c-1.412,0-2.294.045-2.978.113Z"/><path class="cls-1" d="M161.318,4.731A30.9,30.9,0,0,1,167.186,9.1l-2.228,2.952a23.4,23.4,0,0,0-5.8-4.665ZM159.244,18.7a20.678,20.678,0,0,0,6.574-1.645,13.769,13.769,0,0,0,6.486-5.521,19.667,19.667,0,0,0,2.228-4.486,12.141,12.141,0,0,0,2.8,2.616c-2.184,4.822-4.787,7.8-8.625,9.871a27.645,27.645,0,0,1-6.419,2.344c-.552.113-.552.113-.971.2a7.892,7.892,0,0,0-1.1.316Z"/><path class="cls-1" d="M182.633,22.964a23.663,23.663,0,0,0,.133-3.178V6.443a19.982,19.982,0,0,0-.133-3.02h3.6a20.3,20.3,0,0,0-.133,3.02V9.869A52.6,52.6,0,0,1,196.134,14.6l-1.809,3.245a48.1,48.1,0,0,0-7.39-4.1,7.366,7.366,0,0,1-.839-.4v6.49a28.545,28.545,0,0,0,.133,3.134ZM192.362,4.82a13.382,13.382,0,0,1,1.963,3.224l-1.919.969a15.5,15.5,0,0,0-1.964-3.336ZM194.921,3.6a14.883,14.883,0,0,1,2.007,3.11l-1.919.969a17.362,17.362,0,0,0-1.941-3.2Z"/><path class="cls-1" d="M211.848,13.115a31.728,31.728,0,0,0,.353-3.922,19.562,19.562,0,0,1-2.14,2.164,13.357,13.357,0,0,0-1.721-2.5,13.045,13.045,0,0,0,4.081-4.823,7.22,7.22,0,0,0,.618-1.555l3.044.383c-.176.338-.176.36-.308.609-.244.5-.332.676-.552,1.081H225.5a22.37,22.37,0,0,0,2.736-.135V7.39a23.385,23.385,0,0,0-2.736-.135H213.679c-.375.541-.507.744-.816,1.127.618.022.728.022,1.014.022h10.5c1.015,0,1.676-.022,2.139-.068a28.044,28.044,0,0,0-.154,3.2c-.022.316-.044.744-.088,1.578h.463a13.407,13.407,0,0,0,2.14-.113v2.84a19.037,19.037,0,0,0-2.184-.09h-.573c-.067.878-.111,1.329-.2,2.231h.287a13.534,13.534,0,0,0,1.985-.09V20.71a16.223,16.223,0,0,0-2.117-.09h-.53c-.551,2.681-1.081,3.132-3.75,3.132-.441,0-.817-.023-1.9-.089a7.478,7.478,0,0,0-.486-2.525,15.779,15.779,0,0,0,2.074.2c.684,0,.948-.158,1.125-.721H213.37c-.11.495-.177.744-.353,1.487l-3.067-.248a37.85,37.85,0,0,0,1.523-6.107h-.551a13.7,13.7,0,0,0-2.229.113V13a17.77,17.77,0,0,0,2.515.113Zm5.1,4.868c.176-1.082.176-1.082.33-2.231H214.3c-.154.991-.2,1.306-.375,2.231Zm.639-4.868c.023-.429.023-.429.155-2.074H214.87c-.088,1.036-.132,1.4-.221,2.074Zm5.472,4.868c.088-.812.132-1.263.2-2.231H220.01c-.154,1.194-.154,1.194-.309,2.231Zm.374-4.868c.022-.631.045-.97.066-2.074h-3.066c-.088,1.4-.088,1.4-.154,2.074Z"/><path class="cls-1" d="M237.024,16.766a13.485,13.485,0,0,1-3.2,7.076,12.819,12.819,0,0,0-2.427-2.478c2.6-2.773,3.132-5.139,3.132-14.4a31.878,31.878,0,0,0-.132-3.493,23.323,23.323,0,0,0,2.713.112h9.552a19.813,19.813,0,0,0,2.648-.112,24.266,24.266,0,0,0-.089,2.681V20.62c0,1.307-.242,1.983-.882,2.434a5.14,5.14,0,0,1-2.89.5c-.683,0-1.456-.023-2.537-.068a10.679,10.679,0,0,0-.772-3,23.869,23.869,0,0,0,3.331.271c.64,0,.794-.113.794-.541V16.766Zm9.243-2.7v-2.57h-8.779c-.044.767-.088,1.579-.155,2.57Zm0-5.274V6.42h-8.758V8.787Z"/><path class="cls-1" d="M255.482,17.784a16.487,16.487,0,0,1-.632,4.541l-1.473-.692A15.251,15.251,0,0,0,254,17.589Zm-1.986-2.45a3.356,3.356,0,0,0,.735.06h.5c.28-.346.4-.5.678-.9a13.984,13.984,0,0,0-1.928-2.226l.927-1.548c.205.255.28.346.426.511a10.691,10.691,0,0,0,1.089-2.27l1.634.646a4.442,4.442,0,0,0-.294.542,22.5,22.5,0,0,1-1.34,2.285c.192.24.265.315.486.6a16.939,16.939,0,0,0,1.486-2.542l1.575.888c-.117.165-.235.315-.5.736-.677,1.022-1.751,2.481-2.355,3.2.751-.03.883-.045,1.472-.09-.1-.316-.162-.481-.382-1.007l1.221-.482a26.255,26.255,0,0,1,1.133,3.1l-1.383.571c-.044-.3-.074-.391-.133-.662-.648.075-.648.075-.853.091v4.646a9.933,9.933,0,0,0,.088,1.639h-1.913a9.719,9.719,0,0,0,.088-1.639v-4.5c-.677.044-.677.044-1.692.105-.251.03-.4.045-.6.075Zm5.945,2.2a31.393,31.393,0,0,1,.633,3.955l-1.56.3a36.854,36.854,0,0,0-.442-3.939ZM261.781,13a10.609,10.609,0,0,1-1.428,2.255,5.347,5.347,0,0,0-1.368-1.429,10,10,0,0,0,1.6-2.721,11.188,11.188,0,0,0,.588-2.06l1.943.33a5.472,5.472,0,0,0-.206.647c-.074.241-.235.752-.368,1.113h3.105a7.8,7.8,0,0,0,1.192-.06,21.657,21.657,0,0,0-.073,2.751c-.015,1.8-.162,4.435-.309,5.653-.221,1.775-.515,2.6-1.045,3.023a3.593,3.593,0,0,1-2.045.406c-.413,0-.8-.015-1.3-.045a6.741,6.741,0,0,0-.486-1.985,14.623,14.623,0,0,0,1.9.18c.662,0,.824-.18,1-1.1a46.8,46.8,0,0,0,.383-6.96Zm.309,6.3a17.321,17.321,0,0,0-1.545-3.879l1.619-.782a18.135,18.135,0,0,1,1.677,3.819Z"/><path class="cls-1" d="M273.917,16.051a3.056,3.056,0,0,0,.972,1.933,4.293,4.293,0,0,0,3.1,1.128c2.312,0,3.783-1.208,3.783-3.114,0-2.013-1.34-3.06-3.968-3.06a27.658,27.658,0,0,0-3.178.134V9.127a19.426,19.426,0,0,0,2.5.16,5.4,5.4,0,0,0,2.89-.618,2.592,2.592,0,0,0,1.208-2.307c0-1.745-1.1-2.6-3.284-2.6a3.36,3.36,0,0,0-2.759,1.182,3.657,3.657,0,0,0-.656,1.477l-4.677-.752a7.343,7.343,0,0,1,1.839-3.356A8.649,8.649,0,0,1,278.146,0a8.544,8.544,0,0,1,6.227,2.147A5.284,5.284,0,0,1,285.845,5.8a5.251,5.251,0,0,1-1.156,3.489c-.71.859-1.393,1.235-3.18,1.772a5.929,5.929,0,0,1,3.7,1.852,5.375,5.375,0,0,1,1.234,3.7,5.665,5.665,0,0,1-1.6,3.946c-1.5,1.5-3.862,2.282-6.91,2.282-3.2,0-5.623-.913-7.119-2.711a7.752,7.752,0,0,1-1.525-3.221Z"/><path class="cls-1" d="M292.858,20.453a8.145,8.145,0,0,1-1.813-2.845,18.043,18.043,0,0,1-1.024-6.147,15.836,15.836,0,0,1,1.628-7.435A7.933,7.933,0,0,1,298.822.053a8.111,8.111,0,0,1,5.938,2.336,7.807,7.807,0,0,1,1.813,2.845,18.1,18.1,0,0,1,1.025,6.174,16.166,16.166,0,0,1-1.6,7.435,8.613,8.613,0,0,1-13.137,1.61Zm1.629-9.179c0,5.1,1.471,7.73,4.335,7.73a3.468,3.468,0,0,0,2.6-1.073c1.1-1.155,1.707-3.463,1.707-6.416,0-5.074-1.471-7.677-4.309-7.677C296.09,3.838,294.487,6.576,294.487,11.274Z"/><path class="cls-1" d="M320.115,12.732h2.133a9.1,9.1,0,0,0,1.266-.06,11.5,11.5,0,0,0-.059,1.429v2.827a11.8,11.8,0,0,0,.059,1.428,11.963,11.963,0,0,0-1.413-.06h-1.133a8.985,8.985,0,0,0,3.4,2.436,6.469,6.469,0,0,0-.987,1.909,10.2,10.2,0,0,1-2.03-1.564,6.241,6.241,0,0,1-1.281-1.594c.029.257.045.647.045.993v1.293a7.243,7.243,0,0,0,.087,1.339H318.26a7.039,7.039,0,0,0,.088-1.339V20.506c0-.391.015-.677.029-.962a9.914,9.914,0,0,1-3.252,3.112,5.864,5.864,0,0,0-1.03-1.729A8.687,8.687,0,0,0,317.45,18.3h-.971a10,10,0,0,0-1.295.06,12.046,12.046,0,0,0,.059-1.4v-.843a6.548,6.548,0,0,0-.6,1.369,6.123,6.123,0,0,1-.794-1.578c.029.556.058,1.187.058,1.788v3.534a16.3,16.3,0,0,0,.089,1.88h-1.987a16.693,16.693,0,0,0,.088-1.88V18.567c0-.662.03-1.279.06-1.714a9.484,9.484,0,0,1-1.34,2.991,10.3,10.3,0,0,0-.736-2.09,9.659,9.659,0,0,0,1.236-2.345,12.263,12.263,0,0,0,.619-1.97h-.544a4.119,4.119,0,0,0-.973.076v-1.91a4.03,4.03,0,0,0,.973.075h.69V10.613a10.31,10.31,0,0,0-.088-1.564h1.987a14.584,14.584,0,0,0-.074,1.564V11.68h.325a5.161,5.161,0,0,0,.544-.03V10.237a11.852,11.852,0,0,0,1.634.089h1.942v-.164a5.445,5.445,0,0,0-.088-1.068h1.928a4.954,4.954,0,0,0-.073,1.068v.164h2.265a11.678,11.678,0,0,0,1.605-.089v1.894a12.756,12.756,0,0,0-1.605-.075h-2.265Zm-3.724-.676a11.733,11.733,0,0,0-1.427.06V13.5a3.387,3.387,0,0,0-.707-.061h-.28a6.451,6.451,0,0,0,1.266,2.2V14.056a11.783,11.783,0,0,0-.059-1.384,11.418,11.418,0,0,0,1.384.06h1.78v-.676Zm.559,2.12v.661h1.4v-.661Zm0,2.03v.647h1.4v-.647Zm3.165-1.369h1.633v-.661h-1.633Zm0,2.016h1.648v-.647h-1.648Z"/><path class="cls-1" d="M330.619,16.562c-1.058,0-1.677.023-2.449.091.067-.834.088-1.736.088-2.434V9.644c0-.97-.021-1.736-.088-2.457a20.356,20.356,0,0,0,2.449.09h4.412V6.015h-5.78c-1.014,0-1.94.045-2.889.135V3.288a27.752,27.752,0,0,0,2.889.135h14.207a28.4,28.4,0,0,0,2.89-.135V6.15c-.948-.09-1.941-.135-2.89-.135h-5.581V7.277h4.3c1.368,0,1.831-.022,2.449-.067-.066.811-.088,1.6-.088,2.457v4.6c0,.88.022,1.579.088,2.39a23.382,23.382,0,0,0-2.426-.091h-4.788a8.961,8.961,0,0,1-1.212,2.931,19.378,19.378,0,0,0,7.676,1.307c.839,0,1.479-.022,2.89-.135a12.267,12.267,0,0,0-.971,3.02,30.594,30.594,0,0,1-6.573-.541,18,18,0,0,1-4.9-1.668A13.391,13.391,0,0,1,327.311,24a12.939,12.939,0,0,0-1.17-2.7c2.846-.226,4.169-.564,5.691-1.487a11.9,11.9,0,0,1-1.787-1.758c-.021-.023-.044-.046-.352-.384l2.162-1.105Zm.375-6.963v1.262h3.993l.022-1.262Zm0,3.381v1.261h3.86c.044-.473.044-.585.067-1.261Zm1.236,3.582a9.843,9.843,0,0,0,1.521,1.511,5.339,5.339,0,0,0,.751-1.511Zm5.558-3.582c-.021.676-.021.765-.066,1.261h4.037V12.98Zm.044-2.119h3.927V9.6h-3.9Z"/><path class="cls-1" d="M356.258,13.588h1.368a12.791,12.791,0,0,0,2.14-.113v2.8a17.723,17.723,0,0,0-2.14-.09h-.419a8.758,8.758,0,0,0,2.052,1.758c-.463.9-.861,1.735-1.213,2.591a10.117,10.117,0,0,1-1.831-2.073c.043.946.043,1.285.043,1.623v1.8a10.7,10.7,0,0,0,.111,1.847h-2.934a9.79,9.79,0,0,0,.11-1.734V20.282c0-.384.023-.9.044-1.4a10.607,10.607,0,0,1-3.419,3.741,10.633,10.633,0,0,0-1.213-2.816,11.6,11.6,0,0,0,3.727-3.629h-1.212a13.144,13.144,0,0,0-2.118.113V13.475a13.091,13.091,0,0,0,2.162.113h2.029V12.235h-2.1a17.751,17.751,0,0,0-2.117.091V9.486a13.3,13.3,0,0,0,2.228.113,16.033,16.033,0,0,0-.53-2.548c-.551.023-.816.046-1.257.091V4.37a13.343,13.343,0,0,0,2.184.113h1.478V4.347a9.4,9.4,0,0,0-.111-1.69h3.155a8.972,8.972,0,0,0-.11,1.69v.136h1.213a13.039,13.039,0,0,0,2.162-.113V7.142c-.441-.045-.6-.045-1.169-.068A20.584,20.584,0,0,1,358,9.6a10.254,10.254,0,0,0,1.874-.113v2.84a18.16,18.16,0,0,0-2.139-.091h-1.479ZM355.487,9.6a13.311,13.311,0,0,0,.485-2.548h-2.339a1.048,1.048,0,0,1,.089.249,12.579,12.579,0,0,1,.463,2.3Zm12.441-.136a10.655,10.655,0,0,0,2.03-.135v2.953a10.867,10.867,0,0,0-1.7-.091h-.42v8.723a18.14,18.14,0,0,0,.132,2.839h-3.088a18.633,18.633,0,0,0,.133-2.839V12.19h-1.766c-.11,5.68-.838,8.79-2.713,11.675a12.593,12.593,0,0,0-2.625-1.736c2.118-2.84,2.581-5.363,2.581-14.514a27.707,27.707,0,0,0-.132-3.132,27.2,27.2,0,0,0,5.139-.947,7.657,7.657,0,0,0,2.229-.947l2.14,2.638a6.716,6.716,0,0,0-.772.247,31.011,31.011,0,0,1-5.824,1.375V9.463Z"/><path class="cls-1" d="M377.353,17.014c.022-.563.044-.812.044-1.06,0-.293,0-.293-.066-1.623l-.375-7.414c-.044-1.015-.133-2.119-.221-2.885h4.3c-.089.654-.176,1.713-.22,2.885l-.376,7.414c-.066,1.375-.066,1.375-.066,1.645,0,.249.022.475.045,1.038ZM377,22.378V18.726h3.773v3.652Z"/><path class="cls-1" d="M408,2.77,390.484,23.64H388.5L406.015,2.77Z"/></svg>