<svg id="レイヤー_1" data-name="レイヤー 1" xmlns="http://www.w3.org/2000/svg" viewBox="0 0 334 138"><defs><style>.cls-1{fill:#fff;}.cls-2{fill:#231815;}</style></defs><title>movie-link-fuki</title><rect class="cls-1" width="334" height="110.57" rx="2"/><path class="cls-2" d="M70.4,36.87a7.1,7.1,0,0,1-5-1.92,7.33,7.33,0,0,1-1.78-5,7.12,7.12,0,0,1,7.43-7.53c4.9,0,7.52,3.58,7.52,10.37,0,4.48-1,8.15-2.71,10.16a6.84,6.84,0,0,1-5.37,2.34c-3.2,0-6-1.66-6-3.61,0-1,.65-1.57,1.76-1.57s1.32.28,1.38,1.23c.19,2.16,1.11,3.18,2.87,3.18,2.13,0,3.64-1.45,4.47-4.26a23.5,23.5,0,0,0,.71-5.86A6.69,6.69,0,0,1,70.4,36.87Zm4.13-11.36a3.92,3.92,0,0,0-7-.25,10.06,10.06,0,0,0-1,4.63c0,3.8,1.66,6.14,4.31,6.14a4.74,4.74,0,0,0,3.27-1.35,5.19,5.19,0,0,0,1.57-4.11A10.67,10.67,0,0,0,74.53,25.51Z"/><path class="cls-2" d="M88,25.88a6.9,6.9,0,0,1,11.93,0,17.12,17.12,0,0,1,1.76,8,17.22,17.22,0,0,1-1.76,8,6.53,6.53,0,0,1-6,3.42,6.6,6.6,0,0,1-6-3.42,17.3,17.3,0,0,1-1.76-8A17.29,17.29,0,0,1,88,25.88Zm6,18.61c3.3,0,4.75-3.24,4.75-10.62S97.25,23.26,94,23.26,89.2,26.53,89.2,33.9,90.65,44.49,94,44.49Z"/><path class="cls-2" d="M116.27,28.53h.84c.61-.77.83-1,1.42-1.75,1.07.86,1.38,1.14,2.34,2,.12.13.15.19.15.25s-.12.18-.24.18h-4.51v2.5c.81.41,1.52.81,2.07,1.15.77.49,1,.86,1,1.57s-.4,1.64-.83,1.64-.38-.13-.71-1a7,7,0,0,0-1.55-2.72v5.43c0,6.24,0,6.24.07,9.94,0,.19-.07.25-.28.31a6.42,6.42,0,0,1-1.48.18c-.31,0-.46-.09-.46-.3.09-1.79.12-2.47.15-3.83v-1.3c.06-2.44.09-4.1.12-4.84l.22-5.34A31.08,31.08,0,0,1,109.12,42l-.37-.25a40.4,40.4,0,0,0,3.58-7.34A31.8,31.8,0,0,0,114,29.24h-2.8a8.15,8.15,0,0,0-1.82.16l-.19-1.08a7,7,0,0,0,2.25.21h2.93V23.66a31.85,31.85,0,0,1-4.65.74l-.09-.46a25.76,25.76,0,0,0,8.88-4l1.23.68c1.11.65,1.48.93,1.48,1.15s-.22.3-.46.3-.74-.09-1.24-.18a21.93,21.93,0,0,1-3.27,1.23ZM117.6,47.3a28.46,28.46,0,0,0,7.25-3.74,20.15,20.15,0,0,0,6.72-7.16A14.58,14.58,0,0,0,133,33.29c2.8,1.11,3.2,1.29,3.2,1.6s-.34.37-1.38.43a24.24,24.24,0,0,1-3.12,4.57,24.41,24.41,0,0,1-8,5.9,28.94,28.94,0,0,1-5.85,2Zm1.3-10A30,30,0,0,0,121.7,30a34.71,34.71,0,0,0,.93-4.41,13.45,13.45,0,0,0,1.35.4c1.39.43,1.76.62,1.76.87s-.22.34-1.26.43a35.62,35.62,0,0,1-2.07,5.31,21.42,21.42,0,0,1-3.08,5ZM127.16,24c0-1.21,0-2-.12-3.52,3.26.46,3.45.52,3.45.86s-.22.37-1.23.74V33.93c0,1,0,1.21,0,2.32a1.58,1.58,0,0,1-.84,1.48,5.38,5.38,0,0,1-2.28.8c-.28-1.32-.68-1.57-3.54-2.13v-.49c2,.15,2.62.19,4.1.19.34,0,.43-.1.43-.44Zm4,1.6A24.7,24.7,0,0,1,136,29.12c.83.74,1.05,1.11,1.05,1.88,0,1.24-.4,2.26-.9,2.26-.34,0-.46-.16-.95-1.08-.19-.34-1.67-2.81-1.82-3.06a31.06,31.06,0,0,0-2.59-3.24Z"/><path class="cls-2" d="M145.75,27.45a1.71,1.71,0,0,0,1.38.53c.87,0,1.64-.16,8.55-1.82,1.29-.34,3-.68,5-1.08a37.36,37.36,0,0,0,4.16-1,3.82,3.82,0,0,1,1.08-.25,4.16,4.16,0,0,1,1.67.65c.61.4.89.74.89,1.17s-.37.78-.95.78a3.1,3.1,0,0,1-.56,0,4.6,4.6,0,0,0-.86-.06c-5.28,0-10.36,5-10.36,10.22a6.3,6.3,0,0,0,4.07,6.11,9.69,9.69,0,0,0,3.14.74,1.54,1.54,0,0,1,1.3.49,2.56,2.56,0,0,1,.92,1.48c0,.5-.46.87-1.11.87A12.77,12.77,0,0,1,157.77,44a8.22,8.22,0,0,1-3.57-6.92,11.44,11.44,0,0,1,3.36-7.53,15.91,15.91,0,0,1,5-3.55,51.21,51.21,0,0,0-8.85,2.16,34.25,34.25,0,0,0-4.93,2,2,2,0,0,1-1.23.43,3.41,3.41,0,0,1-2.38-1.82,4.42,4.42,0,0,1-.8-2.07,1.33,1.33,0,0,1,.34-.83A3.31,3.31,0,0,0,145.75,27.45Zm17.79,1.76a17,17,0,0,1,3.08,1.7,2.41,2.41,0,0,1,1.2,1.91c0,.87-.33,1.52-.77,1.52-.27,0-.34-.1-.92-1.18a14.93,14.93,0,0,0-2.87-3.58Zm3-1.26a13.21,13.21,0,0,1,3.05,1.23,2.19,2.19,0,0,1,1.36,2c0,.83-.31,1.48-.74,1.48-.22,0-.4-.16-.62-.65a10.15,10.15,0,0,0-3.27-3.7Z"/><path class="cls-2" d="M191.93,45c5.55-1.94,8.57-5.24,8.57-9.32,0-3-1.91-5.09-4.68-5.09s-6.26,1.61-9.53,4.35c0,2.5.18,5.9.34,7.1a8.08,8.08,0,0,1,.09,1.2,7,7,0,0,1-.62,2.87.88.88,0,0,1-.77.62.74.74,0,0,1-.64-.4,7.82,7.82,0,0,0-.31-.86,4.37,4.37,0,0,0-1.08-1.85A18.81,18.81,0,0,0,181,41.22a4.36,4.36,0,0,0-.31.62c-.43.83-.65,1.11-.9,1.11-.43,0-.92-1.18-.92-2.19,0-.41.12-.65.58-1.15a14.45,14.45,0,0,0,1.33-1.51c.89-1.14,3.79-5.24,4.56-6.51.06-1.11.1-1.85.13-2.25a25.21,25.21,0,0,0-3,1.94,1.73,1.73,0,0,1-2.89-.46,3.32,3.32,0,0,1-.77-1.7,1.78,1.78,0,0,1,.15-.52c.52,1,1.17,1.48,1.88,1.48a16.74,16.74,0,0,0,4.78-1.95c.06-.58.15-2.4.15-3.08,0-1.95-.21-2.38-1.82-3.55a.86.86,0,0,1,.47-.16,5.37,5.37,0,0,1,2.53,1.08c.77.56,1.14,1,1.14,1.45,0,.25,0,.25-.37,1.24a9.51,9.51,0,0,0-.62,2.56c.74.62,1.11,1.08,1.11,1.39s0,.22-.52.8a8.91,8.91,0,0,0-1.11,2,8,8,0,0,0-.1,1c1.79-1,2.22-1.21,3.18-1.67a14.29,14.29,0,0,1,6.29-1.6c4,0,7,2.71,7,6.41,0,3.06-1.76,5.65-5.09,7.5a16.93,16.93,0,0,1-5.7,1.89Zm-8.88-7.31c-1.51,2.53-1.51,2.53-1.79,3a39.81,39.81,0,0,0,3.7,2.47c0-2,.13-6.57.22-9.16C183.36,37.14,183.33,37.21,183.05,37.67Z"/><path class="cls-2" d="M218.54,30.69a23.84,23.84,0,0,0-4,1.61,1.6,1.6,0,0,1-.89.34,2.26,2.26,0,0,1-1.36-.93,4.86,4.86,0,0,1-1-2.34,1.9,1.9,0,0,1,.19-.68c.64,1.29,1.2,1.7,2.34,1.7A32.61,32.61,0,0,0,219,29.31a17.47,17.47,0,0,0,1.27-5.07c0-.95-.59-1.48-2.38-2.06a1.39,1.39,0,0,1,.93-.31,8.25,8.25,0,0,1,2.06.4c1.39.4,2.16,1,2.16,1.6,0,.25-.06.37-.43.9a29.93,29.93,0,0,0-2,4.2,10.6,10.6,0,0,1,2.68-.37c2.65,0,3.91,1.57,3.91,4.81,0,4-1.57,9.07-3.36,11.08a4.37,4.37,0,0,1-3,1.39.72.72,0,0,1-.83-.71c-.09-.86-.15-.93-3.42-3.61l.28-.4c2.37,1.35,4.13,2.13,4.78,2.13s1.2-.65,2-2.6a23.84,23.84,0,0,0,1.82-8.3c0-2.07-.56-2.81-2.19-2.81a10.12,10.12,0,0,0-3.24.65c-.43,1.05-.43,1.05-1.79,4.2-.12.31-.74,1.76-1.82,4.32-1.23,2.9-2.25,5.12-2.74,6-.22.4-.46.58-.74.58-.56,0-.89-.8-.89-2.13a2,2,0,0,1,.71-1.72,21.56,21.56,0,0,0,2.28-3.65c1.17-2.28,1.17-2.28,2.46-5.12Zm12-2a10.72,10.72,0,0,1,5.65,3.7A7.29,7.29,0,0,1,238,36.81c0,1-.46,1.66-1.23,1.66a1.19,1.19,0,0,1-.71-.21,2,2,0,0,0-1.26-.31,27.08,27.08,0,0,0-3.86.28l-.12-.44a46.81,46.81,0,0,0,4.72-1.57,8,8,0,0,0-1-3,9,9,0,0,0-4.22-4.11Z"/><path class="cls-2" d="M258.8,24.31c-1.2.37-4.1,1.51-6.22,2.43a3.68,3.68,0,0,1-1.27.41c-.55,0-1.17-.44-1.76-1.3a4.45,4.45,0,0,1-.86-2.28,1.26,1.26,0,0,1,.28-.81c.46,1.45,1.29,2.26,2.31,2.26a33.57,33.57,0,0,0,5.83-1.33,3.9,3.9,0,0,0,1.91-1,.75.75,0,0,1,.43-.15c.4,0,.9.31,1.67,1.08s.92,1,.92,1.39c0,.21-.15.4-.52.58A8.54,8.54,0,0,0,259,27.7c-1.94,1.95-3.09,3.09-4.53,4.63-3,3.18-3,3.18-3.61,3.83l.06.06c3.3-2.07,5.8-2.93,8.39-2.93,3.94,0,6.6,2.31,6.6,5.77,0,4.41-4.11,7.68-9.69,7.68-3,0-5-1.2-5-3.08,0-1.52,1.42-2.63,3.33-2.63a5.65,5.65,0,0,1,3.91,1.52,6.09,6.09,0,0,1,1.36,1.91,6.08,6.08,0,0,0,3.73-5.77,4.27,4.27,0,0,0-1.91-3.83,6.84,6.84,0,0,0-3.05-.62c-3,0-7.25,2.47-9.81,5.74-.52.65-.74.84-1.05.84s-1-1.08-1-2a1.47,1.47,0,0,1,.64-1.08c1.18-.89,1.67-1.39,4.29-4.29,3.76-4.23,4.93-5.58,7.37-8.73a1.57,1.57,0,0,0,.31-.5s-.06-.06-.09-.06,0,0,0,0h-.09l-.15.06ZM254.06,42c-1.18,0-1.95.62-1.95,1.58,0,1.14,1.36,1.88,3.52,1.88a8.07,8.07,0,0,0,2.19-.28A4,4,0,0,0,254.06,42Z"/><path class="cls-2" d="M32.11,90.89a22.15,22.15,0,0,0,4.47-7.28,21.26,21.26,0,0,0,1.48-6.3,1.55,1.55,0,0,0-.8-1.51,24.87,24.87,0,0,0-6.85,1.94,1.91,1.91,0,0,1-.95.31,2.86,2.86,0,0,1-1.95-1.17,3,3,0,0,1-1-1.85,1.84,1.84,0,0,1,.12-.59,2.91,2.91,0,0,0,2.53,1.42c.68,0,.68,0,5.27-.8,1.88-.31,5.8-.8,9.5-1.14a14.28,14.28,0,0,0,2.4-.53,1.79,1.79,0,0,1,.77-.15,3.91,3.91,0,0,1,1.64.46c.86.4,1.45,1,1.45,1.42s-.34.62-.87.62a3,3,0,0,1-.77-.09,28.69,28.69,0,0,0-5-.41,38.74,38.74,0,0,0-5.06.31c1.42.78,2,1.42,2,2.13a19,19,0,0,1-2,6,18.19,18.19,0,0,1-6.1,7.5Zm-.59-23.82a5,5,0,0,0,3.7,1.66,17,17,0,0,0,6.48-1.51,1.75,1.75,0,0,1,.92-.25c.8,0,2.1,1,2.1,1.61,0,.4-.37.55-1.6.83a43.75,43.75,0,0,1-7.06.8c-2.29,0-3.52-.68-5-2.83ZM45.8,65.86A14.72,14.72,0,0,1,49.44,68a2.18,2.18,0,0,1,1,1.85c0,.93-.34,1.64-.77,1.64-.24,0-.43-.22-.68-.74a13.81,13.81,0,0,0-3.42-4.57Zm2.71-1.73a13.16,13.16,0,0,1,3.7,1.76c.87.62,1.11,1,1.11,1.82S53,69.2,52.64,69.2c-.24,0-.43-.16-.67-.62a11.5,11.5,0,0,0-3.7-4.08Z"/><path class="cls-2" d="M65.31,76.33a24.79,24.79,0,0,0,4.41-.59,4.64,4.64,0,0,0,1.3-.4,1.75,1.75,0,0,1,.4-.22,1,1,0,0,1,.46-.12,3.21,3.21,0,0,1,1.54,1c.5.52.62.74.62,1a.63.63,0,0,1-.22.49,6,6,0,0,0-.71,2.13c-.46,1.76-1.11,4.47-1.32,5.43.28,0,.28,0,1.26-.09a9.16,9.16,0,0,0,3.24-.43,1.33,1.33,0,0,1,.52-.16,3.59,3.59,0,0,1,1.3.53c.74.43,1.2,1,1.2,1.42a.66.66,0,0,1-.71.61,7.05,7.05,0,0,1-1.66-.34,18,18,0,0,0-3.7-.27,31.34,31.34,0,0,0-8,1,12,12,0,0,0-2.68.87,1.41,1.41,0,0,1-.8.24,2.53,2.53,0,0,1-1.76-1,4.32,4.32,0,0,1-1-2,1.61,1.61,0,0,1,.12-.53,2.81,2.81,0,0,0,2.35,1.45c.31,0,1.11-.09,2.09-.21,2-.31,3.52-.53,4.69-.65s1.27-.15,1.88-.25a81.61,81.61,0,0,0,1.2-8.45c0-.09,0-.13-.09-.13a31,31,0,0,0-3.7.81,11.28,11.28,0,0,0-1.76.64,1.93,1.93,0,0,1-.74.16c-.55,0-1.07-.43-1.54-1.24a3.67,3.67,0,0,1-.58-1.66,1.1,1.1,0,0,1,.18-.62A2.42,2.42,0,0,0,65.31,76.33Z"/><path class="cls-2" d="M89.61,76.2c.77.59,1.35.74,3,.74l3.79-.09c1.2,0,11-.19,12-.19,2.77,0,3.45.07,4,.28a.66.66,0,0,1,.44.62.9.9,0,0,1-.71.83c-.84.28-1.58.31-7.4.37-2.87,0-9.93.22-11,.28-1.45.09-1.73.12-2.22.4a2.66,2.66,0,0,1-.46.09c-.47,0-1-.33-1.48-1a5.57,5.57,0,0,1-1.18-2.84c0-.44,0-.5.25-.71A2.71,2.71,0,0,0,89.61,76.2Z"/><path class="cls-2" d="M123.8,90.3A42.09,42.09,0,0,0,134,78.48c2-3.42,3.67-7.19,3.67-8.23,0-.31-.15-.41-.61-.41a49.42,49.42,0,0,0-5.71,1,35.89,35.89,0,0,0-5.64,1.76,2.79,2.79,0,0,1-1.14.31c-.65,0-1.45-.62-2.22-1.67a3.53,3.53,0,0,1-.8-1.94,1,1,0,0,1,.21-.62,3,3,0,0,0,2.87,1.79,78,78,0,0,0,8.79-1.26c2.71-.47,2.93-.53,3.57-.87.37-.21.37-.21.62-.21a4.64,4.64,0,0,1,2.25,1.42c.65.61,1,1.11,1,1.51,0,.25-.09.43-.43.8a5.39,5.39,0,0,0-1.08,1.7,44.77,44.77,0,0,1-8.88,12.47,31.13,31.13,0,0,1-6.35,4.6ZM146.55,67a3.08,3.08,0,1,1-3.08-3.08A3.1,3.1,0,0,1,146.55,67Zm-5.24,0a2.16,2.16,0,1,0,4.32,0,2.16,2.16,0,0,0-4.32,0Z"/><path class="cls-2" d="M175.69,75.37a27.7,27.7,0,0,1-4.6,5.24,38.49,38.49,0,0,1-9.31,6.3c-1.73.9-1.76.9-2.31,1.48a.94.94,0,0,1-.71.4c-.62,0-2-1.82-2-2.65,0-.16,0-.16.16-.56.21-.68.25-1.39.25-4.72,0-6.82-.16-9.81-.56-11-.28-.77-.77-1.14-2.13-1.6a1.47,1.47,0,0,1,1-.31,5.88,5.88,0,0,1,2.47.74c1.2.65,1.81,1.27,1.81,1.89a1.56,1.56,0,0,1-.15.64,16.94,16.94,0,0,0-.4,3.06c-.15,1.88-.34,7.5-.34,9.78v1.55a39.3,39.3,0,0,0,10.51-5.47,42,42,0,0,0,6-5.18Z"/><path class="cls-2" d="M184.5,74a16.61,16.61,0,0,1,5.4,1.82,2.21,2.21,0,0,1,1.17,2c0,.8-.4,1.48-.86,1.48s-.5-.12-1-.71a15.3,15.3,0,0,0-4.93-4.23Zm23.81-.77a36.62,36.62,0,0,1-4.6,5.28,70.8,70.8,0,0,1-11.68,9,17.71,17.71,0,0,0-2.38,1.7,1.05,1.05,0,0,1-.71.3c-.61,0-1.32-.58-2.19-1.85a5.2,5.2,0,0,1-.95-2.37,1,1,0,0,1,.27-.71,3,3,0,0,0,2.32,1.91c.68,0,2.71-1,5.92-3A71.59,71.59,0,0,0,207.94,73Zm-20.42-4.69c4.94,1.17,6.51,2.13,6.51,3.92,0,.86-.37,1.54-.83,1.54s-.34,0-1.67-1.64A14.21,14.21,0,0,0,187.68,69Zm12.65-2.47c3.3,1.45,4.78,2.68,4.78,4a2.37,2.37,0,0,1-.44,1.48.46.46,0,0,1-.37.16c-.34,0-.43-.1-.86-.93a15.48,15.48,0,0,0-3.36-4.38Zm2.86-2c3.46,1.15,5,2.29,5,3.68,0,.89-.31,1.57-.74,1.57-.28,0-.46-.18-.8-.77a13.89,13.89,0,0,0-3.67-4.14Z"/><path class="cls-2" d="M222,90.89a22,22,0,0,0,4.47-7.28,21,21,0,0,0,1.48-6.3,1.53,1.53,0,0,0-.8-1.51,24.9,24.9,0,0,0-6.84,1.94,1.94,1.94,0,0,1-1,.31,2.87,2.87,0,0,1-1.94-1.17A3,3,0,0,1,216.38,75a1.84,1.84,0,0,1,.12-.59A2.91,2.91,0,0,0,219,75.86c.68,0,.68,0,5.28-.8,1.88-.31,5.79-.8,9.49-1.14a14.17,14.17,0,0,0,2.41-.53,1.77,1.77,0,0,1,.77-.15,3.83,3.83,0,0,1,1.63.46c.87.4,1.45,1,1.45,1.42s-.34.62-.86.62a3,3,0,0,1-.77-.09,28.82,28.82,0,0,0-5-.41,38.58,38.58,0,0,0-5.05.31c1.41.78,2,1.42,2,2.13a18.89,18.89,0,0,1-2,6,18.21,18.21,0,0,1-6.11,7.5Zm-.58-23.82a5,5,0,0,0,3.7,1.66,16.91,16.91,0,0,0,6.47-1.51,1.79,1.79,0,0,1,.93-.25c.8,0,2.09,1,2.09,1.61,0,.4-.37.55-1.6.83a43.51,43.51,0,0,1-7.06.8c-2.28,0-3.51-.68-5-2.83Zm14.27-1.21A14.53,14.53,0,0,1,239.35,68a2.19,2.19,0,0,1,1,1.85c0,.93-.34,1.64-.77,1.64-.25,0-.43-.22-.68-.74a14,14,0,0,0-3.42-4.57Zm2.72-1.73a13.31,13.31,0,0,1,3.7,1.76c.86.62,1.11,1,1.11,1.82s-.28,1.49-.68,1.49c-.25,0-.43-.16-.68-.62a11.41,11.41,0,0,0-3.7-4.08Z"/><path class="cls-2" d="M251.4,69a17.81,17.81,0,0,1,6,2.31,2.4,2.4,0,0,1,1,2.1c0,1-.34,1.73-.86,1.73-.34,0-.49-.15-1.33-1.23a15.94,15.94,0,0,0-5-4.54Zm21.93,1.76a32.11,32.11,0,0,1-6.48,8.3,60.88,60.88,0,0,1-8.66,7c-1.45,1-1.61,1.14-1.82,1.42-.49.58-.68.74-1.08.74-1.26,0-3.61-3-3.61-4.54a1.43,1.43,0,0,1,.16-.62A4.42,4.42,0,0,0,253,84.44a2,2,0,0,0,1.23.65,7.63,7.63,0,0,0,3-1.3,44.49,44.49,0,0,0,7.37-5.09,49,49,0,0,0,8.29-8.24Z"/><path class="cls-2" d="M281.16,88.48a44.67,44.67,0,0,0,8.29-6.75A55.31,55.31,0,0,0,295.34,74a20.75,20.75,0,0,0,2.1-4,32.43,32.43,0,0,0-6.51,1.36,16.24,16.24,0,0,0-2.59.83,1.47,1.47,0,0,1-.53.09c-.67,0-1.32-.55-2-1.76a3.81,3.81,0,0,1-.65-1.85,1.26,1.26,0,0,1,.22-.61c.89,1.6,1.54,2.06,2.9,2.06a49.15,49.15,0,0,0,6.47-.86,7.91,7.91,0,0,0,2.9-.87,1.24,1.24,0,0,1,.71-.27c.65,0,2.41,1.57,2.41,2.16a.72.72,0,0,1-.41.58c-.64.44-.64.44-1.75,2.1-1.48,2.22-1.48,2.22-3.89,5.37,4.35,2.29,6.79,3.86,8,5.22a4.09,4.09,0,0,1,1.17,3c0,1-.31,1.61-.83,1.61a1,1,0,0,1-.71-.5,7.1,7.1,0,0,1-.74-1.23A26.5,26.5,0,0,0,294.26,79a33.51,33.51,0,0,1-7.46,6.94,27.68,27.68,0,0,1-5.4,3Z"/><polygon class="cls-1" points="167 138 157.62 106.23 176.38 106.24 167 138"/></svg>